<svg width="1577" height="1017" viewBox="0 0 1577 1017" fill="none" xmlns="http://www.w3.org/2000/svg">
<path d="M704 0L284 364.103V418.968L799.5 1017H1576.5V0H704Z" fill="#1E0F1C"/>
<path d="M133.52 359.011C133.52 359.104 133.52 359.197 133.567 359.243L133.52 359.011Z" fill="#464646"/>
<path d="M118.85 364.95C118.85 364.857 118.897 364.764 118.897 364.672L118.85 364.95Z" fill="#464646"/>
<path d="M134.125 364.532C134.125 364.672 134.125 364.811 134.172 364.904L134.125 364.532Z" fill="#464646"/>
<path d="M72.6515 363.14H111.865L112.424 360.125H71.1612C65.9452 360.125 61.6606 364.347 61.6606 369.59V382.024L64.6878 379.936V371.121C64.6878 366.667 68.2272 363.14 72.6515 363.14Z" fill="#473245"/>
<path d="M61.6606 394.83V418.26C61.6606 418.956 62.3126 419.513 63.1509 419.513C63.9892 419.513 64.6412 418.956 64.6412 418.26V392.139C63.4769 393.067 62.4058 394.087 61.6606 394.83Z" fill="#473245"/>
<path d="M284.505 364.904C283.108 364.022 281.431 364.115 280.174 365.089L256.841 385.922V369.543C256.841 364.347 252.603 360.078 247.341 360.078H140.646L141.018 363.094H245.85C250.275 363.094 253.814 366.667 253.814 371.028V388.659C253.814 389.216 254.094 389.726 254.606 389.958C255.072 390.236 255.677 390.19 256.143 389.912L281.85 367.548C281.897 367.502 281.943 367.455 281.99 367.455C282.269 367.223 282.595 367.27 282.735 367.363C282.875 367.409 283.108 367.595 283.108 367.966V415.662C283.108 415.987 282.921 416.173 282.782 416.265C282.642 416.358 282.409 416.451 282.13 416.312L266.435 408.517C266.435 408.517 264.246 407.45 260.288 405.594C253.162 402.253 249.53 400.908 241.706 401.743C239.004 402.021 236.164 402.393 233.323 402.764C228.246 403.413 223.03 404.063 218.653 404.249C205.287 405.13 199.465 401.047 194.808 397.753C191.874 395.665 189.313 393.855 185.68 393.995C180.511 394.18 178.322 399.748 176.366 404.666C174.689 408.981 173.106 413.018 170.172 413.25C170.125 413.25 170.079 413.25 169.939 413.157C167.704 411.208 167.052 399.702 166.586 391.304C165.841 378.173 165.282 370.657 162.022 369.265C161.23 368.94 160.019 368.801 158.576 370.007C154.291 373.533 153.732 383.973 153.127 395.015C152.475 406.568 151.776 419.652 146.56 420.998C145.07 421.369 143.952 421.23 143.021 420.534C139.016 417.518 138.783 405.084 138.55 394.087C138.457 390.329 138.41 386.478 138.177 382.859C138.084 380.957 137.944 379.008 137.851 377.06C137.618 372.745 137.386 368.523 137.06 364.579L136.501 359.336C135.569 352.237 134.032 346.577 130.912 343.793C129.468 342.494 127.699 341.89 125.789 342.03C120.992 342.308 118.524 349.453 116.615 359.429L115.544 365.692C115.171 368.151 114.798 370.657 114.379 373.209C112.842 383.555 111.306 394.273 108.558 399.145C105.624 404.388 103.482 406.661 101.386 406.8C98.2655 406.986 93.7947 402.717 86.2967 392.464C81.1738 385.458 76.4235 381.885 71.7198 381.56C71.4404 381.56 71.2075 381.514 70.9747 381.514C68.7393 381.514 66.6435 382.256 64.7341 383.37C64.2218 383.694 62.7781 384.622 61.4741 385.736C60.1235 386.849 58.8661 388.102 57.6087 389.401C55.6061 391.443 50.4367 397.15 48.7601 399.284C44.3358 403.97 39.6787 407.45 20.0255 410.048C19.1873 410.141 18.6284 410.93 18.7215 411.718C18.8147 412.554 19.5598 413.11 20.3981 413.018C39.213 410.559 45.4535 407.125 51.0421 401.233C52.7187 399.098 57.8415 393.438 59.751 391.489C60.0304 391.211 60.2633 390.979 60.5427 390.747C60.6824 390.608 60.9153 390.376 61.1015 390.19C61.2413 390.051 61.5207 389.773 61.5207 389.773C62.6384 388.752 64.0355 387.592 64.5478 387.174C64.5944 387.128 64.641 387.128 64.6875 387.081L64.7341 387.035C67.0627 385.318 69.205 384.39 71.5335 384.576C75.2593 384.854 79.311 388.009 83.875 394.273C92.351 405.872 97.1478 410.095 101.572 409.816C105.438 409.584 108.185 405.965 111.212 400.63C114.193 395.294 115.776 384.762 117.406 373.673C117.826 370.935 118.245 367.919 118.757 364.95L118.804 364.672C118.897 364.161 118.99 363.651 119.036 363.14L119.549 360.125C121.086 352.051 123.088 345.185 125.929 344.999C127.047 344.953 127.978 345.231 128.863 346.02C131.192 348.108 132.542 353.026 133.38 359.011L133.427 359.243C133.474 359.521 133.52 359.8 133.567 360.078H133.52L133.846 363.094H133.893C133.939 363.558 133.986 364.022 134.032 364.532L134.079 364.904C134.405 368.894 134.638 373.116 134.871 377.199C134.964 379.148 135.057 381.096 135.197 382.999C135.43 386.525 135.476 390.376 135.569 394.087C135.849 406.893 136.082 418.956 141.251 422.854C142.369 423.689 143.673 424.153 145.163 424.153C145.862 424.153 146.607 424.06 147.352 423.875C154.664 421.972 155.409 408.935 156.154 395.155C156.666 385.69 157.272 374.972 160.532 372.281C160.764 372.095 160.904 372.049 160.904 372.002C162.581 373.209 163.233 384.158 163.652 391.443C164.397 404.62 165.049 412.786 168.03 415.384C168.728 415.987 169.613 416.312 170.498 416.219C175.341 415.848 177.344 410.698 179.3 405.733C181.023 401.279 182.7 397.057 185.913 396.964C188.521 396.871 190.477 398.263 193.178 400.166C197.928 403.506 204.448 408.146 218.839 407.218C223.263 407.079 228.572 406.383 233.742 405.733C236.536 405.362 239.377 404.991 242.078 404.712C249.343 403.97 252.417 405.223 259.03 408.285C262.942 410.095 265.131 411.162 265.131 411.162L280.639 418.864C281.664 419.374 282.875 419.513 283.946 419.049C285.343 418.446 286.181 417.147 286.181 415.662V368.151C286.135 366.899 285.576 365.646 284.505 364.904Z" fill="#473245"/>
<path d="M64.8271 387.035L64.8737 386.989L64.8271 387.035Z" fill="#464646"/>
<path d="M24.0308 482.103H27.9893C30.2248 482.103 31.7616 482.196 32.5533 482.382C33.671 482.66 34.6025 483.217 35.301 484.052C35.9996 484.887 36.3722 485.954 36.3722 487.207C36.3722 488.46 35.9996 489.527 35.301 490.362C34.6025 491.197 33.6245 491.754 32.4136 492.032C31.5288 492.218 29.8522 492.357 27.3839 492.357H25.9868V501.219H24.0308V482.103ZM25.9868 483.959V490.455L29.3399 490.501C30.6905 490.501 31.6685 490.362 32.3205 490.13C32.9259 489.898 33.4382 489.527 33.8108 488.97C34.1833 488.46 34.3696 487.857 34.3696 487.207C34.3696 486.557 34.1833 486.001 33.8108 485.444C33.4382 484.933 32.9725 484.516 32.4136 484.33C31.8082 484.098 30.8768 484.006 29.5262 484.006H25.9868V483.959Z" fill="#473245"/>
<path d="M49.6914 482.103H53.65C55.8388 482.103 57.3291 482.196 58.1208 482.382C59.2851 482.66 60.2631 483.217 60.9617 484.052C61.7068 484.887 62.0794 485.954 62.0794 487.207C62.0794 488.228 61.8465 489.156 61.3343 489.944C60.822 490.733 60.1234 491.336 59.1454 491.754C58.214 492.171 56.91 492.357 55.2334 492.357L62.3588 501.219H59.9371L52.8117 492.357H51.694V501.219H49.738V482.103H49.6914ZM51.6474 483.959V490.455L55.0471 490.501C56.3511 490.501 57.3291 490.362 57.9811 490.13C58.6331 489.898 59.0988 489.48 59.4714 488.97C59.844 488.46 59.9837 487.857 59.9837 487.207C59.9837 486.557 59.7974 486.001 59.4248 485.444C59.0523 484.933 58.5865 484.562 58.0277 484.33C57.4223 484.098 56.4908 484.006 55.1403 484.006H51.6474V483.959Z" fill="#473245"/>
<path d="M84.8997 481.593C87.8803 481.593 90.3951 482.567 92.3977 484.47C94.4003 486.418 95.4248 488.784 95.4248 491.615C95.4248 494.399 94.4003 496.765 92.3977 498.714C90.3951 500.662 87.9268 501.637 85.0394 501.637C82.1054 501.637 79.6371 500.662 77.6346 498.714C75.632 496.765 74.6074 494.445 74.6074 491.661C74.6074 489.805 75.0731 488.135 76.0046 486.557C76.936 484.98 78.1934 483.774 79.7768 482.892C81.3603 482.057 83.0834 481.593 84.8997 481.593ZM84.9928 483.449C83.5491 483.449 82.152 483.82 80.848 484.562C79.544 485.305 78.5194 486.279 77.7743 487.532C77.0291 488.784 76.6566 490.176 76.6566 491.707C76.6566 493.981 77.4948 495.883 79.0783 497.461C80.7083 499.038 82.6643 499.827 84.9463 499.827C86.4831 499.827 87.8803 499.456 89.1843 498.76C90.4883 498.064 91.5128 497.043 92.258 495.79C93.0031 494.538 93.3757 493.146 93.3757 491.615C93.3757 490.084 93.0031 488.738 92.258 487.485C91.5128 486.279 90.4883 485.258 89.1843 484.562C87.9268 483.82 86.4831 483.449 84.9928 483.449Z" fill="#473245"/>
<path d="M138.457 482.103H140.413V493.61C140.413 494.955 140.459 495.837 140.506 496.162C140.599 496.904 140.832 497.554 141.205 498.064C141.577 498.574 142.136 498.992 142.835 499.317C143.58 499.641 144.325 499.827 145.07 499.827C145.722 499.827 146.374 499.688 146.933 499.409C147.538 499.131 148.051 498.76 148.423 498.296C148.842 497.832 149.122 497.229 149.308 496.579C149.448 496.115 149.494 495.094 149.494 493.61V482.103H151.45V493.61C151.45 495.326 151.264 496.672 150.938 497.739C150.612 498.806 149.913 499.688 148.889 500.477C147.864 501.265 146.607 501.637 145.117 501.637C143.533 501.637 142.136 501.265 141.018 500.523C139.901 499.781 139.109 498.806 138.736 497.6C138.503 496.858 138.364 495.512 138.364 493.563V482.103H138.457Z" fill="#473245"/>
<path d="M184.05 485.629L182.513 486.789C181.675 485.722 180.604 484.887 179.393 484.33C178.182 483.774 176.878 483.495 175.434 483.495C173.851 483.495 172.407 483.866 171.057 484.609C169.706 485.351 168.681 486.325 167.936 487.578C167.191 488.831 166.819 490.176 166.819 491.754C166.819 494.074 167.657 496.022 169.287 497.6C170.917 499.177 173.013 499.92 175.527 499.92C178.275 499.92 180.604 498.853 182.467 496.765L184.003 497.925C183.025 499.131 181.768 500.059 180.324 500.755C178.834 501.405 177.204 501.729 175.388 501.729C171.941 501.729 169.194 500.616 167.191 498.389C165.515 496.533 164.676 494.259 164.676 491.568C164.676 488.784 165.701 486.418 167.703 484.516C169.753 482.614 172.267 481.639 175.341 481.639C177.204 481.639 178.834 482.01 180.324 482.706C181.861 483.356 183.119 484.377 184.05 485.629Z" fill="#473245"/>
<path d="M195.274 483.959V482.103H206.125V483.959H201.701V501.173H199.698V483.959H195.274Z" fill="#473245"/>
<path d="M219.352 482.103H221.308V501.173H219.352V482.103Z" fill="#473245"/>
<path d="M244.5 481.593C247.48 481.593 249.995 482.567 251.998 484.47C254 486.418 255.025 488.784 255.025 491.615C255.025 494.399 254 496.765 251.998 498.714C249.995 500.662 247.527 501.637 244.64 501.637C241.706 501.637 239.237 500.662 237.235 498.714C235.232 496.765 234.208 494.445 234.208 491.661C234.208 489.805 234.673 488.135 235.605 486.557C236.536 484.98 237.794 483.774 239.377 482.892C240.96 482.057 242.637 481.593 244.5 481.593ZM244.593 483.449C243.149 483.449 241.752 483.82 240.448 484.562C239.144 485.305 238.12 486.279 237.374 487.532C236.629 488.784 236.257 490.176 236.257 491.707C236.257 493.981 237.095 495.883 238.678 497.461C240.308 499.038 242.264 499.827 244.546 499.827C246.083 499.827 247.48 499.456 248.784 498.76C250.088 498.064 251.113 497.043 251.858 495.79C252.603 494.538 252.976 493.146 252.976 491.615C252.976 490.084 252.603 488.738 251.858 487.485C251.113 486.279 250.088 485.258 248.784 484.562C247.48 483.82 246.083 483.449 244.593 483.449Z" fill="#473245"/>
<path d="M268.251 501.173V482.103H268.671L281.85 496.718V482.103H283.806V501.173H283.341L270.301 486.697V501.173H268.251Z" fill="#473245"/>
<path d="M295.822 497.646L297.498 496.672C298.663 498.76 300.06 499.827 301.597 499.827C302.249 499.827 302.901 499.688 303.459 499.363C304.018 499.085 304.484 498.667 304.81 498.157C305.136 497.646 305.276 497.136 305.276 496.579C305.276 495.93 305.043 495.326 304.624 494.677C304.018 493.842 302.901 492.821 301.224 491.615C299.594 490.408 298.569 489.527 298.15 489.016C297.452 488.135 297.079 487.161 297.079 486.093C297.079 485.258 297.265 484.516 297.685 483.82C298.104 483.124 298.663 482.614 299.408 482.196C300.153 481.778 300.945 481.593 301.829 481.593C302.761 481.593 303.646 481.825 304.437 482.242C305.229 482.706 306.114 483.495 306.999 484.702L305.369 485.861C304.624 484.887 303.972 484.284 303.459 483.959C302.947 483.634 302.342 483.495 301.736 483.495C300.945 483.495 300.293 483.727 299.78 484.191C299.268 484.655 299.035 485.212 299.035 485.908C299.035 486.325 299.128 486.743 299.315 487.114C299.501 487.485 299.827 487.949 300.293 488.367C300.572 488.599 301.41 489.248 302.854 490.269C304.577 491.476 305.741 492.589 306.393 493.517C307.045 494.491 307.325 495.419 307.325 496.394C307.325 497.786 306.766 498.992 305.695 500.013C304.624 501.033 303.273 501.544 301.736 501.544C300.525 501.544 299.454 501.219 298.476 500.616C297.545 500.105 296.613 499.085 295.822 497.646Z" fill="#473245"/>
<path d="M108.838 481.778L126.581 488.738C128.072 489.341 128.211 491.244 126.814 491.986L109.07 501.358C107.766 502.054 106.09 501.173 106.09 499.781V483.449C106.09 482.15 107.534 481.268 108.838 481.778Z" fill="#473245"/>
<path d="M27.6166 454.775C27.6166 459.74 31.6683 461.642 36.3255 461.642C39.3526 461.642 43.9632 460.807 43.9632 457.002C43.9632 452.966 38.0021 452.363 32.3203 450.878C26.4989 449.532 20.5843 447.166 20.5843 440.299C20.5843 432.644 28.1755 429.071 35.2543 429.071C43.4509 429.071 50.9955 432.458 50.9955 441.042H42.6126C42.3332 436.634 39.0266 435.428 34.8352 435.428C32.0875 435.428 28.8741 436.541 28.8741 439.65C28.8741 442.526 30.7369 442.944 40.6101 445.264C43.5441 445.867 52.2529 447.723 52.2529 456.074C52.2529 462.895 46.6643 467.998 35.9063 467.998C27.1975 467.998 19.0009 463.962 19.1872 454.775H27.6166Z" fill="#473245"/>
<path d="M57.4688 429.953H66.0845V444.197H81.9653V429.953H90.581V467.117H81.9653V451.11H66.0845V467.117H57.4688V429.953Z" fill="#473245"/>
<path d="M108.93 429.953H117.779L132.449 467.117H123.461L120.48 458.858H105.81L102.736 467.117H93.981L108.93 429.953ZM108.092 452.78H118.291L113.355 439.139H113.262L108.092 452.78Z" fill="#473245"/>
<path d="M135.895 429.953H144.464L160.857 454.868H160.95V429.953H169.054V467.117H160.438L144.092 442.248H143.998V467.117H135.895V429.953Z" fill="#473245"/>
<path d="M176.645 429.953H206.032V436.819H185.307V444.8H204.355V451.156H185.307V460.25H206.497V467.117H176.692V429.953H176.645Z" fill="#473245"/>
<path d="M212.319 429.953H220.935V460.25H240.075V467.117H212.319V429.953Z" fill="#473245"/>
<path d="M244.919 429.953H253.535V460.25H272.676V467.117H244.919V429.953Z" fill="#473245"/>
<path d="M277.519 429.953H306.906V436.819H286.181V444.8H305.229V451.156H286.181V460.25H307.371V467.117H277.566V429.953H277.519Z" fill="#473245"/>
<path d="M32.0957 561.453H43.1875V575.305C41.8633 575.762 40.3457 576.137 38.6348 576.43C36.9238 576.711 35.1309 576.852 33.2559 576.852C30.7832 576.852 28.6152 576.371 26.752 575.41C24.8887 574.449 23.4355 572.99 22.3926 571.033C21.3496 569.064 20.8281 566.58 20.8281 563.58C20.8281 560.885 21.3438 558.559 22.375 556.602C23.4062 554.633 24.9238 553.115 26.9277 552.049C28.9434 550.971 31.4102 550.432 34.3281 550.432C35.9336 550.432 37.457 550.584 38.8984 550.889C40.3398 551.193 41.5938 551.58 42.6602 552.049L40.4629 557.498C39.5371 557.041 38.5762 556.701 37.5801 556.479C36.584 556.244 35.5117 556.127 34.3633 556.127C32.8281 556.127 31.5918 556.473 30.6543 557.164C29.7285 557.855 29.0547 558.781 28.6328 559.941C28.2109 561.09 28 562.361 28 563.756C28 565.35 28.2227 566.697 28.668 567.799C29.125 568.889 29.7871 569.721 30.6543 570.295C31.5332 570.857 32.5938 571.139 33.8359 571.139C34.2461 571.139 34.7441 571.109 35.3301 571.051C35.9277 570.992 36.3789 570.922 36.6836 570.84V566.814H32.0957V561.453ZM60.0449 556.232C60.4199 556.232 60.8125 556.262 61.2227 556.32C61.6328 556.367 61.9375 556.408 62.1367 556.443L61.5215 562.93C61.2988 562.871 61.0117 562.824 60.6602 562.789C60.3086 562.742 59.8164 562.719 59.1836 562.719C58.75 562.719 58.2871 562.76 57.7949 562.842C57.3027 562.924 56.834 563.1 56.3887 563.369C55.9551 563.627 55.5977 564.025 55.3164 564.564C55.0352 565.092 54.8945 565.807 54.8945 566.709V576.5H48.0215V556.584H53.1367L54.209 559.766H54.543C54.9062 559.109 55.3691 558.518 55.9316 557.99C56.5059 557.451 57.1445 557.023 57.8477 556.707C58.5625 556.391 59.2949 556.232 60.0449 556.232ZM74.6523 556.232C77.1719 556.232 79.1406 556.859 80.5586 558.113C81.9766 559.355 82.6855 561.131 82.6855 563.439V576.5H77.9219L76.6035 573.863H76.4629C75.9004 574.566 75.3203 575.141 74.7227 575.586C74.1367 576.02 73.4629 576.336 72.7012 576.535C71.9395 576.746 71.0078 576.852 69.9062 576.852C68.7578 576.852 67.7266 576.617 66.8125 576.148C65.8984 575.68 65.1777 574.971 64.6504 574.021C64.123 573.072 63.8594 571.871 63.8594 570.418C63.8594 568.285 64.5977 566.703 66.0742 565.672C67.5508 564.641 69.6895 564.061 72.4902 563.932L75.8125 563.826V563.545C75.8125 562.654 75.5898 562.021 75.1445 561.646C74.7109 561.271 74.125 561.084 73.3867 561.084C72.6016 561.084 71.7227 561.225 70.75 561.506C69.7891 561.775 68.8223 562.127 67.8496 562.561L65.8633 558.025C67.0117 557.439 68.3125 556.994 69.7656 556.689C71.2188 556.385 72.8477 556.232 74.6523 556.232ZM75.8477 567.605L74.2656 567.676C73 567.723 72.1094 567.945 71.5938 568.344C71.0898 568.73 70.8379 569.287 70.8379 570.014C70.8379 570.693 71.0195 571.197 71.3828 571.525C71.7461 571.842 72.2266 572 72.8242 572C73.6562 572 74.3652 571.736 74.9512 571.209C75.5488 570.682 75.8477 569.996 75.8477 569.152V567.605ZM96.4316 576.852C94.416 576.852 92.6641 576.494 91.1758 575.779C89.6875 575.053 88.5332 573.939 87.7129 572.439C86.9043 570.928 86.5 568.994 86.5 566.639C86.5 564.225 86.9512 562.25 87.8535 560.715C88.7676 559.18 90.0156 558.049 91.5977 557.322C93.1797 556.596 94.9727 556.232 96.9766 556.232C98.1953 556.232 99.3496 556.367 100.439 556.637C101.541 556.906 102.561 557.275 103.498 557.744L101.477 562.824C100.656 562.461 99.8887 562.174 99.1738 561.963C98.4707 561.74 97.7383 561.629 96.9766 561.629C96.2852 561.629 95.6758 561.811 95.1484 562.174C94.6211 562.537 94.2109 563.088 93.918 563.826C93.625 564.553 93.4785 565.479 93.4785 566.604C93.4785 567.752 93.625 568.678 93.918 569.381C94.2227 570.084 94.6387 570.594 95.166 570.91C95.7051 571.227 96.3203 571.385 97.0117 571.385C98.0078 571.385 98.998 571.232 99.9824 570.928C100.979 570.611 101.922 570.178 102.812 569.627V575.094C101.992 575.633 101.066 576.061 100.035 576.377C99.0039 576.693 97.8027 576.852 96.4316 576.852ZM113.676 556.584V576.5H106.803V556.584H113.676ZM110.266 548.568C111.25 548.568 112.105 548.773 112.832 549.184C113.57 549.594 113.939 550.408 113.939 551.627C113.939 552.811 113.57 553.613 112.832 554.035C112.105 554.445 111.25 554.65 110.266 554.65C109.258 554.65 108.396 554.445 107.682 554.035C106.979 553.613 106.627 552.811 106.627 551.627C106.627 550.408 106.979 549.594 107.682 549.184C108.396 548.773 109.258 548.568 110.266 548.568ZM128.195 556.232C130.715 556.232 132.684 556.859 134.102 558.113C135.52 559.355 136.229 561.131 136.229 563.439V576.5H131.465L130.146 573.863H130.006C129.443 574.566 128.863 575.141 128.266 575.586C127.68 576.02 127.006 576.336 126.244 576.535C125.482 576.746 124.551 576.852 123.449 576.852C122.301 576.852 121.27 576.617 120.355 576.148C119.441 575.68 118.721 574.971 118.193 574.021C117.666 573.072 117.402 571.871 117.402 570.418C117.402 568.285 118.141 566.703 119.617 565.672C121.094 564.641 123.232 564.061 126.033 563.932L129.355 563.826V563.545C129.355 562.654 129.133 562.021 128.688 561.646C128.254 561.271 127.668 561.084 126.93 561.084C126.145 561.084 125.266 561.225 124.293 561.506C123.332 561.775 122.365 562.127 121.393 562.561L119.406 558.025C120.555 557.439 121.855 556.994 123.309 556.689C124.762 556.385 126.391 556.232 128.195 556.232ZM129.391 567.605L127.809 567.676C126.543 567.723 125.652 567.945 125.137 568.344C124.633 568.73 124.381 569.287 124.381 570.014C124.381 570.693 124.562 571.197 124.926 571.525C125.289 571.842 125.77 572 126.367 572C127.199 572 127.908 571.736 128.494 571.209C129.092 570.682 129.391 569.996 129.391 569.152V567.605ZM155.705 570.383C155.705 571.648 155.424 572.768 154.861 573.74C154.299 574.713 153.396 575.475 152.154 576.025C150.924 576.576 149.301 576.852 147.285 576.852C145.867 576.852 144.596 576.775 143.471 576.623C142.357 576.471 141.227 576.178 140.078 575.744V570.242C141.332 570.816 142.609 571.232 143.91 571.49C145.211 571.736 146.236 571.859 146.986 571.859C147.76 571.859 148.322 571.777 148.674 571.613C149.037 571.438 149.219 571.18 149.219 570.84C149.219 570.547 149.096 570.301 148.85 570.102C148.615 569.891 148.188 569.65 147.566 569.381C146.957 569.111 146.096 568.748 144.982 568.291C143.881 567.834 142.961 567.336 142.223 566.797C141.496 566.258 140.951 565.613 140.588 564.863C140.225 564.113 140.043 563.193 140.043 562.104C140.043 560.158 140.793 558.693 142.293 557.709C143.793 556.725 145.779 556.232 148.252 556.232C149.564 556.232 150.801 556.379 151.961 556.672C153.121 556.953 154.322 557.369 155.564 557.92L153.684 562.35C152.699 561.904 151.703 561.547 150.695 561.277C149.688 561.008 148.885 560.873 148.287 560.873C147.748 560.873 147.332 560.943 147.039 561.084C146.746 561.225 146.6 561.43 146.6 561.699C146.6 561.945 146.699 562.162 146.898 562.35C147.109 562.537 147.502 562.754 148.076 563C148.65 563.246 149.488 563.592 150.59 564.037C151.75 564.506 152.705 565.01 153.455 565.549C154.217 566.076 154.779 566.721 155.143 567.482C155.518 568.244 155.705 569.211 155.705 570.383ZM181.053 556.232C183.256 556.232 184.984 557.117 186.238 558.887C187.492 560.645 188.119 563.182 188.119 566.498C188.119 568.76 187.803 570.664 187.17 572.211C186.537 573.746 185.67 574.906 184.568 575.691C183.479 576.465 182.236 576.852 180.842 576.852C179.904 576.852 179.107 576.734 178.451 576.5C177.807 576.266 177.268 575.973 176.834 575.621C176.412 575.27 176.055 574.912 175.762 574.549H175.551C175.609 575.006 175.656 575.498 175.691 576.025C175.738 576.553 175.762 577.168 175.762 577.871V585.148H168.889V556.584H174.479L175.445 559.115H175.762C176.09 558.6 176.488 558.125 176.957 557.691C177.426 557.246 177.994 556.895 178.662 556.637C179.342 556.367 180.139 556.232 181.053 556.232ZM178.469 561.629C177.801 561.629 177.273 561.787 176.887 562.104C176.5 562.42 176.219 562.9 176.043 563.545C175.879 564.178 175.785 564.969 175.762 565.918V566.463C175.762 567.518 175.844 568.408 176.008 569.135C176.172 569.85 176.453 570.395 176.852 570.77C177.25 571.133 177.801 571.314 178.504 571.314C179.078 571.314 179.559 571.15 179.945 570.822C180.332 570.494 180.625 569.973 180.824 569.258C181.023 568.543 181.123 567.6 181.123 566.428C181.123 564.682 180.895 563.445 180.438 562.719C179.992 561.992 179.336 561.629 178.469 561.629ZM211.076 566.498C211.076 568.162 210.848 569.639 210.391 570.928C209.934 572.217 209.271 573.301 208.404 574.18C207.537 575.059 206.488 575.727 205.258 576.184C204.027 576.629 202.639 576.852 201.092 576.852C199.65 576.852 198.326 576.629 197.119 576.184C195.924 575.727 194.881 575.059 193.99 574.18C193.1 573.301 192.408 572.217 191.916 570.928C191.436 569.639 191.195 568.162 191.195 566.498C191.195 564.295 191.594 562.432 192.391 560.908C193.199 559.385 194.348 558.225 195.836 557.428C197.336 556.631 199.123 556.232 201.197 556.232C203.107 556.232 204.807 556.631 206.295 557.428C207.783 558.225 208.949 559.385 209.793 560.908C210.648 562.432 211.076 564.295 211.076 566.498ZM198.174 566.498C198.174 567.635 198.273 568.596 198.473 569.381C198.672 570.154 198.988 570.746 199.422 571.156C199.867 571.555 200.447 571.754 201.162 571.754C201.877 571.754 202.445 571.555 202.867 571.156C203.289 570.746 203.594 570.154 203.781 569.381C203.98 568.596 204.08 567.635 204.08 566.498C204.08 565.361 203.98 564.412 203.781 563.65C203.594 562.889 203.283 562.314 202.85 561.928C202.428 561.541 201.854 561.348 201.127 561.348C200.084 561.348 199.328 561.781 198.859 562.648C198.402 563.516 198.174 564.799 198.174 566.498ZM227.037 556.232C227.412 556.232 227.805 556.262 228.215 556.32C228.625 556.367 228.93 556.408 229.129 556.443L228.514 562.93C228.291 562.871 228.004 562.824 227.652 562.789C227.301 562.742 226.809 562.719 226.176 562.719C225.742 562.719 225.279 562.76 224.787 562.842C224.295 562.924 223.826 563.1 223.381 563.369C222.947 563.627 222.59 564.025 222.309 564.564C222.027 565.092 221.887 565.807 221.887 566.709V576.5H215.014V556.584H220.129L221.201 559.766H221.535C221.898 559.109 222.361 558.518 222.924 557.99C223.498 557.451 224.137 557.023 224.84 556.707C225.555 556.391 226.287 556.232 227.037 556.232ZM250.996 556.232C253.516 556.232 255.484 556.859 256.902 558.113C258.32 559.355 259.029 561.131 259.029 563.439V576.5H254.266L252.947 573.863H252.807C252.244 574.566 251.664 575.141 251.066 575.586C250.48 576.02 249.807 576.336 249.045 576.535C248.283 576.746 247.352 576.852 246.25 576.852C245.102 576.852 244.07 576.617 243.156 576.148C242.242 575.68 241.521 574.971 240.994 574.021C240.467 573.072 240.203 571.871 240.203 570.418C240.203 568.285 240.941 566.703 242.418 565.672C243.895 564.641 246.033 564.061 248.834 563.932L252.156 563.826V563.545C252.156 562.654 251.934 562.021 251.488 561.646C251.055 561.271 250.469 561.084 249.73 561.084C248.945 561.084 248.066 561.225 247.094 561.506C246.133 561.775 245.166 562.127 244.193 562.561L242.207 558.025C243.355 557.439 244.656 556.994 246.109 556.689C247.562 556.385 249.191 556.232 250.996 556.232ZM252.191 567.605L250.609 567.676C249.344 567.723 248.453 567.945 247.938 568.344C247.434 568.73 247.182 569.287 247.182 570.014C247.182 570.693 247.363 571.197 247.727 571.525C248.09 571.842 248.57 572 249.168 572C250 572 250.709 571.736 251.295 571.209C251.893 570.682 252.191 569.996 252.191 569.152V567.605ZM275.869 556.232C278.072 556.232 279.801 557.117 281.055 558.887C282.309 560.645 282.936 563.182 282.936 566.498C282.936 568.76 282.619 570.664 281.986 572.211C281.354 573.746 280.486 574.906 279.385 575.691C278.295 576.465 277.053 576.852 275.658 576.852C274.721 576.852 273.924 576.734 273.268 576.5C272.623 576.266 272.084 575.973 271.65 575.621C271.229 575.27 270.871 574.912 270.578 574.549H270.367C270.426 575.006 270.473 575.498 270.508 576.025C270.555 576.553 270.578 577.168 270.578 577.871V585.148H263.705V556.584H269.295L270.262 559.115H270.578C270.906 558.6 271.305 558.125 271.773 557.691C272.242 557.246 272.811 556.895 273.479 556.637C274.158 556.367 274.955 556.232 275.869 556.232ZM273.285 561.629C272.617 561.629 272.09 561.787 271.703 562.104C271.316 562.42 271.035 562.9 270.859 563.545C270.695 564.178 270.602 564.969 270.578 565.918V566.463C270.578 567.518 270.66 568.408 270.824 569.135C270.988 569.85 271.27 570.395 271.668 570.77C272.066 571.133 272.617 571.314 273.32 571.314C273.895 571.314 274.375 571.15 274.762 570.822C275.148 570.494 275.441 569.973 275.641 569.258C275.84 568.543 275.939 567.6 275.939 566.428C275.939 564.682 275.711 563.445 275.254 562.719C274.809 561.992 274.152 561.629 273.285 561.629ZM305.893 566.498C305.893 568.162 305.664 569.639 305.207 570.928C304.75 572.217 304.088 573.301 303.221 574.18C302.354 575.059 301.305 575.727 300.074 576.184C298.844 576.629 297.455 576.852 295.908 576.852C294.467 576.852 293.143 576.629 291.936 576.184C290.74 575.727 289.697 575.059 288.807 574.18C287.916 573.301 287.225 572.217 286.732 570.928C286.252 569.639 286.012 568.162 286.012 566.498C286.012 564.295 286.41 562.432 287.207 560.908C288.016 559.385 289.164 558.225 290.652 557.428C292.152 556.631 293.939 556.232 296.014 556.232C297.924 556.232 299.623 556.631 301.111 557.428C302.6 558.225 303.766 559.385 304.609 560.908C305.465 562.432 305.893 564.295 305.893 566.498ZM292.99 566.498C292.99 567.635 293.09 568.596 293.289 569.381C293.488 570.154 293.805 570.746 294.238 571.156C294.684 571.555 295.264 571.754 295.979 571.754C296.693 571.754 297.262 571.555 297.684 571.156C298.105 570.746 298.41 570.154 298.598 569.381C298.797 568.596 298.896 567.635 298.896 566.498C298.896 565.361 298.797 564.412 298.598 563.65C298.41 562.889 298.1 562.314 297.666 561.928C297.244 561.541 296.67 561.348 295.943 561.348C294.9 561.348 294.145 561.781 293.676 562.648C293.219 563.516 292.99 564.799 292.99 566.498ZM307.422 556.584H314.664L318.039 568.01C318.086 568.174 318.133 568.379 318.18 568.625C318.227 568.859 318.268 569.111 318.303 569.381C318.338 569.65 318.361 569.914 318.373 570.172H318.514C318.572 569.691 318.637 569.275 318.707 568.924C318.789 568.561 318.865 568.268 318.936 568.045L322.398 556.584H329.412L321.537 577.766C320.928 579.383 320.219 580.736 319.41 581.826C318.613 582.928 317.623 583.754 316.439 584.305C315.268 584.867 313.809 585.148 312.062 585.148C311.43 585.148 310.885 585.113 310.428 585.043C309.982 584.984 309.59 584.92 309.25 584.85V579.453C309.508 579.5 309.824 579.547 310.199 579.594C310.574 579.641 310.967 579.664 311.377 579.664C312.139 579.664 312.754 579.512 313.223 579.207C313.703 578.902 314.096 578.498 314.4 577.994C314.705 577.502 314.969 576.969 315.191 576.395L315.262 576.219L307.422 556.584ZM341.523 556.232C344.043 556.232 346.012 556.859 347.43 558.113C348.848 559.355 349.557 561.131 349.557 563.439V576.5H344.793L343.475 573.863H343.334C342.771 574.566 342.191 575.141 341.594 575.586C341.008 576.02 340.334 576.336 339.572 576.535C338.811 576.746 337.879 576.852 336.777 576.852C335.629 576.852 334.598 576.617 333.684 576.148C332.77 575.68 332.049 574.971 331.521 574.021C330.994 573.072 330.73 571.871 330.73 570.418C330.73 568.285 331.469 566.703 332.945 565.672C334.422 564.641 336.561 564.061 339.361 563.932L342.684 563.826V563.545C342.684 562.654 342.461 562.021 342.016 561.646C341.582 561.271 340.996 561.084 340.258 561.084C339.473 561.084 338.594 561.225 337.621 561.506C336.66 561.775 335.693 562.127 334.721 562.561L332.734 558.025C333.883 557.439 335.184 556.994 336.637 556.689C338.09 556.385 339.719 556.232 341.523 556.232ZM342.719 567.605L341.137 567.676C339.871 567.723 338.98 567.945 338.465 568.344C337.961 568.73 337.709 569.287 337.709 570.014C337.709 570.693 337.891 571.197 338.254 571.525C338.617 571.842 339.098 572 339.695 572C340.527 572 341.236 571.736 341.822 571.209C342.42 570.682 342.719 569.996 342.719 569.152V567.605ZM366.256 556.232C366.631 556.232 367.023 556.262 367.434 556.32C367.844 556.367 368.148 556.408 368.348 556.443L367.732 562.93C367.51 562.871 367.223 562.824 366.871 562.789C366.52 562.742 366.027 562.719 365.395 562.719C364.961 562.719 364.498 562.76 364.006 562.842C363.514 562.924 363.045 563.1 362.6 563.369C362.166 563.627 361.809 564.025 361.527 564.564C361.246 565.092 361.105 565.807 361.105 566.709V576.5H354.232V556.584H359.348L360.42 559.766H360.754C361.117 559.109 361.58 558.518 362.143 557.99C362.717 557.451 363.355 557.023 364.059 556.707C364.773 556.391 365.506 556.232 366.256 556.232ZM33.8359 605.232C35.8867 605.232 37.5625 605.812 38.8633 606.973C40.1641 608.133 40.8145 609.99 40.8145 612.545V625.5H33.9414V614.637C33.9414 613.312 33.748 612.316 33.3613 611.648C32.9863 610.969 32.377 610.629 31.5332 610.629C30.2324 610.629 29.3594 611.162 28.9141 612.229C28.4688 613.283 28.2461 614.801 28.2461 616.781V625.5H21.373V605.584H26.5586L27.4902 608.221H27.7539C28.1758 607.588 28.6797 607.049 29.2656 606.604C29.8516 606.158 30.5254 605.818 31.2871 605.584C32.0488 605.35 32.8984 605.232 33.8359 605.232ZM64.8613 605.584V625.5H59.6758L58.8145 623.021H58.4102C58 623.689 57.4785 624.234 56.8457 624.656C56.2246 625.066 55.5332 625.365 54.7715 625.553C54.0098 625.752 53.2188 625.852 52.3984 625.852C51.0977 625.852 49.9199 625.6 48.8652 625.096C47.8223 624.592 46.9902 623.801 46.3691 622.723C45.7598 621.645 45.4551 620.256 45.4551 618.557V605.584H52.3281V616.465C52.3281 617.754 52.5098 618.738 52.873 619.418C53.248 620.086 53.8574 620.42 54.7012 620.42C55.5684 620.42 56.2363 620.186 56.7051 619.717C57.1855 619.248 57.5195 618.557 57.707 617.643C57.8945 616.729 57.9883 615.615 57.9883 614.303V605.584H64.8613ZM78.5723 605.232C80.5059 605.232 82.1758 605.572 83.582 606.252C84.9883 606.92 86.0723 607.928 86.834 609.275C87.5957 610.623 87.9766 612.311 87.9766 614.338V617.396H75.6895C75.748 618.439 76.1348 619.295 76.8496 619.963C77.5762 620.631 78.6426 620.965 80.0488 620.965C81.291 620.965 82.4277 620.842 83.459 620.596C84.502 620.35 85.5742 619.969 86.6758 619.453V624.393C85.7148 624.896 84.666 625.266 83.5293 625.5C82.3926 625.734 80.957 625.852 79.2227 625.852C77.2188 625.852 75.4258 625.494 73.8438 624.779C72.2617 624.064 71.0137 622.957 70.0996 621.457C69.1973 619.957 68.7461 618.029 68.7461 615.674C68.7461 613.283 69.1562 611.32 69.9766 609.785C70.7969 608.238 71.9453 607.096 73.4219 606.357C74.8984 605.607 76.6152 605.232 78.5723 605.232ZM78.8184 609.908C78.0098 609.908 77.3301 610.166 76.7793 610.682C76.2402 611.186 75.9238 611.982 75.8301 613.072H81.7363C81.7246 612.486 81.6074 611.953 81.3848 611.473C81.1621 610.992 80.834 610.611 80.4004 610.33C79.9785 610.049 79.4512 609.908 78.8184 609.908ZM106.662 619.383C106.662 620.648 106.381 621.768 105.818 622.74C105.256 623.713 104.354 624.475 103.111 625.025C101.881 625.576 100.258 625.852 98.2422 625.852C96.8242 625.852 95.5527 625.775 94.4277 625.623C93.3145 625.471 92.1836 625.178 91.0352 624.744V619.242C92.2891 619.816 93.5664 620.232 94.8672 620.49C96.168 620.736 97.1934 620.859 97.9434 620.859C98.7168 620.859 99.2793 620.777 99.6309 620.613C99.9941 620.438 100.176 620.18 100.176 619.84C100.176 619.547 100.053 619.301 99.8066 619.102C99.5723 618.891 99.1445 618.65 98.5234 618.381C97.9141 618.111 97.0527 617.748 95.9395 617.291C94.8379 616.834 93.918 616.336 93.1797 615.797C92.4531 615.258 91.9082 614.613 91.5449 613.863C91.1816 613.113 91 612.193 91 611.104C91 609.158 91.75 607.693 93.25 606.709C94.75 605.725 96.7363 605.232 99.209 605.232C100.521 605.232 101.758 605.379 102.918 605.672C104.078 605.953 105.279 606.369 106.521 606.92L104.641 611.35C103.656 610.904 102.66 610.547 101.652 610.277C100.645 610.008 99.8418 609.873 99.2441 609.873C98.7051 609.873 98.2891 609.943 97.9961 610.084C97.7031 610.225 97.5566 610.43 97.5566 610.699C97.5566 610.945 97.6562 611.162 97.8555 611.35C98.0664 611.537 98.459 611.754 99.0332 612C99.6074 612.246 100.445 612.592 101.547 613.037C102.707 613.506 103.662 614.01 104.412 614.549C105.174 615.076 105.736 615.721 106.1 616.482C106.475 617.244 106.662 618.211 106.662 619.383ZM120.25 620.42C120.871 620.42 121.439 620.355 121.955 620.227C122.471 620.098 123.01 619.934 123.572 619.734V624.744C122.822 625.072 122.025 625.336 121.182 625.535C120.35 625.746 119.283 625.852 117.982 625.852C116.693 625.852 115.557 625.652 114.572 625.254C113.588 624.844 112.82 624.141 112.27 623.145C111.73 622.137 111.461 620.736 111.461 618.943V610.734H109.053V607.939L112.111 605.777L113.887 601.594H118.387V605.584H123.273V610.734H118.387V618.486C118.387 619.131 118.551 619.617 118.879 619.945C119.207 620.262 119.664 620.42 120.25 620.42ZM139.076 605.232C139.451 605.232 139.844 605.262 140.254 605.32C140.664 605.367 140.969 605.408 141.168 605.443L140.553 611.93C140.33 611.871 140.043 611.824 139.691 611.789C139.34 611.742 138.848 611.719 138.215 611.719C137.781 611.719 137.318 611.76 136.826 611.842C136.334 611.924 135.865 612.1 135.42 612.369C134.986 612.627 134.629 613.025 134.348 613.564C134.066 614.092 133.926 614.807 133.926 615.709V625.5H127.053V605.584H132.168L133.24 608.766H133.574C133.938 608.109 134.4 607.518 134.963 606.99C135.537 606.451 136.176 606.023 136.879 605.707C137.594 605.391 138.326 605.232 139.076 605.232ZM162.982 615.498C162.982 617.162 162.754 618.639 162.297 619.928C161.84 621.217 161.178 622.301 160.311 623.18C159.443 624.059 158.395 624.727 157.164 625.184C155.934 625.629 154.545 625.852 152.998 625.852C151.557 625.852 150.232 625.629 149.025 625.184C147.83 624.727 146.787 624.059 145.896 623.18C145.006 622.301 144.314 621.217 143.822 619.928C143.342 618.639 143.102 617.162 143.102 615.498C143.102 613.295 143.5 611.432 144.297 609.908C145.105 608.385 146.254 607.225 147.742 606.428C149.242 605.631 151.029 605.232 153.104 605.232C155.014 605.232 156.713 605.631 158.201 606.428C159.689 607.225 160.855 608.385 161.699 609.908C162.555 611.432 162.982 613.295 162.982 615.498ZM150.08 615.498C150.08 616.635 150.18 617.596 150.379 618.381C150.578 619.154 150.895 619.746 151.328 620.156C151.773 620.555 152.354 620.754 153.068 620.754C153.783 620.754 154.352 620.555 154.773 620.156C155.195 619.746 155.5 619.154 155.688 618.381C155.887 617.596 155.986 616.635 155.986 615.498C155.986 614.361 155.887 613.412 155.688 612.65C155.5 611.889 155.189 611.314 154.756 610.928C154.334 610.541 153.76 610.348 153.033 610.348C151.99 610.348 151.234 610.781 150.766 611.648C150.309 612.516 150.08 613.799 150.08 615.498ZM186.027 620.42C186.648 620.42 187.217 620.355 187.732 620.227C188.248 620.098 188.787 619.934 189.35 619.734V624.744C188.6 625.072 187.803 625.336 186.959 625.535C186.127 625.746 185.061 625.852 183.76 625.852C182.471 625.852 181.334 625.652 180.35 625.254C179.365 624.844 178.598 624.141 178.047 623.145C177.508 622.137 177.238 620.736 177.238 618.943V610.734H174.83V607.939L177.889 605.777L179.664 601.594H184.164V605.584H189.051V610.734H184.164V618.486C184.164 619.131 184.328 619.617 184.656 619.945C184.984 620.262 185.441 620.42 186.027 620.42ZM204.854 605.232C205.229 605.232 205.621 605.262 206.031 605.32C206.441 605.367 206.746 605.408 206.945 605.443L206.33 611.93C206.107 611.871 205.82 611.824 205.469 611.789C205.117 611.742 204.625 611.719 203.992 611.719C203.559 611.719 203.096 611.76 202.604 611.842C202.111 611.924 201.643 612.1 201.197 612.369C200.764 612.627 200.406 613.025 200.125 613.564C199.844 614.092 199.703 614.807 199.703 615.709V625.5H192.83V605.584H197.945L199.018 608.766H199.352C199.715 608.109 200.178 607.518 200.74 606.99C201.314 606.451 201.953 606.023 202.656 605.707C203.371 605.391 204.104 605.232 204.854 605.232ZM219.461 605.232C221.98 605.232 223.949 605.859 225.367 607.113C226.785 608.355 227.494 610.131 227.494 612.439V625.5H222.73L221.412 622.863H221.271C220.709 623.566 220.129 624.141 219.531 624.586C218.945 625.02 218.271 625.336 217.51 625.535C216.748 625.746 215.816 625.852 214.715 625.852C213.566 625.852 212.535 625.617 211.621 625.148C210.707 624.68 209.986 623.971 209.459 623.021C208.932 622.072 208.668 620.871 208.668 619.418C208.668 617.285 209.406 615.703 210.883 614.672C212.359 613.641 214.498 613.061 217.299 612.932L220.621 612.826V612.545C220.621 611.654 220.398 611.021 219.953 610.646C219.52 610.271 218.934 610.084 218.195 610.084C217.41 610.084 216.531 610.225 215.559 610.506C214.598 610.775 213.631 611.127 212.658 611.561L210.672 607.025C211.82 606.439 213.121 605.994 214.574 605.689C216.027 605.385 217.656 605.232 219.461 605.232ZM220.656 616.605L219.074 616.676C217.809 616.723 216.918 616.945 216.402 617.344C215.898 617.73 215.646 618.287 215.646 619.014C215.646 619.693 215.828 620.197 216.191 620.525C216.555 620.842 217.035 621 217.633 621C218.465 621 219.174 620.736 219.76 620.209C220.357 619.682 220.656 618.996 220.656 618.152V616.605ZM239.043 598.148V604.336C239.043 605.039 239.02 605.713 238.973 606.357C238.926 606.99 238.867 607.588 238.797 608.15H239.043C239.559 607.342 240.232 606.656 241.064 606.094C241.896 605.52 242.986 605.232 244.334 605.232C246.408 605.232 248.102 606.111 249.414 607.869C250.738 609.627 251.4 612.17 251.4 615.498C251.4 617.76 251.096 619.664 250.486 621.211C249.877 622.746 249.021 623.906 247.92 624.691C246.83 625.465 245.564 625.852 244.123 625.852C242.717 625.852 241.645 625.611 240.906 625.131C240.18 624.639 239.559 624.111 239.043 623.549H238.621L237.531 625.5H232.17V598.148H239.043ZM241.82 610.629C241.188 610.629 240.666 610.775 240.256 611.068C239.846 611.361 239.541 611.818 239.342 612.439C239.143 613.049 239.043 613.828 239.043 614.777V615.744C239.043 617.291 239.248 618.439 239.658 619.189C240.08 619.939 240.824 620.314 241.891 620.314C242.699 620.314 243.32 619.898 243.754 619.066C244.188 618.234 244.404 617.021 244.404 615.428C244.404 613.834 244.193 612.639 243.771 611.842C243.35 611.033 242.699 610.629 241.82 610.629ZM265.059 605.232C267.578 605.232 269.547 605.859 270.965 607.113C272.383 608.355 273.092 610.131 273.092 612.439V625.5H268.328L267.01 622.863H266.869C266.307 623.566 265.727 624.141 265.129 624.586C264.543 625.02 263.869 625.336 263.107 625.535C262.346 625.746 261.414 625.852 260.312 625.852C259.164 625.852 258.133 625.617 257.219 625.148C256.305 624.68 255.584 623.971 255.057 623.021C254.529 622.072 254.266 620.871 254.266 619.418C254.266 617.285 255.004 615.703 256.48 614.672C257.957 613.641 260.096 613.061 262.896 612.932L266.219 612.826V612.545C266.219 611.654 265.996 611.021 265.551 610.646C265.117 610.271 264.531 610.084 263.793 610.084C263.008 610.084 262.129 610.225 261.156 610.506C260.195 610.775 259.229 611.127 258.256 611.561L256.27 607.025C257.418 606.439 258.719 605.994 260.172 605.689C261.625 605.385 263.254 605.232 265.059 605.232ZM266.254 616.605L264.672 616.676C263.406 616.723 262.516 616.945 262 617.344C261.496 617.73 261.244 618.287 261.244 619.014C261.244 619.693 261.426 620.197 261.789 620.525C262.152 620.842 262.633 621 263.23 621C264.062 621 264.771 620.736 265.357 620.209C265.955 619.682 266.254 618.996 266.254 618.152V616.605ZM277.258 634.148C276.707 634.148 276.074 634.102 275.359 634.008C274.633 633.926 274.035 633.826 273.566 633.709V628.348C273.941 628.453 274.287 628.529 274.604 628.576C274.92 628.635 275.277 628.664 275.676 628.664C276.238 628.664 276.725 628.465 277.135 628.066C277.557 627.68 277.768 626.883 277.768 625.676V605.584H284.641V627.117C284.641 628.312 284.406 629.443 283.938 630.51C283.469 631.588 282.695 632.461 281.617 633.129C280.539 633.809 279.086 634.148 277.258 634.148ZM277.592 600.627C277.592 599.408 277.943 598.594 278.646 598.184C279.361 597.773 280.223 597.568 281.23 597.568C282.215 597.568 283.07 597.773 283.797 598.184C284.535 598.594 284.904 599.408 284.904 600.627C284.904 601.811 284.535 602.613 283.797 603.035C283.07 603.445 282.215 603.65 281.23 603.65C280.223 603.65 279.361 603.445 278.646 603.035C277.943 602.613 277.592 601.811 277.592 600.627ZM308.459 615.498C308.459 617.162 308.23 618.639 307.773 619.928C307.316 621.217 306.654 622.301 305.787 623.18C304.92 624.059 303.871 624.727 302.641 625.184C301.41 625.629 300.021 625.852 298.475 625.852C297.033 625.852 295.709 625.629 294.502 625.184C293.307 624.727 292.264 624.059 291.373 623.18C290.482 622.301 289.791 621.217 289.299 619.928C288.818 618.639 288.578 617.162 288.578 615.498C288.578 613.295 288.977 611.432 289.773 609.908C290.582 608.385 291.73 607.225 293.219 606.428C294.719 605.631 296.506 605.232 298.58 605.232C300.49 605.232 302.189 605.631 303.678 606.428C305.166 607.225 306.332 608.385 307.176 609.908C308.031 611.432 308.459 613.295 308.459 615.498ZM295.557 615.498C295.557 616.635 295.656 617.596 295.855 618.381C296.055 619.154 296.371 619.746 296.805 620.156C297.25 620.555 297.83 620.754 298.545 620.754C299.26 620.754 299.828 620.555 300.25 620.156C300.672 619.746 300.977 619.154 301.164 618.381C301.363 617.596 301.463 616.635 301.463 615.498C301.463 614.361 301.363 613.412 301.164 612.65C300.977 611.889 300.666 611.314 300.232 610.928C299.811 610.541 299.236 610.348 298.51 610.348C297.467 610.348 296.711 610.781 296.242 611.648C295.785 612.516 295.557 613.799 295.557 615.498ZM318.162 616.43H312.361L311.465 599.801H319.059L318.162 616.43ZM311.535 622.582C311.535 621.34 311.898 620.467 312.625 619.963C313.363 619.459 314.236 619.207 315.244 619.207C316.24 619.207 317.096 619.459 317.811 619.963C318.525 620.467 318.883 621.34 318.883 622.582C318.883 623.766 318.525 624.621 317.811 625.148C317.096 625.676 316.24 625.939 315.244 625.939C314.236 625.939 313.363 625.676 312.625 625.148C311.898 624.621 311.535 623.766 311.535 622.582Z" fill="#473245"/>
</svg>
