<svg width="1440" height="960" viewBox="0 0 1440 960" fill="none" xmlns="http://www.w3.org/2000/svg">
<rect y="1" width="1440" height="959" fill="#10060F"/>
<path d="M845.5 0.5L425.5 365.5V420.5L845.5 810H1439.5V0.5H845.5Z" fill="#1E0F1C"/>
<path d="M275.52 360.395C275.52 360.488 275.52 360.581 275.567 360.628L275.52 360.395Z" fill="#464646"/>
<path d="M260.85 366.349C260.85 366.256 260.897 366.163 260.897 366.07L260.85 366.349Z" fill="#464646"/>
<path d="M276.125 365.93C276.125 366.07 276.125 366.209 276.172 366.302L276.125 365.93Z" fill="#464646"/>
<path d="M214.652 364.535H253.865L254.424 361.512H213.161C207.945 361.512 203.661 365.744 203.661 371V383.465L206.688 381.372V372.535C206.688 368.07 210.227 364.535 214.652 364.535Z" fill="#473245"/>
<path d="M203.661 396.302V419.791C203.661 420.488 204.313 421.047 205.151 421.047C205.989 421.047 206.641 420.488 206.641 419.791V393.605C205.477 394.535 204.406 395.558 203.661 396.302Z" fill="#473245"/>
<path d="M426.505 366.302C425.108 365.419 423.431 365.512 422.174 366.488L398.841 387.372V370.953C398.841 365.744 394.603 361.465 389.341 361.465H282.646L283.018 364.488H387.85C392.275 364.488 395.814 368.07 395.814 372.442V390.116C395.814 390.674 396.094 391.186 396.606 391.419C397.072 391.698 397.677 391.651 398.143 391.372L423.85 368.953C423.897 368.907 423.943 368.86 423.99 368.86C424.269 368.628 424.595 368.674 424.735 368.767C424.875 368.814 425.108 369 425.108 369.372V417.186C425.108 417.512 424.921 417.698 424.782 417.791C424.642 417.884 424.409 417.977 424.13 417.837L408.435 410.023C408.435 410.023 406.246 408.953 402.288 407.093C395.162 403.744 391.53 402.395 383.706 403.233C381.004 403.512 378.164 403.884 375.323 404.256C370.246 404.907 365.03 405.558 360.653 405.744C347.287 406.628 341.465 402.535 336.808 399.233C333.874 397.14 331.313 395.326 327.68 395.465C322.511 395.651 320.322 401.233 318.366 406.163C316.689 410.488 315.106 414.535 312.172 414.767C312.125 414.767 312.079 414.767 311.939 414.674C309.704 412.721 309.052 401.186 308.586 392.767C307.841 379.605 307.282 372.07 304.022 370.674C303.23 370.349 302.019 370.209 300.576 371.419C296.291 374.953 295.732 385.419 295.127 396.488C294.475 408.07 293.776 421.186 288.56 422.535C287.07 422.907 285.952 422.767 285.021 422.07C281.016 419.047 280.783 406.581 280.55 395.558C280.457 391.791 280.41 387.93 280.177 384.302C280.084 382.395 279.944 380.442 279.851 378.488C279.618 374.163 279.386 369.93 279.06 365.977L278.501 360.721C277.569 353.605 276.032 347.93 272.912 345.14C271.468 343.837 269.699 343.233 267.789 343.372C262.992 343.651 260.524 350.814 258.615 360.814L257.544 367.093C257.171 369.558 256.798 372.07 256.379 374.628C254.842 385 253.306 395.744 250.558 400.628C247.624 405.884 245.482 408.163 243.386 408.302C240.266 408.488 235.795 404.209 228.297 393.93C223.174 386.907 218.424 383.326 213.72 383C213.44 383 213.208 382.953 212.975 382.953C210.739 382.953 208.644 383.698 206.734 384.814C206.222 385.14 204.778 386.07 203.474 387.186C202.124 388.302 200.866 389.558 199.609 390.86C197.606 392.907 192.437 398.628 190.76 400.767C186.336 405.465 181.679 408.953 162.026 411.558C161.187 411.651 160.628 412.442 160.722 413.233C160.815 414.07 161.56 414.628 162.398 414.535C181.213 412.07 187.454 408.628 193.042 402.721C194.719 400.581 199.842 394.907 201.751 392.953C202.03 392.674 202.263 392.442 202.543 392.209C202.682 392.07 202.915 391.837 203.102 391.651C203.241 391.512 203.521 391.233 203.521 391.233C204.638 390.209 206.036 389.047 206.548 388.628C206.594 388.581 206.641 388.581 206.688 388.535L206.734 388.488C209.063 386.767 211.205 385.837 213.534 386.023C217.259 386.302 221.311 389.465 225.875 395.744C234.351 407.372 239.148 411.605 243.572 411.326C247.438 411.093 250.185 407.465 253.212 402.116C256.193 396.767 257.776 386.209 259.406 375.093C259.826 372.349 260.245 369.326 260.757 366.349L260.804 366.07C260.897 365.558 260.99 365.047 261.036 364.535L261.549 361.512C263.086 353.419 265.088 346.535 267.929 346.349C269.047 346.302 269.978 346.581 270.863 347.372C273.192 349.465 274.542 354.395 275.38 360.395L275.427 360.628C275.474 360.907 275.52 361.186 275.567 361.465H275.52L275.846 364.488H275.893C275.939 364.953 275.986 365.419 276.032 365.93L276.079 366.302C276.405 370.302 276.638 374.535 276.871 378.628C276.964 380.581 277.057 382.535 277.197 384.442C277.43 387.977 277.476 391.837 277.569 395.558C277.849 408.395 278.082 420.488 283.251 424.395C284.369 425.233 285.673 425.698 287.163 425.698C287.862 425.698 288.607 425.605 289.352 425.419C296.664 423.512 297.409 410.442 298.154 396.628C298.666 387.14 299.272 376.395 302.532 373.698C302.764 373.512 302.904 373.465 302.904 373.419C304.581 374.628 305.233 385.605 305.652 392.907C306.397 406.116 307.049 414.302 310.03 416.907C310.728 417.512 311.613 417.837 312.498 417.744C317.341 417.372 319.344 412.209 321.3 407.233C323.023 402.767 324.7 398.535 327.913 398.442C330.521 398.349 332.477 399.744 335.178 401.651C339.928 405 346.448 409.651 360.839 408.721C365.263 408.581 370.572 407.884 375.742 407.233C378.536 406.86 381.377 406.488 384.078 406.209C391.343 405.465 394.417 406.721 401.03 409.791C404.942 411.605 407.131 412.674 407.131 412.674L422.639 420.395C423.664 420.907 424.875 421.047 425.946 420.581C427.343 419.977 428.181 418.674 428.181 417.186V369.558C428.135 368.302 427.576 367.047 426.505 366.302Z" fill="#473245"/>
<path d="M206.827 388.488L206.874 388.442L206.827 388.488Z" fill="#464646"/>
<path d="M166.031 483.791H169.989C172.225 483.791 173.762 483.884 174.553 484.07C175.671 484.349 176.602 484.907 177.301 485.744C178 486.581 178.372 487.651 178.372 488.907C178.372 490.163 178 491.233 177.301 492.07C176.602 492.907 175.624 493.465 174.414 493.744C173.529 493.93 171.852 494.07 169.384 494.07H167.987V502.953H166.031V483.791ZM167.987 485.651V492.163L171.34 492.209C172.69 492.209 173.668 492.07 174.32 491.837C174.926 491.605 175.438 491.233 175.811 490.674C176.183 490.163 176.37 489.558 176.37 488.907C176.37 488.256 176.183 487.698 175.811 487.14C175.438 486.628 174.972 486.209 174.414 486.023C173.808 485.791 172.877 485.698 171.526 485.698H167.987V485.651Z" fill="#473245"/>
<path d="M191.691 483.791H195.65C197.839 483.791 199.329 483.884 200.121 484.07C201.285 484.349 202.263 484.907 202.962 485.744C203.707 486.581 204.079 487.651 204.079 488.907C204.079 489.93 203.847 490.86 203.334 491.651C202.822 492.442 202.123 493.047 201.145 493.465C200.214 493.884 198.91 494.07 197.233 494.07L204.359 502.953H201.937L194.812 494.07H193.694V502.953H191.738V483.791H191.691ZM193.647 485.651V492.163L197.047 492.209C198.351 492.209 199.329 492.07 199.981 491.837C200.633 491.605 201.099 491.186 201.471 490.674C201.844 490.163 201.984 489.558 201.984 488.907C201.984 488.256 201.797 487.698 201.425 487.14C201.052 486.628 200.587 486.256 200.028 486.023C199.422 485.791 198.491 485.698 197.14 485.698H193.647V485.651Z" fill="#473245"/>
<path d="M226.9 483.279C229.88 483.279 232.395 484.256 234.398 486.163C236.4 488.116 237.425 490.488 237.425 493.326C237.425 496.116 236.4 498.488 234.398 500.442C232.395 502.395 229.927 503.372 227.039 503.372C224.105 503.372 221.637 502.395 219.635 500.442C217.632 498.488 216.607 496.163 216.607 493.372C216.607 491.512 217.073 489.837 218.005 488.256C218.936 486.674 220.193 485.465 221.777 484.581C223.36 483.744 225.083 483.279 226.9 483.279ZM226.993 485.14C225.549 485.14 224.152 485.512 222.848 486.256C221.544 487 220.519 487.977 219.774 489.233C219.029 490.488 218.657 491.884 218.657 493.419C218.657 495.698 219.495 497.605 221.078 499.186C222.708 500.767 224.664 501.558 226.946 501.558C228.483 501.558 229.88 501.186 231.184 500.488C232.488 499.791 233.513 498.767 234.258 497.512C235.003 496.256 235.376 494.86 235.376 493.326C235.376 491.791 235.003 490.442 234.258 489.186C233.513 487.977 232.488 486.953 231.184 486.256C229.927 485.512 228.483 485.14 226.993 485.14Z" fill="#473245"/>
<path d="M280.457 483.791H282.413V495.326C282.413 496.674 282.459 497.558 282.506 497.884C282.599 498.628 282.832 499.279 283.205 499.791C283.577 500.302 284.136 500.721 284.835 501.046C285.58 501.372 286.325 501.558 287.07 501.558C287.722 501.558 288.374 501.419 288.933 501.14C289.538 500.86 290.051 500.488 290.423 500.023C290.842 499.558 291.122 498.953 291.308 498.302C291.448 497.837 291.494 496.814 291.494 495.326V483.791H293.45V495.326C293.45 497.046 293.264 498.395 292.938 499.465C292.612 500.535 291.913 501.419 290.889 502.209C289.864 503 288.607 503.372 287.117 503.372C285.533 503.372 284.136 503 283.018 502.256C281.901 501.512 281.109 500.535 280.736 499.326C280.503 498.581 280.364 497.233 280.364 495.279V483.791H280.457Z" fill="#473245"/>
<path d="M326.05 487.326L324.513 488.488C323.675 487.419 322.604 486.581 321.393 486.023C320.182 485.465 318.878 485.186 317.434 485.186C315.851 485.186 314.407 485.558 313.057 486.302C311.706 487.047 310.681 488.023 309.936 489.279C309.191 490.535 308.819 491.884 308.819 493.465C308.819 495.791 309.657 497.744 311.287 499.326C312.917 500.907 315.013 501.651 317.527 501.651C320.275 501.651 322.604 500.581 324.467 498.488L326.003 499.651C325.025 500.86 323.768 501.791 322.324 502.488C320.834 503.14 319.204 503.465 317.388 503.465C313.941 503.465 311.194 502.349 309.191 500.116C307.515 498.256 306.676 495.977 306.676 493.279C306.676 490.488 307.701 488.116 309.703 486.209C311.753 484.302 314.267 483.326 317.341 483.326C319.204 483.326 320.834 483.698 322.324 484.395C323.861 485.047 325.119 486.07 326.05 487.326Z" fill="#473245"/>
<path d="M337.274 485.651V483.791H348.125V485.651H343.701V502.907H341.698V485.651H337.274Z" fill="#473245"/>
<path d="M361.352 483.791H363.308V502.907H361.352V483.791Z" fill="#473245"/>
<path d="M386.5 483.279C389.48 483.279 391.995 484.256 393.998 486.163C396 488.116 397.025 490.488 397.025 493.326C397.025 496.116 396 498.488 393.998 500.442C391.995 502.395 389.527 503.372 386.64 503.372C383.706 503.372 381.237 502.395 379.235 500.442C377.232 498.488 376.208 496.163 376.208 493.372C376.208 491.512 376.673 489.837 377.605 488.256C378.536 486.674 379.794 485.465 381.377 484.581C382.96 483.744 384.637 483.279 386.5 483.279ZM386.593 485.14C385.149 485.14 383.752 485.512 382.448 486.256C381.144 487 380.12 487.977 379.374 489.233C378.629 490.488 378.257 491.884 378.257 493.419C378.257 495.698 379.095 497.605 380.678 499.186C382.308 500.767 384.264 501.558 386.546 501.558C388.083 501.558 389.48 501.186 390.784 500.488C392.088 499.791 393.113 498.767 393.858 497.512C394.603 496.256 394.976 494.86 394.976 493.326C394.976 491.791 394.603 490.442 393.858 489.186C393.113 487.977 392.088 486.953 390.784 486.256C389.48 485.512 388.083 485.14 386.593 485.14Z" fill="#473245"/>
<path d="M410.251 502.907V483.791H410.671L423.85 498.442V483.791H425.806V502.907H425.341L412.301 488.395V502.907H410.251Z" fill="#473245"/>
<path d="M437.822 499.372L439.498 498.395C440.663 500.488 442.06 501.558 443.597 501.558C444.249 501.558 444.901 501.419 445.459 501.093C446.018 500.814 446.484 500.395 446.81 499.884C447.136 499.372 447.276 498.86 447.276 498.302C447.276 497.651 447.043 497.046 446.624 496.395C446.018 495.558 444.901 494.535 443.224 493.326C441.594 492.116 440.569 491.233 440.15 490.721C439.452 489.837 439.079 488.86 439.079 487.791C439.079 486.953 439.265 486.209 439.685 485.512C440.104 484.814 440.663 484.302 441.408 483.884C442.153 483.465 442.945 483.279 443.829 483.279C444.761 483.279 445.646 483.512 446.437 483.93C447.229 484.395 448.114 485.186 448.999 486.395L447.369 487.558C446.624 486.581 445.972 485.977 445.459 485.651C444.947 485.326 444.342 485.186 443.736 485.186C442.945 485.186 442.293 485.419 441.78 485.884C441.268 486.349 441.035 486.907 441.035 487.605C441.035 488.023 441.128 488.442 441.315 488.814C441.501 489.186 441.827 489.651 442.293 490.07C442.572 490.302 443.41 490.953 444.854 491.977C446.577 493.186 447.741 494.302 448.393 495.233C449.045 496.209 449.325 497.14 449.325 498.116C449.325 499.512 448.766 500.721 447.695 501.744C446.624 502.767 445.273 503.279 443.736 503.279C442.525 503.279 441.454 502.953 440.476 502.349C439.545 501.837 438.613 500.814 437.822 499.372Z" fill="#473245"/>
<path d="M250.838 483.465L268.581 490.442C270.072 491.046 270.211 492.953 268.814 493.698L251.07 503.093C249.766 503.791 248.09 502.907 248.09 501.512V485.14C248.09 483.837 249.534 482.953 250.838 483.465Z" fill="#473245"/>
<path d="M169.617 456.395C169.617 461.372 173.668 463.279 178.325 463.279C181.353 463.279 185.963 462.442 185.963 458.628C185.963 454.581 180.002 453.977 174.32 452.488C168.499 451.14 162.584 448.767 162.584 441.884C162.584 434.209 170.175 430.628 177.254 430.628C185.451 430.628 192.995 434.023 192.995 442.628H184.613C184.333 438.209 181.027 437 176.835 437C174.087 437 170.874 438.116 170.874 441.233C170.874 444.116 172.737 444.535 182.61 446.86C185.544 447.465 194.253 449.326 194.253 457.698C194.253 464.535 188.664 469.651 177.906 469.651C169.197 469.651 161.001 465.605 161.187 456.395H169.617Z" fill="#473245"/>
<path d="M199.469 431.512H208.084V445.791H223.965V431.512H232.581V468.767H223.965V452.721H208.084V468.767H199.469V431.512Z" fill="#473245"/>
<path d="M250.93 431.512H259.779L274.449 468.767H265.461L262.48 460.488H247.81L244.736 468.767H235.981L250.93 431.512ZM250.092 454.395H260.291L255.355 440.721H255.262L250.092 454.395Z" fill="#473245"/>
<path d="M277.895 431.512H286.464L302.857 456.488H302.95V431.512H311.054V468.767H302.438L286.092 443.837H285.998V468.767H277.895V431.512Z" fill="#473245"/>
<path d="M318.645 431.512H348.032V438.395H327.307V446.395H346.355V452.767H327.307V461.884H348.497V468.767H318.692V431.512H318.645Z" fill="#473245"/>
<path d="M354.319 431.512H362.935V461.884H382.075V468.767H354.319V431.512Z" fill="#473245"/>
<path d="M386.919 431.512H395.535V461.884H414.676V468.767H386.919V431.512Z" fill="#473245"/>
<path d="M419.519 431.512H448.906V438.395H428.181V446.395H447.229V452.767H428.181V461.884H449.371V468.767H419.566V431.512H419.519Z" fill="#473245"/>
<path d="M175.115 577H168.172V556.979H161.896V551.301H181.373V556.979H175.115V577ZM197.176 577V566.137C197.176 563.465 196.385 562.129 194.803 562.129C193.678 562.129 192.846 562.604 192.307 563.553C191.779 564.49 191.516 566.055 191.516 568.246V577H184.643V549.648H191.516V553.533C191.516 555.291 191.422 557.295 191.234 559.545H191.551C192.207 558.514 192.986 557.787 193.889 557.365C194.791 556.943 195.84 556.732 197.035 556.732C199.262 556.732 200.99 557.377 202.221 558.666C203.463 559.943 204.084 561.736 204.084 564.045V577H197.176ZM221.75 577L220.432 574.363H220.291C219.365 575.512 218.422 576.297 217.461 576.719C216.5 577.141 215.258 577.352 213.734 577.352C211.859 577.352 210.383 576.789 209.305 575.664C208.227 574.539 207.688 572.957 207.688 570.918C207.688 568.797 208.426 567.221 209.902 566.189C211.379 565.146 213.518 564.561 216.318 564.432L219.641 564.326V564.045C219.641 562.404 218.832 561.584 217.215 561.584C215.762 561.584 213.916 562.076 211.678 563.061L209.691 558.525C212.012 557.33 214.941 556.732 218.48 556.732C221.035 556.732 223.01 557.365 224.404 558.631C225.811 559.896 226.514 561.666 226.514 563.939V577H221.75ZM216.652 572.5C217.484 572.5 218.193 572.236 218.779 571.709C219.377 571.182 219.676 570.496 219.676 569.652V568.105L218.094 568.176C215.832 568.258 214.701 569.09 214.701 570.672C214.701 571.891 215.352 572.5 216.652 572.5ZM243.758 577V566.137C243.758 564.812 243.564 563.816 243.178 563.148C242.803 562.469 242.193 562.129 241.35 562.129C240.189 562.129 239.352 562.592 238.836 563.518C238.32 564.443 238.062 566.031 238.062 568.281V577H231.189V557.084H236.375L237.236 559.545H237.641C238.227 558.607 239.035 557.904 240.066 557.436C241.109 556.967 242.305 556.732 243.652 556.732C245.855 556.732 247.566 557.371 248.785 558.648C250.016 559.926 250.631 561.725 250.631 564.045V577H243.758ZM261.969 565.803C262.801 564.479 263.51 563.447 264.096 562.709L268.561 557.084H276.225L269.316 565.557L276.664 577H268.807L264.447 569.863L262.215 571.568V577H255.307V549.648H262.215V560.406C262.215 562.246 262.086 564.045 261.828 565.803H261.969ZM285.98 557.084H293.223L296.598 568.51C296.762 569.107 296.873 569.828 296.932 570.672H297.072C297.166 569.863 297.307 569.154 297.494 568.545L300.957 557.084H307.971L300.096 578.266C299.088 580.961 297.846 582.865 296.369 583.979C294.904 585.092 292.988 585.648 290.621 585.648C289.707 585.648 288.77 585.549 287.809 585.35V579.953C288.43 580.094 289.139 580.164 289.936 580.164C290.545 580.164 291.078 580.047 291.535 579.812C291.992 579.578 292.391 579.244 292.73 578.811C293.07 578.389 293.434 577.691 293.82 576.719L285.98 557.084ZM329.381 566.998C329.381 570.256 328.502 572.799 326.744 574.627C324.998 576.443 322.549 577.352 319.396 577.352C316.373 577.352 313.965 576.42 312.172 574.557C310.391 572.693 309.5 570.174 309.5 566.998C309.5 563.752 310.373 561.232 312.119 559.439C313.877 557.635 316.338 556.732 319.502 556.732C321.459 556.732 323.188 557.148 324.688 557.98C326.188 558.812 327.342 560.008 328.15 561.566C328.971 563.113 329.381 564.924 329.381 566.998ZM316.479 566.998C316.479 568.709 316.707 570.016 317.164 570.918C317.621 571.809 318.389 572.254 319.467 572.254C320.533 572.254 321.283 571.809 321.717 570.918C322.162 570.016 322.385 568.709 322.385 566.998C322.385 565.299 322.162 564.016 321.717 563.148C321.271 562.281 320.51 561.848 319.432 561.848C318.377 561.848 317.621 562.281 317.164 563.148C316.707 564.004 316.479 565.287 316.479 566.998ZM347.504 577L346.643 574.521H346.238C345.664 575.436 344.861 576.139 343.83 576.631C342.811 577.111 341.609 577.352 340.227 577.352C338.035 577.352 336.33 576.719 335.111 575.453C333.893 574.176 333.283 572.377 333.283 570.057V557.084H340.156V567.965C340.156 569.266 340.338 570.25 340.701 570.918C341.076 571.586 341.686 571.92 342.529 571.92C343.713 571.92 344.557 571.457 345.061 570.531C345.564 569.594 345.816 568.018 345.816 565.803V557.084H352.689V577H347.504ZM378.951 562.234H374.715V577H367.842V562.234H365.205V558.859L367.982 557.172V556.838C367.982 554.213 368.516 552.326 369.582 551.178C370.66 550.029 372.383 549.455 374.75 549.455C375.664 549.455 376.525 549.525 377.334 549.666C378.154 549.807 379.104 550.053 380.182 550.404L378.705 554.852C377.861 554.617 377.035 554.5 376.227 554.5C375.699 554.5 375.312 554.664 375.066 554.992C374.832 555.309 374.715 555.83 374.715 556.557V557.084H378.951V562.234ZM400.678 566.998C400.678 570.256 399.799 572.799 398.041 574.627C396.295 576.443 393.846 577.352 390.693 577.352C387.67 577.352 385.262 576.42 383.469 574.557C381.688 572.693 380.797 570.174 380.797 566.998C380.797 563.752 381.67 561.232 383.416 559.439C385.174 557.635 387.635 556.732 390.799 556.732C392.756 556.732 394.484 557.148 395.984 557.98C397.484 558.812 398.639 560.008 399.447 561.566C400.268 563.113 400.678 564.924 400.678 566.998ZM387.775 566.998C387.775 568.709 388.004 570.016 388.461 570.918C388.918 571.809 389.686 572.254 390.764 572.254C391.83 572.254 392.58 571.809 393.014 570.918C393.459 570.016 393.682 568.709 393.682 566.998C393.682 565.299 393.459 564.016 393.014 563.148C392.568 562.281 391.807 561.848 390.729 561.848C389.674 561.848 388.918 562.281 388.461 563.148C388.004 564.004 387.775 565.287 387.775 566.998ZM416.639 556.732C417.236 556.732 417.805 556.779 418.344 556.873L418.73 556.943L418.115 563.43C417.553 563.289 416.773 563.219 415.777 563.219C414.277 563.219 413.188 563.564 412.508 564.256C411.828 564.936 411.488 565.92 411.488 567.209V577H404.615V557.084H409.73L410.803 560.266H411.137C411.711 559.211 412.508 558.361 413.527 557.717C414.559 557.061 415.596 556.732 416.639 556.732ZM178.754 619.883C178.754 622.016 178.027 623.627 176.574 624.717C175.121 625.807 173.035 626.352 170.316 626.352C168.84 626.352 167.557 626.27 166.467 626.105C165.377 625.953 164.264 625.666 163.127 625.244V619.742C164.193 620.211 165.359 620.598 166.625 620.902C167.902 621.207 169.039 621.359 170.035 621.359C171.523 621.359 172.268 621.02 172.268 620.34C172.268 619.988 172.057 619.678 171.635 619.408C171.225 619.127 170.018 618.588 168.014 617.791C166.186 617.041 164.908 616.191 164.182 615.242C163.455 614.281 163.092 613.068 163.092 611.604C163.092 609.752 163.807 608.311 165.236 607.279C166.666 606.248 168.688 605.732 171.301 605.732C172.613 605.732 173.844 605.879 174.992 606.172C176.152 606.453 177.354 606.869 178.596 607.42L176.732 611.85C175.818 611.439 174.852 611.094 173.832 610.812C172.812 610.52 171.98 610.373 171.336 610.373C170.211 610.373 169.648 610.648 169.648 611.199C169.648 611.539 169.842 611.832 170.229 612.078C170.627 612.312 171.764 612.799 173.639 613.537C175.033 614.111 176.07 614.674 176.75 615.225C177.441 615.775 177.945 616.426 178.262 617.176C178.59 617.914 178.754 618.816 178.754 619.883ZM196.754 626L195.893 623.521H195.488C194.914 624.436 194.111 625.139 193.08 625.631C192.061 626.111 190.859 626.352 189.477 626.352C187.285 626.352 185.58 625.719 184.361 624.453C183.143 623.176 182.533 621.377 182.533 619.057V606.084H189.406V616.965C189.406 618.266 189.588 619.25 189.951 619.918C190.326 620.586 190.936 620.92 191.779 620.92C192.963 620.92 193.807 620.457 194.311 619.531C194.814 618.594 195.066 617.018 195.066 614.803V606.084H201.939V626H196.754ZM218.639 626.352C217.631 626.352 216.729 626.188 215.932 625.859C215.135 625.52 214.344 624.916 213.559 624.049H213.242C213.453 625.443 213.559 626.311 213.559 626.65V634.648H206.686V606.084H212.275L213.242 608.615H213.559C214.836 606.693 216.6 605.732 218.85 605.732C221.053 605.732 222.781 606.646 224.035 608.475C225.289 610.303 225.916 612.811 225.916 615.998C225.916 619.209 225.26 621.74 223.947 623.592C222.646 625.432 220.877 626.352 218.639 626.352ZM216.336 611.129C215.328 611.129 214.619 611.492 214.209 612.219C213.811 612.934 213.594 614 213.559 615.418V615.963C213.559 617.674 213.787 618.91 214.244 619.672C214.701 620.434 215.422 620.814 216.406 620.814C217.285 620.814 217.924 620.439 218.322 619.689C218.721 618.928 218.92 617.674 218.92 615.928C218.92 614.217 218.721 612.992 218.322 612.254C217.924 611.504 217.262 611.129 216.336 611.129ZM241.807 626.352C240.799 626.352 239.896 626.188 239.1 625.859C238.303 625.52 237.512 624.916 236.727 624.049H236.41C236.621 625.443 236.727 626.311 236.727 626.65V634.648H229.854V606.084H235.443L236.41 608.615H236.727C238.004 606.693 239.768 605.732 242.018 605.732C244.221 605.732 245.949 606.646 247.203 608.475C248.457 610.303 249.084 612.811 249.084 615.998C249.084 619.209 248.428 621.74 247.115 623.592C245.814 625.432 244.045 626.352 241.807 626.352ZM239.504 611.129C238.496 611.129 237.787 611.492 237.377 612.219C236.979 612.934 236.762 614 236.727 615.418V615.963C236.727 617.674 236.955 618.91 237.412 619.672C237.869 620.434 238.59 620.814 239.574 620.814C240.453 620.814 241.092 620.439 241.49 619.689C241.889 618.928 242.088 617.674 242.088 615.928C242.088 614.217 241.889 612.992 241.49 612.254C241.092 611.504 240.43 611.129 239.504 611.129ZM272.041 615.998C272.041 619.256 271.162 621.799 269.404 623.627C267.658 625.443 265.209 626.352 262.057 626.352C259.033 626.352 256.625 625.42 254.832 623.557C253.051 621.693 252.16 619.174 252.16 615.998C252.16 612.752 253.033 610.232 254.779 608.439C256.537 606.635 258.998 605.732 262.162 605.732C264.119 605.732 265.848 606.148 267.348 606.98C268.848 607.812 270.002 609.008 270.811 610.566C271.631 612.113 272.041 613.924 272.041 615.998ZM259.139 615.998C259.139 617.709 259.367 619.016 259.824 619.918C260.281 620.809 261.049 621.254 262.127 621.254C263.193 621.254 263.943 620.809 264.377 619.918C264.822 619.016 265.045 617.709 265.045 615.998C265.045 614.299 264.822 613.016 264.377 612.148C263.932 611.281 263.17 610.848 262.092 610.848C261.037 610.848 260.281 611.281 259.824 612.148C259.367 613.004 259.139 614.287 259.139 615.998ZM288.002 605.732C288.6 605.732 289.168 605.779 289.707 605.873L290.094 605.943L289.479 612.43C288.916 612.289 288.137 612.219 287.141 612.219C285.641 612.219 284.551 612.564 283.871 613.256C283.191 613.936 282.852 614.92 282.852 616.209V626H275.979V606.084H281.094L282.166 609.266H282.5C283.074 608.211 283.871 607.361 284.891 606.717C285.922 606.061 286.959 605.732 288.002 605.732ZM302.645 620.92C303.57 620.92 304.678 620.691 305.967 620.234V625.244C305.041 625.643 304.156 625.924 303.312 626.088C302.48 626.264 301.502 626.352 300.377 626.352C298.068 626.352 296.404 625.789 295.385 624.664C294.365 623.527 293.855 621.787 293.855 619.443V611.234H291.447V608.439L294.506 606.277L296.281 602.094H300.781V606.084H305.668V611.234H300.781V618.986C300.781 620.275 301.402 620.92 302.645 620.92ZM316.355 626H309.482V606.084H316.355V626ZM309.307 601.127C309.307 600.096 309.594 599.328 310.168 598.824C310.742 598.32 311.668 598.068 312.945 598.068C314.223 598.068 315.154 598.326 315.74 598.842C316.326 599.357 316.619 600.119 316.619 601.127C316.619 603.143 315.395 604.15 312.945 604.15C310.52 604.15 309.307 603.143 309.307 601.127ZM333.723 626V615.137C333.723 613.812 333.529 612.816 333.143 612.148C332.768 611.469 332.158 611.129 331.314 611.129C330.154 611.129 329.316 611.592 328.801 612.518C328.285 613.443 328.027 615.031 328.027 617.281V626H321.154V606.084H326.34L327.201 608.545H327.605C328.191 607.607 329 606.904 330.031 606.436C331.074 605.967 332.27 605.732 333.617 605.732C335.82 605.732 337.531 606.371 338.75 607.648C339.98 608.926 340.596 610.725 340.596 613.045V626H333.723ZM364.062 606.084V609.406L361.338 610.408C361.713 611.088 361.9 611.879 361.9 612.781C361.9 614.926 361.145 616.59 359.633 617.773C358.133 618.957 355.889 619.549 352.9 619.549C352.162 619.549 351.576 619.502 351.143 619.408C350.979 619.713 350.896 620 350.896 620.27C350.896 620.609 351.172 620.873 351.723 621.061C352.273 621.236 352.994 621.324 353.885 621.324H357.189C361.654 621.324 363.887 623.205 363.887 626.967C363.887 629.393 362.85 631.279 360.775 632.627C358.713 633.975 355.812 634.648 352.074 634.648C349.25 634.648 347.07 634.174 345.535 633.225C344.012 632.287 343.25 630.934 343.25 629.164C343.25 626.785 344.727 625.25 347.68 624.559C347.07 624.301 346.537 623.885 346.08 623.311C345.635 622.736 345.412 622.168 345.412 621.605C345.412 620.984 345.582 620.439 345.922 619.971C346.262 619.49 346.971 618.922 348.049 618.266C347.018 617.809 346.203 617.094 345.605 616.121C345.02 615.148 344.727 613.965 344.727 612.57C344.727 610.402 345.465 608.721 346.941 607.525C348.418 606.33 350.527 605.732 353.27 605.732C353.633 605.732 354.26 605.773 355.15 605.855C356.041 605.938 356.697 606.014 357.119 606.084H364.062ZM349.051 628.479C349.051 629.041 349.355 629.492 349.965 629.832C350.574 630.184 351.389 630.359 352.408 630.359C354.072 630.359 355.402 630.148 356.398 629.727C357.406 629.316 357.91 628.783 357.91 628.127C357.91 627.6 357.605 627.225 356.996 627.002C356.387 626.791 355.514 626.686 354.377 626.686H351.688C350.949 626.686 350.322 626.855 349.807 627.195C349.303 627.547 349.051 627.975 349.051 628.479ZM351.213 612.605C351.213 614.645 351.922 615.664 353.34 615.664C353.996 615.664 354.5 615.412 354.852 614.908C355.215 614.404 355.396 613.648 355.396 612.641C355.396 610.578 354.711 609.547 353.34 609.547C351.922 609.547 351.213 610.566 351.213 612.605ZM395.475 615.998C395.475 619.256 394.596 621.799 392.838 623.627C391.092 625.443 388.643 626.352 385.49 626.352C382.467 626.352 380.059 625.42 378.266 623.557C376.484 621.693 375.594 619.174 375.594 615.998C375.594 612.752 376.467 610.232 378.213 608.439C379.971 606.635 382.432 605.732 385.596 605.732C387.553 605.732 389.281 606.148 390.781 606.98C392.281 607.812 393.436 609.008 394.244 610.566C395.064 612.113 395.475 613.924 395.475 615.998ZM382.572 615.998C382.572 617.709 382.801 619.016 383.258 619.918C383.715 620.809 384.482 621.254 385.561 621.254C386.627 621.254 387.377 620.809 387.811 619.918C388.256 619.016 388.479 617.709 388.479 615.998C388.479 614.299 388.256 613.016 387.811 612.148C387.365 611.281 386.604 610.848 385.525 610.848C384.471 610.848 383.715 611.281 383.258 612.148C382.801 613.004 382.572 614.287 382.572 615.998ZM413.598 626L412.736 623.521H412.332C411.758 624.436 410.955 625.139 409.924 625.631C408.904 626.111 407.703 626.352 406.32 626.352C404.129 626.352 402.424 625.719 401.205 624.453C399.986 623.176 399.377 621.377 399.377 619.057V606.084H406.25V616.965C406.25 618.266 406.432 619.25 406.795 619.918C407.17 620.586 407.779 620.92 408.623 620.92C409.807 620.92 410.65 620.457 411.154 619.531C411.658 618.594 411.91 617.018 411.91 614.803V606.084H418.783V626H413.598ZM435.553 605.732C436.15 605.732 436.719 605.779 437.258 605.873L437.645 605.943L437.029 612.43C436.467 612.289 435.688 612.219 434.691 612.219C433.191 612.219 432.102 612.564 431.422 613.256C430.742 613.936 430.402 614.92 430.402 616.209V626H423.529V606.084H428.645L429.717 609.266H430.051C430.625 608.211 431.422 607.361 432.441 606.717C433.473 606.061 434.51 605.732 435.553 605.732ZM466.93 626L464.68 616.508L464.152 613.643L463.801 611.34H463.695C463.121 614.621 462.734 616.689 462.535 617.545L460.514 626H453.289L447.857 606.084H454.625L456.242 613.73C456.758 616.355 457.057 618.535 457.139 620.27H457.244C457.279 619.191 457.602 617.141 458.211 614.117L460.057 606.084H467.65L469.338 614.223C469.877 616.812 470.217 618.828 470.357 620.27H470.463C470.533 619.379 470.65 618.271 470.814 616.947C470.979 615.611 471.16 614.539 471.359 613.73L473.117 606.084H479.744L474.277 626H466.93ZM501.576 615.998C501.576 619.256 500.697 621.799 498.939 623.627C497.193 625.443 494.744 626.352 491.592 626.352C488.568 626.352 486.16 625.42 484.367 623.557C482.586 621.693 481.695 619.174 481.695 615.998C481.695 612.752 482.568 610.232 484.314 608.439C486.072 606.635 488.533 605.732 491.697 605.732C493.654 605.732 495.383 606.148 496.883 606.98C498.383 607.812 499.537 609.008 500.346 610.566C501.166 612.113 501.576 613.924 501.576 615.998ZM488.674 615.998C488.674 617.709 488.902 619.016 489.359 619.918C489.816 620.809 490.584 621.254 491.662 621.254C492.729 621.254 493.479 620.809 493.912 619.918C494.357 619.016 494.58 617.709 494.58 615.998C494.58 614.299 494.357 613.016 493.912 612.148C493.467 611.281 492.705 610.848 491.627 610.848C490.572 610.848 489.816 611.281 489.359 612.148C488.902 613.004 488.674 614.287 488.674 615.998ZM517.537 605.732C518.135 605.732 518.703 605.779 519.242 605.873L519.629 605.943L519.014 612.43C518.451 612.289 517.672 612.219 516.676 612.219C515.176 612.219 514.086 612.564 513.406 613.256C512.727 613.936 512.387 614.92 512.387 616.209V626H505.514V606.084H510.629L511.701 609.266H512.035C512.609 608.211 513.406 607.361 514.426 606.717C515.457 606.061 516.494 605.732 517.537 605.732ZM529.086 614.803C529.918 613.479 530.627 612.447 531.213 611.709L535.678 606.084H543.342L536.434 614.557L543.781 626H535.924L531.564 618.863L529.332 620.568V626H522.424V598.648H529.332V609.406C529.332 611.246 529.203 613.045 528.945 614.803H529.086ZM551.92 616.93H546.119L545.223 600.301H552.816L551.92 616.93ZM545.293 623.082C545.293 622.016 545.609 621.189 546.242 620.604C546.875 620.006 547.795 619.707 549.002 619.707C550.197 619.707 551.1 620.006 551.709 620.604C552.33 621.189 552.641 622.016 552.641 623.082C552.641 624.137 552.318 624.963 551.674 625.561C551.041 626.146 550.15 626.439 549.002 626.439C547.842 626.439 546.934 626.146 546.277 625.561C545.621 624.963 545.293 624.137 545.293 623.082Z" fill="#473245"/>
</svg>
