<svg width="713" height="252" viewBox="0 0 713 252" fill="none" xmlns="http://www.w3.org/2000/svg">
<path d="M712.5 0L594.868 0.00366211L348.5 0L239.723 89.8227V136.33L417.296 251.5H712.5V0Z" fill="#1E0F1C"/>
<path d="M112.903 85.5024C112.903 85.5811 112.903 85.6598 112.942 85.6991L112.903 85.5024Z" fill="#464646"/>
<path d="M100.498 90.5368C100.498 90.4581 100.537 90.3794 100.537 90.3008L100.498 90.5368Z" fill="#464646"/>
<path d="M113.415 90.1826C113.415 90.3006 113.415 90.4186 113.454 90.4973L113.415 90.1826Z" fill="#464646"/>
<path d="M61.4329 89.0029H94.5908L95.0634 86.4465H60.1727C55.7621 86.4465 52.1392 90.0255 52.1392 94.4697V105.01L54.6989 103.24V95.7676C54.6989 91.992 57.6917 89.0029 61.4329 89.0029Z" fill="#473245"/>
<path d="M52.1392 115.865V135.726C52.1392 136.316 52.6905 136.788 53.3993 136.788C54.1082 136.788 54.6595 136.316 54.6595 135.726V113.584C53.675 114.37 52.7692 115.236 52.1392 115.865Z" fill="#473245"/>
<path d="M240.573 90.4974C239.391 89.7501 237.974 89.8288 236.91 90.6547L217.181 108.314V94.4303C217.181 90.0254 213.597 86.4071 209.147 86.4071H118.928L119.243 88.9635H207.887C211.628 88.9635 214.621 91.9919 214.621 95.6889V110.634C214.621 111.106 214.858 111.539 215.291 111.735C215.685 111.971 216.196 111.932 216.59 111.696L238.328 92.7391C238.367 92.6998 238.407 92.6605 238.446 92.6605C238.682 92.4638 238.958 92.5032 239.076 92.5818C239.194 92.6212 239.391 92.7785 239.391 93.0931V133.524C239.391 133.799 239.234 133.956 239.116 134.035C238.998 134.114 238.801 134.192 238.564 134.074L225.293 127.467C225.293 127.467 223.442 126.562 220.095 124.989C214.07 122.158 210.998 121.017 204.382 121.725C202.098 121.961 199.696 122.276 197.294 122.59C193.002 123.141 188.591 123.691 184.889 123.849C173.587 124.596 168.665 121.135 164.727 118.343C162.246 116.573 160.08 115.039 157.008 115.157C152.637 115.314 150.786 120.034 149.132 124.203C147.715 127.86 146.376 131.282 143.895 131.479C143.855 131.479 143.816 131.479 143.698 131.4C141.808 129.748 141.256 119.994 140.862 112.876C140.232 101.746 139.76 95.3742 137.003 94.1943C136.334 93.919 135.31 93.801 134.089 94.8236C130.466 97.8126 129.994 106.662 129.482 116.022C128.93 125.815 128.34 136.906 123.929 138.047C122.669 138.361 121.724 138.243 120.936 137.653C117.549 135.097 117.353 124.557 117.156 115.236C117.077 112.05 117.038 108.786 116.841 105.718C116.762 104.105 116.644 102.454 116.565 100.802C116.368 97.144 116.171 93.5651 115.896 90.2221L115.423 85.7778C114.635 79.7604 113.336 74.9622 110.697 72.6025C109.477 71.5012 107.98 70.9899 106.366 71.1079C102.309 71.3439 100.222 77.4006 98.6077 85.8565L97.7019 91.166C97.3869 93.2504 97.0718 95.3742 96.7174 97.5373C95.4179 106.308 94.1183 115.393 91.7949 119.523C89.314 123.967 87.5025 125.894 85.7304 126.012C83.0919 126.169 79.3115 122.551 72.9713 113.859C68.6395 107.92 64.6227 104.892 60.6453 104.617C60.409 104.617 60.2121 104.577 60.0152 104.577C58.125 104.577 56.3529 105.207 54.7383 106.15C54.3051 106.426 53.0843 107.212 51.9817 108.156C50.8397 109.1 49.7764 110.162 48.7132 111.263C47.0198 112.994 42.6486 117.831 41.2309 119.641C37.4898 123.613 33.5518 126.562 16.9335 128.765C16.2246 128.844 15.7521 129.512 15.8308 130.181C15.9096 130.889 16.5397 131.361 17.2485 131.282C33.158 129.198 38.435 126.287 43.1606 121.292C44.5783 119.483 48.9101 114.685 50.5246 113.033C50.7609 112.797 50.9578 112.601 51.1941 112.404C51.3122 112.286 51.5091 112.089 51.6667 111.932C51.7848 111.814 52.0211 111.578 52.0211 111.578C52.9662 110.713 54.1476 109.729 54.5808 109.376C54.6202 109.336 54.6595 109.336 54.6989 109.297L54.7383 109.258C56.7073 107.802 58.5188 107.016 60.4878 107.173C63.6382 107.409 67.0643 110.083 70.9235 115.393C78.0907 125.225 82.1468 128.804 85.8879 128.568C89.1564 128.372 91.4799 125.304 94.0396 120.781C96.5599 116.258 97.8988 107.33 99.2771 97.9306C99.6315 95.6102 99.986 93.0538 100.419 90.5367L100.459 90.3007C100.537 89.8681 100.616 89.4355 100.655 89.0028L101.089 86.4464C102.388 79.6031 104.081 73.7823 106.484 73.625C107.429 73.5857 108.216 73.8217 108.965 74.4903C110.934 76.2601 112.076 80.429 112.784 85.5025L112.824 85.6992C112.863 85.9351 112.903 86.1711 112.942 86.4071H112.903L113.178 88.9635H113.218C113.257 89.3568 113.296 89.7501 113.336 90.1827L113.375 90.4974C113.651 93.8797 113.848 97.4587 114.045 100.92C114.123 102.572 114.202 104.223 114.32 105.836C114.517 108.825 114.557 112.089 114.635 115.236C114.872 126.091 115.069 136.316 119.44 139.62C120.385 140.328 121.487 140.721 122.748 140.721C123.338 140.721 123.968 140.642 124.598 140.485C130.781 138.873 131.411 127.821 132.041 116.14C132.474 108.117 132.986 99.0319 135.743 96.7508C135.94 96.5934 136.058 96.5541 136.058 96.5148C137.476 97.5373 138.027 106.819 138.382 112.994C139.012 124.163 139.563 131.085 142.083 133.288C142.674 133.799 143.422 134.074 144.17 133.996C148.266 133.681 149.959 129.316 151.613 125.107C153.07 121.332 154.488 117.753 157.205 117.674C159.41 117.595 161.064 118.775 163.348 120.388C167.365 123.219 172.878 127.152 185.047 126.366C188.788 126.248 193.277 125.658 197.648 125.107C200.011 124.793 202.413 124.478 204.697 124.242C210.841 123.613 213.44 124.675 219.032 127.27C222.34 128.804 224.191 129.709 224.191 129.709L237.304 136.238C238.171 136.67 239.194 136.788 240.1 136.395C241.282 135.884 241.99 134.782 241.99 133.524V93.2504C241.951 92.1885 241.478 91.1266 240.573 90.4974Z" fill="#473245"/>
<path d="M54.8171 109.258L54.8565 109.218L54.8171 109.258Z" fill="#464646"/>
<path d="M20.3201 189.844H23.6674C25.5576 189.844 26.8572 189.922 27.5266 190.079C28.4717 190.315 29.2593 190.787 29.85 191.495C30.4407 192.203 30.7558 193.108 30.7558 194.17C30.7558 195.232 30.4407 196.136 29.85 196.844C29.2593 197.552 28.4324 198.024 27.4085 198.26C26.6603 198.417 25.2426 198.535 23.1554 198.535H21.974V206.047H20.3201V189.844ZM21.974 191.417V196.923L24.8094 196.962C25.9514 196.962 26.7784 196.844 27.3297 196.648C27.8417 196.451 28.2748 196.136 28.5899 195.664C28.9049 195.232 29.0624 194.72 29.0624 194.17C29.0624 193.619 28.9049 193.147 28.5899 192.675C28.2748 192.243 27.881 191.889 27.4085 191.731C26.8965 191.535 26.1089 191.456 24.9669 191.456H21.974V191.417Z" fill="#473245"/>
<path d="M42.0186 189.844H45.3659C47.2167 189.844 48.4769 189.922 49.1463 190.079C50.1308 190.315 50.9578 190.787 51.5485 191.495C52.1786 192.203 52.4936 193.108 52.4936 194.17C52.4936 195.035 52.2967 195.822 51.8636 196.49C51.4304 197.159 50.8397 197.67 50.0127 198.024C49.2251 198.378 48.1225 198.535 46.7048 198.535L52.7299 206.047H50.6822L44.657 198.535H43.7119V206.047H42.0579V189.844H42.0186ZM43.6725 191.417V196.923L46.5473 196.962C47.6499 196.962 48.4769 196.844 49.0282 196.648C49.5795 196.451 49.9733 196.097 50.2884 195.664C50.6034 195.232 50.7215 194.72 50.7215 194.17C50.7215 193.619 50.564 193.147 50.249 192.675C49.9339 192.243 49.5401 191.928 49.0676 191.731C48.5556 191.535 47.768 191.456 46.626 191.456H43.6725V191.417Z" fill="#473245"/>
<path d="M71.7899 189.411C74.3102 189.411 76.4367 190.237 78.1301 191.849C79.8234 193.501 80.6898 195.507 80.6898 197.906C80.6898 200.266 79.8234 202.272 78.1301 203.923C76.4367 205.575 74.3496 206.401 71.908 206.401C69.4271 206.401 67.34 205.575 65.6466 203.923C63.9533 202.272 63.0869 200.305 63.0869 197.945C63.0869 196.372 63.4807 194.956 64.2683 193.619C65.0559 192.282 66.1192 191.259 67.4581 190.512C68.797 189.804 70.2541 189.411 71.7899 189.411ZM71.8687 190.984C70.6479 190.984 69.4665 191.299 68.3638 191.928C67.2612 192.557 66.3948 193.383 65.7648 194.445C65.1347 195.507 64.8196 196.687 64.8196 197.985C64.8196 199.912 65.5285 201.524 66.8674 202.862C68.2457 204.199 69.8997 204.867 71.8293 204.867C73.1288 204.867 74.3102 204.553 75.4129 203.963C76.5155 203.373 77.3819 202.508 78.0119 201.446C78.642 200.384 78.9571 199.204 78.9571 197.906C78.9571 196.608 78.642 195.468 78.0119 194.406C77.3819 193.383 76.5155 192.518 75.4129 191.928C74.3496 191.299 73.1288 190.984 71.8687 190.984Z" fill="#473245"/>
<path d="M117.077 189.844H118.731V199.597C118.731 200.738 118.77 201.485 118.81 201.76C118.888 202.39 119.085 202.94 119.4 203.373C119.715 203.805 120.188 204.159 120.779 204.435C121.409 204.71 122.039 204.867 122.669 204.867C123.22 204.867 123.771 204.749 124.244 204.513C124.756 204.277 125.189 203.963 125.504 203.57C125.859 203.176 126.095 202.665 126.252 202.114C126.371 201.721 126.41 200.856 126.41 199.597V189.844H128.064V199.597C128.064 201.052 127.906 202.193 127.631 203.098C127.355 204.002 126.764 204.749 125.898 205.418C125.032 206.087 123.968 206.401 122.708 206.401C121.369 206.401 120.188 206.087 119.243 205.457C118.298 204.828 117.628 204.002 117.313 202.98C117.116 202.35 116.998 201.21 116.998 199.558V189.844H117.077Z" fill="#473245"/>
<path d="M155.63 192.833L154.33 193.816C153.622 192.911 152.716 192.203 151.692 191.731C150.668 191.259 149.565 191.023 148.345 191.023C147.006 191.023 145.785 191.338 144.643 191.967C143.501 192.597 142.634 193.422 142.004 194.484C141.374 195.546 141.059 196.687 141.059 198.024C141.059 199.99 141.768 201.642 143.146 202.98C144.525 204.317 146.297 204.946 148.423 204.946C150.747 204.946 152.716 204.041 154.291 202.272L155.591 203.255C154.764 204.277 153.7 205.064 152.479 205.654C151.219 206.205 149.841 206.48 148.305 206.48C145.391 206.48 143.068 205.536 141.374 203.648C139.957 202.075 139.248 200.148 139.248 197.867C139.248 195.507 140.114 193.501 141.807 191.889C143.54 190.276 145.667 189.45 148.266 189.45C149.841 189.45 151.219 189.765 152.479 190.355C153.779 190.905 154.842 191.771 155.63 192.833Z" fill="#473245"/>
<path d="M165.121 191.417V189.844H174.296V191.417H170.555V206.008H168.862V191.417H165.121Z" fill="#473245"/>
<path d="M185.48 189.844H187.134V206.008H185.48V189.844Z" fill="#473245"/>
<path d="M206.745 189.411C209.266 189.411 211.392 190.237 213.085 191.849C214.779 193.501 215.645 195.507 215.645 197.906C215.645 200.266 214.779 202.272 213.085 203.923C211.392 205.575 209.305 206.401 206.863 206.401C204.382 206.401 202.295 205.575 200.602 203.923C198.909 202.272 198.042 200.305 198.042 197.945C198.042 196.372 198.436 194.956 199.224 193.619C200.011 192.282 201.075 191.259 202.413 190.512C203.752 189.804 205.17 189.411 206.745 189.411ZM206.824 190.984C205.603 190.984 204.422 191.299 203.319 191.928C202.217 192.557 201.35 193.383 200.72 194.445C200.09 195.507 199.775 196.687 199.775 197.985C199.775 199.912 200.484 201.524 201.823 202.862C203.201 204.199 204.855 204.867 206.785 204.867C208.084 204.867 209.266 204.553 210.368 203.963C211.471 203.373 212.337 202.508 212.967 201.446C213.597 200.384 213.912 199.204 213.912 197.906C213.912 196.608 213.597 195.468 212.967 194.406C212.337 193.383 211.471 192.518 210.368 191.928C209.266 191.299 208.084 190.984 206.824 190.984Z" fill="#473245"/>
<path d="M226.829 206.008V189.844H227.184L238.328 202.232V189.844H239.982V206.008H239.588L228.562 193.737V206.008H226.829Z" fill="#473245"/>
<path d="M250.142 203.019L251.56 202.193C252.544 203.963 253.726 204.867 255.025 204.867C255.577 204.867 256.128 204.749 256.6 204.474C257.073 204.238 257.467 203.884 257.742 203.452C258.018 203.019 258.136 202.586 258.136 202.114C258.136 201.564 257.939 201.052 257.585 200.502C257.073 199.794 256.128 198.929 254.71 197.906C253.332 196.883 252.465 196.136 252.111 195.704C251.52 194.956 251.205 194.13 251.205 193.226C251.205 192.518 251.363 191.889 251.717 191.299C252.072 190.709 252.544 190.276 253.174 189.922C253.804 189.568 254.474 189.411 255.222 189.411C256.01 189.411 256.758 189.608 257.427 189.961C258.097 190.355 258.845 191.023 259.593 192.046L258.215 193.029C257.585 192.203 257.034 191.692 256.6 191.417C256.167 191.141 255.655 191.023 255.143 191.023C254.474 191.023 253.923 191.22 253.489 191.613C253.056 192.007 252.859 192.479 252.859 193.069C252.859 193.422 252.938 193.776 253.096 194.091C253.253 194.406 253.529 194.799 253.923 195.153C254.159 195.35 254.868 195.9 256.088 196.766C257.546 197.788 258.53 198.732 259.081 199.519C259.633 200.344 259.869 201.131 259.869 201.957C259.869 203.137 259.396 204.159 258.491 205.025C257.585 205.89 256.443 206.323 255.143 206.323C254.119 206.323 253.214 206.047 252.387 205.536C251.599 205.103 250.812 204.238 250.142 203.019Z" fill="#473245"/>
<path d="M92.0312 189.568L107.035 195.468C108.295 195.979 108.413 197.591 107.232 198.221L92.2281 206.165C91.1254 206.755 89.7078 206.008 89.7078 204.828V190.984C89.7078 189.883 90.9285 189.136 92.0312 189.568Z" fill="#473245"/>
<path d="M23.3523 166.679C23.3523 170.887 26.7784 172.499 30.7164 172.499C33.2761 172.499 37.1747 171.792 37.1747 168.566C37.1747 165.145 32.1341 164.634 27.3297 163.375C22.4072 162.234 17.406 160.229 17.406 154.408C17.406 147.919 23.8249 144.89 29.8107 144.89C36.7416 144.89 43.1211 147.761 43.1211 155.037H36.0327C35.7964 151.301 33.0005 150.278 29.4563 150.278C27.1328 150.278 24.4156 151.222 24.4156 153.857C24.4156 156.296 25.9908 156.65 34.3394 158.616C36.8203 159.127 44.1844 160.701 44.1844 167.78C44.1844 173.561 39.4588 177.888 30.362 177.888C22.9979 177.888 16.067 174.466 16.2246 166.679H23.3523Z" fill="#473245"/>
<path d="M48.595 145.637H55.8803V157.712H69.3089V145.637H76.5942V177.14H69.3089V163.572H55.8803V177.14H48.595V145.637Z" fill="#473245"/>
<path d="M92.11 145.637H99.5922L111.997 177.14H104.397L101.876 170.14H89.4715L86.8724 177.14H79.469L92.11 145.637ZM91.4011 164.988H100.025L95.8511 153.425H95.7723L91.4011 164.988Z" fill="#473245"/>
<path d="M114.911 145.637H122.157L136.019 166.757H136.097V145.637H142.949V177.14H135.664L121.842 156.06H121.763V177.14H114.911V145.637Z" fill="#473245"/>
<path d="M149.368 145.637H174.217V151.458H156.693V158.223H172.8V163.611H156.693V171.32H174.611V177.14H149.408V145.637H149.368Z" fill="#473245"/>
<path d="M179.534 145.637H186.819V171.32H203.004V177.14H179.534V145.637Z" fill="#473245"/>
<path d="M207.1 145.637H214.385V171.32H230.57V177.14H207.1V145.637Z" fill="#473245"/>
<path d="M234.666 145.637H259.514V151.458H241.99V158.223H258.097V163.611H241.99V171.32H259.908V177.14H234.705V145.637H234.666Z" fill="#473245"/>
<path d="M473.545 81.4531H484.637V95.3047C483.312 95.7617 481.795 96.1367 480.084 96.4297C478.373 96.7109 476.58 96.8516 474.705 96.8516C472.232 96.8516 470.064 96.3711 468.201 95.4102C466.338 94.4492 464.885 92.9902 463.842 91.0332C462.799 89.0645 462.277 86.5801 462.277 83.5801C462.277 80.8848 462.793 78.5586 463.824 76.6016C464.855 74.6328 466.373 73.1152 468.377 72.0488C470.393 70.9707 472.859 70.4316 475.777 70.4316C477.383 70.4316 478.906 70.584 480.348 70.8887C481.789 71.1934 483.043 71.5801 484.109 72.0488L481.912 77.498C480.986 77.041 480.025 76.7012 479.029 76.4785C478.033 76.2441 476.961 76.127 475.812 76.127C474.277 76.127 473.041 76.4727 472.104 77.1641C471.178 77.8555 470.504 78.7812 470.082 79.9414C469.66 81.0898 469.449 82.3613 469.449 83.7559C469.449 85.3496 469.672 86.6973 470.117 87.7988C470.574 88.8887 471.236 89.7207 472.104 90.2949C472.982 90.8574 474.043 91.1387 475.285 91.1387C475.695 91.1387 476.193 91.1094 476.779 91.0508C477.377 90.9922 477.828 90.9219 478.133 90.8398V86.8145H473.545V81.4531ZM501.494 76.2324C501.869 76.2324 502.262 76.2617 502.672 76.3203C503.082 76.3672 503.387 76.4082 503.586 76.4434L502.971 82.9297C502.748 82.8711 502.461 82.8242 502.109 82.7891C501.758 82.7422 501.266 82.7188 500.633 82.7188C500.199 82.7188 499.736 82.7598 499.244 82.8418C498.752 82.9238 498.283 83.0996 497.838 83.3691C497.404 83.627 497.047 84.0254 496.766 84.5645C496.484 85.0918 496.344 85.8066 496.344 86.709V96.5H489.471V76.584H494.586L495.658 79.7656H495.992C496.355 79.1094 496.818 78.5176 497.381 77.9902C497.955 77.4512 498.594 77.0234 499.297 76.707C500.012 76.3906 500.744 76.2324 501.494 76.2324ZM516.102 76.2324C518.621 76.2324 520.59 76.8594 522.008 78.1133C523.426 79.3555 524.135 81.1309 524.135 83.4395V96.5H519.371L518.053 93.8633H517.912C517.35 94.5664 516.77 95.1406 516.172 95.5859C515.586 96.0195 514.912 96.3359 514.15 96.5352C513.389 96.7461 512.457 96.8516 511.355 96.8516C510.207 96.8516 509.176 96.6172 508.262 96.1484C507.348 95.6797 506.627 94.9707 506.1 94.0215C505.572 93.0723 505.309 91.8711 505.309 90.418C505.309 88.2852 506.047 86.7031 507.523 85.6719C509 84.6406 511.139 84.0605 513.939 83.9316L517.262 83.8262V83.5449C517.262 82.6543 517.039 82.0215 516.594 81.6465C516.16 81.2715 515.574 81.084 514.836 81.084C514.051 81.084 513.172 81.2246 512.199 81.5059C511.238 81.7754 510.271 82.127 509.299 82.5605L507.312 78.0254C508.461 77.4395 509.762 76.9941 511.215 76.6895C512.668 76.3848 514.297 76.2324 516.102 76.2324ZM517.297 87.6055L515.715 87.6758C514.449 87.7227 513.559 87.9453 513.043 88.3438C512.539 88.7305 512.287 89.2871 512.287 90.0137C512.287 90.6934 512.469 91.1973 512.832 91.5254C513.195 91.8418 513.676 92 514.273 92C515.105 92 515.814 91.7363 516.4 91.209C516.998 90.6816 517.297 89.9961 517.297 89.1523V87.6055ZM537.881 96.8516C535.865 96.8516 534.113 96.4941 532.625 95.7793C531.137 95.0527 529.982 93.9395 529.162 92.4395C528.354 90.9277 527.949 88.9941 527.949 86.6387C527.949 84.2246 528.4 82.25 529.303 80.7148C530.217 79.1797 531.465 78.0488 533.047 77.3223C534.629 76.5957 536.422 76.2324 538.426 76.2324C539.645 76.2324 540.799 76.3672 541.889 76.6367C542.99 76.9062 544.01 77.2754 544.947 77.7441L542.926 82.8242C542.105 82.4609 541.338 82.1738 540.623 81.9629C539.92 81.7402 539.188 81.6289 538.426 81.6289C537.734 81.6289 537.125 81.8105 536.598 82.1738C536.07 82.5371 535.66 83.0879 535.367 83.8262C535.074 84.5527 534.928 85.4785 534.928 86.6035C534.928 87.752 535.074 88.6777 535.367 89.3809C535.672 90.084 536.088 90.5938 536.615 90.9102C537.154 91.2266 537.77 91.3848 538.461 91.3848C539.457 91.3848 540.447 91.2324 541.432 90.9277C542.428 90.6113 543.371 90.1777 544.262 89.627V95.0938C543.441 95.6328 542.516 96.0605 541.484 96.377C540.453 96.6934 539.252 96.8516 537.881 96.8516ZM555.125 76.584V96.5H548.252V76.584H555.125ZM551.715 68.5684C552.699 68.5684 553.555 68.7734 554.281 69.1836C555.02 69.5938 555.389 70.4082 555.389 71.627C555.389 72.8105 555.02 73.6133 554.281 74.0352C553.555 74.4453 552.699 74.6504 551.715 74.6504C550.707 74.6504 549.846 74.4453 549.131 74.0352C548.428 73.6133 548.076 72.8105 548.076 71.627C548.076 70.4082 548.428 69.5938 549.131 69.1836C549.846 68.7734 550.707 68.5684 551.715 68.5684ZM569.645 76.2324C572.164 76.2324 574.133 76.8594 575.551 78.1133C576.969 79.3555 577.678 81.1309 577.678 83.4395V96.5H572.914L571.596 93.8633H571.455C570.893 94.5664 570.312 95.1406 569.715 95.5859C569.129 96.0195 568.455 96.3359 567.693 96.5352C566.932 96.7461 566 96.8516 564.898 96.8516C563.75 96.8516 562.719 96.6172 561.805 96.1484C560.891 95.6797 560.17 94.9707 559.643 94.0215C559.115 93.0723 558.852 91.8711 558.852 90.418C558.852 88.2852 559.59 86.7031 561.066 85.6719C562.543 84.6406 564.682 84.0605 567.482 83.9316L570.805 83.8262V83.5449C570.805 82.6543 570.582 82.0215 570.137 81.6465C569.703 81.2715 569.117 81.084 568.379 81.084C567.594 81.084 566.715 81.2246 565.742 81.5059C564.781 81.7754 563.814 82.127 562.842 82.5605L560.855 78.0254C562.004 77.4395 563.305 76.9941 564.758 76.6895C566.211 76.3848 567.84 76.2324 569.645 76.2324ZM570.84 87.6055L569.258 87.6758C567.992 87.7227 567.102 87.9453 566.586 88.3438C566.082 88.7305 565.83 89.2871 565.83 90.0137C565.83 90.6934 566.012 91.1973 566.375 91.5254C566.738 91.8418 567.219 92 567.816 92C568.648 92 569.357 91.7363 569.943 91.209C570.541 90.6816 570.84 89.9961 570.84 89.1523V87.6055ZM597.154 90.3828C597.154 91.6484 596.873 92.7676 596.311 93.7402C595.748 94.7129 594.846 95.4746 593.604 96.0254C592.373 96.5762 590.75 96.8516 588.734 96.8516C587.316 96.8516 586.045 96.7754 584.92 96.623C583.807 96.4707 582.676 96.1777 581.527 95.7441V90.2422C582.781 90.8164 584.059 91.2324 585.359 91.4902C586.66 91.7363 587.686 91.8594 588.436 91.8594C589.209 91.8594 589.771 91.7773 590.123 91.6133C590.486 91.4375 590.668 91.1797 590.668 90.8398C590.668 90.5469 590.545 90.3008 590.299 90.1016C590.064 89.8906 589.637 89.6504 589.016 89.3809C588.406 89.1113 587.545 88.748 586.432 88.291C585.33 87.834 584.41 87.3359 583.672 86.7969C582.945 86.2578 582.4 85.6133 582.037 84.8633C581.674 84.1133 581.492 83.1934 581.492 82.1035C581.492 80.1582 582.242 78.6934 583.742 77.709C585.242 76.7246 587.229 76.2324 589.701 76.2324C591.014 76.2324 592.25 76.3789 593.41 76.6719C594.57 76.9531 595.771 77.3691 597.014 77.9199L595.133 82.3496C594.148 81.9043 593.152 81.5469 592.145 81.2773C591.137 81.0078 590.334 80.873 589.736 80.873C589.197 80.873 588.781 80.9434 588.488 81.084C588.195 81.2246 588.049 81.4297 588.049 81.6992C588.049 81.9453 588.148 82.1621 588.348 82.3496C588.559 82.5371 588.951 82.7539 589.525 83C590.1 83.2461 590.938 83.5918 592.039 84.0371C593.199 84.5059 594.154 85.0098 594.904 85.5488C595.666 86.0762 596.229 86.7207 596.592 87.4824C596.967 88.2441 597.154 89.2109 597.154 90.3828ZM622.502 76.2324C624.705 76.2324 626.434 77.1172 627.688 78.8867C628.941 80.6445 629.568 83.1816 629.568 86.498C629.568 88.7598 629.252 90.6641 628.619 92.2109C627.986 93.7461 627.119 94.9062 626.018 95.6914C624.928 96.4648 623.686 96.8516 622.291 96.8516C621.354 96.8516 620.557 96.7344 619.9 96.5C619.256 96.2656 618.717 95.9727 618.283 95.6211C617.861 95.2695 617.504 94.9121 617.211 94.5488H617C617.059 95.0059 617.105 95.498 617.141 96.0254C617.188 96.5527 617.211 97.168 617.211 97.8711V105.148H610.338V76.584H615.928L616.895 79.1152H617.211C617.539 78.5996 617.938 78.125 618.406 77.6914C618.875 77.2461 619.443 76.8945 620.111 76.6367C620.791 76.3672 621.588 76.2324 622.502 76.2324ZM619.918 81.6289C619.25 81.6289 618.723 81.7871 618.336 82.1035C617.949 82.4199 617.668 82.9004 617.492 83.5449C617.328 84.1777 617.234 84.9688 617.211 85.918V86.4629C617.211 87.5176 617.293 88.4082 617.457 89.1348C617.621 89.8496 617.902 90.3945 618.301 90.7695C618.699 91.1328 619.25 91.3145 619.953 91.3145C620.527 91.3145 621.008 91.1504 621.395 90.8223C621.781 90.4941 622.074 89.9727 622.273 89.2578C622.473 88.543 622.572 87.5996 622.572 86.4277C622.572 84.6816 622.344 83.4453 621.887 82.7188C621.441 81.9922 620.785 81.6289 619.918 81.6289ZM652.525 86.498C652.525 88.1621 652.297 89.6387 651.84 90.9277C651.383 92.2168 650.721 93.3008 649.854 94.1797C648.986 95.0586 647.938 95.7266 646.707 96.1836C645.477 96.6289 644.088 96.8516 642.541 96.8516C641.1 96.8516 639.775 96.6289 638.568 96.1836C637.373 95.7266 636.33 95.0586 635.439 94.1797C634.549 93.3008 633.857 92.2168 633.365 90.9277C632.885 89.6387 632.645 88.1621 632.645 86.498C632.645 84.2949 633.043 82.4316 633.84 80.9082C634.648 79.3848 635.797 78.2246 637.285 77.4277C638.785 76.6309 640.572 76.2324 642.646 76.2324C644.557 76.2324 646.256 76.6309 647.744 77.4277C649.232 78.2246 650.398 79.3848 651.242 80.9082C652.098 82.4316 652.525 84.2949 652.525 86.498ZM639.623 86.498C639.623 87.6348 639.723 88.5957 639.922 89.3809C640.121 90.1543 640.438 90.7461 640.871 91.1562C641.316 91.5547 641.896 91.7539 642.611 91.7539C643.326 91.7539 643.895 91.5547 644.316 91.1562C644.738 90.7461 645.043 90.1543 645.23 89.3809C645.43 88.5957 645.529 87.6348 645.529 86.498C645.529 85.3613 645.43 84.4121 645.23 83.6504C645.043 82.8887 644.732 82.3145 644.299 81.9277C643.877 81.541 643.303 81.3477 642.576 81.3477C641.533 81.3477 640.777 81.7812 640.309 82.6484C639.852 83.5156 639.623 84.7988 639.623 86.498ZM668.486 76.2324C668.861 76.2324 669.254 76.2617 669.664 76.3203C670.074 76.3672 670.379 76.4082 670.578 76.4434L669.963 82.9297C669.74 82.8711 669.453 82.8242 669.102 82.7891C668.75 82.7422 668.258 82.7188 667.625 82.7188C667.191 82.7188 666.729 82.7598 666.236 82.8418C665.744 82.9238 665.275 83.0996 664.83 83.3691C664.396 83.627 664.039 84.0254 663.758 84.5645C663.477 85.0918 663.336 85.8066 663.336 86.709V96.5H656.463V76.584H661.578L662.65 79.7656H662.984C663.348 79.1094 663.811 78.5176 664.373 77.9902C664.947 77.4512 665.586 77.0234 666.289 76.707C667.004 76.3906 667.736 76.2324 668.486 76.2324ZM388.977 125.232C391.496 125.232 393.465 125.859 394.883 127.113C396.301 128.355 397.01 130.131 397.01 132.439V145.5H392.246L390.928 142.863H390.787C390.225 143.566 389.645 144.141 389.047 144.586C388.461 145.02 387.787 145.336 387.025 145.535C386.264 145.746 385.332 145.852 384.23 145.852C383.082 145.852 382.051 145.617 381.137 145.148C380.223 144.68 379.502 143.971 378.975 143.021C378.447 142.072 378.184 140.871 378.184 139.418C378.184 137.285 378.922 135.703 380.398 134.672C381.875 133.641 384.014 133.061 386.814 132.932L390.137 132.826V132.545C390.137 131.654 389.914 131.021 389.469 130.646C389.035 130.271 388.449 130.084 387.711 130.084C386.926 130.084 386.047 130.225 385.074 130.506C384.113 130.775 383.146 131.127 382.174 131.561L380.188 127.025C381.336 126.439 382.637 125.994 384.09 125.689C385.543 125.385 387.172 125.232 388.977 125.232ZM390.172 136.605L388.59 136.676C387.324 136.723 386.434 136.945 385.918 137.344C385.414 137.73 385.162 138.287 385.162 139.014C385.162 139.693 385.344 140.197 385.707 140.525C386.07 140.842 386.551 141 387.148 141C387.98 141 388.689 140.736 389.275 140.209C389.873 139.682 390.172 138.996 390.172 138.152V136.605ZM413.85 125.232C416.053 125.232 417.781 126.117 419.035 127.887C420.289 129.645 420.916 132.182 420.916 135.498C420.916 137.76 420.6 139.664 419.967 141.211C419.334 142.746 418.467 143.906 417.365 144.691C416.275 145.465 415.033 145.852 413.639 145.852C412.701 145.852 411.904 145.734 411.248 145.5C410.604 145.266 410.064 144.973 409.631 144.621C409.209 144.27 408.852 143.912 408.559 143.549H408.348C408.406 144.006 408.453 144.498 408.488 145.025C408.535 145.553 408.559 146.168 408.559 146.871V154.148H401.686V125.584H407.275L408.242 128.115H408.559C408.887 127.6 409.285 127.125 409.754 126.691C410.223 126.246 410.791 125.895 411.459 125.637C412.139 125.367 412.936 125.232 413.85 125.232ZM411.266 130.629C410.598 130.629 410.07 130.787 409.684 131.104C409.297 131.42 409.016 131.9 408.84 132.545C408.676 133.178 408.582 133.969 408.559 134.918V135.463C408.559 136.518 408.641 137.408 408.805 138.135C408.969 138.85 409.25 139.395 409.648 139.77C410.047 140.133 410.598 140.314 411.301 140.314C411.875 140.314 412.355 140.15 412.742 139.822C413.129 139.494 413.422 138.973 413.621 138.258C413.82 137.543 413.92 136.6 413.92 135.428C413.92 133.682 413.691 132.445 413.234 131.719C412.789 130.992 412.133 130.629 411.266 130.629ZM443.873 135.498C443.873 137.162 443.645 138.639 443.188 139.928C442.73 141.217 442.068 142.301 441.201 143.18C440.334 144.059 439.285 144.727 438.055 145.184C436.824 145.629 435.436 145.852 433.889 145.852C432.447 145.852 431.123 145.629 429.916 145.184C428.721 144.727 427.678 144.059 426.787 143.18C425.896 142.301 425.205 141.217 424.713 139.928C424.232 138.639 423.992 137.162 423.992 135.498C423.992 133.295 424.391 131.432 425.188 129.908C425.996 128.385 427.145 127.225 428.633 126.428C430.133 125.631 431.92 125.232 433.994 125.232C435.904 125.232 437.604 125.631 439.092 126.428C440.58 127.225 441.746 128.385 442.59 129.908C443.445 131.432 443.873 133.295 443.873 135.498ZM430.971 135.498C430.971 136.635 431.07 137.596 431.27 138.381C431.469 139.154 431.785 139.746 432.219 140.156C432.664 140.555 433.244 140.754 433.959 140.754C434.674 140.754 435.242 140.555 435.664 140.156C436.086 139.746 436.391 139.154 436.578 138.381C436.777 137.596 436.877 136.635 436.877 135.498C436.877 134.361 436.777 133.412 436.578 132.65C436.391 131.889 436.08 131.314 435.646 130.928C435.225 130.541 434.65 130.348 433.924 130.348C432.881 130.348 432.125 130.781 431.656 131.648C431.199 132.516 430.971 133.799 430.971 135.498ZM445.402 125.584H452.645L456.02 137.01C456.066 137.174 456.113 137.379 456.16 137.625C456.207 137.859 456.248 138.111 456.283 138.381C456.318 138.65 456.342 138.914 456.354 139.172H456.494C456.553 138.691 456.617 138.275 456.688 137.924C456.77 137.561 456.846 137.268 456.916 137.045L460.379 125.584H467.393L459.518 146.766C458.908 148.383 458.199 149.736 457.391 150.826C456.594 151.928 455.604 152.754 454.42 153.305C453.248 153.867 451.789 154.148 450.043 154.148C449.41 154.148 448.865 154.113 448.408 154.043C447.963 153.984 447.57 153.92 447.23 153.85V148.453C447.488 148.5 447.805 148.547 448.18 148.594C448.555 148.641 448.947 148.664 449.357 148.664C450.119 148.664 450.734 148.512 451.203 148.207C451.684 147.902 452.076 147.498 452.381 146.994C452.686 146.502 452.949 145.969 453.172 145.395L453.242 145.219L445.402 125.584ZM479.504 125.232C482.023 125.232 483.992 125.859 485.41 127.113C486.828 128.355 487.537 130.131 487.537 132.439V145.5H482.773L481.455 142.863H481.314C480.752 143.566 480.172 144.141 479.574 144.586C478.988 145.02 478.314 145.336 477.553 145.535C476.791 145.746 475.859 145.852 474.758 145.852C473.609 145.852 472.578 145.617 471.664 145.148C470.75 144.68 470.029 143.971 469.502 143.021C468.975 142.072 468.711 140.871 468.711 139.418C468.711 137.285 469.449 135.703 470.926 134.672C472.402 133.641 474.541 133.061 477.342 132.932L480.664 132.826V132.545C480.664 131.654 480.441 131.021 479.996 130.646C479.562 130.271 478.977 130.084 478.238 130.084C477.453 130.084 476.574 130.225 475.602 130.506C474.641 130.775 473.674 131.127 472.701 131.561L470.715 127.025C471.863 126.439 473.164 125.994 474.617 125.689C476.07 125.385 477.699 125.232 479.504 125.232ZM480.699 136.605L479.117 136.676C477.852 136.723 476.961 136.945 476.445 137.344C475.941 137.73 475.689 138.287 475.689 139.014C475.689 139.693 475.871 140.197 476.234 140.525C476.598 140.842 477.078 141 477.676 141C478.508 141 479.217 140.736 479.803 140.209C480.4 139.682 480.699 138.996 480.699 138.152V136.605ZM504.236 125.232C504.611 125.232 505.004 125.262 505.414 125.32C505.824 125.367 506.129 125.408 506.328 125.443L505.713 131.93C505.49 131.871 505.203 131.824 504.852 131.789C504.5 131.742 504.008 131.719 503.375 131.719C502.941 131.719 502.479 131.76 501.986 131.842C501.494 131.924 501.025 132.1 500.58 132.369C500.146 132.627 499.789 133.025 499.508 133.564C499.227 134.092 499.086 134.807 499.086 135.709V145.5H492.213V125.584H497.328L498.4 128.766H498.734C499.098 128.109 499.561 127.518 500.123 126.99C500.697 126.451 501.336 126.023 502.039 125.707C502.754 125.391 503.486 125.232 504.236 125.232ZM530.938 125.232C532.988 125.232 534.664 125.812 535.965 126.973C537.266 128.133 537.916 129.99 537.916 132.545V145.5H531.043V134.637C531.043 133.312 530.85 132.316 530.463 131.648C530.088 130.969 529.479 130.629 528.635 130.629C527.334 130.629 526.461 131.162 526.016 132.229C525.57 133.283 525.348 134.801 525.348 136.781V145.5H518.475V125.584H523.66L524.592 128.221H524.855C525.277 127.588 525.781 127.049 526.367 126.604C526.953 126.158 527.627 125.818 528.389 125.584C529.15 125.35 530 125.232 530.938 125.232ZM561.963 125.584V145.5H556.777L555.916 143.021H555.512C555.102 143.689 554.58 144.234 553.947 144.656C553.326 145.066 552.635 145.365 551.873 145.553C551.111 145.752 550.32 145.852 549.5 145.852C548.199 145.852 547.021 145.6 545.967 145.096C544.924 144.592 544.092 143.801 543.471 142.723C542.861 141.645 542.557 140.256 542.557 138.557V125.584H549.43V136.465C549.43 137.754 549.611 138.738 549.975 139.418C550.35 140.086 550.959 140.42 551.803 140.42C552.67 140.42 553.338 140.186 553.807 139.717C554.287 139.248 554.621 138.557 554.809 137.643C554.996 136.729 555.09 135.615 555.09 134.303V125.584H561.963ZM575.674 125.232C577.607 125.232 579.277 125.572 580.684 126.252C582.09 126.92 583.174 127.928 583.936 129.275C584.697 130.623 585.078 132.311 585.078 134.338V137.396H572.791C572.85 138.439 573.236 139.295 573.951 139.963C574.678 140.631 575.744 140.965 577.15 140.965C578.393 140.965 579.529 140.842 580.561 140.596C581.604 140.35 582.676 139.969 583.777 139.453V144.393C582.816 144.896 581.768 145.266 580.631 145.5C579.494 145.734 578.059 145.852 576.324 145.852C574.32 145.852 572.527 145.494 570.945 144.779C569.363 144.064 568.115 142.957 567.201 141.457C566.299 139.957 565.848 138.029 565.848 135.674C565.848 133.283 566.258 131.32 567.078 129.785C567.898 128.238 569.047 127.096 570.523 126.357C572 125.607 573.717 125.232 575.674 125.232ZM575.92 129.908C575.111 129.908 574.432 130.166 573.881 130.682C573.342 131.186 573.025 131.982 572.932 133.072H578.838C578.826 132.486 578.709 131.953 578.486 131.473C578.264 130.992 577.936 130.611 577.502 130.33C577.08 130.049 576.553 129.908 575.92 129.908ZM603.764 139.383C603.764 140.648 603.482 141.768 602.92 142.74C602.357 143.713 601.455 144.475 600.213 145.025C598.982 145.576 597.359 145.852 595.344 145.852C593.926 145.852 592.654 145.775 591.529 145.623C590.416 145.471 589.285 145.178 588.137 144.744V139.242C589.391 139.816 590.668 140.232 591.969 140.49C593.27 140.736 594.295 140.859 595.045 140.859C595.818 140.859 596.381 140.777 596.732 140.613C597.096 140.438 597.277 140.18 597.277 139.84C597.277 139.547 597.154 139.301 596.908 139.102C596.674 138.891 596.246 138.65 595.625 138.381C595.016 138.111 594.154 137.748 593.041 137.291C591.939 136.834 591.02 136.336 590.281 135.797C589.555 135.258 589.01 134.613 588.646 133.863C588.283 133.113 588.102 132.193 588.102 131.104C588.102 129.158 588.852 127.693 590.352 126.709C591.852 125.725 593.838 125.232 596.311 125.232C597.623 125.232 598.859 125.379 600.02 125.672C601.18 125.953 602.381 126.369 603.623 126.92L601.742 131.35C600.758 130.904 599.762 130.547 598.754 130.277C597.746 130.008 596.943 129.873 596.346 129.873C595.807 129.873 595.391 129.943 595.098 130.084C594.805 130.225 594.658 130.43 594.658 130.699C594.658 130.945 594.758 131.162 594.957 131.35C595.168 131.537 595.561 131.754 596.135 132C596.709 132.246 597.547 132.592 598.648 133.037C599.809 133.506 600.764 134.01 601.514 134.549C602.275 135.076 602.838 135.721 603.201 136.482C603.576 137.244 603.764 138.211 603.764 139.383ZM617.352 140.42C617.973 140.42 618.541 140.355 619.057 140.227C619.572 140.098 620.111 139.934 620.674 139.734V144.744C619.924 145.072 619.127 145.336 618.283 145.535C617.451 145.746 616.385 145.852 615.084 145.852C613.795 145.852 612.658 145.652 611.674 145.254C610.689 144.844 609.922 144.141 609.371 143.145C608.832 142.137 608.562 140.736 608.562 138.943V130.734H606.154V127.939L609.213 125.777L610.988 121.594H615.488V125.584H620.375V130.734H615.488V138.486C615.488 139.131 615.652 139.617 615.98 139.945C616.309 140.262 616.766 140.42 617.352 140.42ZM636.178 125.232C636.553 125.232 636.945 125.262 637.355 125.32C637.766 125.367 638.07 125.408 638.27 125.443L637.654 131.93C637.432 131.871 637.145 131.824 636.793 131.789C636.441 131.742 635.949 131.719 635.316 131.719C634.883 131.719 634.42 131.76 633.928 131.842C633.436 131.924 632.967 132.1 632.521 132.369C632.088 132.627 631.73 133.025 631.449 133.564C631.168 134.092 631.027 134.807 631.027 135.709V145.5H624.154V125.584H629.27L630.342 128.766H630.676C631.039 128.109 631.502 127.518 632.064 126.99C632.639 126.451 633.277 126.023 633.98 125.707C634.695 125.391 635.428 125.232 636.178 125.232ZM660.084 135.498C660.084 137.162 659.855 138.639 659.398 139.928C658.941 141.217 658.279 142.301 657.412 143.18C656.545 144.059 655.496 144.727 654.266 145.184C653.035 145.629 651.646 145.852 650.1 145.852C648.658 145.852 647.334 145.629 646.127 145.184C644.932 144.727 643.889 144.059 642.998 143.18C642.107 142.301 641.416 141.217 640.924 139.928C640.443 138.639 640.203 137.162 640.203 135.498C640.203 133.295 640.602 131.432 641.398 129.908C642.207 128.385 643.355 127.225 644.844 126.428C646.344 125.631 648.131 125.232 650.205 125.232C652.115 125.232 653.814 125.631 655.303 126.428C656.791 127.225 657.957 128.385 658.801 129.908C659.656 131.432 660.084 133.295 660.084 135.498ZM647.182 135.498C647.182 136.635 647.281 137.596 647.48 138.381C647.68 139.154 647.996 139.746 648.43 140.156C648.875 140.555 649.455 140.754 650.17 140.754C650.885 140.754 651.453 140.555 651.875 140.156C652.297 139.746 652.602 139.154 652.789 138.381C652.988 137.596 653.088 136.635 653.088 135.498C653.088 134.361 652.988 133.412 652.789 132.65C652.602 131.889 652.291 131.314 651.857 130.928C651.436 130.541 650.861 130.348 650.135 130.348C649.092 130.348 648.336 130.781 647.867 131.648C647.41 132.516 647.182 133.799 647.182 135.498ZM536.562 189.42C537.184 189.42 537.752 189.355 538.268 189.227C538.783 189.098 539.322 188.934 539.885 188.734V193.744C539.135 194.072 538.338 194.336 537.494 194.535C536.662 194.746 535.596 194.852 534.295 194.852C533.006 194.852 531.869 194.652 530.885 194.254C529.9 193.844 529.133 193.141 528.582 192.145C528.043 191.137 527.773 189.736 527.773 187.943V179.734H525.365V176.939L528.424 174.777L530.199 170.594H534.699V174.584H539.586V179.734H534.699V187.486C534.699 188.131 534.863 188.617 535.191 188.945C535.52 189.262 535.977 189.42 536.562 189.42ZM555.389 174.232C555.764 174.232 556.156 174.262 556.566 174.32C556.977 174.367 557.281 174.408 557.48 174.443L556.865 180.93C556.643 180.871 556.355 180.824 556.004 180.789C555.652 180.742 555.16 180.719 554.527 180.719C554.094 180.719 553.631 180.76 553.139 180.842C552.646 180.924 552.178 181.1 551.732 181.369C551.299 181.627 550.941 182.025 550.66 182.564C550.379 183.092 550.238 183.807 550.238 184.709V194.5H543.365V174.584H548.48L549.553 177.766H549.887C550.25 177.109 550.713 176.518 551.275 175.99C551.85 175.451 552.488 175.023 553.191 174.707C553.906 174.391 554.639 174.232 555.389 174.232ZM569.996 174.232C572.516 174.232 574.484 174.859 575.902 176.113C577.32 177.355 578.029 179.131 578.029 181.439V194.5H573.266L571.947 191.863H571.807C571.244 192.566 570.664 193.141 570.066 193.586C569.48 194.02 568.807 194.336 568.045 194.535C567.283 194.746 566.352 194.852 565.25 194.852C564.102 194.852 563.07 194.617 562.156 194.148C561.242 193.68 560.521 192.971 559.994 192.021C559.467 191.072 559.203 189.871 559.203 188.418C559.203 186.285 559.941 184.703 561.418 183.672C562.895 182.641 565.033 182.061 567.834 181.932L571.156 181.826V181.545C571.156 180.654 570.934 180.021 570.488 179.646C570.055 179.271 569.469 179.084 568.73 179.084C567.945 179.084 567.066 179.225 566.094 179.506C565.133 179.775 564.166 180.127 563.193 180.561L561.207 176.025C562.355 175.439 563.656 174.994 565.109 174.689C566.562 174.385 568.191 174.232 569.996 174.232ZM571.191 185.605L569.609 185.676C568.344 185.723 567.453 185.945 566.938 186.344C566.434 186.73 566.182 187.287 566.182 188.014C566.182 188.693 566.363 189.197 566.727 189.525C567.09 189.842 567.57 190 568.168 190C569 190 569.709 189.736 570.295 189.209C570.893 188.682 571.191 187.996 571.191 187.152V185.605ZM589.578 167.148V173.336C589.578 174.039 589.555 174.713 589.508 175.357C589.461 175.99 589.402 176.588 589.332 177.15H589.578C590.094 176.342 590.768 175.656 591.6 175.094C592.432 174.52 593.521 174.232 594.869 174.232C596.943 174.232 598.637 175.111 599.949 176.869C601.273 178.627 601.936 181.17 601.936 184.498C601.936 186.76 601.631 188.664 601.021 190.211C600.412 191.746 599.557 192.906 598.455 193.691C597.365 194.465 596.1 194.852 594.658 194.852C593.252 194.852 592.18 194.611 591.441 194.131C590.715 193.639 590.094 193.111 589.578 192.549H589.156L588.066 194.5H582.705V167.148H589.578ZM592.355 179.629C591.723 179.629 591.201 179.775 590.791 180.068C590.381 180.361 590.076 180.818 589.877 181.439C589.678 182.049 589.578 182.828 589.578 183.777V184.744C589.578 186.291 589.783 187.439 590.193 188.189C590.615 188.939 591.359 189.314 592.426 189.314C593.234 189.314 593.855 188.898 594.289 188.066C594.723 187.234 594.939 186.021 594.939 184.428C594.939 182.834 594.729 181.639 594.307 180.842C593.885 180.033 593.234 179.629 592.355 179.629ZM615.594 174.232C618.113 174.232 620.082 174.859 621.5 176.113C622.918 177.355 623.627 179.131 623.627 181.439V194.5H618.863L617.545 191.863H617.404C616.842 192.566 616.262 193.141 615.664 193.586C615.078 194.02 614.404 194.336 613.643 194.535C612.881 194.746 611.949 194.852 610.848 194.852C609.699 194.852 608.668 194.617 607.754 194.148C606.84 193.68 606.119 192.971 605.592 192.021C605.064 191.072 604.801 189.871 604.801 188.418C604.801 186.285 605.539 184.703 607.016 183.672C608.492 182.641 610.631 182.061 613.432 181.932L616.754 181.826V181.545C616.754 180.654 616.531 180.021 616.086 179.646C615.652 179.271 615.066 179.084 614.328 179.084C613.543 179.084 612.664 179.225 611.691 179.506C610.73 179.775 609.764 180.127 608.791 180.561L606.805 176.025C607.953 175.439 609.254 174.994 610.707 174.689C612.16 174.385 613.789 174.232 615.594 174.232ZM616.789 185.605L615.207 185.676C613.941 185.723 613.051 185.945 612.535 186.344C612.031 186.73 611.779 187.287 611.779 188.014C611.779 188.693 611.961 189.197 612.324 189.525C612.688 189.842 613.168 190 613.766 190C614.598 190 615.307 189.736 615.893 189.209C616.49 188.682 616.789 187.996 616.789 187.152V185.605ZM627.793 203.148C627.242 203.148 626.609 203.102 625.895 203.008C625.168 202.926 624.57 202.826 624.102 202.709V197.348C624.477 197.453 624.822 197.529 625.139 197.576C625.455 197.635 625.812 197.664 626.211 197.664C626.773 197.664 627.26 197.465 627.67 197.066C628.092 196.68 628.303 195.883 628.303 194.676V174.584H635.176V196.117C635.176 197.312 634.941 198.443 634.473 199.51C634.004 200.588 633.23 201.461 632.152 202.129C631.074 202.809 629.621 203.148 627.793 203.148ZM628.127 169.627C628.127 168.408 628.479 167.594 629.182 167.184C629.896 166.773 630.758 166.568 631.766 166.568C632.75 166.568 633.605 166.773 634.332 167.184C635.07 167.594 635.439 168.408 635.439 169.627C635.439 170.811 635.07 171.613 634.332 172.035C633.605 172.445 632.75 172.65 631.766 172.65C630.758 172.65 629.896 172.445 629.182 172.035C628.479 171.613 628.127 170.811 628.127 169.627ZM658.994 184.498C658.994 186.162 658.766 187.639 658.309 188.928C657.852 190.217 657.189 191.301 656.322 192.18C655.455 193.059 654.406 193.727 653.176 194.184C651.945 194.629 650.557 194.852 649.01 194.852C647.568 194.852 646.244 194.629 645.037 194.184C643.842 193.727 642.799 193.059 641.908 192.18C641.018 191.301 640.326 190.217 639.834 188.928C639.354 187.639 639.113 186.162 639.113 184.498C639.113 182.295 639.512 180.432 640.309 178.908C641.117 177.385 642.266 176.225 643.754 175.428C645.254 174.631 647.041 174.232 649.115 174.232C651.025 174.232 652.725 174.631 654.213 175.428C655.701 176.225 656.867 177.385 657.711 178.908C658.566 180.432 658.994 182.295 658.994 184.498ZM646.092 184.498C646.092 185.635 646.191 186.596 646.391 187.381C646.59 188.154 646.906 188.746 647.34 189.156C647.785 189.555 648.365 189.754 649.08 189.754C649.795 189.754 650.363 189.555 650.785 189.156C651.207 188.746 651.512 188.154 651.699 187.381C651.898 186.596 651.998 185.635 651.998 184.498C651.998 183.361 651.898 182.412 651.699 181.65C651.512 180.889 651.201 180.314 650.768 179.928C650.346 179.541 649.771 179.348 649.045 179.348C648.002 179.348 647.246 179.781 646.777 180.648C646.32 181.516 646.092 182.799 646.092 184.498ZM668.697 185.43H662.896L662 168.801H669.594L668.697 185.43ZM662.07 191.582C662.07 190.34 662.434 189.467 663.16 188.963C663.898 188.459 664.771 188.207 665.779 188.207C666.775 188.207 667.631 188.459 668.346 188.963C669.061 189.467 669.418 190.34 669.418 191.582C669.418 192.766 669.061 193.621 668.346 194.148C667.631 194.676 666.775 194.939 665.779 194.939C664.771 194.939 663.898 194.676 663.16 194.148C662.434 193.621 662.07 192.766 662.07 191.582Z" fill="#473245"/>
</svg>
