<svg width="712" height="252" viewBox="0 0 712 252" fill="none" xmlns="http://www.w3.org/2000/svg">
<path d="M712.5 0.5L594.868 0.503662L348.5 0.5L239.723 90.3227V136.83L417.296 252H712.5V0.5Z" fill="#1E0F1C"/>
<path d="M112.903 86.0024C112.903 86.0811 112.903 86.1598 112.942 86.1991L112.903 86.0024Z" fill="#464646"/>
<path d="M100.498 91.0368C100.498 90.9581 100.537 90.8794 100.537 90.8008L100.498 91.0368Z" fill="#464646"/>
<path d="M113.415 90.6826C113.415 90.8006 113.415 90.9186 113.454 90.9973L113.415 90.6826Z" fill="#464646"/>
<path d="M61.4329 89.5029H94.5908L95.0634 86.9465H60.1727C55.7621 86.9465 52.1392 90.5255 52.1392 94.9697V105.51L54.6989 103.74V96.2676C54.6989 92.492 57.6917 89.5029 61.4329 89.5029Z" fill="#473245"/>
<path d="M52.1392 116.365V136.226C52.1392 136.816 52.6905 137.288 53.3993 137.288C54.1082 137.288 54.6595 136.816 54.6595 136.226V114.084C53.675 114.87 52.7692 115.736 52.1392 116.365Z" fill="#473245"/>
<path d="M240.573 90.9974C239.391 90.2501 237.974 90.3288 236.91 91.1547L217.181 108.814V94.9303C217.181 90.5254 213.597 86.9071 209.147 86.9071H118.928L119.243 89.4635H207.887C211.628 89.4635 214.621 92.4919 214.621 96.1889V111.134C214.621 111.606 214.858 112.039 215.291 112.235C215.685 112.471 216.196 112.432 216.59 112.196L238.328 93.2391C238.367 93.1998 238.407 93.1605 238.446 93.1605C238.682 92.9638 238.958 93.0032 239.076 93.0818C239.194 93.1212 239.391 93.2785 239.391 93.5931V134.024C239.391 134.299 239.234 134.456 239.116 134.535C238.998 134.614 238.801 134.692 238.564 134.574L225.293 127.967C225.293 127.967 223.442 127.062 220.095 125.489C214.07 122.658 210.998 121.517 204.382 122.225C202.098 122.461 199.696 122.776 197.294 123.09C193.002 123.641 188.591 124.191 184.889 124.349C173.587 125.096 168.665 121.635 164.727 118.843C162.246 117.073 160.08 115.539 157.008 115.657C152.637 115.814 150.786 120.534 149.132 124.703C147.715 128.36 146.376 131.782 143.895 131.979C143.855 131.979 143.816 131.979 143.698 131.9C141.808 130.248 141.256 120.494 140.862 113.376C140.232 102.246 139.76 95.8742 137.003 94.6943C136.334 94.419 135.31 94.301 134.089 95.3236C130.466 98.3126 129.994 107.162 129.482 116.522C128.93 126.315 128.34 137.406 123.929 138.547C122.669 138.861 121.724 138.743 120.936 138.153C117.549 135.597 117.353 125.057 117.156 115.736C117.077 112.55 117.038 109.286 116.841 106.218C116.762 104.605 116.644 102.954 116.565 101.302C116.368 97.644 116.171 94.0651 115.896 90.7221L115.423 86.2778C114.635 80.2604 113.336 75.4622 110.697 73.1025C109.477 72.0012 107.98 71.4899 106.366 71.6079C102.309 71.8439 100.222 77.9006 98.6077 86.3565L97.7019 91.666C97.3869 93.7504 97.0718 95.8742 96.7174 98.0373C95.4179 106.808 94.1183 115.893 91.7949 120.023C89.314 124.467 87.5025 126.394 85.7304 126.512C83.0919 126.669 79.3115 123.051 72.9713 114.359C68.6395 108.42 64.6227 105.392 60.6453 105.117C60.409 105.117 60.2121 105.077 60.0152 105.077C58.125 105.077 56.3529 105.707 54.7383 106.65C54.3051 106.926 53.0843 107.712 51.9817 108.656C50.8397 109.6 49.7764 110.662 48.7132 111.763C47.0198 113.494 42.6486 118.331 41.2309 120.141C37.4898 124.113 33.5518 127.062 16.9335 129.265C16.2246 129.344 15.7521 130.012 15.8308 130.681C15.9096 131.389 16.5397 131.861 17.2485 131.782C33.158 129.698 38.435 126.787 43.1606 121.792C44.5783 119.983 48.9101 115.185 50.5246 113.533C50.7609 113.297 50.9578 113.101 51.1941 112.904C51.3122 112.786 51.5091 112.589 51.6667 112.432C51.7848 112.314 52.0211 112.078 52.0211 112.078C52.9662 111.213 54.1476 110.229 54.5808 109.876C54.6202 109.836 54.6595 109.836 54.6989 109.797L54.7383 109.758C56.7073 108.302 58.5188 107.516 60.4878 107.673C63.6382 107.909 67.0643 110.583 70.9235 115.893C78.0907 125.725 82.1468 129.304 85.8879 129.068C89.1564 128.872 91.4799 125.804 94.0396 121.281C96.5599 116.758 97.8988 107.83 99.2771 98.4306C99.6315 96.1102 99.986 93.5538 100.419 91.0367L100.459 90.8007C100.537 90.3681 100.616 89.9355 100.655 89.5028L101.089 86.9464C102.388 80.1031 104.081 74.2823 106.484 74.125C107.429 74.0857 108.216 74.3217 108.965 74.9903C110.934 76.7601 112.076 80.929 112.784 86.0025L112.824 86.1992C112.863 86.4351 112.903 86.6711 112.942 86.9071H112.903L113.178 89.4635H113.218C113.257 89.8568 113.296 90.2501 113.336 90.6827L113.375 90.9974C113.651 94.3797 113.848 97.9587 114.045 101.42C114.123 103.072 114.202 104.723 114.32 106.336C114.517 109.325 114.557 112.589 114.635 115.736C114.872 126.591 115.069 136.816 119.44 140.12C120.385 140.828 121.487 141.221 122.748 141.221C123.338 141.221 123.968 141.142 124.598 140.985C130.781 139.373 131.411 128.321 132.041 116.64C132.474 108.617 132.986 99.5319 135.743 97.2508C135.94 97.0934 136.058 97.0541 136.058 97.0148C137.476 98.0373 138.027 107.319 138.382 113.494C139.012 124.663 139.563 131.585 142.083 133.788C142.674 134.299 143.422 134.574 144.17 134.496C148.266 134.181 149.959 129.816 151.613 125.607C153.07 121.832 154.488 118.253 157.205 118.174C159.41 118.095 161.064 119.275 163.348 120.888C167.365 123.719 172.878 127.652 185.047 126.866C188.788 126.748 193.277 126.158 197.648 125.607C200.011 125.293 202.413 124.978 204.697 124.742C210.841 124.113 213.44 125.175 219.032 127.77C222.34 129.304 224.191 130.209 224.191 130.209L237.304 136.738C238.171 137.17 239.194 137.288 240.1 136.895C241.282 136.384 241.99 135.282 241.99 134.024V93.7504C241.951 92.6885 241.478 91.6266 240.573 90.9974Z" fill="#473245"/>
<path d="M54.817 109.758L54.8564 109.718L54.817 109.758Z" fill="#464646"/>
<path d="M20.3202 190.344H23.6675C25.5577 190.344 26.8573 190.422 27.5267 190.579C28.4719 190.815 29.2595 191.287 29.8502 191.995C30.4409 192.703 30.7559 193.608 30.7559 194.67C30.7559 195.732 30.4409 196.636 29.8502 197.344C29.2595 198.052 28.4325 198.524 27.4086 198.76C26.6604 198.917 25.2427 199.035 23.1556 199.035H21.9742V206.547H20.3202V190.344ZM21.9742 191.917V197.423L24.8095 197.462C25.9515 197.462 26.7785 197.344 27.3298 197.148C27.8418 196.951 28.275 196.636 28.59 196.164C28.905 195.732 29.0626 195.22 29.0626 194.67C29.0626 194.119 28.905 193.647 28.59 193.175C28.275 192.743 27.8812 192.389 27.4086 192.231C26.8967 192.035 26.1091 191.956 24.967 191.956H21.9742V191.917Z" fill="#473245"/>
<path d="M42.0186 190.344H45.3659C47.2167 190.344 48.4769 190.422 49.1463 190.579C50.1308 190.815 50.9578 191.287 51.5485 191.995C52.1786 192.703 52.4936 193.608 52.4936 194.67C52.4936 195.535 52.2967 196.322 51.8636 196.99C51.4304 197.659 50.8397 198.17 50.0127 198.524C49.2251 198.878 48.1225 199.035 46.7048 199.035L52.7299 206.547H50.6822L44.657 199.035H43.7119V206.547H42.0579V190.344H42.0186ZM43.6725 191.917V197.423L46.5473 197.462C47.6499 197.462 48.4769 197.344 49.0282 197.148C49.5795 196.951 49.9733 196.597 50.2884 196.164C50.6034 195.732 50.7215 195.22 50.7215 194.67C50.7215 194.119 50.564 193.647 50.249 193.175C49.9339 192.743 49.5401 192.428 49.0676 192.231C48.5556 192.035 47.768 191.956 46.626 191.956H43.6725V191.917Z" fill="#473245"/>
<path d="M71.7899 189.911C74.3102 189.911 76.4367 190.737 78.1301 192.349C79.8234 194.001 80.6898 196.007 80.6898 198.406C80.6898 200.766 79.8234 202.772 78.1301 204.423C76.4367 206.075 74.3496 206.901 71.908 206.901C69.4271 206.901 67.34 206.075 65.6466 204.423C63.9533 202.772 63.0869 200.805 63.0869 198.445C63.0869 196.872 63.4807 195.456 64.2683 194.119C65.0559 192.782 66.1192 191.759 67.4581 191.012C68.797 190.304 70.2541 189.911 71.7899 189.911ZM71.8687 191.484C70.6479 191.484 69.4665 191.799 68.3638 192.428C67.2612 193.057 66.3948 193.883 65.7648 194.945C65.1347 196.007 64.8196 197.187 64.8196 198.485C64.8196 200.412 65.5285 202.024 66.8674 203.362C68.2457 204.699 69.8997 205.367 71.8293 205.367C73.1288 205.367 74.3102 205.053 75.4129 204.463C76.5155 203.873 77.3819 203.008 78.0119 201.946C78.642 200.884 78.9571 199.704 78.9571 198.406C78.9571 197.108 78.642 195.968 78.0119 194.906C77.3819 193.883 76.5155 193.018 75.4129 192.428C74.3496 191.799 73.1288 191.484 71.8687 191.484Z" fill="#473245"/>
<path d="M117.077 190.344H118.731V200.097C118.731 201.238 118.77 201.985 118.81 202.26C118.888 202.89 119.085 203.44 119.4 203.873C119.715 204.305 120.188 204.659 120.779 204.935C121.409 205.21 122.039 205.367 122.669 205.367C123.22 205.367 123.772 205.249 124.244 205.013C124.756 204.777 125.189 204.463 125.504 204.07C125.859 203.676 126.095 203.165 126.252 202.614C126.371 202.221 126.41 201.356 126.41 200.097V190.344H128.064V200.097C128.064 201.552 127.906 202.693 127.631 203.598C127.355 204.502 126.764 205.249 125.898 205.918C125.032 206.587 123.968 206.901 122.708 206.901C121.369 206.901 120.188 206.587 119.243 205.957C118.298 205.328 117.628 204.502 117.313 203.48C117.116 202.85 116.998 201.71 116.998 200.058V190.344H117.077Z" fill="#473245"/>
<path d="M155.63 193.333L154.33 194.316C153.622 193.411 152.716 192.703 151.692 192.231C150.668 191.759 149.565 191.523 148.345 191.523C147.006 191.523 145.785 191.838 144.643 192.467C143.501 193.097 142.635 193.922 142.005 194.984C141.374 196.046 141.059 197.187 141.059 198.524C141.059 200.49 141.768 202.142 143.147 203.48C144.525 204.817 146.297 205.446 148.423 205.446C150.747 205.446 152.716 204.541 154.291 202.772L155.591 203.755C154.764 204.777 153.7 205.564 152.48 206.154C151.219 206.705 149.841 206.98 148.305 206.98C145.391 206.98 143.068 206.036 141.374 204.148C139.957 202.575 139.248 200.648 139.248 198.367C139.248 196.007 140.114 194.001 141.808 192.389C143.54 190.776 145.667 189.95 148.266 189.95C149.841 189.95 151.219 190.265 152.48 190.855C153.779 191.405 154.842 192.271 155.63 193.333Z" fill="#473245"/>
<path d="M165.121 191.917V190.344H174.296V191.917H170.555V206.508H168.862V191.917H165.121Z" fill="#473245"/>
<path d="M185.48 190.344H187.134V206.508H185.48V190.344Z" fill="#473245"/>
<path d="M206.745 189.911C209.266 189.911 211.392 190.737 213.086 192.349C214.779 194.001 215.645 196.007 215.645 198.406C215.645 200.766 214.779 202.772 213.086 204.423C211.392 206.075 209.305 206.901 206.863 206.901C204.383 206.901 202.295 206.075 200.602 204.423C198.909 202.772 198.042 200.805 198.042 198.445C198.042 196.872 198.436 195.456 199.224 194.119C200.011 192.782 201.075 191.759 202.414 191.012C203.752 190.304 205.17 189.911 206.745 189.911ZM206.824 191.484C205.603 191.484 204.422 191.799 203.319 192.428C202.217 193.057 201.35 193.883 200.72 194.945C200.09 196.007 199.775 197.187 199.775 198.485C199.775 200.412 200.484 202.024 201.823 203.362C203.201 204.699 204.855 205.367 206.785 205.367C208.084 205.367 209.266 205.053 210.368 204.463C211.471 203.873 212.337 203.008 212.967 201.946C213.597 200.884 213.913 199.704 213.913 198.406C213.913 197.108 213.597 195.968 212.967 194.906C212.337 193.883 211.471 193.018 210.368 192.428C209.266 191.799 208.084 191.484 206.824 191.484Z" fill="#473245"/>
<path d="M226.829 206.508V190.344H227.184L238.328 202.732V190.344H239.982V206.508H239.588L228.562 194.237V206.508H226.829Z" fill="#473245"/>
<path d="M250.142 203.519L251.56 202.693C252.544 204.463 253.726 205.367 255.025 205.367C255.577 205.367 256.128 205.249 256.6 204.974C257.073 204.738 257.467 204.384 257.742 203.952C258.018 203.519 258.136 203.086 258.136 202.614C258.136 202.064 257.939 201.552 257.585 201.002C257.073 200.294 256.128 199.429 254.71 198.406C253.332 197.383 252.465 196.636 252.111 196.204C251.52 195.456 251.205 194.63 251.205 193.726C251.205 193.018 251.363 192.389 251.717 191.799C252.072 191.209 252.544 190.776 253.174 190.422C253.804 190.068 254.474 189.911 255.222 189.911C256.01 189.911 256.758 190.108 257.427 190.461C258.097 190.855 258.845 191.523 259.593 192.546L258.215 193.529C257.585 192.703 257.034 192.192 256.6 191.917C256.167 191.641 255.655 191.523 255.143 191.523C254.474 191.523 253.923 191.72 253.489 192.113C253.056 192.507 252.859 192.979 252.859 193.569C252.859 193.922 252.938 194.276 253.096 194.591C253.253 194.906 253.529 195.299 253.923 195.653C254.159 195.85 254.868 196.4 256.088 197.266C257.546 198.288 258.53 199.232 259.081 200.019C259.633 200.844 259.869 201.631 259.869 202.457C259.869 203.637 259.396 204.659 258.491 205.525C257.585 206.39 256.443 206.823 255.143 206.823C254.119 206.823 253.214 206.547 252.387 206.036C251.599 205.603 250.812 204.738 250.142 203.519Z" fill="#473245"/>
<path d="M92.0312 190.068L107.035 195.968C108.295 196.479 108.413 198.091 107.232 198.721L92.2281 206.665C91.1254 207.255 89.7078 206.508 89.7078 205.328V191.484C89.7078 190.383 90.9285 189.636 92.0312 190.068Z" fill="#473245"/>
<path d="M23.3525 167.179C23.3525 171.387 26.7785 172.999 30.7165 172.999C33.2762 172.999 37.1749 172.292 37.1749 169.066C37.1749 165.645 32.1342 165.134 27.3299 163.875C22.4073 162.734 17.4061 160.729 17.4061 154.908C17.4061 148.419 23.825 145.39 29.8108 145.39C36.7417 145.39 43.1212 148.261 43.1212 155.537H36.0328C35.7966 151.801 33.0006 150.778 29.4564 150.778C27.133 150.778 24.4157 151.722 24.4157 154.357C24.4157 156.796 25.9909 157.15 34.3395 159.116C36.8204 159.627 44.1845 161.201 44.1845 168.28C44.1845 174.061 39.4589 178.388 30.3621 178.388C22.998 178.388 16.0672 174.966 16.2247 167.179H23.3525Z" fill="#473245"/>
<path d="M48.5951 146.137H55.8804V158.212H69.309V146.137H76.5943V177.64H69.309V164.072H55.8804V177.64H48.5951V146.137Z" fill="#473245"/>
<path d="M92.11 146.137H99.5922L111.997 177.64H104.397L101.876 170.64H89.4715L86.8724 177.64H79.469L92.11 146.137ZM91.4011 165.488H100.025L95.8511 153.925H95.7723L91.4011 165.488Z" fill="#473245"/>
<path d="M114.911 146.137H122.157L136.019 167.257H136.097V146.137H142.95V177.64H135.664L121.842 156.56H121.763V177.64H114.911V146.137Z" fill="#473245"/>
<path d="M149.369 146.137H174.217V151.958H156.693V158.723H172.8V164.111H156.693V171.82H174.611V177.64H149.408V146.137H149.369Z" fill="#473245"/>
<path d="M179.534 146.137H186.819V171.82H203.004V177.64H179.534V146.137Z" fill="#473245"/>
<path d="M207.1 146.137H214.385V171.82H230.57V177.64H207.1V146.137Z" fill="#473245"/>
<path d="M234.666 146.137H259.515V151.958H241.99V158.723H258.097V164.111H241.99V171.82H259.908V177.64H234.705V146.137H234.666Z" fill="#473245"/>
<path d="M412.963 97H406.02V76.9785H399.744V71.3008H419.221V76.9785H412.963V97ZM435.023 97V86.1367C435.023 83.4648 434.232 82.1289 432.65 82.1289C431.525 82.1289 430.693 82.6035 430.154 83.5527C429.627 84.4902 429.363 86.0547 429.363 88.2461V97H422.49V69.6484H429.363V73.5332C429.363 75.291 429.27 77.2949 429.082 79.5449H429.398C430.055 78.5137 430.834 77.7871 431.736 77.3652C432.639 76.9434 433.688 76.7324 434.883 76.7324C437.109 76.7324 438.838 77.377 440.068 78.666C441.311 79.9434 441.932 81.7363 441.932 84.0449V97H435.023ZM459.598 97L458.279 94.3633H458.139C457.213 95.5117 456.27 96.2969 455.309 96.7188C454.348 97.1406 453.105 97.3516 451.582 97.3516C449.707 97.3516 448.23 96.7891 447.152 95.6641C446.074 94.5391 445.535 92.957 445.535 90.918C445.535 88.7969 446.273 87.2207 447.75 86.1895C449.227 85.1465 451.365 84.5605 454.166 84.4316L457.488 84.3262V84.0449C457.488 82.4043 456.68 81.584 455.062 81.584C453.609 81.584 451.764 82.0762 449.525 83.0605L447.539 78.5254C449.859 77.3301 452.789 76.7324 456.328 76.7324C458.883 76.7324 460.857 77.3652 462.252 78.6309C463.658 79.8965 464.361 81.666 464.361 83.9395V97H459.598ZM454.5 92.5C455.332 92.5 456.041 92.2363 456.627 91.709C457.225 91.1816 457.523 90.4961 457.523 89.6523V88.1055L455.941 88.1758C453.68 88.2578 452.549 89.0898 452.549 90.6719C452.549 91.8906 453.199 92.5 454.5 92.5ZM481.605 97V86.1367C481.605 84.8125 481.412 83.8164 481.025 83.1484C480.65 82.4688 480.041 82.1289 479.197 82.1289C478.037 82.1289 477.199 82.5918 476.684 83.5176C476.168 84.4434 475.91 86.0312 475.91 88.2812V97H469.037V77.084H474.223L475.084 79.5449H475.488C476.074 78.6074 476.883 77.9043 477.914 77.4355C478.957 76.9668 480.152 76.7324 481.5 76.7324C483.703 76.7324 485.414 77.3711 486.633 78.6484C487.863 79.9258 488.479 81.7246 488.479 84.0449V97H481.605ZM499.816 85.8027C500.648 84.4785 501.357 83.4473 501.943 82.709L506.408 77.084H514.072L507.164 85.5566L514.512 97H506.654L502.295 89.8633L500.062 91.5684V97H493.154V69.6484H500.062V80.4062C500.062 82.2461 499.934 84.0449 499.676 85.8027H499.816ZM523.828 77.084H531.07L534.445 88.5098C534.609 89.1074 534.721 89.8281 534.779 90.6719H534.92C535.014 89.8633 535.154 89.1543 535.342 88.5449L538.805 77.084H545.818L537.943 98.2656C536.936 100.961 535.693 102.865 534.217 103.979C532.752 105.092 530.836 105.648 528.469 105.648C527.555 105.648 526.617 105.549 525.656 105.35V99.9531C526.277 100.094 526.986 100.164 527.783 100.164C528.393 100.164 528.926 100.047 529.383 99.8125C529.84 99.5781 530.238 99.2441 530.578 98.8105C530.918 98.3887 531.281 97.6914 531.668 96.7188L523.828 77.084ZM567.229 86.998C567.229 90.2559 566.35 92.7988 564.592 94.627C562.846 96.4434 560.396 97.3516 557.244 97.3516C554.221 97.3516 551.812 96.4199 550.02 94.5566C548.238 92.6934 547.348 90.1738 547.348 86.998C547.348 83.752 548.221 81.2324 549.967 79.4395C551.725 77.6348 554.186 76.7324 557.35 76.7324C559.307 76.7324 561.035 77.1484 562.535 77.9805C564.035 78.8125 565.189 80.0078 565.998 81.5664C566.818 83.1133 567.229 84.9238 567.229 86.998ZM554.326 86.998C554.326 88.709 554.555 90.0156 555.012 90.918C555.469 91.8086 556.236 92.2539 557.314 92.2539C558.381 92.2539 559.131 91.8086 559.564 90.918C560.01 90.0156 560.232 88.709 560.232 86.998C560.232 85.2988 560.01 84.0156 559.564 83.1484C559.119 82.2812 558.357 81.8477 557.279 81.8477C556.225 81.8477 555.469 82.2812 555.012 83.1484C554.555 84.0039 554.326 85.2871 554.326 86.998ZM585.352 97L584.49 94.5215H584.086C583.512 95.4355 582.709 96.1387 581.678 96.6309C580.658 97.1113 579.457 97.3516 578.074 97.3516C575.883 97.3516 574.178 96.7188 572.959 95.4531C571.74 94.1758 571.131 92.377 571.131 90.0566V77.084H578.004V87.9648C578.004 89.2656 578.186 90.25 578.549 90.918C578.924 91.5859 579.533 91.9199 580.377 91.9199C581.561 91.9199 582.404 91.457 582.908 90.5312C583.412 89.5938 583.664 88.0176 583.664 85.8027V77.084H590.537V97H585.352ZM616.799 82.2344H612.562V97H605.689V82.2344H603.053V78.8594L605.83 77.1719V76.8379C605.83 74.2129 606.363 72.3262 607.43 71.1777C608.508 70.0293 610.23 69.4551 612.598 69.4551C613.512 69.4551 614.373 69.5254 615.182 69.666C616.002 69.8066 616.951 70.0527 618.029 70.4043L616.553 74.8516C615.709 74.6172 614.883 74.5 614.074 74.5C613.547 74.5 613.16 74.6641 612.914 74.9922C612.68 75.3086 612.562 75.8301 612.562 76.5566V77.084H616.799V82.2344ZM638.525 86.998C638.525 90.2559 637.646 92.7988 635.889 94.627C634.143 96.4434 631.693 97.3516 628.541 97.3516C625.518 97.3516 623.109 96.4199 621.316 94.5566C619.535 92.6934 618.645 90.1738 618.645 86.998C618.645 83.752 619.518 81.2324 621.264 79.4395C623.021 77.6348 625.482 76.7324 628.646 76.7324C630.604 76.7324 632.332 77.1484 633.832 77.9805C635.332 78.8125 636.486 80.0078 637.295 81.5664C638.115 83.1133 638.525 84.9238 638.525 86.998ZM625.623 86.998C625.623 88.709 625.852 90.0156 626.309 90.918C626.766 91.8086 627.533 92.2539 628.611 92.2539C629.678 92.2539 630.428 91.8086 630.861 90.918C631.307 90.0156 631.529 88.709 631.529 86.998C631.529 85.2988 631.307 84.0156 630.861 83.1484C630.416 82.2812 629.654 81.8477 628.576 81.8477C627.521 81.8477 626.766 82.2812 626.309 83.1484C625.852 84.0039 625.623 85.2871 625.623 86.998ZM654.486 76.7324C655.084 76.7324 655.652 76.7793 656.191 76.873L656.578 76.9434L655.963 83.4297C655.4 83.2891 654.621 83.2188 653.625 83.2188C652.125 83.2188 651.035 83.5645 650.355 84.2559C649.676 84.9355 649.336 85.9199 649.336 87.209V97H642.463V77.084H647.578L648.65 80.2656H648.984C649.559 79.2109 650.355 78.3613 651.375 77.7168C652.406 77.0605 653.443 76.7324 654.486 76.7324ZM397.688 139.883C397.688 142.016 396.961 143.627 395.508 144.717C394.055 145.807 391.969 146.352 389.25 146.352C387.773 146.352 386.49 146.27 385.4 146.105C384.311 145.953 383.197 145.666 382.061 145.244V139.742C383.127 140.211 384.293 140.598 385.559 140.902C386.836 141.207 387.973 141.359 388.969 141.359C390.457 141.359 391.201 141.02 391.201 140.34C391.201 139.988 390.99 139.678 390.568 139.408C390.158 139.127 388.951 138.588 386.947 137.791C385.119 137.041 383.842 136.191 383.115 135.242C382.389 134.281 382.025 133.068 382.025 131.604C382.025 129.752 382.74 128.311 384.17 127.279C385.6 126.248 387.621 125.732 390.234 125.732C391.547 125.732 392.777 125.879 393.926 126.172C395.086 126.453 396.287 126.869 397.529 127.42L395.666 131.85C394.752 131.439 393.785 131.094 392.766 130.812C391.746 130.52 390.914 130.373 390.27 130.373C389.145 130.373 388.582 130.648 388.582 131.199C388.582 131.539 388.775 131.832 389.162 132.078C389.561 132.312 390.697 132.799 392.572 133.537C393.967 134.111 395.004 134.674 395.684 135.225C396.375 135.775 396.879 136.426 397.195 137.176C397.523 137.914 397.688 138.816 397.688 139.883ZM415.688 146L414.826 143.521H414.422C413.848 144.436 413.045 145.139 412.014 145.631C410.994 146.111 409.793 146.352 408.41 146.352C406.219 146.352 404.514 145.719 403.295 144.453C402.076 143.176 401.467 141.377 401.467 139.057V126.084H408.34V136.965C408.34 138.266 408.521 139.25 408.885 139.918C409.26 140.586 409.869 140.92 410.713 140.92C411.896 140.92 412.74 140.457 413.244 139.531C413.748 138.594 414 137.018 414 134.803V126.084H420.873V146H415.688ZM437.572 146.352C436.564 146.352 435.662 146.188 434.865 145.859C434.068 145.52 433.277 144.916 432.492 144.049H432.176C432.387 145.443 432.492 146.311 432.492 146.65V154.648H425.619V126.084H431.209L432.176 128.615H432.492C433.77 126.693 435.533 125.732 437.783 125.732C439.986 125.732 441.715 126.646 442.969 128.475C444.223 130.303 444.85 132.811 444.85 135.998C444.85 139.209 444.193 141.74 442.881 143.592C441.58 145.432 439.811 146.352 437.572 146.352ZM435.27 131.129C434.262 131.129 433.553 131.492 433.143 132.219C432.744 132.934 432.527 134 432.492 135.418V135.963C432.492 137.674 432.721 138.91 433.178 139.672C433.635 140.434 434.355 140.814 435.34 140.814C436.219 140.814 436.857 140.439 437.256 139.689C437.654 138.928 437.854 137.674 437.854 135.928C437.854 134.217 437.654 132.992 437.256 132.254C436.857 131.504 436.195 131.129 435.27 131.129ZM460.74 146.352C459.732 146.352 458.83 146.188 458.033 145.859C457.236 145.52 456.445 144.916 455.66 144.049H455.344C455.555 145.443 455.66 146.311 455.66 146.65V154.648H448.787V126.084H454.377L455.344 128.615H455.66C456.938 126.693 458.701 125.732 460.951 125.732C463.154 125.732 464.883 126.646 466.137 128.475C467.391 130.303 468.018 132.811 468.018 135.998C468.018 139.209 467.361 141.74 466.049 143.592C464.748 145.432 462.979 146.352 460.74 146.352ZM458.438 131.129C457.43 131.129 456.721 131.492 456.311 132.219C455.912 132.934 455.695 134 455.66 135.418V135.963C455.66 137.674 455.889 138.91 456.346 139.672C456.803 140.434 457.523 140.814 458.508 140.814C459.387 140.814 460.025 140.439 460.424 139.689C460.822 138.928 461.021 137.674 461.021 135.928C461.021 134.217 460.822 132.992 460.424 132.254C460.025 131.504 459.363 131.129 458.438 131.129ZM490.975 135.998C490.975 139.256 490.096 141.799 488.338 143.627C486.592 145.443 484.143 146.352 480.99 146.352C477.967 146.352 475.559 145.42 473.766 143.557C471.984 141.693 471.094 139.174 471.094 135.998C471.094 132.752 471.967 130.232 473.713 128.439C475.471 126.635 477.932 125.732 481.096 125.732C483.053 125.732 484.781 126.148 486.281 126.98C487.781 127.812 488.936 129.008 489.744 130.566C490.564 132.113 490.975 133.924 490.975 135.998ZM478.072 135.998C478.072 137.709 478.301 139.016 478.758 139.918C479.215 140.809 479.982 141.254 481.061 141.254C482.127 141.254 482.877 140.809 483.311 139.918C483.756 139.016 483.979 137.709 483.979 135.998C483.979 134.299 483.756 133.016 483.311 132.148C482.865 131.281 482.104 130.848 481.025 130.848C479.971 130.848 479.215 131.281 478.758 132.148C478.301 133.004 478.072 134.287 478.072 135.998ZM506.936 125.732C507.533 125.732 508.102 125.779 508.641 125.873L509.027 125.943L508.412 132.43C507.85 132.289 507.07 132.219 506.074 132.219C504.574 132.219 503.484 132.564 502.805 133.256C502.125 133.936 501.785 134.92 501.785 136.209V146H494.912V126.084H500.027L501.1 129.266H501.434C502.008 128.211 502.805 127.361 503.824 126.717C504.855 126.061 505.893 125.732 506.936 125.732ZM521.578 140.92C522.504 140.92 523.611 140.691 524.9 140.234V145.244C523.975 145.643 523.09 145.924 522.246 146.088C521.414 146.264 520.436 146.352 519.311 146.352C517.002 146.352 515.338 145.789 514.318 144.664C513.299 143.527 512.789 141.787 512.789 139.443V131.234H510.381V128.439L513.439 126.277L515.215 122.094H519.715V126.084H524.602V131.234H519.715V138.986C519.715 140.275 520.336 140.92 521.578 140.92ZM535.289 146H528.416V126.084H535.289V146ZM528.24 121.127C528.24 120.096 528.527 119.328 529.102 118.824C529.676 118.32 530.602 118.068 531.879 118.068C533.156 118.068 534.088 118.326 534.674 118.842C535.26 119.357 535.553 120.119 535.553 121.127C535.553 123.143 534.328 124.15 531.879 124.15C529.453 124.15 528.24 123.143 528.24 121.127ZM552.656 146V135.137C552.656 133.812 552.463 132.816 552.076 132.148C551.701 131.469 551.092 131.129 550.248 131.129C549.088 131.129 548.25 131.592 547.734 132.518C547.219 133.443 546.961 135.031 546.961 137.281V146H540.088V126.084H545.273L546.135 128.545H546.539C547.125 127.607 547.934 126.904 548.965 126.436C550.008 125.967 551.203 125.732 552.551 125.732C554.754 125.732 556.465 126.371 557.684 127.648C558.914 128.926 559.529 130.725 559.529 133.045V146H552.656ZM582.996 126.084V129.406L580.271 130.408C580.646 131.088 580.834 131.879 580.834 132.781C580.834 134.926 580.078 136.59 578.566 137.773C577.066 138.957 574.822 139.549 571.834 139.549C571.096 139.549 570.51 139.502 570.076 139.408C569.912 139.713 569.83 140 569.83 140.27C569.83 140.609 570.105 140.873 570.656 141.061C571.207 141.236 571.928 141.324 572.818 141.324H576.123C580.588 141.324 582.82 143.205 582.82 146.967C582.82 149.393 581.783 151.279 579.709 152.627C577.646 153.975 574.746 154.648 571.008 154.648C568.184 154.648 566.004 154.174 564.469 153.225C562.945 152.287 562.184 150.934 562.184 149.164C562.184 146.785 563.66 145.25 566.613 144.559C566.004 144.301 565.471 143.885 565.014 143.311C564.568 142.736 564.346 142.168 564.346 141.605C564.346 140.984 564.516 140.439 564.855 139.971C565.195 139.49 565.904 138.922 566.982 138.266C565.951 137.809 565.137 137.094 564.539 136.121C563.953 135.148 563.66 133.965 563.66 132.57C563.66 130.402 564.398 128.721 565.875 127.525C567.352 126.33 569.461 125.732 572.203 125.732C572.566 125.732 573.193 125.773 574.084 125.855C574.975 125.938 575.631 126.014 576.053 126.084H582.996ZM567.984 148.479C567.984 149.041 568.289 149.492 568.898 149.832C569.508 150.184 570.322 150.359 571.342 150.359C573.006 150.359 574.336 150.148 575.332 149.727C576.34 149.316 576.844 148.783 576.844 148.127C576.844 147.6 576.539 147.225 575.93 147.002C575.32 146.791 574.447 146.686 573.311 146.686H570.621C569.883 146.686 569.256 146.855 568.74 147.195C568.236 147.547 567.984 147.975 567.984 148.479ZM570.146 132.605C570.146 134.645 570.855 135.664 572.273 135.664C572.93 135.664 573.434 135.412 573.785 134.908C574.148 134.404 574.33 133.648 574.33 132.641C574.33 130.578 573.645 129.547 572.273 129.547C570.855 129.547 570.146 130.566 570.146 132.605ZM614.408 135.998C614.408 139.256 613.529 141.799 611.771 143.627C610.025 145.443 607.576 146.352 604.424 146.352C601.4 146.352 598.992 145.42 597.199 143.557C595.418 141.693 594.527 139.174 594.527 135.998C594.527 132.752 595.4 130.232 597.146 128.439C598.904 126.635 601.365 125.732 604.529 125.732C606.486 125.732 608.215 126.148 609.715 126.98C611.215 127.812 612.369 129.008 613.178 130.566C613.998 132.113 614.408 133.924 614.408 135.998ZM601.506 135.998C601.506 137.709 601.734 139.016 602.191 139.918C602.648 140.809 603.416 141.254 604.494 141.254C605.561 141.254 606.311 140.809 606.744 139.918C607.189 139.016 607.412 137.709 607.412 135.998C607.412 134.299 607.189 133.016 606.744 132.148C606.299 131.281 605.537 130.848 604.459 130.848C603.404 130.848 602.648 131.281 602.191 132.148C601.734 133.004 601.506 134.287 601.506 135.998ZM632.531 146L631.67 143.521H631.266C630.691 144.436 629.889 145.139 628.857 145.631C627.838 146.111 626.637 146.352 625.254 146.352C623.062 146.352 621.357 145.719 620.139 144.453C618.92 143.176 618.311 141.377 618.311 139.057V126.084H625.184V136.965C625.184 138.266 625.365 139.25 625.729 139.918C626.104 140.586 626.713 140.92 627.557 140.92C628.74 140.92 629.584 140.457 630.088 139.531C630.592 138.594 630.844 137.018 630.844 134.803V126.084H637.717V146H632.531ZM654.486 125.732C655.084 125.732 655.652 125.779 656.191 125.873L656.578 125.943L655.963 132.43C655.4 132.289 654.621 132.219 653.625 132.219C652.125 132.219 651.035 132.564 650.355 133.256C649.676 133.936 649.336 134.92 649.336 136.209V146H642.463V126.084H647.578L648.65 129.266H648.984C649.559 128.211 650.355 127.361 651.375 126.717C652.406 126.061 653.443 125.732 654.486 125.732ZM569.707 195L567.457 185.508L566.93 182.643L566.578 180.34H566.473C565.898 183.621 565.512 185.689 565.312 186.545L563.291 195H556.066L550.635 175.084H557.402L559.02 182.73C559.535 185.355 559.834 187.535 559.916 189.27H560.021C560.057 188.191 560.379 186.141 560.988 183.117L562.834 175.084H570.428L572.115 183.223C572.654 185.812 572.994 187.828 573.135 189.27H573.24C573.311 188.379 573.428 187.271 573.592 185.947C573.756 184.611 573.938 183.539 574.137 182.73L575.895 175.084H582.521L577.055 195H569.707ZM604.354 184.998C604.354 188.256 603.475 190.799 601.717 192.627C599.971 194.443 597.521 195.352 594.369 195.352C591.346 195.352 588.938 194.42 587.145 192.557C585.363 190.693 584.473 188.174 584.473 184.998C584.473 181.752 585.346 179.232 587.092 177.439C588.85 175.635 591.311 174.732 594.475 174.732C596.432 174.732 598.16 175.148 599.66 175.98C601.16 176.812 602.314 178.008 603.123 179.566C603.943 181.113 604.354 182.924 604.354 184.998ZM591.451 184.998C591.451 186.709 591.68 188.016 592.137 188.918C592.594 189.809 593.361 190.254 594.439 190.254C595.506 190.254 596.256 189.809 596.689 188.918C597.135 188.016 597.357 186.709 597.357 184.998C597.357 183.299 597.135 182.016 596.689 181.148C596.244 180.281 595.482 179.848 594.404 179.848C593.35 179.848 592.594 180.281 592.137 181.148C591.68 182.004 591.451 183.287 591.451 184.998ZM620.314 174.732C620.912 174.732 621.48 174.779 622.02 174.873L622.406 174.943L621.791 181.43C621.229 181.289 620.449 181.219 619.453 181.219C617.953 181.219 616.863 181.564 616.184 182.256C615.504 182.936 615.164 183.92 615.164 185.209V195H608.291V175.084H613.406L614.479 178.266H614.812C615.387 177.211 616.184 176.361 617.203 175.717C618.234 175.061 619.271 174.732 620.314 174.732ZM631.863 183.803C632.695 182.479 633.404 181.447 633.99 180.709L638.455 175.084H646.119L639.211 183.557L646.559 195H638.701L634.342 187.863L632.109 189.568V195H625.201V167.648H632.109V178.406C632.109 180.246 631.98 182.045 631.723 183.803H631.863ZM654.697 185.93H648.896L648 169.301H655.594L654.697 185.93ZM648.07 192.082C648.07 191.016 648.387 190.189 649.02 189.604C649.652 189.006 650.572 188.707 651.779 188.707C652.975 188.707 653.877 189.006 654.486 189.604C655.107 190.189 655.418 191.016 655.418 192.082C655.418 193.137 655.096 193.963 654.451 194.561C653.818 195.146 652.928 195.439 651.779 195.439C650.619 195.439 649.711 195.146 649.055 194.561C648.398 193.963 648.07 193.137 648.07 192.082Z" fill="#473245"/>
</svg>
