<svg width="1576" height="1017" viewBox="0 0 1576 1017" fill="none" xmlns="http://www.w3.org/2000/svg">
<path d="M703.5 0L283.5 364.103V418.968L799 1017H1576V0H703.5Z" fill="#1E0F1C"/>
<path d="M133.52 359.011C133.52 359.104 133.52 359.197 133.567 359.243L133.52 359.011Z" fill="#464646"/>
<path d="M118.85 364.95C118.85 364.857 118.897 364.764 118.897 364.672L118.85 364.95Z" fill="#464646"/>
<path d="M134.125 364.532C134.125 364.672 134.125 364.811 134.172 364.904L134.125 364.532Z" fill="#464646"/>
<path d="M72.6515 363.14H111.865L112.424 360.125H71.1612C65.9452 360.125 61.6606 364.347 61.6606 369.59V382.024L64.6878 379.936V371.121C64.6878 366.667 68.2272 363.14 72.6515 363.14Z" fill="#473245"/>
<path d="M61.6606 394.83V418.26C61.6606 418.956 62.3126 419.513 63.1509 419.513C63.9892 419.513 64.6412 418.956 64.6412 418.26V392.139C63.4769 393.067 62.4058 394.087 61.6606 394.83Z" fill="#473245"/>
<path d="M284.505 364.904C283.108 364.022 281.431 364.115 280.174 365.089L256.841 385.922V369.543C256.841 364.347 252.603 360.078 247.341 360.078H140.646L141.018 363.094H245.85C250.275 363.094 253.814 366.667 253.814 371.028V388.659C253.814 389.216 254.094 389.726 254.606 389.958C255.072 390.236 255.677 390.19 256.143 389.912L281.85 367.548C281.897 367.502 281.943 367.455 281.99 367.455C282.269 367.223 282.595 367.27 282.735 367.363C282.875 367.409 283.108 367.595 283.108 367.966V415.662C283.108 415.987 282.921 416.173 282.782 416.265C282.642 416.358 282.409 416.451 282.13 416.312L266.435 408.517C266.435 408.517 264.246 407.45 260.288 405.594C253.162 402.253 249.53 400.908 241.706 401.743C239.004 402.021 236.164 402.393 233.323 402.764C228.246 403.413 223.03 404.063 218.653 404.249C205.287 405.13 199.465 401.047 194.808 397.753C191.874 395.665 189.313 393.855 185.68 393.995C180.511 394.18 178.322 399.748 176.366 404.666C174.689 408.981 173.106 413.018 170.172 413.25C170.125 413.25 170.079 413.25 169.939 413.157C167.704 411.208 167.052 399.702 166.586 391.304C165.841 378.173 165.282 370.657 162.022 369.265C161.23 368.94 160.019 368.801 158.576 370.007C154.291 373.533 153.732 383.973 153.127 395.015C152.475 406.568 151.776 419.652 146.56 420.998C145.07 421.369 143.952 421.23 143.021 420.534C139.016 417.518 138.783 405.084 138.55 394.087C138.457 390.329 138.41 386.478 138.177 382.859C138.084 380.957 137.944 379.008 137.851 377.06C137.618 372.745 137.386 368.523 137.06 364.579L136.501 359.336C135.569 352.237 134.032 346.577 130.912 343.793C129.468 342.494 127.699 341.89 125.789 342.03C120.992 342.308 118.524 349.453 116.615 359.429L115.544 365.692C115.171 368.151 114.798 370.657 114.379 373.209C112.842 383.555 111.306 394.273 108.558 399.145C105.624 404.388 103.482 406.661 101.386 406.8C98.2655 406.986 93.7947 402.717 86.2967 392.464C81.1738 385.458 76.4235 381.885 71.7198 381.56C71.4404 381.56 71.2075 381.514 70.9747 381.514C68.7393 381.514 66.6435 382.256 64.7341 383.37C64.2218 383.694 62.7781 384.622 61.4741 385.736C60.1235 386.849 58.8661 388.102 57.6087 389.401C55.6061 391.443 50.4367 397.15 48.7601 399.284C44.3358 403.97 39.6787 407.45 20.0255 410.048C19.1873 410.141 18.6284 410.93 18.7215 411.718C18.8147 412.554 19.5598 413.11 20.3981 413.018C39.213 410.559 45.4535 407.125 51.0421 401.233C52.7187 399.098 57.8415 393.438 59.751 391.489C60.0304 391.211 60.2633 390.979 60.5427 390.747C60.6824 390.608 60.9153 390.376 61.1015 390.19C61.2413 390.051 61.5207 389.773 61.5207 389.773C62.6384 388.752 64.0355 387.592 64.5478 387.174C64.5944 387.128 64.641 387.128 64.6875 387.081L64.7341 387.035C67.0627 385.318 69.205 384.39 71.5335 384.576C75.2593 384.854 79.311 388.009 83.875 394.273C92.351 405.872 97.1478 410.095 101.572 409.816C105.438 409.584 108.185 405.965 111.212 400.63C114.193 395.294 115.776 384.762 117.406 373.673C117.826 370.935 118.245 367.919 118.757 364.95L118.804 364.672C118.897 364.161 118.99 363.651 119.036 363.14L119.549 360.125C121.086 352.051 123.088 345.185 125.929 344.999C127.047 344.953 127.978 345.231 128.863 346.02C131.192 348.108 132.542 353.026 133.38 359.011L133.427 359.243C133.474 359.521 133.52 359.8 133.567 360.078H133.52L133.846 363.094H133.893C133.939 363.558 133.986 364.022 134.032 364.532L134.079 364.904C134.405 368.894 134.638 373.116 134.871 377.199C134.964 379.148 135.057 381.096 135.197 382.999C135.43 386.525 135.476 390.376 135.569 394.087C135.849 406.893 136.082 418.956 141.251 422.854C142.369 423.689 143.673 424.153 145.163 424.153C145.862 424.153 146.607 424.06 147.352 423.875C154.664 421.972 155.409 408.935 156.154 395.155C156.666 385.69 157.272 374.972 160.532 372.281C160.764 372.095 160.904 372.049 160.904 372.002C162.581 373.209 163.233 384.158 163.652 391.443C164.397 404.62 165.049 412.786 168.03 415.384C168.728 415.987 169.613 416.312 170.498 416.219C175.341 415.848 177.344 410.698 179.3 405.733C181.023 401.279 182.7 397.057 185.913 396.964C188.521 396.871 190.477 398.263 193.178 400.166C197.928 403.506 204.448 408.146 218.839 407.218C223.263 407.079 228.572 406.383 233.742 405.733C236.536 405.362 239.377 404.991 242.078 404.712C249.343 403.97 252.417 405.223 259.03 408.285C262.942 410.095 265.131 411.162 265.131 411.162L280.639 418.864C281.664 419.374 282.875 419.513 283.946 419.049C285.343 418.446 286.181 417.147 286.181 415.662V368.151C286.135 366.899 285.576 365.646 284.505 364.904Z" fill="#473245"/>
<path d="M64.8271 387.035L64.8737 386.989L64.8271 387.035Z" fill="#464646"/>
<path d="M24.0308 482.103H27.9893C30.2248 482.103 31.7616 482.196 32.5533 482.382C33.671 482.66 34.6025 483.217 35.301 484.052C35.9996 484.887 36.3722 485.954 36.3722 487.207C36.3722 488.46 35.9996 489.527 35.301 490.362C34.6025 491.197 33.6245 491.754 32.4136 492.032C31.5288 492.218 29.8522 492.357 27.3839 492.357H25.9868V501.219H24.0308V482.103ZM25.9868 483.959V490.455L29.3399 490.501C30.6905 490.501 31.6685 490.362 32.3205 490.13C32.9259 489.898 33.4382 489.527 33.8108 488.97C34.1833 488.46 34.3696 487.857 34.3696 487.207C34.3696 486.557 34.1833 486.001 33.8108 485.444C33.4382 484.933 32.9725 484.516 32.4136 484.33C31.8082 484.098 30.8768 484.006 29.5262 484.006H25.9868V483.959Z" fill="#473245"/>
<path d="M49.6914 482.103H53.65C55.8388 482.103 57.3291 482.196 58.1208 482.382C59.2851 482.66 60.2631 483.217 60.9617 484.052C61.7068 484.887 62.0794 485.954 62.0794 487.207C62.0794 488.228 61.8465 489.156 61.3343 489.944C60.822 490.733 60.1234 491.336 59.1454 491.754C58.214 492.171 56.91 492.357 55.2334 492.357L62.3588 501.219H59.9371L52.8117 492.357H51.694V501.219H49.738V482.103H49.6914ZM51.6474 483.959V490.455L55.0471 490.501C56.3511 490.501 57.3291 490.362 57.9811 490.13C58.6331 489.898 59.0988 489.48 59.4714 488.97C59.844 488.46 59.9837 487.857 59.9837 487.207C59.9837 486.557 59.7974 486.001 59.4248 485.444C59.0523 484.933 58.5865 484.562 58.0277 484.33C57.4223 484.098 56.4908 484.006 55.1403 484.006H51.6474V483.959Z" fill="#473245"/>
<path d="M84.8997 481.593C87.8803 481.593 90.3951 482.567 92.3977 484.47C94.4003 486.418 95.4248 488.784 95.4248 491.615C95.4248 494.399 94.4003 496.765 92.3977 498.714C90.3951 500.662 87.9268 501.637 85.0394 501.637C82.1054 501.637 79.6371 500.662 77.6346 498.714C75.632 496.765 74.6074 494.445 74.6074 491.661C74.6074 489.805 75.0731 488.135 76.0046 486.557C76.936 484.98 78.1934 483.774 79.7768 482.892C81.3603 482.057 83.0834 481.593 84.8997 481.593ZM84.9928 483.449C83.5491 483.449 82.152 483.82 80.848 484.562C79.544 485.305 78.5194 486.279 77.7743 487.532C77.0291 488.784 76.6566 490.176 76.6566 491.707C76.6566 493.981 77.4948 495.883 79.0783 497.461C80.7083 499.038 82.6643 499.827 84.9463 499.827C86.4831 499.827 87.8803 499.456 89.1843 498.76C90.4883 498.064 91.5128 497.043 92.258 495.79C93.0031 494.538 93.3757 493.146 93.3757 491.615C93.3757 490.084 93.0031 488.738 92.258 487.485C91.5128 486.279 90.4883 485.258 89.1843 484.562C87.9268 483.82 86.4831 483.449 84.9928 483.449Z" fill="#473245"/>
<path d="M138.457 482.103H140.413V493.61C140.413 494.955 140.459 495.837 140.506 496.162C140.599 496.904 140.832 497.554 141.205 498.064C141.577 498.574 142.136 498.992 142.835 499.317C143.58 499.641 144.325 499.827 145.07 499.827C145.722 499.827 146.374 499.688 146.933 499.409C147.538 499.131 148.051 498.76 148.423 498.296C148.842 497.832 149.122 497.229 149.308 496.579C149.448 496.115 149.494 495.094 149.494 493.61V482.103H151.45V493.61C151.45 495.326 151.264 496.672 150.938 497.739C150.612 498.806 149.913 499.688 148.889 500.477C147.864 501.265 146.607 501.637 145.117 501.637C143.533 501.637 142.136 501.265 141.018 500.523C139.901 499.781 139.109 498.806 138.736 497.6C138.503 496.858 138.364 495.512 138.364 493.563V482.103H138.457Z" fill="#473245"/>
<path d="M184.05 485.629L182.513 486.789C181.675 485.722 180.604 484.887 179.393 484.33C178.182 483.774 176.878 483.495 175.434 483.495C173.851 483.495 172.407 483.866 171.057 484.609C169.706 485.351 168.681 486.325 167.936 487.578C167.191 488.831 166.819 490.176 166.819 491.754C166.819 494.074 167.657 496.022 169.287 497.6C170.917 499.177 173.013 499.92 175.527 499.92C178.275 499.92 180.604 498.853 182.467 496.765L184.003 497.925C183.025 499.131 181.768 500.059 180.324 500.755C178.834 501.405 177.204 501.729 175.388 501.729C171.941 501.729 169.194 500.616 167.191 498.389C165.515 496.533 164.676 494.259 164.676 491.568C164.676 488.784 165.701 486.418 167.703 484.516C169.753 482.614 172.267 481.639 175.341 481.639C177.204 481.639 178.834 482.01 180.324 482.706C181.861 483.356 183.119 484.377 184.05 485.629Z" fill="#473245"/>
<path d="M195.274 483.959V482.103H206.125V483.959H201.701V501.173H199.698V483.959H195.274Z" fill="#473245"/>
<path d="M219.352 482.103H221.308V501.173H219.352V482.103Z" fill="#473245"/>
<path d="M244.5 481.593C247.48 481.593 249.995 482.567 251.998 484.47C254 486.418 255.025 488.784 255.025 491.615C255.025 494.399 254 496.765 251.998 498.714C249.995 500.662 247.527 501.637 244.64 501.637C241.706 501.637 239.237 500.662 237.235 498.714C235.232 496.765 234.208 494.445 234.208 491.661C234.208 489.805 234.673 488.135 235.605 486.557C236.536 484.98 237.794 483.774 239.377 482.892C240.96 482.057 242.637 481.593 244.5 481.593ZM244.593 483.449C243.149 483.449 241.752 483.82 240.448 484.562C239.144 485.305 238.12 486.279 237.374 487.532C236.629 488.784 236.257 490.176 236.257 491.707C236.257 493.981 237.095 495.883 238.678 497.461C240.308 499.038 242.264 499.827 244.546 499.827C246.083 499.827 247.48 499.456 248.784 498.76C250.088 498.064 251.113 497.043 251.858 495.79C252.603 494.538 252.976 493.146 252.976 491.615C252.976 490.084 252.603 488.738 251.858 487.485C251.113 486.279 250.088 485.258 248.784 484.562C247.48 483.82 246.083 483.449 244.593 483.449Z" fill="#473245"/>
<path d="M268.251 501.173V482.103H268.671L281.85 496.718V482.103H283.806V501.173H283.341L270.301 486.697V501.173H268.251Z" fill="#473245"/>
<path d="M295.822 497.646L297.498 496.672C298.663 498.76 300.06 499.827 301.597 499.827C302.249 499.827 302.901 499.688 303.459 499.363C304.018 499.085 304.484 498.667 304.81 498.157C305.136 497.646 305.276 497.136 305.276 496.579C305.276 495.93 305.043 495.326 304.624 494.677C304.018 493.842 302.901 492.821 301.224 491.615C299.594 490.408 298.569 489.527 298.15 489.016C297.452 488.135 297.079 487.161 297.079 486.093C297.079 485.258 297.265 484.516 297.685 483.82C298.104 483.124 298.663 482.614 299.408 482.196C300.153 481.778 300.945 481.593 301.829 481.593C302.761 481.593 303.646 481.825 304.437 482.242C305.229 482.706 306.114 483.495 306.999 484.702L305.369 485.861C304.624 484.887 303.972 484.284 303.459 483.959C302.947 483.634 302.342 483.495 301.736 483.495C300.945 483.495 300.293 483.727 299.78 484.191C299.268 484.655 299.035 485.212 299.035 485.908C299.035 486.325 299.128 486.743 299.315 487.114C299.501 487.485 299.827 487.949 300.293 488.367C300.572 488.599 301.41 489.248 302.854 490.269C304.577 491.476 305.741 492.589 306.393 493.517C307.045 494.491 307.325 495.419 307.325 496.394C307.325 497.786 306.766 498.992 305.695 500.013C304.624 501.033 303.273 501.544 301.736 501.544C300.525 501.544 299.454 501.219 298.476 500.616C297.545 500.105 296.613 499.085 295.822 497.646Z" fill="#473245"/>
<path d="M108.838 481.778L126.581 488.738C128.072 489.341 128.211 491.244 126.814 491.986L109.07 501.358C107.766 502.054 106.09 501.173 106.09 499.781V483.449C106.09 482.15 107.534 481.268 108.838 481.778Z" fill="#473245"/>
<path d="M27.6166 454.775C27.6166 459.74 31.6683 461.642 36.3255 461.642C39.3526 461.642 43.9632 460.807 43.9632 457.002C43.9632 452.966 38.0021 452.363 32.3203 450.878C26.4989 449.532 20.5843 447.166 20.5843 440.299C20.5843 432.644 28.1755 429.071 35.2543 429.071C43.4509 429.071 50.9955 432.458 50.9955 441.042H42.6126C42.3332 436.634 39.0266 435.428 34.8352 435.428C32.0875 435.428 28.8741 436.541 28.8741 439.65C28.8741 442.526 30.7369 442.944 40.6101 445.264C43.5441 445.867 52.2529 447.723 52.2529 456.074C52.2529 462.895 46.6643 467.998 35.9063 467.998C27.1975 467.998 19.0009 463.962 19.1872 454.775H27.6166Z" fill="#473245"/>
<path d="M57.4688 429.953H66.0845V444.197H81.9653V429.953H90.581V467.117H81.9653V451.11H66.0845V467.117H57.4688V429.953V429.953Z" fill="#473245"/>
<path d="M108.93 429.953H117.779L132.449 467.117H123.461L120.48 458.858H105.81L102.736 467.117H93.981L108.93 429.953ZM108.092 452.78H118.291L113.355 439.139H113.262L108.092 452.78Z" fill="#473245"/>
<path d="M135.895 429.953H144.464L160.857 454.868H160.95V429.953H169.054V467.117H160.438L144.092 442.248H143.998V467.117H135.895V429.953V429.953Z" fill="#473245"/>
<path d="M176.645 429.953H206.032V436.819H185.307V444.8H204.355V451.156H185.307V460.25H206.497V467.117H176.692V429.953H176.645Z" fill="#473245"/>
<path d="M212.319 429.953H220.935V460.25H240.075V467.117H212.319V429.953Z" fill="#473245"/>
<path d="M244.919 429.953H253.535V460.25H272.676V467.117H244.919V429.953Z" fill="#473245"/>
<path d="M277.519 429.953H306.906V436.819H286.181V444.8H305.229V451.156H286.181V460.25H307.371V467.117H277.566V429.953H277.519Z" fill="#473245"/>
<path d="M33.1152 576.5H26.1719V556.479H19.8965V550.801H39.373V556.479H33.1152V576.5ZM49.5156 549.148V553.033C49.5156 554.51 49.4805 555.752 49.4102 556.76C49.3516 557.756 49.293 558.518 49.2344 559.045H49.5508C49.9844 558.354 50.4766 557.803 51.0273 557.393C51.5781 556.982 52.1875 556.689 52.8555 556.514C53.5234 556.326 54.25 556.232 55.0352 556.232C56.3477 556.232 57.5312 556.484 58.5859 556.988C59.6523 557.492 60.502 558.283 61.1348 559.361C61.7676 560.428 62.084 561.822 62.084 563.545V576.5H55.1758V565.637C55.1758 564.312 54.9824 563.316 54.5957 562.648C54.209 561.969 53.6113 561.629 52.8027 561.629C51.9707 561.629 51.3145 561.869 50.834 562.35C50.3535 562.818 50.0137 563.51 49.8145 564.424C49.6152 565.326 49.5156 566.434 49.5156 567.746V576.5H42.6426V549.148H49.5156ZM76.4805 556.232C79 556.232 80.9688 556.859 82.3867 558.113C83.8047 559.355 84.5137 561.131 84.5137 563.439V576.5H79.75L78.4316 573.863H78.291C77.7285 574.566 77.1484 575.141 76.5508 575.586C75.9648 576.02 75.291 576.336 74.5293 576.535C73.7676 576.746 72.8359 576.852 71.7344 576.852C70.5859 576.852 69.5547 576.617 68.6406 576.148C67.7266 575.68 67.0059 574.971 66.4785 574.021C65.9512 573.072 65.6875 571.871 65.6875 570.418C65.6875 568.285 66.4258 566.703 67.9023 565.672C69.3789 564.641 71.5176 564.061 74.3184 563.932L77.6406 563.826V563.545C77.6406 562.654 77.418 562.021 76.9727 561.646C76.5391 561.271 75.9531 561.084 75.2148 561.084C74.4297 561.084 73.5508 561.225 72.5781 561.506C71.6172 561.775 70.6504 562.127 69.6777 562.561L67.6914 558.025C68.8398 557.439 70.1406 556.994 71.5938 556.689C73.0469 556.385 74.6758 556.232 76.4805 556.232ZM77.6758 567.605L76.0938 567.676C74.8281 567.723 73.9375 567.945 73.4219 568.344C72.918 568.73 72.666 569.287 72.666 570.014C72.666 570.693 72.8477 571.197 73.2109 571.525C73.5742 571.842 74.0547 572 74.6523 572C75.4844 572 76.1934 571.736 76.7793 571.209C77.377 570.682 77.6758 569.996 77.6758 569.152V567.605ZM101.652 556.232C103.703 556.232 105.379 556.812 106.68 557.973C107.98 559.133 108.631 560.99 108.631 563.545V576.5H101.758V565.637C101.758 564.312 101.564 563.316 101.178 562.648C100.803 561.969 100.193 561.629 99.3496 561.629C98.0488 561.629 97.1758 562.162 96.7305 563.229C96.2852 564.283 96.0625 565.801 96.0625 567.781V576.5H89.1895V556.584H94.375L95.3066 559.221H95.5703C95.9922 558.588 96.4961 558.049 97.082 557.604C97.668 557.158 98.3418 556.818 99.1035 556.584C99.8652 556.35 100.715 556.232 101.652 556.232ZM120.215 549.148V559.906C120.215 560.715 120.18 561.617 120.109 562.613C120.051 563.598 119.957 564.494 119.828 565.303H119.969C120.238 564.893 120.578 564.377 120.988 563.756C121.398 563.135 121.768 562.619 122.096 562.209L126.561 556.584H134.225L127.316 565.057L134.664 576.5H126.807L122.447 569.363L120.215 571.068V576.5H113.307V549.148H120.215ZM143.98 556.584H151.223L154.598 568.01C154.645 568.174 154.691 568.379 154.738 568.625C154.785 568.859 154.826 569.111 154.861 569.381C154.896 569.65 154.92 569.914 154.932 570.172H155.072C155.131 569.691 155.195 569.275 155.266 568.924C155.348 568.561 155.424 568.268 155.494 568.045L158.957 556.584H165.971L158.096 577.766C157.486 579.383 156.777 580.736 155.969 581.826C155.172 582.928 154.182 583.754 152.998 584.305C151.826 584.867 150.367 585.148 148.621 585.148C147.988 585.148 147.443 585.113 146.986 585.043C146.541 584.984 146.148 584.92 145.809 584.85V579.453C146.066 579.5 146.383 579.547 146.758 579.594C147.133 579.641 147.525 579.664 147.936 579.664C148.697 579.664 149.312 579.512 149.781 579.207C150.262 578.902 150.654 578.498 150.959 577.994C151.264 577.502 151.527 576.969 151.75 576.395L151.82 576.219L143.98 556.584ZM187.381 566.498C187.381 568.162 187.152 569.639 186.695 570.928C186.238 572.217 185.576 573.301 184.709 574.18C183.842 575.059 182.793 575.727 181.562 576.184C180.332 576.629 178.943 576.852 177.396 576.852C175.955 576.852 174.631 576.629 173.424 576.184C172.229 575.727 171.186 575.059 170.295 574.18C169.404 573.301 168.713 572.217 168.221 570.928C167.74 569.639 167.5 568.162 167.5 566.498C167.5 564.295 167.898 562.432 168.695 560.908C169.504 559.385 170.652 558.225 172.141 557.428C173.641 556.631 175.428 556.232 177.502 556.232C179.412 556.232 181.111 556.631 182.6 557.428C184.088 558.225 185.254 559.385 186.098 560.908C186.953 562.432 187.381 564.295 187.381 566.498ZM174.479 566.498C174.479 567.635 174.578 568.596 174.777 569.381C174.977 570.154 175.293 570.746 175.727 571.156C176.172 571.555 176.752 571.754 177.467 571.754C178.182 571.754 178.75 571.555 179.172 571.156C179.594 570.746 179.898 570.154 180.086 569.381C180.285 568.596 180.385 567.635 180.385 566.498C180.385 565.361 180.285 564.412 180.086 563.65C179.898 562.889 179.588 562.314 179.154 561.928C178.732 561.541 178.158 561.348 177.432 561.348C176.389 561.348 175.633 561.781 175.164 562.648C174.707 563.516 174.479 564.799 174.479 566.498ZM210.689 556.584V576.5H205.504L204.643 574.021H204.238C203.828 574.689 203.307 575.234 202.674 575.656C202.053 576.066 201.361 576.365 200.6 576.553C199.838 576.752 199.047 576.852 198.227 576.852C196.926 576.852 195.748 576.6 194.693 576.096C193.65 575.592 192.818 574.801 192.197 573.723C191.588 572.645 191.283 571.256 191.283 569.557V556.584H198.156V567.465C198.156 568.754 198.338 569.738 198.701 570.418C199.076 571.086 199.686 571.42 200.529 571.42C201.396 571.42 202.064 571.186 202.533 570.717C203.014 570.248 203.348 569.557 203.535 568.643C203.723 567.729 203.816 566.615 203.816 565.303V556.584H210.689ZM236.951 561.734H232.715V576.5H225.842V561.734H223.205V558.359L225.982 556.672V556.338C225.982 554.615 226.211 553.215 226.668 552.137C227.125 551.047 227.852 550.244 228.848 549.729C229.844 549.213 231.145 548.955 232.75 548.955C233.781 548.955 234.713 549.037 235.545 549.201C236.389 549.365 237.268 549.6 238.182 549.904L236.705 554.352C236.365 554.258 235.984 554.176 235.562 554.105C235.152 554.035 234.707 554 234.227 554C233.699 554 233.312 554.164 233.066 554.492C232.832 554.809 232.715 555.33 232.715 556.057V556.584H236.951V561.734ZM258.678 566.498C258.678 568.162 258.449 569.639 257.992 570.928C257.535 572.217 256.873 573.301 256.006 574.18C255.139 575.059 254.09 575.727 252.859 576.184C251.629 576.629 250.24 576.852 248.693 576.852C247.252 576.852 245.928 576.629 244.721 576.184C243.525 575.727 242.482 575.059 241.592 574.18C240.701 573.301 240.01 572.217 239.518 570.928C239.037 569.639 238.797 568.162 238.797 566.498C238.797 564.295 239.195 562.432 239.992 560.908C240.801 559.385 241.949 558.225 243.438 557.428C244.938 556.631 246.725 556.232 248.799 556.232C250.709 556.232 252.408 556.631 253.896 557.428C255.385 558.225 256.551 559.385 257.395 560.908C258.25 562.432 258.678 564.295 258.678 566.498ZM245.775 566.498C245.775 567.635 245.875 568.596 246.074 569.381C246.273 570.154 246.59 570.746 247.023 571.156C247.469 571.555 248.049 571.754 248.764 571.754C249.479 571.754 250.047 571.555 250.469 571.156C250.891 570.746 251.195 570.154 251.383 569.381C251.582 568.596 251.682 567.635 251.682 566.498C251.682 565.361 251.582 564.412 251.383 563.65C251.195 562.889 250.885 562.314 250.451 561.928C250.029 561.541 249.455 561.348 248.729 561.348C247.686 561.348 246.93 561.781 246.461 562.648C246.004 563.516 245.775 564.799 245.775 566.498ZM274.639 556.232C275.014 556.232 275.406 556.262 275.816 556.32C276.227 556.367 276.531 556.408 276.73 556.443L276.115 562.93C275.893 562.871 275.605 562.824 275.254 562.789C274.902 562.742 274.41 562.719 273.777 562.719C273.344 562.719 272.881 562.76 272.389 562.842C271.896 562.924 271.428 563.1 270.982 563.369C270.549 563.627 270.191 564.025 269.91 564.564C269.629 565.092 269.488 565.807 269.488 566.709V576.5H262.615V556.584H267.73L268.803 559.766H269.137C269.5 559.109 269.963 558.518 270.525 557.99C271.1 557.451 271.738 557.023 272.441 556.707C273.156 556.391 273.889 556.232 274.639 556.232ZM36.1738 619.383C36.1738 620.648 35.8926 621.768 35.3301 622.74C34.7676 623.713 33.8652 624.475 32.623 625.025C31.3926 625.576 29.7695 625.852 27.7539 625.852C26.3359 625.852 25.0645 625.775 23.9395 625.623C22.8262 625.471 21.6953 625.178 20.5469 624.744V619.242C21.8008 619.816 23.0781 620.232 24.3789 620.49C25.6797 620.736 26.7051 620.859 27.4551 620.859C28.2285 620.859 28.791 620.777 29.1426 620.613C29.5059 620.438 29.6875 620.18 29.6875 619.84C29.6875 619.547 29.5645 619.301 29.3184 619.102C29.084 618.891 28.6562 618.65 28.0352 618.381C27.4258 618.111 26.5645 617.748 25.4512 617.291C24.3496 616.834 23.4297 616.336 22.6914 615.797C21.9648 615.258 21.4199 614.613 21.0566 613.863C20.6934 613.113 20.5117 612.193 20.5117 611.104C20.5117 609.158 21.2617 607.693 22.7617 606.709C24.2617 605.725 26.248 605.232 28.7207 605.232C30.0332 605.232 31.2695 605.379 32.4297 605.672C33.5898 605.953 34.791 606.369 36.0332 606.92L34.1523 611.35C33.168 610.904 32.1719 610.547 31.1641 610.277C30.1562 610.008 29.3535 609.873 28.7559 609.873C28.2168 609.873 27.8008 609.943 27.5078 610.084C27.2148 610.225 27.0684 610.43 27.0684 610.699C27.0684 610.945 27.168 611.162 27.3672 611.35C27.5781 611.537 27.9707 611.754 28.5449 612C29.1191 612.246 29.957 612.592 31.0586 613.037C32.2188 613.506 33.1738 614.01 33.9238 614.549C34.6855 615.076 35.248 615.721 35.6113 616.482C35.9863 617.244 36.1738 618.211 36.1738 619.383ZM59.377 605.584V625.5H54.1914L53.3301 623.021H52.9258C52.5156 623.689 51.9941 624.234 51.3613 624.656C50.7402 625.066 50.0488 625.365 49.2871 625.553C48.5254 625.752 47.7344 625.852 46.9141 625.852C45.6133 625.852 44.4355 625.6 43.3809 625.096C42.3379 624.592 41.5059 623.801 40.8848 622.723C40.2754 621.645 39.9707 620.256 39.9707 618.557V605.584H46.8438V616.465C46.8438 617.754 47.0254 618.738 47.3887 619.418C47.7637 620.086 48.373 620.42 49.2168 620.42C50.084 620.42 50.752 620.186 51.2207 619.717C51.7012 619.248 52.0352 618.557 52.2227 617.643C52.4102 616.729 52.5039 615.615 52.5039 614.303V605.584H59.377ZM76.2871 605.232C78.4902 605.232 80.2188 606.117 81.4727 607.887C82.7266 609.645 83.3535 612.182 83.3535 615.498C83.3535 617.76 83.0371 619.664 82.4043 621.211C81.7715 622.746 80.9043 623.906 79.8027 624.691C78.7129 625.465 77.4707 625.852 76.0762 625.852C75.1387 625.852 74.3418 625.734 73.6855 625.5C73.041 625.266 72.502 624.973 72.0684 624.621C71.6465 624.27 71.2891 623.912 70.9961 623.549H70.7852C70.8438 624.006 70.8906 624.498 70.9258 625.025C70.9727 625.553 70.9961 626.168 70.9961 626.871V634.148H64.123V605.584H69.7129L70.6797 608.115H70.9961C71.3242 607.6 71.7227 607.125 72.1914 606.691C72.6602 606.246 73.2285 605.895 73.8965 605.637C74.5762 605.367 75.373 605.232 76.2871 605.232ZM73.7031 610.629C73.0352 610.629 72.5078 610.787 72.1211 611.104C71.7344 611.42 71.4531 611.9 71.2773 612.545C71.1133 613.178 71.0195 613.969 70.9961 614.918V615.463C70.9961 616.518 71.0781 617.408 71.2422 618.135C71.4062 618.85 71.6875 619.395 72.0859 619.77C72.4844 620.133 73.0352 620.314 73.7383 620.314C74.3125 620.314 74.793 620.15 75.1797 619.822C75.5664 619.494 75.8594 618.973 76.0586 618.258C76.2578 617.543 76.3574 616.6 76.3574 615.428C76.3574 613.682 76.1289 612.445 75.6719 611.719C75.2266 610.992 74.5703 610.629 73.7031 610.629ZM99.4551 605.232C101.658 605.232 103.387 606.117 104.641 607.887C105.895 609.645 106.521 612.182 106.521 615.498C106.521 617.76 106.205 619.664 105.572 621.211C104.939 622.746 104.072 623.906 102.971 624.691C101.881 625.465 100.639 625.852 99.2441 625.852C98.3066 625.852 97.5098 625.734 96.8535 625.5C96.209 625.266 95.6699 624.973 95.2363 624.621C94.8145 624.27 94.457 623.912 94.1641 623.549H93.9531C94.0117 624.006 94.0586 624.498 94.0938 625.025C94.1406 625.553 94.1641 626.168 94.1641 626.871V634.148H87.291V605.584H92.8809L93.8477 608.115H94.1641C94.4922 607.6 94.8906 607.125 95.3594 606.691C95.8281 606.246 96.3965 605.895 97.0645 605.637C97.7441 605.367 98.541 605.232 99.4551 605.232ZM96.8711 610.629C96.2031 610.629 95.6758 610.787 95.2891 611.104C94.9023 611.42 94.6211 611.9 94.4453 612.545C94.2812 613.178 94.1875 613.969 94.1641 614.918V615.463C94.1641 616.518 94.2461 617.408 94.4102 618.135C94.5742 618.85 94.8555 619.395 95.2539 619.77C95.6523 620.133 96.2031 620.314 96.9062 620.314C97.4805 620.314 97.9609 620.15 98.3477 619.822C98.7344 619.494 99.0273 618.973 99.2266 618.258C99.4258 617.543 99.5254 616.6 99.5254 615.428C99.5254 613.682 99.2969 612.445 98.8398 611.719C98.3945 610.992 97.7383 610.629 96.8711 610.629ZM129.479 615.498C129.479 617.162 129.25 618.639 128.793 619.928C128.336 621.217 127.674 622.301 126.807 623.18C125.939 624.059 124.891 624.727 123.66 625.184C122.43 625.629 121.041 625.852 119.494 625.852C118.053 625.852 116.729 625.629 115.521 625.184C114.326 624.727 113.283 624.059 112.393 623.18C111.502 622.301 110.811 621.217 110.318 619.928C109.838 618.639 109.598 617.162 109.598 615.498C109.598 613.295 109.996 611.432 110.793 609.908C111.602 608.385 112.75 607.225 114.238 606.428C115.738 605.631 117.525 605.232 119.6 605.232C121.51 605.232 123.209 605.631 124.697 606.428C126.186 607.225 127.352 608.385 128.195 609.908C129.051 611.432 129.479 613.295 129.479 615.498ZM116.576 615.498C116.576 616.635 116.676 617.596 116.875 618.381C117.074 619.154 117.391 619.746 117.824 620.156C118.27 620.555 118.85 620.754 119.564 620.754C120.279 620.754 120.848 620.555 121.27 620.156C121.691 619.746 121.996 619.154 122.184 618.381C122.383 617.596 122.482 616.635 122.482 615.498C122.482 614.361 122.383 613.412 122.184 612.65C121.996 611.889 121.686 611.314 121.252 610.928C120.83 610.541 120.256 610.348 119.529 610.348C118.486 610.348 117.73 610.781 117.262 611.648C116.805 612.516 116.576 613.799 116.576 615.498ZM145.439 605.232C145.814 605.232 146.207 605.262 146.617 605.32C147.027 605.367 147.332 605.408 147.531 605.443L146.916 611.93C146.693 611.871 146.406 611.824 146.055 611.789C145.703 611.742 145.211 611.719 144.578 611.719C144.145 611.719 143.682 611.76 143.189 611.842C142.697 611.924 142.229 612.1 141.783 612.369C141.35 612.627 140.992 613.025 140.711 613.564C140.43 614.092 140.289 614.807 140.289 615.709V625.5H133.416V605.584H138.531L139.604 608.766H139.938C140.301 608.109 140.764 607.518 141.326 606.99C141.9 606.451 142.539 606.023 143.242 605.707C143.957 605.391 144.689 605.232 145.439 605.232ZM160.082 620.42C160.703 620.42 161.271 620.355 161.787 620.227C162.303 620.098 162.842 619.934 163.404 619.734V624.744C162.654 625.072 161.857 625.336 161.014 625.535C160.182 625.746 159.115 625.852 157.814 625.852C156.525 625.852 155.389 625.652 154.404 625.254C153.42 624.844 152.652 624.141 152.102 623.145C151.562 622.137 151.293 620.736 151.293 618.943V610.734H148.885V607.939L151.943 605.777L153.719 601.594H158.219V605.584H163.105V610.734H158.219V618.486C158.219 619.131 158.383 619.617 158.711 619.945C159.039 620.262 159.496 620.42 160.082 620.42ZM173.793 605.584V625.5H166.92V605.584H173.793ZM170.383 597.568C171.367 597.568 172.223 597.773 172.949 598.184C173.688 598.594 174.057 599.408 174.057 600.627C174.057 601.811 173.688 602.613 172.949 603.035C172.223 603.445 171.367 603.65 170.383 603.65C169.375 603.65 168.514 603.445 167.799 603.035C167.096 602.613 166.744 601.811 166.744 600.627C166.744 599.408 167.096 598.594 167.799 598.184C168.514 597.773 169.375 597.568 170.383 597.568ZM191.055 605.232C193.105 605.232 194.781 605.812 196.082 606.973C197.383 608.133 198.033 609.99 198.033 612.545V625.5H191.16V614.637C191.16 613.312 190.967 612.316 190.58 611.648C190.205 610.969 189.596 610.629 188.752 610.629C187.451 610.629 186.578 611.162 186.133 612.229C185.688 613.283 185.465 614.801 185.465 616.781V625.5H178.592V605.584H183.777L184.709 608.221H184.973C185.395 607.588 185.898 607.049 186.484 606.604C187.07 606.158 187.744 605.818 188.506 605.584C189.268 605.35 190.117 605.232 191.055 605.232ZM209.512 634.148C206.688 634.148 204.508 633.674 202.973 632.725C201.449 631.787 200.688 630.434 200.688 628.664C200.688 627.48 201.057 626.502 201.795 625.729C202.533 624.955 203.641 624.398 205.117 624.059C204.508 623.801 203.975 623.385 203.518 622.811C203.072 622.236 202.85 621.668 202.85 621.105C202.85 620.484 203.02 619.939 203.359 619.471C203.699 618.99 204.408 618.422 205.486 617.766C204.455 617.309 203.641 616.594 203.043 615.621C202.457 614.648 202.164 613.465 202.164 612.07C202.164 610.629 202.492 609.398 203.148 608.379C203.816 607.359 204.783 606.58 206.049 606.041C207.326 605.502 208.879 605.232 210.707 605.232C210.953 605.232 211.328 605.256 211.832 605.303C212.336 605.338 212.846 605.385 213.361 605.443C213.877 605.49 214.275 605.537 214.557 605.584H221.5V608.906L218.775 609.908C218.963 610.248 219.104 610.617 219.197 611.016C219.291 611.414 219.338 611.836 219.338 612.281C219.338 614.426 218.582 616.09 217.07 617.273C215.57 618.457 213.326 619.049 210.338 619.049C209.6 619.049 209.014 619.002 208.58 618.908C208.498 619.061 208.434 619.213 208.387 619.365C208.352 619.506 208.334 619.641 208.334 619.77C208.334 620.039 208.492 620.256 208.809 620.42C209.137 620.572 209.529 620.678 209.986 620.736C210.455 620.795 210.9 620.824 211.322 620.824H214.627C216.865 620.824 218.541 621.293 219.654 622.23C220.768 623.168 221.324 624.58 221.324 626.467C221.324 628.893 220.287 630.779 218.213 632.127C216.15 633.475 213.25 634.148 209.512 634.148ZM209.846 629.859C210.678 629.859 211.516 629.783 212.359 629.631C213.203 629.49 213.912 629.256 214.486 628.928C215.061 628.6 215.348 628.166 215.348 627.627C215.348 627.217 215.178 626.906 214.838 626.695C214.498 626.496 214.059 626.361 213.52 626.291C212.98 626.221 212.412 626.186 211.814 626.186H209.143C208.65 626.186 208.199 626.262 207.789 626.414C207.391 626.578 207.074 626.795 206.84 627.064C206.605 627.334 206.488 627.639 206.488 627.979C206.488 628.541 206.793 628.992 207.402 629.332C208.012 629.684 208.826 629.859 209.846 629.859ZM210.777 615.164C211.434 615.164 211.938 614.912 212.289 614.408C212.652 613.904 212.834 613.148 212.834 612.141C212.834 611.109 212.664 610.336 212.324 609.82C211.984 609.305 211.469 609.047 210.777 609.047C210.062 609.047 209.529 609.305 209.178 609.82C208.826 610.324 208.65 611.086 208.65 612.105C208.65 613.125 208.826 613.893 209.178 614.408C209.529 614.912 210.062 615.164 210.777 615.164ZM252.912 615.498C252.912 617.162 252.684 618.639 252.227 619.928C251.77 621.217 251.107 622.301 250.24 623.18C249.373 624.059 248.324 624.727 247.094 625.184C245.863 625.629 244.475 625.852 242.928 625.852C241.486 625.852 240.162 625.629 238.955 625.184C237.76 624.727 236.717 624.059 235.826 623.18C234.936 622.301 234.244 621.217 233.752 619.928C233.271 618.639 233.031 617.162 233.031 615.498C233.031 613.295 233.43 611.432 234.227 609.908C235.035 608.385 236.184 607.225 237.672 606.428C239.172 605.631 240.959 605.232 243.033 605.232C244.943 605.232 246.643 605.631 248.131 606.428C249.619 607.225 250.785 608.385 251.629 609.908C252.484 611.432 252.912 613.295 252.912 615.498ZM240.01 615.498C240.01 616.635 240.109 617.596 240.309 618.381C240.508 619.154 240.824 619.746 241.258 620.156C241.703 620.555 242.283 620.754 242.998 620.754C243.713 620.754 244.281 620.555 244.703 620.156C245.125 619.746 245.43 619.154 245.617 618.381C245.816 617.596 245.916 616.635 245.916 615.498C245.916 614.361 245.816 613.412 245.617 612.65C245.43 611.889 245.119 611.314 244.686 610.928C244.264 610.541 243.689 610.348 242.963 610.348C241.92 610.348 241.164 610.781 240.695 611.648C240.238 612.516 240.01 613.799 240.01 615.498ZM276.221 605.584V625.5H271.035L270.174 623.021H269.77C269.359 623.689 268.838 624.234 268.205 624.656C267.584 625.066 266.893 625.365 266.131 625.553C265.369 625.752 264.578 625.852 263.758 625.852C262.457 625.852 261.279 625.6 260.225 625.096C259.182 624.592 258.35 623.801 257.729 622.723C257.119 621.645 256.814 620.256 256.814 618.557V605.584H263.688V616.465C263.688 617.754 263.869 618.738 264.232 619.418C264.607 620.086 265.217 620.42 266.061 620.42C266.928 620.42 267.596 620.186 268.064 619.717C268.545 619.248 268.879 618.557 269.066 617.643C269.254 616.729 269.348 615.615 269.348 614.303V605.584H276.221ZM292.99 605.232C293.365 605.232 293.758 605.262 294.168 605.32C294.578 605.367 294.883 605.408 295.082 605.443L294.467 611.93C294.244 611.871 293.957 611.824 293.605 611.789C293.254 611.742 292.762 611.719 292.129 611.719C291.695 611.719 291.232 611.76 290.74 611.842C290.248 611.924 289.779 612.1 289.334 612.369C288.9 612.627 288.543 613.025 288.262 613.564C287.98 614.092 287.84 614.807 287.84 615.709V625.5H280.967V605.584H286.082L287.154 608.766H287.488C287.852 608.109 288.314 607.518 288.877 606.99C289.451 606.451 290.09 606.023 290.793 605.707C291.508 605.391 292.24 605.232 292.99 605.232ZM324.367 625.5L322.275 616.781C322.17 616.336 322.064 615.832 321.959 615.27C321.854 614.695 321.748 614.121 321.643 613.547C321.549 612.973 321.467 612.445 321.396 611.965C321.326 611.484 321.273 611.109 321.238 610.84H321.133C321.098 611.109 321.039 611.49 320.957 611.982C320.875 612.463 320.781 612.996 320.676 613.582C320.57 614.168 320.453 614.766 320.324 615.375C320.207 615.973 320.09 616.529 319.973 617.045L317.951 625.5H310.727L305.295 605.584H312.062L313.68 613.23C313.797 613.793 313.914 614.467 314.031 615.252C314.16 616.025 314.271 616.816 314.365 617.625C314.471 618.422 314.541 619.137 314.576 619.77H314.682C314.705 619.289 314.758 618.738 314.84 618.117C314.934 617.484 315.033 616.857 315.139 616.236C315.256 615.615 315.361 615.07 315.455 614.602C315.549 614.121 315.613 613.793 315.648 613.617L317.494 605.584H325.088L326.775 613.723C326.881 614.18 326.998 614.766 327.127 615.48C327.268 616.184 327.396 616.922 327.514 617.695C327.643 618.457 327.736 619.148 327.795 619.77H327.9C327.947 619.125 328.018 618.393 328.111 617.572C328.205 616.752 328.311 615.955 328.428 615.182C328.557 614.396 328.68 613.746 328.797 613.23L330.555 605.584H337.182L331.715 625.5H324.367ZM359.014 615.498C359.014 617.162 358.785 618.639 358.328 619.928C357.871 621.217 357.209 622.301 356.342 623.18C355.475 624.059 354.426 624.727 353.195 625.184C351.965 625.629 350.576 625.852 349.029 625.852C347.588 625.852 346.264 625.629 345.057 625.184C343.861 624.727 342.818 624.059 341.928 623.18C341.037 622.301 340.346 621.217 339.854 619.928C339.373 618.639 339.133 617.162 339.133 615.498C339.133 613.295 339.531 611.432 340.328 609.908C341.137 608.385 342.285 607.225 343.773 606.428C345.273 605.631 347.061 605.232 349.135 605.232C351.045 605.232 352.744 605.631 354.232 606.428C355.721 607.225 356.887 608.385 357.73 609.908C358.586 611.432 359.014 613.295 359.014 615.498ZM346.111 615.498C346.111 616.635 346.211 617.596 346.41 618.381C346.609 619.154 346.926 619.746 347.359 620.156C347.805 620.555 348.385 620.754 349.1 620.754C349.814 620.754 350.383 620.555 350.805 620.156C351.227 619.746 351.531 619.154 351.719 618.381C351.918 617.596 352.018 616.635 352.018 615.498C352.018 614.361 351.918 613.412 351.719 612.65C351.531 611.889 351.221 611.314 350.787 610.928C350.365 610.541 349.791 610.348 349.064 610.348C348.021 610.348 347.266 610.781 346.797 611.648C346.34 612.516 346.111 613.799 346.111 615.498ZM374.975 605.232C375.35 605.232 375.742 605.262 376.152 605.32C376.562 605.367 376.867 605.408 377.066 605.443L376.451 611.93C376.229 611.871 375.941 611.824 375.59 611.789C375.238 611.742 374.746 611.719 374.113 611.719C373.68 611.719 373.217 611.76 372.725 611.842C372.232 611.924 371.764 612.1 371.318 612.369C370.885 612.627 370.527 613.025 370.246 613.564C369.965 614.092 369.824 614.807 369.824 615.709V625.5H362.951V605.584H368.066L369.139 608.766H369.473C369.836 608.109 370.299 607.518 370.861 606.99C371.436 606.451 372.074 606.023 372.777 605.707C373.492 605.391 374.225 605.232 374.975 605.232ZM386.77 598.148V608.906C386.77 609.715 386.734 610.617 386.664 611.613C386.605 612.598 386.512 613.494 386.383 614.303H386.523C386.793 613.893 387.133 613.377 387.543 612.756C387.953 612.135 388.322 611.619 388.65 611.209L393.115 605.584H400.779L393.871 614.057L401.219 625.5H393.361L389.002 618.363L386.77 620.068V625.5H379.861V598.148H386.77ZM409.357 616.43H403.557L402.66 599.801H410.254L409.357 616.43ZM402.73 622.582C402.73 621.34 403.094 620.467 403.82 619.963C404.559 619.459 405.432 619.207 406.439 619.207C407.436 619.207 408.291 619.459 409.006 619.963C409.721 620.467 410.078 621.34 410.078 622.582C410.078 623.766 409.721 624.621 409.006 625.148C408.291 625.676 407.436 625.939 406.439 625.939C405.432 625.939 404.559 625.676 403.82 625.148C403.094 624.621 402.73 623.766 402.73 622.582Z" fill="#473245"/>
</svg>
