<svg width="949" height="601" viewBox="0 0 949 601" fill="none" xmlns="http://www.w3.org/2000/svg">
<path d="M495.747 0L232 246.091V290.017L495.747 601H949V0H495.747Z" fill="#1E0F1C"/>
<path d="M108.626 241.796C108.626 241.872 108.626 241.948 108.664 241.985L108.626 241.796Z" fill="#464646"/>
<path d="M96.6917 246.64C96.6917 246.564 96.7295 246.488 96.7295 246.413L96.6917 246.64Z" fill="#464646"/>
<path d="M109.119 246.299C109.119 246.413 109.119 246.526 109.157 246.602L109.119 246.299Z" fill="#464646"/>
<path d="M59.1061 245.164H91.0084L91.463 242.704H57.8937C53.6502 242.704 50.1644 246.148 50.1644 250.424V260.565L52.6272 258.862V251.672C52.6272 248.04 55.5067 245.164 59.1061 245.164Z" fill="#473245"/>
<path d="M50.1644 271.009V290.118C50.1644 290.685 50.6949 291.14 51.3769 291.14C52.0589 291.14 52.5893 290.685 52.5893 290.118V268.814C51.6421 269.571 50.7706 270.403 50.1644 271.009Z" fill="#473245"/>
<path d="M231.462 246.602C230.325 245.883 228.961 245.959 227.938 246.753L208.956 263.743V250.386C208.956 246.148 205.508 242.667 201.226 242.667H114.424L114.727 245.126H200.014C203.613 245.126 206.493 248.04 206.493 251.597V265.976C206.493 266.43 206.72 266.846 207.137 267.035C207.516 267.263 208.009 267.225 208.387 266.998L229.302 248.759C229.34 248.721 229.378 248.683 229.416 248.683C229.643 248.494 229.908 248.532 230.022 248.607C230.136 248.645 230.325 248.797 230.325 249.099V287.999C230.325 288.264 230.173 288.415 230.06 288.491C229.946 288.566 229.757 288.642 229.529 288.529L216.761 282.171C216.761 282.171 214.98 281.301 211.76 279.788C205.963 277.063 203.007 275.966 196.642 276.647C194.444 276.874 192.133 277.177 189.822 277.479C185.692 278.009 181.449 278.539 177.887 278.69C167.013 279.409 162.277 276.079 158.488 273.393C156.101 271.69 154.017 270.214 151.062 270.328C146.856 270.479 145.076 275.02 143.484 279.031C142.12 282.55 140.832 285.842 138.445 286.031C138.407 286.031 138.369 286.031 138.256 285.955C136.437 284.366 135.907 274.982 135.528 268.133C134.921 257.424 134.467 251.294 131.815 250.159C131.17 249.894 130.185 249.78 129.011 250.764C125.525 253.64 125.07 262.154 124.578 271.16C124.047 280.582 123.479 291.253 119.236 292.35C118.023 292.653 117.114 292.54 116.356 291.972C113.098 289.512 112.908 279.371 112.719 270.403C112.643 267.338 112.605 264.197 112.416 261.246C112.34 259.695 112.226 258.105 112.15 256.516C111.961 252.997 111.771 249.553 111.506 246.337L111.052 242.061C110.294 236.272 109.043 231.655 106.505 229.385C105.33 228.325 103.891 227.833 102.337 227.947C98.4347 228.174 96.4266 234.001 94.8731 242.137L94.0017 247.245C93.6986 249.251 93.3955 251.294 93.0545 253.375C91.8042 261.814 90.5538 270.555 88.3184 274.528C85.9314 278.804 84.1885 280.658 82.4836 280.771C79.945 280.923 76.3077 277.441 70.2076 269.079C66.0399 263.365 62.1753 260.451 58.3485 260.186C58.1212 260.186 57.9317 260.149 57.7423 260.149C55.9236 260.149 54.2186 260.754 52.6652 261.662C52.2484 261.927 51.0739 262.684 50.013 263.592C48.9142 264.5 47.8912 265.522 46.8683 266.581C45.239 268.246 41.0334 272.901 39.6694 274.641C36.07 278.463 32.2811 281.301 16.2921 283.42C15.6101 283.496 15.1555 284.139 15.2313 284.782C15.307 285.464 15.9133 285.918 16.5952 285.842C31.9022 283.836 36.9793 281.036 41.526 276.231C42.8899 274.49 47.0577 269.873 48.6111 268.284C48.8385 268.057 49.0279 267.868 49.2552 267.679C49.3689 267.565 49.5583 267.376 49.7099 267.225C49.8236 267.111 50.0509 266.884 50.0509 266.884C50.9602 266.052 52.0969 265.106 52.5137 264.765C52.5515 264.727 52.5894 264.727 52.6273 264.689L52.6652 264.652C54.5596 263.251 56.3025 262.495 58.1969 262.646C61.228 262.873 64.5244 265.446 68.2374 270.555C75.1332 280.015 79.0357 283.458 82.6351 283.231C85.7799 283.042 88.0153 280.09 90.478 275.739C92.9029 271.387 94.1911 262.797 95.5172 253.754C95.8582 251.521 96.1992 249.061 96.616 246.64L96.6539 246.413C96.7297 245.996 96.8054 245.58 96.8433 245.164L97.2601 242.704C98.5104 236.12 100.14 230.52 102.451 230.369C103.36 230.331 104.118 230.558 104.838 231.201C106.732 232.904 107.831 236.915 108.513 241.796L108.551 241.985C108.589 242.212 108.627 242.439 108.665 242.667H108.627L108.892 245.126H108.93C108.968 245.505 109.006 245.883 109.043 246.299L109.081 246.602C109.347 249.856 109.536 253.3 109.725 256.629C109.801 258.219 109.877 259.808 109.991 261.359C110.18 264.235 110.218 267.376 110.294 270.403C110.521 280.847 110.711 290.685 114.916 293.864C115.826 294.545 116.886 294.924 118.099 294.924C118.667 294.924 119.273 294.848 119.88 294.696C125.828 293.145 126.434 282.512 127.041 271.274C127.457 263.554 127.95 254.813 130.602 252.618C130.792 252.467 130.905 252.429 130.905 252.391C132.269 253.375 132.8 262.305 133.141 268.246C133.747 278.993 134.277 285.653 136.702 287.772C137.271 288.264 137.99 288.529 138.71 288.453C142.651 288.15 144.28 283.95 145.871 279.901C147.273 276.268 148.637 272.825 151.251 272.749C153.373 272.674 154.964 273.809 157.162 275.36C161.027 278.085 166.331 281.869 178.039 281.112C181.638 280.998 185.957 280.431 190.163 279.901C192.436 279.598 194.748 279.296 196.945 279.069C202.856 278.463 205.356 279.485 210.737 281.982C213.919 283.458 215.7 284.328 215.7 284.328L228.317 290.61C229.15 291.026 230.136 291.14 231.007 290.761C232.144 290.269 232.826 289.21 232.826 287.999V249.251C232.788 248.229 232.333 247.207 231.462 246.602Z" fill="#473245"/>
<path d="M52.7408 264.652L52.7787 264.614L52.7408 264.652Z" fill="#464646"/>
<path d="M19.5507 342.186H22.7712C24.5898 342.186 25.8402 342.261 26.4843 342.413C27.3936 342.64 28.1514 343.094 28.7197 343.775C29.288 344.456 29.5911 345.326 29.5911 346.348C29.5911 347.37 29.288 348.24 28.7197 348.921C28.1514 349.602 27.3557 350.056 26.3706 350.283C25.6507 350.435 24.2867 350.548 22.2786 350.548H21.142V357.776H19.5507V342.186ZM21.142 343.699V348.997L23.87 349.035C24.9687 349.035 25.7644 348.921 26.2948 348.732C26.7874 348.543 27.2042 348.24 27.5073 347.786C27.8104 347.37 27.9619 346.878 27.9619 346.348C27.9619 345.818 27.8104 345.364 27.5073 344.91C27.2042 344.494 26.8253 344.153 26.3706 344.002C25.8781 343.813 25.1203 343.737 24.0215 343.737H21.142V343.699Z" fill="#473245"/>
<path d="M40.4272 342.186H43.6478C45.4285 342.186 46.641 342.261 47.2851 342.413C48.2323 342.64 49.028 343.094 49.5963 343.775C50.2025 344.456 50.5056 345.326 50.5056 346.348C50.5056 347.181 50.3162 347.937 49.8994 348.581C49.4826 349.224 48.9143 349.716 48.1186 350.056C47.3609 350.397 46.3 350.548 44.936 350.548L50.733 357.776H48.7627L42.9658 350.548H42.0565V357.776H40.4651V342.186H40.4272ZM42.0186 343.699V348.997L44.7844 349.035C45.8453 349.035 46.641 348.921 47.1714 348.732C47.7019 348.543 48.0807 348.202 48.3839 347.786C48.687 347.37 48.8006 346.878 48.8006 346.348C48.8006 345.818 48.6491 345.364 48.346 344.91C48.0429 344.494 47.664 344.191 47.2093 344.002C46.7168 343.813 45.959 343.737 44.8602 343.737H42.0186V343.699Z" fill="#473245"/>
<path d="M69.0711 341.769C71.496 341.769 73.542 342.564 75.1712 344.115C76.8004 345.705 77.634 347.635 77.634 349.943C77.634 352.213 76.8004 354.143 75.1712 355.732C73.542 357.322 71.5339 358.116 69.1848 358.116C66.7978 358.116 64.7897 357.322 63.1605 355.732C61.5313 354.143 60.6978 352.251 60.6978 349.981C60.6978 348.467 61.0766 347.105 61.8344 345.818C62.5922 344.532 63.6152 343.548 64.9034 342.829C66.1916 342.148 67.5935 341.769 69.0711 341.769ZM69.1469 343.283C67.9724 343.283 66.8357 343.586 65.7748 344.191C64.7139 344.797 63.8804 345.591 63.2742 346.613C62.668 347.635 62.3648 348.77 62.3648 350.019C62.3648 351.873 63.0468 353.424 64.3351 354.711C65.6612 355.997 67.2525 356.64 69.109 356.64C70.3593 356.64 71.496 356.338 72.5569 355.77C73.6178 355.203 74.4513 354.37 75.0575 353.348C75.6638 352.327 75.9669 351.192 75.9669 349.943C75.9669 348.694 75.6638 347.597 75.0575 346.575C74.4513 345.591 73.6178 344.759 72.5569 344.191C71.5339 343.586 70.3593 343.283 69.1469 343.283Z" fill="#473245"/>
<path d="M112.643 342.186H114.234V351.57C114.234 352.667 114.272 353.386 114.31 353.651C114.386 354.257 114.575 354.786 114.878 355.203C115.181 355.619 115.636 355.959 116.204 356.224C116.811 356.489 117.417 356.641 118.023 356.641C118.554 356.641 119.084 356.527 119.539 356.3C120.031 356.073 120.448 355.77 120.751 355.392C121.092 355.013 121.319 354.521 121.471 353.992C121.585 353.613 121.623 352.781 121.623 351.57V342.186H123.214V351.57C123.214 352.97 123.062 354.067 122.797 354.938C122.532 355.808 121.964 356.527 121.13 357.17C120.296 357.814 119.273 358.116 118.061 358.116C116.773 358.116 115.636 357.814 114.727 357.208C113.817 356.603 113.173 355.808 112.87 354.824C112.681 354.219 112.567 353.121 112.567 351.532V342.186H112.643Z" fill="#473245"/>
<path d="M149.736 345.061L148.486 346.007C147.804 345.137 146.932 344.456 145.947 344.002C144.962 343.548 143.901 343.321 142.727 343.321C141.438 343.321 140.264 343.624 139.165 344.229C138.066 344.834 137.233 345.629 136.627 346.651C136.02 347.672 135.717 348.77 135.717 350.056C135.717 351.948 136.399 353.538 137.725 354.824C139.051 356.111 140.756 356.716 142.802 356.716C145.038 356.716 146.932 355.846 148.448 354.143L149.698 355.089C148.902 356.073 147.879 356.83 146.705 357.397C145.493 357.927 144.166 358.192 142.689 358.192C139.885 358.192 137.65 357.284 136.02 355.467C134.656 353.954 133.974 352.1 133.974 349.905C133.974 347.635 134.808 345.705 136.437 344.153C138.104 342.602 140.15 341.807 142.651 341.807C144.166 341.807 145.493 342.11 146.705 342.678C147.955 343.207 148.978 344.04 149.736 345.061Z" fill="#473245"/>
<path d="M158.867 343.699V342.186H167.695V343.699H164.096V357.738H162.466V343.699H158.867Z" fill="#473245"/>
<path d="M178.456 342.186H180.047V357.738H178.456V342.186Z" fill="#473245"/>
<path d="M198.915 341.769C201.34 341.769 203.386 342.564 205.016 344.115C206.645 345.705 207.478 347.635 207.478 349.943C207.478 352.213 206.645 354.143 205.016 355.732C203.386 357.322 201.378 358.116 199.029 358.116C196.642 358.116 194.634 357.322 193.005 355.732C191.376 354.143 190.542 352.251 190.542 349.981C190.542 348.467 190.921 347.105 191.679 345.818C192.437 344.532 193.46 343.548 194.748 342.829C196.036 342.148 197.4 341.769 198.915 341.769ZM198.991 343.283C197.817 343.283 196.68 343.586 195.619 344.191C194.558 344.797 193.725 345.591 193.119 346.613C192.512 347.635 192.209 348.77 192.209 350.019C192.209 351.873 192.891 353.424 194.179 354.711C195.506 355.997 197.097 356.64 198.953 356.64C200.204 356.64 201.34 356.338 202.401 355.77C203.462 355.203 204.296 354.37 204.902 353.348C205.508 352.327 205.811 351.192 205.811 349.943C205.811 348.694 205.508 347.597 204.902 346.575C204.296 345.591 203.462 344.759 202.401 344.191C201.34 343.586 200.204 343.283 198.991 343.283Z" fill="#473245"/>
<path d="M218.239 357.738V342.186H218.58L229.302 354.105V342.186H230.893V357.738H230.514L219.906 345.932V357.738H218.239Z" fill="#473245"/>
<path d="M240.669 354.862L242.033 354.067C242.98 355.77 244.116 356.641 245.367 356.641C245.897 356.641 246.428 356.527 246.882 356.262C247.337 356.035 247.716 355.695 247.981 355.278C248.246 354.862 248.36 354.446 248.36 353.992C248.36 353.462 248.171 352.97 247.83 352.44C247.337 351.759 246.428 350.927 245.064 349.943C243.738 348.959 242.904 348.24 242.563 347.824C241.995 347.105 241.692 346.31 241.692 345.44C241.692 344.759 241.843 344.153 242.184 343.586C242.525 343.018 242.98 342.602 243.586 342.261C244.192 341.921 244.836 341.769 245.556 341.769C246.314 341.769 247.034 341.959 247.678 342.299C248.322 342.678 249.042 343.321 249.762 344.305L248.436 345.251C247.83 344.456 247.299 343.964 246.882 343.699C246.466 343.434 245.973 343.321 245.48 343.321C244.836 343.321 244.306 343.51 243.889 343.888C243.472 344.267 243.283 344.721 243.283 345.289C243.283 345.629 243.359 345.97 243.51 346.272C243.662 346.575 243.927 346.953 244.306 347.294C244.533 347.483 245.215 348.013 246.39 348.845C247.792 349.829 248.739 350.737 249.269 351.494C249.8 352.289 250.027 353.046 250.027 353.84C250.027 354.976 249.572 355.959 248.701 356.792C247.83 357.624 246.731 358.041 245.48 358.041C244.495 358.041 243.624 357.776 242.828 357.284C242.07 356.868 241.313 356.035 240.669 354.862Z" fill="#473245"/>
<path d="M88.5459 341.921L102.981 347.597C104.194 348.089 104.308 349.64 103.171 350.246L88.7353 357.889C87.6744 358.457 86.3104 357.738 86.3104 356.603V343.283C86.3104 342.223 87.485 341.505 88.5459 341.921Z" fill="#473245"/>
<path d="M22.4678 319.898C22.4678 323.947 25.7641 325.498 29.553 325.498C32.0157 325.498 35.7667 324.817 35.7667 321.714C35.7667 318.422 30.917 317.93 26.2945 316.719C21.5585 315.622 16.7466 313.692 16.7466 308.092C16.7466 301.848 22.9225 298.935 28.6815 298.935C35.3499 298.935 41.4879 301.697 41.4879 308.697H34.6679C34.4406 305.102 31.7505 304.119 28.3405 304.119C26.1051 304.119 23.4908 305.027 23.4908 307.562C23.4908 309.908 25.0063 310.249 33.0387 312.141C35.4257 312.633 42.5109 314.146 42.5109 320.957C42.5109 326.52 37.9642 330.682 29.212 330.682C22.1268 330.682 15.4584 327.39 15.61 319.898H22.4678Z" fill="#473245"/>
<path d="M46.7544 299.654H53.7638V311.27H66.6838V299.654H73.6932V329.963H66.6838V316.909H53.7638V329.963H46.7544V299.654V299.654Z" fill="#473245"/>
<path d="M88.6212 299.654H95.8201L107.755 329.963H100.442L98.0176 323.228H86.0827L83.582 329.963H76.459L88.6212 299.654ZM87.9392 318.271H96.2368L92.2206 307.146H92.1449L87.9392 318.271Z" fill="#473245"/>
<path d="M110.559 299.654H117.53L130.867 319.974H130.943V299.654H137.536V329.963H130.526L117.227 309.681H117.151V329.963H110.559V299.654V299.654Z" fill="#473245"/>
<path d="M143.711 299.654H167.619V305.254H150.759V311.762H166.255V316.946H150.759V324.363H167.998V329.963H143.749V299.654H143.711Z" fill="#473245"/>
<path d="M172.734 299.654H179.743V324.363H195.315V329.963H172.734V299.654Z" fill="#473245"/>
<path d="M199.256 299.654H206.265V324.363H221.838V329.963H199.256V299.654Z" fill="#473245"/>
<path d="M225.778 299.654H249.686V305.254H232.825V311.762H248.322V316.946H232.825V324.363H250.065V329.963H225.816V299.654H225.778Z" fill="#473245"/>
<path d="M26.4836 418H20.8347V401.711H15.7293V397.092H31.5747V401.711H26.4836V418ZM44.4311 418V409.162C44.4311 406.988 43.7876 405.901 42.5005 405.901C41.5853 405.901 40.9084 406.288 40.4698 407.06C40.0408 407.823 39.8263 409.095 39.8263 410.878V418H34.2346V395.748H39.8263V398.908C39.8263 400.338 39.75 401.969 39.5975 403.799H39.8549C40.3888 402.96 41.0228 402.369 41.7569 402.026C42.491 401.683 43.3443 401.511 44.3167 401.511C46.1282 401.511 47.5344 402.035 48.5355 403.084C49.5461 404.123 50.0514 405.582 50.0514 407.46V418H44.4311ZM64.4237 418L63.3512 415.855H63.2368C62.4836 416.789 61.7161 417.428 60.9343 417.771C60.1525 418.114 59.142 418.286 57.9025 418.286C56.3771 418.286 55.1758 417.828 54.2987 416.913C53.4216 415.998 52.9831 414.711 52.9831 413.052C52.9831 411.326 53.5837 410.044 54.785 409.205C55.9862 408.356 57.7262 407.88 60.0048 407.775L62.7076 407.689V407.46C62.7076 406.126 62.0498 405.458 60.7341 405.458C59.5519 405.458 58.0503 405.859 56.2293 406.659L54.6133 402.97C56.5011 401.997 58.8845 401.511 61.7638 401.511C63.8422 401.511 65.4486 402.026 66.5832 403.056C67.7272 404.085 68.2993 405.525 68.2993 407.374V418H64.4237ZM60.2765 414.339C60.9534 414.339 61.5302 414.124 62.0069 413.695C62.4931 413.266 62.7362 412.709 62.7362 412.022V410.764L61.4492 410.821C59.6091 410.888 58.6891 411.565 58.6891 412.852C58.6891 413.843 59.2182 414.339 60.2765 414.339ZM82.3284 418V409.162C82.3284 408.085 82.1711 407.274 81.8565 406.731C81.5514 406.178 81.0556 405.901 80.3692 405.901C79.4253 405.901 78.7436 406.278 78.3242 407.031C77.9047 407.784 77.6949 409.076 77.6949 410.907V418H72.1033V401.797H76.322L77.0228 403.799H77.3517C77.8284 403.037 78.4862 402.465 79.3252 402.083C80.1737 401.702 81.1462 401.511 82.2426 401.511C84.035 401.511 85.4269 402.031 86.4184 403.07C87.4195 404.109 87.92 405.573 87.92 407.46V418H82.3284ZM97.1441 408.89C97.821 407.813 98.3978 406.974 98.8745 406.373L102.507 401.797H108.742L103.122 408.69L109.1 418H102.707L99.1605 412.194L97.3443 413.581V418H91.724V395.748H97.3443V404.5C97.3443 405.997 97.2394 407.46 97.0297 408.89H97.1441ZM116.679 401.797H122.571L125.317 411.093C125.45 411.579 125.541 412.165 125.588 412.852H125.703C125.779 412.194 125.894 411.617 126.046 411.121L128.863 401.797H134.569L128.163 419.03C127.343 421.222 126.332 422.772 125.131 423.677C123.939 424.583 122.38 425.036 120.454 425.036C119.711 425.036 118.948 424.955 118.166 424.793V420.403C118.672 420.517 119.248 420.574 119.897 420.574C120.392 420.574 120.826 420.479 121.198 420.288C121.57 420.097 121.894 419.826 122.171 419.473C122.447 419.13 122.743 418.562 123.057 417.771L116.679 401.797ZM151.988 409.863C151.988 412.513 151.273 414.582 149.843 416.069C148.422 417.547 146.43 418.286 143.865 418.286C141.405 418.286 139.446 417.528 137.987 416.012C136.538 414.496 135.814 412.447 135.814 409.863C135.814 407.222 136.524 405.172 137.944 403.713C139.374 402.245 141.377 401.511 143.951 401.511C145.543 401.511 146.949 401.85 148.169 402.526C149.39 403.203 150.329 404.176 150.987 405.444C151.654 406.702 151.988 408.175 151.988 409.863ZM141.491 409.863C141.491 411.255 141.677 412.318 142.049 413.052C142.421 413.776 143.045 414.139 143.922 414.139C144.79 414.139 145.4 413.776 145.753 413.052C146.115 412.318 146.296 411.255 146.296 409.863C146.296 408.48 146.115 407.436 145.753 406.731C145.39 406.025 144.771 405.673 143.894 405.673C143.035 405.673 142.421 406.025 142.049 406.731C141.677 407.427 141.491 408.471 141.491 409.863ZM166.732 418L166.031 415.984H165.702C165.235 416.727 164.582 417.299 163.743 417.7C162.914 418.091 161.936 418.286 160.811 418.286C159.029 418.286 157.641 417.771 156.65 416.742C155.658 415.702 155.163 414.239 155.163 412.351V401.797H160.754V410.649C160.754 411.708 160.902 412.508 161.198 413.052C161.503 413.595 161.998 413.867 162.685 413.867C163.648 413.867 164.334 413.49 164.744 412.737C165.154 411.975 165.359 410.692 165.359 408.89V401.797H170.951V418H166.732ZM192.316 405.987H188.87V418H183.278V405.987H181.133V403.242L183.392 401.869V401.597C183.392 399.461 183.826 397.926 184.694 396.992C185.571 396.058 186.972 395.591 188.898 395.591C189.642 395.591 190.343 395.648 191.001 395.762C191.668 395.877 192.44 396.077 193.317 396.363L192.116 399.981C191.43 399.79 190.757 399.695 190.1 399.695C189.671 399.695 189.356 399.828 189.156 400.095C188.965 400.353 188.87 400.777 188.87 401.368V401.797H192.316V405.987ZM209.992 409.863C209.992 412.513 209.277 414.582 207.847 416.069C206.426 417.547 204.434 418.286 201.869 418.286C199.409 418.286 197.45 417.528 195.992 416.012C194.542 414.496 193.818 412.447 193.818 409.863C193.818 407.222 194.528 405.172 195.949 403.713C197.379 402.245 199.381 401.511 201.955 401.511C203.547 401.511 204.953 401.85 206.174 402.526C207.394 403.203 208.333 404.176 208.991 405.444C209.658 406.702 209.992 408.175 209.992 409.863ZM199.495 409.863C199.495 411.255 199.681 412.318 200.053 413.052C200.425 413.776 201.049 414.139 201.926 414.139C202.794 414.139 203.404 413.776 203.757 413.052C204.119 412.318 204.3 411.255 204.3 409.863C204.3 408.48 204.119 407.436 203.757 406.731C203.395 406.025 202.775 405.673 201.898 405.673C201.04 405.673 200.425 406.025 200.053 406.731C199.681 407.427 199.495 408.471 199.495 409.863ZM222.977 401.511C223.463 401.511 223.926 401.549 224.364 401.626L224.679 401.683L224.178 406.96C223.721 406.845 223.087 406.788 222.276 406.788C221.056 406.788 220.169 407.069 219.617 407.632C219.064 408.185 218.787 408.986 218.787 410.034V418H213.195V401.797H217.357L218.229 404.386H218.501C218.968 403.528 219.617 402.836 220.446 402.312C221.285 401.778 222.129 401.511 222.977 401.511ZM29.4439 453.023C29.4439 454.758 28.8528 456.069 27.6706 456.956C26.4883 457.843 24.7913 458.286 22.5794 458.286C21.3782 458.286 20.3342 458.219 19.4476 458.086C18.5609 457.962 17.6552 457.728 16.7304 457.385V452.909C17.598 453.29 18.5466 453.605 19.5763 453.853C20.6155 454.101 21.5403 454.225 22.3506 454.225C23.5614 454.225 24.1668 453.948 24.1668 453.395C24.1668 453.109 23.9952 452.856 23.652 452.637C23.3183 452.408 22.3363 451.97 20.706 451.322C19.2187 450.711 18.1796 450.02 17.5885 449.248C16.9974 448.466 16.7018 447.479 16.7018 446.288C16.7018 444.781 17.2834 443.609 18.4465 442.77C19.6096 441.931 21.2542 441.511 23.3803 441.511C24.4481 441.511 25.4492 441.63 26.3835 441.869C27.3273 442.097 28.3046 442.436 29.3151 442.884L27.7993 446.488C27.0556 446.154 26.2691 445.873 25.4396 445.644C24.6102 445.406 23.9333 445.287 23.4089 445.287C22.4936 445.287 22.036 445.511 22.036 445.959C22.036 446.235 22.1933 446.474 22.5079 446.674C22.8321 446.864 23.7569 447.26 25.2823 447.861C26.4168 448.328 27.2606 448.785 27.8136 449.234C28.3761 449.682 28.786 450.211 29.0434 450.821C29.3104 451.422 29.4439 452.156 29.4439 453.023ZM44.0879 458L43.3872 455.984H43.0583C42.5911 456.727 41.938 457.299 41.099 457.7C40.2696 458.091 39.2924 458.286 38.1674 458.286C36.3845 458.286 34.9974 457.771 34.0058 456.742C33.0143 455.702 32.5185 454.239 32.5185 452.351V441.797H38.1102V450.649C38.1102 451.708 38.2579 452.508 38.5535 453.052C38.8586 453.595 39.3543 453.867 40.0408 453.867C41.0037 453.867 41.6901 453.49 42.1001 452.737C42.5101 451.975 42.715 450.692 42.715 448.89V441.797H48.3067V458H44.0879ZM61.8925 458.286C61.0726 458.286 60.3385 458.153 59.6901 457.886C59.0418 457.609 58.3983 457.118 57.7595 456.413H57.5021C57.6737 457.547 57.7595 458.253 57.7595 458.529V465.036H52.1679V441.797H56.7156L57.5021 443.856H57.7595C58.7987 442.293 60.2336 441.511 62.0641 441.511C63.8565 441.511 65.2627 442.255 66.2828 443.742C67.303 445.229 67.813 447.27 67.813 449.863C67.813 452.475 67.2791 454.534 66.2113 456.041C65.1531 457.538 63.7135 458.286 61.8925 458.286ZM60.0191 445.901C59.1992 445.901 58.6224 446.197 58.2887 446.788C57.9645 447.37 57.7881 448.237 57.7595 449.391V449.834C57.7595 451.226 57.9454 452.232 58.3173 452.852C58.6891 453.471 59.2754 453.781 60.0763 453.781C60.7913 453.781 61.3109 453.476 61.6351 452.866C61.9592 452.246 62.1213 451.226 62.1213 449.806C62.1213 448.414 61.9592 447.417 61.6351 446.817C61.3109 446.207 60.7722 445.901 60.0191 445.901ZM80.741 458.286C79.9211 458.286 79.187 458.153 78.5387 457.886C77.8904 457.609 77.2468 457.118 76.608 456.413H76.3506C76.5222 457.547 76.608 458.253 76.608 458.529V465.036H71.0164V441.797H75.5641L76.3506 443.856H76.608C77.6472 442.293 79.0821 441.511 80.9126 441.511C82.705 441.511 84.1112 442.255 85.1314 443.742C86.1515 445.229 86.6615 447.27 86.6615 449.863C86.6615 452.475 86.1276 454.534 85.0599 456.041C84.0016 457.538 82.562 458.286 80.741 458.286ZM78.8676 445.901C78.0477 445.901 77.4709 446.197 77.1372 446.788C76.813 447.37 76.6367 448.237 76.608 449.391V449.834C76.608 451.226 76.794 452.232 77.1658 452.852C77.5376 453.471 78.1239 453.781 78.9248 453.781C79.6398 453.781 80.1594 453.476 80.4836 452.866C80.8077 452.246 80.9698 451.226 80.9698 449.806C80.9698 448.414 80.8077 447.417 80.4836 446.817C80.1594 446.207 79.6208 445.901 78.8676 445.901ZM105.338 449.863C105.338 452.513 104.623 454.582 103.193 456.069C101.773 457.547 99.7802 458.286 97.2156 458.286C94.7558 458.286 92.7966 457.528 91.3379 456.012C89.8888 454.496 89.1642 452.447 89.1642 449.863C89.1642 447.222 89.8745 445.172 91.295 443.713C92.7251 442.245 94.7272 441.511 97.3014 441.511C98.8935 441.511 100.3 441.85 101.52 442.526C102.74 443.203 103.68 444.176 104.337 445.444C105.005 446.702 105.338 448.175 105.338 449.863ZM94.8416 449.863C94.8416 451.255 95.0275 452.318 95.3994 453.052C95.7712 453.776 96.3957 454.139 97.2728 454.139C98.1404 454.139 98.7505 453.776 99.1033 453.052C99.4656 452.318 99.6467 451.255 99.6467 449.863C99.6467 448.48 99.4656 447.436 99.1033 446.731C98.741 446.025 98.1213 445.673 97.2442 445.673C96.3861 445.673 95.7712 446.025 95.3994 446.731C95.0275 447.427 94.8416 448.471 94.8416 449.863ZM118.324 441.511C118.81 441.511 119.272 441.549 119.711 441.626L120.025 441.683L119.525 446.96C119.067 446.845 118.433 446.788 117.623 446.788C116.403 446.788 115.516 447.069 114.963 447.632C114.41 448.185 114.133 448.986 114.133 450.034V458H108.542V441.797H112.703L113.576 444.386H113.847C114.315 443.528 114.963 442.836 115.792 442.312C116.631 441.778 117.475 441.511 118.324 441.511ZM130.236 453.867C130.989 453.867 131.89 453.681 132.939 453.309V457.385C132.186 457.709 131.466 457.938 130.78 458.072C130.103 458.215 129.307 458.286 128.391 458.286C126.513 458.286 125.159 457.828 124.33 456.913C123.501 455.988 123.086 454.573 123.086 452.666V445.987H121.127V443.713L123.615 441.954L125.059 438.551H128.72V441.797H132.696V445.987H128.72V452.294C128.72 453.343 129.226 453.867 130.236 453.867ZM141.391 458H135.799V441.797H141.391V458ZM135.656 437.764C135.656 436.925 135.89 436.301 136.357 435.891C136.824 435.481 137.577 435.276 138.617 435.276C139.656 435.276 140.414 435.486 140.89 435.905C141.367 436.325 141.605 436.944 141.605 437.764C141.605 439.404 140.609 440.224 138.617 440.224C136.643 440.224 135.656 439.404 135.656 437.764ZM155.52 458V449.162C155.52 448.085 155.363 447.274 155.048 446.731C154.743 446.178 154.247 445.901 153.561 445.901C152.617 445.901 151.935 446.278 151.516 447.031C151.096 447.784 150.887 449.076 150.887 450.907V458H145.295V441.797H149.514L150.215 443.799H150.543C151.02 443.037 151.678 442.465 152.517 442.083C153.365 441.702 154.338 441.511 155.434 441.511C157.227 441.511 158.619 442.031 159.61 443.07C160.611 444.109 161.112 445.573 161.112 447.46V458H155.52ZM180.203 441.797V444.5L177.987 445.315C178.292 445.868 178.444 446.512 178.444 447.246C178.444 448.99 177.829 450.344 176.6 451.307C175.379 452.27 173.553 452.752 171.122 452.752C170.522 452.752 170.045 452.713 169.692 452.637C169.559 452.885 169.492 453.119 169.492 453.338C169.492 453.614 169.716 453.829 170.164 453.981C170.612 454.124 171.199 454.196 171.923 454.196H174.612C178.244 454.196 180.06 455.726 180.06 458.787C180.06 460.76 179.217 462.295 177.529 463.391C175.851 464.488 173.492 465.036 170.45 465.036C168.153 465.036 166.379 464.65 165.13 463.878C163.891 463.115 163.271 462.014 163.271 460.574C163.271 458.639 164.472 457.39 166.875 456.827C166.379 456.618 165.945 456.279 165.574 455.812C165.211 455.345 165.03 454.882 165.03 454.425C165.03 453.919 165.168 453.476 165.445 453.095C165.721 452.704 166.298 452.242 167.175 451.708C166.336 451.336 165.674 450.754 165.187 449.963C164.711 449.172 164.472 448.209 164.472 447.074C164.472 445.31 165.073 443.942 166.274 442.97C167.476 441.997 169.192 441.511 171.423 441.511C171.718 441.511 172.228 441.544 172.953 441.611C173.677 441.678 174.211 441.74 174.555 441.797H180.203ZM167.99 460.016C167.99 460.474 168.238 460.841 168.734 461.118C169.23 461.404 169.892 461.547 170.722 461.547C172.076 461.547 173.158 461.375 173.968 461.032C174.788 460.698 175.198 460.264 175.198 459.73C175.198 459.301 174.95 458.996 174.454 458.815C173.959 458.644 173.248 458.558 172.324 458.558H170.136C169.535 458.558 169.025 458.696 168.605 458.972C168.195 459.258 167.99 459.606 167.99 460.016ZM169.749 447.103C169.749 448.762 170.326 449.591 171.48 449.591C172.014 449.591 172.424 449.386 172.71 448.976C173.005 448.566 173.153 447.951 173.153 447.131C173.153 445.453 172.595 444.614 171.48 444.614C170.326 444.614 169.749 445.444 169.749 447.103ZM205.759 449.863C205.759 452.513 205.044 454.582 203.614 456.069C202.193 457.547 200.201 458.286 197.636 458.286C195.176 458.286 193.217 457.528 191.758 456.012C190.309 454.496 189.585 452.447 189.585 449.863C189.585 447.222 190.295 445.172 191.716 443.713C193.146 442.245 195.148 441.511 197.722 441.511C199.314 441.511 200.72 441.85 201.941 442.526C203.161 443.203 204.1 444.176 204.758 445.444C205.425 446.702 205.759 448.175 205.759 449.863ZM195.262 449.863C195.262 451.255 195.448 452.318 195.82 453.052C196.192 453.776 196.816 454.139 197.693 454.139C198.561 454.139 199.171 453.776 199.524 453.052C199.886 452.318 200.067 451.255 200.067 449.863C200.067 448.48 199.886 447.436 199.524 446.731C199.162 446.025 198.542 445.673 197.665 445.673C196.807 445.673 196.192 446.025 195.82 446.731C195.448 447.427 195.262 448.471 195.262 449.863ZM220.503 458L219.802 455.984H219.474C219.006 456.727 218.353 457.299 217.514 457.7C216.685 458.091 215.708 458.286 214.583 458.286C212.8 458.286 211.413 457.771 210.421 456.742C209.43 455.702 208.934 454.239 208.934 452.351V441.797H214.525V450.649C214.525 451.708 214.673 452.508 214.969 453.052C215.274 453.595 215.77 453.867 216.456 453.867C217.419 453.867 218.105 453.49 218.515 452.737C218.925 451.975 219.13 450.692 219.13 448.89V441.797H224.722V458H220.503ZM238.365 441.511C238.851 441.511 239.314 441.549 239.752 441.626L240.067 441.683L239.566 446.96C239.109 446.845 238.475 446.788 237.664 446.788C236.444 446.788 235.557 447.069 235.004 447.632C234.451 448.185 234.175 448.986 234.175 450.034V458H228.583V441.797H232.745L233.617 444.386H233.889C234.356 443.528 235.004 442.836 235.834 442.312C236.673 441.778 237.516 441.511 238.365 441.511ZM30.8739 498L29.0434 490.278L28.6144 487.947L28.3284 486.073H28.2426C27.7754 488.743 27.4608 490.425 27.2987 491.121L25.6541 498H19.7765L15.3575 481.797H20.8633L22.179 488.018C22.5985 490.154 22.8416 491.927 22.9084 493.338H22.9942C23.0228 492.461 23.285 490.792 23.7807 488.333L25.2823 481.797H31.4603L32.8332 488.418C33.2717 490.525 33.5482 492.165 33.6626 493.338H33.7484C33.8056 492.613 33.901 491.712 34.0344 490.635C34.1679 489.548 34.3157 488.676 34.4778 488.018L35.9078 481.797H41.2993L36.8517 498H30.8739ZM59.0609 489.863C59.0609 492.513 58.3459 494.582 56.9158 496.069C55.4952 497.547 53.5026 498.286 50.938 498.286C48.4783 498.286 46.5191 497.528 45.0604 496.012C43.6112 494.496 42.8867 492.447 42.8867 489.863C42.8867 487.222 43.5969 485.172 45.0175 483.713C46.4476 482.245 48.4497 481.511 51.0238 481.511C52.616 481.511 54.0222 481.85 55.2426 482.526C56.4629 483.203 57.402 484.176 58.0599 485.444C58.7272 486.702 59.0609 488.175 59.0609 489.863ZM48.5641 489.863C48.5641 491.255 48.75 492.318 49.1218 493.052C49.4936 493.776 50.1181 494.139 50.9952 494.139C51.8628 494.139 52.473 493.776 52.8257 493.052C53.188 492.318 53.3692 491.255 53.3692 489.863C53.3692 488.48 53.188 487.436 52.8257 486.731C52.4635 486.025 51.8438 485.673 50.9666 485.673C50.1086 485.673 49.4936 486.025 49.1218 486.731C48.75 487.427 48.5641 488.471 48.5641 489.863ZM72.0461 481.511C72.5323 481.511 72.9947 481.549 73.4333 481.626L73.7479 481.683L73.2474 486.96C72.7897 486.845 72.1557 486.788 71.3453 486.788C70.125 486.788 69.2383 487.069 68.6854 487.632C68.1324 488.185 67.8559 488.986 67.8559 490.034V498H62.2643V481.797H66.4258L67.2982 484.386H67.5699C68.0371 483.528 68.6854 482.836 69.5148 482.312C70.3538 481.778 71.1976 481.511 72.0461 481.511ZM81.4417 488.89C82.1186 487.813 82.6954 486.974 83.1721 486.373L86.8046 481.797H93.0397L87.4195 488.69L93.3972 498H87.0048L83.4582 492.194L81.642 493.581V498H76.0217V475.748H81.642V484.5C81.642 485.997 81.5371 487.46 81.3273 488.89H81.4417ZM100.019 490.621H95.2993L94.5699 477.092H100.748L100.019 490.621ZM94.6271 495.626C94.6271 494.758 94.8845 494.086 95.3994 493.61C95.9142 493.123 96.6626 492.88 97.6446 492.88C98.6171 492.88 99.3512 493.123 99.8469 493.61C100.352 494.086 100.605 494.758 100.605 495.626C100.605 496.484 100.343 497.156 99.8183 497.642C99.3035 498.119 98.5789 498.358 97.6446 498.358C96.7007 498.358 95.9619 498.119 95.428 497.642C94.8941 497.156 94.6271 496.484 94.6271 495.626Z" fill="#473245"/>
</svg>
