<svg width="949" height="601" viewBox="0 0 949 601" fill="none" xmlns="http://www.w3.org/2000/svg">
<path d="M495.747 0L232 246.091V290.017L495.747 601H949V0H495.747Z" fill="#1E0F1C"/>
<path d="M108.627 241.796C108.627 241.872 108.627 241.948 108.665 241.985L108.627 241.796Z" fill="#464646"/>
<path d="M96.6919 246.64C96.6919 246.564 96.7298 246.488 96.7298 246.413L96.6919 246.64Z" fill="#464646"/>
<path d="M109.119 246.299C109.119 246.413 109.119 246.526 109.157 246.602L109.119 246.299Z" fill="#464646"/>
<path d="M59.1063 245.164H91.0085L91.4631 242.704H57.8938C53.6503 242.704 50.1646 246.148 50.1646 250.424V260.565L52.6273 258.862V251.672C52.6273 248.04 55.5068 245.164 59.1063 245.164Z" fill="#473245"/>
<path d="M50.1646 271.009V290.118C50.1646 290.685 50.695 291.14 51.377 291.14C52.059 291.14 52.5894 290.685 52.5894 290.118V268.814C51.6422 269.571 50.7708 270.403 50.1646 271.009Z" fill="#473245"/>
<path d="M231.462 246.602C230.325 245.883 228.961 245.959 227.938 246.753L208.956 263.743V250.386C208.956 246.148 205.508 242.667 201.227 242.667H114.424L114.727 245.126H200.014C203.614 245.126 206.493 248.04 206.493 251.597V265.976C206.493 266.43 206.72 266.846 207.137 267.035C207.516 267.263 208.009 267.225 208.388 266.998L229.302 248.759C229.34 248.721 229.378 248.683 229.416 248.683C229.643 248.494 229.908 248.532 230.022 248.607C230.136 248.645 230.325 248.797 230.325 249.099V287.999C230.325 288.264 230.174 288.415 230.06 288.491C229.946 288.566 229.757 288.642 229.529 288.529L216.761 282.171C216.761 282.171 214.98 281.301 211.76 279.788C205.963 277.063 203.007 275.966 196.642 276.647C194.445 276.874 192.133 277.177 189.822 277.479C185.692 278.009 181.449 278.539 177.887 278.69C167.013 279.409 162.277 276.079 158.488 273.393C156.101 271.69 154.017 270.214 151.062 270.328C146.856 270.479 145.076 275.02 143.484 279.031C142.12 282.55 140.832 285.842 138.445 286.031C138.407 286.031 138.369 286.031 138.256 285.955C136.437 284.366 135.907 274.982 135.528 268.133C134.922 257.424 134.467 251.294 131.815 250.159C131.171 249.894 130.185 249.78 129.011 250.764C125.525 253.64 125.07 262.154 124.578 271.16C124.047 280.582 123.479 291.253 119.236 292.35C118.023 292.653 117.114 292.54 116.356 291.972C113.098 289.512 112.908 279.371 112.719 270.403C112.643 267.338 112.605 264.197 112.416 261.246C112.34 259.695 112.226 258.105 112.15 256.516C111.961 252.997 111.772 249.553 111.506 246.337L111.052 242.061C110.294 236.272 109.044 231.655 106.505 229.385C105.331 228.325 103.891 227.833 102.337 227.947C98.4348 228.174 96.4267 234.001 94.8733 242.137L94.0018 247.245C93.6987 249.251 93.3956 251.294 93.0546 253.375C91.8043 261.814 90.5539 270.555 88.3185 274.528C85.9315 278.804 84.1887 280.658 82.4837 280.771C79.9451 280.923 76.3078 277.441 70.2078 269.079C66.04 263.365 62.1754 260.451 58.3486 260.186C58.1213 260.186 57.9319 260.149 57.7424 260.149C55.9238 260.149 54.2188 260.754 52.6653 261.662C52.2486 261.927 51.074 262.684 50.0131 263.592C48.9144 264.5 47.8914 265.522 46.8684 266.581C45.2392 268.246 41.0335 272.901 39.6695 274.641C36.0701 278.463 32.2813 281.301 16.2923 283.42C15.6103 283.496 15.1556 284.139 15.2314 284.782C15.3072 285.464 15.9134 285.918 16.5954 285.842C31.9024 283.836 36.9794 281.036 41.5261 276.231C42.8901 274.49 47.0578 269.873 48.6113 268.284C48.8386 268.057 49.028 267.868 49.2554 267.679C49.369 267.565 49.5585 267.376 49.71 267.225C49.8237 267.111 50.051 266.884 50.051 266.884C50.9603 266.052 52.097 265.106 52.5138 264.765C52.5517 264.727 52.5896 264.727 52.6274 264.689L52.6653 264.652C54.5598 263.251 56.3026 262.495 58.1971 262.646C61.2282 262.873 64.5245 265.446 68.2376 270.555C75.1333 280.015 79.0358 283.458 82.6352 283.231C85.78 283.042 88.0154 280.09 90.4782 275.739C92.903 271.387 94.1913 262.797 95.5174 253.754C95.8584 251.521 96.1994 249.061 96.6161 246.64L96.654 246.413C96.7298 245.996 96.8056 245.58 96.8435 245.164L97.2602 242.704C98.5106 236.12 100.14 230.52 102.451 230.369C103.36 230.331 104.118 230.558 104.838 231.201C106.732 232.904 107.831 236.915 108.513 241.796L108.551 241.985C108.589 242.212 108.627 242.439 108.665 242.667H108.627L108.892 245.126H108.93C108.968 245.505 109.006 245.883 109.044 246.299L109.081 246.602C109.347 249.856 109.536 253.3 109.726 256.629C109.801 258.219 109.877 259.808 109.991 261.359C110.18 264.235 110.218 267.376 110.294 270.403C110.521 280.847 110.711 290.685 114.916 293.864C115.826 294.545 116.887 294.924 118.099 294.924C118.667 294.924 119.274 294.848 119.88 294.696C125.828 293.145 126.434 282.512 127.041 271.274C127.457 263.554 127.95 254.813 130.602 252.618C130.792 252.467 130.905 252.429 130.905 252.391C132.269 253.375 132.8 262.305 133.141 268.246C133.747 278.993 134.277 285.653 136.702 287.772C137.271 288.264 137.991 288.529 138.71 288.453C142.651 288.15 144.28 283.95 145.871 279.901C147.273 276.268 148.637 272.825 151.252 272.749C153.373 272.674 154.965 273.809 157.162 275.36C161.027 278.085 166.331 281.869 178.039 281.112C181.638 280.998 185.958 280.431 190.163 279.901C192.436 279.598 194.748 279.296 196.945 279.069C202.856 278.463 205.356 279.485 210.737 281.982C213.919 283.458 215.7 284.328 215.7 284.328L228.317 290.61C229.151 291.026 230.136 291.14 231.007 290.761C232.144 290.269 232.826 289.21 232.826 287.999V249.251C232.788 248.229 232.333 247.207 231.462 246.602Z" fill="#473245"/>
<path d="M52.741 264.652L52.7789 264.614L52.741 264.652Z" fill="#464646"/>
<path d="M19.5505 342.186H22.7711C24.5897 342.186 25.84 342.261 26.4842 342.413C27.3935 342.64 28.1513 343.094 28.7196 343.775C29.2879 344.456 29.591 345.326 29.591 346.348C29.591 347.37 29.2879 348.24 28.7196 348.921C28.1513 349.602 27.3556 350.056 26.3705 350.283C25.6506 350.435 24.2866 350.548 22.2785 350.548H21.1419V357.776H19.5505V342.186ZM21.1419 343.699V348.997L23.8698 349.035C24.9686 349.035 25.7643 348.921 26.2947 348.732C26.7873 348.543 27.204 348.24 27.5071 347.786C27.8103 347.37 27.9618 346.878 27.9618 346.348C27.9618 345.818 27.8103 345.364 27.5071 344.91C27.204 344.494 26.8252 344.153 26.3705 344.002C25.8779 343.813 25.1202 343.737 24.0214 343.737H21.1419V343.699Z" fill="#473245"/>
<path d="M40.4272 342.186H43.6478C45.4285 342.186 46.641 342.261 47.2851 342.413C48.2323 342.64 49.028 343.094 49.5963 343.775C50.2025 344.456 50.5056 345.326 50.5056 346.348C50.5056 347.181 50.3162 347.937 49.8994 348.581C49.4826 349.224 48.9143 349.716 48.1186 350.056C47.3609 350.397 46.3 350.548 44.936 350.548L50.733 357.776H48.7627L42.9658 350.548H42.0565V357.776H40.4651V342.186H40.4272ZM42.0186 343.699V348.997L44.7844 349.035C45.8453 349.035 46.641 348.921 47.1714 348.732C47.7019 348.543 48.0807 348.202 48.3839 347.786C48.687 347.37 48.8006 346.878 48.8006 346.348C48.8006 345.818 48.6491 345.364 48.346 344.91C48.0429 344.494 47.664 344.191 47.2093 344.002C46.7168 343.813 45.959 343.737 44.8602 343.737H42.0186V343.699Z" fill="#473245"/>
<path d="M69.0711 341.769C71.496 341.769 73.542 342.564 75.1712 344.115C76.8004 345.705 77.634 347.635 77.634 349.943C77.634 352.213 76.8004 354.143 75.1712 355.732C73.542 357.322 71.5339 358.116 69.1848 358.116C66.7978 358.116 64.7897 357.322 63.1605 355.732C61.5313 354.143 60.6978 352.251 60.6978 349.981C60.6978 348.467 61.0766 347.105 61.8344 345.818C62.5922 344.532 63.6152 343.548 64.9034 342.829C66.1916 342.148 67.5935 341.769 69.0711 341.769ZM69.1469 343.283C67.9724 343.283 66.8357 343.586 65.7748 344.191C64.7139 344.797 63.8804 345.591 63.2742 346.613C62.668 347.635 62.3648 348.77 62.3648 350.019C62.3648 351.873 63.0468 353.424 64.3351 354.711C65.6612 355.997 67.2525 356.64 69.109 356.64C70.3593 356.64 71.496 356.338 72.5569 355.77C73.6178 355.203 74.4513 354.37 75.0575 353.348C75.6638 352.327 75.9669 351.192 75.9669 349.943C75.9669 348.694 75.6638 347.597 75.0575 346.575C74.4513 345.591 73.6178 344.759 72.5569 344.191C71.5339 343.586 70.3593 343.283 69.1469 343.283Z" fill="#473245"/>
<path d="M112.643 342.186H114.234V351.57C114.234 352.667 114.272 353.386 114.31 353.651C114.386 354.257 114.575 354.786 114.878 355.203C115.181 355.619 115.636 355.959 116.204 356.224C116.811 356.489 117.417 356.641 118.023 356.641C118.554 356.641 119.084 356.527 119.539 356.3C120.031 356.073 120.448 355.77 120.751 355.392C121.092 355.013 121.319 354.521 121.471 353.992C121.585 353.613 121.623 352.781 121.623 351.57V342.186H123.214V351.57C123.214 352.97 123.062 354.067 122.797 354.938C122.532 355.808 121.964 356.527 121.13 357.17C120.296 357.814 119.273 358.116 118.061 358.116C116.773 358.116 115.636 357.814 114.727 357.208C113.817 356.603 113.173 355.808 112.87 354.824C112.681 354.219 112.567 353.121 112.567 351.532V342.186H112.643Z" fill="#473245"/>
<path d="M149.736 345.061L148.486 346.007C147.804 345.137 146.932 344.456 145.947 344.002C144.962 343.548 143.901 343.321 142.727 343.321C141.438 343.321 140.264 343.624 139.165 344.229C138.066 344.834 137.233 345.629 136.627 346.651C136.02 347.672 135.717 348.77 135.717 350.056C135.717 351.948 136.399 353.538 137.725 354.824C139.051 356.111 140.756 356.716 142.802 356.716C145.038 356.716 146.932 355.846 148.448 354.143L149.698 355.089C148.902 356.073 147.879 356.83 146.705 357.397C145.493 357.927 144.166 358.192 142.689 358.192C139.885 358.192 137.65 357.284 136.02 355.467C134.656 353.954 133.974 352.1 133.974 349.905C133.974 347.635 134.808 345.705 136.437 344.153C138.104 342.602 140.15 341.807 142.651 341.807C144.166 341.807 145.493 342.11 146.705 342.678C147.955 343.207 148.978 344.04 149.736 345.061Z" fill="#473245"/>
<path d="M158.867 343.699V342.186H167.695V343.699H164.096V357.738H162.467V343.699H158.867Z" fill="#473245"/>
<path d="M178.456 342.186H180.047V357.738H178.456V342.186Z" fill="#473245"/>
<path d="M198.915 341.769C201.34 341.769 203.386 342.564 205.015 344.115C206.645 345.705 207.478 347.635 207.478 349.943C207.478 352.213 206.645 354.143 205.015 355.732C203.386 357.322 201.378 358.116 199.029 358.116C196.642 358.116 194.634 357.322 193.005 355.732C191.376 354.143 190.542 352.251 190.542 349.981C190.542 348.467 190.921 347.105 191.679 345.818C192.436 344.532 193.459 343.548 194.748 342.829C196.036 342.148 197.4 341.769 198.915 341.769ZM198.991 343.283C197.817 343.283 196.68 343.586 195.619 344.191C194.558 344.797 193.725 345.591 193.118 346.613C192.512 347.635 192.209 348.77 192.209 350.019C192.209 351.873 192.891 353.424 194.179 354.711C195.505 355.997 197.097 356.64 198.953 356.64C200.204 356.64 201.34 356.338 202.401 355.77C203.462 355.203 204.296 354.37 204.902 353.348C205.508 352.327 205.811 351.192 205.811 349.943C205.811 348.694 205.508 347.597 204.902 346.575C204.296 345.591 203.462 344.759 202.401 344.191C201.34 343.586 200.204 343.283 198.991 343.283Z" fill="#473245"/>
<path d="M218.239 357.738V342.186H218.58L229.302 354.105V342.186H230.893V357.738H230.514L219.906 345.932V357.738H218.239Z" fill="#473245"/>
<path d="M240.668 354.862L242.032 354.067C242.98 355.77 244.116 356.641 245.367 356.641C245.897 356.641 246.428 356.527 246.882 356.262C247.337 356.035 247.716 355.695 247.981 355.278C248.246 354.862 248.36 354.446 248.36 353.992C248.36 353.462 248.17 352.97 247.829 352.44C247.337 351.759 246.428 350.927 245.064 349.943C243.737 348.959 242.904 348.24 242.563 347.824C241.995 347.105 241.691 346.31 241.691 345.44C241.691 344.759 241.843 344.153 242.184 343.586C242.525 343.018 242.98 342.602 243.586 342.261C244.192 341.921 244.836 341.769 245.556 341.769C246.314 341.769 247.034 341.959 247.678 342.299C248.322 342.678 249.042 343.321 249.762 344.305L248.436 345.251C247.829 344.456 247.299 343.964 246.882 343.699C246.465 343.434 245.973 343.321 245.48 343.321C244.836 343.321 244.306 343.51 243.889 343.888C243.472 344.267 243.283 344.721 243.283 345.289C243.283 345.629 243.359 345.97 243.51 346.272C243.662 346.575 243.927 346.953 244.306 347.294C244.533 347.483 245.215 348.013 246.39 348.845C247.791 349.829 248.739 350.737 249.269 351.494C249.8 352.289 250.027 353.046 250.027 353.84C250.027 354.976 249.572 355.959 248.701 356.792C247.829 357.624 246.731 358.041 245.48 358.041C244.495 358.041 243.624 357.776 242.828 357.284C242.07 356.868 241.313 356.035 240.668 354.862Z" fill="#473245"/>
<path d="M88.5457 341.921L102.981 347.597C104.194 348.089 104.307 349.64 103.171 350.246L88.7352 357.889C87.6743 358.457 86.3103 357.738 86.3103 356.603V343.283C86.3103 342.223 87.4849 341.505 88.5457 341.921Z" fill="#473245"/>
<path d="M22.468 319.898C22.468 323.947 25.7644 325.498 29.5532 325.498C32.016 325.498 35.7669 324.817 35.7669 321.714C35.7669 318.422 30.9172 317.93 26.2948 316.719C21.5587 315.622 16.7469 313.692 16.7469 308.092C16.7469 301.848 22.9227 298.935 28.6818 298.935C35.3502 298.935 41.4881 301.697 41.4881 308.697H34.6682C34.4408 305.102 31.7508 304.119 28.3408 304.119C26.1053 304.119 23.491 305.027 23.491 307.562C23.491 309.908 25.0066 310.249 33.039 312.141C35.426 312.633 42.5111 314.146 42.5111 320.957C42.5111 326.52 37.9645 330.682 29.2122 330.682C22.127 330.682 15.4586 327.39 15.6102 319.898H22.468Z" fill="#473245"/>
<path d="M46.7546 299.654H53.764V311.27H66.6841V299.654H73.6934V329.963H66.6841V316.909H53.764V329.963H46.7546V299.654Z" fill="#473245"/>
<path d="M88.6215 299.654H95.8203L107.755 329.963H100.443L98.0179 323.228H86.0829L83.5823 329.963H76.4592L88.6215 299.654ZM87.9395 318.271H96.2371L92.2209 307.146H92.1451L87.9395 318.271Z" fill="#473245"/>
<path d="M110.559 299.654H117.531L130.867 319.974H130.943V299.654H137.536V329.963H130.526L117.227 309.681H117.152V329.963H110.559V299.654Z" fill="#473245"/>
<path d="M143.712 299.654H167.619V305.254H150.759V311.762H166.255V316.946H150.759V324.363H167.998V329.963H143.75V299.654H143.712Z" fill="#473245"/>
<path d="M172.734 299.654H179.744V324.363H195.316V329.963H172.734V299.654Z" fill="#473245"/>
<path d="M199.256 299.654H206.266V324.363H221.838V329.963H199.256V299.654Z" fill="#473245"/>
<path d="M225.778 299.654H249.686V305.254H232.826V311.762H248.322V316.946H232.826V324.363H250.065V329.963H225.816V299.654H225.778Z" fill="#473245"/>
<path d="M28.0957 409.953H39.1875V423.805C37.8633 424.262 36.3457 424.637 34.6348 424.93C32.9238 425.211 31.1309 425.352 29.2559 425.352C26.7832 425.352 24.6152 424.871 22.752 423.91C20.8887 422.949 19.4355 421.49 18.3926 419.533C17.3496 417.564 16.8281 415.08 16.8281 412.08C16.8281 409.385 17.3438 407.059 18.375 405.102C19.4062 403.133 20.9238 401.615 22.9277 400.549C24.9434 399.471 27.4102 398.932 30.3281 398.932C31.9336 398.932 33.457 399.084 34.8984 399.389C36.3398 399.693 37.5938 400.08 38.6602 400.549L36.4629 405.998C35.5371 405.541 34.5762 405.201 33.5801 404.979C32.584 404.744 31.5117 404.627 30.3633 404.627C28.8281 404.627 27.5918 404.973 26.6543 405.664C25.7285 406.355 25.0547 407.281 24.6328 408.441C24.2109 409.59 24 410.861 24 412.256C24 413.85 24.2227 415.197 24.668 416.299C25.125 417.389 25.7871 418.221 26.6543 418.795C27.5332 419.357 28.5938 419.639 29.8359 419.639C30.2461 419.639 30.7441 419.609 31.3301 419.551C31.9277 419.492 32.3789 419.422 32.6836 419.34V415.314H28.0957V409.953ZM56.0449 404.732C56.4199 404.732 56.8125 404.762 57.2227 404.82C57.6328 404.867 57.9375 404.908 58.1367 404.943L57.5215 411.43C57.2988 411.371 57.0117 411.324 56.6602 411.289C56.3086 411.242 55.8164 411.219 55.1836 411.219C54.75 411.219 54.2871 411.26 53.7949 411.342C53.3027 411.424 52.834 411.6 52.3887 411.869C51.9551 412.127 51.5977 412.525 51.3164 413.064C51.0352 413.592 50.8945 414.307 50.8945 415.209V425H44.0215V405.084H49.1367L50.209 408.266H50.543C50.9062 407.609 51.3691 407.018 51.9316 406.49C52.5059 405.951 53.1445 405.523 53.8477 405.207C54.5625 404.891 55.2949 404.732 56.0449 404.732ZM70.6523 404.732C73.1719 404.732 75.1406 405.359 76.5586 406.613C77.9766 407.855 78.6855 409.631 78.6855 411.939V425H73.9219L72.6035 422.363H72.4629C71.9004 423.066 71.3203 423.641 70.7227 424.086C70.1367 424.52 69.4629 424.836 68.7012 425.035C67.9395 425.246 67.0078 425.352 65.9062 425.352C64.7578 425.352 63.7266 425.117 62.8125 424.648C61.8984 424.18 61.1777 423.471 60.6504 422.521C60.123 421.572 59.8594 420.371 59.8594 418.918C59.8594 416.785 60.5977 415.203 62.0742 414.172C63.5508 413.141 65.6895 412.561 68.4902 412.432L71.8125 412.326V412.045C71.8125 411.154 71.5898 410.521 71.1445 410.146C70.7109 409.771 70.125 409.584 69.3867 409.584C68.6016 409.584 67.7227 409.725 66.75 410.006C65.7891 410.275 64.8223 410.627 63.8496 411.061L61.8633 406.525C63.0117 405.939 64.3125 405.494 65.7656 405.189C67.2188 404.885 68.8477 404.732 70.6523 404.732ZM71.8477 416.105L70.2656 416.176C69 416.223 68.1094 416.445 67.5938 416.844C67.0898 417.23 66.8379 417.787 66.8379 418.514C66.8379 419.193 67.0195 419.697 67.3828 420.025C67.7461 420.342 68.2266 420.5 68.8242 420.5C69.6562 420.5 70.3652 420.236 70.9512 419.709C71.5488 419.182 71.8477 418.496 71.8477 417.652V416.105ZM92.4316 425.352C90.416 425.352 88.6641 424.994 87.1758 424.279C85.6875 423.553 84.5332 422.439 83.7129 420.939C82.9043 419.428 82.5 417.494 82.5 415.139C82.5 412.725 82.9512 410.75 83.8535 409.215C84.7676 407.68 86.0156 406.549 87.5977 405.822C89.1797 405.096 90.9727 404.732 92.9766 404.732C94.1953 404.732 95.3496 404.867 96.4395 405.137C97.541 405.406 98.5605 405.775 99.498 406.244L97.4766 411.324C96.6562 410.961 95.8887 410.674 95.1738 410.463C94.4707 410.24 93.7383 410.129 92.9766 410.129C92.2852 410.129 91.6758 410.311 91.1484 410.674C90.6211 411.037 90.2109 411.588 89.918 412.326C89.625 413.053 89.4785 413.979 89.4785 415.104C89.4785 416.252 89.625 417.178 89.918 417.881C90.2227 418.584 90.6387 419.094 91.166 419.41C91.7051 419.727 92.3203 419.885 93.0117 419.885C94.0078 419.885 94.998 419.732 95.9824 419.428C96.9785 419.111 97.9219 418.678 98.8125 418.127V423.594C97.9922 424.133 97.0664 424.561 96.0352 424.877C95.0039 425.193 93.8027 425.352 92.4316 425.352ZM109.676 405.084V425H102.803V405.084H109.676ZM106.266 397.068C107.25 397.068 108.105 397.273 108.832 397.684C109.57 398.094 109.939 398.908 109.939 400.127C109.939 401.311 109.57 402.113 108.832 402.535C108.105 402.945 107.25 403.15 106.266 403.15C105.258 403.15 104.396 402.945 103.682 402.535C102.979 402.113 102.627 401.311 102.627 400.127C102.627 398.908 102.979 398.094 103.682 397.684C104.396 397.273 105.258 397.068 106.266 397.068ZM124.195 404.732C126.715 404.732 128.684 405.359 130.102 406.613C131.52 407.855 132.229 409.631 132.229 411.939V425H127.465L126.146 422.363H126.006C125.443 423.066 124.863 423.641 124.266 424.086C123.68 424.52 123.006 424.836 122.244 425.035C121.482 425.246 120.551 425.352 119.449 425.352C118.301 425.352 117.27 425.117 116.355 424.648C115.441 424.18 114.721 423.471 114.193 422.521C113.666 421.572 113.402 420.371 113.402 418.918C113.402 416.785 114.141 415.203 115.617 414.172C117.094 413.141 119.232 412.561 122.033 412.432L125.355 412.326V412.045C125.355 411.154 125.133 410.521 124.688 410.146C124.254 409.771 123.668 409.584 122.93 409.584C122.145 409.584 121.266 409.725 120.293 410.006C119.332 410.275 118.365 410.627 117.393 411.061L115.406 406.525C116.555 405.939 117.855 405.494 119.309 405.189C120.762 404.885 122.391 404.732 124.195 404.732ZM125.391 416.105L123.809 416.176C122.543 416.223 121.652 416.445 121.137 416.844C120.633 417.23 120.381 417.787 120.381 418.514C120.381 419.193 120.562 419.697 120.926 420.025C121.289 420.342 121.77 420.5 122.367 420.5C123.199 420.5 123.908 420.236 124.494 419.709C125.092 419.182 125.391 418.496 125.391 417.652V416.105ZM151.705 418.883C151.705 420.148 151.424 421.268 150.861 422.24C150.299 423.213 149.396 423.975 148.154 424.525C146.924 425.076 145.301 425.352 143.285 425.352C141.867 425.352 140.596 425.275 139.471 425.123C138.357 424.971 137.227 424.678 136.078 424.244V418.742C137.332 419.316 138.609 419.732 139.91 419.99C141.211 420.236 142.236 420.359 142.986 420.359C143.76 420.359 144.322 420.277 144.674 420.113C145.037 419.938 145.219 419.68 145.219 419.34C145.219 419.047 145.096 418.801 144.85 418.602C144.615 418.391 144.188 418.15 143.566 417.881C142.957 417.611 142.096 417.248 140.982 416.791C139.881 416.334 138.961 415.836 138.223 415.297C137.496 414.758 136.951 414.113 136.588 413.363C136.225 412.613 136.043 411.693 136.043 410.604C136.043 408.658 136.793 407.193 138.293 406.209C139.793 405.225 141.779 404.732 144.252 404.732C145.564 404.732 146.801 404.879 147.961 405.172C149.121 405.453 150.322 405.869 151.564 406.42L149.684 410.85C148.699 410.404 147.703 410.047 146.695 409.777C145.688 409.508 144.885 409.373 144.287 409.373C143.748 409.373 143.332 409.443 143.039 409.584C142.746 409.725 142.6 409.93 142.6 410.199C142.6 410.445 142.699 410.662 142.898 410.85C143.109 411.037 143.502 411.254 144.076 411.5C144.65 411.746 145.488 412.092 146.59 412.537C147.75 413.006 148.705 413.51 149.455 414.049C150.217 414.576 150.779 415.221 151.143 415.982C151.518 416.744 151.705 417.711 151.705 418.883ZM177.053 404.732C179.256 404.732 180.984 405.617 182.238 407.387C183.492 409.145 184.119 411.682 184.119 414.998C184.119 417.26 183.803 419.164 183.17 420.711C182.537 422.246 181.67 423.406 180.568 424.191C179.479 424.965 178.236 425.352 176.842 425.352C175.904 425.352 175.107 425.234 174.451 425C173.807 424.766 173.268 424.473 172.834 424.121C172.412 423.77 172.055 423.412 171.762 423.049H171.551C171.609 423.506 171.656 423.998 171.691 424.525C171.738 425.053 171.762 425.668 171.762 426.371V433.648H164.889V405.084H170.479L171.445 407.615H171.762C172.09 407.1 172.488 406.625 172.957 406.191C173.426 405.746 173.994 405.395 174.662 405.137C175.342 404.867 176.139 404.732 177.053 404.732ZM174.469 410.129C173.801 410.129 173.273 410.287 172.887 410.604C172.5 410.92 172.219 411.4 172.043 412.045C171.879 412.678 171.785 413.469 171.762 414.418V414.963C171.762 416.018 171.844 416.908 172.008 417.635C172.172 418.35 172.453 418.895 172.852 419.27C173.25 419.633 173.801 419.814 174.504 419.814C175.078 419.814 175.559 419.65 175.945 419.322C176.332 418.994 176.625 418.473 176.824 417.758C177.023 417.043 177.123 416.1 177.123 414.928C177.123 413.182 176.895 411.945 176.438 411.219C175.992 410.492 175.336 410.129 174.469 410.129ZM207.076 414.998C207.076 416.662 206.848 418.139 206.391 419.428C205.934 420.717 205.271 421.801 204.404 422.68C203.537 423.559 202.488 424.227 201.258 424.684C200.027 425.129 198.639 425.352 197.092 425.352C195.65 425.352 194.326 425.129 193.119 424.684C191.924 424.227 190.881 423.559 189.99 422.68C189.1 421.801 188.408 420.717 187.916 419.428C187.436 418.139 187.195 416.662 187.195 414.998C187.195 412.795 187.594 410.932 188.391 409.408C189.199 407.885 190.348 406.725 191.836 405.928C193.336 405.131 195.123 404.732 197.197 404.732C199.107 404.732 200.807 405.131 202.295 405.928C203.783 406.725 204.949 407.885 205.793 409.408C206.648 410.932 207.076 412.795 207.076 414.998ZM194.174 414.998C194.174 416.135 194.273 417.096 194.473 417.881C194.672 418.654 194.988 419.246 195.422 419.656C195.867 420.055 196.447 420.254 197.162 420.254C197.877 420.254 198.445 420.055 198.867 419.656C199.289 419.246 199.594 418.654 199.781 417.881C199.98 417.096 200.08 416.135 200.08 414.998C200.08 413.861 199.98 412.912 199.781 412.15C199.594 411.389 199.283 410.814 198.85 410.428C198.428 410.041 197.854 409.848 197.127 409.848C196.084 409.848 195.328 410.281 194.859 411.148C194.402 412.016 194.174 413.299 194.174 414.998ZM223.037 404.732C223.412 404.732 223.805 404.762 224.215 404.82C224.625 404.867 224.93 404.908 225.129 404.943L224.514 411.43C224.291 411.371 224.004 411.324 223.652 411.289C223.301 411.242 222.809 411.219 222.176 411.219C221.742 411.219 221.279 411.26 220.787 411.342C220.295 411.424 219.826 411.6 219.381 411.869C218.947 412.127 218.59 412.525 218.309 413.064C218.027 413.592 217.887 414.307 217.887 415.209V425H211.014V405.084H216.129L217.201 408.266H217.535C217.898 407.609 218.361 407.018 218.924 406.49C219.498 405.951 220.137 405.523 220.84 405.207C221.555 404.891 222.287 404.732 223.037 404.732ZM27.0938 453.732C29.6133 453.732 31.582 454.359 33 455.613C34.418 456.855 35.127 458.631 35.127 460.939V474H30.3633L29.0449 471.363H28.9043C28.3418 472.066 27.7617 472.641 27.1641 473.086C26.5781 473.52 25.9043 473.836 25.1426 474.035C24.3809 474.246 23.4492 474.352 22.3477 474.352C21.1992 474.352 20.168 474.117 19.2539 473.648C18.3398 473.18 17.6191 472.471 17.0918 471.521C16.5645 470.572 16.3008 469.371 16.3008 467.918C16.3008 465.785 17.0391 464.203 18.5156 463.172C19.9922 462.141 22.1309 461.561 24.9316 461.432L28.2539 461.326V461.045C28.2539 460.154 28.0312 459.521 27.5859 459.146C27.1523 458.771 26.5664 458.584 25.8281 458.584C25.043 458.584 24.1641 458.725 23.1914 459.006C22.2305 459.275 21.2637 459.627 20.291 460.061L18.3047 455.525C19.4531 454.939 20.7539 454.494 22.207 454.189C23.6602 453.885 25.2891 453.732 27.0938 453.732ZM28.2891 465.105L26.707 465.176C25.4414 465.223 24.5508 465.445 24.0352 465.844C23.5312 466.23 23.2793 466.787 23.2793 467.514C23.2793 468.193 23.4609 468.697 23.8242 469.025C24.1875 469.342 24.668 469.5 25.2656 469.5C26.0977 469.5 26.8066 469.236 27.3926 468.709C27.9902 468.182 28.2891 467.496 28.2891 466.652V465.105ZM51.9668 453.732C54.1699 453.732 55.8984 454.617 57.1523 456.387C58.4062 458.145 59.0332 460.682 59.0332 463.998C59.0332 466.26 58.7168 468.164 58.084 469.711C57.4512 471.246 56.584 472.406 55.4824 473.191C54.3926 473.965 53.1504 474.352 51.7559 474.352C50.8184 474.352 50.0215 474.234 49.3652 474C48.7207 473.766 48.1816 473.473 47.748 473.121C47.3262 472.77 46.9688 472.412 46.6758 472.049H46.4648C46.5234 472.506 46.5703 472.998 46.6055 473.525C46.6523 474.053 46.6758 474.668 46.6758 475.371V482.648H39.8027V454.084H45.3926L46.3594 456.615H46.6758C47.0039 456.1 47.4023 455.625 47.8711 455.191C48.3398 454.746 48.9082 454.395 49.5762 454.137C50.2559 453.867 51.0527 453.732 51.9668 453.732ZM49.3828 459.129C48.7148 459.129 48.1875 459.287 47.8008 459.604C47.4141 459.92 47.1328 460.4 46.957 461.045C46.793 461.678 46.6992 462.469 46.6758 463.418V463.963C46.6758 465.018 46.7578 465.908 46.9219 466.635C47.0859 467.35 47.3672 467.895 47.7656 468.27C48.1641 468.633 48.7148 468.814 49.418 468.814C49.9922 468.814 50.4727 468.65 50.8594 468.322C51.2461 467.994 51.5391 467.473 51.7383 466.758C51.9375 466.043 52.0371 465.1 52.0371 463.928C52.0371 462.182 51.8086 460.945 51.3516 460.219C50.9062 459.492 50.25 459.129 49.3828 459.129ZM81.9902 463.998C81.9902 465.662 81.7617 467.139 81.3047 468.428C80.8477 469.717 80.1855 470.801 79.3184 471.68C78.4512 472.559 77.4023 473.227 76.1719 473.684C74.9414 474.129 73.5527 474.352 72.0059 474.352C70.5645 474.352 69.2402 474.129 68.0332 473.684C66.8379 473.227 65.7949 472.559 64.9043 471.68C64.0137 470.801 63.3223 469.717 62.8301 468.428C62.3496 467.139 62.1094 465.662 62.1094 463.998C62.1094 461.795 62.5078 459.932 63.3047 458.408C64.1133 456.885 65.2617 455.725 66.75 454.928C68.25 454.131 70.0371 453.732 72.1113 453.732C74.0215 453.732 75.7207 454.131 77.209 454.928C78.6973 455.725 79.8633 456.885 80.707 458.408C81.5625 459.932 81.9902 461.795 81.9902 463.998ZM69.0879 463.998C69.0879 465.135 69.1875 466.096 69.3867 466.881C69.5859 467.654 69.9023 468.246 70.3359 468.656C70.7812 469.055 71.3613 469.254 72.0762 469.254C72.791 469.254 73.3594 469.055 73.7812 468.656C74.2031 468.246 74.5078 467.654 74.6953 466.881C74.8945 466.096 74.9941 465.135 74.9941 463.998C74.9941 462.861 74.8945 461.912 74.6953 461.15C74.5078 460.389 74.1973 459.814 73.7637 459.428C73.3418 459.041 72.7676 458.848 72.041 458.848C70.998 458.848 70.2422 459.281 69.7734 460.148C69.3164 461.016 69.0879 462.299 69.0879 463.998ZM83.5195 454.084H90.7617L94.1367 465.51C94.1836 465.674 94.2305 465.879 94.2773 466.125C94.3242 466.359 94.3652 466.611 94.4004 466.881C94.4355 467.15 94.459 467.414 94.4707 467.672H94.6113C94.6699 467.191 94.7344 466.775 94.8047 466.424C94.8867 466.061 94.9629 465.768 95.0332 465.545L98.4961 454.084H105.51L97.6348 475.266C97.0254 476.883 96.3164 478.236 95.5078 479.326C94.7109 480.428 93.7207 481.254 92.5371 481.805C91.3652 482.367 89.9062 482.648 88.1602 482.648C87.5273 482.648 86.9824 482.613 86.5254 482.543C86.0801 482.484 85.6875 482.42 85.3477 482.35V476.953C85.6055 477 85.9219 477.047 86.2969 477.094C86.6719 477.141 87.0645 477.164 87.4746 477.164C88.2363 477.164 88.8516 477.012 89.3203 476.707C89.8008 476.402 90.1934 475.998 90.498 475.494C90.8027 475.002 91.0664 474.469 91.2891 473.895L91.3594 473.719L83.5195 454.084ZM117.621 453.732C120.141 453.732 122.109 454.359 123.527 455.613C124.945 456.855 125.654 458.631 125.654 460.939V474H120.891L119.572 471.363H119.432C118.869 472.066 118.289 472.641 117.691 473.086C117.105 473.52 116.432 473.836 115.67 474.035C114.908 474.246 113.977 474.352 112.875 474.352C111.727 474.352 110.695 474.117 109.781 473.648C108.867 473.18 108.146 472.471 107.619 471.521C107.092 470.572 106.828 469.371 106.828 467.918C106.828 465.785 107.566 464.203 109.043 463.172C110.52 462.141 112.658 461.561 115.459 461.432L118.781 461.326V461.045C118.781 460.154 118.559 459.521 118.113 459.146C117.68 458.771 117.094 458.584 116.355 458.584C115.57 458.584 114.691 458.725 113.719 459.006C112.758 459.275 111.791 459.627 110.818 460.061L108.832 455.525C109.98 454.939 111.281 454.494 112.734 454.189C114.188 453.885 115.816 453.732 117.621 453.732ZM118.816 465.105L117.234 465.176C115.969 465.223 115.078 465.445 114.562 465.844C114.059 466.23 113.807 466.787 113.807 467.514C113.807 468.193 113.988 468.697 114.352 469.025C114.715 469.342 115.195 469.5 115.793 469.5C116.625 469.5 117.334 469.236 117.92 468.709C118.518 468.182 118.816 467.496 118.816 466.652V465.105ZM142.354 453.732C142.729 453.732 143.121 453.762 143.531 453.82C143.941 453.867 144.246 453.908 144.445 453.943L143.83 460.43C143.607 460.371 143.32 460.324 142.969 460.289C142.617 460.242 142.125 460.219 141.492 460.219C141.059 460.219 140.596 460.26 140.104 460.342C139.611 460.424 139.143 460.6 138.697 460.869C138.264 461.127 137.906 461.525 137.625 462.064C137.344 462.592 137.203 463.307 137.203 464.209V474H130.33V454.084H135.445L136.518 457.266H136.852C137.215 456.609 137.678 456.018 138.24 455.49C138.814 454.951 139.453 454.523 140.156 454.207C140.871 453.891 141.604 453.732 142.354 453.732ZM169.055 453.732C171.105 453.732 172.781 454.312 174.082 455.473C175.383 456.633 176.033 458.49 176.033 461.045V474H169.16V463.137C169.16 461.812 168.967 460.816 168.58 460.148C168.205 459.469 167.596 459.129 166.752 459.129C165.451 459.129 164.578 459.662 164.133 460.729C163.688 461.783 163.465 463.301 163.465 465.281V474H156.592V454.084H161.777L162.709 456.721H162.973C163.395 456.088 163.898 455.549 164.484 455.104C165.07 454.658 165.744 454.318 166.506 454.084C167.268 453.85 168.117 453.732 169.055 453.732ZM200.08 454.084V474H194.895L194.033 471.521H193.629C193.219 472.189 192.697 472.734 192.064 473.156C191.443 473.566 190.752 473.865 189.99 474.053C189.229 474.252 188.438 474.352 187.617 474.352C186.316 474.352 185.139 474.1 184.084 473.596C183.041 473.092 182.209 472.301 181.588 471.223C180.979 470.145 180.674 468.756 180.674 467.057V454.084H187.547V464.965C187.547 466.254 187.729 467.238 188.092 467.918C188.467 468.586 189.076 468.92 189.92 468.92C190.787 468.92 191.455 468.686 191.924 468.217C192.404 467.748 192.738 467.057 192.926 466.143C193.113 465.229 193.207 464.115 193.207 462.803V454.084H200.08ZM213.791 453.732C215.725 453.732 217.395 454.072 218.801 454.752C220.207 455.42 221.291 456.428 222.053 457.775C222.814 459.123 223.195 460.811 223.195 462.838V465.896H210.908C210.967 466.939 211.354 467.795 212.068 468.463C212.795 469.131 213.861 469.465 215.268 469.465C216.51 469.465 217.646 469.342 218.678 469.096C219.721 468.85 220.793 468.469 221.895 467.953V472.893C220.934 473.396 219.885 473.766 218.748 474C217.611 474.234 216.176 474.352 214.441 474.352C212.438 474.352 210.645 473.994 209.062 473.279C207.48 472.564 206.232 471.457 205.318 469.957C204.416 468.457 203.965 466.529 203.965 464.174C203.965 461.783 204.375 459.82 205.195 458.285C206.016 456.738 207.164 455.596 208.641 454.857C210.117 454.107 211.834 453.732 213.791 453.732ZM214.037 458.408C213.229 458.408 212.549 458.666 211.998 459.182C211.459 459.686 211.143 460.482 211.049 461.572H216.955C216.943 460.986 216.826 460.453 216.604 459.973C216.381 459.492 216.053 459.111 215.619 458.83C215.197 458.549 214.67 458.408 214.037 458.408ZM241.881 467.883C241.881 469.148 241.6 470.268 241.037 471.24C240.475 472.213 239.572 472.975 238.33 473.525C237.1 474.076 235.477 474.352 233.461 474.352C232.043 474.352 230.771 474.275 229.646 474.123C228.533 473.971 227.402 473.678 226.254 473.244V467.742C227.508 468.316 228.785 468.732 230.086 468.99C231.387 469.236 232.412 469.359 233.162 469.359C233.936 469.359 234.498 469.277 234.85 469.113C235.213 468.938 235.395 468.68 235.395 468.34C235.395 468.047 235.271 467.801 235.025 467.602C234.791 467.391 234.363 467.15 233.742 466.881C233.133 466.611 232.271 466.248 231.158 465.791C230.057 465.334 229.137 464.836 228.398 464.297C227.672 463.758 227.127 463.113 226.764 462.363C226.4 461.613 226.219 460.693 226.219 459.604C226.219 457.658 226.969 456.193 228.469 455.209C229.969 454.225 231.955 453.732 234.428 453.732C235.74 453.732 236.977 453.879 238.137 454.172C239.297 454.453 240.498 454.869 241.74 455.42L239.859 459.85C238.875 459.404 237.879 459.047 236.871 458.777C235.863 458.508 235.061 458.373 234.463 458.373C233.924 458.373 233.508 458.443 233.215 458.584C232.922 458.725 232.775 458.93 232.775 459.199C232.775 459.445 232.875 459.662 233.074 459.85C233.285 460.037 233.678 460.254 234.252 460.5C234.826 460.746 235.664 461.092 236.766 461.537C237.926 462.006 238.881 462.51 239.631 463.049C240.393 463.576 240.955 464.221 241.318 464.982C241.693 465.744 241.881 466.711 241.881 467.883ZM255.469 468.92C256.09 468.92 256.658 468.855 257.174 468.727C257.689 468.598 258.229 468.434 258.791 468.234V473.244C258.041 473.572 257.244 473.836 256.4 474.035C255.568 474.246 254.502 474.352 253.201 474.352C251.912 474.352 250.775 474.152 249.791 473.754C248.807 473.344 248.039 472.641 247.488 471.645C246.949 470.637 246.68 469.236 246.68 467.443V459.234H244.271V456.439L247.33 454.277L249.105 450.094H253.605V454.084H258.492V459.234H253.605V466.986C253.605 467.631 253.77 468.117 254.098 468.445C254.426 468.762 254.883 468.92 255.469 468.92ZM274.295 453.732C274.67 453.732 275.062 453.762 275.473 453.82C275.883 453.867 276.188 453.908 276.387 453.943L275.771 460.43C275.549 460.371 275.262 460.324 274.91 460.289C274.559 460.242 274.066 460.219 273.434 460.219C273 460.219 272.537 460.26 272.045 460.342C271.553 460.424 271.084 460.6 270.639 460.869C270.205 461.127 269.848 461.525 269.566 462.064C269.285 462.592 269.145 463.307 269.145 464.209V474H262.271V454.084H267.387L268.459 457.266H268.793C269.156 456.609 269.619 456.018 270.182 455.49C270.756 454.951 271.395 454.523 272.098 454.207C272.812 453.891 273.545 453.732 274.295 453.732ZM298.201 463.998C298.201 465.662 297.973 467.139 297.516 468.428C297.059 469.717 296.396 470.801 295.529 471.68C294.662 472.559 293.613 473.227 292.383 473.684C291.152 474.129 289.764 474.352 288.217 474.352C286.775 474.352 285.451 474.129 284.244 473.684C283.049 473.227 282.006 472.559 281.115 471.68C280.225 470.801 279.533 469.717 279.041 468.428C278.561 467.139 278.32 465.662 278.32 463.998C278.32 461.795 278.719 459.932 279.516 458.408C280.324 456.885 281.473 455.725 282.961 454.928C284.461 454.131 286.248 453.732 288.322 453.732C290.232 453.732 291.932 454.131 293.42 454.928C294.908 455.725 296.074 456.885 296.918 458.408C297.773 459.932 298.201 461.795 298.201 463.998ZM285.299 463.998C285.299 465.135 285.398 466.096 285.598 466.881C285.797 467.654 286.113 468.246 286.547 468.656C286.992 469.055 287.572 469.254 288.287 469.254C289.002 469.254 289.57 469.055 289.992 468.656C290.414 468.246 290.719 467.654 290.906 466.881C291.105 466.096 291.205 465.135 291.205 463.998C291.205 462.861 291.105 461.912 290.906 461.15C290.719 460.389 290.408 459.814 289.975 459.428C289.553 459.041 288.979 458.848 288.252 458.848C287.209 458.848 286.453 459.281 285.984 460.148C285.527 461.016 285.299 462.299 285.299 463.998ZM27.1289 517.92C27.75 517.92 28.3184 517.855 28.834 517.727C29.3496 517.598 29.8887 517.434 30.4512 517.234V522.244C29.7012 522.572 28.9043 522.836 28.0605 523.035C27.2285 523.246 26.1621 523.352 24.8613 523.352C23.5723 523.352 22.4355 523.152 21.4512 522.754C20.4668 522.344 19.6992 521.641 19.1484 520.645C18.6094 519.637 18.3398 518.236 18.3398 516.443V508.234H15.9316V505.439L18.9902 503.277L20.7656 499.094H25.2656V503.084H30.1523V508.234H25.2656V515.986C25.2656 516.631 25.4297 517.117 25.7578 517.445C26.0859 517.762 26.543 517.92 27.1289 517.92ZM45.9551 502.732C46.3301 502.732 46.7227 502.762 47.1328 502.82C47.543 502.867 47.8477 502.908 48.0469 502.943L47.4316 509.43C47.209 509.371 46.9219 509.324 46.5703 509.289C46.2188 509.242 45.7266 509.219 45.0938 509.219C44.6602 509.219 44.1973 509.26 43.7051 509.342C43.2129 509.424 42.7441 509.6 42.2988 509.869C41.8652 510.127 41.5078 510.525 41.2266 511.064C40.9453 511.592 40.8047 512.307 40.8047 513.209V523H33.9316V503.084H39.0469L40.1191 506.266H40.4531C40.8164 505.609 41.2793 505.018 41.8418 504.49C42.416 503.951 43.0547 503.523 43.7578 503.207C44.4727 502.891 45.2051 502.732 45.9551 502.732ZM60.5625 502.732C63.082 502.732 65.0508 503.359 66.4688 504.613C67.8867 505.855 68.5957 507.631 68.5957 509.939V523H63.832L62.5137 520.363H62.373C61.8105 521.066 61.2305 521.641 60.6328 522.086C60.0469 522.52 59.373 522.836 58.6113 523.035C57.8496 523.246 56.918 523.352 55.8164 523.352C54.668 523.352 53.6367 523.117 52.7227 522.648C51.8086 522.18 51.0879 521.471 50.5605 520.521C50.0332 519.572 49.7695 518.371 49.7695 516.918C49.7695 514.785 50.5078 513.203 51.9844 512.172C53.4609 511.141 55.5996 510.561 58.4004 510.432L61.7227 510.326V510.045C61.7227 509.154 61.5 508.521 61.0547 508.146C60.6211 507.771 60.0352 507.584 59.2969 507.584C58.5117 507.584 57.6328 507.725 56.6602 508.006C55.6992 508.275 54.7324 508.627 53.7598 509.061L51.7734 504.525C52.9219 503.939 54.2227 503.494 55.6758 503.189C57.1289 502.885 58.7578 502.732 60.5625 502.732ZM61.7578 514.105L60.1758 514.176C58.9102 514.223 58.0195 514.445 57.5039 514.844C57 515.23 56.748 515.787 56.748 516.514C56.748 517.193 56.9297 517.697 57.293 518.025C57.6562 518.342 58.1367 518.5 58.7344 518.5C59.5664 518.5 60.2754 518.236 60.8613 517.709C61.459 517.182 61.7578 516.496 61.7578 515.652V514.105ZM80.1445 495.648V501.836C80.1445 502.539 80.1211 503.213 80.0742 503.857C80.0273 504.49 79.9688 505.088 79.8984 505.65H80.1445C80.6602 504.842 81.334 504.156 82.166 503.594C82.998 503.02 84.0879 502.732 85.4355 502.732C87.5098 502.732 89.2031 503.611 90.5156 505.369C91.8398 507.127 92.502 509.67 92.502 512.998C92.502 515.26 92.1973 517.164 91.5879 518.711C90.9785 520.246 90.123 521.406 89.0215 522.191C87.9316 522.965 86.666 523.352 85.2246 523.352C83.8184 523.352 82.7461 523.111 82.0078 522.631C81.2812 522.139 80.6602 521.611 80.1445 521.049H79.7227L78.6328 523H73.2715V495.648H80.1445ZM82.9219 508.129C82.2891 508.129 81.7676 508.275 81.3574 508.568C80.9473 508.861 80.6426 509.318 80.4434 509.939C80.2441 510.549 80.1445 511.328 80.1445 512.277V513.244C80.1445 514.791 80.3496 515.939 80.7598 516.689C81.1816 517.439 81.9258 517.814 82.9922 517.814C83.8008 517.814 84.4219 517.398 84.8555 516.566C85.2891 515.734 85.5059 514.521 85.5059 512.928C85.5059 511.334 85.2949 510.139 84.873 509.342C84.4512 508.533 83.8008 508.129 82.9219 508.129ZM106.16 502.732C108.68 502.732 110.648 503.359 112.066 504.613C113.484 505.855 114.193 507.631 114.193 509.939V523H109.43L108.111 520.363H107.971C107.408 521.066 106.828 521.641 106.23 522.086C105.645 522.52 104.971 522.836 104.209 523.035C103.447 523.246 102.516 523.352 101.414 523.352C100.266 523.352 99.2344 523.117 98.3203 522.648C97.4062 522.18 96.6855 521.471 96.1582 520.521C95.6309 519.572 95.3672 518.371 95.3672 516.918C95.3672 514.785 96.1055 513.203 97.582 512.172C99.0586 511.141 101.197 510.561 103.998 510.432L107.32 510.326V510.045C107.32 509.154 107.098 508.521 106.652 508.146C106.219 507.771 105.633 507.584 104.895 507.584C104.109 507.584 103.23 507.725 102.258 508.006C101.297 508.275 100.33 508.627 99.3574 509.061L97.3711 504.525C98.5195 503.939 99.8203 503.494 101.273 503.189C102.727 502.885 104.355 502.732 106.16 502.732ZM107.355 514.105L105.773 514.176C104.508 514.223 103.617 514.445 103.102 514.844C102.598 515.23 102.346 515.787 102.346 516.514C102.346 517.193 102.527 517.697 102.891 518.025C103.254 518.342 103.734 518.5 104.332 518.5C105.164 518.5 105.873 518.236 106.459 517.709C107.057 517.182 107.355 516.496 107.355 515.652V514.105ZM118.359 531.648C117.809 531.648 117.176 531.602 116.461 531.508C115.734 531.426 115.137 531.326 114.668 531.209V525.848C115.043 525.953 115.389 526.029 115.705 526.076C116.021 526.135 116.379 526.164 116.777 526.164C117.34 526.164 117.826 525.965 118.236 525.566C118.658 525.18 118.869 524.383 118.869 523.176V503.084H125.742V524.617C125.742 525.812 125.508 526.943 125.039 528.01C124.57 529.088 123.797 529.961 122.719 530.629C121.641 531.309 120.188 531.648 118.359 531.648ZM118.693 498.127C118.693 496.908 119.045 496.094 119.748 495.684C120.463 495.273 121.324 495.068 122.332 495.068C123.316 495.068 124.172 495.273 124.898 495.684C125.637 496.094 126.006 496.908 126.006 498.127C126.006 499.311 125.637 500.113 124.898 500.535C124.172 500.945 123.316 501.15 122.332 501.15C121.324 501.15 120.463 500.945 119.748 500.535C119.045 500.113 118.693 499.311 118.693 498.127ZM149.561 512.998C149.561 514.662 149.332 516.139 148.875 517.428C148.418 518.717 147.756 519.801 146.889 520.68C146.021 521.559 144.973 522.227 143.742 522.684C142.512 523.129 141.123 523.352 139.576 523.352C138.135 523.352 136.811 523.129 135.604 522.684C134.408 522.227 133.365 521.559 132.475 520.68C131.584 519.801 130.893 518.717 130.4 517.428C129.92 516.139 129.68 514.662 129.68 512.998C129.68 510.795 130.078 508.932 130.875 507.408C131.684 505.885 132.832 504.725 134.32 503.928C135.82 503.131 137.607 502.732 139.682 502.732C141.592 502.732 143.291 503.131 144.779 503.928C146.268 504.725 147.434 505.885 148.277 507.408C149.133 508.932 149.561 510.795 149.561 512.998ZM136.658 512.998C136.658 514.135 136.758 515.096 136.957 515.881C137.156 516.654 137.473 517.246 137.906 517.656C138.352 518.055 138.932 518.254 139.646 518.254C140.361 518.254 140.93 518.055 141.352 517.656C141.773 517.246 142.078 516.654 142.266 515.881C142.465 515.096 142.564 514.135 142.564 512.998C142.564 511.861 142.465 510.912 142.266 510.15C142.078 509.389 141.768 508.814 141.334 508.428C140.912 508.041 140.338 507.848 139.611 507.848C138.568 507.848 137.812 508.281 137.344 509.148C136.887 510.016 136.658 511.299 136.658 512.998ZM159.264 513.93H153.463L152.566 497.301H160.16L159.264 513.93ZM152.637 520.082C152.637 518.84 153 517.967 153.727 517.463C154.465 516.959 155.338 516.707 156.346 516.707C157.342 516.707 158.197 516.959 158.912 517.463C159.627 517.967 159.984 518.84 159.984 520.082C159.984 521.266 159.627 522.121 158.912 522.648C158.197 523.176 157.342 523.439 156.346 523.439C155.338 523.439 154.465 523.176 153.727 522.648C153 522.121 152.637 521.266 152.637 520.082Z" fill="#473245"/>
</svg>
