<svg width="403" height="308" viewBox="0 0 403 308" fill="none" xmlns="http://www.w3.org/2000/svg">
<path d="M82.1496 57.2123C82.1496 51.9303 86.4308 47.6491 91.7128 47.6491H138.695L139.306 44.0352H89.8224C83.5396 44.0352 78.48 49.0947 78.48 55.3775V70.3339L82.094 67.8319V57.2123H82.1496Z" fill="#F48B76"/>
<path d="M78.5356 114.035C78.5356 114.869 79.3696 115.536 80.3148 115.536C81.3156 115.536 82.094 114.869 82.094 114.035V82.6213C80.704 83.7333 79.3696 84.9565 78.48 85.8461V114.035H78.5356Z" fill="#FF6F4D"/>
<path d="M345.582 49.8175C343.914 48.7611 341.912 48.8723 340.411 50.0399L312.444 75.1155V55.4331C312.444 49.1503 307.385 44.0907 301.102 44.0907H173.222L173.667 47.7047H299.323C304.605 47.7047 308.886 51.9859 308.886 57.2679V78.4515C308.886 79.1187 309.219 79.7303 309.831 80.0083C310.387 80.3419 311.11 80.2863 311.666 79.9527L342.524 53.0423C342.579 52.9867 342.635 52.9311 342.691 52.9311C343.024 52.6531 343.413 52.7087 343.58 52.8199C343.747 52.8755 344.081 53.0979 344.081 53.5427V110.922C344.081 111.311 343.858 111.533 343.691 111.645C343.525 111.756 343.247 111.867 342.913 111.7L324.12 102.304C324.12 102.304 321.507 101.025 316.781 98.801C308.219 94.7978 303.882 93.1854 294.541 94.1306C291.261 94.4642 287.869 94.909 284.478 95.3538C278.417 96.1322 272.134 96.9662 266.908 97.133C250.895 98.1894 243.945 93.241 238.33 89.2934C234.771 86.7914 231.769 84.623 227.432 84.7342C221.205 84.9566 218.592 91.6842 216.312 97.5778C214.311 102.749 212.42 107.641 208.862 107.919C208.806 107.919 208.751 107.919 208.584 107.808C205.915 105.473 205.137 91.6286 204.581 81.5094C203.691 65.7191 202.968 56.7119 199.132 54.9883C198.187 54.5991 196.741 54.4323 194.962 55.8779C189.847 60.1035 189.179 72.6691 188.457 86.013C187.678 99.913 186.844 115.648 180.617 117.26C178.838 117.705 177.503 117.538 176.391 116.704C171.61 113.09 171.276 98.1338 170.998 84.901C170.887 80.3975 170.831 75.7271 170.553 71.4459C170.442 69.1663 170.275 66.8311 170.164 64.4959C169.886 59.3251 169.608 54.2099 169.219 49.4839L168.552 43.2011C167.44 34.6944 165.605 27.8 161.824 24.5196C159.878 22.8516 157.821 22.1288 155.486 22.24C149.704 22.5736 146.757 31.1916 144.533 43.1455L143.254 50.7071C142.809 53.6539 142.364 56.6563 141.864 59.7699C140.029 72.2243 138.139 85.1234 134.858 90.9614C131.356 97.2442 128.742 100.024 126.24 100.191C122.515 100.413 117.122 95.2426 108.17 82.955C102.054 74.5039 96.3277 70.2227 90.7121 69.8335C90.3785 69.8335 90.1005 69.7779 89.7669 69.7779C87.0981 69.7779 84.5961 70.6675 82.2609 72.0019C81.6493 72.3911 79.9257 73.5031 78.3133 74.8375C76.7009 76.1719 75.1997 77.6731 73.6985 79.2299C71.3077 81.6762 65.0805 88.515 63.0789 91.1282C57.7969 96.7438 52.1814 100.969 28.607 104.083C27.6062 104.194 26.939 105.139 27.0502 106.085C27.1614 107.085 28.051 107.753 29.0518 107.641C51.6254 104.639 59.0757 100.58 65.8033 93.4634C67.8049 90.9058 73.9765 84.067 76.2561 81.7318C76.5897 81.3982 76.8677 81.1202 77.2013 80.8422C77.3681 80.6754 77.6461 80.3974 77.9241 80.175C78.0909 80.0083 78.4245 79.6747 78.4245 79.6747C79.7589 78.4515 81.4269 77.0059 82.0385 76.5611C82.1497 76.5055 82.2053 76.4499 82.2053 76.3943C82.2053 76.3943 82.2609 76.3943 82.2609 76.3387C85.0409 74.2815 87.6541 73.1695 90.4341 73.3919C94.9377 73.7255 99.7748 77.5063 105.224 85.0122C115.398 98.9678 121.125 104.027 126.407 103.749C131.022 103.471 134.358 99.1346 137.972 92.685C141.586 86.2354 143.421 73.6143 145.367 60.2147C145.867 56.8787 146.368 53.3203 146.979 49.7619C146.979 49.6507 147.035 49.5395 147.035 49.4283L147.368 47.5935L147.98 43.9795C149.815 34.2496 152.261 26.0208 155.653 25.7984C157.043 25.7428 158.155 26.132 159.155 27.0216C161.991 29.5236 163.548 35.4172 164.549 42.6451C164.549 42.7563 164.604 42.8675 164.604 42.9231L164.715 43.9239L165.105 47.5379L165.271 49.2615C165.271 49.4283 165.271 49.5951 165.327 49.7619C165.772 54.5991 165.994 59.6587 166.272 64.5515C166.383 66.8867 166.495 69.2775 166.661 71.5571C166.939 75.7827 166.995 80.4531 167.106 84.901C167.44 100.302 167.718 114.814 173.889 119.484C175.224 120.541 176.836 121.041 178.56 121.041C179.394 121.041 180.283 120.93 181.173 120.707C189.958 118.428 190.792 102.749 191.737 86.1242C192.349 74.7263 193.071 61.8271 196.963 58.6023C197.241 58.3799 197.408 58.3243 197.408 58.2687C199.41 59.7143 200.188 72.8915 200.689 81.6762C201.578 97.5222 202.357 107.363 205.915 110.477C206.749 111.2 207.805 111.589 208.862 111.478C214.644 111.033 217.091 104.861 219.426 98.8566C221.539 93.519 223.485 88.4038 227.321 88.2926C230.435 88.1814 232.77 89.8494 235.994 92.1846C241.721 96.2434 249.561 101.803 266.797 100.691C272.134 100.525 278.473 99.6906 284.644 98.9122C288.036 98.4674 291.372 98.0226 294.597 97.689C303.27 96.7994 306.996 98.3006 314.946 102.026C319.617 104.194 322.23 105.473 322.23 105.473L340.8 114.758C342.023 115.37 343.525 115.537 344.748 114.981C346.416 114.258 347.417 112.645 347.417 110.922V53.7651C347.583 52.2083 346.861 50.7071 345.582 49.8175Z" fill="url(#paint0_linear_381_763)"/>
<path d="M34.4451 186.037H39.1711C41.8954 186.037 43.7302 186.148 44.6754 186.371C46.0098 186.704 47.1218 187.371 48.0114 188.372C48.8454 189.373 49.2902 190.652 49.2902 192.153C49.2902 193.71 48.8454 194.933 48.0114 195.934C47.1774 196.935 46.0098 197.602 44.5642 197.935C43.5078 198.158 41.5063 198.325 38.5595 198.325H36.8915V209H34.4451V186.037ZM36.7803 188.317V196.101L40.7835 196.156C42.3958 196.156 43.619 195.989 44.3418 195.711C45.1202 195.433 45.6762 194.989 46.121 194.321C46.5658 193.71 46.7882 192.987 46.7882 192.153C46.7882 191.375 46.5658 190.707 46.121 190.04C45.6762 189.429 45.1202 188.928 44.3974 188.65C43.6746 188.372 42.5626 188.261 40.9503 188.261H36.7803V188.317Z" fill="white"/>
<path d="M65.1918 186.037H69.9178C72.531 186.037 74.3101 186.148 75.2553 186.371C76.6453 186.704 77.8129 187.371 78.7025 188.372C79.5921 189.373 80.0369 190.652 80.0369 192.153C80.0369 193.376 79.7589 194.488 79.1473 195.433C78.5357 196.379 77.6461 197.101 76.5341 197.602C75.4221 198.102 73.8653 198.325 71.8638 198.325L80.3705 209H77.4237L68.917 198.325H67.5826V209H65.1918V186.037ZM67.527 188.317V196.101L71.5858 196.156C73.1425 196.156 74.3657 195.989 75.0885 195.711C75.8669 195.433 76.4229 194.933 76.8677 194.321C77.3125 193.654 77.4793 192.987 77.4793 192.153C77.4793 191.375 77.2569 190.707 76.8121 190.04C76.3673 189.429 75.8113 188.984 75.1441 188.706C74.4213 188.428 73.3094 188.317 71.6414 188.317H67.527Z" fill="white"/>
<path d="M107.392 185.481C111.006 185.481 114.008 186.649 116.399 188.984C118.846 191.319 120.013 194.155 120.013 197.546C120.013 200.882 118.79 203.773 116.399 206.109C114.008 208.444 111.062 209.611 107.559 209.611C104.056 209.611 101.054 208.444 98.6628 206.109C96.2721 203.773 95.0489 200.938 95.0489 197.657C95.0489 195.433 95.6049 193.432 96.7169 191.541C97.8288 189.651 99.33 188.205 101.22 187.093C103.166 186.037 105.224 185.481 107.392 185.481ZM107.503 187.705C105.724 187.705 104.112 188.15 102.499 189.039C100.887 189.929 99.7192 191.097 98.8296 192.598C97.94 194.099 97.4952 195.767 97.4952 197.602C97.4952 200.326 98.496 202.661 100.442 204.496C102.388 206.387 104.723 207.332 107.503 207.332C109.338 207.332 111.062 206.887 112.618 206.053C114.175 205.163 115.398 203.996 116.288 202.495C117.178 200.993 117.622 199.325 117.622 197.491C117.622 195.656 117.178 194.043 116.288 192.542C115.398 191.041 114.175 189.873 112.563 188.984C110.95 188.094 109.282 187.705 107.503 187.705Z" fill="white"/>
<path d="M171.554 186.037H173.945V199.881C173.945 201.549 174.001 202.55 174.056 202.939C174.167 203.829 174.445 204.607 174.89 205.219C175.335 205.831 176.002 206.331 176.892 206.776C177.781 207.165 178.671 207.387 179.561 207.387C180.339 207.387 181.117 207.221 181.84 206.887C182.563 206.553 183.175 206.109 183.619 205.553C184.12 204.997 184.453 204.274 184.676 203.495C184.843 202.939 184.898 201.716 184.898 199.881V186.037H187.289V199.881C187.289 201.939 187.067 203.607 186.677 204.83C186.288 206.109 185.454 207.221 184.175 208.11C182.952 209.055 181.451 209.5 179.672 209.5C177.781 209.5 176.113 209.055 174.779 208.166C173.389 207.276 172.499 206.109 172.055 204.663C171.777 203.773 171.61 202.161 171.61 199.826V186.037H171.554Z" fill="white"/>
<path d="M226.209 190.318L224.318 191.708C223.262 190.429 222.039 189.429 220.593 188.761C219.148 188.094 217.535 187.761 215.812 187.761C213.921 187.761 212.198 188.205 210.585 189.095C208.973 189.985 207.75 191.152 206.86 192.653C205.971 194.155 205.526 195.823 205.526 197.657C205.526 200.437 206.527 202.773 208.473 204.663C210.474 206.553 212.976 207.499 215.979 207.499C219.315 207.499 222.094 206.22 224.318 203.718L226.209 205.108C225.041 206.553 223.54 207.665 221.761 208.499C219.982 209.278 218.036 209.667 215.867 209.667C211.697 209.667 208.473 208.333 206.082 205.664C204.08 203.384 203.079 200.66 203.079 197.491C203.079 194.155 204.303 191.319 206.749 188.984C209.195 186.704 212.253 185.537 215.867 185.537C218.091 185.537 220.093 185.981 221.872 186.815C223.651 187.594 225.097 188.761 226.209 190.318Z" fill="white"/>
<path d="M239.72 188.317V186.093H252.73V188.317H247.448V209.055H245.057V188.317H239.72Z" fill="white"/>
<path d="M268.52 186.037H270.911V209H268.52V186.037Z" fill="white"/>
<path d="M298.711 185.481C302.325 185.481 305.328 186.649 307.718 188.984C310.165 191.319 311.332 194.155 311.332 197.546C311.332 200.882 310.109 203.773 307.718 206.109C305.328 208.444 302.381 209.611 298.878 209.611C295.375 209.611 292.373 208.444 289.982 206.109C287.591 203.773 286.368 200.938 286.368 197.657C286.368 195.433 286.924 193.432 288.036 191.541C289.148 189.651 290.649 188.205 292.54 187.093C294.43 186.037 296.487 185.481 298.711 185.481ZM298.767 187.705C296.988 187.705 295.375 188.15 293.763 189.039C292.15 189.929 290.983 191.097 290.093 192.598C289.204 194.099 288.759 195.767 288.759 197.602C288.759 200.326 289.76 202.661 291.706 204.496C293.652 206.387 295.987 207.332 298.767 207.332C300.602 207.332 302.325 206.887 303.882 206.053C305.439 205.163 306.662 203.996 307.552 202.495C308.441 200.993 308.886 199.325 308.886 197.491C308.886 195.656 308.441 194.043 307.552 192.542C306.662 191.041 305.439 189.873 303.826 188.984C302.214 188.094 300.602 187.705 298.767 187.705Z" fill="white"/>
<path d="M327.178 209V186.037H327.679L343.469 203.662V186.037H345.804V209H345.248L329.625 191.597V209H327.178Z" fill="white"/>
<path d="M360.149 204.774L362.151 203.607C363.541 206.109 365.209 207.387 367.043 207.387C367.822 207.387 368.6 207.221 369.267 206.831C369.99 206.498 370.491 205.997 370.88 205.386C371.269 204.774 371.436 204.163 371.436 203.44C371.436 202.661 371.158 201.939 370.602 201.16C369.879 200.159 368.489 198.936 366.543 197.491C364.541 196.045 363.318 194.989 362.873 194.377C362.039 193.321 361.595 192.097 361.595 190.874C361.595 189.873 361.817 188.984 362.317 188.15C362.818 187.316 363.485 186.704 364.43 186.204C365.32 185.703 366.32 185.481 367.377 185.481C368.489 185.481 369.545 185.759 370.491 186.259C371.491 186.815 372.492 187.761 373.604 189.206L371.658 190.652C370.768 189.484 369.99 188.761 369.378 188.372C368.767 187.983 368.044 187.816 367.321 187.816C366.376 187.816 365.598 188.094 364.986 188.65C364.374 189.206 364.097 189.929 364.097 190.707C364.097 191.208 364.208 191.708 364.43 192.153C364.652 192.598 365.042 193.154 365.598 193.71C365.931 193.988 366.932 194.766 368.656 195.989C370.713 197.435 372.103 198.769 372.881 199.881C373.66 201.049 374.049 202.161 374.049 203.329C374.049 204.997 373.382 206.442 372.103 207.665C370.824 208.889 369.212 209.5 367.321 209.5C365.876 209.5 364.597 209.111 363.429 208.388C362.262 207.721 361.15 206.498 360.149 204.774Z" fill="white"/>
<path d="M136.081 185.703L157.376 194.043C159.211 194.766 159.322 197.046 157.654 197.991L136.359 209.278C134.747 210.112 132.801 209.055 132.801 207.387V187.761C132.801 186.148 134.525 185.092 136.081 185.703Z" fill="#E7370D"/>
<path d="M38.7818 158.46C38.7818 164.742 43.6745 167.189 49.1789 167.189C52.7929 167.189 58.3529 166.132 58.3529 161.295C58.3529 156.18 51.2361 155.402 44.3973 153.511C37.3918 151.788 30.3306 148.785 30.3306 140.112C30.3306 130.437 39.449 125.878 47.9557 125.878C57.7969 125.878 66.8041 130.159 66.8041 141.057H56.7961C56.4625 135.441 52.5149 133.94 47.5109 133.94C44.2305 133.94 40.3942 135.33 40.3942 139.278C40.3942 142.892 42.6181 143.448 54.4609 146.395C57.9637 147.173 68.4165 149.508 68.4165 160.128C68.4165 168.746 61.6889 175.251 48.8453 175.251C38.4482 175.251 28.607 170.136 28.8294 158.515H38.7818V158.46Z" fill="white"/>
<path d="M74.4768 126.99H84.8184V145.06H103.889V126.99H114.231V174.083H103.889V153.789H84.8184V174.083H74.4768V126.99Z" fill="white"/>
<path d="M136.193 126.99H146.812L164.438 174.083H153.707L150.148 163.575H132.523L128.854 174.083H118.345L136.193 126.99ZM135.192 155.847H147.368L141.419 138.555H141.308L135.192 155.847Z" fill="white"/>
<path d="M168.496 126.99H178.782L198.409 158.571H198.52V126.99H208.195V174.083H197.853L178.282 142.558H178.226V174.083H168.552V126.99H168.496Z" fill="white"/>
<path d="M217.368 126.99H252.563V135.719H227.71V145.783H250.506V153.845H227.71V165.41H253.064V174.139H217.313V126.99H217.368Z" fill="white"/>
<path d="M260.069 126.99H270.411V165.354H293.373V174.083H260.069V126.99Z" fill="white"/>
<path d="M299.212 126.99H309.553V165.354H332.516V174.083H299.212V126.99Z" fill="white"/>
<path d="M338.298 126.99H373.493V135.719H348.64V145.783H371.436V153.845H348.64V165.41H373.993V174.139H338.243V126.99H338.298Z" fill="white"/>
<path d="M34.9959 272.884C35.3079 272.74 35.5839 272.764 35.8239 272.956C36.0639 273.148 36.1719 273.412 36.1479 273.748C36.1479 274.06 35.9919 274.288 35.6799 274.432C34.9599 274.744 34.1199 275.14 33.1599 275.62C34.0959 277.468 34.4319 279.424 34.1679 281.488C33.6879 285.256 31.4559 289.18 27.4719 293.26C23.5839 297.22 19.5399 299.98 15.3399 301.54C11.4279 302.98 8.85991 302.716 7.63591 300.748C5.71591 297.652 7.38391 293.368 12.6399 287.896C17.2479 283.096 23.2719 278.788 30.7119 274.972C30.0159 274.252 29.1639 273.688 28.1559 273.28C27.1719 272.872 26.0679 272.632 24.8439 272.56C23.6199 272.488 22.5159 272.476 21.5319 272.524C20.5479 272.572 19.4079 272.68 18.1119 272.848C17.3919 272.92 16.4559 273.052 15.3039 273.244C14.1519 273.412 13.0599 273.568 12.0279 273.712C11.0199 273.856 10.0839 273.964 9.21991 274.036C8.40391 274.156 7.44391 274.192 6.33991 274.144C5.23591 274.072 4.32391 273.844 3.60391 273.46C2.85991 273.028 2.34391 272.476 2.05591 271.804C1.76791 271.132 1.69591 270.412 1.83991 269.644C2.00791 268.852 2.23591 268.12 2.52391 267.448C2.81191 266.776 3.15991 266.116 3.56791 265.468C6.11191 261.508 10.1439 257.8 15.6639 254.344C18.1119 252.808 20.4759 251.608 22.7559 250.744C25.0359 249.856 27.2799 249.508 29.4879 249.7C32.1519 249.94 33.7719 250.948 34.3479 252.724C34.4679 253.18 34.5399 253.648 34.5639 254.128C34.6119 254.584 34.5639 255.088 34.4199 255.64C34.2999 256.192 34.1919 256.66 34.0959 257.044C33.9999 257.404 33.8079 257.908 33.5199 258.556C33.2319 259.18 33.0279 259.6 32.9079 259.816C32.8119 260.032 32.6079 260.464 32.2959 261.112C32.1279 261.424 31.8759 261.592 31.5399 261.616C31.2279 261.64 30.9759 261.544 30.7839 261.328C30.5919 261.088 30.5679 260.812 30.7119 260.5C30.7839 260.356 30.8919 260.152 31.0359 259.888C31.1799 259.6 31.2999 259.36 31.3959 259.168C31.4919 258.976 31.6119 258.736 31.7559 258.448C31.8999 258.136 32.0199 257.872 32.1159 257.656C32.2119 257.416 32.3199 257.152 32.4399 256.864C32.5599 256.576 32.6439 256.312 32.6919 256.072C32.7639 255.808 32.8239 255.544 32.8719 255.28C32.9199 255.016 32.9319 254.764 32.9079 254.524C32.9079 254.26 32.8839 254.008 32.8359 253.768C32.4759 252.184 31.0839 251.38 28.6599 251.356C26.2599 251.308 23.3319 252.148 19.8759 253.876C16.8039 255.412 13.9239 257.272 11.2359 259.456C8.57191 261.64 6.43591 264.028 4.82791 266.62C3.29191 269.092 3.03991 270.808 4.07191 271.768C4.35991 272.032 4.71991 272.236 5.15191 272.38C5.60791 272.524 6.14791 272.596 6.77191 272.596C7.39591 272.572 7.88791 272.548 8.24791 272.524C8.63191 272.5 9.18391 272.428 9.90391 272.308C10.6479 272.188 11.0679 272.128 11.1639 272.128C11.9319 272.032 13.0359 271.864 14.4759 271.624C15.9159 271.36 17.1399 271.168 18.1479 271.048C19.1799 270.904 20.3319 270.784 21.6039 270.688C22.8759 270.568 24.0879 270.58 25.2399 270.724C26.4159 270.868 27.5199 271.12 28.5519 271.48C30.0399 272.008 31.2759 272.908 32.2599 274.18C33.2439 273.7 34.1559 273.268 34.9959 272.884ZM32.4399 278.464C32.2719 277.696 32.0199 276.988 31.6839 276.34C22.0119 281.188 15.0999 286.588 10.9479 292.54C10.6599 292.948 10.3839 293.368 10.1199 293.8C9.85591 294.232 9.57991 294.76 9.29191 295.384C9.02791 296.032 8.82391 296.632 8.67991 297.184C8.55991 297.736 8.54791 298.288 8.64391 298.84C8.73991 299.392 8.97991 299.848 9.36391 300.208C10.2039 301.024 11.9079 300.976 14.4759 300.064C18.8199 298.528 22.9479 295.672 26.8599 291.496C31.3479 286.672 33.2079 282.328 32.4399 278.464ZM55.0367 281.2C55.2767 281.152 55.4807 281.2 55.6487 281.344C55.8407 281.488 55.9487 281.68 55.9727 281.92C56.0207 282.136 55.9727 282.34 55.8287 282.532C55.4927 282.988 55.0247 283.42 54.4247 283.828C53.8247 284.236 53.1887 284.464 52.5167 284.512C51.6047 284.584 50.7887 284.272 50.0687 283.576C49.7807 283.288 49.5407 282.844 49.3487 282.244C49.1807 281.644 49.0607 281.092 48.9887 280.588C48.9167 280.084 48.8447 279.328 48.7727 278.32C48.5327 275.704 48.2447 274.24 47.9087 273.928C47.2607 274.312 45.7607 276.772 43.4087 281.308C41.9927 284.044 40.9607 285.868 40.3127 286.78C39.6887 287.716 39.1007 288.184 38.5487 288.184C38.5007 288.184 38.4527 288.184 38.4047 288.184C37.8527 288.112 37.4927 287.752 37.3247 287.104C36.9887 285.88 37.4087 282.76 38.5847 277.744C38.5847 277.624 38.6087 277.516 38.6567 277.42C39.1127 275.452 39.6527 273.4 40.2767 271.264C41.0687 268.456 41.8967 265.864 42.7607 263.488C43.6247 261.088 44.4647 259.024 45.2807 257.296C46.0967 255.544 46.8647 254.212 47.5847 253.3C48.4967 252.124 49.3967 251.536 50.2847 251.536C51.1007 251.536 51.6767 251.86 52.0127 252.508C52.3967 253.252 52.3127 254.536 51.7607 256.36C51.2327 258.16 50.4887 260.044 49.5287 262.012C48.5687 263.956 47.3927 266.14 46.0007 268.564C44.6327 270.964 43.5167 272.848 42.6527 274.216C41.8127 275.584 41.0087 276.868 40.2407 278.068C39.8087 279.844 39.4727 281.428 39.2327 282.82C38.9927 284.188 38.8727 285.232 38.8727 285.952C39.4007 285.208 40.4207 283.396 41.9327 280.516C43.7087 277.084 45.0287 274.78 45.8927 273.604C46.7807 272.428 47.6207 271.996 48.4127 272.308C48.7247 272.404 48.9887 272.596 49.2047 272.884C49.4207 273.172 49.5887 273.472 49.7087 273.784C49.8287 274.072 49.9367 274.504 50.0327 275.08C50.1527 275.656 50.2247 276.136 50.2487 276.52C50.2967 276.88 50.3567 277.432 50.4287 278.176C50.6687 280.672 50.9447 282.076 51.2567 282.388C51.5927 282.724 51.9767 282.88 52.4087 282.856C52.7927 282.832 53.1767 282.676 53.5607 282.388C53.9687 282.1 54.2807 281.812 54.4967 281.524C54.6407 281.332 54.8207 281.224 55.0367 281.2ZM48.9167 254.344C47.7407 255.856 46.4927 258.304 45.1727 261.688C43.8767 265.072 42.6767 268.768 41.5727 272.776C43.4447 269.728 45.1007 266.86 46.5407 264.172C47.9807 261.484 49.0727 259.144 49.8167 257.152C50.5847 255.136 50.8247 253.852 50.5367 253.3C50.4887 253.252 50.3927 253.216 50.2487 253.192C49.9367 253.192 49.4927 253.576 48.9167 254.344ZM69.57 277.852C69.81 277.804 70.014 277.852 70.182 277.996C70.374 278.14 70.482 278.332 70.506 278.572C70.554 278.788 70.506 278.992 70.362 279.184C70.194 279.4 69.99 279.64 69.75 279.904C69.534 280.168 69.174 280.552 68.67 281.056C68.166 281.56 67.662 282.004 67.158 282.388C66.654 282.772 66.078 283.108 65.43 283.396C64.782 283.684 64.17 283.828 63.594 283.828C63.018 283.828 62.49 283.684 62.01 283.396C61.29 282.964 60.918 282.184 60.894 281.056C59.286 283.024 57.762 283.816 56.322 283.432C55.146 283.096 54.546 282.268 54.522 280.948C54.498 280.012 54.822 278.896 55.494 277.6C56.19 276.304 57.018 275.152 57.978 274.144C58.938 273.136 59.802 272.524 60.57 272.308C61.242 272.092 61.854 272.152 62.406 272.488C62.718 272.68 62.994 272.968 63.234 273.352C63.234 273.328 63.234 273.316 63.234 273.316C63.234 273.292 63.234 273.28 63.234 273.28C63.354 273.088 63.51 272.956 63.702 272.884C63.918 272.788 64.122 272.788 64.314 272.884C64.53 272.98 64.686 273.136 64.782 273.352C64.878 273.568 64.878 273.772 64.782 273.964C64.446 274.804 64.074 275.656 63.666 276.52C63.138 277.888 62.79 279.064 62.622 280.048C62.478 281.032 62.562 281.668 62.874 281.956C63.21 282.196 63.618 282.244 64.098 282.1C64.578 281.956 65.046 281.752 65.502 281.488C65.958 281.2 66.426 280.84 66.906 280.408C67.41 279.952 67.83 279.544 68.166 279.184C68.502 278.8 68.79 278.452 69.03 278.14C69.174 277.972 69.354 277.876 69.57 277.852ZM62.118 275.836C62.166 275.716 62.226 275.572 62.298 275.404C62.202 275.284 62.13 275.152 62.082 275.008C61.986 274.456 61.794 274.096 61.506 273.928C61.458 273.88 61.398 273.856 61.326 273.856C61.254 273.856 61.17 273.868 61.074 273.892C60.186 274.156 59.142 275.128 57.942 276.808C56.766 278.488 56.19 279.868 56.214 280.948C56.214 281.404 56.406 281.692 56.79 281.812C57.486 282.004 58.314 281.512 59.274 280.336C60.258 279.136 61.206 277.636 62.118 275.836ZM85.748 270.796C85.892 270.796 86.024 270.832 86.144 270.904C86.288 270.952 86.408 271.036 86.504 271.156C86.6 271.276 86.648 271.42 86.648 271.588C86.672 271.732 86.648 271.876 86.576 272.02C86.528 272.14 86.432 272.248 86.288 272.344C86.168 272.416 86.036 272.464 85.892 272.488C84.404 272.608 82.736 273.46 80.888 275.044C80.648 276.1 80.216 277.324 79.592 278.716C78.968 280.108 78.476 281.116 78.116 281.74C77.78 282.364 77.528 282.808 77.36 283.072C76.52 284.44 75.788 285.364 75.164 285.844C74.564 286.348 74.024 286.456 73.544 286.168C72.824 285.784 72.584 285.004 72.824 283.828C73.088 282.556 73.832 280.996 75.056 279.148C76.304 277.276 77.732 275.62 79.34 274.18C79.388 273.964 79.424 273.76 79.448 273.568C79.52 272.872 79.46 272.464 79.268 272.344C78.86 272.032 78.368 271.948 77.792 272.092C76.736 272.332 75.572 273.172 74.3 274.612C73.028 276.028 72.044 277.348 71.348 278.572C70.7 279.724 69.692 283.336 68.324 289.408C66.956 295.504 66.128 299.824 65.84 302.368C65.816 302.56 65.732 302.728 65.588 302.872C65.42 303.016 65.228 303.088 65.012 303.088C64.892 303.088 64.784 303.064 64.688 303.016C64.592 302.992 64.508 302.944 64.436 302.872C64.364 302.824 64.304 302.752 64.256 302.656C64.208 302.584 64.184 302.5 64.184 302.404C64.04 301.516 64.52 298.084 65.624 292.108C66.704 286.132 67.688 281.224 68.576 277.384L70.304 269.86C70.376 269.644 70.508 269.476 70.7 269.356C70.892 269.236 71.096 269.2 71.312 269.248C71.552 269.296 71.732 269.428 71.852 269.644C71.972 269.836 72.008 270.04 71.96 270.256C71.912 270.352 71.396 272.572 70.412 276.916C70.772 276.34 71.168 275.776 71.6 275.224C72.032 274.672 72.56 274.036 73.184 273.316C73.832 272.596 74.528 271.984 75.272 271.48C76.016 270.952 76.736 270.604 77.432 270.436C78.464 270.196 79.4 270.364 80.24 270.94C80.768 271.3 81.068 271.9 81.14 272.74C82.796 271.564 84.332 270.916 85.748 270.796ZM74.444 284.26C74.948 283.732 75.548 282.856 76.244 281.632C76.964 280.408 77.6 279.148 78.152 277.852C77.336 278.86 76.604 279.892 75.956 280.948C75.116 282.316 74.612 283.42 74.444 284.26ZM96.2786 275.728C96.5186 275.68 96.7346 275.728 96.9266 275.872C97.1186 275.992 97.2266 276.172 97.2506 276.412C97.2986 276.628 97.2506 276.832 97.1066 277.024C96.7226 277.552 96.2786 278.116 95.7746 278.716C95.2946 279.316 94.6226 280.072 93.7586 280.984C92.8946 281.872 91.9826 282.592 91.0226 283.144C90.0626 283.72 89.1866 284.008 88.3946 284.008C87.8906 284.008 87.4226 283.9 86.9906 283.684C86.4626 283.372 86.1386 282.772 86.0186 281.884C85.8746 280.996 85.9226 279.964 86.1626 278.788C86.4026 277.612 86.6546 276.568 86.9186 275.656C87.1826 274.744 87.4826 273.832 87.8186 272.92C87.8906 272.704 88.0226 272.548 88.2146 272.452C88.4306 272.356 88.6466 272.344 88.8626 272.416C89.0066 272.464 89.1266 272.548 89.2226 272.668C89.3186 272.788 89.3786 272.92 89.4026 273.064C89.4266 273.184 89.4146 273.328 89.3666 273.496C88.8626 274.888 88.4426 276.268 88.1066 277.636C87.7946 278.98 87.6266 280.024 87.6026 280.768C87.5786 281.512 87.6506 281.992 87.8186 282.208C88.6106 282.64 89.7986 282.184 91.3826 280.84C92.9666 279.472 94.4186 277.876 95.7386 276.052C95.8826 275.86 96.0626 275.752 96.2786 275.728ZM88.3946 269.68C87.9866 269.68 87.7226 269.488 87.6026 269.104C87.5066 268.888 87.5066 268.684 87.6026 268.492C87.7226 268.276 87.8906 268.12 88.1066 268.024C88.1546 268.024 88.2266 268 88.3226 267.952C88.4426 267.904 88.5626 267.856 88.6826 267.808C88.8026 267.76 88.9106 267.712 89.0066 267.664C89.1266 267.616 89.2226 267.58 89.2946 267.556C89.3906 267.508 89.4386 267.484 89.4386 267.484L90.0866 269.068C89.3186 269.38 88.8386 269.56 88.6466 269.608C88.5746 269.656 88.4906 269.68 88.3946 269.68ZM107.638 282.1C107.878 282.1 108.07 282.184 108.214 282.352C108.382 282.52 108.466 282.724 108.466 282.964C108.466 283.18 108.382 283.372 108.214 283.54C107.398 284.308 106.57 284.692 105.73 284.692C105.322 284.692 104.95 284.572 104.614 284.332C104.278 284.116 104.002 283.732 103.786 283.18C103.594 282.652 103.462 282.16 103.39 281.704C103.342 281.248 103.27 280.576 103.174 279.688C103.03 278.104 102.874 277.168 102.706 276.88C102.13 277.048 100.678 278.548 98.35 281.38C97.51 282.412 96.886 283.144 96.478 283.576C96.07 284.008 95.722 284.284 95.434 284.404C95.146 284.548 94.87 284.524 94.606 284.332C94.342 284.14 94.222 283.888 94.246 283.576C94.39 282.088 95.242 278.236 96.802 272.02C96.874 271.804 97.006 271.636 97.198 271.516C97.39 271.396 97.594 271.36 97.81 271.408C98.05 271.456 98.23 271.588 98.35 271.804C98.47 271.996 98.506 272.2 98.458 272.416C97.69 275.344 97.006 278.248 96.406 281.128C96.574 280.912 96.79 280.636 97.054 280.3C98.638 278.38 99.862 277.024 100.726 276.232C101.59 275.44 102.358 275.092 103.03 275.188C103.366 275.236 103.642 275.368 103.858 275.584C104.098 275.8 104.278 276.148 104.398 276.628C104.518 277.108 104.602 277.528 104.65 277.888C104.722 278.248 104.794 278.8 104.866 279.544C105.058 281.632 105.286 282.772 105.55 282.964C105.694 283.06 105.922 283.036 106.234 282.892C106.546 282.724 106.822 282.532 107.062 282.316C107.206 282.172 107.398 282.1 107.638 282.1ZM125.582 278.428C125.606 278.548 125.606 278.668 125.582 278.788C125.582 278.884 125.558 278.98 125.51 279.076C125.462 279.172 125.39 279.256 125.294 279.328C125.222 279.4 125.126 279.448 125.006 279.472C123.47 279.928 121.982 280.468 120.542 281.092C120.278 283.708 119.726 286.228 118.886 288.652C118.046 291.1 117.038 293.236 115.862 295.06C114.71 296.908 113.51 298.504 112.262 299.848C111.014 301.192 109.766 302.26 108.518 303.052C107.006 304.012 105.662 304.492 104.486 304.492C103.742 304.492 103.118 304.3 102.614 303.916C101.822 303.484 101.546 302.296 101.786 300.352C101.93 299.176 102.242 297.916 102.722 296.572C103.202 295.228 103.91 293.788 104.846 292.252C105.782 290.74 106.874 289.264 108.122 287.824C109.394 286.408 110.942 285.004 112.766 283.612C114.614 282.244 116.618 281.056 118.778 280.048C118.994 277.312 118.934 274.696 118.598 272.2C118.574 272.224 118.55 272.272 118.526 272.344L118.418 272.488C115.73 276.4 113.57 279.184 111.938 280.84C110.33 282.496 108.998 283.108 107.942 282.676C107.342 282.412 107.006 281.896 106.934 281.128C106.838 280.216 107.126 278.92 107.798 277.24C108.47 275.56 109.262 274 110.174 272.56C111.086 271.12 111.854 270.184 112.478 269.752C113.414 269.128 114.326 268.912 115.214 269.104C116.006 269.272 116.606 269.692 117.014 270.364C117.134 270.556 117.17 270.772 117.122 271.012C117.074 271.228 116.942 271.396 116.726 271.516C116.534 271.636 116.33 271.672 116.114 271.624C115.898 271.552 115.73 271.42 115.61 271.228C115.394 270.964 115.142 270.796 114.854 270.724C114.446 270.652 113.966 270.796 113.414 271.156C112.814 271.564 112.082 272.512 111.218 274C110.354 275.464 109.646 276.94 109.094 278.428C108.566 279.892 108.41 280.804 108.626 281.164C108.722 281.188 108.83 281.188 108.95 281.164C109.07 281.116 109.238 281.02 109.454 280.876C109.694 280.732 109.958 280.528 110.246 280.264C110.534 279.976 110.894 279.592 111.326 279.112C111.782 278.608 112.274 278.02 112.802 277.348C113.33 276.676 113.954 275.848 114.674 274.864C115.394 273.856 116.174 272.752 117.014 271.552C117.782 270.448 118.262 269.776 118.454 269.536C118.67 269.272 118.946 269.188 119.282 269.284C119.642 269.356 119.858 269.56 119.93 269.896C120.578 273.016 120.83 276.112 120.686 279.184C121.934 278.68 123.218 278.236 124.538 277.852C124.754 277.804 124.958 277.84 125.15 277.96C125.366 278.056 125.51 278.212 125.582 278.428ZM107.618 301.648C108.914 300.808 110.102 299.812 111.182 298.66C112.286 297.532 113.234 296.332 114.026 295.06C114.842 293.788 115.55 292.408 116.15 290.92C116.774 289.456 117.278 287.992 117.662 286.528C118.046 285.064 118.346 283.564 118.562 282.028C115.946 283.348 113.606 284.944 111.542 286.816C109.478 288.712 107.858 290.584 106.682 292.432C105.506 294.28 104.618 296.152 104.018 298.048C103.826 298.696 103.682 299.308 103.586 299.884C103.466 300.46 103.406 300.916 103.406 301.252C103.406 301.612 103.418 301.9 103.442 302.116C103.466 302.332 103.514 302.476 103.586 302.548C103.946 302.836 104.486 302.896 105.206 302.728C105.926 302.56 106.73 302.2 107.618 301.648ZM142.931 275.728C143.171 275.68 143.387 275.728 143.579 275.872C143.771 275.992 143.879 276.172 143.903 276.412C143.951 276.628 143.903 276.832 143.759 277.024C143.375 277.552 142.931 278.116 142.427 278.716C141.947 279.316 141.275 280.072 140.411 280.984C139.547 281.872 138.635 282.592 137.675 283.144C136.715 283.72 135.839 284.008 135.047 284.008C134.543 284.008 134.075 283.9 133.643 283.684C133.115 283.372 132.791 282.772 132.671 281.884C132.527 280.996 132.575 279.964 132.815 278.788C133.055 277.612 133.307 276.568 133.571 275.656C133.835 274.744 134.135 273.832 134.471 272.92C134.543 272.704 134.675 272.548 134.867 272.452C135.083 272.356 135.299 272.344 135.515 272.416C135.659 272.464 135.779 272.548 135.875 272.668C135.971 272.788 136.031 272.92 136.055 273.064C136.079 273.184 136.067 273.328 136.019 273.496C135.515 274.888 135.095 276.268 134.759 277.636C134.447 278.98 134.279 280.024 134.255 280.768C134.231 281.512 134.303 281.992 134.471 282.208C135.263 282.64 136.451 282.184 138.035 280.84C139.619 279.472 141.071 277.876 142.391 276.052C142.535 275.86 142.715 275.752 142.931 275.728ZM135.047 269.68C134.639 269.68 134.375 269.488 134.255 269.104C134.159 268.888 134.159 268.684 134.255 268.492C134.375 268.276 134.543 268.12 134.759 268.024C134.807 268.024 134.879 268 134.975 267.952C135.095 267.904 135.215 267.856 135.335 267.808C135.455 267.76 135.563 267.712 135.659 267.664C135.779 267.616 135.875 267.58 135.947 267.556C136.043 267.508 136.091 267.484 136.091 267.484L136.739 269.068C135.971 269.38 135.491 269.56 135.299 269.608C135.227 269.656 135.143 269.68 135.047 269.68ZM163.12 280.084C163.36 280.036 163.576 280.084 163.768 280.228C163.96 280.348 164.068 280.528 164.092 280.768C164.14 280.984 164.104 281.188 163.984 281.38C163.912 281.476 163.816 281.584 163.696 281.704C163.6 281.824 163.444 281.992 163.228 282.208C163.012 282.424 162.748 282.616 162.436 282.784C162.124 282.928 161.812 283.012 161.5 283.036C160.876 283.108 160.3 282.904 159.772 282.424C159.58 282.256 159.424 281.98 159.304 281.596C159.208 281.212 159.088 280.576 158.944 279.688C158.632 277.864 158.356 276.796 158.116 276.484C157.9 276.676 157.276 277.492 156.244 278.932C155.98 279.316 155.776 279.604 155.632 279.796C155.512 279.988 155.32 280.252 155.056 280.588C154.816 280.924 154.624 281.176 154.48 281.344C154.336 281.488 154.144 281.68 153.904 281.92C153.688 282.16 153.484 282.328 153.292 282.424C153.124 282.52 152.932 282.604 152.716 282.676C152.524 282.748 152.332 282.772 152.14 282.748C151.948 282.724 151.744 282.664 151.528 282.568C151.096 282.328 150.832 281.764 150.736 280.876C150.664 279.988 150.712 278.656 150.88 276.88C151 274.84 151.036 273.496 150.988 272.848C150.412 273.448 149.26 274.972 147.532 277.42C146.428 278.98 145.564 280.18 144.94 281.02C144.316 281.836 143.68 282.568 143.032 283.216C142.408 283.888 141.88 284.296 141.448 284.44C141.352 284.488 141.256 284.512 141.16 284.512C140.992 284.512 140.836 284.464 140.692 284.368C140.476 284.224 140.356 284.008 140.332 283.72C140.26 282.952 140.548 281.656 141.196 279.832C141.844 278.008 142.396 276.592 142.852 275.584C143.308 274.552 143.728 273.628 144.112 272.812C144.232 272.62 144.4 272.488 144.616 272.416C144.832 272.32 145.036 272.332 145.228 272.452C145.444 272.548 145.588 272.704 145.66 272.92C145.756 273.136 145.744 273.352 145.624 273.568C144.136 276.664 143.056 279.304 142.384 281.488C143.176 280.576 144.436 278.884 146.164 276.412C147.292 274.852 148.12 273.724 148.648 273.028C149.2 272.308 149.692 271.756 150.124 271.372C150.556 270.988 150.94 270.796 151.276 270.796C151.612 270.796 151.9 270.916 152.14 271.156C152.452 271.492 152.632 272.116 152.68 273.028C152.728 273.94 152.68 275.26 152.536 276.988C152.392 279.172 152.368 280.516 152.464 281.02C152.824 280.78 153.628 279.76 154.876 277.96C155.716 276.784 156.364 275.956 156.82 275.476C157.276 274.996 157.732 274.756 158.188 274.756C158.5 274.756 158.776 274.852 159.016 275.044C159.28 275.236 159.484 275.464 159.628 275.728C159.772 275.968 159.916 276.34 160.06 276.844C160.204 277.324 160.3 277.72 160.348 278.032C160.42 278.344 160.504 278.812 160.6 279.436C160.768 280.468 160.9 281.08 160.996 281.272C161.116 281.368 161.224 281.404 161.32 281.38C161.728 281.332 162.16 281.008 162.616 280.408C162.736 280.216 162.904 280.108 163.12 280.084ZM177.535 277.852C177.775 277.804 177.979 277.852 178.147 277.996C178.339 278.14 178.447 278.332 178.471 278.572C178.519 278.788 178.471 278.992 178.327 279.184C178.159 279.4 177.955 279.64 177.715 279.904C177.499 280.168 177.139 280.552 176.635 281.056C176.131 281.56 175.627 282.004 175.123 282.388C174.619 282.772 174.043 283.108 173.395 283.396C172.747 283.684 172.135 283.828 171.559 283.828C170.983 283.828 170.455 283.684 169.975 283.396C169.255 282.964 168.883 282.184 168.859 281.056C167.251 283.024 165.727 283.816 164.287 283.432C163.111 283.096 162.511 282.268 162.487 280.948C162.463 280.012 162.787 278.896 163.459 277.6C164.155 276.304 164.983 275.152 165.943 274.144C166.903 273.136 167.767 272.524 168.535 272.308C169.207 272.092 169.819 272.152 170.371 272.488C170.683 272.68 170.959 272.968 171.199 273.352C171.199 273.328 171.199 273.316 171.199 273.316C171.199 273.292 171.199 273.28 171.199 273.28C171.319 273.088 171.475 272.956 171.667 272.884C171.883 272.788 172.087 272.788 172.279 272.884C172.495 272.98 172.651 273.136 172.747 273.352C172.843 273.568 172.843 273.772 172.747 273.964C172.411 274.804 172.039 275.656 171.631 276.52C171.103 277.888 170.755 279.064 170.587 280.048C170.443 281.032 170.527 281.668 170.839 281.956C171.175 282.196 171.583 282.244 172.063 282.1C172.543 281.956 173.011 281.752 173.467 281.488C173.923 281.2 174.391 280.84 174.871 280.408C175.375 279.952 175.795 279.544 176.131 279.184C176.467 278.8 176.755 278.452 176.995 278.14C177.139 277.972 177.319 277.876 177.535 277.852ZM170.083 275.836C170.131 275.716 170.191 275.572 170.263 275.404C170.167 275.284 170.095 275.152 170.047 275.008C169.951 274.456 169.759 274.096 169.471 273.928C169.423 273.88 169.363 273.856 169.291 273.856C169.219 273.856 169.135 273.868 169.039 273.892C168.151 274.156 167.107 275.128 165.907 276.808C164.731 278.488 164.155 279.868 164.179 280.948C164.179 281.404 164.371 281.692 164.755 281.812C165.451 282.004 166.279 281.512 167.239 280.336C168.223 279.136 169.171 277.636 170.083 275.836ZM195.297 278.428C195.321 278.548 195.321 278.668 195.297 278.788C195.297 278.884 195.273 278.98 195.225 279.076C195.177 279.172 195.105 279.256 195.009 279.328C194.937 279.4 194.841 279.448 194.721 279.472C193.185 279.928 191.697 280.468 190.257 281.092C189.993 283.708 189.441 286.228 188.601 288.652C187.761 291.1 186.753 293.236 185.577 295.06C184.425 296.908 183.225 298.504 181.977 299.848C180.729 301.192 179.481 302.26 178.233 303.052C176.721 304.012 175.377 304.492 174.201 304.492C173.457 304.492 172.833 304.3 172.329 303.916C171.537 303.484 171.261 302.296 171.501 300.352C171.645 299.176 171.957 297.916 172.437 296.572C172.917 295.228 173.625 293.788 174.561 292.252C175.497 290.74 176.589 289.264 177.837 287.824C179.109 286.408 180.657 285.004 182.481 283.612C184.329 282.244 186.333 281.056 188.493 280.048C188.709 277.312 188.649 274.696 188.313 272.2C188.289 272.224 188.265 272.272 188.241 272.344L188.133 272.488C185.445 276.4 183.285 279.184 181.653 280.84C180.045 282.496 178.713 283.108 177.657 282.676C177.057 282.412 176.721 281.896 176.649 281.128C176.553 280.216 176.841 278.92 177.513 277.24C178.185 275.56 178.977 274 179.889 272.56C180.801 271.12 181.569 270.184 182.193 269.752C183.129 269.128 184.041 268.912 184.929 269.104C185.721 269.272 186.321 269.692 186.729 270.364C186.849 270.556 186.885 270.772 186.837 271.012C186.789 271.228 186.657 271.396 186.441 271.516C186.249 271.636 186.045 271.672 185.829 271.624C185.613 271.552 185.445 271.42 185.325 271.228C185.109 270.964 184.857 270.796 184.569 270.724C184.161 270.652 183.681 270.796 183.129 271.156C182.529 271.564 181.797 272.512 180.933 274C180.069 275.464 179.361 276.94 178.809 278.428C178.281 279.892 178.125 280.804 178.341 281.164C178.437 281.188 178.545 281.188 178.665 281.164C178.785 281.116 178.953 281.02 179.169 280.876C179.409 280.732 179.673 280.528 179.961 280.264C180.249 279.976 180.609 279.592 181.041 279.112C181.497 278.608 181.989 278.02 182.517 277.348C183.045 276.676 183.669 275.848 184.389 274.864C185.109 273.856 185.889 272.752 186.729 271.552C187.497 270.448 187.977 269.776 188.169 269.536C188.385 269.272 188.661 269.188 188.997 269.284C189.357 269.356 189.573 269.56 189.645 269.896C190.293 273.016 190.545 276.112 190.401 279.184C191.649 278.68 192.933 278.236 194.253 277.852C194.469 277.804 194.673 277.84 194.865 277.96C195.081 278.056 195.225 278.212 195.297 278.428ZM177.333 301.648C178.629 300.808 179.817 299.812 180.897 298.66C182.001 297.532 182.949 296.332 183.741 295.06C184.557 293.788 185.265 292.408 185.865 290.92C186.489 289.456 186.993 287.992 187.377 286.528C187.761 285.064 188.061 283.564 188.277 282.028C185.661 283.348 183.321 284.944 181.257 286.816C179.193 288.712 177.573 290.584 176.397 292.432C175.221 294.28 174.333 296.152 173.733 298.048C173.541 298.696 173.397 299.308 173.301 299.884C173.181 300.46 173.121 300.916 173.121 301.252C173.121 301.612 173.133 301.9 173.157 302.116C173.181 302.332 173.229 302.476 173.301 302.548C173.661 302.836 174.201 302.896 174.921 302.728C175.641 302.56 176.445 302.2 177.333 301.648ZM203.716 275.728C203.956 275.68 204.172 275.728 204.364 275.872C204.556 275.992 204.664 276.172 204.688 276.412C204.736 276.628 204.688 276.832 204.544 277.024C204.16 277.552 203.716 278.116 203.212 278.716C202.732 279.316 202.06 280.072 201.196 280.984C200.332 281.872 199.42 282.592 198.46 283.144C197.5 283.72 196.624 284.008 195.832 284.008C195.328 284.008 194.86 283.9 194.428 283.684C193.9 283.372 193.576 282.772 193.456 281.884C193.312 280.996 193.36 279.964 193.6 278.788C193.84 277.612 194.092 276.568 194.356 275.656C194.62 274.744 194.92 273.832 195.256 272.92C195.328 272.704 195.46 272.548 195.652 272.452C195.868 272.356 196.084 272.344 196.3 272.416C196.444 272.464 196.564 272.548 196.66 272.668C196.756 272.788 196.816 272.92 196.84 273.064C196.864 273.184 196.852 273.328 196.804 273.496C196.3 274.888 195.88 276.268 195.544 277.636C195.232 278.98 195.064 280.024 195.04 280.768C195.016 281.512 195.088 281.992 195.256 282.208C196.048 282.64 197.236 282.184 198.82 280.84C200.404 279.472 201.856 277.876 203.176 276.052C203.32 275.86 203.5 275.752 203.716 275.728ZM195.832 269.68C195.424 269.68 195.16 269.488 195.04 269.104C194.944 268.888 194.944 268.684 195.04 268.492C195.16 268.276 195.328 268.12 195.544 268.024C195.592 268.024 195.664 268 195.76 267.952C195.88 267.904 196 267.856 196.12 267.808C196.24 267.76 196.348 267.712 196.444 267.664C196.564 267.616 196.66 267.58 196.732 267.556C196.828 267.508 196.876 267.484 196.876 267.484L197.524 269.068C196.756 269.38 196.276 269.56 196.084 269.608C196.012 269.656 195.928 269.68 195.832 269.68ZM215.076 282.1C215.316 282.1 215.508 282.184 215.652 282.352C215.82 282.52 215.904 282.724 215.904 282.964C215.904 283.18 215.82 283.372 215.652 283.54C214.836 284.308 214.008 284.692 213.168 284.692C212.76 284.692 212.388 284.572 212.052 284.332C211.716 284.116 211.44 283.732 211.224 283.18C211.032 282.652 210.9 282.16 210.828 281.704C210.78 281.248 210.708 280.576 210.612 279.688C210.468 278.104 210.312 277.168 210.144 276.88C209.568 277.048 208.116 278.548 205.788 281.38C204.948 282.412 204.324 283.144 203.916 283.576C203.508 284.008 203.16 284.284 202.872 284.404C202.584 284.548 202.308 284.524 202.043 284.332C201.779 284.14 201.659 283.888 201.683 283.576C201.827 282.088 202.68 278.236 204.24 272.02C204.312 271.804 204.444 271.636 204.636 271.516C204.828 271.396 205.032 271.36 205.248 271.408C205.488 271.456 205.668 271.588 205.788 271.804C205.908 271.996 205.944 272.2 205.896 272.416C205.128 275.344 204.444 278.248 203.844 281.128C204.012 280.912 204.228 280.636 204.492 280.3C206.076 278.38 207.3 277.024 208.164 276.232C209.028 275.44 209.796 275.092 210.468 275.188C210.804 275.236 211.08 275.368 211.296 275.584C211.536 275.8 211.716 276.148 211.836 276.628C211.956 277.108 212.04 277.528 212.088 277.888C212.16 278.248 212.232 278.8 212.304 279.544C212.496 281.632 212.724 282.772 212.988 282.964C213.132 283.06 213.36 283.036 213.672 282.892C213.984 282.724 214.26 282.532 214.5 282.316C214.644 282.172 214.836 282.1 215.076 282.1ZM229.179 277.852C229.419 277.804 229.623 277.852 229.791 277.996C229.983 278.14 230.091 278.332 230.115 278.572C230.163 278.788 230.115 278.992 229.971 279.184C229.803 279.4 229.599 279.64 229.359 279.904C229.143 280.168 228.783 280.552 228.279 281.056C227.775 281.56 227.271 282.004 226.767 282.388C226.263 282.772 225.687 283.108 225.039 283.396C224.391 283.684 223.779 283.828 223.203 283.828C222.627 283.828 222.099 283.684 221.619 283.396C220.899 282.964 220.527 282.184 220.503 281.056C218.895 283.024 217.371 283.816 215.931 283.432C214.755 283.096 214.155 282.268 214.131 280.948C214.107 280.012 214.431 278.896 215.103 277.6C215.799 276.304 216.627 275.152 217.587 274.144C218.547 273.136 219.411 272.524 220.179 272.308C220.851 272.092 221.463 272.152 222.015 272.488C222.327 272.68 222.603 272.968 222.843 273.352C222.843 273.328 222.843 273.316 222.843 273.316C222.843 273.292 222.843 273.28 222.843 273.28C222.963 273.088 223.119 272.956 223.311 272.884C223.527 272.788 223.731 272.788 223.923 272.884C224.139 272.98 224.295 273.136 224.391 273.352C224.487 273.568 224.487 273.772 224.391 273.964C224.055 274.804 223.683 275.656 223.275 276.52C222.747 277.888 222.399 279.064 222.231 280.048C222.087 281.032 222.171 281.668 222.483 281.956C222.819 282.196 223.227 282.244 223.707 282.1C224.187 281.956 224.655 281.752 225.111 281.488C225.567 281.2 226.035 280.84 226.515 280.408C227.019 279.952 227.439 279.544 227.775 279.184C228.111 278.8 228.399 278.452 228.639 278.14C228.783 277.972 228.963 277.876 229.179 277.852ZM221.727 275.836C221.775 275.716 221.835 275.572 221.907 275.404C221.811 275.284 221.739 275.152 221.691 275.008C221.595 274.456 221.403 274.096 221.115 273.928C221.067 273.88 221.007 273.856 220.935 273.856C220.863 273.856 220.779 273.868 220.683 273.892C219.795 274.156 218.751 275.128 217.551 276.808C216.375 278.488 215.799 279.868 215.823 280.948C215.823 281.404 216.015 281.692 216.399 281.812C217.095 282.004 217.923 281.512 218.883 280.336C219.867 279.136 220.815 277.636 221.727 275.836ZM248.561 264.316C248.777 264.22 248.993 264.22 249.209 264.316C249.425 264.388 249.569 264.532 249.641 264.748C249.737 264.94 249.737 265.144 249.641 265.36C249.281 266.272 248.093 267.052 246.077 267.7C244.061 268.324 241.505 268.504 238.409 268.24C237.377 268.144 236.369 268.06 235.385 267.988C234.137 270.532 232.661 273.328 230.957 276.376C230.597 278.368 230.489 280.396 230.633 282.46C230.777 284.524 231.125 285.784 231.677 286.24C231.893 286.432 232.133 286.504 232.397 286.456C232.901 286.408 233.441 286.096 234.017 285.52C234.593 284.968 235.049 284.452 235.385 283.972C235.505 283.78 235.673 283.66 235.889 283.612C236.129 283.564 236.345 283.6 236.537 283.72C236.729 283.864 236.849 284.044 236.897 284.26C236.945 284.5 236.909 284.716 236.789 284.908C236.669 285.076 236.513 285.28 236.321 285.52C236.129 285.76 235.829 286.084 235.421 286.492C235.037 286.924 234.593 287.284 234.089 287.572C233.609 287.884 233.117 288.076 232.613 288.148C232.517 288.148 232.409 288.148 232.289 288.148C231.641 288.148 231.065 287.932 230.561 287.5C229.937 286.948 229.481 285.916 229.193 284.404C228.929 282.916 228.833 281.44 228.905 279.976C228.953 278.488 229.085 277.144 229.301 275.944C229.301 275.92 229.313 275.908 229.337 275.908C229.841 273.46 230.489 270.736 231.281 267.736C224.825 267.424 221.129 267.712 220.193 268.6C220.049 268.744 219.857 268.816 219.617 268.816C219.377 268.816 219.173 268.732 219.005 268.564C218.861 268.396 218.789 268.204 218.789 267.988C218.789 267.748 218.873 267.544 219.041 267.376C220.337 266.152 224.573 265.72 231.749 266.08C233.813 258.736 235.685 254.5 237.365 253.372C237.869 253.06 238.373 252.964 238.877 253.084C239.381 253.18 239.741 253.48 239.957 253.984C240.029 254.104 240.077 254.284 240.101 254.524C240.125 254.74 240.089 255.172 239.993 255.82C239.921 256.444 239.765 257.176 239.525 258.016C239.309 258.856 238.913 260.008 238.337 261.472C237.761 262.936 237.041 264.568 236.177 266.368C236.945 266.416 237.749 266.476 238.589 266.548C239.621 266.644 240.569 266.68 241.433 266.656C242.297 266.632 243.077 266.572 243.773 266.476C244.469 266.356 245.069 266.224 245.573 266.08C246.101 265.912 246.545 265.744 246.905 265.576C247.265 265.408 247.541 265.252 247.733 265.108C247.925 264.964 248.045 264.832 248.093 264.712C248.189 264.52 248.345 264.388 248.561 264.316ZM238.301 254.776C237.005 255.64 235.385 259.432 233.441 266.152C233.633 266.176 233.933 266.2 234.341 266.224C235.805 263.2 236.921 260.644 237.689 258.556C238.457 256.444 238.709 255.148 238.445 254.668C238.445 254.692 238.397 254.728 238.301 254.776ZM232.361 270.22C232.745 269.476 233.141 268.684 233.549 267.844C233.501 267.844 233.441 267.844 233.369 267.844C233.297 267.844 233.225 267.844 233.153 267.844C233.081 267.844 233.021 267.844 232.973 267.844C232.757 268.636 232.553 269.428 232.361 270.22ZM245.868 275.728C246.108 275.68 246.324 275.728 246.516 275.872C246.708 275.992 246.816 276.172 246.84 276.412C246.888 276.628 246.84 276.832 246.696 277.024C246.312 277.552 245.868 278.116 245.364 278.716C244.884 279.316 244.212 280.072 243.348 280.984C242.484 281.872 241.572 282.592 240.612 283.144C239.652 283.72 238.776 284.008 237.984 284.008C237.48 284.008 237.012 283.9 236.58 283.684C236.052 283.372 235.728 282.772 235.608 281.884C235.464 280.996 235.512 279.964 235.752 278.788C235.992 277.612 236.244 276.568 236.508 275.656C236.772 274.744 237.072 273.832 237.408 272.92C237.48 272.704 237.612 272.548 237.804 272.452C238.02 272.356 238.236 272.344 238.452 272.416C238.596 272.464 238.716 272.548 238.812 272.668C238.908 272.788 238.968 272.92 238.992 273.064C239.016 273.184 239.004 273.328 238.956 273.496C238.452 274.888 238.032 276.268 237.696 277.636C237.384 278.98 237.216 280.024 237.192 280.768C237.168 281.512 237.24 281.992 237.408 282.208C238.2 282.64 239.388 282.184 240.972 280.84C242.556 279.472 244.008 277.876 245.328 276.052C245.472 275.86 245.652 275.752 245.868 275.728ZM237.984 269.68C237.576 269.68 237.312 269.488 237.192 269.104C237.096 268.888 237.096 268.684 237.192 268.492C237.312 268.276 237.48 268.12 237.696 268.024C237.744 268.024 237.816 268 237.912 267.952C238.032 267.904 238.152 267.856 238.272 267.808C238.392 267.76 238.5 267.712 238.596 267.664C238.716 267.616 238.812 267.58 238.884 267.556C238.98 267.508 239.028 267.484 239.028 267.484L239.676 269.068C238.908 269.38 238.428 269.56 238.236 269.608C238.164 269.656 238.08 269.68 237.984 269.68ZM256.788 272.524C257.028 272.548 257.22 272.656 257.364 272.848C257.508 273.016 257.568 273.22 257.544 273.46C257.52 273.676 257.424 273.856 257.256 274C255.84 275.128 254.04 275.44 251.856 274.936C251.976 275.776 251.94 276.952 251.748 278.464C251.652 279.16 251.328 280.06 250.776 281.164C250.248 282.268 249.588 283.06 248.796 283.54C248.34 283.828 247.86 283.972 247.356 283.972C247.068 283.972 246.792 283.924 246.528 283.828C244.848 283.252 244.188 281.452 244.548 278.428C244.572 278.26 244.584 278.152 244.584 278.104C244.656 277.408 244.908 276.628 245.34 275.764C245.772 274.876 246.372 274.084 247.14 273.388C247.908 272.692 248.712 272.344 249.552 272.344C250.128 272.344 250.608 272.536 250.992 272.92C253.2 273.76 254.928 273.676 256.176 272.668C256.368 272.524 256.572 272.476 256.788 272.524ZM250.056 278.284C250.32 276.244 250.296 274.924 249.984 274.324C249.768 274.252 249.564 274.156 249.372 274.036C248.7 274.156 248.028 274.696 247.356 275.656C246.684 276.616 246.324 277.48 246.276 278.248C246.252 278.32 246.24 278.44 246.24 278.608C246.096 279.352 246.072 280.108 246.168 280.876C246.288 281.62 246.588 282.076 247.068 282.244C247.332 282.34 247.62 282.304 247.932 282.136C248.268 281.896 248.604 281.5 248.94 280.948C249.3 280.396 249.564 279.88 249.732 279.4C249.924 278.92 250.032 278.548 250.056 278.284ZM267.107 282.1C267.347 282.1 267.539 282.184 267.683 282.352C267.851 282.52 267.935 282.724 267.935 282.964C267.935 283.18 267.851 283.372 267.683 283.54C266.867 284.308 266.039 284.692 265.199 284.692C264.791 284.692 264.419 284.572 264.083 284.332C263.747 284.116 263.471 283.732 263.255 283.18C263.063 282.652 262.931 282.16 262.859 281.704C262.811 281.248 262.739 280.576 262.643 279.688C262.499 278.104 262.343 277.168 262.175 276.88C261.599 277.048 260.147 278.548 257.819 281.38C256.979 282.412 256.355 283.144 255.947 283.576C255.539 284.008 255.191 284.284 254.903 284.404C254.615 284.548 254.339 284.524 254.075 284.332C253.811 284.14 253.691 283.888 253.715 283.576C253.859 282.088 254.711 278.236 256.271 272.02C256.343 271.804 256.475 271.636 256.667 271.516C256.859 271.396 257.063 271.36 257.279 271.408C257.519 271.456 257.699 271.588 257.819 271.804C257.939 271.996 257.975 272.2 257.927 272.416C257.159 275.344 256.475 278.248 255.875 281.128C256.043 280.912 256.259 280.636 256.523 280.3C258.107 278.38 259.331 277.024 260.195 276.232C261.059 275.44 261.827 275.092 262.499 275.188C262.835 275.236 263.111 275.368 263.327 275.584C263.567 275.8 263.747 276.148 263.867 276.628C263.987 277.108 264.071 277.528 264.119 277.888C264.191 278.248 264.263 278.8 264.335 279.544C264.527 281.632 264.755 282.772 265.019 282.964C265.163 283.06 265.391 283.036 265.703 282.892C266.015 282.724 266.291 282.532 266.531 282.316C266.675 282.172 266.867 282.1 267.107 282.1ZM285.208 275.728C285.448 275.68 285.664 275.728 285.856 275.872C286.048 275.992 286.156 276.172 286.18 276.412C286.228 276.628 286.18 276.832 286.036 277.024C285.652 277.552 285.208 278.116 284.704 278.716C284.224 279.316 283.552 280.072 282.688 280.984C281.824 281.872 280.912 282.592 279.952 283.144C278.992 283.72 278.116 284.008 277.324 284.008C276.82 284.008 276.352 283.9 275.92 283.684C275.392 283.372 275.068 282.772 274.948 281.884C274.804 280.996 274.852 279.964 275.092 278.788C275.332 277.612 275.584 276.568 275.848 275.656C276.112 274.744 276.412 273.832 276.748 272.92C276.82 272.704 276.952 272.548 277.144 272.452C277.36 272.356 277.576 272.344 277.792 272.416C277.936 272.464 278.056 272.548 278.152 272.668C278.248 272.788 278.308 272.92 278.332 273.064C278.356 273.184 278.344 273.328 278.296 273.496C277.792 274.888 277.372 276.268 277.036 277.636C276.724 278.98 276.556 280.024 276.532 280.768C276.508 281.512 276.58 281.992 276.748 282.208C277.54 282.64 278.728 282.184 280.312 280.84C281.896 279.472 283.348 277.876 284.668 276.052C284.812 275.86 284.992 275.752 285.208 275.728ZM277.324 269.68C276.916 269.68 276.652 269.488 276.532 269.104C276.436 268.888 276.436 268.684 276.532 268.492C276.652 268.276 276.82 268.12 277.036 268.024C277.084 268.024 277.156 268 277.252 267.952C277.372 267.904 277.492 267.856 277.612 267.808C277.732 267.76 277.84 267.712 277.936 267.664C278.056 267.616 278.152 267.58 278.224 267.556C278.32 267.508 278.368 267.484 278.368 267.484L279.016 269.068C278.248 269.38 277.768 269.56 277.576 269.608C277.504 269.656 277.42 269.68 277.324 269.68ZM296.568 282.1C296.808 282.1 297 282.184 297.144 282.352C297.312 282.52 297.396 282.724 297.396 282.964C297.396 283.18 297.312 283.372 297.144 283.54C296.328 284.308 295.5 284.692 294.66 284.692C294.252 284.692 293.88 284.572 293.544 284.332C293.208 284.116 292.932 283.732 292.716 283.18C292.524 282.652 292.392 282.16 292.32 281.704C292.272 281.248 292.2 280.576 292.104 279.688C291.96 278.104 291.804 277.168 291.636 276.88C291.06 277.048 289.608 278.548 287.28 281.38C286.44 282.412 285.816 283.144 285.408 283.576C285 284.008 284.652 284.284 284.364 284.404C284.076 284.548 283.8 284.524 283.536 284.332C283.272 284.14 283.152 283.888 283.176 283.576C283.32 282.088 284.172 278.236 285.732 272.02C285.804 271.804 285.936 271.636 286.128 271.516C286.32 271.396 286.524 271.36 286.74 271.408C286.98 271.456 287.16 271.588 287.28 271.804C287.4 271.996 287.436 272.2 287.388 272.416C286.62 275.344 285.936 278.248 285.336 281.128C285.504 280.912 285.72 280.636 285.984 280.3C287.568 278.38 288.792 277.024 289.656 276.232C290.52 275.44 291.288 275.092 291.96 275.188C292.296 275.236 292.572 275.368 292.788 275.584C293.028 275.8 293.208 276.148 293.328 276.628C293.448 277.108 293.532 277.528 293.58 277.888C293.652 278.248 293.724 278.8 293.796 279.544C293.988 281.632 294.216 282.772 294.48 282.964C294.624 283.06 294.852 283.036 295.164 282.892C295.476 282.724 295.752 282.532 295.992 282.316C296.136 282.172 296.328 282.1 296.568 282.1ZM315.64 264.316C315.856 264.22 316.072 264.22 316.288 264.316C316.504 264.388 316.648 264.532 316.72 264.748C316.816 264.94 316.816 265.144 316.72 265.36C316.36 266.272 315.172 267.052 313.156 267.7C311.14 268.324 308.584 268.504 305.488 268.24C304.456 268.144 303.448 268.06 302.464 267.988C301.216 270.532 299.74 273.328 298.036 276.376C297.676 278.368 297.568 280.396 297.712 282.46C297.856 284.524 298.204 285.784 298.756 286.24C298.972 286.432 299.212 286.504 299.476 286.456C299.98 286.408 300.52 286.096 301.096 285.52C301.672 284.968 302.128 284.452 302.464 283.972C302.584 283.78 302.752 283.66 302.968 283.612C303.208 283.564 303.424 283.6 303.616 283.72C303.808 283.864 303.928 284.044 303.976 284.26C304.024 284.5 303.988 284.716 303.868 284.908C303.748 285.076 303.592 285.28 303.4 285.52C303.208 285.76 302.908 286.084 302.5 286.492C302.116 286.924 301.672 287.284 301.168 287.572C300.688 287.884 300.196 288.076 299.692 288.148C299.596 288.148 299.488 288.148 299.368 288.148C298.72 288.148 298.144 287.932 297.64 287.5C297.016 286.948 296.56 285.916 296.272 284.404C296.008 282.916 295.912 281.44 295.984 279.976C296.032 278.488 296.164 277.144 296.38 275.944C296.38 275.92 296.392 275.908 296.416 275.908C296.92 273.46 297.568 270.736 298.36 267.736C291.904 267.424 288.208 267.712 287.272 268.6C287.128 268.744 286.936 268.816 286.696 268.816C286.456 268.816 286.252 268.732 286.084 268.564C285.94 268.396 285.868 268.204 285.868 267.988C285.868 267.748 285.952 267.544 286.12 267.376C287.416 266.152 291.652 265.72 298.828 266.08C300.892 258.736 302.764 254.5 304.444 253.372C304.948 253.06 305.452 252.964 305.956 253.084C306.46 253.18 306.82 253.48 307.036 253.984C307.108 254.104 307.156 254.284 307.18 254.524C307.204 254.74 307.168 255.172 307.072 255.82C307 256.444 306.844 257.176 306.604 258.016C306.388 258.856 305.992 260.008 305.416 261.472C304.84 262.936 304.12 264.568 303.256 266.368C304.024 266.416 304.828 266.476 305.668 266.548C306.7 266.644 307.648 266.68 308.512 266.656C309.376 266.632 310.156 266.572 310.852 266.476C311.548 266.356 312.148 266.224 312.652 266.08C313.18 265.912 313.624 265.744 313.984 265.576C314.344 265.408 314.62 265.252 314.812 265.108C315.004 264.964 315.124 264.832 315.172 264.712C315.268 264.52 315.424 264.388 315.64 264.316ZM305.38 254.776C304.084 255.64 302.464 259.432 300.52 266.152C300.712 266.176 301.012 266.2 301.42 266.224C302.884 263.2 304 260.644 304.768 258.556C305.536 256.444 305.788 255.148 305.524 254.668C305.524 254.692 305.476 254.728 305.38 254.776ZM299.44 270.22C299.824 269.476 300.22 268.684 300.628 267.844C300.58 267.844 300.52 267.844 300.448 267.844C300.376 267.844 300.304 267.844 300.232 267.844C300.16 267.844 300.1 267.844 300.052 267.844C299.836 268.636 299.632 269.428 299.44 270.22ZM315.359 272.524C315.599 272.548 315.791 272.656 315.935 272.848C316.079 273.016 316.139 273.22 316.115 273.46C316.091 273.676 315.995 273.856 315.827 274C314.411 275.128 312.611 275.44 310.427 274.936C310.547 275.776 310.511 276.952 310.319 278.464C310.223 279.16 309.899 280.06 309.347 281.164C308.819 282.268 308.159 283.06 307.367 283.54C306.911 283.828 306.431 283.972 305.927 283.972C305.639 283.972 305.363 283.924 305.099 283.828C303.419 283.252 302.759 281.452 303.119 278.428C303.143 278.26 303.155 278.152 303.155 278.104C303.227 277.408 303.479 276.628 303.911 275.764C304.343 274.876 304.943 274.084 305.711 273.388C306.479 272.692 307.283 272.344 308.123 272.344C308.699 272.344 309.179 272.536 309.563 272.92C311.771 273.76 313.499 273.676 314.747 272.668C314.939 272.524 315.143 272.476 315.359 272.524ZM308.627 278.284C308.891 276.244 308.867 274.924 308.555 274.324C308.339 274.252 308.135 274.156 307.943 274.036C307.271 274.156 306.599 274.696 305.927 275.656C305.255 276.616 304.895 277.48 304.847 278.248C304.823 278.32 304.811 278.44 304.811 278.608C304.667 279.352 304.643 280.108 304.739 280.876C304.859 281.62 305.159 282.076 305.639 282.244C305.903 282.34 306.191 282.304 306.503 282.136C306.839 281.896 307.175 281.5 307.511 280.948C307.871 280.396 308.135 279.88 308.303 279.4C308.495 278.92 308.603 278.548 308.627 278.284ZM331.522 272.38C331.762 272.404 331.954 272.512 332.098 272.704C332.242 272.872 332.302 273.076 332.278 273.316C332.254 273.532 332.146 273.712 331.954 273.856C331.762 274 331.558 274.06 331.342 274.036C330.238 273.892 329.122 274.384 327.994 275.512C326.89 276.616 325.918 278.044 325.078 279.796C324.262 281.524 323.554 283.432 322.954 285.52C322.858 285.904 322.618 286.108 322.234 286.132C322.21 286.156 322.186 286.168 322.162 286.168C321.802 286.168 321.55 286.012 321.406 285.7C320.83 284.524 321.814 278.872 324.358 268.744C324.406 268.528 324.526 268.36 324.718 268.24C324.934 268.12 325.15 268.096 325.366 268.168C325.582 268.216 325.75 268.336 325.87 268.528C325.99 268.72 326.026 268.936 325.978 269.176C325.138 272.56 324.418 275.704 323.818 278.608C324.874 276.544 326.05 274.948 327.346 273.82C328.666 272.668 330.058 272.188 331.522 272.38ZM344.62 277.24C344.86 277.216 345.064 277.288 345.232 277.456C345.4 277.624 345.484 277.828 345.484 278.068C345.484 278.284 345.412 278.476 345.268 278.644C344.908 279.028 344.464 279.46 343.936 279.94C343.432 280.396 342.688 281.02 341.704 281.812C340.744 282.58 339.724 283.216 338.644 283.72C337.588 284.224 336.616 284.476 335.728 284.476C334.864 284.476 334.12 284.212 333.496 283.684C332.848 283.084 332.44 282.304 332.272 281.344C332.128 280.36 332.176 279.364 332.416 278.356C332.68 277.348 333.076 276.34 333.604 275.332C334.276 274.084 335.104 273.052 336.088 272.236C337.072 271.396 338.056 271.108 339.04 271.372C340 271.636 340.54 272.14 340.66 272.884C340.732 273.412 340.54 274.012 340.084 274.684C339.628 275.356 338.992 276.028 338.176 276.7C337.384 277.348 336.652 277.912 335.98 278.392C335.308 278.848 334.612 279.304 333.892 279.76C333.772 280.984 334.012 281.872 334.612 282.424C334.972 282.784 335.464 282.904 336.088 282.784C336.736 282.664 337.408 282.436 338.104 282.1C338.8 281.74 339.532 281.284 340.3 280.732C341.068 280.156 341.764 279.604 342.388 279.076C343.012 278.524 343.564 277.996 344.044 277.492C344.212 277.324 344.404 277.24 344.62 277.24ZM335.08 276.16C334.864 276.544 334.672 276.94 334.504 277.348C335.776 276.46 336.844 275.62 337.708 274.828C338.572 274.036 339.004 273.472 339.004 273.136C339.004 273.112 338.872 273.076 338.608 273.028C338.536 273.004 338.464 272.992 338.392 272.992C337.912 272.992 337.36 273.292 336.736 273.892C336.136 274.468 335.584 275.224 335.08 276.16ZM358.273 277.852C358.513 277.804 358.717 277.852 358.885 277.996C359.077 278.14 359.185 278.332 359.209 278.572C359.257 278.788 359.209 278.992 359.065 279.184C358.897 279.4 358.693 279.64 358.453 279.904C358.237 280.168 357.877 280.552 357.373 281.056C356.869 281.56 356.365 282.004 355.861 282.388C355.357 282.772 354.781 283.108 354.133 283.396C353.485 283.684 352.873 283.828 352.297 283.828C351.721 283.828 351.193 283.684 350.713 283.396C349.993 282.964 349.621 282.184 349.597 281.056C347.989 283.024 346.465 283.816 345.025 283.432C343.849 283.096 343.249 282.268 343.225 280.948C343.201 280.012 343.525 278.896 344.197 277.6C344.893 276.304 345.721 275.152 346.681 274.144C347.641 273.136 348.505 272.524 349.273 272.308C349.945 272.092 350.557 272.152 351.109 272.488C351.421 272.68 351.697 272.968 351.937 273.352C351.937 273.328 351.937 273.316 351.937 273.316C351.937 273.292 351.937 273.28 351.937 273.28C352.057 273.088 352.213 272.956 352.405 272.884C352.621 272.788 352.825 272.788 353.017 272.884C353.233 272.98 353.389 273.136 353.485 273.352C353.581 273.568 353.581 273.772 353.485 273.964C353.149 274.804 352.777 275.656 352.369 276.52C351.841 277.888 351.493 279.064 351.325 280.048C351.181 281.032 351.265 281.668 351.577 281.956C351.913 282.196 352.321 282.244 352.801 282.1C353.281 281.956 353.749 281.752 354.205 281.488C354.661 281.2 355.129 280.84 355.609 280.408C356.113 279.952 356.533 279.544 356.869 279.184C357.205 278.8 357.493 278.452 357.733 278.14C357.877 277.972 358.057 277.876 358.273 277.852ZM350.821 275.836C350.869 275.716 350.929 275.572 351.001 275.404C350.905 275.284 350.833 275.152 350.785 275.008C350.689 274.456 350.497 274.096 350.209 273.928C350.161 273.88 350.101 273.856 350.029 273.856C349.957 273.856 349.873 273.868 349.777 273.892C348.889 274.156 347.845 275.128 346.645 276.808C345.469 278.488 344.893 279.868 344.917 280.948C344.917 281.404 345.109 281.692 345.493 281.812C346.189 282.004 347.017 281.512 347.977 280.336C348.961 279.136 349.909 277.636 350.821 275.836ZM370.491 282.136C370.731 282.064 370.947 282.088 371.139 282.208C371.331 282.328 371.451 282.508 371.499 282.748C371.571 282.964 371.547 283.168 371.427 283.36C371.355 283.504 371.235 283.684 371.067 283.9C370.923 284.14 370.623 284.5 370.167 284.98C369.735 285.484 369.267 285.928 368.763 286.312C368.283 286.696 367.671 287.044 366.927 287.356C366.183 287.668 365.427 287.824 364.659 287.824C364.275 287.824 363.891 287.788 363.507 287.716C361.155 287.26 359.547 285.688 358.683 283C357.819 280.288 357.771 276.7 358.539 272.236C358.851 270.388 359.307 268.444 359.907 266.404C360.507 264.34 361.215 262.336 362.031 260.392C362.847 258.448 363.711 256.708 364.623 255.172C365.535 253.636 366.495 252.436 367.503 251.572C368.535 250.684 369.519 250.312 370.455 250.456C370.503 250.456 370.551 250.468 370.599 250.492C371.319 250.732 371.811 251.236 372.075 252.004C372.411 253.036 372.243 254.632 371.571 256.792C370.923 258.952 370.071 261.112 369.015 263.272C367.983 265.432 366.735 267.796 365.271 270.364C363.807 272.932 362.691 274.828 361.923 276.052C361.179 277.276 360.507 278.356 359.907 279.292C359.859 279.364 359.799 279.424 359.727 279.472C360.015 283.384 361.383 285.58 363.831 286.06C364.503 286.18 365.175 286.132 365.847 285.916C366.519 285.724 367.083 285.46 367.539 285.124C367.995 284.788 368.427 284.392 368.835 283.936C369.267 283.504 369.555 283.192 369.699 283C369.843 282.784 369.939 282.616 369.987 282.496C370.107 282.304 370.275 282.184 370.491 282.136ZM360.195 272.488C359.955 273.856 359.799 275.164 359.727 276.412C361.695 273.292 363.507 270.208 365.163 267.16C366.819 264.112 368.199 261.172 369.303 258.34C370.431 255.508 370.827 253.576 370.491 252.544C370.419 252.328 370.299 252.172 370.131 252.076C370.083 252.076 370.059 252.076 370.059 252.076C369.387 252.076 368.571 252.676 367.611 253.876C366.651 255.076 365.703 256.612 364.767 258.484C363.831 260.356 362.931 262.552 362.067 265.072C361.227 267.592 360.603 270.064 360.195 272.488ZM379.814 275.728C380.054 275.68 380.27 275.728 380.462 275.872C380.654 275.992 380.762 276.172 380.786 276.412C380.834 276.628 380.786 276.832 380.642 277.024C380.258 277.552 379.814 278.116 379.31 278.716C378.83 279.316 378.158 280.072 377.294 280.984C376.43 281.872 375.518 282.592 374.558 283.144C373.598 283.72 372.722 284.008 371.93 284.008C371.426 284.008 370.958 283.9 370.526 283.684C369.998 283.372 369.674 282.772 369.554 281.884C369.41 280.996 369.458 279.964 369.698 278.788C369.938 277.612 370.19 276.568 370.454 275.656C370.718 274.744 371.018 273.832 371.354 272.92C371.426 272.704 371.558 272.548 371.75 272.452C371.966 272.356 372.182 272.344 372.398 272.416C372.542 272.464 372.662 272.548 372.758 272.668C372.854 272.788 372.914 272.92 372.938 273.064C372.962 273.184 372.95 273.328 372.902 273.496C372.398 274.888 371.978 276.268 371.642 277.636C371.33 278.98 371.162 280.024 371.138 280.768C371.114 281.512 371.186 281.992 371.354 282.208C372.146 282.64 373.334 282.184 374.918 280.84C376.502 279.472 377.954 277.876 379.274 276.052C379.418 275.86 379.598 275.752 379.814 275.728ZM371.93 269.68C371.522 269.68 371.258 269.488 371.138 269.104C371.042 268.888 371.042 268.684 371.138 268.492C371.258 268.276 371.426 268.12 371.642 268.024C371.69 268.024 371.762 268 371.858 267.952C371.978 267.904 372.098 267.856 372.218 267.808C372.338 267.76 372.446 267.712 372.542 267.664C372.662 267.616 372.758 267.58 372.83 267.556C372.926 267.508 372.974 267.484 372.974 267.484L373.622 269.068C372.854 269.38 372.374 269.56 372.182 269.608C372.11 269.656 372.026 269.68 371.93 269.68ZM398.222 264.316C398.438 264.22 398.654 264.22 398.87 264.316C399.086 264.388 399.23 264.532 399.302 264.748C399.398 264.94 399.398 265.144 399.302 265.36C398.942 266.272 397.754 267.052 395.738 267.7C393.722 268.324 391.166 268.504 388.07 268.24C387.038 268.144 386.03 268.06 385.046 267.988C383.798 270.532 382.322 273.328 380.618 276.376C380.258 278.368 380.15 280.396 380.294 282.46C380.438 284.524 380.786 285.784 381.338 286.24C381.554 286.432 381.794 286.504 382.058 286.456C382.562 286.408 383.102 286.096 383.678 285.52C384.254 284.968 384.71 284.452 385.046 283.972C385.166 283.78 385.334 283.66 385.55 283.612C385.79 283.564 386.006 283.6 386.198 283.72C386.39 283.864 386.51 284.044 386.558 284.26C386.606 284.5 386.57 284.716 386.45 284.908C386.33 285.076 386.174 285.28 385.982 285.52C385.79 285.76 385.49 286.084 385.082 286.492C384.698 286.924 384.254 287.284 383.75 287.572C383.27 287.884 382.778 288.076 382.274 288.148C382.178 288.148 382.07 288.148 381.95 288.148C381.302 288.148 380.726 287.932 380.222 287.5C379.598 286.948 379.142 285.916 378.854 284.404C378.59 282.916 378.494 281.44 378.566 279.976C378.614 278.488 378.746 277.144 378.962 275.944C378.962 275.92 378.974 275.908 378.998 275.908C379.502 273.46 380.15 270.736 380.942 267.736C374.486 267.424 370.79 267.712 369.854 268.6C369.71 268.744 369.518 268.816 369.278 268.816C369.038 268.816 368.834 268.732 368.666 268.564C368.522 268.396 368.45 268.204 368.45 267.988C368.45 267.748 368.534 267.544 368.702 267.376C369.998 266.152 374.234 265.72 381.41 266.08C383.474 258.736 385.346 254.5 387.026 253.372C387.53 253.06 388.034 252.964 388.538 253.084C389.042 253.18 389.402 253.48 389.618 253.984C389.69 254.104 389.738 254.284 389.762 254.524C389.786 254.74 389.75 255.172 389.654 255.82C389.582 256.444 389.426 257.176 389.186 258.016C388.97 258.856 388.574 260.008 387.998 261.472C387.422 262.936 386.702 264.568 385.838 266.368C386.606 266.416 387.41 266.476 388.25 266.548C389.282 266.644 390.23 266.68 391.094 266.656C391.958 266.632 392.738 266.572 393.434 266.476C394.13 266.356 394.73 266.224 395.234 266.08C395.762 265.912 396.206 265.744 396.566 265.576C396.926 265.408 397.202 265.252 397.394 265.108C397.586 264.964 397.706 264.832 397.754 264.712C397.85 264.52 398.006 264.388 398.222 264.316ZM387.962 254.776C386.666 255.64 385.046 259.432 383.102 266.152C383.294 266.176 383.594 266.2 384.002 266.224C385.466 263.2 386.582 260.644 387.35 258.556C388.118 256.444 388.37 255.148 388.106 254.668C388.106 254.692 388.058 254.728 387.962 254.776ZM382.022 270.22C382.406 269.476 382.802 268.684 383.21 267.844C383.162 267.844 383.102 267.844 383.03 267.844C382.958 267.844 382.886 267.844 382.814 267.844C382.742 267.844 382.682 267.844 382.634 267.844C382.418 268.636 382.214 269.428 382.022 270.22ZM402.153 277.852C402.201 278.02 402.213 278.176 402.189 278.32C402.165 278.44 402.105 278.56 402.009 278.68C401.913 278.8 401.793 278.884 401.649 278.932C400.449 279.364 399.249 279.904 398.049 280.552C397.881 283.984 397.245 287.14 396.141 290.02C395.181 292.516 393.873 295.012 392.217 297.508C390.561 300.004 388.821 302.104 386.997 303.808C385.197 305.536 383.613 306.568 382.245 306.904C381.933 306.976 381.645 307.012 381.381 307.012C380.709 307.012 380.133 306.796 379.653 306.364C378.573 305.428 378.249 303.892 378.681 301.756C379.065 299.74 380.085 297.364 381.741 294.628C383.373 291.892 385.509 289.132 388.149 286.348C390.789 283.564 393.537 281.32 396.393 279.616C396.441 277.144 396.249 275.368 395.817 274.288C395.433 274.696 394.665 275.62 393.513 277.06C392.385 278.476 391.485 279.568 390.813 280.336C390.141 281.104 389.433 281.788 388.689 282.388C387.969 282.988 387.357 283.324 386.853 283.396C386.397 283.444 386.001 283.336 385.665 283.072C384.561 282.16 384.633 279.856 385.881 276.16C386.481 274.408 387.141 272.776 387.861 271.264C387.957 271.072 388.113 270.94 388.329 270.868C388.569 270.772 388.785 270.772 388.977 270.868C389.193 270.964 389.337 271.132 389.409 271.372C389.505 271.588 389.493 271.792 389.373 271.984C388.317 274.24 387.513 276.364 386.961 278.356C386.433 280.324 386.361 281.452 386.745 281.74C387.321 281.74 389.133 279.832 392.181 276.016C393.381 274.528 394.209 273.556 394.665 273.1C395.121 272.62 395.529 272.368 395.889 272.344C396.177 272.32 396.417 272.392 396.609 272.56C397.569 273.4 398.061 275.428 398.085 278.644C399.117 278.116 400.113 277.684 401.073 277.348C401.289 277.276 401.505 277.288 401.721 277.384C401.937 277.48 402.081 277.636 402.153 277.852ZM394.557 289.408C395.469 287.08 396.045 284.488 396.285 281.632C393.693 283.312 391.209 285.436 388.833 288.004C386.457 290.572 384.537 293.092 383.073 295.564C381.609 298.06 380.697 300.232 380.337 302.08C380.025 303.592 380.169 304.6 380.769 305.104C381.009 305.32 381.369 305.368 381.849 305.248C382.953 304.984 384.309 304.084 385.917 302.548C387.525 301.012 389.133 299.044 390.741 296.644C392.373 294.244 393.645 291.832 394.557 289.408Z" fill="white"/>
<defs>
<linearGradient id="paint0_linear_381_763" x1="27.1592" y1="71.6766" x2="347.57" y2="71.6766" gradientUnits="userSpaceOnUse">
<stop stop-color="#E8380D"/>
<stop offset="0.0617" stop-color="#EB4D26"/>
<stop offset="0.1987" stop-color="#F17758"/>
<stop offset="0.3025" stop-color="#F59177"/>
<stop offset="0.3603" stop-color="#F69B83"/>
<stop offset="0.7151" stop-color="#D962A6"/>
<stop offset="1" stop-color="#C2157D"/>
</linearGradient>
</defs>
</svg>
