<svg width="35" height="35" viewBox="0 0 35 35" fill="none" xmlns="http://www.w3.org/2000/svg">
<g clip-path="url(#clip0_3876_2342)">
<path d="M35 17.5C35 7.83482 27.1652 0 17.5 0C7.83482 0 0 7.83482 0 17.5C0 26.2344 6.39852 33.4756 14.7648 34.7874V22.5582H10.3211V17.5H14.7648V13.6448C14.7648 9.25815 17.3781 6.83667 21.3759 6.83667C23.2919 6.83667 25.2933 7.17889 25.2933 7.17889V11.4852H23.087C20.9144 11.4852 20.2352 12.8333 20.2352 14.2178V17.5H25.0885L24.3133 22.5582H20.2352V34.7874C28.6015 33.4756 35 26.2344 35 17.5Z" fill="#4676ED"/>
<path d="M24.3106 22.5582L25.0858 17.5H20.2324V14.2178C20.2324 12.8333 20.9091 11.4852 23.0843 11.4852H25.2906V7.17889C25.2906 7.17889 23.2891 6.83667 21.3732 6.83667C17.3754 6.83667 14.7621 9.25815 14.7621 13.6448V17.5H10.3184V22.5582H14.7621V34.7874C15.6539 34.9274 16.5665 35 17.4972 35C18.428 35 19.3406 34.9274 20.2324 34.7874V22.5582H24.3106Z" fill="white"/>
</g>
<defs>
<clipPath id="clip0_3876_2342">
<rect width="35" height="35" fill="white"/>
</clipPath>
</defs>
</svg>
