<svg width="35" height="35" viewBox="0 0 35 35" fill="none" xmlns="http://www.w3.org/2000/svg">
<g clip-path="url(#clip0_3876_2330)">
<path d="M17.5 35C27.165 35 35 27.165 35 17.5C35 7.83502 27.165 0 17.5 0C7.83502 0 0 7.83502 0 17.5C0 27.165 7.83502 35 17.5 35Z" fill="url(#paint0_linear_3876_2330)"/>
<path d="M22.931 10.8818C22.6923 10.8818 22.459 10.9526 22.2605 11.0852C22.062 11.2179 21.9073 11.4063 21.816 11.6269C21.7246 11.8474 21.7007 12.0901 21.7473 12.3242C21.7939 12.5583 21.9088 12.7734 22.0776 12.9421C22.2464 13.1109 22.4615 13.2259 22.6956 13.2724C22.9297 13.319 23.1724 13.2951 23.3929 13.2038C23.6134 13.1124 23.8019 12.9577 23.9345 12.7592C24.0671 12.5608 24.1379 12.3274 24.1379 12.0887C24.1379 11.7686 24.0108 11.4617 23.7844 11.2353C23.5581 11.009 23.2511 10.8818 22.931 10.8818Z" fill="white"/>
<path d="M17.579 12.425C16.5792 12.425 15.6019 12.7215 14.7706 13.277C13.9393 13.8325 13.2913 14.622 12.9087 15.5457C12.5261 16.4694 12.426 17.4858 12.6211 18.4664C12.8161 19.447 13.2976 20.3477 14.0045 21.0547C14.7115 21.7616 15.6122 22.2431 16.5928 22.4381C17.5734 22.6332 18.5898 22.5331 19.5135 22.1505C20.4372 21.7679 21.2267 21.1199 21.7822 20.2886C22.3377 19.4573 22.6342 18.48 22.6342 17.4802C22.6342 16.1395 22.1016 14.8537 21.1535 13.9057C20.2055 12.9576 18.9197 12.425 17.579 12.425ZM17.579 20.715C16.9397 20.7131 16.3152 20.5217 15.7846 20.1651C15.2539 19.8084 14.8408 19.3025 14.5975 18.7113C14.3541 18.12 14.2915 17.4699 14.4174 16.843C14.5433 16.2162 14.8522 15.6407 15.305 15.1893C15.7578 14.7379 16.3342 14.4308 16.9615 14.3067C17.5887 14.1827 18.2386 14.2474 18.8291 14.4925C19.4197 14.7376 19.9243 15.1522 20.2793 15.684C20.6343 16.2157 20.8238 16.8408 20.8238 17.4802C20.8212 18.339 20.4782 19.1618 19.87 19.7682C19.2617 20.3745 18.4379 20.7151 17.579 20.715Z" fill="white"/>
<path d="M21.5953 27.7388H13.4043C11.7697 27.7388 10.2021 27.0895 9.04632 25.9337C7.89052 24.7779 7.24121 23.2103 7.24121 21.5757V13.3846C7.24121 11.7501 7.89052 10.1825 9.04632 9.02668C10.2021 7.87088 11.7697 7.22156 13.4043 7.22156H21.5953C23.2299 7.22156 24.7975 7.87088 25.9533 9.02668C27.1091 10.1825 27.7584 11.7501 27.7584 13.3846V21.5757C27.7584 23.2103 27.1091 24.7779 25.9533 25.9337C24.7975 27.0895 23.2299 27.7388 21.5953 27.7388ZM13.4043 9.15061C12.2813 9.15061 11.2044 9.5967 10.4104 10.3907C9.61635 11.1848 9.17025 12.2617 9.17025 13.3846V21.5757C9.17025 22.6986 9.61635 23.7756 10.4104 24.5696C11.2044 25.3636 12.2813 25.8097 13.4043 25.8097H21.5953C22.7183 25.8097 23.7952 25.3636 24.5893 24.5696C25.3833 23.7756 25.8294 22.6986 25.8294 21.5757V13.3846C25.8294 12.2617 25.3833 11.1848 24.5893 10.3907C23.7952 9.5967 22.7183 9.15061 21.5953 9.15061H13.4043Z" fill="white"/>
</g>
<defs>
<linearGradient id="paint0_linear_3876_2330" x1="1.10797" y1="3.65037" x2="36.0981" y2="33.2094" gradientUnits="userSpaceOnUse">
<stop stop-color="#FBE18A"/>
<stop offset="0.21" stop-color="#FCBB45"/>
<stop offset="0.38" stop-color="#F75274"/>
<stop offset="0.52" stop-color="#D53692"/>
<stop offset="0.74" stop-color="#8F39CE"/>
<stop offset="1" stop-color="#5B4FE9"/>
</linearGradient>
<clipPath id="clip0_3876_2330">
<rect width="35" height="35" fill="white"/>
</clipPath>
</defs>
</svg>
