<svg width="35" height="35" viewBox="0 0 35 35" fill="none" xmlns="http://www.w3.org/2000/svg">
<g clip-path="url(#clip0_3876_2324)">
<path d="M17.5 35C27.165 35 35 27.165 35 17.5C35 7.83502 27.165 0 17.5 0C7.83502 0 0 7.83502 0 17.5C0 27.165 7.83502 35 17.5 35Z" fill="white"/>
<path fill-rule="evenodd" clip-rule="evenodd" d="M22.1002 14.4926C23.5672 15.5378 25.3243 16.0982 27.1256 16.0952V12.4844C26.7731 12.488 26.4213 12.4515 26.077 12.3756V15.2247C24.2714 15.2255 22.5108 14.6617 21.0417 13.6122V20.9723C21.0424 22.1829 20.7141 23.3709 20.0917 24.4092C19.4694 25.4476 18.5765 26.2972 17.5085 26.8673C16.4406 27.4373 15.2378 27.7063 14.0287 27.6455C12.8197 27.5847 11.6499 27.1964 10.6445 26.522C11.5722 27.4722 12.762 28.1243 14.0621 28.3949C15.3622 28.6654 16.7134 28.5422 17.9431 28.041C19.1728 27.5398 20.2251 26.6833 20.9656 25.581C21.7061 24.4787 22.1011 23.1806 22.1002 21.8527V14.4926ZM23.3961 10.8522C22.6485 10.033 22.1928 8.98954 22.1002 7.88439V7.41943H21.1109C21.2382 8.11681 21.5087 8.78018 21.9054 9.36764C22.3022 9.9551 22.8165 10.4539 23.4159 10.8324L23.3961 10.8522ZM12.9792 23.7125C12.6336 23.2602 12.4216 22.7201 12.3673 22.1535C12.3129 21.5869 12.4184 21.0163 12.6717 20.5066C12.925 19.9968 13.3161 19.5682 13.8006 19.2694C14.285 18.9705 14.8435 18.8133 15.4128 18.8157C15.7245 18.8174 16.0343 18.8641 16.3328 18.9542V15.2643C15.9855 15.2149 15.6347 15.1951 15.2842 15.2049V18.0737C14.9824 17.9835 14.6692 17.9369 14.3543 17.9353C13.6649 17.9301 12.9943 18.1588 12.4517 18.5841C11.9092 19.0093 11.5269 19.606 11.3673 20.2766C11.2077 20.9472 11.2802 21.6521 11.5729 22.2762C11.8657 22.9003 12.3615 23.4066 12.9792 23.7125Z" fill="#EE1D52"/>
<path fill-rule="evenodd" clip-rule="evenodd" d="M21.0417 13.6122C22.5109 14.6617 24.2715 15.2255 26.077 15.2247V12.3657C24.9287 11.9754 23.8854 11.3264 23.0277 10.4687C22.1701 9.61108 21.5211 8.5678 21.1307 7.41943H18.4795V21.833C18.4078 22.505 18.1489 23.1434 17.7323 23.6756C17.3157 24.2077 16.7582 24.6123 16.123 24.8432C15.4879 25.0742 14.8006 25.1222 14.1395 24.9819C13.4784 24.8416 12.8699 24.5186 12.3833 24.0495C11.8967 23.5805 11.5515 22.9844 11.387 22.3289C11.2224 21.6734 11.2452 20.9849 11.4526 20.3416C11.66 19.6984 12.0438 19.1263 12.5603 18.6904C13.0767 18.2545 13.7052 17.9723 14.3741 17.8759C14.6892 17.8761 15.0025 17.9228 15.304 18.0144V15.1455C14.0317 15.0479 12.76 15.3418 11.6597 15.9879C10.5593 16.634 9.68301 17.6013 9.14841 18.7599C8.61381 19.9186 8.44653 21.213 8.66903 22.4695C8.89152 23.7259 9.49312 24.8842 10.3931 25.7888C11.293 26.6934 12.4482 27.301 13.7035 27.53C14.9588 27.7589 16.2542 27.5983 17.4155 27.0697C18.5769 26.541 19.5487 25.6697 20.2004 24.5727C20.8522 23.4757 21.1526 22.2055 21.0615 20.9327L21.0417 13.6122Z" fill="black"/>
<path fill-rule="evenodd" clip-rule="evenodd" d="M26.0771 12.3657V11.604C25.1302 11.6031 24.2021 11.3394 23.3962 10.8422C24.1106 11.6153 25.0473 12.1476 26.0771 12.3657ZM21.1308 7.4194C21.1308 7.2809 21.1308 7.14239 21.0814 7.00389V6.53894H17.4508V20.9723C17.4491 21.4933 17.3144 22.0052 17.0593 22.4594C16.8041 22.9137 16.4371 23.2952 15.9931 23.5678C15.5491 23.8404 15.0428 23.9949 14.5222 24.0168C14.0017 24.0386 13.4842 23.9271 13.0189 23.6927C13.4037 24.2035 13.9395 24.5802 14.5503 24.7696C15.1611 24.959 15.816 24.9513 16.4223 24.7478C17.0285 24.5442 17.5553 24.1551 17.9281 23.6355C18.3009 23.1159 18.5008 22.4922 18.4994 21.8527V7.4194H21.1308ZM15.3239 15.1653V14.3442C15.0188 14.3047 14.7115 14.2849 14.4039 14.2849C12.9739 14.2867 11.5823 14.7475 10.4339 15.5994C9.28547 16.4514 8.44084 17.6496 8.02436 19.0175C7.60788 20.3855 7.64154 21.851 8.12036 23.1984C8.59919 24.5458 9.49791 25.7039 10.6842 26.5022C9.77591 25.5704 9.15966 24.3934 8.91125 23.116C8.66283 21.8386 8.79308 20.5165 9.28596 19.3121C9.77885 18.1078 10.6129 17.0737 11.6856 16.337C12.7583 15.6002 14.0228 15.193 15.3239 15.1653Z" fill="#69C9D0"/>
</g>
<defs>
<clipPath id="clip0_3876_2324">
<rect width="35" height="35" fill="white"/>
</clipPath>
</defs>
</svg>
