<svg width="35" height="35" viewBox="0 0 35 35" fill="none" xmlns="http://www.w3.org/2000/svg">
<g clip-path="url(#clip0_3876_2338)">
<path d="M17.5 35C27.165 35 35 27.165 35 17.5C35 7.83502 27.165 0 17.5 0C7.83502 0 0 7.83502 0 17.5C0 27.165 7.83502 35 17.5 35Z" fill="#FF0000"/>
<path d="M26.8684 14.9972C26.8684 12.6724 24.9888 10.7928 22.664 10.7928H11.9207C9.5959 10.7928 7.71631 12.6724 7.71631 14.9972V20.0029C7.71631 22.3276 9.5959 24.2072 11.9207 24.2072H22.664C24.9888 24.2072 26.8684 22.3276 26.8684 20.0029V14.9972ZM20.547 17.8759L15.7293 20.2601C15.5413 20.359 14.8983 20.2205 14.8983 20.0127V15.1159C14.8983 14.8983 15.5414 14.7598 15.7392 14.8686L20.3492 17.3813C20.547 17.4901 20.7449 17.7671 20.547 17.8759Z" fill="white"/>
</g>
<defs>
<clipPath id="clip0_3876_2338">
<rect width="35" height="35" fill="white"/>
</clipPath>
</defs>
</svg>
