<svg width="277" height="36" viewBox="0 0 277 36" fill="none" xmlns="http://www.w3.org/2000/svg">
<path d="M27.0293 24L24.4014 14.7451H24.3223C24.4453 16.3213 24.5068 17.5459 24.5068 18.4189L24.5068 24H21.4307L21.4307 11.1504H26.0537L28.7344 20.2734H28.8047L31.4326 11.1504L36.0645 11.1504V24H32.874V18.3662C32.874 18.0732 32.877 17.748 32.8828 17.3906C32.8945 17.0332 32.9355 16.1572 33.0059 14.7627H32.9268L30.334 24H27.0293ZM38.833 24V11.1504H42.3223V24H38.833ZM50.8301 13.8135C50.0039 13.8135 49.3594 14.1533 48.8965 14.833C48.4336 15.5068 48.2021 16.4385 48.2021 17.6279C48.2021 20.1006 49.1426 21.3369 51.0234 21.3369C51.5918 21.3369 52.1426 21.2578 52.6758 21.0996C53.209 20.9414 53.7451 20.751 54.2842 20.5283V23.4639C53.2119 23.9385 51.999 24.1758 50.6455 24.1758C48.7061 24.1758 47.2178 23.6133 46.1807 22.4883C45.1494 21.3633 44.6338 19.7373 44.6338 17.6104C44.6338 16.2803 44.8828 15.1113 45.3809 14.1035C45.8848 13.0957 46.6055 12.3223 47.543 11.7832C48.4863 11.2383 49.5938 10.9658 50.8652 10.9658C52.2539 10.9658 53.5811 11.2676 54.8467 11.8711L53.7832 14.6045C53.3086 14.3818 52.834 14.1943 52.3594 14.042C51.8848 13.8896 51.375 13.8135 50.8301 13.8135ZM67.8105 24H64.3213V18.7617H60.2871V24H56.7979V11.1504H60.2871V15.9141H64.3213V11.1504H67.8105V24ZM78.2256 24L70.5967 24V11.1504L78.2256 11.1504V13.9365H74.0684V15.958H77.918V18.7441H74.0684V21.1699L78.2256 21.1699V24ZM80.4756 24V11.1504H83.9473V21.1963H88.8955V24H80.4756ZM90.9521 24V11.1504H94.4238V21.1963L99.3721 21.1963V24L90.9521 24ZM109.058 24H101.429V11.1504H109.058V13.9365H104.9V15.958H108.75V18.7441H104.9V21.1699H109.058V24ZM126.891 17.3027C126.891 19.4473 126.299 21.0996 125.115 22.2598C123.938 23.4199 122.279 24 120.141 24L115.983 24V11.1504L120.431 11.1504C122.493 11.1504 124.084 11.6777 125.203 12.7324C126.328 13.7871 126.891 15.3105 126.891 17.3027ZM123.287 17.4258C123.287 16.248 123.053 15.375 122.584 14.8066C122.121 14.2383 121.415 13.9541 120.466 13.9541H119.455V21.1523H120.229C121.283 21.1523 122.057 20.8477 122.549 20.2383C123.041 19.623 123.287 18.6855 123.287 17.4258ZM136.831 24H129.202V11.1504H136.831V13.9365L132.674 13.9365V15.958L136.523 15.958V18.7441L132.674 18.7441V21.1699H136.831V24ZM151.315 24H146.763L142.069 14.9473H141.99C142.102 16.3711 142.157 17.458 142.157 18.208V24L139.081 24V11.1504H143.616L148.292 20.0801H148.345C148.263 18.7852 148.222 17.7451 148.222 16.96V11.1504H151.315V24ZM154.093 24V11.1504H157.582V24H154.093ZM167.997 24L160.368 24V11.1504L167.997 11.1504V13.9365H163.84V15.958H167.689V18.7441H163.84V21.1699H167.997V24ZM178.649 20.0977C178.649 20.8945 178.447 21.6035 178.043 22.2246C177.639 22.8398 177.056 23.3203 176.294 23.666C175.532 24.0059 174.639 24.1758 173.613 24.1758C172.758 24.1758 172.04 24.1172 171.46 24C170.88 23.877 170.276 23.666 169.649 23.3672V20.2734C170.312 20.6133 171 20.8799 171.715 21.0732C172.43 21.2607 173.086 21.3545 173.684 21.3545C174.199 21.3545 174.577 21.2666 174.817 21.0908C175.058 20.9092 175.178 20.6777 175.178 20.3965C175.178 20.2207 175.128 20.0684 175.028 19.9395C174.935 19.8047 174.779 19.6699 174.562 19.5352C174.352 19.4004 173.783 19.125 172.857 18.709C172.02 18.3281 171.39 17.959 170.968 17.6016C170.552 17.2441 170.241 16.834 170.036 16.3711C169.837 15.9082 169.737 15.3604 169.737 14.7275C169.737 13.5439 170.168 12.6211 171.029 11.959C171.891 11.2969 173.074 10.9658 174.58 10.9658C175.91 10.9658 177.267 11.2734 178.649 11.8887L177.586 14.5693C176.385 14.0186 175.348 13.7432 174.475 13.7432C174.023 13.7432 173.695 13.8223 173.49 13.9805C173.285 14.1387 173.183 14.335 173.183 14.5693C173.183 14.8213 173.312 15.0469 173.569 15.2461C173.833 15.4453 174.542 15.8086 175.696 16.3359C176.804 16.834 177.571 17.3701 177.999 17.9443C178.433 18.5127 178.649 19.2305 178.649 20.0977ZM189.038 20.0977C189.038 20.8945 188.836 21.6035 188.432 22.2246C188.027 22.8398 187.444 23.3203 186.683 23.666C185.921 24.0059 185.027 24.1758 184.002 24.1758C183.146 24.1758 182.429 24.1172 181.849 24C181.269 23.877 180.665 23.666 180.038 23.3672V20.2734C180.7 20.6133 181.389 20.8799 182.104 21.0732C182.818 21.2607 183.475 21.3545 184.072 21.3545C184.588 21.3545 184.966 21.2666 185.206 21.0908C185.446 20.9092 185.566 20.6777 185.566 20.3965C185.566 20.2207 185.517 20.0684 185.417 19.9395C185.323 19.8047 185.168 19.6699 184.951 19.5352C184.74 19.4004 184.172 19.125 183.246 18.709C182.408 18.3281 181.778 17.959 181.356 17.6016C180.94 17.2441 180.63 16.834 180.425 16.3711C180.226 15.9082 180.126 15.3604 180.126 14.7275C180.126 13.5439 180.557 12.6211 181.418 11.959C182.279 11.2969 183.463 10.9658 184.969 10.9658C186.299 10.9658 187.655 11.2734 189.038 11.8887L187.975 14.5693C186.773 14.0186 185.736 13.7432 184.863 13.7432C184.412 13.7432 184.084 13.8223 183.879 13.9805C183.674 14.1387 183.571 14.335 183.571 14.5693C183.571 14.8213 183.7 15.0469 183.958 15.2461C184.222 15.4453 184.931 15.8086 186.085 16.3359C187.192 16.834 187.96 17.3701 188.388 17.9443C188.821 18.5127 189.038 19.2305 189.038 20.0977ZM198.653 24H191.024V11.1504H198.653V13.9365H194.496V15.958H198.346V18.7441H194.496V21.1699H198.653V24ZM205.579 24V11.1504H209.051V21.1963H213.999V24L205.579 24ZM226.98 11.1504V18.8848C226.98 20.5664 226.503 21.8701 225.548 22.7959C224.599 23.7158 223.228 24.1758 221.435 24.1758C219.683 24.1758 218.335 23.7275 217.392 22.8311C216.454 21.9346 215.985 20.6455 215.985 18.9639V11.1504H219.475V18.6914C219.475 19.5996 219.645 20.2588 219.984 20.6689C220.324 21.0791 220.825 21.2842 221.487 21.2842C222.196 21.2842 222.709 21.082 223.025 20.6777C223.348 20.2676 223.509 19.5996 223.509 18.6738V11.1504H226.98ZM234.838 16.4766H240.384V23.4023C238.878 23.918 237.223 24.1758 235.418 24.1758C233.438 24.1758 231.905 23.6016 230.821 22.4531C229.743 21.3047 229.204 19.667 229.204 17.54C229.204 15.4658 229.796 13.8516 230.979 12.6973C232.163 11.543 233.821 10.9658 235.954 10.9658C236.763 10.9658 237.524 11.042 238.239 11.1943C238.96 11.3467 239.587 11.54 240.12 11.7744L239.021 14.499C238.096 14.042 237.079 13.8135 235.972 13.8135C234.958 13.8135 234.173 14.1445 233.616 14.8066C233.065 15.4629 232.79 16.4033 232.79 17.6279C232.79 18.8291 233.039 19.7461 233.537 20.3789C234.041 21.0059 234.765 21.3193 235.708 21.3193C236.224 21.3193 236.698 21.2695 237.132 21.1699V19.1572H234.838V16.4766ZM255.026 17.5576C255.026 19.7197 254.496 21.3633 253.436 22.4883C252.375 23.6133 250.822 24.1758 248.777 24.1758C246.762 24.1758 245.215 23.6104 244.137 22.4795C243.064 21.3486 242.528 19.7021 242.528 17.54C242.528 15.4014 243.062 13.7695 244.128 12.6445C245.2 11.5137 246.756 10.9482 248.795 10.9482C250.84 10.9482 252.39 11.5078 253.444 12.627C254.499 13.7461 255.026 15.3896 255.026 17.5576ZM246.185 17.5576C246.185 20.042 247.049 21.2842 248.777 21.2842C249.656 21.2842 250.307 20.9824 250.729 20.3789C251.156 19.7754 251.37 18.835 251.37 17.5576C251.37 16.2744 251.153 15.3281 250.72 14.7188C250.292 14.1035 249.65 13.7959 248.795 13.7959C247.055 13.7959 246.185 15.0498 246.185 17.5576Z" fill="#473245"/>
<rect opacity="0.6" x="1" y="1" width="275" height="34" rx="9" stroke="url(#paint0_linear_661_1574)" stroke-width="2"/>
<defs>
<linearGradient id="paint0_linear_661_1574" x1="138.5" y1="0" x2="138.5" y2="36" gradientUnits="userSpaceOnUse">
<stop stop-color="#C2157D"/>
<stop offset="1" stop-color="#E8380D"/>
</linearGradient>
</defs>
</svg>
