<svg width="327" height="36" viewBox="0 0 327 36" fill="none" xmlns="http://www.w3.org/2000/svg">
<path d="M22.3115 24L21.6787 21.5918H17.5039L16.8535 24H13.0391L17.2314 11.0977L21.8633 11.0977L26.1084 24L22.3115 24ZM20.958 18.7441L20.4043 16.6348C20.2754 16.166 20.1172 15.5596 19.9297 14.8154C19.748 14.0713 19.6279 13.5381 19.5693 13.2158C19.5166 13.5146 19.4111 14.0068 19.2529 14.6924C19.1006 15.3779 18.7578 16.7285 18.2246 18.7441H20.958ZM27.5059 24L27.5059 11.1504H30.9775L30.9775 21.1963H35.9258V24H27.5059ZM45.6113 24H37.9824V11.1504L45.6113 11.1504V13.9365H41.4541V15.958H45.3037V18.7441H41.4541V21.1699H45.6113V24ZM59.4365 24H55.4199L52.915 19.9834L50.4365 24H46.5078L50.7705 17.4258L46.7627 11.1504L50.6123 11.1504L52.9326 15.123L55.165 11.1504H59.1289L55.0596 17.6982L59.4365 24ZM68.7705 24L68.1377 21.5918H63.9629L63.3125 24H59.498L63.6904 11.0977L68.3223 11.0977L72.5674 24H68.7705ZM67.417 18.7441L66.8633 16.6348C66.7344 16.166 66.5762 15.5596 66.3887 14.8154C66.207 14.0713 66.0869 13.5381 66.0283 13.2158C65.9756 13.5146 65.8701 14.0068 65.7119 14.6924C65.5596 15.3779 65.2168 16.7285 64.6836 18.7441H67.417ZM86.1992 24H81.6465L76.9531 14.9473H76.874C76.9854 16.3711 77.041 17.458 77.041 18.208V24H73.9648V11.1504H78.5L83.1758 20.0801H83.2285C83.1465 18.7852 83.1055 17.7451 83.1055 16.96V11.1504H86.1992V24ZM99.8838 17.3027C99.8838 19.4473 99.292 21.0996 98.1084 22.2598C96.9307 23.4199 95.2725 24 93.1338 24L88.9766 24V11.1504L93.4238 11.1504C95.4863 11.1504 97.0771 11.6777 98.1963 12.7324C99.3213 13.7871 99.8838 15.3105 99.8838 17.3027ZM96.2803 17.4258C96.2803 16.248 96.0459 15.375 95.5771 14.8066C95.1143 14.2383 94.4082 13.9541 93.459 13.9541H92.4482V21.1523H93.2217C94.2764 21.1523 95.0498 20.8477 95.542 20.2383C96.0342 19.623 96.2803 18.6855 96.2803 17.4258ZM105.667 19.3242V24H102.195V11.1504H106.405C109.897 11.1504 111.644 12.416 111.644 14.9473C111.644 16.4355 110.917 17.5869 109.464 18.4014L113.208 24L109.271 24L106.546 19.3242H105.667ZM105.667 16.7139H106.317C107.53 16.7139 108.137 16.1777 108.137 15.1055C108.137 14.2207 107.542 13.7783 106.353 13.7783H105.667V16.7139ZM122.261 24L121.628 21.5918H117.453L116.803 24H112.988L117.181 11.0977H121.812L126.058 24H122.261ZM120.907 18.7441L120.354 16.6348C120.225 16.166 120.066 15.5596 119.879 14.8154C119.697 14.0713 119.577 13.5381 119.519 13.2158C119.466 13.5146 119.36 14.0068 119.202 14.6924C119.05 15.3779 118.707 16.7285 118.174 18.7441H120.907ZM140.015 24L139.382 21.5918H135.207L134.557 24L130.742 24L134.935 11.0977L139.566 11.0977L143.812 24H140.015ZM138.661 18.7441L138.107 16.6348C137.979 16.166 137.82 15.5596 137.633 14.8154C137.451 14.0713 137.331 13.5381 137.272 13.2158C137.22 13.5146 137.114 14.0068 136.956 14.6924C136.804 15.3779 136.461 16.7285 135.928 18.7441H138.661ZM145.209 24V11.1504H148.681V21.1963H153.629V24H145.209ZM162.901 11.1504H166.786L162.576 24H158.489L154.297 11.1504H158.199L159.948 17.6631C160.312 19.1104 160.511 20.1182 160.546 20.6865C160.587 20.2764 160.669 19.7637 160.792 19.1484C160.915 18.5332 161.023 18.0498 161.117 17.6982L162.901 11.1504ZM176.067 24L175.435 21.5918H171.26L170.609 24H166.795L170.987 11.0977H175.619L179.864 24L176.067 24ZM174.714 18.7441L174.16 16.6348C174.031 16.166 173.873 15.5596 173.686 14.8154C173.504 14.0713 173.384 13.5381 173.325 13.2158C173.272 13.5146 173.167 14.0068 173.009 14.6924C172.856 15.3779 172.514 16.7285 171.98 18.7441L174.714 18.7441ZM184.733 19.3242V24H181.262V11.1504L185.472 11.1504C188.964 11.1504 190.71 12.416 190.71 14.9473C190.71 16.4355 189.983 17.5869 188.53 18.4014L192.274 24H188.337L185.612 19.3242H184.733ZM184.733 16.7139H185.384C186.597 16.7139 187.203 16.1777 187.203 15.1055C187.203 14.2207 186.608 13.7783 185.419 13.7783H184.733V16.7139ZM201.072 24L193.443 24V11.1504L201.072 11.1504V13.9365H196.915V15.958H200.765V18.7441H196.915V21.1699L201.072 21.1699V24ZM212.48 24H202.47V21.8555L208.033 13.9541L202.602 13.9541V11.1504L212.34 11.1504V13.2861L206.776 21.1963H212.48V24ZM228.327 15.2373C228.327 16.6729 227.902 17.7832 227.053 18.5684C226.209 19.3477 225.008 19.7373 223.449 19.7373H222.474V24H219.002V11.1504L223.449 11.1504C225.072 11.1504 226.291 11.5049 227.105 12.2139C227.92 12.9229 228.327 13.9307 228.327 15.2373ZM222.474 16.9072H223.106C223.628 16.9072 224.041 16.7607 224.346 16.4678C224.656 16.1748 224.812 15.7705 224.812 15.2549C224.812 14.3877 224.331 13.9541 223.37 13.9541H222.474V16.9072ZM230.375 24V11.1504H233.864V24H230.375ZM236.65 24V11.1504H240.122V21.1963L245.07 21.1963V24L236.65 24ZM259.15 17.5576C259.15 19.7197 258.62 21.3633 257.56 22.4883C256.499 23.6133 254.946 24.1758 252.901 24.1758C250.886 24.1758 249.339 23.6104 248.261 22.4795C247.188 21.3486 246.652 19.7021 246.652 17.54C246.652 15.4014 247.186 13.7695 248.252 12.6445C249.324 11.5137 250.88 10.9482 252.919 10.9482C254.964 10.9482 256.514 11.5078 257.568 12.627C258.623 13.7461 259.15 15.3896 259.15 17.5576ZM250.309 17.5576C250.309 20.042 251.173 21.2842 252.901 21.2842C253.78 21.2842 254.431 20.9824 254.853 20.3789C255.28 19.7754 255.494 18.835 255.494 17.5576C255.494 16.2744 255.277 15.3281 254.844 14.7188C254.416 14.1035 253.774 13.7959 252.919 13.7959C251.179 13.7959 250.309 15.0498 250.309 17.5576ZM273.705 24H269.152L264.459 14.9473H264.38C264.491 16.3711 264.547 17.458 264.547 18.208V24H261.471V11.1504L266.006 11.1504L270.682 20.0801H270.734C270.652 18.7852 270.611 17.7451 270.611 16.96V11.1504H273.705V24ZM276.482 24V11.1504H279.972V24H276.482ZM290.387 24L282.758 24V11.1504L290.387 11.1504V13.9365H286.229V15.958H290.079V18.7441H286.229V21.1699L290.387 21.1699V24ZM298.306 24H294.834V13.9893L291.696 13.9893V11.1504L301.435 11.1504V13.9893H298.306V24ZM311.155 24L310.522 21.5918H306.348L305.697 24H301.883L306.075 11.0977L310.707 11.0977L314.952 24L311.155 24ZM309.802 18.7441L309.248 16.6348C309.119 16.166 308.961 15.5596 308.773 14.8154C308.592 14.0713 308.472 13.5381 308.413 13.2158C308.36 13.5146 308.255 14.0068 308.097 14.6924C307.944 15.3779 307.602 16.7285 307.068 18.7441H309.802Z" fill="#473245"/>
<rect opacity="0.6" x="1" y="1" width="325" height="34" rx="9" stroke="url(#paint0_linear_661_1573)" stroke-width="2"/>
<defs>
<linearGradient id="paint0_linear_661_1573" x1="163.5" y1="0" x2="163.5" y2="36" gradientUnits="userSpaceOnUse">
<stop stop-color="#C2157D"/>
<stop offset="1" stop-color="#E8380D"/>
</linearGradient>
</defs>
</svg>
