<svg width="466" height="213" viewBox="0 0 466 213" fill="none" xmlns="http://www.w3.org/2000/svg">
<g opacity="0.4">
<path d="M9.96599 94.8386C10.2095 95.0685 10.3322 95.366 10.3343 95.731C10.3364 96.0961 10.2225 96.4004 9.99253 96.6438C9.46422 97.1746 8.86247 97.1834 8.18726 96.6704C7.78783 96.3473 7.48826 96.1051 7.28854 95.9436C7.04506 95.7136 6.92229 95.4161 6.92021 95.0511C6.95425 94.6822 7.08625 94.376 7.31619 94.1326C7.84449 93.6018 8.42819 93.5949 9.06728 94.1117C9.46671 94.4348 9.76628 94.677 9.96599 94.8386ZM15.522 94.251C15.7655 94.4809 15.8883 94.7784 15.8903 95.1435C15.8924 95.5085 15.7785 95.8128 15.5485 96.0563C15.0202 96.587 14.4185 96.5958 13.7433 96.0828C13.3438 95.7598 13.0443 95.5175 12.8446 95.356C12.6011 95.1261 12.4783 94.8286 12.4762 94.4635C12.5103 94.0947 12.6423 93.7885 12.8722 93.545C13.4005 93.0143 13.9842 93.0073 14.6233 93.5242C15.0227 93.8472 15.3223 94.0895 15.522 94.251ZM21.078 93.6635C21.3215 93.8934 21.4443 94.1909 21.4464 94.5559C21.4484 94.921 21.3345 95.2253 21.1046 95.4687C20.5763 95.9995 19.9745 96.0083 19.2993 95.4953C18.8999 95.1722 18.6003 94.93 18.4006 94.7685C18.1571 94.5385 18.0343 94.241 18.0322 93.876C18.0663 93.5071 18.1983 93.2009 18.4282 92.9575C18.9565 92.4267 19.5402 92.4198 20.1793 92.9366C20.5787 93.2597 20.8783 93.5019 21.078 93.6635ZM26.634 93.0759C26.8775 93.3058 27.0003 93.6033 27.0024 93.9684C27.0044 94.3334 26.8905 94.6377 26.6606 94.8812C26.1323 95.4119 25.5305 95.4207 24.8553 94.9077C24.4559 94.5847 24.1563 94.3424 23.9566 94.1809C23.7131 93.951 23.5903 93.6535 23.5882 93.2884C23.6223 92.9196 23.7543 92.6134 23.9842 92.3699C24.5125 91.8392 25.0962 91.8322 25.7353 92.3491C26.1347 92.6721 26.4343 92.9144 26.634 93.0759ZM32.19 92.4884C32.4335 92.7183 32.5563 93.0158 32.5584 93.3808C32.5605 93.7459 32.4465 94.0502 32.2166 94.2936C31.6883 94.8243 31.0865 94.8332 30.4113 94.3202C30.0119 93.9971 29.7123 93.7549 29.5126 93.5934C29.2691 93.3634 29.1463 93.0659 29.1443 92.7009C29.1783 92.332 29.3103 92.0258 29.5402 91.7823C30.0685 91.2516 30.6522 91.2447 31.2913 91.7615C31.6908 92.0846 31.9903 92.3268 32.19 92.4884ZM37.7461 91.9008C37.9895 92.1307 38.1123 92.4282 38.1144 92.7933C38.1165 93.1583 38.0025 93.4626 37.7726 93.7061C37.2443 94.2368 36.6425 94.2456 35.9673 93.7326C35.5679 93.4096 35.2683 93.1673 35.0686 93.0058C34.8251 92.7759 34.7024 92.4784 34.7003 92.1133C34.7343 91.7444 34.8663 91.4383 35.0963 91.1948C35.6246 90.6641 36.2083 90.6571 36.8473 91.174C37.2468 91.497 37.5463 91.7393 37.7461 91.9008ZM43.3021 91.3133C43.5456 91.5432 43.6683 91.8407 43.6704 92.2057C43.6725 92.5708 43.5586 92.8751 43.3286 93.1185C42.8003 93.6492 42.1985 93.6581 41.5233 93.1451C41.1239 92.822 40.8243 92.5798 40.6246 92.4183C40.3811 92.1883 40.2584 91.8908 40.2563 91.5258C40.2903 91.1569 40.4223 90.8507 40.6523 90.6072C41.1806 90.0765 41.7643 90.0696 42.4034 90.5864C42.8028 90.9095 43.1024 91.1517 43.3021 91.3133ZM48.8581 90.7257C49.1016 90.9556 49.2243 91.2531 49.2264 91.6182C49.2285 91.9832 49.1146 92.2875 48.8846 92.531C48.3563 93.0617 47.7546 93.0705 47.0794 92.5575C46.6799 92.2345 46.3804 91.9922 46.1806 91.8307C45.9372 91.6008 45.8144 91.3033 45.8123 90.9382C45.8463 90.5693 45.9783 90.2632 46.2083 90.0197C46.7366 89.489 47.3203 89.482 47.9594 89.9989C48.3588 90.3219 48.6584 90.5642 48.8581 90.7257Z" fill="#10060F"/>
<path d="M101.406 73.3888C101.853 73.1224 102.272 73.1146 102.664 73.3654C103.056 73.6162 103.26 73.9963 103.278 74.5059C103.327 74.9755 103.129 75.3435 102.682 75.6099C101.648 76.194 100.447 76.9238 99.0783 77.799C100.781 80.4315 101.598 83.3221 101.529 86.4706C101.407 92.2183 98.6719 98.4797 93.3249 105.255C88.1033 111.834 82.4559 116.632 76.3827 119.648C70.7238 122.438 66.8167 122.45 64.6612 119.682C61.2785 115.328 63.1072 108.615 70.1472 99.542C76.3188 91.584 84.6999 84.1411 95.2906 77.2134C94.1285 76.2405 92.7563 75.5272 91.1742 75.0735C89.6283 74.6161 87.9284 74.4305 86.0747 74.517C84.2209 74.6035 82.5574 74.7611 81.084 74.99C79.6106 75.2188 77.9119 75.5628 75.988 76.022C74.9158 76.245 73.528 76.5926 71.8247 77.065C70.1175 77.5012 68.4988 77.9098 66.9684 78.2908C65.4742 78.668 64.0826 78.9795 62.7936 79.2254C61.5845 79.5359 60.1453 79.7429 58.476 79.8463C56.8029 79.9137 55.394 79.7157 54.2491 79.2523C53.0606 78.7205 52.1961 77.9718 51.6556 77.0062C51.1152 76.0406 50.8922 74.9684 50.9867 73.7896C51.1135 72.5708 51.3402 71.4327 51.6667 70.3754C51.9932 69.3182 52.4119 68.2694 52.9229 67.2291C56.1216 60.8639 61.6001 54.6412 69.3583 48.5609C72.7983 45.8594 76.1654 43.6769 79.4596 42.0136C82.7499 40.3142 86.072 39.4332 89.4259 39.3708C93.4737 39.308 96.0725 40.5673 97.2221 43.1487C97.4753 43.8159 97.6582 44.5089 97.7707 45.2275C97.9155 45.9062 97.9235 46.6724 97.7946 47.5262C97.7018 48.3761 97.6138 49.0977 97.5304 49.6909C97.4432 50.248 97.2345 51.0372 96.9041 52.0583C96.57 53.0434 96.3298 53.708 96.1835 54.0522C96.0734 54.3926 95.8351 55.0753 95.4687 56.1003C95.2655 56.5966 94.9129 56.8896 94.411 56.9792C93.9453 57.065 93.5507 56.9606 93.2273 56.666C92.9001 56.3354 92.8201 55.9238 92.9872 55.4312C93.0726 55.203 93.2027 54.8788 93.3774 54.4585C93.5483 54.0021 93.6907 53.6218 93.8047 53.3176C93.9186 53.0133 94.061 52.633 94.2319 52.1766C94.399 51.684 94.5376 51.2676 94.6477 50.9272C94.754 50.5507 94.8745 50.1362 95.0093 49.6836C95.1441 49.231 95.2285 48.8203 95.2625 48.4514C95.3289 48.0426 95.3771 47.6357 95.4074 47.2307C95.4376 46.8257 95.4155 46.4445 95.3412 46.0871C95.2992 45.6898 95.223 45.3143 95.1125 44.9607C94.3186 42.6339 92.0955 41.6453 88.4432 41.995C84.8233 42.3048 80.55 44.0351 75.6233 47.1861C71.2441 49.9869 67.2054 53.2448 63.5073 56.9598C59.8452 60.671 57.0104 64.6053 55.0027 68.7625C53.0843 72.7276 52.9781 75.3505 54.6842 76.6312C55.1597 76.9827 55.734 77.2324 56.4072 77.3804C57.1164 77.5246 57.9407 77.547 58.8798 77.4477C59.8152 77.3122 60.5519 77.1978 61.0899 77.1044C61.6641 77.0071 62.4835 76.8109 63.548 76.5157C64.6488 76.2166 65.2714 76.0595 65.4159 76.0442C66.5565 75.7775 68.1914 75.3489 70.3206 74.7585C72.4459 74.1319 74.2577 73.6481 75.7557 73.307C77.2861 72.926 79.0009 72.5621 80.9001 72.2151C82.7955 71.832 84.6216 71.6572 86.3785 71.6906C88.1714 71.7201 89.8732 71.9237 91.4838 72.3013C93.8074 72.8591 95.811 74.017 97.4945 75.7749C98.8991 74.8958 100.203 74.1005 101.406 73.3888ZM98.4473 82.1942C98.0722 81.065 97.5802 80.0395 96.9714 79.1177C83.1855 87.9539 73.6416 97.1818 68.3397 106.801C67.9711 107.461 67.6226 108.137 67.294 108.829C66.9654 109.522 66.634 110.36 66.2999 111.345C66.0056 112.363 65.7941 113.298 65.6652 114.152C65.5725 115.002 65.6423 115.835 65.8746 116.65C66.107 117.466 66.5408 118.114 67.1761 118.595C68.5702 119.689 71.1273 119.346 74.8473 117.564C81.1411 114.561 86.8996 109.605 92.123 102.697C98.1101 94.722 100.218 87.8877 98.4473 82.1942ZM132.894 82.7155C133.247 82.6051 133.562 82.6449 133.838 82.8349C134.15 83.0211 134.343 83.2928 134.417 83.6503C134.524 83.9677 134.484 84.2824 134.298 84.5943C133.865 85.3341 133.229 86.0588 132.391 86.7684C131.553 87.478 130.632 87.9224 129.628 88.1016C128.267 88.3551 126.989 88.0154 125.794 87.0825C125.315 86.6948 124.883 86.0648 124.499 85.1922C124.15 84.3159 123.882 83.5042 123.693 82.7571C123.505 82.0099 123.276 80.8835 123.007 79.3778C122.23 75.4786 121.563 73.321 121.008 72.9049C120.093 73.586 118.227 77.5273 115.409 84.7289C113.713 89.0723 112.451 91.9819 111.62 93.4577C110.83 94.9658 110.02 95.7638 109.189 95.8517C109.117 95.8593 109.044 95.8669 108.972 95.8746C108.13 95.8541 107.531 95.3695 107.175 94.421C106.474 92.6322 106.61 87.8693 107.581 80.1325C107.562 79.9519 107.581 79.7855 107.638 79.6334C108.011 76.5987 108.497 73.4242 109.097 70.11C109.842 65.7575 110.675 61.7245 111.598 58.0108C112.516 54.261 113.452 51.0207 114.405 48.29C115.354 45.5231 116.298 43.3961 117.237 41.9088C118.422 39.9936 119.683 38.9653 121.02 38.824C122.248 38.6941 123.166 39.0901 123.775 40.0119C124.472 41.0706 124.55 43.0166 124.009 45.8498C123.501 48.643 122.681 51.5971 121.549 54.712C120.414 57.7907 118.991 61.2651 117.282 65.1351C115.605 68.9651 114.225 71.9784 113.143 74.1749C112.096 76.3676 111.09 78.4282 110.125 80.3565C109.758 83.0984 109.504 85.536 109.365 87.6693C109.221 89.7665 109.207 91.357 109.321 92.4407C109.997 91.2368 111.244 88.3472 113.062 83.7718C115.188 78.3235 116.809 74.6456 117.922 72.7381C119.071 70.8267 120.267 70.0428 121.508 70.3863C121.993 70.4812 122.421 70.7281 122.792 71.1272C123.163 71.5263 123.464 71.9511 123.694 72.4016C123.92 72.816 124.152 73.449 124.388 74.3007C124.66 75.1485 124.845 75.8595 124.942 76.4337C125.072 76.9679 125.25 77.7892 125.477 78.8975C126.235 82.6161 126.874 84.6853 127.393 85.1053C127.953 85.5575 128.555 85.7312 129.202 85.6263C129.776 85.5291 130.329 85.2332 130.861 84.7386C131.429 84.2401 131.853 83.757 132.132 83.2892C132.319 82.9773 132.572 82.7861 132.894 82.7155ZM119.408 43.2681C117.878 45.731 116.39 49.6142 114.941 54.9177C113.529 60.2173 112.312 65.9712 111.288 72.1794C113.62 67.2939 115.656 62.7136 117.396 58.4386C119.135 54.1637 120.406 50.4679 121.209 47.3512C122.044 44.1947 122.201 42.2239 121.68 41.4389C121.6 41.3743 121.45 41.3354 121.229 41.3222C120.76 41.3719 120.152 42.0205 119.408 43.2681ZM154.235 75.3632C154.589 75.2527 154.903 75.2925 155.179 75.4825C155.491 75.6687 155.684 75.9405 155.759 76.2979C155.865 76.6153 155.825 76.93 155.639 77.2419C155.421 77.5938 155.152 77.9875 154.833 78.423C154.55 78.8548 154.069 79.49 153.39 80.3288C152.712 81.1676 152.024 81.9161 151.327 82.5743C150.629 83.2325 149.816 83.8299 148.886 84.3665C147.957 84.9031 147.059 85.2173 146.192 85.309C145.325 85.4006 144.507 85.2679 143.739 84.9109C142.586 84.3753 141.902 83.2605 141.687 81.5665C139.58 84.7845 137.412 86.2192 135.183 85.8704C133.36 85.5519 132.325 84.4011 132.079 82.4182C131.894 81.0132 132.204 79.2819 133.009 77.2243C133.85 75.1629 134.913 73.2972 136.198 71.6273C137.482 69.9573 138.685 68.8986 139.807 68.4513C140.784 68.0192 141.714 68.0121 142.599 68.43C143.099 68.6693 143.56 69.0588 143.982 69.5986C143.979 69.5625 143.977 69.5444 143.977 69.5444C143.973 69.5083 143.971 69.4902 143.971 69.4902C144.121 69.1822 144.335 68.9587 144.612 68.8197C144.922 68.6409 145.229 68.6084 145.533 68.7223C145.874 68.8324 146.133 69.0424 146.312 69.3522C146.491 69.662 146.524 69.9691 146.41 70.2734C146.038 71.5911 145.613 72.9327 145.137 74.2981C144.56 76.4411 144.223 78.2665 144.127 79.7743C144.067 81.2783 144.295 82.2222 144.81 82.606C145.354 82.9137 145.976 82.921 146.675 82.6279C147.375 82.3348 148.047 81.9532 148.691 81.4833C149.332 80.9772 149.979 80.3609 150.632 79.6343C151.318 78.8677 151.886 78.1868 152.334 77.5915C152.779 76.96 153.157 76.3904 153.468 75.8826C153.658 75.6068 153.914 75.4337 154.235 75.3632ZM142.698 73.515C142.751 73.3267 142.819 73.1004 142.9 72.8361C142.737 72.6708 142.607 72.4836 142.512 72.2745C142.28 71.4589 141.933 70.9476 141.473 70.7406C141.393 70.676 141.299 70.6494 141.191 70.6609C141.083 70.6723 140.958 70.7038 140.817 70.7552C139.523 71.2939 138.106 72.923 136.567 75.6426C135.065 78.3584 134.417 80.5272 134.626 82.1489C134.698 82.8352 135.033 83.2381 135.63 83.3576C136.708 83.5358 137.876 82.6635 139.134 80.7407C140.424 78.7779 141.612 76.3693 142.698 73.515ZM177.462 62.168C177.679 62.1451 177.883 62.1783 178.075 62.2675C178.3 62.3169 178.494 62.4242 178.657 62.5895C178.821 62.7549 178.916 62.964 178.943 63.2168C179.002 63.4297 178.988 63.6503 178.903 63.8785C178.85 64.0668 178.723 64.2446 178.521 64.412C178.352 64.5395 178.161 64.6327 177.948 64.6918C175.728 65.1092 173.353 66.6571 170.823 69.3353C170.63 70.9629 170.175 72.874 169.457 75.0684C168.739 77.2629 168.159 78.8583 167.717 79.8548C167.31 80.8475 167.002 81.5559 166.791 81.98C165.744 84.1727 164.79 85.6799 163.927 86.5017C163.104 87.3558 162.309 87.6043 161.54 87.2472C160.395 86.7839 159.91 85.6481 160.084 83.8398C160.279 81.8833 161.15 79.4169 162.699 76.4406C164.279 73.4244 166.165 70.7046 168.356 68.2813C168.394 67.9485 168.415 67.6358 168.421 67.343C168.419 66.2839 168.263 65.6794 167.955 65.5294C167.291 65.1247 166.538 65.0766 165.694 65.385C164.142 65.9143 162.524 67.3639 160.839 69.7337C159.15 72.0674 157.879 74.2108 157.026 76.1639C156.234 78.0009 155.292 83.5978 154.199 92.9547C153.11 102.348 152.552 108.982 152.523 112.856C152.518 113.149 152.418 113.415 152.224 113.655C151.994 113.899 151.717 114.038 151.392 114.072C151.211 114.091 151.045 114.072 150.893 114.015C150.744 113.994 150.61 113.935 150.49 113.838C150.374 113.778 150.273 113.679 150.185 113.542C150.101 113.441 150.052 113.319 150.037 113.174C149.678 111.861 149.855 106.619 150.565 97.4482C151.239 88.2817 151.939 80.738 152.665 74.817L154.068 63.2174C154.142 62.8808 154.314 62.607 154.584 62.3958C154.854 62.1846 155.155 62.098 155.488 62.1358C155.857 62.1699 156.148 62.3399 156.363 62.6459C156.575 62.9158 156.661 63.2171 156.623 63.5499C156.566 63.702 156.143 67.1255 155.354 73.8204C155.804 72.8961 156.31 71.9842 156.872 71.0846C157.435 70.185 158.128 69.1437 158.953 67.9607C159.813 66.7739 160.764 65.742 161.803 64.865C162.839 63.9518 163.867 63.3135 164.888 62.9498C166.403 62.4243 167.839 62.5282 169.195 63.2615C170.047 63.7193 170.594 64.5746 170.836 65.8274C173.141 63.7938 175.35 62.574 177.462 62.168ZM162.591 84.2322C163.266 83.3573 164.029 81.9433 164.882 79.9902C165.771 78.0334 166.528 76.0357 167.152 73.9972C166.084 75.6442 165.147 77.314 164.34 79.0066C163.293 81.1993 162.71 82.9412 162.591 84.2322ZM194.097 67.9152C194.45 67.8047 194.783 67.8426 195.095 68.0288C195.403 68.1788 195.594 68.4325 195.669 68.79C195.775 69.1074 195.735 69.4221 195.549 69.734C195.055 70.5898 194.477 71.5094 193.814 72.4927C193.187 73.4722 192.296 74.717 191.14 76.2272C189.981 77.7012 188.723 78.9301 187.366 79.9137C186.013 80.9335 184.74 81.5064 183.548 81.6324C182.79 81.7127 182.068 81.6246 181.384 81.3682C180.539 80.9827 179.956 80.1312 179.634 78.8137C179.276 77.5001 179.184 75.9392 179.358 74.131C179.532 72.3227 179.745 70.7113 179.997 69.2966C180.25 67.8819 180.556 66.4615 180.916 65.0353C180.99 64.6988 181.164 64.443 181.438 64.2679C181.748 64.089 182.071 64.0366 182.408 64.1106C182.632 64.1599 182.826 64.2672 182.99 64.4326C183.153 64.5979 183.264 64.787 183.324 64.9999C183.379 65.1767 183.384 65.3954 183.338 65.6559C182.801 67.8312 182.389 69.9752 182.101 72.0876C181.845 74.1602 181.758 75.7583 181.841 76.8819C181.923 78.0055 182.108 78.7165 182.395 79.0149C183.656 79.5391 185.371 78.6636 187.541 76.3886C189.708 74.0775 191.639 71.4442 193.336 68.4888C193.522 68.1769 193.775 67.9857 194.097 67.9152ZM181.268 60.0671C180.654 60.132 180.226 59.885 179.984 59.3262C179.805 59.0163 179.773 58.7093 179.887 58.405C180.033 58.0608 180.261 57.7993 180.571 57.6204C180.643 57.6128 180.747 57.5652 180.884 57.4777C181.057 57.3863 181.23 57.295 181.403 57.2036C181.576 57.1123 181.731 57.0229 181.868 56.9353C182.041 56.844 182.18 56.7745 182.284 56.7269C182.421 56.6394 182.49 56.5956 182.49 56.5956L183.717 58.8766C182.611 59.4685 181.917 59.8158 181.636 59.9186C181.535 60.0023 181.412 60.0518 181.268 60.0671ZM212.208 75.6977C212.569 75.6595 212.872 75.7554 213.115 75.9854C213.395 76.2115 213.554 76.5051 213.592 76.8664C213.626 77.1915 213.531 77.4938 213.304 77.7734C212.198 79.0593 211.013 79.769 209.749 79.9027C209.135 79.9676 208.556 79.8462 208.012 79.5385C207.472 79.2669 206.995 78.7328 206.582 77.9364C206.209 77.1722 205.932 76.4527 205.751 75.7779C205.607 75.0992 205.391 74.0992 205.105 72.7779C204.637 70.4167 204.253 69.0328 203.954 68.626C203.114 68.9706 201.167 71.4594 198.114 76.0924C197.014 77.7794 196.191 78.9805 195.646 79.6956C195.101 80.4108 194.621 80.8816 194.206 81.108C193.796 81.3706 193.377 81.3784 192.949 81.1314C192.521 80.8845 192.3 80.5243 192.287 80.0509C192.267 77.7883 192.936 71.855 194.294 62.2509C194.368 61.9143 194.54 61.6404 194.81 61.4292C195.08 61.2181 195.381 61.1314 195.714 61.1693C196.083 61.2033 196.375 61.3734 196.59 61.6794C196.801 61.9492 196.888 62.2506 196.85 62.5833C196.16 67.1125 195.593 71.5923 195.148 76.0225C195.367 75.6707 195.648 75.2209 195.992 74.6732C198.07 71.5312 199.697 69.2954 200.871 67.9659C202.045 66.6363 203.146 65.9903 204.173 66.0278C204.686 66.0466 205.122 66.2013 205.482 66.492C205.877 66.7789 206.204 67.2741 206.461 67.9774C206.718 68.6808 206.911 69.2996 207.041 69.8338C207.206 70.3641 207.402 71.1835 207.629 72.2919C208.251 75.404 208.775 77.0835 209.203 77.3305C209.435 77.4521 209.774 77.3797 210.221 77.1133C210.664 76.8108 211.049 76.4778 211.376 76.1145C211.57 75.8749 211.847 75.7359 212.208 75.6977ZM238.632 67.3148C238.687 67.4916 238.706 67.6722 238.689 67.8567C238.704 68.0012 238.683 68.1495 238.627 68.3016C238.57 68.4537 238.475 68.5916 238.342 68.7153C238.245 68.8351 238.108 68.9226 237.931 68.9779C235.692 69.9087 233.538 70.9583 231.47 72.1267C231.489 76.1061 231.059 79.9869 230.181 83.769C229.306 87.5872 228.129 90.9626 226.649 93.8951C225.209 96.8599 223.657 99.4531 221.993 101.675C220.328 103.896 218.62 105.702 216.868 107.093C214.745 108.779 212.798 109.715 211.028 109.902C209.908 110.021 208.939 109.831 208.119 109.333C206.858 108.809 206.254 107.065 206.305 104.101C206.335 102.308 206.604 100.362 207.113 98.2623C207.621 96.163 208.458 93.883 209.622 91.4221C210.79 88.9974 212.199 86.602 213.848 84.236C215.537 81.9023 217.643 79.5427 220.167 77.1573C222.731 74.8041 225.558 72.6971 228.649 70.8361C228.538 66.6837 228.032 62.7559 227.129 59.0526C227.096 59.0925 227.068 59.1686 227.043 59.2808L226.904 59.5147C223.48 65.8306 220.673 70.3646 218.48 73.1169C216.323 75.8653 214.416 76.9984 212.758 76.5163C211.812 76.2145 211.225 75.4913 210.994 74.3468C210.704 72.9894 210.932 70.9929 211.676 68.3574C212.42 65.7218 213.363 63.2478 214.507 60.9352C215.65 58.6227 216.657 57.0917 217.528 56.3421C218.837 55.254 220.175 54.7837 221.543 54.9313C222.761 55.0581 223.731 55.5948 224.452 56.5413C224.664 56.8112 224.752 57.1305 224.718 57.4994C224.68 57.8322 224.508 58.106 224.202 58.321C223.932 58.5322 223.631 58.6189 223.298 58.581C222.962 58.507 222.688 58.3351 222.477 58.0652C222.11 57.7022 221.704 57.4895 221.259 57.4269C220.633 57.3835 219.933 57.6766 219.16 58.3063C218.322 59.0159 217.371 60.5593 216.307 62.9364C215.24 65.2775 214.409 67.6117 213.815 69.9392C213.254 72.2267 213.164 73.6242 213.546 74.1317C213.695 74.1525 213.857 74.1353 214.034 74.0801C214.207 73.9888 214.445 73.8175 214.747 73.5664C215.085 73.3115 215.45 72.9624 215.841 72.5192C216.229 72.0399 216.71 71.4046 217.284 70.6134C217.89 69.7823 218.537 68.8189 219.224 67.7235C219.912 66.628 220.72 65.2824 221.647 63.6868C222.57 62.055 223.568 60.2692 224.641 58.3294C225.622 56.5455 226.237 55.4576 226.488 55.0658C226.771 54.6341 227.173 54.4638 227.694 54.5548C228.247 54.6058 228.605 54.8785 228.767 55.3728C230.239 59.9656 231.111 64.5853 231.383 69.232C233.181 68.2748 235.043 67.4021 236.969 66.6141C237.286 66.5074 237.599 66.5291 237.907 66.6792C238.247 66.7893 238.489 67.0012 238.632 67.3148ZM215.29 105.123C217.107 103.652 218.736 101.964 220.178 100.058C221.66 98.185 222.896 96.2279 223.886 94.1873C224.912 92.143 225.758 89.9532 226.424 87.6181C227.13 85.3153 227.655 83.0315 228 80.7669C228.345 78.5023 228.558 76.1969 228.639 73.8506C224.911 76.2538 221.644 79.0284 218.835 82.1745C216.03 85.3567 213.89 88.4322 212.414 91.4008C210.938 94.3695 209.899 97.3284 209.298 100.278C209.112 101.283 208.993 102.228 208.94 103.11C208.851 103.996 208.834 104.692 208.887 105.197C208.944 105.739 209.008 106.171 209.079 106.492C209.149 106.813 209.244 107.022 209.364 107.119C209.952 107.496 210.774 107.5 211.831 107.132C212.888 106.765 214.041 106.095 215.29 105.123ZM264.314 60.4896C264.668 60.3792 265.001 60.4171 265.312 60.6032C265.621 60.7533 265.812 61.007 265.886 61.3644C265.993 61.6819 265.953 61.9966 265.767 62.3085C265.273 63.1643 264.694 64.0839 264.031 65.0672C263.404 66.0466 262.513 67.2915 261.358 68.8017C260.199 70.2757 258.941 71.5046 257.584 72.4882C256.23 73.5079 254.958 74.0808 253.766 74.2069C253.007 74.2871 252.286 74.1991 251.601 73.9427C250.757 73.5572 250.173 72.7057 249.851 71.3882C249.493 70.0746 249.401 68.5137 249.575 66.7054C249.749 64.8972 249.963 63.2858 250.215 61.8711C250.467 60.4564 250.773 59.036 251.134 57.6098C251.208 57.2732 251.382 57.0174 251.655 56.8424C251.965 56.6635 252.288 56.6111 252.625 56.6851C252.849 56.7344 253.043 56.8417 253.207 57.007C253.371 57.1724 253.482 57.3615 253.541 57.5744C253.596 57.7512 253.601 57.9699 253.556 58.2304C253.019 60.4057 252.606 62.5496 252.318 64.6621C252.062 66.7347 251.976 68.3327 252.058 69.4564C252.14 70.58 252.325 71.291 252.612 71.5894C253.873 72.1135 255.589 71.2381 257.759 68.9631C259.925 66.652 261.857 64.0187 263.553 61.0632C263.739 60.7513 263.993 60.5601 264.314 60.4896ZM251.485 52.6415C250.871 52.7065 250.443 52.4595 250.201 51.9006C250.023 51.5908 249.99 51.2838 250.104 50.9795C250.25 50.6353 250.478 50.3738 250.788 50.1949C250.86 50.1873 250.965 50.1397 251.102 50.0521C251.275 49.9608 251.448 49.8695 251.621 49.7781C251.794 49.6868 251.949 49.5973 252.085 49.5098C252.258 49.4185 252.397 49.349 252.502 49.3014C252.639 49.2139 252.707 49.1701 252.707 49.1701L253.934 51.4511C252.828 52.0429 252.134 52.3902 251.853 52.4931C251.752 52.5768 251.63 52.6263 251.485 52.6415ZM295.395 63.8325C295.748 63.722 296.081 63.7599 296.393 63.9461C296.701 64.0961 296.892 64.3499 296.967 64.7073C297.073 65.0247 297.052 65.3375 296.901 65.6456C296.808 65.8015 296.681 65.9794 296.52 66.1791C296.394 66.375 296.186 66.6527 295.895 67.0122C295.605 67.3716 295.238 67.7026 294.795 68.0052C294.348 68.2716 293.892 68.4477 293.426 68.5334C292.499 68.7411 291.599 68.5258 290.728 67.8873C290.412 67.665 290.134 67.2745 289.892 66.7156C289.686 66.1529 289.404 65.2148 289.046 63.9011C288.286 61.2054 287.701 59.6419 287.29 59.2105C286.996 59.5339 286.186 60.8614 284.862 63.193C284.526 63.813 284.265 64.2789 284.079 64.5908C283.929 64.8989 283.682 65.3268 283.338 65.8746C283.03 66.4185 282.781 66.8283 282.591 67.1041C282.397 67.3438 282.139 67.6633 281.816 68.0628C281.529 68.4584 281.249 68.7437 280.975 68.9188C280.737 69.09 280.462 69.247 280.148 69.3897C279.871 69.5287 279.585 69.5953 279.293 69.5898C279 69.5842 278.683 69.5264 278.343 69.4163C277.654 69.1238 277.167 68.3169 276.881 66.9957C276.632 65.6706 276.492 63.6581 276.462 60.9583C276.318 57.8687 276.158 55.8401 275.983 54.8724C275.211 55.8672 273.72 58.3444 271.509 62.3039C270.096 64.8276 268.986 66.7713 268.181 68.1349C267.371 69.4624 266.531 70.6654 265.658 71.7439C264.826 72.8546 264.096 73.5528 263.469 73.8383C263.332 73.9258 263.192 73.9772 263.047 73.9925C262.794 74.0192 262.552 73.9718 262.32 73.8502C261.972 73.6679 261.757 73.3619 261.675 72.9322C261.444 71.7877 261.671 69.7912 262.356 66.9428C263.041 64.0943 263.647 61.8752 264.173 60.2854C264.695 58.6596 265.18 57.202 265.628 55.9127C265.778 55.6046 266.01 55.3792 266.324 55.2364C266.633 55.0576 266.942 55.0432 267.25 55.1932C267.591 55.3033 267.832 55.5152 267.975 55.8288C268.154 56.1387 268.17 56.4657 268.024 56.8099C266.277 61.7066 265.072 65.852 264.408 69.2462C265.455 67.7474 267.082 65.0002 269.289 61.0045C270.739 58.477 271.806 56.6474 272.49 55.5158C273.206 54.3443 273.858 53.4351 274.448 52.7884C275.037 52.1417 275.584 51.7916 276.09 51.7381C276.595 51.6846 277.048 51.8194 277.448 52.1424C277.971 52.5985 278.341 53.509 278.558 54.874C278.776 56.2391 278.913 58.2335 278.972 60.8572C279.103 64.1673 279.28 66.1941 279.505 66.9374C280.009 66.5188 281.057 64.8556 282.648 61.9478C283.726 60.044 284.569 58.6947 285.179 57.8996C285.789 57.1046 286.437 56.6708 287.123 56.5982C287.593 56.5485 288.024 56.6491 288.416 56.8999C288.843 57.1468 289.187 57.4575 289.446 57.832C289.701 58.1703 289.976 58.7073 290.273 59.4429C290.567 60.1425 290.774 60.7232 290.896 61.1852C291.054 61.6433 291.255 62.3343 291.499 63.2583C291.916 64.7848 292.212 65.6849 292.387 65.9586C292.583 66.084 292.751 66.121 292.892 66.0696C293.498 65.9324 294.097 65.376 294.688 64.4004C294.838 64.0923 295.073 63.903 295.395 63.8325ZM316.735 58.1787C317.089 58.0683 317.404 58.108 317.679 58.298C317.991 58.4842 318.184 58.756 318.259 59.1134C318.365 59.4309 318.326 59.7456 318.139 60.0575C317.921 60.4093 317.652 60.803 317.333 61.2386C317.05 61.6703 316.569 62.3056 315.891 63.1444C315.212 63.9832 314.524 64.7317 313.827 65.3898C313.129 66.048 312.316 66.6454 311.387 67.182C310.457 67.7187 309.559 68.0328 308.692 68.1245C307.825 68.2162 307.007 68.0835 306.239 67.7264C305.087 67.1908 304.402 66.076 304.187 64.382C302.08 67.6001 299.912 69.0347 297.684 68.6859C295.86 68.3674 294.825 67.2166 294.579 65.2337C294.394 63.8287 294.704 62.0974 295.509 60.0399C296.35 57.9784 297.413 56.1127 298.698 54.4428C299.982 52.7728 301.185 51.7142 302.307 51.2668C303.284 50.8347 304.215 50.8276 305.099 51.2455C305.599 51.4848 306.06 51.8744 306.483 52.4141C306.479 52.378 306.477 52.36 306.477 52.36C306.473 52.3238 306.471 52.3058 306.471 52.3058C306.621 51.9977 306.835 51.7742 307.112 51.6353C307.422 51.4564 307.729 51.4239 308.034 51.5378C308.374 51.648 308.634 51.8579 308.813 52.1678C308.991 52.4776 309.024 52.7846 308.91 53.0889C308.538 54.4067 308.114 55.7482 307.637 57.1136C307.06 59.2567 306.723 61.0821 306.627 62.5898C306.567 64.0938 306.795 65.0377 307.31 65.4215C307.854 65.7293 308.476 65.7366 309.175 65.4434C309.875 65.1503 310.547 64.7687 311.191 64.2988C311.832 63.7928 312.479 63.1764 313.132 62.4498C313.818 61.6833 314.386 61.0023 314.834 60.407C315.279 59.7755 315.657 59.2059 315.968 58.6981C316.158 58.4223 316.414 58.2492 316.735 58.1787ZM305.198 56.3305C305.251 56.1422 305.319 55.916 305.4 55.6516C305.237 55.4863 305.107 55.2991 305.012 55.09C304.78 54.2744 304.434 53.7632 303.973 53.5561C303.894 53.4915 303.799 53.465 303.691 53.4764C303.583 53.4879 303.458 53.5193 303.317 53.5707C302.023 54.1094 300.606 55.7385 299.068 58.4582C297.565 61.1739 296.918 63.3427 297.126 64.9644C297.198 65.6507 297.533 66.0536 298.13 66.1731C299.208 66.3513 300.376 65.479 301.634 63.5562C302.924 61.5934 304.112 59.1849 305.198 56.3305ZM343.561 56.2185C343.616 56.3953 343.635 56.5759 343.618 56.7604C343.634 56.9048 343.613 57.0532 343.556 57.2053C343.499 57.3574 343.404 57.4953 343.271 57.619C343.174 57.7388 343.037 57.8263 342.86 57.8815C340.621 58.8124 338.467 59.862 336.399 61.0304C336.418 65.0098 335.989 68.8905 335.11 72.6727C334.235 76.4909 333.058 79.8663 331.579 82.7988C330.139 85.7636 328.587 88.3568 326.922 90.5783C325.258 92.7998 323.549 94.606 321.797 95.9966C319.674 97.6822 317.728 98.6186 315.958 98.8058C314.838 98.9242 313.868 98.7345 313.048 98.2368C311.787 97.7126 311.183 95.9685 311.235 93.0043C311.264 91.2114 311.533 89.2653 312.042 87.166C312.55 85.0667 313.387 82.7866 314.551 80.3258C315.719 77.9011 317.128 75.5057 318.777 73.1397C320.466 70.806 322.573 68.4464 325.097 66.0609C327.66 63.7078 330.487 61.6007 333.578 59.7398C333.468 55.5874 332.961 51.6595 332.058 47.9562C332.026 47.9962 331.997 48.0723 331.973 48.1844L331.833 48.4184C328.41 54.7342 325.602 59.2683 323.409 62.0205C321.252 64.769 319.345 65.9021 317.687 65.42C316.742 65.1181 316.154 64.395 315.923 63.2505C315.634 61.8931 315.861 59.8966 316.605 57.2611C317.349 54.6255 318.293 52.1514 319.436 49.8389C320.58 47.5264 321.587 45.9953 322.457 45.2458C323.766 44.1576 325.105 43.6874 326.472 43.835C327.691 43.9618 328.661 44.4985 329.382 45.445C329.593 45.7148 329.681 46.0342 329.647 46.4031C329.609 46.7358 329.438 47.0097 329.132 47.2247C328.862 47.4359 328.56 47.5225 328.228 47.4847C327.891 47.4107 327.617 47.2387 327.406 46.9689C327.039 46.6059 326.633 46.3931 326.188 46.3306C325.562 46.2872 324.863 46.5803 324.089 47.21C323.251 47.9196 322.3 49.463 321.237 51.8401C320.169 54.1811 319.339 56.5154 318.745 58.8429C318.183 61.1304 318.093 62.5279 318.476 63.0354C318.624 63.0562 318.787 63.039 318.963 62.9838C319.136 62.8924 319.374 62.7212 319.676 62.4701C320.014 62.2152 320.379 61.8661 320.771 61.4229C321.158 60.9436 321.639 60.3083 322.213 59.5171C322.819 58.6859 323.466 57.7226 324.154 56.6271C324.841 55.5317 325.649 54.1861 326.576 52.5905C327.499 50.9587 328.497 49.1729 329.571 47.233C330.551 45.4492 331.166 44.3613 331.417 43.9695C331.7 43.5378 332.102 43.3674 332.623 43.4584C333.177 43.5095 333.534 43.7822 333.696 44.2764C335.168 48.8693 336.04 53.489 336.312 58.1357C338.11 57.1784 339.972 56.3058 341.898 55.5177C342.215 55.4111 342.528 55.4328 342.836 55.5829C343.177 55.693 343.418 55.9049 343.561 56.2185ZM320.219 94.0267C322.036 92.5561 323.665 90.8679 325.108 88.9621C326.59 87.0886 327.826 85.1316 328.815 83.091C329.841 81.0466 330.687 78.8569 331.353 76.5218C332.059 74.2189 332.585 71.9352 332.93 69.6706C333.275 67.406 333.487 65.1005 333.568 62.7543C329.841 65.1574 326.573 67.9321 323.764 71.0782C320.959 74.2604 318.819 77.3358 317.343 80.3045C315.867 83.2731 314.829 86.2321 314.227 89.1813C314.042 90.1872 313.922 91.1312 313.869 92.0134C313.781 92.8995 313.763 93.5954 313.816 94.1011C313.874 94.6429 313.938 95.0745 314.008 95.3958C314.079 95.7171 314.174 95.9262 314.294 96.0231C314.881 96.3993 315.704 96.4036 316.76 96.0362C317.817 95.6687 318.97 94.9989 320.219 94.0267ZM355.803 50.8146C356.157 50.7042 356.49 50.742 356.801 50.9282C357.11 51.0783 357.301 51.332 357.375 51.6894C357.482 52.0069 357.442 52.3216 357.256 52.6335C356.762 53.4893 356.183 54.4089 355.52 55.3921C354.893 56.3716 354.002 57.6165 352.847 59.1266C351.688 60.6007 350.43 61.8296 349.073 62.8132C347.719 63.8329 346.447 64.4058 345.255 64.5319C344.496 64.6121 343.775 64.5241 343.09 64.2677C342.246 63.8822 341.662 63.0307 341.34 61.7132C340.982 60.3996 340.89 58.8387 341.064 57.0304C341.238 55.2222 341.452 53.6108 341.704 52.1961C341.956 50.7814 342.262 49.3609 342.623 47.9348C342.697 47.5982 342.871 47.3424 343.144 47.1674C343.454 46.9885 343.777 46.9361 344.114 47.01C344.338 47.0594 344.532 47.1667 344.696 47.332C344.86 47.4974 344.971 47.6865 345.03 47.8994C345.085 48.0762 345.09 48.2949 345.045 48.5554C344.508 50.7307 344.095 52.8746 343.807 54.9871C343.551 57.0597 343.465 58.6577 343.547 59.7814C343.629 60.905 343.814 61.616 344.101 61.9144C345.362 62.4385 347.078 61.5631 349.248 59.2881C351.414 56.977 353.346 54.3437 355.042 51.3882C355.228 51.0763 355.482 50.8851 355.803 50.8146ZM342.974 42.9665C342.36 43.0315 341.932 42.7845 341.69 42.2256C341.512 41.9158 341.479 41.6088 341.593 41.3045C341.739 40.9603 341.967 40.6988 342.277 40.5199C342.349 40.5122 342.454 40.4647 342.591 40.3771C342.764 40.2858 342.937 40.1944 343.11 40.1031C343.283 40.0118 343.438 39.9223 343.574 39.8348C343.747 39.7434 343.886 39.674 343.991 39.6264C344.128 39.5389 344.196 39.4951 344.196 39.4951L345.423 41.7761C344.317 42.3679 343.623 42.7152 343.342 42.818C343.241 42.9018 343.119 42.9512 342.974 42.9665ZM373.915 58.5972C374.276 58.559 374.578 58.6549 374.822 58.8848C375.101 59.1109 375.26 59.4046 375.298 59.7658C375.333 60.0909 375.237 60.3933 375.011 60.6729C373.905 61.9587 372.72 62.6685 371.456 62.8022C370.841 62.8671 370.262 62.7457 369.718 62.438C369.178 62.1663 368.702 61.6323 368.289 60.8359C367.916 60.0717 367.639 59.3522 367.458 58.6773C367.313 57.9986 367.098 56.9986 366.812 55.6774C366.343 53.3162 365.959 51.9322 365.661 51.5255C364.82 51.87 362.874 54.3588 359.821 58.9919C358.721 60.6789 357.898 61.8799 357.352 62.5951C356.807 63.3102 356.327 63.781 355.913 64.0075C355.502 64.2701 355.083 64.2779 354.655 64.0309C354.227 63.7839 354.007 63.4238 353.993 62.9503C353.973 60.6878 354.642 54.7545 356.001 45.1503C356.075 44.8138 356.247 44.5399 356.517 44.3287C356.787 44.1175 357.088 44.0309 357.421 44.0687C357.789 44.1028 358.081 44.2728 358.296 44.5788C358.508 44.8487 358.594 45.15 358.556 45.4828C357.866 50.012 357.299 54.4917 356.854 58.922C357.073 58.5702 357.354 58.1204 357.698 57.5726C359.777 54.4307 361.403 52.1949 362.577 50.8653C363.752 49.5357 364.852 48.8897 365.879 48.9273C366.392 48.946 366.829 49.1008 367.188 49.3915C367.584 49.6784 367.91 50.1735 368.167 50.8769C368.424 51.5802 368.617 52.199 368.747 52.7332C368.913 53.2636 369.109 54.083 369.336 55.1913C369.957 58.3035 370.482 59.983 370.91 60.23C371.142 60.3515 371.481 60.2791 371.928 60.0127C372.37 59.7102 372.755 59.3773 373.082 59.014C373.276 58.7743 373.553 58.6354 373.915 58.5972ZM394.467 49.9586C394.82 49.8481 395.135 49.8879 395.411 50.0779C395.723 50.2641 395.916 50.5359 395.99 50.8933C396.097 51.2108 396.057 51.5254 395.871 51.8373C395.652 52.1892 395.383 52.5829 395.064 53.0184C394.781 53.4502 394.3 54.0854 393.622 54.9242C392.944 55.763 392.256 56.5115 391.558 57.1697C390.861 57.8279 390.047 58.4253 389.118 58.9619C388.188 59.4985 387.29 59.8127 386.423 59.9044C385.556 59.9961 384.739 59.8634 383.97 59.5063C382.818 58.9707 382.134 57.8559 381.918 56.1619C379.811 59.3799 377.643 60.8146 375.415 60.4658C373.591 60.1473 372.557 58.9965 372.31 57.0136C372.125 55.6086 372.435 53.8773 373.24 51.8197C374.082 49.7583 375.145 47.8926 376.429 46.2227C377.713 44.5527 378.916 43.494 380.038 43.0467C381.015 42.6146 381.946 42.6075 382.83 43.0254C383.33 43.2647 383.792 43.6543 384.214 44.194C384.21 44.1579 384.208 44.1398 384.208 44.1398C384.204 44.1037 384.202 44.0857 384.202 44.0857C384.352 43.7776 384.566 43.5541 384.844 43.4151C385.154 43.2363 385.461 43.2038 385.765 43.3177C386.105 43.4278 386.365 43.6378 386.544 43.9476C386.723 44.2575 386.755 44.5645 386.641 44.8688C386.269 46.1865 385.845 47.5281 385.368 48.8935C384.791 51.0365 384.455 52.8619 384.359 54.3697C384.298 55.8737 384.526 56.8176 385.041 57.2014C385.585 57.5091 386.207 57.5164 386.907 57.2233C387.606 56.9302 388.278 56.5486 388.922 56.0787C389.563 55.5726 390.21 54.9563 390.864 54.2297C391.55 53.4631 392.117 52.7822 392.565 52.1869C393.01 51.5554 393.388 50.9858 393.7 50.478C393.89 50.2022 394.145 50.0291 394.467 49.9586ZM382.93 48.1104C382.983 47.9221 383.05 47.6958 383.132 47.4315C382.968 47.2662 382.839 47.079 382.744 46.8699C382.511 46.0543 382.165 45.543 381.705 45.336C381.625 45.2714 381.531 45.2448 381.422 45.2563C381.314 45.2678 381.189 45.2992 381.049 45.3506C379.754 45.8893 378.338 47.5184 376.799 50.238C375.296 52.9538 374.649 55.1226 374.857 56.7443C374.93 57.4306 375.264 57.8335 375.861 57.953C376.94 58.1312 378.107 57.2589 379.365 55.3361C380.655 53.3733 381.843 50.9648 382.93 48.1104ZM421.484 26.5003C421.794 26.3214 422.119 26.287 422.46 26.3971C422.796 26.4711 423.036 26.6649 423.179 26.9786C423.354 27.2523 423.386 27.5593 423.276 27.8997C422.879 29.3297 421.216 30.6928 418.284 31.989C415.349 33.2491 411.531 33.9268 406.829 34.0222C405.26 34.042 403.73 34.076 402.237 34.1243C400.764 38.1519 398.987 42.5952 396.908 47.454C396.683 50.5095 396.843 53.5791 397.389 56.6627C397.934 59.7464 398.658 61.5875 399.562 62.1859C399.917 62.4405 400.29 62.5107 400.68 62.3964C401.431 62.244 402.194 61.6884 402.969 60.7298C403.748 59.8073 404.352 58.9581 404.782 58.1821C404.932 57.874 405.165 57.6667 405.483 57.5601C405.836 57.4496 406.167 57.4694 406.475 57.6195C406.787 57.8056 406.997 58.0575 407.103 58.3749C407.214 58.7285 407.194 59.0594 407.044 59.3674C406.89 59.6394 406.688 59.9713 406.437 60.3631C406.186 60.7549 405.786 61.2903 405.237 61.9693C404.728 62.6806 404.117 63.2931 403.404 63.8068C402.731 64.3528 402.021 64.7201 401.274 64.9087C401.13 64.924 400.967 64.9412 400.786 64.9603C399.811 65.0634 398.91 64.83 398.082 64.26C397.055 63.5285 396.205 62.0478 395.531 59.8179C394.896 57.6203 394.517 55.414 394.392 53.1991C394.228 50.9518 394.212 48.9079 394.347 47.0674C394.343 47.0313 394.359 47.0113 394.395 47.0075C394.764 43.2427 395.306 39.0396 396.02 34.3982C386.254 34.9562 380.736 35.9779 379.469 37.4635C379.275 37.7031 378.998 37.8421 378.636 37.8803C378.275 37.9185 377.955 37.8245 377.675 37.5984C377.432 37.3684 377.293 37.0909 377.258 36.7658C377.22 36.4046 377.314 36.0842 377.54 35.8046C379.296 33.756 385.603 32.4316 396.461 31.8312C398.399 20.4491 400.542 13.7754 402.891 11.8103C403.6 11.2604 404.343 11.0357 405.121 11.1361C405.895 11.2004 406.485 11.5946 406.89 12.3188C407.017 12.488 407.118 12.7513 407.193 13.1087C407.263 13.43 407.278 14.0859 407.236 15.0765C407.227 16.0272 407.109 17.1537 406.881 18.4562C406.69 19.7549 406.277 21.5519 405.643 23.847C405.009 26.1422 404.186 28.7132 403.172 31.5599C404.335 31.5099 405.555 31.4723 406.831 31.4469C408.399 31.4271 409.832 31.3304 411.128 31.1568C412.425 30.9832 413.589 30.7687 414.622 30.5134C415.65 30.222 416.532 29.9279 417.268 29.6309C418.036 29.294 418.677 28.9705 419.193 28.6603C419.708 28.3501 420.098 28.0714 420.364 27.8241C420.63 27.5768 420.79 27.359 420.843 27.1708C420.957 26.8665 421.171 26.643 421.484 26.5003ZM404.523 13.7745C402.71 15.2812 400.876 21.2464 399.019 31.6703C399.312 31.6758 399.767 31.6642 400.385 31.6354C402.107 26.8509 403.38 22.8262 404.204 19.5612C405.024 16.2602 405.197 14.2694 404.723 13.589C404.727 13.6251 404.66 13.6869 404.523 13.7745ZM398.041 37.965C398.501 36.7841 398.971 35.529 399.451 34.1998C399.379 34.2074 399.289 34.2169 399.18 34.2284C399.072 34.2399 398.963 34.2513 398.855 34.2628C398.747 34.2742 398.656 34.2838 398.584 34.2914C398.385 35.5179 398.204 36.7424 398.041 37.965ZM419.248 44.1053C419.601 43.9949 419.934 44.0328 420.246 44.2189C420.554 44.369 420.745 44.6227 420.819 44.9801C420.926 45.2976 420.886 45.6123 420.7 45.9242C420.206 46.78 419.628 47.6996 418.965 48.6829C418.338 49.6623 417.447 50.9072 416.291 52.4174C415.132 53.8914 413.874 55.1203 412.517 56.1039C411.164 57.1237 409.891 57.6966 408.699 57.8226C407.941 57.9028 407.219 57.8148 406.534 57.5584C405.69 57.1729 405.107 56.3214 404.785 55.0039C404.427 53.6903 404.335 52.1294 404.509 50.3212C404.683 48.5129 404.896 46.9015 405.148 45.4868C405.4 44.0721 405.707 42.6517 406.067 41.2255C406.141 40.889 406.315 40.6331 406.589 40.4581C406.899 40.2792 407.222 40.2268 407.558 40.3008C407.783 40.3501 407.977 40.4574 408.14 40.6228C408.304 40.7881 408.415 40.9772 408.474 41.1901C408.53 41.3669 408.534 41.5856 408.489 41.8461C407.952 44.0214 407.539 46.1653 407.251 48.2778C406.996 50.3504 406.909 51.9485 406.991 53.0721C407.074 54.1957 407.258 54.9067 407.546 55.2051C408.806 55.7292 410.522 54.8538 412.692 52.5788C414.859 50.2677 416.79 47.6344 418.486 44.679C418.673 44.3671 418.926 44.1759 419.248 44.1053ZM406.419 36.2573C405.804 36.3222 405.377 36.0752 405.135 35.5164C404.956 35.2065 404.923 34.8995 405.037 34.5952C405.184 34.251 405.412 33.9895 405.722 33.8106C405.794 33.803 405.898 33.7554 406.035 33.6679C406.208 33.5765 406.381 33.4852 406.554 33.3938C406.727 33.3025 406.882 33.213 407.019 33.1255C407.192 33.0342 407.331 32.9647 407.435 32.9171C407.572 32.8296 407.64 32.7858 407.64 32.7858L408.868 35.0668C407.762 35.6586 407.068 36.006 406.786 36.1088C406.686 36.1925 406.563 36.242 406.419 36.2573ZM435.173 37.5449C435.538 37.5428 435.844 37.6748 436.092 37.9408C436.335 38.1708 436.458 38.4683 436.46 38.8333C436.458 39.1623 436.343 39.4485 436.113 39.6919C434.161 41.6151 431.501 42.3712 428.134 41.9602C428.448 43.2054 428.581 44.9812 428.533 47.2875C428.499 48.3503 428.155 49.7565 427.5 51.506C426.881 53.2517 426.013 54.5488 424.898 55.3973C424.257 55.9034 423.558 56.1965 422.799 56.2768C422.366 56.3226 421.943 56.2943 421.53 56.1918C418.91 55.5923 417.63 52.9881 417.69 48.3793C417.7 48.1226 417.701 47.9582 417.693 47.8859C417.691 46.8269 417.946 45.6128 418.458 44.2436C418.967 42.8383 419.744 41.5507 420.789 40.3809C421.835 39.2111 422.989 38.5594 424.254 38.4257C425.121 38.334 425.874 38.5466 426.513 39.0634C429.97 39.9763 432.557 39.5748 434.275 37.859C434.541 37.6117 434.841 37.507 435.173 37.5449ZM425.958 47.2859C426.03 44.1734 425.784 42.1905 425.219 41.3371C424.882 41.2631 424.56 41.151 424.252 41.001C423.26 41.2886 422.334 42.2083 421.475 43.7602C420.617 45.312 420.213 46.6698 420.263 47.8333C420.238 47.9455 420.239 48.1281 420.266 48.3809C420.167 49.5236 420.252 50.6653 420.518 51.806C420.817 52.9067 421.341 53.5453 422.091 53.7217C422.503 53.8242 422.931 53.7242 423.374 53.4217C423.841 53.007 424.284 52.3575 424.702 51.4731C425.156 50.585 425.471 49.7664 425.648 49.0172C425.86 48.2641 425.964 47.687 425.958 47.2859ZM452.228 50.3155C452.589 50.2773 452.892 50.3732 453.135 50.6031C453.415 50.8293 453.574 51.1229 453.612 51.4842C453.646 51.8093 453.55 52.1116 453.324 52.3912C452.218 53.677 451.033 54.3868 449.769 54.5205C449.155 54.5854 448.576 54.464 448.032 54.1563C447.492 53.8847 447.015 53.3506 446.602 52.5542C446.229 51.79 445.952 51.0705 445.771 50.3957C445.626 49.717 445.411 48.717 445.125 47.3957C444.656 45.0345 444.273 43.6506 443.974 43.2438C443.134 43.5884 441.187 46.0771 438.134 50.7102C437.034 52.3972 436.211 53.5982 435.666 54.3134C435.12 55.0286 434.641 55.4994 434.226 55.7258C433.816 55.9884 433.396 55.9962 432.969 55.7492C432.541 55.5023 432.32 55.1421 432.306 54.6687C432.286 52.4061 432.956 46.4728 434.314 36.8687C434.388 36.5321 434.56 36.2582 434.83 36.047C435.1 35.8359 435.401 35.7492 435.734 35.7871C436.103 35.8211 436.395 35.9911 436.61 36.2972C436.821 36.567 436.908 36.8684 436.87 37.2011C436.18 41.7303 435.612 46.2101 435.168 50.6403C435.386 50.2885 435.667 49.8387 436.011 49.2909C438.09 46.149 439.716 43.9132 440.891 42.5836C442.065 41.2541 443.166 40.608 444.192 40.6456C444.706 40.6643 445.142 40.8191 445.502 41.1098C445.897 41.3967 446.223 41.8919 446.48 42.5952C446.738 43.2986 446.931 43.9174 447.06 44.4516C447.226 44.9819 447.422 45.8013 447.649 46.9097C448.27 50.0218 448.795 51.7013 449.223 51.9483C449.455 52.0699 449.794 51.9975 450.241 51.7311C450.684 51.4285 451.069 51.0956 451.395 50.7323C451.589 50.4927 451.867 50.3537 452.228 50.3155ZM155.947 150.384C156.3 150.274 156.633 150.312 156.945 150.498C157.253 150.648 157.444 150.902 157.518 151.259C157.625 151.577 157.585 151.891 157.399 152.203C156.905 153.059 156.327 153.979 155.664 154.962C155.037 155.941 154.145 157.186 152.99 158.697C151.831 160.171 150.573 161.399 149.216 162.383C147.863 163.403 146.59 163.976 145.398 164.102C144.639 164.182 143.918 164.094 143.233 163.838C142.389 163.452 141.806 162.601 141.484 161.283C141.126 159.969 141.034 158.409 141.208 156.6C141.382 154.792 141.595 153.181 141.847 151.766C142.099 150.351 142.406 148.931 142.766 147.505C142.84 147.168 143.014 146.912 143.288 146.737C143.598 146.558 143.921 146.506 144.257 146.58C144.482 146.629 144.676 146.737 144.839 146.902C145.003 147.067 145.114 147.256 145.173 147.469C145.229 147.646 145.233 147.865 145.188 148.125C144.651 150.301 144.238 152.444 143.95 154.557C143.695 156.63 143.608 158.228 143.69 159.351C143.773 160.475 143.957 161.186 144.245 161.484C145.505 162.008 147.221 161.133 149.391 158.858C151.557 156.547 153.489 153.914 155.185 150.958C155.372 150.646 155.625 150.455 155.947 150.384ZM143.118 142.536C142.503 142.601 142.076 142.354 141.834 141.796C141.655 141.486 141.622 141.179 141.736 140.874C141.883 140.53 142.111 140.269 142.42 140.09C142.493 140.082 142.597 140.035 142.734 139.947C142.907 139.856 143.08 139.764 143.253 139.673C143.426 139.582 143.581 139.492 143.718 139.405C143.891 139.313 144.03 139.244 144.134 139.196C144.271 139.109 144.339 139.065 144.339 139.065L145.567 141.346C144.46 141.938 143.767 142.285 143.485 142.388C143.385 142.472 143.262 142.521 143.118 142.536ZM174.058 158.167C174.419 158.129 174.722 158.225 174.965 158.455C175.245 158.681 175.404 158.974 175.442 159.336C175.476 159.661 175.38 159.963 175.154 160.243C174.048 161.529 172.863 162.238 171.599 162.372C170.985 162.437 170.406 162.316 169.862 162.008C169.322 161.736 168.845 161.202 168.432 160.406C168.059 159.642 167.782 158.922 167.601 158.247C167.456 157.568 167.241 156.569 166.955 155.247C166.486 152.886 166.103 151.502 165.804 151.095C164.964 151.44 163.017 153.929 159.964 158.562C158.864 160.249 158.041 161.45 157.496 162.165C156.95 162.88 156.471 163.351 156.056 163.577C155.646 163.84 155.226 163.848 154.799 163.601C154.371 163.354 154.15 162.994 154.136 162.52C154.116 160.258 154.786 154.324 156.144 144.72C156.218 144.384 156.39 144.11 156.66 143.899C156.93 143.687 157.231 143.601 157.564 143.639C157.933 143.673 158.225 143.843 158.44 144.149C158.651 144.419 158.738 144.72 158.7 145.053C158.01 149.582 157.442 154.062 156.998 158.492C157.216 158.14 157.497 157.69 157.841 157.142C159.92 154.001 161.546 151.765 162.721 150.435C163.895 149.106 164.996 148.46 166.022 148.497C166.536 148.516 166.972 148.671 167.332 148.961C167.727 149.248 168.053 149.743 168.31 150.447C168.567 151.15 168.761 151.769 168.89 152.303C169.056 152.833 169.252 153.653 169.479 154.761C170.1 157.873 170.625 159.553 171.053 159.8C171.285 159.921 171.624 159.849 172.071 159.583C172.514 159.28 172.899 158.947 173.225 158.584C173.419 158.344 173.697 158.205 174.058 158.167ZM199.933 128.364C200.243 128.186 200.568 128.151 200.908 128.261C201.245 128.335 201.484 128.529 201.627 128.843C201.802 129.116 201.835 129.423 201.725 129.764C201.328 131.194 199.664 132.557 196.733 133.853C193.798 135.113 189.979 135.791 185.277 135.886C183.709 135.906 182.178 135.94 180.686 135.988C179.212 140.016 177.436 144.459 175.356 149.318C175.131 152.374 175.292 155.443 175.837 158.527C176.382 161.611 177.107 163.452 178.01 164.05C178.366 164.305 178.738 164.375 179.128 164.261C179.879 164.108 180.642 163.553 181.417 162.594C182.196 161.671 182.801 160.822 183.23 160.046C183.38 159.738 183.614 159.531 183.931 159.424C184.285 159.314 184.616 159.334 184.924 159.484C185.236 159.67 185.445 159.922 185.552 160.239C185.662 160.593 185.642 160.923 185.492 161.232C185.338 161.504 185.136 161.835 184.885 162.227C184.634 162.619 184.234 163.154 183.685 163.833C183.176 164.545 182.565 165.157 181.852 165.671C181.18 166.217 180.47 166.584 179.722 166.773C179.578 166.788 179.415 166.805 179.235 166.824C178.259 166.928 177.358 166.694 176.531 166.124C175.504 165.393 174.653 163.912 173.979 161.682C173.345 159.484 172.965 157.278 172.841 155.063C172.676 152.816 172.661 150.772 172.795 148.932C172.791 148.895 172.807 148.875 172.843 148.872C173.212 145.107 173.754 140.904 174.469 136.262C164.702 136.82 159.185 137.842 157.917 139.328C157.724 139.567 157.446 139.706 157.085 139.744C156.724 139.783 156.403 139.689 156.124 139.462C155.88 139.233 155.741 138.955 155.707 138.63C155.669 138.269 155.763 137.948 155.989 137.669C157.745 135.62 164.051 134.296 174.91 133.695C176.847 122.313 178.991 115.64 181.34 113.674C182.048 113.125 182.792 112.9 183.569 113C184.343 113.065 184.933 113.459 185.338 114.183C185.466 114.352 185.567 114.615 185.641 114.973C185.711 115.294 185.726 115.95 185.685 116.941C185.676 117.891 185.557 119.018 185.33 120.32C185.138 121.619 184.726 123.416 184.092 125.711C183.458 128.006 182.634 130.577 181.62 133.424C182.784 133.374 184.003 133.336 185.279 133.311C186.848 133.291 188.28 133.195 189.577 133.021C190.873 132.847 192.038 132.633 193.07 132.378C194.099 132.086 194.981 131.792 195.716 131.495C196.484 131.158 197.126 130.835 197.641 130.524C198.156 130.214 198.547 129.936 198.813 129.688C199.079 129.441 199.238 129.223 199.291 129.035C199.405 128.731 199.619 128.507 199.933 128.364ZM182.972 115.639C181.159 117.145 179.324 123.111 177.468 133.534C177.76 133.54 178.216 133.528 178.834 133.5C180.556 128.715 181.829 124.69 182.652 121.425C183.472 118.124 183.645 116.134 183.171 115.453C183.175 115.489 183.109 115.551 182.972 115.639ZM176.49 139.829C176.949 138.648 177.419 137.393 177.899 136.064C177.827 136.072 177.737 136.081 177.629 136.093C177.52 136.104 177.412 136.115 177.303 136.127C177.195 136.138 177.105 136.148 177.033 136.156C176.833 137.382 176.653 138.607 176.49 139.829ZM200.816 140.763C201.181 140.761 201.488 140.893 201.735 141.159C201.978 141.389 202.101 141.687 202.103 142.052C202.101 142.381 201.986 142.667 201.756 142.91C199.804 144.833 197.144 145.589 193.777 145.179C194.091 146.424 194.224 148.199 194.176 150.506C194.142 151.569 193.798 152.975 193.143 154.724C192.524 156.47 191.657 157.767 190.541 158.616C189.9 159.122 189.201 159.415 188.442 159.495C188.009 159.541 187.586 159.513 187.173 159.41C184.553 158.811 183.273 156.206 183.333 151.598C183.343 151.341 183.344 151.176 183.336 151.104C183.334 150.045 183.589 148.831 184.101 147.462C184.61 146.057 185.387 144.769 186.432 143.599C187.478 142.429 188.632 141.778 189.897 141.644C190.764 141.552 191.517 141.765 192.156 142.282C195.613 143.195 198.2 142.793 199.918 141.077C200.184 140.83 200.484 140.725 200.816 140.763ZM191.601 150.504C191.673 147.392 191.427 145.409 190.862 144.555C190.525 144.481 190.203 144.369 189.895 144.219C188.903 144.507 187.977 145.427 187.119 146.978C186.26 148.53 185.856 149.888 185.906 151.052C185.881 151.164 185.882 151.346 185.909 151.599C185.81 152.742 185.895 153.884 186.161 155.024C186.46 156.125 186.985 156.764 187.734 156.94C188.146 157.043 188.574 156.942 189.017 156.64C189.484 156.225 189.927 155.576 190.345 154.691C190.799 153.803 191.114 152.985 191.291 152.235C191.503 151.482 191.607 150.905 191.601 150.504ZM225.122 137.974C225.487 137.972 225.793 138.104 226.04 138.37C226.284 138.6 226.407 138.897 226.409 139.262C226.407 139.591 226.273 139.879 226.007 140.126C225.741 140.374 225.443 140.497 225.114 140.495C223.43 140.454 221.829 141.372 220.31 143.249C218.824 145.087 217.589 147.391 216.603 150.161C215.65 152.892 214.888 155.877 214.317 159.115C214.234 159.708 213.905 160.053 213.331 160.15C213.299 160.19 213.265 160.212 213.228 160.216C212.687 160.273 212.283 160.079 212.016 159.632C210.962 157.954 211.543 149.29 213.76 133.641C213.798 133.309 213.952 133.037 214.222 132.825C214.528 132.61 214.849 132.54 215.186 132.614C215.519 132.652 215.791 132.806 216.002 133.076C216.213 133.345 216.302 133.665 216.267 134.034C215.542 139.261 214.959 144.107 214.518 148.574C215.779 145.299 217.295 142.71 219.066 140.806C220.869 138.862 222.888 137.918 225.122 137.974ZM245.608 143.204C245.966 143.13 246.284 143.205 246.564 143.432C246.843 143.658 247.002 143.951 247.041 144.313C247.075 144.638 246.997 144.938 246.807 145.214C246.326 145.849 245.727 146.57 245.009 147.377C244.323 148.143 243.302 149.201 241.947 150.549C240.624 151.858 239.19 152.978 237.645 153.908C236.136 154.835 234.713 155.369 233.377 155.51C232.076 155.648 230.914 155.369 229.891 154.673C228.82 153.874 228.082 152.765 227.676 151.346C227.303 149.888 227.217 148.381 227.417 146.826C227.654 145.267 228.09 143.687 228.724 142.086C229.537 140.1 230.619 138.415 231.97 137.03C233.317 135.609 234.753 135.019 236.276 135.26C237.763 135.505 238.656 136.177 238.955 137.278C239.147 138.061 238.954 138.995 238.374 140.079C237.795 141.163 236.945 142.275 235.823 143.417C234.734 144.518 233.722 145.484 232.787 146.313C231.849 147.106 230.874 147.903 229.862 148.704C229.877 150.566 230.379 151.864 231.37 152.599C231.969 153.084 232.729 153.186 233.649 152.906C234.605 152.623 235.58 152.172 236.575 151.556C237.565 150.903 238.594 150.1 239.662 149.147C240.726 148.158 241.686 147.217 242.541 146.323C243.392 145.392 244.139 144.51 244.781 143.675C245.008 143.395 245.283 143.238 245.608 143.204ZM231.078 143.097C230.814 143.709 230.588 144.336 230.4 144.977C232.173 143.438 233.647 142.003 234.821 140.674C235.995 139.344 236.556 138.426 236.502 137.921C236.499 137.885 236.294 137.851 235.889 137.821C235.777 137.797 235.667 137.79 235.558 137.801C234.836 137.878 234.053 138.417 233.209 139.42C232.398 140.382 231.687 141.608 231.078 143.097ZM266.256 141.952C266.61 141.841 266.924 141.881 267.2 142.071C267.512 142.257 267.705 142.529 267.779 142.887C267.886 143.204 267.846 143.519 267.66 143.831C267.442 144.182 267.173 144.576 266.854 145.012C266.57 145.443 266.09 146.079 265.411 146.918C264.733 147.756 264.045 148.505 263.348 149.163C262.65 149.821 261.837 150.419 260.907 150.955C259.978 151.492 259.08 151.806 258.213 151.898C257.346 151.989 256.528 151.857 255.76 151.5C254.607 150.964 253.923 149.849 253.708 148.155C251.601 151.373 249.433 152.808 247.204 152.459C245.381 152.141 244.346 150.99 244.1 149.007C243.915 147.602 244.225 145.871 245.03 143.813C245.871 141.752 246.934 139.886 248.218 138.216C249.503 136.546 250.706 135.487 251.827 135.04C252.805 134.608 253.735 134.601 254.62 135.019C255.12 135.258 255.581 135.648 256.003 136.187C255.999 136.151 255.998 136.133 255.998 136.133C255.994 136.097 255.992 136.079 255.992 136.079C256.142 135.771 256.356 135.547 256.633 135.408C256.943 135.23 257.25 135.197 257.554 135.311C257.895 135.421 258.154 135.631 258.333 135.941C258.512 136.251 258.545 136.558 258.431 136.862C258.059 138.18 257.634 139.521 257.158 140.887C256.581 143.03 256.244 144.855 256.148 146.363C256.088 147.867 256.315 148.811 256.831 149.195C257.375 149.502 257.997 149.51 258.696 149.217C259.396 148.923 260.068 148.542 260.712 148.072C261.352 147.566 261.999 146.95 262.653 146.223C263.339 145.456 263.906 144.775 264.355 144.18C264.799 143.549 265.178 142.979 265.489 142.471C265.679 142.195 265.935 142.022 266.256 141.952ZM254.719 140.104C254.772 139.915 254.839 139.689 254.921 139.425C254.758 139.259 254.628 139.072 254.533 138.863C254.301 138.048 253.954 137.536 253.494 137.329C253.414 137.265 253.32 137.238 253.212 137.25C253.103 137.261 252.979 137.292 252.838 137.344C251.544 137.883 250.127 139.512 248.588 142.231C247.086 144.947 246.438 147.116 246.646 148.738C246.719 149.424 247.054 149.827 247.651 149.946C248.729 150.124 249.897 149.252 251.155 147.329C252.445 145.367 253.633 142.958 254.719 140.104ZM285.328 146.455C285.677 146.308 286.006 146.31 286.314 146.46C286.622 146.61 286.832 146.862 286.942 147.216C287.085 147.529 287.081 147.84 286.931 148.148C286.846 148.377 286.694 148.667 286.475 149.018C286.297 149.403 285.902 149.992 285.293 150.787C284.723 151.615 284.089 152.357 283.391 153.015C282.73 153.67 281.864 154.291 280.794 154.879C279.724 155.467 278.611 155.822 277.455 155.944C276.877 156.006 276.293 156.013 275.704 155.965C272.091 155.653 269.421 153.543 267.693 149.635C265.961 145.691 265.317 140.298 265.763 133.457C265.938 130.626 266.315 127.627 266.893 124.461C267.468 121.259 268.215 118.13 269.133 115.074C270.052 112.018 271.076 109.262 272.204 106.805C273.332 104.348 274.586 102.389 275.965 100.928C277.377 99.4273 278.799 98.7108 280.231 98.7786C280.303 98.7709 280.377 98.7813 280.453 98.8098C281.575 99.0564 282.396 99.7367 282.916 100.851C283.586 102.35 283.587 104.779 282.919 108.137C282.288 111.492 281.349 114.878 280.103 118.297C278.894 121.713 277.392 125.469 275.597 129.568C273.802 133.666 272.424 136.697 271.463 138.662C270.538 140.622 269.699 142.355 268.945 143.859C268.884 143.975 268.803 144.075 268.702 144.159C269.759 150.001 272.167 153.088 275.928 153.421C276.959 153.495 277.962 153.316 278.939 152.884C279.92 152.488 280.727 152.001 281.36 151.422C281.993 150.844 282.58 150.179 283.122 149.428C283.703 148.709 284.087 148.193 284.273 147.882C284.455 147.534 284.573 147.265 284.626 147.077C284.776 146.769 285.01 146.562 285.328 146.455ZM268.295 133.572C268.152 135.67 268.125 137.663 268.215 139.553C270.681 134.544 272.917 129.614 274.925 124.762C276.932 119.911 278.541 115.267 279.752 110.828C280.999 106.386 281.287 103.415 280.617 101.916C280.475 101.602 280.269 101.386 280.001 101.268C279.929 101.276 279.893 101.28 279.893 101.28C278.881 101.387 277.749 102.42 276.495 104.379C275.241 106.338 274.058 108.8 272.948 111.767C271.837 114.734 270.832 118.182 269.932 122.113C269.069 126.039 268.523 129.859 268.295 133.572ZM298.339 135.326C298.693 135.216 299.026 135.254 299.337 135.44C299.646 135.59 299.837 135.844 299.911 136.201C300.018 136.519 299.978 136.833 299.792 137.145C299.298 138.001 298.719 138.921 298.056 139.904C297.429 140.883 296.538 142.128 295.383 143.638C294.224 145.112 292.966 146.341 291.609 147.325C290.255 148.345 288.983 148.918 287.791 149.044C287.032 149.124 286.311 149.036 285.626 148.779C284.782 148.394 284.198 147.542 283.876 146.225C283.518 144.911 283.426 143.35 283.6 141.542C283.775 139.734 283.988 138.123 284.24 136.708C284.492 135.293 284.798 133.873 285.159 132.447C285.233 132.11 285.407 131.854 285.68 131.679C285.99 131.5 286.313 131.448 286.65 131.522C286.874 131.571 287.068 131.678 287.232 131.844C287.396 132.009 287.507 132.198 287.566 132.411C287.621 132.588 287.626 132.807 287.581 133.067C287.044 135.242 286.631 137.386 286.343 139.499C286.087 141.571 286.001 143.17 286.083 144.293C286.165 145.417 286.35 146.128 286.637 146.426C287.898 146.95 289.614 146.075 291.784 143.8C293.95 141.489 295.882 138.855 297.578 135.9C297.764 135.588 298.018 135.397 298.339 135.326ZM285.51 127.478C284.896 127.543 284.468 127.296 284.226 126.737C284.048 126.428 284.015 126.121 284.129 125.816C284.275 125.472 284.503 125.211 284.813 125.032C284.885 125.024 284.99 124.976 285.127 124.889C285.3 124.798 285.473 124.706 285.646 124.615C285.819 124.524 285.974 124.434 286.11 124.347C286.283 124.255 286.422 124.186 286.527 124.138C286.664 124.051 286.732 124.007 286.732 124.007L287.959 126.288C286.853 126.88 286.159 127.227 285.878 127.33C285.777 127.414 285.655 127.463 285.51 127.478ZM324.229 115.22C324.539 115.041 324.864 115.007 325.204 115.117C325.541 115.191 325.78 115.385 325.923 115.698C326.098 115.972 326.131 116.279 326.02 116.619C325.624 118.049 323.96 119.413 321.029 120.709C318.094 121.969 314.275 122.647 309.573 122.742C308.005 122.762 306.474 122.796 304.982 122.844C303.508 126.872 301.732 131.315 299.652 136.174C299.427 139.229 299.588 142.299 300.133 145.383C300.678 148.466 301.403 150.307 302.306 150.906C302.662 151.16 303.034 151.23 303.424 151.116C304.175 150.964 304.938 150.408 305.713 149.45C306.492 148.527 307.097 147.678 307.526 146.902C307.676 146.594 307.91 146.386 308.227 146.28C308.581 146.169 308.912 146.189 309.22 146.339C309.532 146.525 309.741 146.777 309.847 147.095C309.958 147.448 309.938 147.779 309.788 148.087C309.634 148.359 309.432 148.691 309.181 149.083C308.93 149.475 308.53 150.01 307.981 150.689C307.472 151.4 306.861 152.013 306.148 152.527C305.475 153.073 304.766 153.44 304.018 153.628C303.874 153.644 303.711 153.661 303.531 153.68C302.555 153.783 301.654 153.55 300.827 152.98C299.8 152.248 298.949 150.768 298.275 148.538C297.641 146.34 297.261 144.134 297.137 141.919C296.972 139.672 296.957 137.628 297.091 135.787C297.087 135.751 297.103 135.731 297.139 135.727C297.508 131.962 298.05 127.759 298.765 123.118C288.998 123.676 283.481 124.698 282.213 126.183C282.02 126.423 281.742 126.562 281.381 126.6C281.02 126.638 280.699 126.544 280.42 126.318C280.176 126.088 280.037 125.811 280.003 125.486C279.965 125.124 280.059 124.804 280.285 124.524C282.04 122.476 288.347 121.151 299.205 120.551C301.143 109.169 303.286 102.495 305.636 100.53C306.344 99.9802 307.088 99.7555 307.865 99.8559C308.639 99.9202 309.229 100.314 309.634 101.039C309.762 101.208 309.863 101.471 309.937 101.828C310.007 102.15 310.022 102.806 309.981 103.796C309.972 104.747 309.853 105.874 309.626 107.176C309.434 108.475 309.022 110.272 308.388 112.567C307.754 114.862 306.93 117.433 305.916 120.28C307.08 120.23 308.299 120.192 309.575 120.167C311.144 120.147 312.576 120.05 313.873 119.877C315.169 119.703 316.334 119.488 317.366 119.233C318.395 118.942 319.277 118.648 320.012 118.351C320.78 118.014 321.422 117.69 321.937 117.38C322.452 117.07 322.843 116.791 323.109 116.544C323.375 116.297 323.534 116.079 323.587 115.891C323.701 115.586 323.915 115.363 324.229 115.22ZM307.268 102.494C305.455 104.001 303.62 109.966 301.764 120.39C302.056 120.396 302.512 120.384 303.13 120.355C304.852 115.571 306.125 111.546 306.948 108.281C307.768 104.98 307.941 102.989 307.467 102.309C307.471 102.345 307.405 102.407 307.268 102.494ZM300.786 126.685C301.245 125.504 301.715 124.249 302.195 122.92C302.123 122.927 302.033 122.937 301.925 122.948C301.816 122.96 301.708 122.971 301.599 122.983C301.491 122.994 301.401 123.004 301.329 123.011C301.129 124.238 300.948 125.462 300.786 126.685ZM332.3 134.968C332.399 135.213 332.442 135.446 332.429 135.666C332.412 135.851 332.34 136.041 332.215 136.237C332.09 136.433 331.922 136.578 331.713 136.673C329.976 137.515 328.256 138.518 326.553 139.685C326.846 144.877 326.391 149.728 325.188 154.239C324.14 158.148 322.569 162.113 320.474 166.134C318.378 170.154 316.094 173.592 313.62 176.447C311.186 179.334 308.966 181.14 306.96 181.863C306.502 182.021 306.074 182.121 305.677 182.163C304.665 182.27 303.764 182.037 302.973 181.463C301.198 180.226 300.466 177.966 300.777 174.682C301.034 171.587 302.191 167.848 304.248 163.466C306.269 159.089 309.044 154.595 312.575 149.984C316.105 145.374 319.884 141.559 323.911 138.539C323.59 134.811 323.018 132.169 322.196 130.612C321.683 131.287 320.674 132.8 319.17 135.151C317.697 137.462 316.516 139.248 315.627 140.511C314.738 141.774 313.781 142.916 312.757 143.938C311.769 144.956 310.901 145.559 310.154 145.747C309.475 145.892 308.862 145.793 308.314 145.449C306.508 144.252 306.249 140.773 307.539 135.011C308.164 132.278 308.897 129.717 309.74 127.327C309.854 127.022 310.068 126.799 310.382 126.656C310.728 126.474 311.053 126.439 311.357 126.553C311.697 126.663 311.941 126.893 312.087 127.243C312.266 127.553 312.281 127.862 312.131 128.17C310.9 131.733 310.028 135.058 309.514 138.144C309.033 141.19 309.104 142.9 309.728 143.272C310.595 143.18 313.018 140.02 316.999 133.791C318.568 131.361 319.66 129.766 320.273 129.007C320.883 128.212 321.457 127.768 321.995 127.674C322.425 127.593 322.798 127.663 323.113 127.885C324.692 128.996 325.755 131.971 326.303 136.807C327.772 135.848 329.203 135.039 330.594 134.381C330.908 134.238 331.235 134.222 331.575 134.332C331.916 134.442 332.157 134.654 332.3 134.968ZM322.706 153.57C323.709 149.921 324.163 145.928 324.07 141.591C320.436 144.532 317.035 148.124 313.868 152.368C310.7 156.611 308.211 160.71 306.401 164.663C304.595 168.653 303.568 172.067 303.321 174.906C303.092 177.232 303.469 178.726 304.452 179.389C304.848 179.676 305.397 179.691 306.101 179.434C307.72 178.861 309.618 177.29 311.794 174.722C313.969 172.155 316.076 168.937 318.115 165.068C320.189 161.196 321.72 157.363 322.706 153.57Z" fill="white"/>
</g>
<path opacity="0.4" d="M352.117 102.866L391.865 113.65C395.291 114.587 395.924 118.628 393.115 120.631L357.103 144.821C354.373 146.616 350.684 145.106 350.367 142.134L346.63 107.16C346.323 104.287 349.21 102.074 352.117 102.866Z" fill="#E7370D"/>
</svg>
