<svg width="46" height="46" viewBox="0 0 46 46" fill="none" xmlns="http://www.w3.org/2000/svg">
<path d="M40.147 23.472C40.147 14.1185 32.5648 6.53622 23.2112 6.53622C13.8576 6.53622 6.27539 14.1185 6.27539 23.472C6.27539 31.9249 12.4676 38.9326 20.5642 40.2021V28.3671H16.2638V23.472H20.5642V19.7411C20.5642 15.4959 23.0933 13.1525 26.9622 13.1525C28.8163 13.1525 30.7533 13.4837 30.7533 13.4837V17.6511H28.6181C26.5156 17.6511 25.8582 18.9558 25.8582 20.2956V23.472H30.5551L29.8049 28.3671H25.8582V40.2021C33.9548 38.9326 40.147 31.9249 40.147 23.472Z" fill="#4676ED"/>
<path d="M29.8024 28.3671L30.5526 23.4721H25.8557V20.2957C25.8557 18.9558 26.5105 17.6512 28.6156 17.6512H30.7508V13.4837C30.7508 13.4837 28.8138 13.1525 26.9597 13.1525C23.0908 13.1525 20.5617 15.4959 20.5617 19.7412V23.4721H16.2612V28.3671H20.5617V40.2021C21.4248 40.3376 22.3079 40.4079 23.2087 40.4079C24.1094 40.4079 24.9926 40.3376 25.8557 40.2021V28.3671H29.8024Z" fill="white"/>
</svg>
