<svg width="48" height="45" viewBox="0 0 48 45" fill="none" xmlns="http://www.w3.org/2000/svg">
<path d="M24.1432 39.6334C33.4669 39.6334 41.0252 32.0751 41.0252 22.7515C41.0252 13.4278 33.4669 5.86949 24.1432 5.86949C14.8195 5.86949 7.26123 13.4278 7.26123 22.7515C7.26123 32.0751 14.8195 39.6334 24.1432 39.6334Z" fill="url(#paint0_linear_1162_650)"/>
<path d="M29.3821 16.3671C29.1518 16.3671 28.9267 16.4353 28.7352 16.5633C28.5438 16.6912 28.3945 16.873 28.3064 17.0858C28.2183 17.2985 28.1952 17.5326 28.2401 17.7585C28.2851 17.9843 28.396 18.1918 28.5588 18.3546C28.7216 18.5174 28.9291 18.6283 29.1549 18.6732C29.3808 18.7182 29.6149 18.6951 29.8276 18.607C30.0404 18.5189 30.2222 18.3696 30.3501 18.1782C30.4781 17.9867 30.5463 17.7616 30.5463 17.5313C30.5463 17.2225 30.4237 16.9264 30.2053 16.7081C29.987 16.4897 29.6908 16.3671 29.3821 16.3671Z" fill="white"/>
<path d="M24.2194 17.8558C23.2549 17.8558 22.312 18.1418 21.5101 18.6776C20.7081 19.2135 20.0831 19.9751 19.714 20.8662C19.3449 21.7573 19.2483 22.7378 19.4365 23.6838C19.6246 24.6297 20.0891 25.4986 20.7711 26.1806C21.4531 26.8626 22.322 27.3271 23.268 27.5153C24.2139 27.7034 25.1945 27.6069 26.0855 27.2378C26.9766 26.8687 27.7382 26.2436 28.2741 25.4417C28.8099 24.6397 29.096 23.6969 29.096 22.7324C29.096 21.439 28.5822 20.1987 27.6676 19.2841C26.7531 18.3696 25.5127 17.8558 24.2194 17.8558ZM24.2194 25.853C23.6026 25.8511 23.0002 25.6665 22.4883 25.3225C21.9763 24.9784 21.5778 24.4904 21.3431 23.92C21.1084 23.3496 21.0479 22.7225 21.1694 22.1177C21.2909 21.513 21.5888 20.9579 22.0257 20.5224C22.4625 20.0869 23.0185 19.7907 23.6236 19.671C24.2287 19.5514 24.8556 19.6137 25.4253 19.8502C25.995 20.0867 26.4818 20.4867 26.8243 20.9996C27.1667 21.5126 27.3495 22.1156 27.3495 22.7324C27.347 23.5609 27.0161 24.3546 26.4294 24.9396C25.8426 25.5245 25.0479 25.853 24.2194 25.853Z" fill="white"/>
<path d="M28.0938 32.6287H20.192C18.6152 32.6287 17.1029 32.0023 15.9879 30.8873C14.873 29.7723 14.2466 28.2601 14.2466 26.6833V18.7815C14.2466 17.2047 14.873 15.6924 15.9879 14.5774C17.1029 13.4624 18.6152 12.8361 20.192 12.8361H28.0938C29.6706 12.8361 31.1829 13.4624 32.2978 14.5774C33.4128 15.6924 34.0392 17.2047 34.0392 18.7815V26.6833C34.0392 28.2601 33.4128 29.7723 32.2978 30.8873C31.1829 32.0023 29.6706 32.6287 28.0938 32.6287ZM20.192 14.697C19.1087 14.697 18.0698 15.1273 17.3038 15.8933C16.5378 16.6593 16.1075 17.6982 16.1075 18.7815V26.6833C16.1075 27.7666 16.5378 28.8055 17.3038 29.5714C18.0698 30.3374 19.1087 30.7678 20.192 30.7678H28.0938C29.1771 30.7678 30.216 30.3374 30.982 29.5714C31.748 28.8055 32.1783 27.7666 32.1783 26.6833V18.7815C32.1783 17.6982 31.748 16.6593 30.982 15.8933C30.216 15.1273 29.1771 14.697 28.0938 14.697H20.192Z" fill="white"/>
<defs>
<linearGradient id="paint0_linear_1162_650" x1="8.33007" y1="9.39094" x2="42.0845" y2="37.9061" gradientUnits="userSpaceOnUse">
<stop stop-color="#FBE18A"/>
<stop offset="0.21" stop-color="#FCBB45"/>
<stop offset="0.38" stop-color="#F75274"/>
<stop offset="0.52" stop-color="#D53692"/>
<stop offset="0.74" stop-color="#8F39CE"/>
<stop offset="1" stop-color="#5B4FE9"/>
</linearGradient>
</defs>
</svg>
