<svg width="53" height="53" viewBox="0 0 53 53" fill="none" xmlns="http://www.w3.org/2000/svg">
<path d="M26.6408 8.20541C16.8706 8.20541 8.9502 16.126 8.9502 25.896C8.9502 35.6667 16.8707 43.5866 26.6408 43.5866C36.4116 43.5866 44.3314 35.6667 44.3314 25.896C44.3314 16.1266 36.4116 8.20638 26.6405 8.20638L26.6408 8.20541ZM34.7534 33.7205C34.4365 34.2401 33.7563 34.4049 33.2366 34.0859C29.083 31.5488 23.8544 30.9742 17.6965 32.3811C17.4114 32.446 17.1121 32.395 16.8646 32.2393C16.617 32.0836 16.4414 31.836 16.3764 31.5509C16.344 31.4098 16.3397 31.2636 16.3639 31.1208C16.388 30.978 16.4401 30.8414 16.5171 30.7187C16.5941 30.5961 16.6946 30.4899 16.8128 30.4061C16.9309 30.3223 17.0644 30.2627 17.2056 30.2306C23.9446 28.691 29.7249 29.3538 34.388 32.2037C34.9077 32.5226 35.0724 33.2008 34.7534 33.7205ZM36.9187 28.9035C36.5193 29.5524 35.6702 29.7574 35.0217 29.3581C30.2665 26.4353 23.0179 25.5888 17.3936 27.296C16.6641 27.5163 15.8937 27.1053 15.6723 26.3771C15.4526 25.6476 15.8639 24.8787 16.5921 24.657C23.0167 22.7074 31.0037 23.6518 36.4646 27.0075C37.1131 27.4069 37.318 28.2559 36.9187 28.9035ZM37.1046 23.8876C31.403 20.5009 21.9962 20.1894 16.5526 21.8418C15.6784 22.1069 14.754 21.6134 14.4891 20.7392C14.2242 19.8646 14.7172 18.9408 15.592 18.6751C21.8408 16.778 32.2291 17.1447 38.7932 21.0416C39.5813 21.5082 39.8389 22.5237 39.3721 23.3089C38.9074 24.0953 37.8883 24.3544 37.1046 23.8876Z" fill="#1ED760"/>
</svg>
