<svg width="46" height="47" viewBox="0 0 46 47" fill="none" xmlns="http://www.w3.org/2000/svg">
<path d="M22.9503 39.6791C32.274 39.6791 39.8323 32.1208 39.8323 22.7971C39.8323 13.4735 32.274 5.91517 22.9503 5.91517C13.6267 5.91517 6.06836 13.4735 6.06836 22.7971C6.06836 32.1208 13.6267 39.6791 22.9503 39.6791Z" fill="white"/>
<path fill-rule="evenodd" clip-rule="evenodd" d="M27.388 19.896C28.8032 20.9043 30.4983 21.4448 32.2359 21.442V17.9587C31.8959 17.9621 31.5565 17.9269 31.2244 17.8538V20.6022C29.4826 20.603 27.7842 20.0591 26.3669 19.0467V26.1468C26.3676 27.3146 26.0508 28.4607 25.4505 29.4624C24.8501 30.4641 23.9888 31.2837 22.9585 31.8336C21.9283 32.3835 20.7679 32.643 19.6016 32.5844C18.4352 32.5257 17.3068 32.1511 16.3369 31.5006C17.2318 32.4172 18.3796 33.0462 19.6338 33.3073C20.8879 33.5683 22.1915 33.4494 23.3777 32.9659C24.564 32.4824 25.5792 31.6561 26.2935 30.5928C27.0078 29.5294 27.3889 28.2772 27.388 26.9962V19.896ZM28.6382 16.3841C27.9169 15.5939 27.4774 14.5873 27.388 13.5211V13.0726H26.4337C26.5564 13.7453 26.8174 14.3853 27.2001 14.952C27.5829 15.5187 28.079 15.9999 28.6572 16.365L28.6382 16.3841ZM18.5891 28.7903C18.2557 28.354 18.0512 27.8329 17.9988 27.2863C17.9464 26.7397 18.0481 26.1893 18.2925 25.6976C18.5369 25.2058 18.9141 24.7924 19.3815 24.5041C19.8489 24.2158 20.3876 24.0641 20.9368 24.0664C21.2375 24.0681 21.5364 24.1131 21.8243 24.2V20.6404C21.4893 20.5928 21.1509 20.5736 20.8127 20.5831V23.3506C20.5216 23.2636 20.2195 23.2186 19.9156 23.2171C19.2506 23.2121 18.6037 23.4327 18.0803 23.8429C17.5569 24.2532 17.1881 24.8288 17.0341 25.4757C16.8802 26.1226 16.9501 26.8026 17.2325 27.4047C17.515 28.0067 17.9932 28.4952 18.5891 28.7903Z" fill="#EE1D52"/>
<path fill-rule="evenodd" clip-rule="evenodd" d="M26.367 19.0467C27.7843 20.0591 29.4827 20.603 31.2245 20.6022V17.8442C30.1167 17.4677 29.1103 16.8415 28.2829 16.0142C27.4556 15.1868 26.8294 14.1804 26.4529 13.0726H23.8953V26.9771C23.8261 27.6254 23.5764 28.2412 23.1745 28.7546C22.7726 29.268 22.2347 29.6583 21.622 29.8811C21.0093 30.1039 20.3463 30.1502 19.7086 30.0148C19.0708 29.8795 18.4838 29.5679 18.0144 29.1154C17.545 28.663 17.212 28.0879 17.0532 27.4555C16.8945 26.8231 16.9164 26.1589 17.1165 25.5384C17.3166 24.9179 17.6868 24.366 18.1851 23.9455C18.6833 23.525 19.2896 23.2528 19.9349 23.1598C20.2388 23.16 20.5411 23.205 20.8319 23.2934V20.5259C19.6046 20.4316 18.3778 20.7152 17.3163 21.3385C16.2548 21.9617 15.4094 22.8949 14.8937 24.0126C14.378 25.1303 14.2166 26.379 14.4313 27.5911C14.6459 28.8032 15.2263 29.9206 16.0944 30.7933C16.9626 31.6659 18.077 32.2521 19.288 32.4729C20.499 32.6938 21.7485 32.5388 22.8689 32.0289C23.9892 31.5189 24.9267 30.6783 25.5554 29.6201C26.1842 28.5618 26.474 27.3365 26.3861 26.1086L26.367 19.0467Z" fill="black"/>
<path fill-rule="evenodd" clip-rule="evenodd" d="M31.2247 17.8442V17.1094C30.3113 17.1086 29.416 16.8542 28.6385 16.3745C29.3277 17.1203 30.2313 17.6338 31.2247 17.8442ZM26.4531 13.0726C26.4531 12.939 26.4531 12.8054 26.4054 12.6718V12.2232H22.9031V26.1468C22.9015 26.6494 22.7715 27.1433 22.5254 27.5815C22.2793 28.0197 21.9252 28.3878 21.4969 28.6507C21.0685 28.9136 20.5801 29.0627 20.0779 29.0838C19.5758 29.1049 19.0766 28.9973 18.6277 28.7712C18.9989 29.2639 19.5157 29.6274 20.105 29.8101C20.6942 29.9927 21.326 29.9853 21.9109 29.789C22.4957 29.5926 23.0039 29.2173 23.3636 28.716C23.7232 28.2148 23.916 27.6131 23.9146 26.9962V13.0726H26.4531ZM20.8513 20.5449V19.7529C20.557 19.7148 20.2605 19.6957 19.9637 19.6956C18.5843 19.6974 17.2419 20.1419 16.134 20.9638C15.0261 21.7856 14.2113 22.9415 13.8095 24.2611C13.4078 25.5807 13.4402 26.9945 13.9022 28.2943C14.3641 29.5941 15.2311 30.7113 16.3755 31.4815C15.4992 30.5825 14.9048 29.4471 14.6651 28.2149C14.4255 26.9826 14.5511 25.7071 15.0266 24.5453C15.5021 23.3835 16.3067 22.3859 17.3415 21.6752C18.3763 20.9645 19.5962 20.5716 20.8513 20.5449Z" fill="#69C9D0"/>
</svg>
