<svg width="36" height="36" viewBox="0 0 36 36" fill="none" xmlns="http://www.w3.org/2000/svg">
<g clip-path="url(#clip0_1559_2977)">
<path d="M17.69 35.38C27.4599 35.38 35.38 27.4599 35.38 17.69C35.38 7.92008 27.4599 0 17.69 0C7.92008 0 0 7.92008 0 17.69C0 27.4599 7.92008 35.38 17.69 35.38Z" fill="#FF0000"/>
<path d="M27.1598 15.16C27.1598 12.81 25.2598 10.91 22.9098 10.91H12.0498C9.6998 10.91 7.7998 12.81 7.7998 15.16V20.22C7.7998 22.57 9.6998 24.47 12.0498 24.47H22.9098C25.2598 24.47 27.1598 22.57 27.1598 20.22V15.16ZM20.7698 18.07L15.8998 20.48C15.7098 20.58 15.0598 20.44 15.0598 20.23V15.28C15.0598 15.06 15.7098 14.92 15.9098 15.03L20.5698 17.57C20.7698 17.68 20.9698 17.96 20.7698 18.07Z" fill="white"/>
</g>
<defs>
<clipPath id="clip0_1559_2977">
<rect width="35.38" height="35.38" fill="white"/>
</clipPath>
</defs>
</svg>
