<svg width="20" height="18" viewBox="0 0 20 18" fill="none" xmlns="http://www.w3.org/2000/svg">
<path d="M6.98559 12.664C6.98559 12.664 15.2471 -0.528712 19.9588 0.0164416C19.9588 0.0164416 20.1524 0.125472 19.7006 0.452564C19.2488 0.779656 19.3779 1.76093 19.3779 1.76093C19.3779 1.76093 19.3779 2.19706 18.9906 2.3606C18.9906 2.3606 13.0526 6.44925 9.56731 16.2075C9.56731 16.2075 9.56731 17.0252 8.85734 17.2433L6.98559 17.8975C6.98559 17.8975 6.21107 18.3336 5.69473 17.4068C5.17838 16.4801 2.85483 13.4272 0.273108 12.0643C0.273108 12.0643 -0.243237 11.5737 0.144022 10.9195L1.62851 8.19374C1.62851 8.19374 2.27394 7.21247 2.98392 8.41181C2.98392 8.41181 3.30663 8.84793 3.75844 9.17502C3.75844 9.17502 6.01744 11.1921 6.98559 12.664Z" fill="#D962A6"/>
</svg>
