<svg width="24" height="24" viewBox="0 0 24 24" fill="none" xmlns="http://www.w3.org/2000/svg">
<path fill-rule="evenodd" clip-rule="evenodd" d="M12 24C18.6274 24 24 18.6274 24 12C24 5.37258 18.6274 0 12 0C5.37258 0 0 5.37258 0 12C0 18.6274 5.37258 24 12 24ZM16.0958 6.54305C16.6398 7.15406 17.3641 7.57767 18.1647 7.75309H18.1968C18.4611 7.8074 18.7302 7.83422 19 7.83311V10.5539C17.6266 10.5584 16.2865 10.1329 15.1689 9.33754V14.9392C15.1664 15.9451 14.8638 16.9276 14.2995 17.7618C13.7353 18.596 12.9349 19.2442 12.0001 19.6242C11.0653 20.0041 10.0381 20.0986 9.04928 19.8956C8.06041 19.6926 7.15443 19.2014 6.44645 18.4842C5.75565 17.7793 5.28615 16.889 5.09545 15.9223C4.90475 14.9556 5.00112 13.9545 5.37275 13.0415C5.74439 12.1286 6.37517 11.3434 7.18784 10.7822C8.00052 10.2209 8.95982 9.90802 9.94827 9.8817C10.2166 9.87547 10.4851 9.88884 10.7514 9.92171V12.7225C10.5225 12.6522 10.2842 12.6171 10.0447 12.6185C9.61153 12.617 9.18662 12.7362 8.81798 12.9628C8.44934 13.1893 8.15167 13.5141 7.95864 13.9005C7.76561 14.2868 7.68492 14.7192 7.72568 15.1488C7.76645 15.5784 7.92705 15.9881 8.18933 16.3316C8.48208 16.7195 8.88993 17.0059 9.35511 17.1501C9.82029 17.2943 10.3192 17.289 10.7812 17.135C11.2432 16.981 11.6448 16.686 11.9292 16.2919C12.2136 15.8978 12.3664 15.4246 12.3658 14.9392V4H15.1368V4.3521C15.2161 5.16503 15.5518 5.93204 16.0958 6.54305Z" fill="#8A8A8A"/>
</svg>
