<svg width="24" height="24" viewBox="0 0 24 24" fill="none" xmlns="http://www.w3.org/2000/svg">
<path fill-rule="evenodd" clip-rule="evenodd" d="M12 24C18.6274 24 24 18.6274 24 12C24 5.37258 18.6274 0 12 0C5.37258 0 0 5.37258 0 12C0 18.6274 5.37258 24 12 24ZM18.2328 7.89995C18.8558 7.82649 19.4484 7.66396 20 7.42342L19.9987 7.42537C19.5857 8.03315 19.0661 8.56369 18.4641 8.99212C18.47 9.12215 18.4733 9.25347 18.4733 9.38349C18.4733 13.3855 15.3783 18 9.71681 18C8.04435 18.0018 6.40677 17.5294 5 16.6393C5.24382 16.6675 5.48911 16.6816 5.73461 16.6816C7.12051 16.6836 8.46681 16.2268 9.55695 15.3846C8.91477 15.373 8.29235 15.1641 7.77682 14.7871C7.26129 14.4101 6.87847 13.8839 6.68193 13.2822C7.14327 13.3687 7.61855 13.3509 8.07188 13.2302C7.3753 13.0916 6.74888 12.7202 6.2989 12.1789C5.84892 11.6377 5.6031 10.9598 5.60314 10.2605V10.2215C6.03048 10.4552 6.50837 10.5852 6.99705 10.6005C6.57568 10.3236 6.23029 9.94858 5.99151 9.50879C5.75273 9.069 5.62795 8.578 5.62825 8.07938C5.62825 7.52549 5.78019 7.0054 6.04444 6.55683C6.81726 7.49244 7.78135 8.25768 8.87415 8.80288C9.96694 9.34809 11.164 9.66108 12.3877 9.72154C12.2328 9.07193 12.3002 8.39016 12.5794 7.78208C12.8586 7.17401 13.334 6.67366 13.9317 6.35871C14.5295 6.04376 15.2162 5.93183 15.8852 6.0403C16.5543 6.14877 17.1682 6.47158 17.6317 6.95859C18.3209 6.82545 18.9819 6.57697 19.5858 6.22397C19.3565 6.92574 18.8756 7.52145 18.2328 7.89995Z" fill="#8A8A8A"/>
</svg>
