<svg width="24" height="24" viewBox="0 0 24 24" fill="none" xmlns="http://www.w3.org/2000/svg">
<g clip-path="url(#clip0_2388_437)">
<path d="M7.10889 6.24591L15.562 17.6903H16.8574L8.49856 6.24591H7.10889Z" fill="#8A8A8A"/>
<path d="M12 0C5.37305 0 0 5.37305 0 12C0 18.6269 5.37305 24 12 24C18.6269 24 24 18.6269 24 12C24 5.37305 18.6269 0 12 0ZM14.9165 19.1382L11.2324 14.1517L7.01767 19.1382H4.67891L10.1406 12.6747L4.37963 4.87426H9.20263L12.532 9.43263L16.3824 4.87426H18.7198L13.6141 10.9165L19.6204 19.1382H14.9179H14.9165Z" fill="#8A8A8A"/>
</g>
<defs>
<clipPath id="clip0_2388_437">
<rect width="24" height="24" fill="white"/>
</clipPath>
</defs>
</svg>
