<svg width="24" height="24" viewBox="0 0 24 24" fill="none" xmlns="http://www.w3.org/2000/svg">
<path fill-rule="evenodd" clip-rule="evenodd" d="M12 24C18.6274 24 24 18.6274 24 12C24 5.37258 18.6274 0 12 0C5.37258 0 0 5.37258 0 12C0 18.6274 5.37258 24 12 24ZM19.1544 6.82786C19.3979 7.05873 19.5744 7.35128 19.665 7.67441V7.67375C19.9039 8.88463 20.0156 10.1172 19.9983 11.3513C20.0062 12.5801 19.8943 13.8069 19.6643 15.0141C19.5741 15.3372 19.3979 15.6298 19.1544 15.8606C18.9039 16.0986 18.597 16.2688 18.2625 16.3552C16.1818 16.5877 14.0888 16.6924 11.9953 16.6685C11.9953 16.6685 7.00467 16.6685 5.73618 16.3392C5.39756 16.2493 5.0896 16.0793 4.8423 15.844C4.595 15.6087 4.41702 15.3174 4.3257 14.9981C4.10106 13.7889 3.99241 12.5631 4.00041 11.3359C3.99261 10.1076 4.10153 8.88141 4.3257 7.67375C4.41902 7.35312 4.59766 7.0605 4.8443 6.8232C5.09531 6.58342 5.40168 6.40939 5.73618 6.3166C7.81418 6.08414 9.9045 5.97952 11.9953 6.00331C11.9953 6.00331 17.0107 6.00331 18.2625 6.33326C18.597 6.41967 18.9039 6.5899 19.1544 6.82786ZM10.4009 9.05423V13.6183L14.5737 11.3366L10.4009 9.05423Z" fill="#8A8A8A"/>
</svg>
