<svg width="156" height="96" viewBox="0 0 156 96" fill="none" xmlns="http://www.w3.org/2000/svg">
<path d="M63.8931 16.9902C63.8931 17.0349 63.8931 17.0795 63.9154 17.1019L63.8931 16.9902Z" fill="#464646"/>
<path d="M56.8731 19.8478C56.8731 19.8032 56.8954 19.7585 56.8954 19.7139L56.8731 19.8478Z" fill="#464646"/>
<path d="M64.1829 19.6465C64.1829 19.7135 64.1829 19.7804 64.2051 19.8251L64.1829 19.6465Z" fill="#464646"/>
<path d="M34.7657 18.9775H53.5303L53.7977 17.5264H34.0526C31.5566 17.5264 29.5063 19.558 29.5063 22.0808V28.064L30.9549 27.0594V22.8175C30.9549 20.6743 32.6486 18.9775 34.7657 18.9775Z" fill="#473245"/>
<path d="M29.5063 34.2255V45.5C29.5063 45.8349 29.8183 46.1028 30.2194 46.1028C30.6206 46.1028 30.9326 45.8349 30.9326 45.5V32.9307C30.3754 33.3772 29.8629 33.8683 29.5063 34.2255Z" fill="#473245"/>
<path d="M136.143 19.8255C135.475 19.4013 134.673 19.446 134.071 19.9148L122.906 29.939V22.0581C122.906 19.5576 120.878 17.5037 118.359 17.5037H67.3029L67.4811 18.9548H117.646C119.763 18.9548 121.457 20.6739 121.457 22.7725V31.2562C121.457 31.5241 121.591 31.7697 121.836 31.8813C122.059 32.0153 122.349 31.993 122.571 31.859L134.873 21.0981C134.895 21.0758 134.918 21.0534 134.94 21.0534C135.074 20.9418 135.23 20.9641 135.297 21.0088C135.363 21.0311 135.475 21.1204 135.475 21.299V44.2497C135.475 44.406 135.386 44.4953 135.319 44.5399C135.252 44.5846 135.141 44.6292 135.007 44.5623L127.497 40.8116C127.497 40.8116 126.449 40.2981 124.555 39.4051C121.145 37.7976 119.407 37.1502 115.663 37.552C114.37 37.686 113.011 37.8646 111.651 38.0432C109.222 38.3558 106.726 38.6683 104.631 38.7576C98.2354 39.1818 95.4497 37.2171 93.2212 35.632C91.8172 34.6274 90.5914 33.7567 88.8531 33.8237C86.3794 33.913 85.332 36.592 84.396 38.9585C83.5937 41.0348 82.836 42.9771 81.432 43.0888C81.4097 43.0888 81.3874 43.0888 81.3206 43.0441C80.2509 42.1065 79.9389 36.5697 79.716 32.5288C79.3594 26.2106 79.092 22.5939 77.532 21.9241C77.1531 21.7678 76.5737 21.7009 75.8829 22.2813C73.8326 23.9781 73.5651 29.0013 73.2754 34.3148C72.9634 39.8739 72.6291 46.1697 70.1331 46.8172C69.42 46.9958 68.8851 46.9288 68.4394 46.5939C66.5229 45.1427 66.4114 39.1595 66.3 33.8683C66.2554 32.0599 66.2331 30.2069 66.1217 28.4655C66.0771 27.5502 66.0103 26.6125 65.9657 25.6748C65.8543 23.5985 65.7429 21.5669 65.5869 19.6692L65.3194 17.1464C64.8737 13.7306 64.1383 11.0069 62.6451 9.66738C61.9543 9.04226 61.1074 8.75203 60.1937 8.81901C57.8983 8.95296 56.7171 12.3911 55.8034 17.1911L55.2909 20.2051C55.1126 21.3883 54.9343 22.5939 54.7337 23.8218C53.9983 28.8004 53.2629 33.9576 51.948 36.3018C50.544 38.8246 49.5189 39.9185 48.516 39.9855C47.0229 40.0748 44.8834 38.0209 41.2954 33.0869C38.844 29.7158 36.5709 27.9967 34.32 27.8404C34.1863 27.8404 34.0749 27.8181 33.9634 27.8181C32.8937 27.8181 31.8909 28.1753 30.9771 28.7111C30.732 28.8674 30.0411 29.3139 29.4171 29.8497C28.7709 30.3855 28.1691 30.9883 27.5674 31.6134C26.6091 32.5958 24.1354 35.3418 23.3331 36.3688C21.216 38.6237 18.9874 40.2981 9.58285 41.5483C9.18171 41.593 8.91428 41.9725 8.95885 42.352C9.00342 42.7539 9.36 43.0218 9.76114 42.9771C18.7646 41.7939 21.7509 40.1418 24.4251 37.3064C25.2274 36.2795 27.6789 33.5558 28.5926 32.6181C28.7263 32.4841 28.8377 32.3725 28.9714 32.2609C29.0383 32.1939 29.1497 32.0823 29.2389 31.993C29.3057 31.926 29.4394 31.792 29.4394 31.792C29.9743 31.3009 30.6429 30.7427 30.888 30.5418C30.9103 30.5195 30.9326 30.5195 30.9549 30.4971L30.9771 30.4748C32.0914 29.6488 33.1166 29.2023 34.2309 29.2916C36.0137 29.4255 37.9526 30.9437 40.1366 33.9576C44.1926 39.539 46.488 41.5706 48.6051 41.4367C50.4549 41.3251 51.7697 39.5837 53.2183 37.0162C54.6446 34.4488 55.4023 29.3809 56.1823 24.0451C56.3829 22.7278 56.5834 21.2767 56.8286 19.8478L56.8509 19.7139C56.8954 19.4683 56.94 19.2227 56.9623 18.9771L57.2074 17.526C57.9429 13.6413 58.9011 10.3371 60.2606 10.2478C60.7954 10.2255 61.2411 10.3595 61.6646 10.739C62.7789 11.7437 63.4251 14.1102 63.8263 16.9902L63.8486 17.1018C63.8709 17.2358 63.8931 17.3697 63.9154 17.5037H63.8931L64.0491 18.9548H64.0714C64.0937 19.1781 64.116 19.4013 64.1383 19.6469L64.1606 19.8255C64.3166 21.7455 64.428 23.7771 64.5394 25.7418C64.584 26.6795 64.6286 27.6171 64.6954 28.5325C64.8069 30.2292 64.8291 32.0823 64.8737 33.8683C65.0074 40.0302 65.1189 45.8348 67.5926 47.7102C68.1274 48.112 68.7514 48.3353 69.4646 48.3353C69.7989 48.3353 70.1554 48.2906 70.512 48.2013C74.0109 47.286 74.3674 41.0125 74.724 34.3818C74.9691 29.8274 75.2589 24.6702 76.8189 23.3753C76.9303 23.286 76.9971 23.2637 76.9971 23.2413C77.7994 23.8218 78.1114 29.0906 78.312 32.5958C78.6686 38.9362 78.9806 42.8655 80.4069 44.1158C80.7411 44.406 81.1646 44.5623 81.588 44.5176C83.9057 44.339 84.864 41.8609 85.8 39.472C86.6246 37.3288 87.4269 35.2971 88.9646 35.2525C90.2126 35.2078 91.1486 35.8776 92.4411 36.793C94.7143 38.4004 97.8343 40.633 104.721 40.1865C106.838 40.1195 109.378 39.7846 111.852 39.472C113.189 39.2934 114.549 39.1148 115.841 38.9809C119.318 38.6237 120.789 39.2264 123.953 40.6999C125.825 41.5706 126.873 42.0841 126.873 42.0841L134.294 45.7902C134.784 46.0358 135.363 46.1027 135.876 45.8795C136.545 45.5892 136.946 44.9641 136.946 44.2497V21.3883C136.923 20.7855 136.656 20.1827 136.143 19.8255Z" fill="#473245"/>
<path d="M31.0217 30.4745L31.044 30.4521L31.0217 30.4745Z" fill="#464646"/>
<path d="M11.4994 76.2197H13.3937C14.4634 76.2197 15.1988 76.2644 15.5777 76.3537C16.1126 76.4876 16.5583 76.7555 16.8926 77.1574C17.2268 77.5593 17.4051 78.0728 17.4051 78.6755C17.4051 79.2783 17.2268 79.7918 16.8926 80.1937C16.5583 80.5955 16.0903 80.8634 15.5108 80.9974C15.0874 81.0867 14.2851 81.1537 13.104 81.1537H12.4354V85.4179H11.4994V76.2197ZM12.4354 77.1128V80.2383L14.04 80.2607C14.6863 80.2607 15.1543 80.1937 15.4663 80.0821C15.756 79.9704 16.0011 79.7918 16.1794 79.5239C16.3577 79.2783 16.4468 78.9881 16.4468 78.6755C16.4468 78.363 16.3577 78.0951 16.1794 77.8272C16.0011 77.5816 15.7783 77.3807 15.5108 77.2914C15.2211 77.1797 14.7754 77.1351 14.1291 77.1351H12.4354V77.1128Z" fill="#473245"/>
<path d="M23.7789 76.2197H25.6731C26.7206 76.2197 27.4337 76.2644 27.8126 76.3537C28.3697 76.4876 28.8377 76.7555 29.172 77.1574C29.5286 77.5593 29.7069 78.0728 29.7069 78.6755C29.7069 79.1667 29.5954 79.6132 29.3503 79.9928C29.1051 80.3723 28.7709 80.6625 28.3029 80.8635C27.8571 81.0644 27.2331 81.1537 26.4309 81.1537L29.8406 85.4179H28.6817L25.272 81.1537H24.7371V85.4179H23.8011V76.2197H23.7789ZM24.7149 77.1128V80.2383L26.3417 80.2607C26.9657 80.2607 27.4337 80.1937 27.7457 80.0821C28.0577 79.9704 28.2806 79.7695 28.4589 79.5239C28.6371 79.2783 28.704 78.9881 28.704 78.6755C28.704 78.363 28.6149 78.0951 28.4366 77.8272C28.2583 77.5816 28.0354 77.403 27.768 77.2914C27.4783 77.1797 27.0326 77.1351 26.3863 77.1351H24.7149V77.1128Z" fill="#473245"/>
<path d="M40.6268 75.9746C42.0531 75.9746 43.2566 76.4435 44.2148 77.3588C45.1731 78.2965 45.6634 79.4351 45.6634 80.7969C45.6634 82.1365 45.1731 83.2751 44.2148 84.2128C43.2566 85.1504 42.0754 85.6193 40.6937 85.6193C39.2897 85.6193 38.1086 85.1504 37.1503 84.2128C36.192 83.2751 35.7017 82.1588 35.7017 80.8193C35.7017 79.9262 35.9246 79.1225 36.3703 78.3634C36.816 77.6044 37.4177 77.0239 38.1754 76.5997C38.9331 76.1979 39.7577 75.9746 40.6268 75.9746ZM40.6714 76.8676C39.9806 76.8676 39.312 77.0462 38.688 77.4034C38.064 77.7607 37.5737 78.2295 37.2171 78.8323C36.8606 79.4351 36.6823 80.1048 36.6823 80.8416C36.6823 81.9355 37.0834 82.8509 37.8411 83.61C38.6211 84.369 39.5571 84.7486 40.6491 84.7486C41.3846 84.7486 42.0531 84.57 42.6771 84.2351C43.3011 83.9002 43.7914 83.409 44.148 82.8062C44.5046 82.2034 44.6828 81.5337 44.6828 80.7969C44.6828 80.0602 44.5046 79.4127 44.148 78.81C43.7914 78.2295 43.3011 77.7383 42.6771 77.4034C42.0754 77.0462 41.3846 76.8676 40.6714 76.8676Z" fill="#473245"/>
<path d="M66.2554 76.2197H67.1914V81.7565C67.1914 82.4039 67.2137 82.8281 67.236 82.9844C67.2806 83.3416 67.392 83.6541 67.5703 83.8997C67.7486 84.1453 68.016 84.3462 68.3503 84.5025C68.7069 84.6588 69.0634 84.7481 69.42 84.7481C69.732 84.7481 70.044 84.6811 70.3114 84.5472C70.6011 84.4132 70.8463 84.2346 71.0246 84.0114C71.2251 83.7881 71.3589 83.4979 71.448 83.1853C71.5149 82.962 71.5371 82.4709 71.5371 81.7565V76.2197H72.4731V81.7565C72.4731 82.5825 72.384 83.23 72.228 83.7434C72.072 84.2569 71.7377 84.6811 71.2474 85.0607C70.7571 85.4402 70.1554 85.6188 69.4423 85.6188C68.6846 85.6188 68.016 85.4402 67.4811 85.083C66.9463 84.7258 66.5674 84.2569 66.3891 83.6765C66.2777 83.3193 66.2109 82.6718 66.2109 81.7341V76.2197H66.2554Z" fill="#473245"/>
<path d="M88.0731 77.9171L87.3377 78.4752C86.9366 77.9617 86.424 77.5599 85.8446 77.2919C85.2651 77.024 84.6411 76.8901 83.9503 76.8901C83.1926 76.8901 82.5017 77.0687 81.8554 77.4259C81.2091 77.7831 80.7189 78.252 80.3623 78.8547C80.0057 79.4575 79.8274 80.105 79.8274 80.864C79.8274 81.9803 80.2286 82.918 81.0086 83.6771C81.7886 84.4361 82.7914 84.7933 83.9949 84.7933C85.3097 84.7933 86.424 84.2799 87.3154 83.2752L88.0509 83.8333C87.5829 84.4138 86.9811 84.8603 86.2903 85.1952C85.5771 85.5078 84.7971 85.664 83.928 85.664C82.2789 85.664 80.964 85.1282 80.0057 84.0566C79.2034 83.1636 78.8023 82.0696 78.8023 80.7747C78.8023 79.4352 79.2926 78.2966 80.2509 77.3813C81.2314 76.4659 82.4349 75.9971 83.9057 75.9971C84.7971 75.9971 85.5771 76.1757 86.2903 76.5106C87.0257 76.8231 87.6274 77.3143 88.0731 77.9171Z" fill="#473245"/>
<path d="M93.444 77.1128V76.2197H98.6366V77.1128H96.5194V85.3955H95.5611V77.1128H93.444Z" fill="#473245"/>
<path d="M104.966 76.2197H105.902V85.3955H104.966V76.2197Z" fill="#473245"/>
<path d="M117 75.9746C118.426 75.9746 119.63 76.4435 120.588 77.3588C121.546 78.2965 122.037 79.4351 122.037 80.7969C122.037 82.1365 121.546 83.2751 120.588 84.2128C119.63 85.1504 118.449 85.6193 117.067 85.6193C115.663 85.6193 114.482 85.1504 113.523 84.2128C112.565 83.2751 112.075 82.1588 112.075 80.8193C112.075 79.9262 112.298 79.1225 112.743 78.3634C113.189 77.6044 113.791 77.0239 114.549 76.5997C115.306 76.1979 116.109 75.9746 117 75.9746ZM117.045 76.8676C116.354 76.8676 115.685 77.0462 115.061 77.4034C114.437 77.7607 113.947 78.2295 113.59 78.8323C113.234 79.4351 113.055 80.1048 113.055 80.8416C113.055 81.9355 113.457 82.8509 114.214 83.61C114.994 84.369 115.93 84.7486 117.022 84.7486C117.758 84.7486 118.426 84.57 119.05 84.2351C119.674 83.9002 120.165 83.409 120.521 82.8062C120.878 82.2034 121.056 81.5337 121.056 80.7969C121.056 80.0602 120.878 79.4127 120.521 78.81C120.165 78.2295 119.674 77.7383 119.05 77.4034C118.426 77.0462 117.758 76.8676 117.045 76.8676Z" fill="#473245"/>
<path d="M128.366 85.3955V76.2197H128.566L134.873 83.2523V76.2197H135.809V85.3955H135.586L129.346 78.43V85.3955H128.366Z" fill="#473245"/>
<path d="M141.559 83.6993L142.361 83.2304C142.918 84.2351 143.587 84.7486 144.322 84.7486C144.634 84.7486 144.946 84.6816 145.214 84.5253C145.481 84.3914 145.704 84.1904 145.86 83.9448C146.016 83.6993 146.083 83.4537 146.083 83.1858C146.083 82.8732 145.971 82.583 145.771 82.2704C145.481 81.8686 144.946 81.3774 144.144 80.7969C143.364 80.2165 142.874 79.7923 142.673 79.5467C142.339 79.1225 142.161 78.6537 142.161 78.1402C142.161 77.7383 142.25 77.3811 142.45 77.0462C142.651 76.7114 142.918 76.4658 143.275 76.2648C143.631 76.0639 144.01 75.9746 144.434 75.9746C144.879 75.9746 145.303 76.0862 145.682 76.2872C146.061 76.5104 146.484 76.89 146.907 77.4704L146.127 78.0286C145.771 77.5597 145.459 77.2695 145.214 77.1132C144.969 76.9569 144.679 76.89 144.389 76.89C144.01 76.89 143.698 77.0016 143.453 77.2248C143.208 77.4481 143.097 77.716 143.097 78.0509C143.097 78.2518 143.141 78.4528 143.23 78.6314C143.319 78.81 143.475 79.0332 143.698 79.2342C143.832 79.3458 144.233 79.6583 144.924 80.1495C145.749 80.73 146.306 81.2658 146.618 81.7123C146.93 82.1811 147.063 82.6276 147.063 83.0965C147.063 83.7662 146.796 84.3467 146.283 84.8379C145.771 85.329 145.125 85.5746 144.389 85.5746C143.81 85.5746 143.297 85.4183 142.829 85.1281C142.383 84.8825 141.938 84.3914 141.559 83.6993Z" fill="#473245"/>
<path d="M52.0817 76.0639L60.5726 79.4127C61.2857 79.703 61.3526 80.6183 60.684 80.9755L52.1931 85.4853C51.5691 85.8202 50.7669 85.396 50.7669 84.7262V76.8676C50.7669 76.2425 51.4577 75.8183 52.0817 76.0639Z" fill="#473245"/>
<path d="M13.2154 63.0705C13.2154 65.4594 15.1543 66.3747 17.3829 66.3747C18.8314 66.3747 21.0377 65.9728 21.0377 64.1421C21.0377 62.1998 18.1851 61.9096 15.4663 61.1952C12.6806 60.5477 9.85028 59.4091 9.85028 56.1049C9.85028 52.4212 13.4829 50.7021 16.8703 50.7021C20.7926 50.7021 24.4029 52.3319 24.4029 56.4622H20.3914C20.2577 54.3412 18.6754 53.7608 16.6697 53.7608C15.3549 53.7608 13.8171 54.2966 13.8171 55.7924C13.8171 57.1766 14.7086 57.3775 19.4331 58.4938C20.8371 58.784 25.0046 59.677 25.0046 63.6956C25.0046 66.9775 22.3303 69.4333 17.1823 69.4333C13.0149 69.4333 9.09257 67.491 9.18171 63.0705H13.2154Z" fill="#473245"/>
<path d="M27.5006 51.126H31.6234V57.9799H39.2229V51.126H43.3457V69.0088H39.2229V61.3064H31.6234V69.0088H27.5006V51.126Z" fill="#473245"/>
<path d="M52.1263 51.126H56.3606L63.3806 69.0088H59.0794L57.6531 65.0348H50.6331L49.1623 69.0088H44.9726L52.1263 51.126ZM51.7251 62.1102H56.6057L54.2434 55.5464H54.1989L51.7251 62.1102Z" fill="#473245"/>
<path d="M65.0297 51.126H69.1303L76.9749 63.1148H77.0194V51.126H80.8971V69.0088H76.7743L68.952 57.0423H68.9074V69.0088H65.0297V51.126Z" fill="#473245"/>
<path d="M84.5297 51.126H98.592V54.4302H88.6749V58.2702H97.7897V61.3288H88.6749V65.7046H98.8149V69.0088H84.552V51.126H84.5297Z" fill="#473245"/>
<path d="M101.601 51.126H105.723V65.7046H114.883V69.0088H101.601V51.126Z" fill="#473245"/>
<path d="M117.201 51.126H121.323V65.7046H130.483V69.0088H117.201V51.126Z" fill="#473245"/>
<path d="M132.801 51.126H146.863V54.4302H136.946V58.2702H146.061V61.3288H136.946V65.7046H147.086V69.0088H132.823V51.126H132.801Z" fill="#473245"/>
</svg>
