<svg width="176" height="58" viewBox="0 0 176 58" fill="none" xmlns="http://www.w3.org/2000/svg">
<path d="M12.9738 35.5289H15.1109C16.3178 35.5289 17.1475 35.5792 17.5749 35.6797C18.1783 35.8304 18.6812 36.132 19.0583 36.5842C19.4355 37.0365 19.6366 37.6144 19.6366 38.2928C19.6366 38.9713 19.4355 39.5492 19.0583 40.0015C18.6812 40.4537 18.1532 40.7553 17.4995 40.906C17.0218 41.0065 16.1166 41.0819 14.784 41.0819H14.0298V45.8811H12.9738V35.5289ZM14.0298 36.534V40.0517L15.84 40.0768C16.5692 40.0768 17.0972 40.0015 17.4492 39.8758C17.776 39.7502 18.0526 39.5492 18.2538 39.2477C18.4549 38.9713 18.5555 38.6446 18.5555 38.2928C18.5555 37.9411 18.4549 37.6396 18.2538 37.338C18.0526 37.0616 17.8012 36.8355 17.4995 36.735C17.1726 36.6094 16.6698 36.5591 15.9406 36.5591H14.0298V36.534Z" fill="white"/>
<path d="M26.8275 35.5289H28.9646C30.1463 35.5289 30.9509 35.5792 31.3783 35.6797C32.0069 35.8304 32.5349 36.132 32.912 36.5842C33.3143 37.0365 33.5155 37.6144 33.5155 38.2928C33.5155 38.8456 33.3897 39.3482 33.1132 39.7753C32.8366 40.2025 32.4595 40.5291 31.9315 40.7552C31.4286 40.9814 30.7246 41.0819 29.8195 41.0819L33.6663 45.8811H32.3589L28.512 41.0819H27.9086V45.8811H26.8526V35.5289H26.8275ZM27.8835 36.534V40.0517L29.7189 40.0768C30.4229 40.0768 30.9509 40.0015 31.3029 39.8758C31.6549 39.7502 31.9063 39.524 32.1075 39.2477C32.3086 38.9713 32.384 38.6446 32.384 38.2928C32.384 37.9411 32.2835 37.6396 32.0823 37.338C31.8812 37.0616 31.6297 36.8606 31.328 36.735C31.0012 36.6094 30.4983 36.5591 29.7692 36.5591H27.8835V36.534Z" fill="white"/>
<path d="M45.8354 35.2525C47.4446 35.2525 48.8023 35.7802 49.8834 36.8104C50.9646 37.8657 51.5177 39.1471 51.5177 40.6799C51.5177 42.1875 50.9646 43.4689 49.8834 44.5242C48.8023 45.5795 47.4697 46.1072 45.9109 46.1072C44.3269 46.1072 42.9943 45.5795 41.9132 44.5242C40.832 43.4689 40.2789 42.2126 40.2789 40.705C40.2789 39.6999 40.5303 38.7954 41.0332 37.9411C41.536 37.0868 42.2149 36.4335 43.0697 35.9561C43.9246 35.5038 44.8549 35.2525 45.8354 35.2525ZM45.8857 36.2576C45.1063 36.2576 44.352 36.4586 43.648 36.8606C42.944 37.2627 42.3909 37.7903 41.9886 38.4687C41.5863 39.1471 41.3852 39.9009 41.3852 40.7301C41.3852 41.9613 41.8377 42.9915 42.6926 43.8458C43.5726 44.7001 44.6286 45.1273 45.8606 45.1273C46.6903 45.1273 47.4446 44.9263 48.1486 44.5494C48.8526 44.1725 49.4057 43.6197 49.808 42.9413C50.2103 42.2628 50.4114 41.509 50.4114 40.6799C50.4114 39.8507 50.2103 39.122 49.808 38.4436C49.4057 37.7903 48.8526 37.2375 48.1486 36.8606C47.4697 36.4586 46.6903 36.2576 45.8857 36.2576Z" fill="white"/>
<path d="M74.7497 35.5289H75.8057V41.7603C75.8057 42.489 75.8309 42.9664 75.856 43.1423C75.9063 43.5443 76.032 43.8961 76.2332 44.1725C76.4343 44.4489 76.736 44.675 77.1132 44.8509C77.5155 45.0268 77.9177 45.1273 78.32 45.1273C78.672 45.1273 79.024 45.0519 79.3257 44.9011C79.6526 44.7504 79.9292 44.5494 80.1303 44.2981C80.3566 44.0468 80.5075 43.7202 80.608 43.3684C80.6835 43.1171 80.7086 42.5644 80.7086 41.7603V35.5289H81.7646V41.7603C81.7646 42.69 81.664 43.4187 81.488 43.9966C81.312 44.5745 80.9349 45.0519 80.3817 45.479C79.8286 45.9062 79.1498 46.1072 78.3452 46.1072C77.4903 46.1072 76.736 45.9062 76.1326 45.5042C75.5292 45.1021 75.1018 44.5745 74.9006 43.9212C74.7749 43.5192 74.6995 42.7905 74.6995 41.7352V35.5289H74.7497Z" fill="white"/>
<path d="M99.3646 37.4385L98.5349 38.0667C98.0823 37.4888 97.504 37.0365 96.8503 36.735C96.1966 36.4335 95.4926 36.2827 94.7131 36.2827C93.8583 36.2827 93.0789 36.4837 92.3497 36.8857C91.6206 37.2878 91.0674 37.8154 90.6652 38.4938C90.2629 39.1723 90.0617 39.9009 90.0617 40.7552C90.0617 42.0116 90.5143 43.0669 91.3943 43.9212C92.2743 44.7755 93.4057 45.1775 94.7634 45.1775C96.2469 45.1775 97.504 44.5996 98.5097 43.4689L99.3394 44.0971C98.8114 44.7504 98.1326 45.2529 97.3532 45.6298C96.5486 45.9816 95.6686 46.1574 94.688 46.1574C92.8274 46.1574 91.344 45.5544 90.2629 44.3483C89.3577 43.3433 88.9052 42.1121 88.9052 40.6547C88.9052 39.1471 89.4583 37.8657 90.5394 36.8355C91.6206 35.8053 93.0034 35.2776 94.6629 35.2776C95.6686 35.2776 96.5486 35.4787 97.3532 35.8556C98.1829 36.2073 98.8617 36.7601 99.3646 37.4385Z" fill="white"/>
<path d="M105.424 36.534V35.5289H111.282V36.534H108.894V45.8559H107.813V36.534H105.424Z" fill="white"/>
<path d="M118.423 35.5289H119.479V45.8559H118.423V35.5289Z" fill="white"/>
<path d="M132 35.2525C133.609 35.2525 134.967 35.7802 136.048 36.8104C137.129 37.8657 137.682 39.1471 137.682 40.6799C137.682 42.1875 137.129 43.4689 136.048 44.5242C134.967 45.5795 133.634 46.1072 132.075 46.1072C130.491 46.1072 129.159 45.5795 128.078 44.5242C126.997 43.4689 126.443 42.2126 126.443 40.705C126.443 39.6999 126.695 38.7954 127.198 37.9411C127.701 37.0868 128.379 36.4335 129.234 35.9561C130.089 35.5038 130.994 35.2525 132 35.2525ZM132.05 36.2576C131.271 36.2576 130.517 36.4586 129.813 36.8606C129.109 37.2627 128.555 37.7903 128.153 38.4687C127.751 39.1471 127.55 39.9009 127.55 40.7301C127.55 41.9613 128.002 42.9915 128.857 43.8458C129.737 44.7001 130.793 45.1273 132.025 45.1273C132.855 45.1273 133.609 44.9263 134.313 44.5494C135.017 44.1725 135.57 43.6197 135.973 42.9413C136.375 42.2628 136.576 41.509 136.576 40.6799C136.576 39.8507 136.375 39.122 135.973 38.4436C135.57 37.7903 135.017 37.2375 134.313 36.8606C133.609 36.4586 132.855 36.2576 132.05 36.2576Z" fill="white"/>
<path d="M144.823 45.8559V35.5289H145.049L152.165 43.4438V35.5289H153.221V45.8559H152.969L145.929 38.0165V45.8559H144.823Z" fill="white"/>
<path d="M159.707 43.9463L160.613 43.4187C161.241 44.5494 161.995 45.1273 162.825 45.1273C163.177 45.1273 163.529 45.0519 163.831 44.876C164.133 44.7252 164.384 44.4991 164.56 44.2227C164.736 43.9463 164.811 43.6699 164.811 43.3684C164.811 43.0166 164.686 42.69 164.459 42.3382C164.133 41.8859 163.529 41.3332 162.624 40.6799C161.744 40.0266 161.191 39.5492 160.965 39.2728C160.587 38.7954 160.386 38.2677 160.386 37.6898C160.386 37.2375 160.487 36.8355 160.713 36.4586C160.939 36.0817 161.241 35.8053 161.643 35.5792C162.046 35.3782 162.473 35.2525 162.951 35.2525C163.454 35.2525 163.931 35.3782 164.359 35.6043C164.786 35.8556 165.264 36.2827 165.742 36.936L164.862 37.5642C164.459 37.0365 164.107 36.7099 163.831 36.534C163.554 36.3581 163.227 36.2827 162.901 36.2827C162.473 36.2827 162.121 36.4084 161.845 36.6596C161.568 36.9109 161.442 37.2124 161.442 37.5893C161.442 37.8154 161.493 38.0416 161.593 38.2426C161.694 38.4436 161.87 38.6949 162.121 38.921C162.272 39.0466 162.725 39.3984 163.504 39.9512C164.434 40.6045 165.063 41.2075 165.415 41.7101C165.767 42.2377 165.918 42.7402 165.918 43.2679C165.918 44.0217 165.616 44.675 165.038 45.2278C164.459 45.7806 163.73 46.0569 162.901 46.0569C162.247 46.0569 161.669 45.8811 161.141 45.5544C160.638 45.278 160.135 44.7252 159.707 43.9463Z" fill="white"/>
<path d="M58.7589 35.3531L68.3383 39.122C69.1429 39.4487 69.2183 40.4789 68.464 40.8809L58.8846 45.9565C58.1806 46.3334 57.2755 45.856 57.2755 45.1022V36.2576C57.2755 35.5541 58.0549 35.0767 58.7589 35.3531Z" fill="white"/>
<path d="M14.9097 20.7294C14.9097 23.4179 17.0972 24.4481 19.6114 24.4481C21.2457 24.4481 23.7349 23.9958 23.7349 21.9355C23.7349 19.7495 20.5166 19.4228 17.4492 18.6188C14.3063 17.8901 11.1131 16.6086 11.1131 12.8899C11.1131 8.74404 15.2114 6.8093 19.0332 6.8093C23.4583 6.8093 27.5314 8.64353 27.5314 13.2919H23.0057C22.88 10.9049 21.0949 10.2516 18.832 10.2516C17.3486 10.2516 15.6137 10.8547 15.6137 12.5381C15.6137 14.096 16.6194 14.3221 21.9497 15.5785C23.5337 15.9051 28.2354 16.9102 28.2354 21.4329C28.2354 25.1265 25.2183 27.8905 19.4103 27.8905C14.7086 27.8905 10.2834 25.7045 10.384 20.7294H14.9097Z" fill="white"/>
<path d="M31.0262 7.28671H35.6777V15.0006H44.2514V7.28671H48.9028V27.4131H44.2514V18.7444H35.6777V27.4131H31.0262V7.28671Z" fill="white"/>
<path d="M58.8091 7.28671H63.5863L71.5063 27.4131H66.6537L65.0446 22.9405H57.1246L55.4651 27.4131H50.7383L58.8091 7.28671ZM58.3566 19.649H63.8629L61.1977 12.2618H61.1474L58.3566 19.649Z" fill="white"/>
<path d="M73.3668 7.28671H77.9931L86.8434 20.7797H86.8937V7.28671H91.2685V27.4131H86.6171L77.792 13.9452H77.7417V27.4131H73.3668V7.28671Z" fill="white"/>
<path d="M95.3668 7.28671H111.232V11.0054H100.043V15.3272H110.327V18.7695H100.043V23.6943H111.483V27.4131H95.392V7.28671H95.3668Z" fill="white"/>
<path d="M114.626 7.28671H119.278V23.6943H129.611V27.4131H114.626V7.28671Z" fill="white"/>
<path d="M132.226 7.28671H136.878V23.6943H147.211V27.4131H132.226V7.28671Z" fill="white"/>
<path d="M149.826 7.28671H165.691V11.0054H154.503V15.3272H164.786V18.7695H154.503V23.6943H165.943V27.4131H149.851V7.28671H149.826Z" fill="white"/>
</svg>
