<svg width="391" height="240" viewBox="0 0 391 240" fill="none" xmlns="http://www.w3.org/2000/svg">
<path d="M77.1496 57.2123C77.1496 51.9303 81.4308 47.6491 86.7128 47.6491H133.695L134.306 44.0352H84.8224C78.5396 44.0352 73.48 49.0947 73.48 55.3775V70.3339L77.094 67.8319V57.2123H77.1496Z" fill="#F48B76"/>
<path d="M73.5356 114.035C73.5356 114.869 74.3696 115.536 75.3148 115.536C76.3156 115.536 77.094 114.869 77.094 114.035V82.6213C75.704 83.7333 74.3696 84.9565 73.48 85.8461V114.035H73.5356Z" fill="#FF6F4D"/>
<path d="M340.582 49.8175C338.914 48.7611 336.912 48.8723 335.411 50.0399L307.444 75.1155V55.4331C307.444 49.1503 302.385 44.0907 296.102 44.0907H168.222L168.667 47.7047H294.323C299.605 47.7047 303.886 51.9859 303.886 57.2679V78.4515C303.886 79.1187 304.219 79.7303 304.831 80.0083C305.387 80.3419 306.11 80.2863 306.666 79.9527L337.524 53.0423C337.579 52.9867 337.635 52.9311 337.691 52.9311C338.024 52.6531 338.413 52.7087 338.58 52.8199C338.747 52.8755 339.081 53.0979 339.081 53.5427V110.922C339.081 111.311 338.858 111.533 338.691 111.645C338.525 111.756 338.247 111.867 337.913 111.7L319.12 102.304C319.12 102.304 316.507 101.025 311.781 98.801C303.219 94.7978 298.882 93.1854 289.541 94.1306C286.261 94.4642 282.869 94.909 279.478 95.3538C273.417 96.1322 267.134 96.9662 261.908 97.133C245.895 98.1894 238.945 93.241 233.33 89.2934C229.771 86.7914 226.769 84.623 222.432 84.7342C216.205 84.9566 213.592 91.6842 211.312 97.5778C209.311 102.749 207.42 107.641 203.862 107.919C203.806 107.919 203.751 107.919 203.584 107.808C200.915 105.473 200.137 91.6286 199.581 81.5094C198.691 65.7191 197.968 56.7119 194.132 54.9883C193.187 54.5991 191.741 54.4323 189.962 55.8779C184.847 60.1035 184.179 72.6691 183.457 86.013C182.678 99.913 181.844 115.648 175.617 117.26C173.838 117.705 172.503 117.538 171.391 116.704C166.61 113.09 166.276 98.1338 165.998 84.901C165.887 80.3975 165.831 75.7271 165.553 71.4459C165.442 69.1663 165.275 66.8311 165.164 64.4959C164.886 59.3251 164.608 54.2099 164.219 49.4839L163.552 43.2011C162.44 34.6944 160.605 27.8 156.824 24.5196C154.878 22.8516 152.821 22.1288 150.486 22.24C144.704 22.5736 141.757 31.1916 139.533 43.1455L138.254 50.7071C137.809 53.6539 137.364 56.6563 136.864 59.7699C135.029 72.2243 133.139 85.1234 129.858 90.9614C126.356 97.2442 123.742 100.024 121.24 100.191C117.515 100.413 112.122 95.2426 103.17 82.955C97.0544 74.5039 91.3277 70.2227 85.7121 69.8335C85.3785 69.8335 85.1005 69.7779 84.7669 69.7779C82.0981 69.7779 79.5961 70.6675 77.2609 72.0019C76.6493 72.3911 74.9257 73.5031 73.3133 74.8375C71.7009 76.1719 70.1997 77.6731 68.6985 79.2299C66.3077 81.6762 60.0805 88.515 58.0789 91.1282C52.7969 96.7438 47.1814 100.969 23.607 104.083C22.6062 104.194 21.939 105.139 22.0502 106.085C22.1614 107.085 23.051 107.753 24.0518 107.641C46.6254 104.639 54.0757 100.58 60.8033 93.4634C62.8049 90.9058 68.9765 84.067 71.2561 81.7318C71.5897 81.3982 71.8677 81.1202 72.2013 80.8422C72.3681 80.6754 72.6461 80.3974 72.9241 80.175C73.0909 80.0083 73.4245 79.6747 73.4245 79.6747C74.7589 78.4515 76.4269 77.0059 77.0385 76.5611C77.1497 76.5055 77.2053 76.4499 77.2053 76.3943C77.2053 76.3943 77.2609 76.3943 77.2609 76.3387C80.0409 74.2815 82.6541 73.1695 85.4341 73.3919C89.9377 73.7255 94.7748 77.5063 100.224 85.0122C110.398 98.9678 116.125 104.027 121.407 103.749C126.022 103.471 129.358 99.1346 132.972 92.685C136.586 86.2354 138.421 73.6143 140.367 60.2147C140.867 56.8787 141.368 53.3203 141.979 49.7619C141.979 49.6507 142.035 49.5395 142.035 49.4283L142.368 47.5935L142.98 43.9795C144.815 34.2496 147.261 26.0208 150.653 25.7984C152.043 25.7428 153.155 26.132 154.155 27.0216C156.991 29.5236 158.548 35.4172 159.549 42.6451C159.549 42.7563 159.604 42.8675 159.604 42.9231L159.715 43.9239L160.105 47.5379L160.271 49.2615C160.271 49.4283 160.271 49.5951 160.327 49.7619C160.772 54.5991 160.994 59.6587 161.272 64.5515C161.383 66.8867 161.495 69.2775 161.661 71.5571C161.939 75.7827 161.995 80.4531 162.106 84.901C162.44 100.302 162.718 114.814 168.889 119.484C170.224 120.541 171.836 121.041 173.56 121.041C174.394 121.041 175.283 120.93 176.173 120.707C184.958 118.428 185.792 102.749 186.737 86.1242C187.349 74.7263 188.071 61.8271 191.963 58.6023C192.241 58.3799 192.408 58.3243 192.408 58.2687C194.41 59.7143 195.188 72.8915 195.689 81.6762C196.578 97.5222 197.357 107.363 200.915 110.477C201.749 111.2 202.805 111.589 203.862 111.478C209.644 111.033 212.091 104.861 214.426 98.8566C216.539 93.519 218.485 88.4038 222.321 88.2926C225.435 88.1814 227.77 89.8494 230.994 92.1846C236.721 96.2434 244.561 101.803 261.797 100.691C267.134 100.525 273.473 99.6906 279.644 98.9122C283.036 98.4674 286.372 98.0226 289.597 97.689C298.27 96.7994 301.996 98.3006 309.946 102.026C314.617 104.194 317.23 105.473 317.23 105.473L335.8 114.758C337.023 115.37 338.525 115.537 339.748 114.981C341.416 114.258 342.417 112.645 342.417 110.922V53.7651C342.583 52.2083 341.861 50.7071 340.582 49.8175Z" fill="url(#paint0_linear_43_252)"/>
<path d="M29.4451 186.037H34.1711C36.8954 186.037 38.7302 186.148 39.6754 186.371C41.0098 186.704 42.1218 187.371 43.0114 188.372C43.8454 189.373 44.2902 190.652 44.2902 192.153C44.2902 193.71 43.8454 194.933 43.0114 195.934C42.1774 196.935 41.0098 197.602 39.5642 197.935C38.5078 198.158 36.5063 198.325 33.5595 198.325H31.8915V209H29.4451V186.037ZM31.7803 188.317V196.101L35.7835 196.156C37.3958 196.156 38.619 195.989 39.3418 195.711C40.1202 195.433 40.6762 194.989 41.121 194.321C41.5658 193.71 41.7882 192.987 41.7882 192.153C41.7882 191.375 41.5658 190.707 41.121 190.04C40.6762 189.429 40.1202 188.928 39.3974 188.65C38.6746 188.372 37.5626 188.261 35.9503 188.261H31.7803V188.317Z" fill="white"/>
<path d="M60.1918 186.037H64.9178C67.531 186.037 69.3101 186.148 70.2553 186.371C71.6453 186.704 72.8129 187.371 73.7025 188.372C74.5921 189.373 75.0369 190.652 75.0369 192.153C75.0369 193.376 74.7589 194.488 74.1473 195.433C73.5357 196.379 72.6461 197.101 71.5341 197.602C70.4221 198.102 68.8653 198.325 66.8638 198.325L75.3705 209H72.4237L63.917 198.325H62.5826V209H60.1918V186.037ZM62.527 188.317V196.101L66.5858 196.156C68.1425 196.156 69.3657 195.989 70.0885 195.711C70.8669 195.433 71.4229 194.933 71.8677 194.321C72.3125 193.654 72.4793 192.987 72.4793 192.153C72.4793 191.375 72.2569 190.707 71.8121 190.04C71.3673 189.429 70.8113 188.984 70.1441 188.706C69.4213 188.428 68.3094 188.317 66.6414 188.317H62.527Z" fill="white"/>
<path d="M102.392 185.481C106.006 185.481 109.008 186.649 111.399 188.984C113.846 191.319 115.013 194.155 115.013 197.546C115.013 200.882 113.79 203.773 111.399 206.109C109.008 208.444 106.062 209.611 102.559 209.611C99.056 209.611 96.0536 208.444 93.6628 206.109C91.2721 203.773 90.0489 200.938 90.0489 197.657C90.0489 195.433 90.6049 193.432 91.7169 191.541C92.8288 189.651 94.33 188.205 96.2204 187.093C98.1664 186.037 100.224 185.481 102.392 185.481ZM102.503 187.705C100.724 187.705 99.1116 188.15 97.4992 189.039C95.8868 189.929 94.7192 191.097 93.8296 192.598C92.94 194.099 92.4952 195.767 92.4952 197.602C92.4952 200.326 93.496 202.661 95.442 204.496C97.388 206.387 99.7232 207.332 102.503 207.332C104.338 207.332 106.062 206.887 107.618 206.053C109.175 205.163 110.398 203.996 111.288 202.495C112.178 200.993 112.622 199.325 112.622 197.491C112.622 195.656 112.178 194.043 111.288 192.542C110.398 191.041 109.175 189.873 107.563 188.984C105.95 188.094 104.282 187.705 102.503 187.705Z" fill="white"/>
<path d="M166.554 186.037H168.945V199.881C168.945 201.549 169.001 202.55 169.056 202.939C169.167 203.829 169.445 204.607 169.89 205.219C170.335 205.831 171.002 206.331 171.892 206.776C172.781 207.165 173.671 207.387 174.561 207.387C175.339 207.387 176.117 207.221 176.84 206.887C177.563 206.553 178.175 206.109 178.619 205.553C179.12 204.997 179.453 204.274 179.676 203.495C179.843 202.939 179.898 201.716 179.898 199.881V186.037H182.289V199.881C182.289 201.939 182.067 203.607 181.677 204.83C181.288 206.109 180.454 207.221 179.175 208.11C177.952 209.055 176.451 209.5 174.672 209.5C172.781 209.5 171.113 209.055 169.779 208.166C168.389 207.276 167.499 206.109 167.055 204.663C166.777 203.773 166.61 202.161 166.61 199.826V186.037H166.554Z" fill="white"/>
<path d="M221.209 190.318L219.318 191.708C218.262 190.429 217.039 189.429 215.593 188.761C214.148 188.094 212.535 187.761 210.812 187.761C208.921 187.761 207.198 188.205 205.585 189.095C203.973 189.985 202.75 191.152 201.86 192.653C200.971 194.155 200.526 195.823 200.526 197.657C200.526 200.437 201.527 202.773 203.473 204.663C205.474 206.553 207.976 207.499 210.979 207.499C214.315 207.499 217.094 206.22 219.318 203.718L221.209 205.108C220.041 206.553 218.54 207.665 216.761 208.499C214.982 209.278 213.036 209.667 210.867 209.667C206.697 209.667 203.473 208.333 201.082 205.664C199.08 203.384 198.079 200.66 198.079 197.491C198.079 194.155 199.303 191.319 201.749 188.984C204.195 186.704 207.253 185.537 210.867 185.537C213.091 185.537 215.093 185.981 216.872 186.815C218.651 187.594 220.097 188.761 221.209 190.318Z" fill="white"/>
<path d="M234.72 188.317V186.093H247.73V188.317H242.448V209.055H240.057V188.317H234.72Z" fill="white"/>
<path d="M263.52 186.037H265.911V209H263.52V186.037Z" fill="white"/>
<path d="M293.711 185.481C297.325 185.481 300.328 186.649 302.718 188.984C305.165 191.319 306.332 194.155 306.332 197.546C306.332 200.882 305.109 203.773 302.718 206.109C300.328 208.444 297.381 209.611 293.878 209.611C290.375 209.611 287.373 208.444 284.982 206.109C282.591 203.773 281.368 200.938 281.368 197.657C281.368 195.433 281.924 193.432 283.036 191.541C284.148 189.651 285.649 188.205 287.54 187.093C289.43 186.037 291.487 185.481 293.711 185.481ZM293.767 187.705C291.988 187.705 290.375 188.15 288.763 189.039C287.15 189.929 285.983 191.097 285.093 192.598C284.204 194.099 283.759 195.767 283.759 197.602C283.759 200.326 284.76 202.661 286.706 204.496C288.652 206.387 290.987 207.332 293.767 207.332C295.602 207.332 297.325 206.887 298.882 206.053C300.439 205.163 301.662 203.996 302.552 202.495C303.441 200.993 303.886 199.325 303.886 197.491C303.886 195.656 303.441 194.043 302.552 192.542C301.662 191.041 300.439 189.873 298.826 188.984C297.214 188.094 295.602 187.705 293.767 187.705Z" fill="white"/>
<path d="M322.178 209V186.037H322.679L338.469 203.662V186.037H340.804V209H340.248L324.625 191.597V209H322.178Z" fill="white"/>
<path d="M355.149 204.774L357.151 203.607C358.541 206.109 360.209 207.387 362.043 207.387C362.822 207.387 363.6 207.221 364.267 206.831C364.99 206.498 365.491 205.997 365.88 205.386C366.269 204.774 366.436 204.163 366.436 203.44C366.436 202.661 366.158 201.939 365.602 201.16C364.879 200.159 363.489 198.936 361.543 197.491C359.541 196.045 358.318 194.989 357.873 194.377C357.039 193.321 356.595 192.097 356.595 190.874C356.595 189.873 356.817 188.984 357.317 188.15C357.818 187.316 358.485 186.704 359.43 186.204C360.32 185.703 361.32 185.481 362.377 185.481C363.489 185.481 364.545 185.759 365.491 186.259C366.491 186.815 367.492 187.761 368.604 189.206L366.658 190.652C365.768 189.484 364.99 188.761 364.378 188.372C363.767 187.983 363.044 187.816 362.321 187.816C361.376 187.816 360.598 188.094 359.986 188.65C359.374 189.206 359.097 189.929 359.097 190.707C359.097 191.208 359.208 191.708 359.43 192.153C359.652 192.598 360.042 193.154 360.598 193.71C360.931 193.988 361.932 194.766 363.656 195.989C365.713 197.435 367.103 198.769 367.881 199.881C368.66 201.049 369.049 202.161 369.049 203.329C369.049 204.997 368.382 206.442 367.103 207.665C365.824 208.889 364.212 209.5 362.321 209.5C360.876 209.5 359.597 209.111 358.429 208.388C357.262 207.721 356.15 206.498 355.149 204.774Z" fill="white"/>
<path d="M131.081 185.703L152.376 194.043C154.211 194.766 154.322 197.046 152.654 197.991L131.359 209.278C129.747 210.112 127.801 209.055 127.801 207.387V187.761C127.801 186.148 129.525 185.092 131.081 185.703Z" fill="#E7370D"/>
<path d="M33.7818 158.46C33.7818 164.742 38.6745 167.189 44.1789 167.189C47.7929 167.189 53.3529 166.132 53.3529 161.295C53.3529 156.18 46.2361 155.402 39.3973 153.511C32.3918 151.788 25.3306 148.785 25.3306 140.112C25.3306 130.437 34.449 125.878 42.9557 125.878C52.7969 125.878 61.8041 130.159 61.8041 141.057H51.7961C51.4625 135.441 47.5149 133.94 42.5109 133.94C39.2305 133.94 35.3942 135.33 35.3942 139.278C35.3942 142.892 37.6181 143.448 49.4609 146.395C52.9637 147.173 63.4165 149.508 63.4165 160.128C63.4165 168.746 56.6889 175.251 43.8453 175.251C33.4482 175.251 23.607 170.136 23.8294 158.515H33.7818V158.46Z" fill="white"/>
<path d="M69.4768 126.99H79.8184V145.06H98.8892V126.99H109.231V174.083H98.8892V153.789H79.8184V174.083H69.4768V126.99Z" fill="white"/>
<path d="M131.193 126.99H141.812L159.438 174.083H148.707L145.148 163.575H127.523L123.854 174.083H113.345L131.193 126.99ZM130.192 155.847H142.368L136.419 138.555H136.308L130.192 155.847Z" fill="white"/>
<path d="M163.496 126.99H173.782L193.409 158.571H193.52V126.99H203.195V174.083H192.853L173.282 142.558H173.226V174.083H163.552V126.99H163.496Z" fill="white"/>
<path d="M212.368 126.99H247.563V135.719H222.71V145.783H245.506V153.845H222.71V165.41H248.064V174.139H212.313V126.99H212.368Z" fill="white"/>
<path d="M255.069 126.99H265.411V165.354H288.373V174.083H255.069V126.99Z" fill="white"/>
<path d="M294.212 126.99H304.553V165.354H327.516V174.083H294.212V126.99Z" fill="white"/>
<path d="M333.298 126.99H368.493V135.719H343.64V145.783H366.436V153.845H343.64V165.41H368.993V174.139H333.243V126.99H333.298Z" fill="white"/>
<defs>
<linearGradient id="paint0_linear_43_252" x1="22.1592" y1="71.6766" x2="342.57" y2="71.6766" gradientUnits="userSpaceOnUse">
<stop stop-color="#E8380D"/>
<stop offset="0.0617" stop-color="#EB4D26"/>
<stop offset="0.1987" stop-color="#F17758"/>
<stop offset="0.3025" stop-color="#F59177"/>
<stop offset="0.3603" stop-color="#F69B83"/>
<stop offset="0.7151" stop-color="#D962A6"/>
<stop offset="1" stop-color="#C2157D"/>
</linearGradient>
</defs>
</svg>
