<svg width="140" height="141" viewBox="0 0 140 141" fill="none" xmlns="http://www.w3.org/2000/svg">
<path d="M70 0C66.401 0 62.8249 1.13885 59.7442 3.22131L50.2081 9.49039L39.221 10.8462H39.0424L38.8639 11.0143C35.2605 11.7806 31.9615 13.4931 29.3493 15.9531C26.7371 18.4132 24.9187 21.52 24.105 24.9136L23.9322 25.0817V25.2498L22.4926 35.7598L15.8358 43.8944L15.6515 44.0625V44.2306C11.6264 50.2882 11.4478 58.1083 15.8358 63.8893L22.6711 72.8699L24.4735 82.1976L5.93699 108.798L0 117.106H27.5313L34.1881 131.678L38.3284 141L44.2654 132.524L62.4391 106.764C67.3223 108.651 72.8332 108.825 77.5609 106.764L95.7346 132.524L101.672 141L105.812 131.678L112.469 117.106H140L134.063 108.798L116.068 83.0436L117.507 72.8753L124.164 63.8947L124.348 63.7266V63.5585C128.374 57.5009 128.552 49.8489 124.164 44.0679L117.507 35.0819L115.348 24.9136H115.526C115.503 24.7835 115.371 24.6967 115.348 24.572C114.311 17.4786 108.351 11.7193 100.773 10.8462H100.589L89.7919 9.49039L80.2558 3.22131C77.2776 1.1666 73.6917 0.0402857 70 0ZM70 11.0143C71.3244 11.0143 72.6316 11.3939 73.599 12.0338L83.8549 18.9808L85.116 19.8268L86.5556 20.0003L99.1551 21.6923H99.3279C101.919 21.9635 103.716 23.6609 104.01 26.1013V26.4375L106.353 38.4713L106.526 39.659L107.43 40.6731L114.807 50.3316C116.183 52.132 116.361 55.1852 114.628 57.7883L106.532 68.4663L106.347 69.8221L104.551 81.6878V81.8505C104.455 82.698 104.147 83.5121 103.653 84.2258L103.29 84.3993V84.562C102.434 85.5301 101.206 86.1402 99.875 86.2595H99.5122L86.3771 88.4667L84.9375 88.6293L83.8549 89.4808L73.599 96.4277C71.6872 97.7238 68.2667 97.892 65.5026 96.2596L56.1451 89.4808L55.0625 88.6348L53.4444 88.4612L40.8449 86.7692H40.6721C39.8579 86.7016 39.0728 86.4504 38.3833 86.037C37.6938 85.6236 37.12 85.0601 36.7103 84.3939C36.3276 83.7685 36.0828 83.0768 35.9905 82.3603V82.024L33.6525 69.654L33.4682 68.2982L32.5699 67.2787L25.1933 57.6202C23.817 55.8197 23.6385 52.5984 25.3718 49.9953L32.5699 41.1828L33.4682 40.1633L33.6468 38.6394L35.2706 27.2835C35.2937 27.2022 35.4261 27.2022 35.4492 27.1154C35.8082 25.8099 36.5314 24.6186 37.5439 23.6651C38.5565 22.7115 39.8214 22.0304 41.2076 21.6923C41.2998 21.6706 41.2998 21.5459 41.3861 21.5242L53.4444 19.9949L54.884 19.8322L56.1451 18.9808L66.401 12.0338C67.3684 11.3993 68.6756 11.0143 70 11.0143ZM109.768 93.5481L118.59 106.26H104.724L103.284 109.649L99.3279 118.288L87.0911 100.663L89.7861 98.803L101.13 96.9375V97.1056C101.263 97.0839 101.349 96.9592 101.487 96.9375C104.518 96.5257 107.376 95.3552 109.762 93.5481H109.768ZM30.232 93.7162C32.7324 95.8571 35.8737 97.2188 39.2267 97.6154H39.4052L50.3866 98.9712L52.9031 100.837L40.6663 118.288L36.7103 109.649L35.2706 106.26H21.4158L30.232 93.7162Z" fill="url(#paint0_linear_3537_2222)"/>
<defs>
<linearGradient id="paint0_linear_3537_2222" x1="70" y1="0" x2="70" y2="141" gradientUnits="userSpaceOnUse">
<stop stop-color="#C2157D"/>
<stop offset="1" stop-color="#E8380D"/>
</linearGradient>
</defs>
</svg>
