<svg width="127" height="274" viewBox="0 0 127 274" fill="none" xmlns="http://www.w3.org/2000/svg">
<path opacity="0.3" d="M127.5 0C120.945 0 114.431 2.21308 108.82 6.25985L91.4505 18.4423L71.4382 21.0769H71.113L70.7879 21.4036C64.2245 22.8929 58.2155 26.2206 53.4576 31.0011C48.6997 35.7816 45.3877 41.8191 43.9055 48.4137L43.5908 48.7404V49.0671L40.9687 69.4906L28.8438 85.2983L28.5081 85.625V85.9517C21.1766 97.7232 20.8514 112.92 28.8438 124.154L41.2938 141.605L44.5768 159.731L10.8138 211.423L0 227.568H50.1462L62.2711 255.884L69.8124 274L80.6262 257.528L113.728 207.471C122.623 211.138 132.66 211.475 141.272 207.471L174.374 257.528L185.188 274L192.729 255.884L204.854 227.568H255L244.186 211.423L211.409 161.375L214.031 141.616L226.156 124.164L226.492 123.837V123.511C233.823 111.739 234.149 96.8695 226.156 85.6355L214.031 68.1733L210.098 48.4137H210.423C210.381 48.1608 210.14 47.9922 210.098 47.7498C208.21 33.9655 197.354 22.7736 183.551 21.0769H183.216L163.549 18.4423L146.18 6.25985C140.756 2.26701 134.224 0.0782857 127.5 0ZM127.5 21.4036C129.912 21.4036 132.293 22.1413 134.055 23.3848L152.736 36.8846L155.033 38.5286L157.655 38.8658L180.604 42.1538H180.919C185.639 42.6808 188.911 45.9793 189.446 50.7216V51.375L193.715 74.7598L194.029 77.0678L195.676 79.0385L209.112 97.8075C211.619 101.306 211.944 107.239 208.787 112.298L194.04 133.048L193.704 135.683L190.432 158.741V159.057C190.257 160.704 189.697 162.286 188.796 163.673L188.135 164.01V164.326C186.576 166.207 184.34 167.393 181.915 167.625H181.254L157.33 171.914L154.708 172.23L152.736 173.885L134.055 187.384C130.573 189.903 124.343 190.23 119.308 187.058L102.264 173.885L100.292 172.241L97.3451 171.903L74.396 168.615H74.0813C72.5982 168.484 71.1684 167.996 69.9125 167.192C68.6565 166.389 67.6114 165.294 66.8651 164C66.1681 162.784 65.7222 161.44 65.554 160.048V159.394L61.2957 135.356L60.96 132.721L59.3238 130.74L45.8878 111.971C43.381 108.472 43.0559 102.213 46.213 97.1541L59.3238 80.0291L60.96 78.0479L61.2852 75.0865L64.243 53.019C64.2849 52.8609 64.5262 52.8609 64.5681 52.6923C65.222 50.1554 66.5394 47.8405 68.3836 45.9875C70.2279 44.1345 72.5319 42.8108 75.0568 42.1538C75.2246 42.1117 75.2246 41.8693 75.3819 41.8272L97.3451 38.8553L99.9673 38.5392L102.264 36.8846L120.945 23.3848C122.707 22.1518 125.088 21.4036 127.5 21.4036ZM199.935 181.788L216.003 206.491H190.747L188.124 213.077L180.919 229.865L158.63 195.615L163.539 192L184.202 188.375V188.702C184.443 188.66 184.6 188.417 184.852 188.375C190.372 187.575 195.577 185.3 199.924 181.788H199.935ZM55.0654 182.115C59.6198 186.275 65.3414 188.922 71.4487 189.692H71.7738L91.7757 192.327L96.3592 195.952L74.0708 229.865L66.8651 213.077L64.243 206.491H39.0073L55.0654 182.115Z" fill="#C2157D"/>
</svg>
