<svg width="375" height="22" viewBox="0 0 375 22" fill="none" xmlns="http://www.w3.org/2000/svg">
<rect x="-164" width="703" height="22" fill="url(#paint0_linear_1241_3368)"/>
<path d="M49.5117 15L49.1953 6.43359H50.5195L50.6309 11.4492C50.6387 11.7617 50.6367 12.0957 50.625 12.4512C50.6133 12.8027 50.5957 13.1348 50.5723 13.4473H50.6133C50.7227 13.1387 50.8477 12.8008 50.9883 12.4336C51.1328 12.0625 51.2754 11.7285 51.416 11.4316L53.7129 6.43359H55.0078L55.1953 11.4258C55.2109 11.707 55.2188 12.0391 55.2188 12.4219C55.2188 12.8008 55.2129 13.1445 55.2012 13.4531H55.2422C55.3125 13.2422 55.3887 13.0195 55.4707 12.7852C55.5566 12.5508 55.6426 12.3184 55.7285 12.0879C55.8184 11.8535 55.9062 11.6348 55.9922 11.4316L58.1191 6.43359H59.5488L55.7109 15H54.1934L54.0059 10.207C53.998 9.94922 53.9902 9.7168 53.9824 9.50977C53.9785 9.29883 53.9746 9.10156 53.9707 8.91797C53.9707 8.73438 53.9727 8.55273 53.9766 8.37305H53.9355C53.8496 8.65039 53.7539 8.92188 53.6484 9.1875C53.543 9.44922 53.418 9.73828 53.2734 10.0547L51.0059 15H49.5117ZM62.4609 15.1172C61.7695 15.1172 61.1875 14.9824 60.7148 14.7129C60.2461 14.4395 59.8906 14.0547 59.6484 13.5586C59.4102 13.0625 59.291 12.4824 59.291 11.8184C59.291 11.3496 59.332 10.8906 59.4141 10.4414C59.5 9.98828 59.625 9.55664 59.7891 9.14648C59.9531 8.73633 60.1582 8.35742 60.4043 8.00977C60.6543 7.66211 60.9434 7.36133 61.2715 7.10742C61.5996 6.84961 61.9668 6.65039 62.373 6.50977C62.7832 6.36914 63.2305 6.29883 63.7148 6.29883C64.7148 6.29883 65.4805 6.59375 66.0117 7.18359C66.5469 7.77344 66.8145 8.57422 66.8145 9.58594C66.8145 10.0547 66.7754 10.5176 66.6973 10.9746C66.623 11.4277 66.5059 11.8613 66.3457 12.2754C66.1895 12.6855 65.9922 13.0645 65.7539 13.4121C65.5156 13.7559 65.2344 14.0547 64.9102 14.3086C64.5898 14.5625 64.2246 14.7617 63.8145 14.9062C63.4082 15.0469 62.957 15.1172 62.4609 15.1172ZM62.543 13.916C62.8281 13.916 63.0957 13.8652 63.3457 13.7637C63.5957 13.6621 63.8242 13.5195 64.0312 13.3359C64.2422 13.1484 64.4297 12.9238 64.5938 12.6621C64.7617 12.4004 64.9023 12.1094 65.0156 11.7891C65.1328 11.4688 65.2227 11.125 65.2852 10.7578C65.3477 10.3867 65.3789 10 65.3789 9.59766C65.3789 8.94531 65.2246 8.43164 64.916 8.05664C64.6113 7.68164 64.1758 7.49414 63.6094 7.49414C63.3164 7.49414 63.041 7.54688 62.7832 7.65234C62.5293 7.75391 62.2949 7.90234 62.0801 8.09766C61.8652 8.28906 61.6738 8.51758 61.5059 8.7832C61.3418 9.04492 61.2012 9.33594 61.084 9.65625C60.9668 9.97656 60.877 10.3184 60.8145 10.6816C60.7559 11.041 60.7266 11.416 60.7266 11.8066C60.7266 12.252 60.7969 12.6328 60.9375 12.9492C61.082 13.2656 61.2891 13.5059 61.5586 13.6699C61.832 13.834 62.1602 13.916 62.543 13.916ZM67.5996 15L69.4102 6.43359H71.291L71.9297 13.1895H71.9766L75.5449 6.43359H77.543L75.7441 15H74.4258L75.416 10.3125C75.4785 10.0156 75.5449 9.7207 75.6152 9.42773C75.6855 9.13086 75.7539 8.84961 75.8203 8.58398C75.8906 8.31836 75.9531 8.08594 76.0078 7.88672H75.9668L72.1934 15H70.9805L70.3125 7.88672H70.2656C70.25 8.05469 70.2207 8.27344 70.1777 8.54297C70.1348 8.8125 70.0859 9.10352 70.0312 9.41602C69.9766 9.72461 69.918 10.0254 69.8555 10.3184L68.8711 15H67.5996ZM77.9062 15L79.7168 6.43359H84.2812L84.0293 7.61719H80.8535L80.3613 9.94336H83.332L83.0859 11.1211H80.1152L79.541 13.8105H82.7168L82.4648 15H77.9062ZM84.252 15L86.0625 6.43359H87.627L89.9824 13.1719H90.0176C90.0449 12.9922 90.0801 12.7715 90.123 12.5098C90.166 12.2441 90.2148 11.9688 90.2695 11.6836C90.3242 11.3984 90.377 11.1348 90.4277 10.8926L91.377 6.43359H92.6484L90.8379 15H89.3145L86.9062 8.16211H86.8652C86.8535 8.25195 86.834 8.38867 86.8066 8.57227C86.7793 8.75195 86.7461 8.95898 86.707 9.19336C86.6719 9.42773 86.6328 9.66602 86.5898 9.9082C86.5469 10.1504 86.502 10.375 86.4551 10.582L85.5234 15H84.252ZM99.6914 15.1172C99 15.1172 98.418 14.9824 97.9453 14.7129C97.4766 14.4395 97.1211 14.0547 96.8789 13.5586C96.6406 13.0625 96.5215 12.4824 96.5215 11.8184C96.5215 11.3496 96.5625 10.8906 96.6445 10.4414C96.7305 9.98828 96.8555 9.55664 97.0195 9.14648C97.1836 8.73633 97.3887 8.35742 97.6348 8.00977C97.8848 7.66211 98.1738 7.36133 98.502 7.10742C98.8301 6.84961 99.1973 6.65039 99.6035 6.50977C100.014 6.36914 100.461 6.29883 100.945 6.29883C101.945 6.29883 102.711 6.59375 103.242 7.18359C103.777 7.77344 104.045 8.57422 104.045 9.58594C104.045 10.0547 104.006 10.5176 103.928 10.9746C103.854 11.4277 103.736 11.8613 103.576 12.2754C103.42 12.6855 103.223 13.0645 102.984 13.4121C102.746 13.7559 102.465 14.0547 102.141 14.3086C101.82 14.5625 101.455 14.7617 101.045 14.9062C100.639 15.0469 100.188 15.1172 99.6914 15.1172ZM99.7734 13.916C100.059 13.916 100.326 13.8652 100.576 13.7637C100.826 13.6621 101.055 13.5195 101.262 13.3359C101.473 13.1484 101.66 12.9238 101.824 12.6621C101.992 12.4004 102.133 12.1094 102.246 11.7891C102.363 11.4688 102.453 11.125 102.516 10.7578C102.578 10.3867 102.609 10 102.609 9.59766C102.609 8.94531 102.455 8.43164 102.146 8.05664C101.842 7.68164 101.406 7.49414 100.84 7.49414C100.547 7.49414 100.271 7.54688 100.014 7.65234C99.7598 7.75391 99.5254 7.90234 99.3105 8.09766C99.0957 8.28906 98.9043 8.51758 98.7363 8.7832C98.5723 9.04492 98.4316 9.33594 98.3145 9.65625C98.1973 9.97656 98.1074 10.3184 98.0449 10.6816C97.9863 11.041 97.957 11.416 97.957 11.8066C97.957 12.252 98.0273 12.6328 98.168 12.9492C98.3125 13.2656 98.5195 13.5059 98.7891 13.6699C99.0625 13.834 99.3906 13.916 99.7734 13.916ZM105.938 15L105.621 6.43359H106.945L107.057 11.4492C107.064 11.7617 107.062 12.0957 107.051 12.4512C107.039 12.8027 107.021 13.1348 106.998 13.4473H107.039C107.148 13.1387 107.273 12.8008 107.414 12.4336C107.559 12.0625 107.701 11.7285 107.842 11.4316L110.139 6.43359H111.434L111.621 11.4258C111.637 11.707 111.645 12.0391 111.645 12.4219C111.645 12.8008 111.639 13.1445 111.627 13.4531H111.668C111.738 13.2422 111.814 13.0195 111.896 12.7852C111.982 12.5508 112.068 12.3184 112.154 12.0879C112.244 11.8535 112.332 11.6348 112.418 11.4316L114.545 6.43359H115.975L112.137 15H110.619L110.432 10.207C110.424 9.94922 110.416 9.7168 110.408 9.50977C110.404 9.29883 110.4 9.10156 110.396 8.91797C110.396 8.73438 110.398 8.55273 110.402 8.37305H110.361C110.275 8.65039 110.18 8.92188 110.074 9.1875C109.969 9.44922 109.844 9.73828 109.699 10.0547L107.432 15H105.938ZM115.318 15L117.129 6.43359H118.693L121.049 13.1719H121.084C121.111 12.9922 121.146 12.7715 121.189 12.5098C121.232 12.2441 121.281 11.9688 121.336 11.6836C121.391 11.3984 121.443 11.1348 121.494 10.8926L122.443 6.43359H123.715L121.904 15H120.381L117.973 8.16211H117.932C117.92 8.25195 117.9 8.38867 117.873 8.57227C117.846 8.75195 117.812 8.95898 117.773 9.19336C117.738 9.42773 117.699 9.66602 117.656 9.9082C117.613 10.1504 117.568 10.375 117.521 10.582L116.59 15H115.318ZM124.078 15L125.889 6.43359H130.453L130.201 7.61719H127.025L126.533 9.94336H129.504L129.258 11.1211H126.287L125.713 13.8105H128.889L128.637 15H124.078ZM130.43 15L132.24 6.43359H134.396C135.443 6.43359 136.258 6.71289 136.84 7.27148C137.422 7.82617 137.713 8.65625 137.713 9.76172C137.713 10.3789 137.643 10.9551 137.502 11.4902C137.365 12.0254 137.162 12.5098 136.893 12.9434C136.623 13.373 136.289 13.7422 135.891 14.0508C135.492 14.3555 135.033 14.5898 134.514 14.7539C133.994 14.918 133.418 15 132.785 15H130.43ZM132.064 13.8223H132.855C133.309 13.8223 133.717 13.7539 134.08 13.6172C134.447 13.4805 134.768 13.2891 135.041 13.043C135.314 12.793 135.543 12.5 135.727 12.1641C135.91 11.8281 136.047 11.4609 136.137 11.0625C136.23 10.6602 136.277 10.2402 136.277 9.80273C136.277 9.04102 136.094 8.48438 135.727 8.13281C135.363 7.77734 134.871 7.59961 134.25 7.59961H133.383L132.064 13.8223ZM139.043 15.1582C138.785 15.1582 138.596 15.0898 138.475 14.9531C138.357 14.8164 138.299 14.6484 138.299 14.4492C138.299 14.1797 138.377 13.9375 138.533 13.7227C138.693 13.5078 138.957 13.4004 139.324 13.4004C139.539 13.4004 139.711 13.4629 139.84 13.5879C139.973 13.7129 140.039 13.8906 140.039 14.1211C140.039 14.4023 139.951 14.6465 139.775 14.8535C139.604 15.0566 139.359 15.1582 139.043 15.1582ZM147.961 15L149.771 6.43359H151.16L149.596 13.8047H152.771L152.52 15H147.961ZM152.842 15L157.436 6.43359H159.047L160.02 15H158.66L158.42 12.6152H155.555L154.324 15H152.842ZM156.158 11.4082H158.326L158.133 9.30469C158.113 9.04297 158.092 8.76758 158.068 8.47852C158.045 8.18555 158.033 7.9082 158.033 7.64648H157.998C157.9 7.90039 157.787 8.16406 157.658 8.4375C157.529 8.70703 157.391 8.98438 157.242 9.26953L156.158 11.4082ZM162.381 15L163.939 7.62891H161.713L161.965 6.43359H167.812L167.566 7.62891H165.334L163.775 15H162.381ZM167.268 15L169.09 6.43359H170.473L168.645 15H167.268ZM170.818 15L172.629 6.43359H174.193L176.549 13.1719H176.584C176.611 12.9922 176.646 12.7715 176.689 12.5098C176.732 12.2441 176.781 11.9688 176.836 11.6836C176.891 11.3984 176.943 11.1348 176.994 10.8926L177.943 6.43359H179.215L177.404 15H175.881L173.473 8.16211H173.432C173.42 8.25195 173.4 8.38867 173.373 8.57227C173.346 8.75195 173.312 8.95898 173.273 9.19336C173.238 9.42773 173.199 9.66602 173.156 9.9082C173.113 10.1504 173.068 10.375 173.021 10.582L172.09 15H170.818ZM178.512 15L181.957 10.4941L180.492 6.43359H181.928L182.977 9.62109L185.35 6.43359H186.896L183.674 10.5996L185.279 15H183.785L182.648 11.5254L180.059 15H178.512ZM193.031 15.1172C192.34 15.1172 191.758 14.9824 191.285 14.7129C190.816 14.4395 190.461 14.0547 190.219 13.5586C189.98 13.0625 189.861 12.4824 189.861 11.8184C189.861 11.3496 189.902 10.8906 189.984 10.4414C190.07 9.98828 190.195 9.55664 190.359 9.14648C190.523 8.73633 190.729 8.35742 190.975 8.00977C191.225 7.66211 191.514 7.36133 191.842 7.10742C192.17 6.84961 192.537 6.65039 192.943 6.50977C193.354 6.36914 193.801 6.29883 194.285 6.29883C195.285 6.29883 196.051 6.59375 196.582 7.18359C197.117 7.77344 197.385 8.57422 197.385 9.58594C197.385 10.0547 197.346 10.5176 197.268 10.9746C197.193 11.4277 197.076 11.8613 196.916 12.2754C196.76 12.6855 196.562 13.0645 196.324 13.4121C196.086 13.7559 195.805 14.0547 195.48 14.3086C195.16 14.5625 194.795 14.7617 194.385 14.9062C193.979 15.0469 193.527 15.1172 193.031 15.1172ZM193.113 13.916C193.398 13.916 193.666 13.8652 193.916 13.7637C194.166 13.6621 194.395 13.5195 194.602 13.3359C194.812 13.1484 195 12.9238 195.164 12.6621C195.332 12.4004 195.473 12.1094 195.586 11.7891C195.703 11.4688 195.793 11.125 195.855 10.7578C195.918 10.3867 195.949 10 195.949 9.59766C195.949 8.94531 195.795 8.43164 195.486 8.05664C195.182 7.68164 194.746 7.49414 194.18 7.49414C193.887 7.49414 193.611 7.54688 193.354 7.65234C193.1 7.75391 192.865 7.90234 192.65 8.09766C192.436 8.28906 192.244 8.51758 192.076 8.7832C191.912 9.04492 191.771 9.33594 191.654 9.65625C191.537 9.97656 191.447 10.3184 191.385 10.6816C191.326 11.041 191.297 11.416 191.297 11.8066C191.297 12.252 191.367 12.6328 191.508 12.9492C191.652 13.2656 191.859 13.5059 192.129 13.6699C192.402 13.834 192.73 13.916 193.113 13.916ZM199.277 15L198.961 6.43359H200.285L200.396 11.4492C200.404 11.7617 200.402 12.0957 200.391 12.4512C200.379 12.8027 200.361 13.1348 200.338 13.4473H200.379C200.488 13.1387 200.613 12.8008 200.754 12.4336C200.898 12.0625 201.041 11.7285 201.182 11.4316L203.479 6.43359H204.773L204.961 11.4258C204.977 11.707 204.984 12.0391 204.984 12.4219C204.984 12.8008 204.979 13.1445 204.967 13.4531H205.008C205.078 13.2422 205.154 13.0195 205.236 12.7852C205.322 12.5508 205.408 12.3184 205.494 12.0879C205.584 11.8535 205.672 11.6348 205.758 11.4316L207.885 6.43359H209.314L205.477 15H203.959L203.771 10.207C203.764 9.94922 203.756 9.7168 203.748 9.50977C203.744 9.29883 203.74 9.10156 203.736 8.91797C203.736 8.73438 203.738 8.55273 203.742 8.37305H203.701C203.615 8.65039 203.52 8.92188 203.414 9.1875C203.309 9.44922 203.184 9.73828 203.039 10.0547L200.771 15H199.277ZM208.658 15L210.469 6.43359H212.033L214.389 13.1719H214.424C214.451 12.9922 214.486 12.7715 214.529 12.5098C214.572 12.2441 214.621 11.9688 214.676 11.6836C214.73 11.3984 214.783 11.1348 214.834 10.8926L215.783 6.43359H217.055L215.244 15H213.721L211.312 8.16211H211.271C211.26 8.25195 211.24 8.38867 211.213 8.57227C211.186 8.75195 211.152 8.95898 211.113 9.19336C211.078 9.42773 211.039 9.66602 210.996 9.9082C210.953 10.1504 210.908 10.375 210.861 10.582L209.93 15H208.658ZM217.418 15L219.229 6.43359H223.793L223.541 7.61719H220.365L219.873 9.94336H222.844L222.598 11.1211H219.627L219.053 13.8105H222.229L221.977 15H217.418ZM223.77 15L225.58 6.43359H227.736C228.783 6.43359 229.598 6.71289 230.18 7.27148C230.762 7.82617 231.053 8.65625 231.053 9.76172C231.053 10.3789 230.982 10.9551 230.842 11.4902C230.705 12.0254 230.502 12.5098 230.232 12.9434C229.963 13.373 229.629 13.7422 229.23 14.0508C228.832 14.3555 228.373 14.5898 227.854 14.7539C227.334 14.918 226.758 15 226.125 15H223.77ZM225.404 13.8223H226.195C226.648 13.8223 227.057 13.7539 227.42 13.6172C227.787 13.4805 228.107 13.2891 228.381 13.043C228.654 12.793 228.883 12.5 229.066 12.1641C229.25 11.8281 229.387 11.4609 229.477 11.0625C229.57 10.6602 229.617 10.2402 229.617 9.80273C229.617 9.04102 229.434 8.48438 229.066 8.13281C228.703 7.77734 228.211 7.59961 227.59 7.59961H226.723L225.404 13.8223ZM232.383 15.1582C232.125 15.1582 231.936 15.0898 231.814 14.9531C231.697 14.8164 231.639 14.6484 231.639 14.4492C231.639 14.1797 231.717 13.9375 231.873 13.7227C232.033 13.5078 232.297 13.4004 232.664 13.4004C232.879 13.4004 233.051 13.4629 233.18 13.5879C233.312 13.7129 233.379 13.8906 233.379 14.1211C233.379 14.4023 233.291 14.6465 233.115 14.8535C232.943 15.0566 232.699 15.1582 232.383 15.1582ZM241.301 15L243.111 6.43359H244.5L242.936 13.8047H246.111L245.859 15H241.301ZM250.875 15.1172C249.871 15.1172 249.088 14.834 248.525 14.2676C247.963 13.6973 247.682 12.8848 247.682 11.8301C247.682 11.2246 247.752 10.6465 247.893 10.0957C248.033 9.54102 248.238 9.0332 248.508 8.57227C248.777 8.11133 249.107 7.71094 249.498 7.37109C249.893 7.03125 250.34 6.76953 250.84 6.58594C251.344 6.39844 251.896 6.30469 252.498 6.30469C252.975 6.30469 253.406 6.35156 253.793 6.44531C254.184 6.53516 254.564 6.66797 254.936 6.84375L254.408 8.01562C254.115 7.86719 253.809 7.74609 253.488 7.65234C253.168 7.55859 252.822 7.51172 252.451 7.51172C251.936 7.51172 251.473 7.625 251.062 7.85156C250.652 8.07422 250.301 8.38086 250.008 8.77148C249.719 9.16211 249.498 9.61133 249.346 10.1191C249.193 10.627 249.117 11.1641 249.117 11.7305C249.117 12.1758 249.188 12.5625 249.328 12.8906C249.469 13.2188 249.688 13.4727 249.984 13.6523C250.281 13.8281 250.658 13.916 251.115 13.916C251.373 13.916 251.605 13.8984 251.812 13.8633C252.023 13.8242 252.219 13.7793 252.398 13.7285L252.879 11.543H251.215L251.473 10.3535H254.496L253.57 14.6602C253.195 14.793 252.795 14.9023 252.369 14.9883C251.947 15.0742 251.449 15.1172 250.875 15.1172ZM256.811 15L258.369 7.62891H256.143L256.395 6.43359H262.242L261.996 7.62891H259.764L258.205 15H256.811ZM261.703 15L263.514 6.43359H265.869C266.408 6.43359 266.873 6.5 267.264 6.63281C267.654 6.76562 267.955 6.97266 268.166 7.25391C268.381 7.53516 268.488 7.90234 268.488 8.35547C268.488 8.74219 268.41 9.08594 268.254 9.38672C268.102 9.68359 267.883 9.92969 267.598 10.125C267.316 10.3164 266.979 10.4512 266.584 10.5293V10.582C266.979 10.6875 267.299 10.8828 267.545 11.168C267.791 11.4492 267.914 11.8164 267.914 12.2695C267.914 12.8867 267.768 13.3984 267.475 13.8047C267.186 14.207 266.789 14.5078 266.285 14.707C265.785 14.9023 265.215 15 264.574 15H261.703ZM263.338 13.8223H264.65C265.025 13.8223 265.35 13.7637 265.623 13.6465C265.9 13.5293 266.113 13.3555 266.262 13.125C266.414 12.8945 266.49 12.6113 266.49 12.2754C266.49 11.9199 266.379 11.6348 266.156 11.4199C265.938 11.2051 265.586 11.0977 265.102 11.0977H263.918L263.338 13.8223ZM264.152 9.9668H265.324C265.656 9.9668 265.951 9.91992 266.209 9.82617C266.471 9.72852 266.676 9.58008 266.824 9.38086C266.977 9.17773 267.053 8.91992 267.053 8.60742C267.053 8.2793 266.947 8.0293 266.736 7.85742C266.529 7.68555 266.197 7.59961 265.74 7.59961H264.656L264.152 9.9668ZM273.92 17.0391L272.754 15.1113C272.723 15.1113 272.693 15.1113 272.666 15.1113C272.639 15.1152 272.611 15.1172 272.584 15.1172C271.893 15.1133 271.312 14.9766 270.844 14.707C270.375 14.4375 270.02 14.0566 269.777 13.5645C269.539 13.0684 269.42 12.4863 269.42 11.8184C269.42 11.3496 269.461 10.8906 269.543 10.4414C269.629 9.98828 269.754 9.55664 269.918 9.14648C270.082 8.73633 270.287 8.35742 270.533 8.00977C270.783 7.66211 271.072 7.36133 271.4 7.10742C271.729 6.84961 272.096 6.65039 272.502 6.50977C272.912 6.36914 273.359 6.29883 273.844 6.29883C274.844 6.29883 275.609 6.59375 276.141 7.18359C276.676 7.77344 276.943 8.57422 276.943 9.58594C276.943 10.0469 276.904 10.5 276.826 10.9453C276.752 11.3906 276.639 11.8164 276.486 12.2227C276.334 12.625 276.143 12.998 275.912 13.3418C275.682 13.6816 275.412 13.9805 275.104 14.2383C274.799 14.4922 274.455 14.6914 274.072 14.8359L275.607 17.0391H273.92ZM272.672 13.916C272.961 13.916 273.23 13.8652 273.48 13.7637C273.73 13.6621 273.961 13.5195 274.172 13.3359C274.383 13.1484 274.57 12.9238 274.734 12.6621C274.898 12.4004 275.037 12.1094 275.15 11.7891C275.268 11.4688 275.355 11.125 275.414 10.7578C275.477 10.3867 275.508 10 275.508 9.59766C275.508 8.94531 275.354 8.43164 275.045 8.05664C274.74 7.68164 274.305 7.49414 273.738 7.49414C273.445 7.49414 273.17 7.54688 272.912 7.65234C272.658 7.75391 272.424 7.90234 272.209 8.09766C271.994 8.28906 271.803 8.51758 271.635 8.7832C271.471 9.04492 271.33 9.33594 271.213 9.65625C271.096 9.97656 271.006 10.3184 270.943 10.6816C270.885 11.041 270.855 11.416 270.855 11.8066C270.855 12.252 270.926 12.6328 271.066 12.9492C271.211 13.2656 271.418 13.5059 271.688 13.6699C271.961 13.834 272.289 13.916 272.672 13.916ZM281.449 10.248H283.793V11.291H281.449V13.6582H280.406V11.291H278.068V10.248H280.406V7.85742H281.449V10.248ZM291.281 15.1172C290.59 15.1172 290.008 14.9824 289.535 14.7129C289.066 14.4395 288.711 14.0547 288.469 13.5586C288.23 13.0625 288.111 12.4824 288.111 11.8184C288.111 11.3496 288.152 10.8906 288.234 10.4414C288.32 9.98828 288.445 9.55664 288.609 9.14648C288.773 8.73633 288.979 8.35742 289.225 8.00977C289.475 7.66211 289.764 7.36133 290.092 7.10742C290.42 6.84961 290.787 6.65039 291.193 6.50977C291.604 6.36914 292.051 6.29883 292.535 6.29883C293.535 6.29883 294.301 6.59375 294.832 7.18359C295.367 7.77344 295.635 8.57422 295.635 9.58594C295.635 10.0547 295.596 10.5176 295.518 10.9746C295.443 11.4277 295.326 11.8613 295.166 12.2754C295.01 12.6855 294.812 13.0645 294.574 13.4121C294.336 13.7559 294.055 14.0547 293.73 14.3086C293.41 14.5625 293.045 14.7617 292.635 14.9062C292.229 15.0469 291.777 15.1172 291.281 15.1172ZM291.363 13.916C291.648 13.916 291.916 13.8652 292.166 13.7637C292.416 13.6621 292.645 13.5195 292.852 13.3359C293.062 13.1484 293.25 12.9238 293.414 12.6621C293.582 12.4004 293.723 12.1094 293.836 11.7891C293.953 11.4688 294.043 11.125 294.105 10.7578C294.168 10.3867 294.199 10 294.199 9.59766C294.199 8.94531 294.045 8.43164 293.736 8.05664C293.432 7.68164 292.996 7.49414 292.43 7.49414C292.137 7.49414 291.861 7.54688 291.604 7.65234C291.35 7.75391 291.115 7.90234 290.9 8.09766C290.686 8.28906 290.494 8.51758 290.326 8.7832C290.162 9.04492 290.021 9.33594 289.904 9.65625C289.787 9.97656 289.697 10.3184 289.635 10.6816C289.576 11.041 289.547 11.416 289.547 11.8066C289.547 12.252 289.617 12.6328 289.758 12.9492C289.902 13.2656 290.109 13.5059 290.379 13.6699C290.652 13.834 290.98 13.916 291.363 13.916ZM297.527 15L297.211 6.43359H298.535L298.646 11.4492C298.654 11.7617 298.652 12.0957 298.641 12.4512C298.629 12.8027 298.611 13.1348 298.588 13.4473H298.629C298.738 13.1387 298.863 12.8008 299.004 12.4336C299.148 12.0625 299.291 11.7285 299.432 11.4316L301.729 6.43359H303.023L303.211 11.4258C303.227 11.707 303.234 12.0391 303.234 12.4219C303.234 12.8008 303.229 13.1445 303.217 13.4531H303.258C303.328 13.2422 303.404 13.0195 303.486 12.7852C303.572 12.5508 303.658 12.3184 303.744 12.0879C303.834 11.8535 303.922 11.6348 304.008 11.4316L306.135 6.43359H307.564L303.727 15H302.209L302.021 10.207C302.014 9.94922 302.006 9.7168 301.998 9.50977C301.994 9.29883 301.99 9.10156 301.986 8.91797C301.986 8.73438 301.988 8.55273 301.992 8.37305H301.951C301.865 8.65039 301.77 8.92188 301.664 9.1875C301.559 9.44922 301.434 9.73828 301.289 10.0547L299.021 15H297.527ZM306.908 15L308.719 6.43359H310.283L312.639 13.1719H312.674C312.701 12.9922 312.736 12.7715 312.779 12.5098C312.822 12.2441 312.871 11.9688 312.926 11.6836C312.98 11.3984 313.033 11.1348 313.084 10.8926L314.033 6.43359H315.305L313.494 15H311.971L309.562 8.16211H309.521C309.51 8.25195 309.49 8.38867 309.463 8.57227C309.436 8.75195 309.402 8.95898 309.363 9.19336C309.328 9.42773 309.289 9.66602 309.246 9.9082C309.203 10.1504 309.158 10.375 309.111 10.582L308.18 15H306.908ZM315.668 15L317.479 6.43359H322.043L321.791 7.61719H318.615L318.123 9.94336H321.094L320.848 11.1211H317.877L317.303 13.8105H320.479L320.227 15H315.668ZM322.02 15L323.83 6.43359H325.986C327.033 6.43359 327.848 6.71289 328.43 7.27148C329.012 7.82617 329.303 8.65625 329.303 9.76172C329.303 10.3789 329.232 10.9551 329.092 11.4902C328.955 12.0254 328.752 12.5098 328.482 12.9434C328.213 13.373 327.879 13.7422 327.48 14.0508C327.082 14.3555 326.623 14.5898 326.104 14.7539C325.584 14.918 325.008 15 324.375 15H322.02ZM323.654 13.8223H324.445C324.898 13.8223 325.307 13.7539 325.67 13.6172C326.037 13.4805 326.357 13.2891 326.631 13.043C326.904 12.793 327.133 12.5 327.316 12.1641C327.5 11.8281 327.637 11.4609 327.727 11.0625C327.82 10.6602 327.867 10.2402 327.867 9.80273C327.867 9.04102 327.684 8.48438 327.316 8.13281C326.953 7.77734 326.461 7.59961 325.84 7.59961H324.973L323.654 13.8223Z" fill="white"/>
<defs>
<linearGradient id="paint0_linear_1241_3368" x1="539" y1="22.0001" x2="-154.955" y2="21.9998" gradientUnits="userSpaceOnUse">
<stop stop-color="#C2157D" stop-opacity="0"/>
<stop offset="0.523958" stop-color="#A01706"/>
<stop offset="1" stop-color="#C2157D" stop-opacity="0"/>
</linearGradient>
</defs>
</svg>
