<svg width="1127" height="31" viewBox="0 0 1127 31" fill="none" xmlns="http://www.w3.org/2000/svg">
<rect width="1127" height="31" fill="url(#paint0_linear_1241_3356)"/>
<path d="M425.512 20L425.195 11.4336H426.52L426.631 16.4492C426.639 16.7617 426.637 17.0957 426.625 17.4512C426.613 17.8027 426.596 18.1348 426.572 18.4473H426.613C426.723 18.1387 426.848 17.8008 426.988 17.4336C427.133 17.0625 427.275 16.7285 427.416 16.4316L429.713 11.4336H431.008L431.195 16.4258C431.211 16.707 431.219 17.0391 431.219 17.4219C431.219 17.8008 431.213 18.1445 431.201 18.4531H431.242C431.312 18.2422 431.389 18.0195 431.471 17.7852C431.557 17.5508 431.643 17.3184 431.729 17.0879C431.818 16.8535 431.906 16.6348 431.992 16.4316L434.119 11.4336H435.549L431.711 20H430.193L430.006 15.207C429.998 14.9492 429.99 14.7168 429.982 14.5098C429.979 14.2988 429.975 14.1016 429.971 13.918C429.971 13.7344 429.973 13.5527 429.977 13.373H429.936C429.85 13.6504 429.754 13.9219 429.648 14.1875C429.543 14.4492 429.418 14.7383 429.273 15.0547L427.006 20H425.512ZM438.461 20.1172C437.77 20.1172 437.188 19.9824 436.715 19.7129C436.246 19.4395 435.891 19.0547 435.648 18.5586C435.41 18.0625 435.291 17.4824 435.291 16.8184C435.291 16.3496 435.332 15.8906 435.414 15.4414C435.5 14.9883 435.625 14.5566 435.789 14.1465C435.953 13.7363 436.158 13.3574 436.404 13.0098C436.654 12.6621 436.943 12.3613 437.271 12.1074C437.6 11.8496 437.967 11.6504 438.373 11.5098C438.783 11.3691 439.23 11.2988 439.715 11.2988C440.715 11.2988 441.48 11.5938 442.012 12.1836C442.547 12.7734 442.814 13.5742 442.814 14.5859C442.814 15.0547 442.775 15.5176 442.697 15.9746C442.623 16.4277 442.506 16.8613 442.346 17.2754C442.189 17.6855 441.992 18.0645 441.754 18.4121C441.516 18.7559 441.234 19.0547 440.91 19.3086C440.59 19.5625 440.225 19.7617 439.814 19.9062C439.408 20.0469 438.957 20.1172 438.461 20.1172ZM438.543 18.916C438.828 18.916 439.096 18.8652 439.346 18.7637C439.596 18.6621 439.824 18.5195 440.031 18.3359C440.242 18.1484 440.43 17.9238 440.594 17.6621C440.762 17.4004 440.902 17.1094 441.016 16.7891C441.133 16.4688 441.223 16.125 441.285 15.7578C441.348 15.3867 441.379 15 441.379 14.5977C441.379 13.9453 441.225 13.4316 440.916 13.0566C440.611 12.6816 440.176 12.4941 439.609 12.4941C439.316 12.4941 439.041 12.5469 438.783 12.6523C438.529 12.7539 438.295 12.9023 438.08 13.0977C437.865 13.2891 437.674 13.5176 437.506 13.7832C437.342 14.0449 437.201 14.3359 437.084 14.6562C436.967 14.9766 436.877 15.3184 436.814 15.6816C436.756 16.041 436.727 16.416 436.727 16.8066C436.727 17.252 436.797 17.6328 436.938 17.9492C437.082 18.2656 437.289 18.5059 437.559 18.6699C437.832 18.834 438.16 18.916 438.543 18.916ZM443.6 20L445.41 11.4336H447.291L447.93 18.1895H447.977L451.545 11.4336H453.543L451.744 20H450.426L451.416 15.3125C451.479 15.0156 451.545 14.7207 451.615 14.4277C451.686 14.1309 451.754 13.8496 451.82 13.584C451.891 13.3184 451.953 13.0859 452.008 12.8867H451.967L448.193 20H446.98L446.312 12.8867H446.266C446.25 13.0547 446.221 13.2734 446.178 13.543C446.135 13.8125 446.086 14.1035 446.031 14.416C445.977 14.7246 445.918 15.0254 445.855 15.3184L444.871 20H443.6ZM453.906 20L455.717 11.4336H460.281L460.029 12.6172H456.854L456.361 14.9434H459.332L459.086 16.1211H456.115L455.541 18.8105H458.717L458.465 20H453.906ZM460.252 20L462.062 11.4336H463.627L465.982 18.1719H466.018C466.045 17.9922 466.08 17.7715 466.123 17.5098C466.166 17.2441 466.215 16.9688 466.27 16.6836C466.324 16.3984 466.377 16.1348 466.428 15.8926L467.377 11.4336H468.648L466.838 20H465.314L462.906 13.1621H462.865C462.854 13.252 462.834 13.3887 462.807 13.5723C462.779 13.752 462.746 13.959 462.707 14.1934C462.672 14.4277 462.633 14.666 462.59 14.9082C462.547 15.1504 462.502 15.375 462.455 15.582L461.523 20H460.252ZM475.691 20.1172C475 20.1172 474.418 19.9824 473.945 19.7129C473.477 19.4395 473.121 19.0547 472.879 18.5586C472.641 18.0625 472.521 17.4824 472.521 16.8184C472.521 16.3496 472.562 15.8906 472.645 15.4414C472.73 14.9883 472.855 14.5566 473.02 14.1465C473.184 13.7363 473.389 13.3574 473.635 13.0098C473.885 12.6621 474.174 12.3613 474.502 12.1074C474.83 11.8496 475.197 11.6504 475.604 11.5098C476.014 11.3691 476.461 11.2988 476.945 11.2988C477.945 11.2988 478.711 11.5938 479.242 12.1836C479.777 12.7734 480.045 13.5742 480.045 14.5859C480.045 15.0547 480.006 15.5176 479.928 15.9746C479.854 16.4277 479.736 16.8613 479.576 17.2754C479.42 17.6855 479.223 18.0645 478.984 18.4121C478.746 18.7559 478.465 19.0547 478.141 19.3086C477.82 19.5625 477.455 19.7617 477.045 19.9062C476.639 20.0469 476.188 20.1172 475.691 20.1172ZM475.773 18.916C476.059 18.916 476.326 18.8652 476.576 18.7637C476.826 18.6621 477.055 18.5195 477.262 18.3359C477.473 18.1484 477.66 17.9238 477.824 17.6621C477.992 17.4004 478.133 17.1094 478.246 16.7891C478.363 16.4688 478.453 16.125 478.516 15.7578C478.578 15.3867 478.609 15 478.609 14.5977C478.609 13.9453 478.455 13.4316 478.146 13.0566C477.842 12.6816 477.406 12.4941 476.84 12.4941C476.547 12.4941 476.271 12.5469 476.014 12.6523C475.76 12.7539 475.525 12.9023 475.311 13.0977C475.096 13.2891 474.904 13.5176 474.736 13.7832C474.572 14.0449 474.432 14.3359 474.314 14.6562C474.197 14.9766 474.107 15.3184 474.045 15.6816C473.986 16.041 473.957 16.416 473.957 16.8066C473.957 17.252 474.027 17.6328 474.168 17.9492C474.312 18.2656 474.52 18.5059 474.789 18.6699C475.062 18.834 475.391 18.916 475.773 18.916ZM481.938 20L481.621 11.4336H482.945L483.057 16.4492C483.064 16.7617 483.062 17.0957 483.051 17.4512C483.039 17.8027 483.021 18.1348 482.998 18.4473H483.039C483.148 18.1387 483.273 17.8008 483.414 17.4336C483.559 17.0625 483.701 16.7285 483.842 16.4316L486.139 11.4336H487.434L487.621 16.4258C487.637 16.707 487.645 17.0391 487.645 17.4219C487.645 17.8008 487.639 18.1445 487.627 18.4531H487.668C487.738 18.2422 487.814 18.0195 487.896 17.7852C487.982 17.5508 488.068 17.3184 488.154 17.0879C488.244 16.8535 488.332 16.6348 488.418 16.4316L490.545 11.4336H491.975L488.137 20H486.619L486.432 15.207C486.424 14.9492 486.416 14.7168 486.408 14.5098C486.404 14.2988 486.4 14.1016 486.396 13.918C486.396 13.7344 486.398 13.5527 486.402 13.373H486.361C486.275 13.6504 486.18 13.9219 486.074 14.1875C485.969 14.4492 485.844 14.7383 485.699 15.0547L483.432 20H481.938ZM491.318 20L493.129 11.4336H494.693L497.049 18.1719H497.084C497.111 17.9922 497.146 17.7715 497.189 17.5098C497.232 17.2441 497.281 16.9688 497.336 16.6836C497.391 16.3984 497.443 16.1348 497.494 15.8926L498.443 11.4336H499.715L497.904 20H496.381L493.973 13.1621H493.932C493.92 13.252 493.9 13.3887 493.873 13.5723C493.846 13.752 493.812 13.959 493.773 14.1934C493.738 14.4277 493.699 14.666 493.656 14.9082C493.613 15.1504 493.568 15.375 493.521 15.582L492.59 20H491.318ZM500.078 20L501.889 11.4336H506.453L506.201 12.6172H503.025L502.533 14.9434H505.504L505.258 16.1211H502.287L501.713 18.8105H504.889L504.637 20H500.078ZM506.43 20L508.24 11.4336H510.396C511.443 11.4336 512.258 11.7129 512.84 12.2715C513.422 12.8262 513.713 13.6562 513.713 14.7617C513.713 15.3789 513.643 15.9551 513.502 16.4902C513.365 17.0254 513.162 17.5098 512.893 17.9434C512.623 18.373 512.289 18.7422 511.891 19.0508C511.492 19.3555 511.033 19.5898 510.514 19.7539C509.994 19.918 509.418 20 508.785 20H506.43ZM508.064 18.8223H508.855C509.309 18.8223 509.717 18.7539 510.08 18.6172C510.447 18.4805 510.768 18.2891 511.041 18.043C511.314 17.793 511.543 17.5 511.727 17.1641C511.91 16.8281 512.047 16.4609 512.137 16.0625C512.23 15.6602 512.277 15.2402 512.277 14.8027C512.277 14.041 512.094 13.4844 511.727 13.1328C511.363 12.7773 510.871 12.5996 510.25 12.5996H509.383L508.064 18.8223ZM515.043 20.1582C514.785 20.1582 514.596 20.0898 514.475 19.9531C514.357 19.8164 514.299 19.6484 514.299 19.4492C514.299 19.1797 514.377 18.9375 514.533 18.7227C514.693 18.5078 514.957 18.4004 515.324 18.4004C515.539 18.4004 515.711 18.4629 515.84 18.5879C515.973 18.7129 516.039 18.8906 516.039 19.1211C516.039 19.4023 515.951 19.6465 515.775 19.8535C515.604 20.0566 515.359 20.1582 515.043 20.1582ZM523.961 20L525.771 11.4336H527.16L525.596 18.8047H528.771L528.52 20H523.961ZM528.842 20L533.436 11.4336H535.047L536.02 20H534.66L534.42 17.6152H531.555L530.324 20H528.842ZM532.158 16.4082H534.326L534.133 14.3047C534.113 14.043 534.092 13.7676 534.068 13.4785C534.045 13.1855 534.033 12.9082 534.033 12.6465H533.998C533.9 12.9004 533.787 13.1641 533.658 13.4375C533.529 13.707 533.391 13.9844 533.242 14.2695L532.158 16.4082ZM538.381 20L539.939 12.6289H537.713L537.965 11.4336H543.812L543.566 12.6289H541.334L539.775 20H538.381ZM543.268 20L545.09 11.4336H546.473L544.645 20H543.268ZM546.818 20L548.629 11.4336H550.193L552.549 18.1719H552.584C552.611 17.9922 552.646 17.7715 552.689 17.5098C552.732 17.2441 552.781 16.9688 552.836 16.6836C552.891 16.3984 552.943 16.1348 552.994 15.8926L553.943 11.4336H555.215L553.404 20H551.881L549.473 13.1621H549.432C549.42 13.252 549.4 13.3887 549.373 13.5723C549.346 13.752 549.312 13.959 549.273 14.1934C549.238 14.4277 549.199 14.666 549.156 14.9082C549.113 15.1504 549.068 15.375 549.021 15.582L548.09 20H546.818ZM554.512 20L557.957 15.4941L556.492 11.4336H557.928L558.977 14.6211L561.35 11.4336H562.896L559.674 15.5996L561.279 20H559.785L558.648 16.5254L556.059 20H554.512ZM569.031 20.1172C568.34 20.1172 567.758 19.9824 567.285 19.7129C566.816 19.4395 566.461 19.0547 566.219 18.5586C565.98 18.0625 565.861 17.4824 565.861 16.8184C565.861 16.3496 565.902 15.8906 565.984 15.4414C566.07 14.9883 566.195 14.5566 566.359 14.1465C566.523 13.7363 566.729 13.3574 566.975 13.0098C567.225 12.6621 567.514 12.3613 567.842 12.1074C568.17 11.8496 568.537 11.6504 568.943 11.5098C569.354 11.3691 569.801 11.2988 570.285 11.2988C571.285 11.2988 572.051 11.5938 572.582 12.1836C573.117 12.7734 573.385 13.5742 573.385 14.5859C573.385 15.0547 573.346 15.5176 573.268 15.9746C573.193 16.4277 573.076 16.8613 572.916 17.2754C572.76 17.6855 572.562 18.0645 572.324 18.4121C572.086 18.7559 571.805 19.0547 571.48 19.3086C571.16 19.5625 570.795 19.7617 570.385 19.9062C569.979 20.0469 569.527 20.1172 569.031 20.1172ZM569.113 18.916C569.398 18.916 569.666 18.8652 569.916 18.7637C570.166 18.6621 570.395 18.5195 570.602 18.3359C570.812 18.1484 571 17.9238 571.164 17.6621C571.332 17.4004 571.473 17.1094 571.586 16.7891C571.703 16.4688 571.793 16.125 571.855 15.7578C571.918 15.3867 571.949 15 571.949 14.5977C571.949 13.9453 571.795 13.4316 571.486 13.0566C571.182 12.6816 570.746 12.4941 570.18 12.4941C569.887 12.4941 569.611 12.5469 569.354 12.6523C569.1 12.7539 568.865 12.9023 568.65 13.0977C568.436 13.2891 568.244 13.5176 568.076 13.7832C567.912 14.0449 567.771 14.3359 567.654 14.6562C567.537 14.9766 567.447 15.3184 567.385 15.6816C567.326 16.041 567.297 16.416 567.297 16.8066C567.297 17.252 567.367 17.6328 567.508 17.9492C567.652 18.2656 567.859 18.5059 568.129 18.6699C568.402 18.834 568.73 18.916 569.113 18.916ZM575.277 20L574.961 11.4336H576.285L576.396 16.4492C576.404 16.7617 576.402 17.0957 576.391 17.4512C576.379 17.8027 576.361 18.1348 576.338 18.4473H576.379C576.488 18.1387 576.613 17.8008 576.754 17.4336C576.898 17.0625 577.041 16.7285 577.182 16.4316L579.479 11.4336H580.773L580.961 16.4258C580.977 16.707 580.984 17.0391 580.984 17.4219C580.984 17.8008 580.979 18.1445 580.967 18.4531H581.008C581.078 18.2422 581.154 18.0195 581.236 17.7852C581.322 17.5508 581.408 17.3184 581.494 17.0879C581.584 16.8535 581.672 16.6348 581.758 16.4316L583.885 11.4336H585.314L581.477 20H579.959L579.771 15.207C579.764 14.9492 579.756 14.7168 579.748 14.5098C579.744 14.2988 579.74 14.1016 579.736 13.918C579.736 13.7344 579.738 13.5527 579.742 13.373H579.701C579.615 13.6504 579.52 13.9219 579.414 14.1875C579.309 14.4492 579.184 14.7383 579.039 15.0547L576.771 20H575.277ZM584.658 20L586.469 11.4336H588.033L590.389 18.1719H590.424C590.451 17.9922 590.486 17.7715 590.529 17.5098C590.572 17.2441 590.621 16.9688 590.676 16.6836C590.73 16.3984 590.783 16.1348 590.834 15.8926L591.783 11.4336H593.055L591.244 20H589.721L587.312 13.1621H587.271C587.26 13.252 587.24 13.3887 587.213 13.5723C587.186 13.752 587.152 13.959 587.113 14.1934C587.078 14.4277 587.039 14.666 586.996 14.9082C586.953 15.1504 586.908 15.375 586.861 15.582L585.93 20H584.658ZM593.418 20L595.229 11.4336H599.793L599.541 12.6172H596.365L595.873 14.9434H598.844L598.598 16.1211H595.627L595.053 18.8105H598.229L597.977 20H593.418ZM599.77 20L601.58 11.4336H603.736C604.783 11.4336 605.598 11.7129 606.18 12.2715C606.762 12.8262 607.053 13.6562 607.053 14.7617C607.053 15.3789 606.982 15.9551 606.842 16.4902C606.705 17.0254 606.502 17.5098 606.232 17.9434C605.963 18.373 605.629 18.7422 605.23 19.0508C604.832 19.3555 604.373 19.5898 603.854 19.7539C603.334 19.918 602.758 20 602.125 20H599.77ZM601.404 18.8223H602.195C602.648 18.8223 603.057 18.7539 603.42 18.6172C603.787 18.4805 604.107 18.2891 604.381 18.043C604.654 17.793 604.883 17.5 605.066 17.1641C605.25 16.8281 605.387 16.4609 605.477 16.0625C605.57 15.6602 605.617 15.2402 605.617 14.8027C605.617 14.041 605.434 13.4844 605.066 13.1328C604.703 12.7773 604.211 12.5996 603.59 12.5996H602.723L601.404 18.8223ZM608.383 20.1582C608.125 20.1582 607.936 20.0898 607.814 19.9531C607.697 19.8164 607.639 19.6484 607.639 19.4492C607.639 19.1797 607.717 18.9375 607.873 18.7227C608.033 18.5078 608.297 18.4004 608.664 18.4004C608.879 18.4004 609.051 18.4629 609.18 18.5879C609.312 18.7129 609.379 18.8906 609.379 19.1211C609.379 19.4023 609.291 19.6465 609.115 19.8535C608.943 20.0566 608.699 20.1582 608.383 20.1582ZM617.301 20L619.111 11.4336H620.5L618.936 18.8047H622.111L621.859 20H617.301ZM626.875 20.1172C625.871 20.1172 625.088 19.834 624.525 19.2676C623.963 18.6973 623.682 17.8848 623.682 16.8301C623.682 16.2246 623.752 15.6465 623.893 15.0957C624.033 14.541 624.238 14.0332 624.508 13.5723C624.777 13.1113 625.107 12.7109 625.498 12.3711C625.893 12.0312 626.34 11.7695 626.84 11.5859C627.344 11.3984 627.896 11.3047 628.498 11.3047C628.975 11.3047 629.406 11.3516 629.793 11.4453C630.184 11.5352 630.564 11.668 630.936 11.8438L630.408 13.0156C630.115 12.8672 629.809 12.7461 629.488 12.6523C629.168 12.5586 628.822 12.5117 628.451 12.5117C627.936 12.5117 627.473 12.625 627.062 12.8516C626.652 13.0742 626.301 13.3809 626.008 13.7715C625.719 14.1621 625.498 14.6113 625.346 15.1191C625.193 15.627 625.117 16.1641 625.117 16.7305C625.117 17.1758 625.188 17.5625 625.328 17.8906C625.469 18.2188 625.688 18.4727 625.984 18.6523C626.281 18.8281 626.658 18.916 627.115 18.916C627.373 18.916 627.605 18.8984 627.812 18.8633C628.023 18.8242 628.219 18.7793 628.398 18.7285L628.879 16.543H627.215L627.473 15.3535H630.496L629.57 19.6602C629.195 19.793 628.795 19.9023 628.369 19.9883C627.947 20.0742 627.449 20.1172 626.875 20.1172ZM632.811 20L634.369 12.6289H632.143L632.395 11.4336H638.242L637.996 12.6289H635.764L634.205 20H632.811ZM637.703 20L639.514 11.4336H641.869C642.408 11.4336 642.873 11.5 643.264 11.6328C643.654 11.7656 643.955 11.9727 644.166 12.2539C644.381 12.5352 644.488 12.9023 644.488 13.3555C644.488 13.7422 644.41 14.0859 644.254 14.3867C644.102 14.6836 643.883 14.9297 643.598 15.125C643.316 15.3164 642.979 15.4512 642.584 15.5293V15.582C642.979 15.6875 643.299 15.8828 643.545 16.168C643.791 16.4492 643.914 16.8164 643.914 17.2695C643.914 17.8867 643.768 18.3984 643.475 18.8047C643.186 19.207 642.789 19.5078 642.285 19.707C641.785 19.9023 641.215 20 640.574 20H637.703ZM639.338 18.8223H640.65C641.025 18.8223 641.35 18.7637 641.623 18.6465C641.9 18.5293 642.113 18.3555 642.262 18.125C642.414 17.8945 642.49 17.6113 642.49 17.2754C642.49 16.9199 642.379 16.6348 642.156 16.4199C641.938 16.2051 641.586 16.0977 641.102 16.0977H639.918L639.338 18.8223ZM640.152 14.9668H641.324C641.656 14.9668 641.951 14.9199 642.209 14.8262C642.471 14.7285 642.676 14.5801 642.824 14.3809C642.977 14.1777 643.053 13.9199 643.053 13.6074C643.053 13.2793 642.947 13.0293 642.736 12.8574C642.529 12.6855 642.197 12.5996 641.74 12.5996H640.656L640.152 14.9668ZM649.92 22.0391L648.754 20.1113C648.723 20.1113 648.693 20.1113 648.666 20.1113C648.639 20.1152 648.611 20.1172 648.584 20.1172C647.893 20.1133 647.312 19.9766 646.844 19.707C646.375 19.4375 646.02 19.0566 645.777 18.5645C645.539 18.0684 645.42 17.4863 645.42 16.8184C645.42 16.3496 645.461 15.8906 645.543 15.4414C645.629 14.9883 645.754 14.5566 645.918 14.1465C646.082 13.7363 646.287 13.3574 646.533 13.0098C646.783 12.6621 647.072 12.3613 647.4 12.1074C647.729 11.8496 648.096 11.6504 648.502 11.5098C648.912 11.3691 649.359 11.2988 649.844 11.2988C650.844 11.2988 651.609 11.5938 652.141 12.1836C652.676 12.7734 652.943 13.5742 652.943 14.5859C652.943 15.0469 652.904 15.5 652.826 15.9453C652.752 16.3906 652.639 16.8164 652.486 17.2227C652.334 17.625 652.143 17.998 651.912 18.3418C651.682 18.6816 651.412 18.9805 651.104 19.2383C650.799 19.4922 650.455 19.6914 650.072 19.8359L651.607 22.0391H649.92ZM648.672 18.916C648.961 18.916 649.23 18.8652 649.48 18.7637C649.73 18.6621 649.961 18.5195 650.172 18.3359C650.383 18.1484 650.57 17.9238 650.734 17.6621C650.898 17.4004 651.037 17.1094 651.15 16.7891C651.268 16.4688 651.355 16.125 651.414 15.7578C651.477 15.3867 651.508 15 651.508 14.5977C651.508 13.9453 651.354 13.4316 651.045 13.0566C650.74 12.6816 650.305 12.4941 649.738 12.4941C649.445 12.4941 649.17 12.5469 648.912 12.6523C648.658 12.7539 648.424 12.9023 648.209 13.0977C647.994 13.2891 647.803 13.5176 647.635 13.7832C647.471 14.0449 647.33 14.3359 647.213 14.6562C647.096 14.9766 647.006 15.3184 646.943 15.6816C646.885 16.041 646.855 16.416 646.855 16.8066C646.855 17.252 646.926 17.6328 647.066 17.9492C647.211 18.2656 647.418 18.5059 647.688 18.6699C647.961 18.834 648.289 18.916 648.672 18.916ZM657.449 15.248H659.793V16.291H657.449V18.6582H656.406V16.291H654.068V15.248H656.406V12.8574H657.449V15.248ZM667.281 20.1172C666.59 20.1172 666.008 19.9824 665.535 19.7129C665.066 19.4395 664.711 19.0547 664.469 18.5586C664.23 18.0625 664.111 17.4824 664.111 16.8184C664.111 16.3496 664.152 15.8906 664.234 15.4414C664.32 14.9883 664.445 14.5566 664.609 14.1465C664.773 13.7363 664.979 13.3574 665.225 13.0098C665.475 12.6621 665.764 12.3613 666.092 12.1074C666.42 11.8496 666.787 11.6504 667.193 11.5098C667.604 11.3691 668.051 11.2988 668.535 11.2988C669.535 11.2988 670.301 11.5938 670.832 12.1836C671.367 12.7734 671.635 13.5742 671.635 14.5859C671.635 15.0547 671.596 15.5176 671.518 15.9746C671.443 16.4277 671.326 16.8613 671.166 17.2754C671.01 17.6855 670.812 18.0645 670.574 18.4121C670.336 18.7559 670.055 19.0547 669.73 19.3086C669.41 19.5625 669.045 19.7617 668.635 19.9062C668.229 20.0469 667.777 20.1172 667.281 20.1172ZM667.363 18.916C667.648 18.916 667.916 18.8652 668.166 18.7637C668.416 18.6621 668.645 18.5195 668.852 18.3359C669.062 18.1484 669.25 17.9238 669.414 17.6621C669.582 17.4004 669.723 17.1094 669.836 16.7891C669.953 16.4688 670.043 16.125 670.105 15.7578C670.168 15.3867 670.199 15 670.199 14.5977C670.199 13.9453 670.045 13.4316 669.736 13.0566C669.432 12.6816 668.996 12.4941 668.43 12.4941C668.137 12.4941 667.861 12.5469 667.604 12.6523C667.35 12.7539 667.115 12.9023 666.9 13.0977C666.686 13.2891 666.494 13.5176 666.326 13.7832C666.162 14.0449 666.021 14.3359 665.904 14.6562C665.787 14.9766 665.697 15.3184 665.635 15.6816C665.576 16.041 665.547 16.416 665.547 16.8066C665.547 17.252 665.617 17.6328 665.758 17.9492C665.902 18.2656 666.109 18.5059 666.379 18.6699C666.652 18.834 666.98 18.916 667.363 18.916ZM673.527 20L673.211 11.4336H674.535L674.646 16.4492C674.654 16.7617 674.652 17.0957 674.641 17.4512C674.629 17.8027 674.611 18.1348 674.588 18.4473H674.629C674.738 18.1387 674.863 17.8008 675.004 17.4336C675.148 17.0625 675.291 16.7285 675.432 16.4316L677.729 11.4336H679.023L679.211 16.4258C679.227 16.707 679.234 17.0391 679.234 17.4219C679.234 17.8008 679.229 18.1445 679.217 18.4531H679.258C679.328 18.2422 679.404 18.0195 679.486 17.7852C679.572 17.5508 679.658 17.3184 679.744 17.0879C679.834 16.8535 679.922 16.6348 680.008 16.4316L682.135 11.4336H683.564L679.727 20H678.209L678.021 15.207C678.014 14.9492 678.006 14.7168 677.998 14.5098C677.994 14.2988 677.99 14.1016 677.986 13.918C677.986 13.7344 677.988 13.5527 677.992 13.373H677.951C677.865 13.6504 677.77 13.9219 677.664 14.1875C677.559 14.4492 677.434 14.7383 677.289 15.0547L675.021 20H673.527ZM682.908 20L684.719 11.4336H686.283L688.639 18.1719H688.674C688.701 17.9922 688.736 17.7715 688.779 17.5098C688.822 17.2441 688.871 16.9688 688.926 16.6836C688.98 16.3984 689.033 16.1348 689.084 15.8926L690.033 11.4336H691.305L689.494 20H687.971L685.562 13.1621H685.521C685.51 13.252 685.49 13.3887 685.463 13.5723C685.436 13.752 685.402 13.959 685.363 14.1934C685.328 14.4277 685.289 14.666 685.246 14.9082C685.203 15.1504 685.158 15.375 685.111 15.582L684.18 20H682.908ZM691.668 20L693.479 11.4336H698.043L697.791 12.6172H694.615L694.123 14.9434H697.094L696.848 16.1211H693.877L693.303 18.8105H696.479L696.227 20H691.668ZM698.02 20L699.83 11.4336H701.986C703.033 11.4336 703.848 11.7129 704.43 12.2715C705.012 12.8262 705.303 13.6562 705.303 14.7617C705.303 15.3789 705.232 15.9551 705.092 16.4902C704.955 17.0254 704.752 17.5098 704.482 17.9434C704.213 18.373 703.879 18.7422 703.48 19.0508C703.082 19.3555 702.623 19.5898 702.104 19.7539C701.584 19.918 701.008 20 700.375 20H698.02ZM699.654 18.8223H700.445C700.898 18.8223 701.307 18.7539 701.67 18.6172C702.037 18.4805 702.357 18.2891 702.631 18.043C702.904 17.793 703.133 17.5 703.316 17.1641C703.5 16.8281 703.637 16.4609 703.727 16.0625C703.82 15.6602 703.867 15.2402 703.867 14.8027C703.867 14.041 703.684 13.4844 703.316 13.1328C702.953 12.7773 702.461 12.5996 701.84 12.5996H700.973L699.654 18.8223Z" fill="white"/>
<defs>
<linearGradient id="paint0_linear_1241_3356" x1="1127" y1="31.0002" x2="14.5" y2="30.9996" gradientUnits="userSpaceOnUse">
<stop stop-color="#C2157D" stop-opacity="0"/>
<stop offset="0.523958" stop-color="#A01706"/>
<stop offset="1" stop-color="#C2157D" stop-opacity="0"/>
</linearGradient>
</defs>
</svg>
