<svg width="768" height="31" viewBox="0 0 768 31" fill="none" xmlns="http://www.w3.org/2000/svg">
<rect width="768" height="31" fill="url(#paint0_linear_1241_3362)"/>
<path d="M245.512 20L245.195 11.4336H246.52L246.631 16.4492C246.639 16.7617 246.637 17.0957 246.625 17.4512C246.613 17.8027 246.596 18.1348 246.572 18.4473H246.613C246.723 18.1387 246.848 17.8008 246.988 17.4336C247.133 17.0625 247.275 16.7285 247.416 16.4316L249.713 11.4336H251.008L251.195 16.4258C251.211 16.707 251.219 17.0391 251.219 17.4219C251.219 17.8008 251.213 18.1445 251.201 18.4531H251.242C251.312 18.2422 251.389 18.0195 251.471 17.7852C251.557 17.5508 251.643 17.3184 251.729 17.0879C251.818 16.8535 251.906 16.6348 251.992 16.4316L254.119 11.4336H255.549L251.711 20H250.193L250.006 15.207C249.998 14.9492 249.99 14.7168 249.982 14.5098C249.979 14.2988 249.975 14.1016 249.971 13.918C249.971 13.7344 249.973 13.5527 249.977 13.373H249.936C249.85 13.6504 249.754 13.9219 249.648 14.1875C249.543 14.4492 249.418 14.7383 249.273 15.0547L247.006 20H245.512ZM258.461 20.1172C257.77 20.1172 257.188 19.9824 256.715 19.7129C256.246 19.4395 255.891 19.0547 255.648 18.5586C255.41 18.0625 255.291 17.4824 255.291 16.8184C255.291 16.3496 255.332 15.8906 255.414 15.4414C255.5 14.9883 255.625 14.5566 255.789 14.1465C255.953 13.7363 256.158 13.3574 256.404 13.0098C256.654 12.6621 256.943 12.3613 257.271 12.1074C257.6 11.8496 257.967 11.6504 258.373 11.5098C258.783 11.3691 259.23 11.2988 259.715 11.2988C260.715 11.2988 261.48 11.5938 262.012 12.1836C262.547 12.7734 262.814 13.5742 262.814 14.5859C262.814 15.0547 262.775 15.5176 262.697 15.9746C262.623 16.4277 262.506 16.8613 262.346 17.2754C262.189 17.6855 261.992 18.0645 261.754 18.4121C261.516 18.7559 261.234 19.0547 260.91 19.3086C260.59 19.5625 260.225 19.7617 259.814 19.9062C259.408 20.0469 258.957 20.1172 258.461 20.1172ZM258.543 18.916C258.828 18.916 259.096 18.8652 259.346 18.7637C259.596 18.6621 259.824 18.5195 260.031 18.3359C260.242 18.1484 260.43 17.9238 260.594 17.6621C260.762 17.4004 260.902 17.1094 261.016 16.7891C261.133 16.4688 261.223 16.125 261.285 15.7578C261.348 15.3867 261.379 15 261.379 14.5977C261.379 13.9453 261.225 13.4316 260.916 13.0566C260.611 12.6816 260.176 12.4941 259.609 12.4941C259.316 12.4941 259.041 12.5469 258.783 12.6523C258.529 12.7539 258.295 12.9023 258.08 13.0977C257.865 13.2891 257.674 13.5176 257.506 13.7832C257.342 14.0449 257.201 14.3359 257.084 14.6562C256.967 14.9766 256.877 15.3184 256.814 15.6816C256.756 16.041 256.727 16.416 256.727 16.8066C256.727 17.252 256.797 17.6328 256.938 17.9492C257.082 18.2656 257.289 18.5059 257.559 18.6699C257.832 18.834 258.16 18.916 258.543 18.916ZM263.6 20L265.41 11.4336H267.291L267.93 18.1895H267.977L271.545 11.4336H273.543L271.744 20H270.426L271.416 15.3125C271.479 15.0156 271.545 14.7207 271.615 14.4277C271.686 14.1309 271.754 13.8496 271.82 13.584C271.891 13.3184 271.953 13.0859 272.008 12.8867H271.967L268.193 20H266.98L266.312 12.8867H266.266C266.25 13.0547 266.221 13.2734 266.178 13.543C266.135 13.8125 266.086 14.1035 266.031 14.416C265.977 14.7246 265.918 15.0254 265.855 15.3184L264.871 20H263.6ZM273.906 20L275.717 11.4336H280.281L280.029 12.6172H276.854L276.361 14.9434H279.332L279.086 16.1211H276.115L275.541 18.8105H278.717L278.465 20H273.906ZM280.252 20L282.062 11.4336H283.627L285.982 18.1719H286.018C286.045 17.9922 286.08 17.7715 286.123 17.5098C286.166 17.2441 286.215 16.9688 286.27 16.6836C286.324 16.3984 286.377 16.1348 286.428 15.8926L287.377 11.4336H288.648L286.838 20H285.314L282.906 13.1621H282.865C282.854 13.252 282.834 13.3887 282.807 13.5723C282.779 13.752 282.746 13.959 282.707 14.1934C282.672 14.4277 282.633 14.666 282.59 14.9082C282.547 15.1504 282.502 15.375 282.455 15.582L281.523 20H280.252ZM295.691 20.1172C295 20.1172 294.418 19.9824 293.945 19.7129C293.477 19.4395 293.121 19.0547 292.879 18.5586C292.641 18.0625 292.521 17.4824 292.521 16.8184C292.521 16.3496 292.562 15.8906 292.645 15.4414C292.73 14.9883 292.855 14.5566 293.02 14.1465C293.184 13.7363 293.389 13.3574 293.635 13.0098C293.885 12.6621 294.174 12.3613 294.502 12.1074C294.83 11.8496 295.197 11.6504 295.604 11.5098C296.014 11.3691 296.461 11.2988 296.945 11.2988C297.945 11.2988 298.711 11.5938 299.242 12.1836C299.777 12.7734 300.045 13.5742 300.045 14.5859C300.045 15.0547 300.006 15.5176 299.928 15.9746C299.854 16.4277 299.736 16.8613 299.576 17.2754C299.42 17.6855 299.223 18.0645 298.984 18.4121C298.746 18.7559 298.465 19.0547 298.141 19.3086C297.82 19.5625 297.455 19.7617 297.045 19.9062C296.639 20.0469 296.188 20.1172 295.691 20.1172ZM295.773 18.916C296.059 18.916 296.326 18.8652 296.576 18.7637C296.826 18.6621 297.055 18.5195 297.262 18.3359C297.473 18.1484 297.66 17.9238 297.824 17.6621C297.992 17.4004 298.133 17.1094 298.246 16.7891C298.363 16.4688 298.453 16.125 298.516 15.7578C298.578 15.3867 298.609 15 298.609 14.5977C298.609 13.9453 298.455 13.4316 298.146 13.0566C297.842 12.6816 297.406 12.4941 296.84 12.4941C296.547 12.4941 296.271 12.5469 296.014 12.6523C295.76 12.7539 295.525 12.9023 295.311 13.0977C295.096 13.2891 294.904 13.5176 294.736 13.7832C294.572 14.0449 294.432 14.3359 294.314 14.6562C294.197 14.9766 294.107 15.3184 294.045 15.6816C293.986 16.041 293.957 16.416 293.957 16.8066C293.957 17.252 294.027 17.6328 294.168 17.9492C294.312 18.2656 294.52 18.5059 294.789 18.6699C295.062 18.834 295.391 18.916 295.773 18.916ZM301.938 20L301.621 11.4336H302.945L303.057 16.4492C303.064 16.7617 303.062 17.0957 303.051 17.4512C303.039 17.8027 303.021 18.1348 302.998 18.4473H303.039C303.148 18.1387 303.273 17.8008 303.414 17.4336C303.559 17.0625 303.701 16.7285 303.842 16.4316L306.139 11.4336H307.434L307.621 16.4258C307.637 16.707 307.645 17.0391 307.645 17.4219C307.645 17.8008 307.639 18.1445 307.627 18.4531H307.668C307.738 18.2422 307.814 18.0195 307.896 17.7852C307.982 17.5508 308.068 17.3184 308.154 17.0879C308.244 16.8535 308.332 16.6348 308.418 16.4316L310.545 11.4336H311.975L308.137 20H306.619L306.432 15.207C306.424 14.9492 306.416 14.7168 306.408 14.5098C306.404 14.2988 306.4 14.1016 306.396 13.918C306.396 13.7344 306.398 13.5527 306.402 13.373H306.361C306.275 13.6504 306.18 13.9219 306.074 14.1875C305.969 14.4492 305.844 14.7383 305.699 15.0547L303.432 20H301.938ZM311.318 20L313.129 11.4336H314.693L317.049 18.1719H317.084C317.111 17.9922 317.146 17.7715 317.189 17.5098C317.232 17.2441 317.281 16.9688 317.336 16.6836C317.391 16.3984 317.443 16.1348 317.494 15.8926L318.443 11.4336H319.715L317.904 20H316.381L313.973 13.1621H313.932C313.92 13.252 313.9 13.3887 313.873 13.5723C313.846 13.752 313.812 13.959 313.773 14.1934C313.738 14.4277 313.699 14.666 313.656 14.9082C313.613 15.1504 313.568 15.375 313.521 15.582L312.59 20H311.318ZM320.078 20L321.889 11.4336H326.453L326.201 12.6172H323.025L322.533 14.9434H325.504L325.258 16.1211H322.287L321.713 18.8105H324.889L324.637 20H320.078ZM326.43 20L328.24 11.4336H330.396C331.443 11.4336 332.258 11.7129 332.84 12.2715C333.422 12.8262 333.713 13.6562 333.713 14.7617C333.713 15.3789 333.643 15.9551 333.502 16.4902C333.365 17.0254 333.162 17.5098 332.893 17.9434C332.623 18.373 332.289 18.7422 331.891 19.0508C331.492 19.3555 331.033 19.5898 330.514 19.7539C329.994 19.918 329.418 20 328.785 20H326.43ZM328.064 18.8223H328.855C329.309 18.8223 329.717 18.7539 330.08 18.6172C330.447 18.4805 330.768 18.2891 331.041 18.043C331.314 17.793 331.543 17.5 331.727 17.1641C331.91 16.8281 332.047 16.4609 332.137 16.0625C332.23 15.6602 332.277 15.2402 332.277 14.8027C332.277 14.041 332.094 13.4844 331.727 13.1328C331.363 12.7773 330.871 12.5996 330.25 12.5996H329.383L328.064 18.8223ZM335.043 20.1582C334.785 20.1582 334.596 20.0898 334.475 19.9531C334.357 19.8164 334.299 19.6484 334.299 19.4492C334.299 19.1797 334.377 18.9375 334.533 18.7227C334.693 18.5078 334.957 18.4004 335.324 18.4004C335.539 18.4004 335.711 18.4629 335.84 18.5879C335.973 18.7129 336.039 18.8906 336.039 19.1211C336.039 19.4023 335.951 19.6465 335.775 19.8535C335.604 20.0566 335.359 20.1582 335.043 20.1582ZM343.961 20L345.771 11.4336H347.16L345.596 18.8047H348.771L348.52 20H343.961ZM348.842 20L353.436 11.4336H355.047L356.02 20H354.66L354.42 17.6152H351.555L350.324 20H348.842ZM352.158 16.4082H354.326L354.133 14.3047C354.113 14.043 354.092 13.7676 354.068 13.4785C354.045 13.1855 354.033 12.9082 354.033 12.6465H353.998C353.9 12.9004 353.787 13.1641 353.658 13.4375C353.529 13.707 353.391 13.9844 353.242 14.2695L352.158 16.4082ZM358.381 20L359.939 12.6289H357.713L357.965 11.4336H363.812L363.566 12.6289H361.334L359.775 20H358.381ZM363.268 20L365.09 11.4336H366.473L364.645 20H363.268ZM366.818 20L368.629 11.4336H370.193L372.549 18.1719H372.584C372.611 17.9922 372.646 17.7715 372.689 17.5098C372.732 17.2441 372.781 16.9688 372.836 16.6836C372.891 16.3984 372.943 16.1348 372.994 15.8926L373.943 11.4336H375.215L373.404 20H371.881L369.473 13.1621H369.432C369.42 13.252 369.4 13.3887 369.373 13.5723C369.346 13.752 369.312 13.959 369.273 14.1934C369.238 14.4277 369.199 14.666 369.156 14.9082C369.113 15.1504 369.068 15.375 369.021 15.582L368.09 20H366.818ZM374.512 20L377.957 15.4941L376.492 11.4336H377.928L378.977 14.6211L381.35 11.4336H382.896L379.674 15.5996L381.279 20H379.785L378.648 16.5254L376.059 20H374.512ZM389.031 20.1172C388.34 20.1172 387.758 19.9824 387.285 19.7129C386.816 19.4395 386.461 19.0547 386.219 18.5586C385.98 18.0625 385.861 17.4824 385.861 16.8184C385.861 16.3496 385.902 15.8906 385.984 15.4414C386.07 14.9883 386.195 14.5566 386.359 14.1465C386.523 13.7363 386.729 13.3574 386.975 13.0098C387.225 12.6621 387.514 12.3613 387.842 12.1074C388.17 11.8496 388.537 11.6504 388.943 11.5098C389.354 11.3691 389.801 11.2988 390.285 11.2988C391.285 11.2988 392.051 11.5938 392.582 12.1836C393.117 12.7734 393.385 13.5742 393.385 14.5859C393.385 15.0547 393.346 15.5176 393.268 15.9746C393.193 16.4277 393.076 16.8613 392.916 17.2754C392.76 17.6855 392.562 18.0645 392.324 18.4121C392.086 18.7559 391.805 19.0547 391.48 19.3086C391.16 19.5625 390.795 19.7617 390.385 19.9062C389.979 20.0469 389.527 20.1172 389.031 20.1172ZM389.113 18.916C389.398 18.916 389.666 18.8652 389.916 18.7637C390.166 18.6621 390.395 18.5195 390.602 18.3359C390.812 18.1484 391 17.9238 391.164 17.6621C391.332 17.4004 391.473 17.1094 391.586 16.7891C391.703 16.4688 391.793 16.125 391.855 15.7578C391.918 15.3867 391.949 15 391.949 14.5977C391.949 13.9453 391.795 13.4316 391.486 13.0566C391.182 12.6816 390.746 12.4941 390.18 12.4941C389.887 12.4941 389.611 12.5469 389.354 12.6523C389.1 12.7539 388.865 12.9023 388.65 13.0977C388.436 13.2891 388.244 13.5176 388.076 13.7832C387.912 14.0449 387.771 14.3359 387.654 14.6562C387.537 14.9766 387.447 15.3184 387.385 15.6816C387.326 16.041 387.297 16.416 387.297 16.8066C387.297 17.252 387.367 17.6328 387.508 17.9492C387.652 18.2656 387.859 18.5059 388.129 18.6699C388.402 18.834 388.73 18.916 389.113 18.916ZM395.277 20L394.961 11.4336H396.285L396.396 16.4492C396.404 16.7617 396.402 17.0957 396.391 17.4512C396.379 17.8027 396.361 18.1348 396.338 18.4473H396.379C396.488 18.1387 396.613 17.8008 396.754 17.4336C396.898 17.0625 397.041 16.7285 397.182 16.4316L399.479 11.4336H400.773L400.961 16.4258C400.977 16.707 400.984 17.0391 400.984 17.4219C400.984 17.8008 400.979 18.1445 400.967 18.4531H401.008C401.078 18.2422 401.154 18.0195 401.236 17.7852C401.322 17.5508 401.408 17.3184 401.494 17.0879C401.584 16.8535 401.672 16.6348 401.758 16.4316L403.885 11.4336H405.314L401.477 20H399.959L399.771 15.207C399.764 14.9492 399.756 14.7168 399.748 14.5098C399.744 14.2988 399.74 14.1016 399.736 13.918C399.736 13.7344 399.738 13.5527 399.742 13.373H399.701C399.615 13.6504 399.52 13.9219 399.414 14.1875C399.309 14.4492 399.184 14.7383 399.039 15.0547L396.771 20H395.277ZM404.658 20L406.469 11.4336H408.033L410.389 18.1719H410.424C410.451 17.9922 410.486 17.7715 410.529 17.5098C410.572 17.2441 410.621 16.9688 410.676 16.6836C410.73 16.3984 410.783 16.1348 410.834 15.8926L411.783 11.4336H413.055L411.244 20H409.721L407.312 13.1621H407.271C407.26 13.252 407.24 13.3887 407.213 13.5723C407.186 13.752 407.152 13.959 407.113 14.1934C407.078 14.4277 407.039 14.666 406.996 14.9082C406.953 15.1504 406.908 15.375 406.861 15.582L405.93 20H404.658ZM413.418 20L415.229 11.4336H419.793L419.541 12.6172H416.365L415.873 14.9434H418.844L418.598 16.1211H415.627L415.053 18.8105H418.229L417.977 20H413.418ZM419.77 20L421.58 11.4336H423.736C424.783 11.4336 425.598 11.7129 426.18 12.2715C426.762 12.8262 427.053 13.6562 427.053 14.7617C427.053 15.3789 426.982 15.9551 426.842 16.4902C426.705 17.0254 426.502 17.5098 426.232 17.9434C425.963 18.373 425.629 18.7422 425.23 19.0508C424.832 19.3555 424.373 19.5898 423.854 19.7539C423.334 19.918 422.758 20 422.125 20H419.77ZM421.404 18.8223H422.195C422.648 18.8223 423.057 18.7539 423.42 18.6172C423.787 18.4805 424.107 18.2891 424.381 18.043C424.654 17.793 424.883 17.5 425.066 17.1641C425.25 16.8281 425.387 16.4609 425.477 16.0625C425.57 15.6602 425.617 15.2402 425.617 14.8027C425.617 14.041 425.434 13.4844 425.066 13.1328C424.703 12.7773 424.211 12.5996 423.59 12.5996H422.723L421.404 18.8223ZM428.383 20.1582C428.125 20.1582 427.936 20.0898 427.814 19.9531C427.697 19.8164 427.639 19.6484 427.639 19.4492C427.639 19.1797 427.717 18.9375 427.873 18.7227C428.033 18.5078 428.297 18.4004 428.664 18.4004C428.879 18.4004 429.051 18.4629 429.18 18.5879C429.312 18.7129 429.379 18.8906 429.379 19.1211C429.379 19.4023 429.291 19.6465 429.115 19.8535C428.943 20.0566 428.699 20.1582 428.383 20.1582ZM437.301 20L439.111 11.4336H440.5L438.936 18.8047H442.111L441.859 20H437.301ZM446.875 20.1172C445.871 20.1172 445.088 19.834 444.525 19.2676C443.963 18.6973 443.682 17.8848 443.682 16.8301C443.682 16.2246 443.752 15.6465 443.893 15.0957C444.033 14.541 444.238 14.0332 444.508 13.5723C444.777 13.1113 445.107 12.7109 445.498 12.3711C445.893 12.0312 446.34 11.7695 446.84 11.5859C447.344 11.3984 447.896 11.3047 448.498 11.3047C448.975 11.3047 449.406 11.3516 449.793 11.4453C450.184 11.5352 450.564 11.668 450.936 11.8438L450.408 13.0156C450.115 12.8672 449.809 12.7461 449.488 12.6523C449.168 12.5586 448.822 12.5117 448.451 12.5117C447.936 12.5117 447.473 12.625 447.062 12.8516C446.652 13.0742 446.301 13.3809 446.008 13.7715C445.719 14.1621 445.498 14.6113 445.346 15.1191C445.193 15.627 445.117 16.1641 445.117 16.7305C445.117 17.1758 445.188 17.5625 445.328 17.8906C445.469 18.2188 445.688 18.4727 445.984 18.6523C446.281 18.8281 446.658 18.916 447.115 18.916C447.373 18.916 447.605 18.8984 447.812 18.8633C448.023 18.8242 448.219 18.7793 448.398 18.7285L448.879 16.543H447.215L447.473 15.3535H450.496L449.57 19.6602C449.195 19.793 448.795 19.9023 448.369 19.9883C447.947 20.0742 447.449 20.1172 446.875 20.1172ZM452.811 20L454.369 12.6289H452.143L452.395 11.4336H458.242L457.996 12.6289H455.764L454.205 20H452.811ZM457.703 20L459.514 11.4336H461.869C462.408 11.4336 462.873 11.5 463.264 11.6328C463.654 11.7656 463.955 11.9727 464.166 12.2539C464.381 12.5352 464.488 12.9023 464.488 13.3555C464.488 13.7422 464.41 14.0859 464.254 14.3867C464.102 14.6836 463.883 14.9297 463.598 15.125C463.316 15.3164 462.979 15.4512 462.584 15.5293V15.582C462.979 15.6875 463.299 15.8828 463.545 16.168C463.791 16.4492 463.914 16.8164 463.914 17.2695C463.914 17.8867 463.768 18.3984 463.475 18.8047C463.186 19.207 462.789 19.5078 462.285 19.707C461.785 19.9023 461.215 20 460.574 20H457.703ZM459.338 18.8223H460.65C461.025 18.8223 461.35 18.7637 461.623 18.6465C461.9 18.5293 462.113 18.3555 462.262 18.125C462.414 17.8945 462.49 17.6113 462.49 17.2754C462.49 16.9199 462.379 16.6348 462.156 16.4199C461.938 16.2051 461.586 16.0977 461.102 16.0977H459.918L459.338 18.8223ZM460.152 14.9668H461.324C461.656 14.9668 461.951 14.9199 462.209 14.8262C462.471 14.7285 462.676 14.5801 462.824 14.3809C462.977 14.1777 463.053 13.9199 463.053 13.6074C463.053 13.2793 462.947 13.0293 462.736 12.8574C462.529 12.6855 462.197 12.5996 461.74 12.5996H460.656L460.152 14.9668ZM469.92 22.0391L468.754 20.1113C468.723 20.1113 468.693 20.1113 468.666 20.1113C468.639 20.1152 468.611 20.1172 468.584 20.1172C467.893 20.1133 467.312 19.9766 466.844 19.707C466.375 19.4375 466.02 19.0566 465.777 18.5645C465.539 18.0684 465.42 17.4863 465.42 16.8184C465.42 16.3496 465.461 15.8906 465.543 15.4414C465.629 14.9883 465.754 14.5566 465.918 14.1465C466.082 13.7363 466.287 13.3574 466.533 13.0098C466.783 12.6621 467.072 12.3613 467.4 12.1074C467.729 11.8496 468.096 11.6504 468.502 11.5098C468.912 11.3691 469.359 11.2988 469.844 11.2988C470.844 11.2988 471.609 11.5938 472.141 12.1836C472.676 12.7734 472.943 13.5742 472.943 14.5859C472.943 15.0469 472.904 15.5 472.826 15.9453C472.752 16.3906 472.639 16.8164 472.486 17.2227C472.334 17.625 472.143 17.998 471.912 18.3418C471.682 18.6816 471.412 18.9805 471.104 19.2383C470.799 19.4922 470.455 19.6914 470.072 19.8359L471.607 22.0391H469.92ZM468.672 18.916C468.961 18.916 469.23 18.8652 469.48 18.7637C469.73 18.6621 469.961 18.5195 470.172 18.3359C470.383 18.1484 470.57 17.9238 470.734 17.6621C470.898 17.4004 471.037 17.1094 471.15 16.7891C471.268 16.4688 471.355 16.125 471.414 15.7578C471.477 15.3867 471.508 15 471.508 14.5977C471.508 13.9453 471.354 13.4316 471.045 13.0566C470.74 12.6816 470.305 12.4941 469.738 12.4941C469.445 12.4941 469.17 12.5469 468.912 12.6523C468.658 12.7539 468.424 12.9023 468.209 13.0977C467.994 13.2891 467.803 13.5176 467.635 13.7832C467.471 14.0449 467.33 14.3359 467.213 14.6562C467.096 14.9766 467.006 15.3184 466.943 15.6816C466.885 16.041 466.855 16.416 466.855 16.8066C466.855 17.252 466.926 17.6328 467.066 17.9492C467.211 18.2656 467.418 18.5059 467.688 18.6699C467.961 18.834 468.289 18.916 468.672 18.916ZM477.449 15.248H479.793V16.291H477.449V18.6582H476.406V16.291H474.068V15.248H476.406V12.8574H477.449V15.248ZM487.281 20.1172C486.59 20.1172 486.008 19.9824 485.535 19.7129C485.066 19.4395 484.711 19.0547 484.469 18.5586C484.23 18.0625 484.111 17.4824 484.111 16.8184C484.111 16.3496 484.152 15.8906 484.234 15.4414C484.32 14.9883 484.445 14.5566 484.609 14.1465C484.773 13.7363 484.979 13.3574 485.225 13.0098C485.475 12.6621 485.764 12.3613 486.092 12.1074C486.42 11.8496 486.787 11.6504 487.193 11.5098C487.604 11.3691 488.051 11.2988 488.535 11.2988C489.535 11.2988 490.301 11.5938 490.832 12.1836C491.367 12.7734 491.635 13.5742 491.635 14.5859C491.635 15.0547 491.596 15.5176 491.518 15.9746C491.443 16.4277 491.326 16.8613 491.166 17.2754C491.01 17.6855 490.812 18.0645 490.574 18.4121C490.336 18.7559 490.055 19.0547 489.73 19.3086C489.41 19.5625 489.045 19.7617 488.635 19.9062C488.229 20.0469 487.777 20.1172 487.281 20.1172ZM487.363 18.916C487.648 18.916 487.916 18.8652 488.166 18.7637C488.416 18.6621 488.645 18.5195 488.852 18.3359C489.062 18.1484 489.25 17.9238 489.414 17.6621C489.582 17.4004 489.723 17.1094 489.836 16.7891C489.953 16.4688 490.043 16.125 490.105 15.7578C490.168 15.3867 490.199 15 490.199 14.5977C490.199 13.9453 490.045 13.4316 489.736 13.0566C489.432 12.6816 488.996 12.4941 488.43 12.4941C488.137 12.4941 487.861 12.5469 487.604 12.6523C487.35 12.7539 487.115 12.9023 486.9 13.0977C486.686 13.2891 486.494 13.5176 486.326 13.7832C486.162 14.0449 486.021 14.3359 485.904 14.6562C485.787 14.9766 485.697 15.3184 485.635 15.6816C485.576 16.041 485.547 16.416 485.547 16.8066C485.547 17.252 485.617 17.6328 485.758 17.9492C485.902 18.2656 486.109 18.5059 486.379 18.6699C486.652 18.834 486.98 18.916 487.363 18.916ZM493.527 20L493.211 11.4336H494.535L494.646 16.4492C494.654 16.7617 494.652 17.0957 494.641 17.4512C494.629 17.8027 494.611 18.1348 494.588 18.4473H494.629C494.738 18.1387 494.863 17.8008 495.004 17.4336C495.148 17.0625 495.291 16.7285 495.432 16.4316L497.729 11.4336H499.023L499.211 16.4258C499.227 16.707 499.234 17.0391 499.234 17.4219C499.234 17.8008 499.229 18.1445 499.217 18.4531H499.258C499.328 18.2422 499.404 18.0195 499.486 17.7852C499.572 17.5508 499.658 17.3184 499.744 17.0879C499.834 16.8535 499.922 16.6348 500.008 16.4316L502.135 11.4336H503.564L499.727 20H498.209L498.021 15.207C498.014 14.9492 498.006 14.7168 497.998 14.5098C497.994 14.2988 497.99 14.1016 497.986 13.918C497.986 13.7344 497.988 13.5527 497.992 13.373H497.951C497.865 13.6504 497.77 13.9219 497.664 14.1875C497.559 14.4492 497.434 14.7383 497.289 15.0547L495.021 20H493.527ZM502.908 20L504.719 11.4336H506.283L508.639 18.1719H508.674C508.701 17.9922 508.736 17.7715 508.779 17.5098C508.822 17.2441 508.871 16.9688 508.926 16.6836C508.98 16.3984 509.033 16.1348 509.084 15.8926L510.033 11.4336H511.305L509.494 20H507.971L505.562 13.1621H505.521C505.51 13.252 505.49 13.3887 505.463 13.5723C505.436 13.752 505.402 13.959 505.363 14.1934C505.328 14.4277 505.289 14.666 505.246 14.9082C505.203 15.1504 505.158 15.375 505.111 15.582L504.18 20H502.908ZM511.668 20L513.479 11.4336H518.043L517.791 12.6172H514.615L514.123 14.9434H517.094L516.848 16.1211H513.877L513.303 18.8105H516.479L516.227 20H511.668ZM518.02 20L519.83 11.4336H521.986C523.033 11.4336 523.848 11.7129 524.43 12.2715C525.012 12.8262 525.303 13.6562 525.303 14.7617C525.303 15.3789 525.232 15.9551 525.092 16.4902C524.955 17.0254 524.752 17.5098 524.482 17.9434C524.213 18.373 523.879 18.7422 523.48 19.0508C523.082 19.3555 522.623 19.5898 522.104 19.7539C521.584 19.918 521.008 20 520.375 20H518.02ZM519.654 18.8223H520.445C520.898 18.8223 521.307 18.7539 521.67 18.6172C522.037 18.4805 522.357 18.2891 522.631 18.043C522.904 17.793 523.133 17.5 523.316 17.1641C523.5 16.8281 523.637 16.4609 523.727 16.0625C523.82 15.6602 523.867 15.2402 523.867 14.8027C523.867 14.041 523.684 13.4844 523.316 13.1328C522.953 12.7773 522.461 12.5996 521.84 12.5996H520.973L519.654 18.8223Z" fill="white"/>
<defs>
<linearGradient id="paint0_linear_1241_3362" x1="768" y1="31.0002" x2="9.88112" y2="30.9999" gradientUnits="userSpaceOnUse">
<stop stop-color="#C2157D" stop-opacity="0"/>
<stop offset="0.523958" stop-color="#A01706"/>
<stop offset="1" stop-color="#C2157D" stop-opacity="0"/>
</linearGradient>
</defs>
</svg>
