<svg width="768" height="48" viewBox="0 0 768 48" fill="none" xmlns="http://www.w3.org/2000/svg">
<rect width="768" height="48" fill="url(#paint0_linear_2356_3797)"/>
<path d="M92.7812 13.8672C94.9531 13.8672 96.5781 14.3398 97.6562 15.2852C98.7422 16.2305 99.2852 17.5742 99.2852 19.3164C99.2852 20.0977 99.1719 20.8477 98.9453 21.5664C98.7266 22.2852 98.3633 22.9258 97.8555 23.4883C97.3555 24.0508 96.6875 24.4961 95.8516 24.8242C95.0234 25.1523 94 25.3164 92.7812 25.3164H91.4805V31H86.8516V13.8672H92.7812ZM92.6758 17.6055H91.4805V21.543H92.3945C92.793 21.543 93.1641 21.4766 93.5078 21.3438C93.8516 21.2031 94.125 20.9805 94.3281 20.6758C94.5391 20.3633 94.6445 19.9492 94.6445 19.4336C94.6445 18.8945 94.4844 18.457 94.1641 18.1211C93.8438 17.7773 93.3477 17.6055 92.6758 17.6055ZM109.762 17.4883C110.012 17.4883 110.273 17.5078 110.547 17.5469C110.82 17.5781 111.023 17.6055 111.156 17.6289L110.746 21.9531C110.598 21.9141 110.406 21.8828 110.172 21.8594C109.938 21.8281 109.609 21.8125 109.188 21.8125C108.898 21.8125 108.59 21.8398 108.262 21.8945C107.934 21.9492 107.621 22.0664 107.324 22.2461C107.035 22.418 106.797 22.6836 106.609 23.043C106.422 23.3945 106.328 23.8711 106.328 24.4727V31H101.746V17.7227H105.156L105.871 19.8438H106.094C106.336 19.4062 106.645 19.0117 107.02 18.6602C107.402 18.3008 107.828 18.0156 108.297 17.8047C108.773 17.5938 109.262 17.4883 109.762 17.4883ZM125.699 24.332C125.699 25.4414 125.547 26.4258 125.242 27.2852C124.938 28.1445 124.496 28.8672 123.918 29.4531C123.34 30.0391 122.641 30.4844 121.82 30.7891C121 31.0859 120.074 31.2344 119.043 31.2344C118.082 31.2344 117.199 31.0859 116.395 30.7891C115.598 30.4844 114.902 30.0391 114.309 29.4531C113.715 28.8672 113.254 28.1445 112.926 27.2852C112.605 26.4258 112.445 25.4414 112.445 24.332C112.445 22.8633 112.711 21.6211 113.242 20.6055C113.781 19.5898 114.547 18.8164 115.539 18.2852C116.539 17.7539 117.73 17.4883 119.113 17.4883C120.387 17.4883 121.52 17.7539 122.512 18.2852C123.504 18.8164 124.281 19.5898 124.844 20.6055C125.414 21.6211 125.699 22.8633 125.699 24.332ZM117.098 24.332C117.098 25.0898 117.164 25.7305 117.297 26.2539C117.43 26.7695 117.641 27.1641 117.93 27.4375C118.227 27.7031 118.613 27.8359 119.09 27.8359C119.566 27.8359 119.945 27.7031 120.227 27.4375C120.508 27.1641 120.711 26.7695 120.836 26.2539C120.969 25.7305 121.035 25.0898 121.035 24.332C121.035 23.5742 120.969 22.9414 120.836 22.4336C120.711 21.9258 120.504 21.543 120.215 21.2852C119.934 21.0273 119.551 20.8984 119.066 20.8984C118.371 20.8984 117.867 21.1875 117.555 21.7656C117.25 22.3438 117.098 23.1992 117.098 24.332ZM132.449 31.2344C131.082 31.2344 129.957 30.6523 129.074 29.4883C128.191 28.3242 127.75 26.6211 127.75 24.3789C127.75 22.1133 128.203 20.3984 129.109 19.2344C130.016 18.0703 131.188 17.4883 132.625 17.4883C133.219 17.4883 133.73 17.5742 134.16 17.7461C134.59 17.918 134.961 18.1523 135.273 18.4492C135.594 18.7383 135.871 19.0664 136.105 19.4336H136.199C136.145 19.0977 136.094 18.6367 136.047 18.0508C136 17.457 135.977 16.8789 135.977 16.3164V12.7656H140.594V31H137.137L136.152 29.3242H135.977C135.766 29.6758 135.5 29.9961 135.18 30.2852C134.867 30.5742 134.484 30.8047 134.031 30.9766C133.586 31.1484 133.059 31.2344 132.449 31.2344ZM134.324 27.6133C135.059 27.6133 135.574 27.3828 135.871 26.9219C136.176 26.4531 136.34 25.7422 136.363 24.7891V24.4258C136.363 23.3789 136.215 22.5781 135.918 22.0234C135.629 21.4609 135.082 21.1797 134.277 21.1797C133.73 21.1797 133.277 21.4453 132.918 21.9766C132.559 22.5078 132.379 23.332 132.379 24.4492C132.379 25.5508 132.559 26.3555 132.918 26.8633C133.285 27.3633 133.754 27.6133 134.324 27.6133ZM156.684 17.7227V31H153.227L152.652 29.3477H152.383C152.109 29.793 151.762 30.1562 151.34 30.4375C150.926 30.7109 150.465 30.9102 149.957 31.0352C149.449 31.168 148.922 31.2344 148.375 31.2344C147.508 31.2344 146.723 31.0664 146.02 30.7305C145.324 30.3945 144.77 29.8672 144.355 29.1484C143.949 28.4297 143.746 27.5039 143.746 26.3711V17.7227H148.328V24.9766C148.328 25.8359 148.449 26.4922 148.691 26.9453C148.941 27.3906 149.348 27.6133 149.91 27.6133C150.488 27.6133 150.934 27.457 151.246 27.1445C151.566 26.832 151.789 26.3711 151.914 25.7617C152.039 25.1523 152.102 24.4102 152.102 23.5352V17.7227H156.684ZM165.895 31.2344C164.551 31.2344 163.383 30.9961 162.391 30.5195C161.398 30.0352 160.629 29.293 160.082 28.293C159.543 27.2852 159.273 25.9961 159.273 24.4258C159.273 22.8164 159.574 21.5 160.176 20.4766C160.785 19.4531 161.617 18.6992 162.672 18.2148C163.727 17.7305 164.922 17.4883 166.258 17.4883C167.07 17.4883 167.84 17.5781 168.566 17.7578C169.301 17.9375 169.98 18.1836 170.605 18.4961L169.258 21.8828C168.711 21.6406 168.199 21.4492 167.723 21.3086C167.254 21.1602 166.766 21.0859 166.258 21.0859C165.797 21.0859 165.391 21.207 165.039 21.4492C164.688 21.6914 164.414 22.0586 164.219 22.5508C164.023 23.0352 163.926 23.6523 163.926 24.4023C163.926 25.168 164.023 25.7852 164.219 26.2539C164.422 26.7227 164.699 27.0625 165.051 27.2734C165.41 27.4844 165.82 27.5898 166.281 27.5898C166.945 27.5898 167.605 27.4883 168.262 27.2852C168.926 27.0742 169.555 26.7852 170.148 26.418V30.0625C169.602 30.4219 168.984 30.707 168.297 30.918C167.609 31.1289 166.809 31.2344 165.895 31.2344ZM178.832 31.2344C177.488 31.2344 176.32 30.9961 175.328 30.5195C174.336 30.0352 173.566 29.293 173.02 28.293C172.48 27.2852 172.211 25.9961 172.211 24.4258C172.211 22.8164 172.512 21.5 173.113 20.4766C173.723 19.4531 174.555 18.6992 175.609 18.2148C176.664 17.7305 177.859 17.4883 179.195 17.4883C180.008 17.4883 180.777 17.5781 181.504 17.7578C182.238 17.9375 182.918 18.1836 183.543 18.4961L182.195 21.8828C181.648 21.6406 181.137 21.4492 180.66 21.3086C180.191 21.1602 179.703 21.0859 179.195 21.0859C178.734 21.0859 178.328 21.207 177.977 21.4492C177.625 21.6914 177.352 22.0586 177.156 22.5508C176.961 23.0352 176.863 23.6523 176.863 24.4023C176.863 25.168 176.961 25.7852 177.156 26.2539C177.359 26.7227 177.637 27.0625 177.988 27.2734C178.348 27.4844 178.758 27.5898 179.219 27.5898C179.883 27.5898 180.543 27.4883 181.199 27.2852C181.863 27.0742 182.492 26.7852 183.086 26.418V30.0625C182.539 30.4219 181.922 30.707 181.234 30.918C180.547 31.1289 179.746 31.2344 178.832 31.2344ZM190.328 17.7227V31H185.746V17.7227H190.328ZM188.055 12.3789C188.711 12.3789 189.281 12.5156 189.766 12.7891C190.258 13.0625 190.504 13.6055 190.504 14.418C190.504 15.207 190.258 15.7422 189.766 16.0234C189.281 16.2969 188.711 16.4336 188.055 16.4336C187.383 16.4336 186.809 16.2969 186.332 16.0234C185.863 15.7422 185.629 15.207 185.629 14.418C185.629 13.6055 185.863 13.0625 186.332 12.7891C186.809 12.5156 187.383 12.3789 188.055 12.3789ZM206.207 24.332C206.207 25.4414 206.055 26.4258 205.75 27.2852C205.445 28.1445 205.004 28.8672 204.426 29.4531C203.848 30.0391 203.148 30.4844 202.328 30.7891C201.508 31.0859 200.582 31.2344 199.551 31.2344C198.59 31.2344 197.707 31.0859 196.902 30.7891C196.105 30.4844 195.41 30.0391 194.816 29.4531C194.223 28.8672 193.762 28.1445 193.434 27.2852C193.113 26.4258 192.953 25.4414 192.953 24.332C192.953 22.8633 193.219 21.6211 193.75 20.6055C194.289 19.5898 195.055 18.8164 196.047 18.2852C197.047 17.7539 198.238 17.4883 199.621 17.4883C200.895 17.4883 202.027 17.7539 203.02 18.2852C204.012 18.8164 204.789 19.5898 205.352 20.6055C205.922 21.6211 206.207 22.8633 206.207 24.332ZM197.605 24.332C197.605 25.0898 197.672 25.7305 197.805 26.2539C197.938 26.7695 198.148 27.1641 198.438 27.4375C198.734 27.7031 199.121 27.8359 199.598 27.8359C200.074 27.8359 200.453 27.7031 200.734 27.4375C201.016 27.1641 201.219 26.7695 201.344 26.2539C201.477 25.7305 201.543 25.0898 201.543 24.332C201.543 23.5742 201.477 22.9414 201.344 22.4336C201.219 21.9258 201.012 21.543 200.723 21.2852C200.441 21.0273 200.059 20.8984 199.574 20.8984C198.879 20.8984 198.375 21.1875 198.062 21.7656C197.758 22.3438 197.605 23.1992 197.605 24.332ZM205.316 12.6133V12.8594C205.035 13.0859 204.676 13.3633 204.238 13.6914C203.801 14.0117 203.336 14.3477 202.844 14.6992C202.359 15.043 201.887 15.3711 201.426 15.6836C200.973 15.9961 200.582 16.2539 200.254 16.457H197.207V16.1172C197.48 15.8203 197.809 15.4688 198.191 15.0625C198.574 14.6484 198.957 14.2266 199.34 13.7969C199.723 13.3672 200.043 12.9727 200.301 12.6133H205.316ZM217.141 17.4883C218.508 17.4883 219.625 17.875 220.492 18.6484C221.359 19.4219 221.793 20.6602 221.793 22.3633V31H217.211V23.7578C217.211 22.875 217.082 22.2109 216.824 21.7656C216.574 21.3125 216.168 21.0859 215.605 21.0859C214.738 21.0859 214.156 21.4414 213.859 22.1523C213.562 22.8555 213.414 23.8672 213.414 25.1875V31H208.832V17.7227H212.289L212.91 19.4805H213.086C213.367 19.0586 213.703 18.6992 214.094 18.4023C214.484 18.1055 214.934 17.8789 215.441 17.7227C215.949 17.5664 216.516 17.4883 217.141 17.4883ZM241.926 31L241.082 27.7891H235.516L234.648 31H229.562L235.152 13.7969H241.328L246.988 31H241.926ZM240.121 23.9922L239.383 21.1797C239.305 20.875 239.191 20.4414 239.043 19.8789C238.895 19.3086 238.746 18.7227 238.598 18.1211C238.457 17.5117 238.348 17.0117 238.27 16.6211C238.199 17.0117 238.098 17.4961 237.965 18.0742C237.84 18.6445 237.707 19.2109 237.566 19.7734C237.434 20.3359 237.316 20.8047 237.215 21.1797L236.477 23.9922H240.121ZM261.496 17.7227V31H258.039L257.465 29.3477H257.195C256.922 29.793 256.574 30.1562 256.152 30.4375C255.738 30.7109 255.277 30.9102 254.77 31.0352C254.262 31.168 253.734 31.2344 253.188 31.2344C252.32 31.2344 251.535 31.0664 250.832 30.7305C250.137 30.3945 249.582 29.8672 249.168 29.1484C248.762 28.4297 248.559 27.5039 248.559 26.3711V17.7227H253.141V24.9766C253.141 25.8359 253.262 26.4922 253.504 26.9453C253.754 27.3906 254.16 27.6133 254.723 27.6133C255.301 27.6133 255.746 27.457 256.059 27.1445C256.379 26.832 256.602 26.3711 256.727 25.7617C256.852 25.1523 256.914 24.4102 256.914 23.5352V17.7227H261.496ZM268.785 31.2344C267.418 31.2344 266.293 30.6523 265.41 29.4883C264.527 28.3242 264.086 26.6211 264.086 24.3789C264.086 22.1133 264.539 20.3984 265.445 19.2344C266.352 18.0703 267.523 17.4883 268.961 17.4883C269.555 17.4883 270.066 17.5742 270.496 17.7461C270.926 17.918 271.297 18.1523 271.609 18.4492C271.93 18.7383 272.207 19.0664 272.441 19.4336H272.535C272.48 19.0977 272.43 18.6367 272.383 18.0508C272.336 17.457 272.312 16.8789 272.312 16.3164V12.7656H276.93V31H273.473L272.488 29.3242H272.312C272.102 29.6758 271.836 29.9961 271.516 30.2852C271.203 30.5742 270.82 30.8047 270.367 30.9766C269.922 31.1484 269.395 31.2344 268.785 31.2344ZM270.66 27.6133C271.395 27.6133 271.91 27.3828 272.207 26.9219C272.512 26.4531 272.676 25.7422 272.699 24.7891V24.4258C272.699 23.3789 272.551 22.5781 272.254 22.0234C271.965 21.4609 271.418 21.1797 270.613 21.1797C270.066 21.1797 269.613 21.4453 269.254 21.9766C268.895 22.5078 268.715 23.332 268.715 24.4492C268.715 25.5508 268.895 26.3555 269.254 26.8633C269.621 27.3633 270.09 27.6133 270.66 27.6133ZM284.711 17.7227V31H280.129V17.7227H284.711ZM282.438 12.3789C283.094 12.3789 283.664 12.5156 284.148 12.7891C284.641 13.0625 284.887 13.6055 284.887 14.418C284.887 15.207 284.641 15.7422 284.148 16.0234C283.664 16.2969 283.094 16.4336 282.438 16.4336C281.766 16.4336 281.191 16.2969 280.715 16.0234C280.246 15.7422 280.012 15.207 280.012 14.418C280.012 13.6055 280.246 13.0625 280.715 12.7891C281.191 12.5156 281.766 12.3789 282.438 12.3789ZM300.59 24.332C300.59 25.4414 300.438 26.4258 300.133 27.2852C299.828 28.1445 299.387 28.8672 298.809 29.4531C298.23 30.0391 297.531 30.4844 296.711 30.7891C295.891 31.0859 294.965 31.2344 293.934 31.2344C292.973 31.2344 292.09 31.0859 291.285 30.7891C290.488 30.4844 289.793 30.0391 289.199 29.4531C288.605 28.8672 288.145 28.1445 287.816 27.2852C287.496 26.4258 287.336 25.4414 287.336 24.332C287.336 22.8633 287.602 21.6211 288.133 20.6055C288.672 19.5898 289.438 18.8164 290.43 18.2852C291.43 17.7539 292.621 17.4883 294.004 17.4883C295.277 17.4883 296.41 17.7539 297.402 18.2852C298.395 18.8164 299.172 19.5898 299.734 20.6055C300.305 21.6211 300.59 22.8633 300.59 24.332ZM291.988 24.332C291.988 25.0898 292.055 25.7305 292.188 26.2539C292.32 26.7695 292.531 27.1641 292.82 27.4375C293.117 27.7031 293.504 27.8359 293.98 27.8359C294.457 27.8359 294.836 27.7031 295.117 27.4375C295.398 27.1641 295.602 26.7695 295.727 26.2539C295.859 25.7305 295.926 25.0898 295.926 24.332C295.926 23.5742 295.859 22.9414 295.727 22.4336C295.602 21.9258 295.395 21.543 295.105 21.2852C294.824 21.0273 294.441 20.8984 293.957 20.8984C293.262 20.8984 292.758 21.1875 292.445 21.7656C292.141 22.3438 291.988 23.1992 291.988 24.332ZM306.695 31L301.633 17.7227H306.414L308.664 25.5742C308.688 25.6445 308.727 25.8242 308.781 26.1133C308.844 26.4023 308.875 26.6719 308.875 26.9219H308.957C308.957 26.6562 308.984 26.4023 309.039 26.1602C309.094 25.918 309.137 25.7305 309.168 25.5977L311.523 17.7227H316.293L311.23 31H306.695ZM322.492 17.7227V31H317.91V17.7227H322.492ZM320.219 12.3789C320.875 12.3789 321.445 12.5156 321.93 12.7891C322.422 13.0625 322.668 13.6055 322.668 14.418C322.668 15.207 322.422 15.7422 321.93 16.0234C321.445 16.2969 320.875 16.4336 320.219 16.4336C319.547 16.4336 318.973 16.2969 318.496 16.0234C318.027 15.7422 317.793 15.207 317.793 14.418C317.793 13.6055 318.027 13.0625 318.496 12.7891C318.973 12.5156 319.547 12.3789 320.219 12.3789ZM335.559 26.9219C335.559 27.7656 335.371 28.5117 334.996 29.1602C334.621 29.8086 334.02 30.3164 333.191 30.6836C332.371 31.0508 331.289 31.2344 329.945 31.2344C329 31.2344 328.152 31.1836 327.402 31.082C326.66 30.9805 325.906 30.7852 325.141 30.4961V26.8281C325.977 27.2109 326.828 27.4883 327.695 27.6602C328.562 27.8242 329.246 27.9062 329.746 27.9062C330.262 27.9062 330.637 27.8516 330.871 27.7422C331.113 27.625 331.234 27.4531 331.234 27.2266C331.234 27.0312 331.152 26.8672 330.988 26.7344C330.832 26.5938 330.547 26.4336 330.133 26.2539C329.727 26.0742 329.152 25.832 328.41 25.5273C327.676 25.2227 327.062 24.8906 326.57 24.5312C326.086 24.1719 325.723 23.7422 325.48 23.2422C325.238 22.7422 325.117 22.1289 325.117 21.4023C325.117 20.1055 325.617 19.1289 326.617 18.4727C327.617 17.8164 328.941 17.4883 330.59 17.4883C331.465 17.4883 332.289 17.5859 333.062 17.7812C333.836 17.9688 334.637 18.2461 335.465 18.6133L334.211 21.5664C333.555 21.2695 332.891 21.0312 332.219 20.8516C331.547 20.6719 331.012 20.582 330.613 20.582C330.254 20.582 329.977 20.6289 329.781 20.7227C329.586 20.8164 329.488 20.9531 329.488 21.1328C329.488 21.2969 329.555 21.4414 329.688 21.5664C329.828 21.6914 330.09 21.8359 330.473 22C330.855 22.1641 331.414 22.3945 332.148 22.6914C332.922 23.0039 333.559 23.3398 334.059 23.6992C334.566 24.0508 334.941 24.4805 335.184 24.9883C335.434 25.4961 335.559 26.1406 335.559 26.9219ZM351.027 17.7227V31H347.57L346.996 29.3477H346.727C346.453 29.793 346.105 30.1562 345.684 30.4375C345.27 30.7109 344.809 30.9102 344.301 31.0352C343.793 31.168 343.266 31.2344 342.719 31.2344C341.852 31.2344 341.066 31.0664 340.363 30.7305C339.668 30.3945 339.113 29.8672 338.699 29.1484C338.293 28.4297 338.09 27.5039 338.09 26.3711V17.7227H342.672V24.9766C342.672 25.8359 342.793 26.4922 343.035 26.9453C343.285 27.3906 343.691 27.6133 344.254 27.6133C344.832 27.6133 345.277 27.457 345.59 27.1445C345.91 26.832 346.133 26.3711 346.258 25.7617C346.383 25.1523 346.445 24.4102 346.445 23.5352V17.7227H351.027ZM360.672 17.4883C362.352 17.4883 363.664 17.9062 364.609 18.7422C365.555 19.5703 366.027 20.7539 366.027 22.293V31H362.852L361.973 29.2422H361.879C361.504 29.7109 361.117 30.0938 360.719 30.3906C360.328 30.6797 359.879 30.8906 359.371 31.0234C358.863 31.1641 358.242 31.2344 357.508 31.2344C356.742 31.2344 356.055 31.0781 355.445 30.7656C354.836 30.4531 354.355 29.9805 354.004 29.3477C353.652 28.7148 353.477 27.9141 353.477 26.9453C353.477 25.5234 353.969 24.4688 354.953 23.7812C355.938 23.0938 357.363 22.707 359.23 22.6211L361.445 22.5508V22.3633C361.445 21.7695 361.297 21.3477 361 21.0977C360.711 20.8477 360.32 20.7227 359.828 20.7227C359.305 20.7227 358.719 20.8164 358.07 21.0039C357.43 21.1836 356.785 21.418 356.137 21.707L354.812 18.6836C355.578 18.293 356.445 17.9961 357.414 17.793C358.383 17.5898 359.469 17.4883 360.672 17.4883ZM361.469 25.0703L360.414 25.1172C359.57 25.1484 358.977 25.2969 358.633 25.5625C358.297 25.8203 358.129 26.1914 358.129 26.6758C358.129 27.1289 358.25 27.4648 358.492 27.6836C358.734 27.8945 359.055 28 359.453 28C360.008 28 360.48 27.8242 360.871 27.4727C361.27 27.1211 361.469 26.6641 361.469 26.1016V25.0703ZM373.727 31H369.145V12.7656H373.727V31ZM381.531 17.7227H386.359L388.609 25.3398C388.641 25.4492 388.672 25.5859 388.703 25.75C388.734 25.9062 388.762 26.0742 388.785 26.2539C388.809 26.4336 388.824 26.6094 388.832 26.7812H388.926C388.965 26.4609 389.008 26.1836 389.055 25.9492C389.109 25.707 389.16 25.5117 389.207 25.3633L391.516 17.7227H396.191L390.941 31.8438C390.535 32.9219 390.062 33.8242 389.523 34.5508C388.992 35.2852 388.332 35.8359 387.543 36.2031C386.762 36.5781 385.789 36.7656 384.625 36.7656C384.203 36.7656 383.84 36.7422 383.535 36.6953C383.238 36.6562 382.977 36.6133 382.75 36.5664V32.9688C382.922 33 383.133 33.0312 383.383 33.0625C383.633 33.0938 383.895 33.1094 384.168 33.1094C384.676 33.1094 385.086 33.0078 385.398 32.8047C385.719 32.6016 385.98 32.332 386.184 31.9961C386.387 31.668 386.562 31.3125 386.711 30.9297L386.758 30.8125L381.531 17.7227ZM411.918 17.418C411.371 17.418 410.883 17.5352 410.453 17.7695C410.023 17.9961 409.656 18.3281 409.352 18.7656C409.047 19.2031 408.812 19.7383 408.648 20.3711C408.492 20.9961 408.414 21.707 408.414 22.5039C408.414 23.582 408.551 24.4883 408.824 25.2227C409.098 25.957 409.512 26.5117 410.066 26.8867C410.629 27.2617 411.332 27.4492 412.176 27.4492C412.941 27.4492 413.676 27.3438 414.379 27.1328C415.09 26.9219 415.805 26.668 416.523 26.3711V30.2852C415.766 30.6211 414.988 30.8633 414.191 31.0117C413.402 31.1602 412.562 31.2344 411.672 31.2344C409.812 31.2344 408.289 30.8672 407.102 30.1328C405.922 29.3906 405.051 28.3633 404.488 27.0508C403.934 25.7383 403.656 24.2148 403.656 22.4805C403.656 21.1836 403.836 19.9961 404.195 18.918C404.562 17.8398 405.098 16.9062 405.801 16.1172C406.504 15.3203 407.371 14.707 408.402 14.2773C409.441 13.8398 410.629 13.6211 411.965 13.6211C412.793 13.6211 413.664 13.7188 414.578 13.9141C415.5 14.1016 416.398 14.4062 417.273 14.8281L415.855 18.4727C415.23 18.1758 414.598 17.9258 413.957 17.7227C413.316 17.5195 412.637 17.418 411.918 17.418ZM427.621 17.4883C427.871 17.4883 428.133 17.5078 428.406 17.5469C428.68 17.5781 428.883 17.6055 429.016 17.6289L428.605 21.9531C428.457 21.9141 428.266 21.8828 428.031 21.8594C427.797 21.8281 427.469 21.8125 427.047 21.8125C426.758 21.8125 426.449 21.8398 426.121 21.8945C425.793 21.9492 425.48 22.0664 425.184 22.2461C424.895 22.418 424.656 22.6836 424.469 23.043C424.281 23.3945 424.188 23.8711 424.188 24.4727V31H419.605V17.7227H423.016L423.73 19.8438H423.953C424.195 19.4062 424.504 19.0117 424.879 18.6602C425.262 18.3008 425.688 18.0156 426.156 17.8047C426.633 17.5938 427.121 17.4883 427.621 17.4883ZM436.855 17.4883C438.145 17.4883 439.258 17.7148 440.195 18.168C441.133 18.6133 441.855 19.2852 442.363 20.1836C442.871 21.082 443.125 22.207 443.125 23.5586V25.5977H434.934C434.973 26.293 435.23 26.8633 435.707 27.3086C436.191 27.7539 436.902 27.9766 437.84 27.9766C438.668 27.9766 439.426 27.8945 440.113 27.7305C440.809 27.5664 441.523 27.3125 442.258 26.9688V30.2617C441.617 30.5977 440.918 30.8438 440.16 31C439.402 31.1562 438.445 31.2344 437.289 31.2344C435.953 31.2344 434.758 30.9961 433.703 30.5195C432.648 30.043 431.816 29.3047 431.207 28.3047C430.605 27.3047 430.305 26.0195 430.305 24.4492C430.305 22.8555 430.578 21.5469 431.125 20.5234C431.672 19.4922 432.438 18.7305 433.422 18.2383C434.406 17.7383 435.551 17.4883 436.855 17.4883ZM437.02 20.6055C436.48 20.6055 436.027 20.7773 435.66 21.1211C435.301 21.457 435.09 21.9883 435.027 22.7148H438.965C438.957 22.3242 438.879 21.9688 438.73 21.6484C438.582 21.3281 438.363 21.0742 438.074 20.8867C437.793 20.6992 437.441 20.6055 437.02 20.6055ZM452.195 17.4883C453.875 17.4883 455.188 17.9062 456.133 18.7422C457.078 19.5703 457.551 20.7539 457.551 22.293V31H454.375L453.496 29.2422H453.402C453.027 29.7109 452.641 30.0938 452.242 30.3906C451.852 30.6797 451.402 30.8906 450.895 31.0234C450.387 31.1641 449.766 31.2344 449.031 31.2344C448.266 31.2344 447.578 31.0781 446.969 30.7656C446.359 30.4531 445.879 29.9805 445.527 29.3477C445.176 28.7148 445 27.9141 445 26.9453C445 25.5234 445.492 24.4688 446.477 23.7812C447.461 23.0938 448.887 22.707 450.754 22.6211L452.969 22.5508V22.3633C452.969 21.7695 452.82 21.3477 452.523 21.0977C452.234 20.8477 451.844 20.7227 451.352 20.7227C450.828 20.7227 450.242 20.8164 449.594 21.0039C448.953 21.1836 448.309 21.418 447.66 21.707L446.336 18.6836C447.102 18.293 447.969 17.9961 448.938 17.793C449.906 17.5898 450.992 17.4883 452.195 17.4883ZM452.992 25.0703L451.938 25.1172C451.094 25.1484 450.5 25.2969 450.156 25.5625C449.82 25.8203 449.652 26.1914 449.652 26.6758C449.652 27.1289 449.773 27.4648 450.016 27.6836C450.258 27.8945 450.578 28 450.977 28C451.531 28 452.004 27.8242 452.395 27.4727C452.793 27.1211 452.992 26.6641 452.992 26.1016V25.0703ZM466.715 31.2344C465.371 31.2344 464.203 30.9961 463.211 30.5195C462.219 30.0352 461.449 29.293 460.902 28.293C460.363 27.2852 460.094 25.9961 460.094 24.4258C460.094 22.8164 460.395 21.5 460.996 20.4766C461.605 19.4531 462.438 18.6992 463.492 18.2148C464.547 17.7305 465.742 17.4883 467.078 17.4883C467.891 17.4883 468.66 17.5781 469.387 17.7578C470.121 17.9375 470.801 18.1836 471.426 18.4961L470.078 21.8828C469.531 21.6406 469.02 21.4492 468.543 21.3086C468.074 21.1602 467.586 21.0859 467.078 21.0859C466.617 21.0859 466.211 21.207 465.859 21.4492C465.508 21.6914 465.234 22.0586 465.039 22.5508C464.844 23.0352 464.746 23.6523 464.746 24.4023C464.746 25.168 464.844 25.7852 465.039 26.2539C465.242 26.7227 465.52 27.0625 465.871 27.2734C466.23 27.4844 466.641 27.5898 467.102 27.5898C467.766 27.5898 468.426 27.4883 469.082 27.2852C469.746 27.0742 470.375 26.7852 470.969 26.418V30.0625C470.422 30.4219 469.805 30.707 469.117 30.918C468.43 31.1289 467.629 31.2344 466.715 31.2344ZM478.211 17.7227V31H473.629V17.7227H478.211ZM475.938 12.3789C476.594 12.3789 477.164 12.5156 477.648 12.7891C478.141 13.0625 478.387 13.6055 478.387 14.418C478.387 15.207 478.141 15.7422 477.648 16.0234C477.164 16.2969 476.594 16.4336 475.938 16.4336C475.266 16.4336 474.691 16.2969 474.215 16.0234C473.746 15.7422 473.512 15.207 473.512 14.418C473.512 13.6055 473.746 13.0625 474.215 12.7891C474.691 12.5156 475.266 12.3789 475.938 12.3789ZM494.09 24.332C494.09 25.4414 493.938 26.4258 493.633 27.2852C493.328 28.1445 492.887 28.8672 492.309 29.4531C491.73 30.0391 491.031 30.4844 490.211 30.7891C489.391 31.0859 488.465 31.2344 487.434 31.2344C486.473 31.2344 485.59 31.0859 484.785 30.7891C483.988 30.4844 483.293 30.0391 482.699 29.4531C482.105 28.8672 481.645 28.1445 481.316 27.2852C480.996 26.4258 480.836 25.4414 480.836 24.332C480.836 22.8633 481.102 21.6211 481.633 20.6055C482.172 19.5898 482.938 18.8164 483.93 18.2852C484.93 17.7539 486.121 17.4883 487.504 17.4883C488.777 17.4883 489.91 17.7539 490.902 18.2852C491.895 18.8164 492.672 19.5898 493.234 20.6055C493.805 21.6211 494.09 22.8633 494.09 24.332ZM485.488 24.332C485.488 25.0898 485.555 25.7305 485.688 26.2539C485.82 26.7695 486.031 27.1641 486.32 27.4375C486.617 27.7031 487.004 27.8359 487.48 27.8359C487.957 27.8359 488.336 27.7031 488.617 27.4375C488.898 27.1641 489.102 26.7695 489.227 26.2539C489.359 25.7305 489.426 25.0898 489.426 24.332C489.426 23.5742 489.359 22.9414 489.227 22.4336C489.102 21.9258 488.895 21.543 488.605 21.2852C488.324 21.0273 487.941 20.8984 487.457 20.8984C486.762 20.8984 486.258 21.1875 485.945 21.7656C485.641 22.3438 485.488 23.1992 485.488 24.332ZM493.199 12.6133V12.8594C492.918 13.0859 492.559 13.3633 492.121 13.6914C491.684 14.0117 491.219 14.3477 490.727 14.6992C490.242 15.043 489.77 15.3711 489.309 15.6836C488.855 15.9961 488.465 16.2539 488.137 16.457H485.09V16.1172C485.363 15.8203 485.691 15.4688 486.074 15.0625C486.457 14.6484 486.84 14.2266 487.223 13.7969C487.605 13.3672 487.926 12.9727 488.184 12.6133H493.199ZM505.023 17.4883C506.391 17.4883 507.508 17.875 508.375 18.6484C509.242 19.4219 509.676 20.6602 509.676 22.3633V31H505.094V23.7578C505.094 22.875 504.965 22.2109 504.707 21.7656C504.457 21.3125 504.051 21.0859 503.488 21.0859C502.621 21.0859 502.039 21.4414 501.742 22.1523C501.445 22.8555 501.297 23.8672 501.297 25.1875V31H496.715V17.7227H500.172L500.793 19.4805H500.969C501.25 19.0586 501.586 18.6992 501.977 18.4023C502.367 18.1055 502.816 17.8789 503.324 17.7227C503.832 17.5664 504.398 17.4883 505.023 17.4883ZM523.152 31.2344C521.785 31.2344 520.66 30.6523 519.777 29.4883C518.895 28.3242 518.453 26.6211 518.453 24.3789C518.453 22.1133 518.906 20.3984 519.812 19.2344C520.719 18.0703 521.891 17.4883 523.328 17.4883C523.922 17.4883 524.434 17.5742 524.863 17.7461C525.293 17.918 525.664 18.1523 525.977 18.4492C526.297 18.7383 526.574 19.0664 526.809 19.4336H526.902C526.848 19.0977 526.797 18.6367 526.75 18.0508C526.703 17.457 526.68 16.8789 526.68 16.3164V12.7656H531.297V31H527.84L526.855 29.3242H526.68C526.469 29.6758 526.203 29.9961 525.883 30.2852C525.57 30.5742 525.188 30.8047 524.734 30.9766C524.289 31.1484 523.762 31.2344 523.152 31.2344ZM525.027 27.6133C525.762 27.6133 526.277 27.3828 526.574 26.9219C526.879 26.4531 527.043 25.7422 527.066 24.7891V24.4258C527.066 23.3789 526.918 22.5781 526.621 22.0234C526.332 21.4609 525.785 21.1797 524.98 21.1797C524.434 21.1797 523.98 21.4453 523.621 21.9766C523.262 22.5078 523.082 23.332 523.082 24.4492C523.082 25.5508 523.262 26.3555 523.621 26.8633C523.988 27.3633 524.457 27.6133 525.027 27.6133ZM540.449 17.4883C541.738 17.4883 542.852 17.7148 543.789 18.168C544.727 18.6133 545.449 19.2852 545.957 20.1836C546.465 21.082 546.719 22.207 546.719 23.5586V25.5977H538.527C538.566 26.293 538.824 26.8633 539.301 27.3086C539.785 27.7539 540.496 27.9766 541.434 27.9766C542.262 27.9766 543.02 27.8945 543.707 27.7305C544.402 27.5664 545.117 27.3125 545.852 26.9688V30.2617C545.211 30.5977 544.512 30.8438 543.754 31C542.996 31.1562 542.039 31.2344 540.883 31.2344C539.547 31.2344 538.352 30.9961 537.297 30.5195C536.242 30.043 535.41 29.3047 534.801 28.3047C534.199 27.3047 533.898 26.0195 533.898 24.4492C533.898 22.8555 534.172 21.5469 534.719 20.5234C535.266 19.4922 536.031 18.7305 537.016 18.2383C538 17.7383 539.145 17.4883 540.449 17.4883ZM540.613 20.6055C540.074 20.6055 539.621 20.7773 539.254 21.1211C538.895 21.457 538.684 21.9883 538.621 22.7148H542.559C542.551 22.3242 542.473 21.9688 542.324 21.6484C542.176 21.3281 541.957 21.0742 541.668 20.8867C541.387 20.6992 541.035 20.6055 540.613 20.6055ZM563.441 17.418C562.895 17.418 562.406 17.5352 561.977 17.7695C561.547 17.9961 561.18 18.3281 560.875 18.7656C560.57 19.2031 560.336 19.7383 560.172 20.3711C560.016 20.9961 559.938 21.707 559.938 22.5039C559.938 23.582 560.074 24.4883 560.348 25.2227C560.621 25.957 561.035 26.5117 561.59 26.8867C562.152 27.2617 562.855 27.4492 563.699 27.4492C564.465 27.4492 565.199 27.3438 565.902 27.1328C566.613 26.9219 567.328 26.668 568.047 26.3711V30.2852C567.289 30.6211 566.512 30.8633 565.715 31.0117C564.926 31.1602 564.086 31.2344 563.195 31.2344C561.336 31.2344 559.812 30.8672 558.625 30.1328C557.445 29.3906 556.574 28.3633 556.012 27.0508C555.457 25.7383 555.18 24.2148 555.18 22.4805C555.18 21.1836 555.359 19.9961 555.719 18.918C556.086 17.8398 556.621 16.9062 557.324 16.1172C558.027 15.3203 558.895 14.707 559.926 14.2773C560.965 13.8398 562.152 13.6211 563.488 13.6211C564.316 13.6211 565.188 13.7188 566.102 13.9141C567.023 14.1016 567.922 14.4062 568.797 14.8281L567.379 18.4727C566.754 18.1758 566.121 17.9258 565.48 17.7227C564.84 17.5195 564.16 17.418 563.441 17.418ZM583.809 24.332C583.809 25.4414 583.656 26.4258 583.352 27.2852C583.047 28.1445 582.605 28.8672 582.027 29.4531C581.449 30.0391 580.75 30.4844 579.93 30.7891C579.109 31.0859 578.184 31.2344 577.152 31.2344C576.191 31.2344 575.309 31.0859 574.504 30.7891C573.707 30.4844 573.012 30.0391 572.418 29.4531C571.824 28.8672 571.363 28.1445 571.035 27.2852C570.715 26.4258 570.555 25.4414 570.555 24.332C570.555 22.8633 570.82 21.6211 571.352 20.6055C571.891 19.5898 572.656 18.8164 573.648 18.2852C574.648 17.7539 575.84 17.4883 577.223 17.4883C578.496 17.4883 579.629 17.7539 580.621 18.2852C581.613 18.8164 582.391 19.5898 582.953 20.6055C583.523 21.6211 583.809 22.8633 583.809 24.332ZM575.207 24.332C575.207 25.0898 575.273 25.7305 575.406 26.2539C575.539 26.7695 575.75 27.1641 576.039 27.4375C576.336 27.7031 576.723 27.8359 577.199 27.8359C577.676 27.8359 578.055 27.7031 578.336 27.4375C578.617 27.1641 578.82 26.7695 578.945 26.2539C579.078 25.7305 579.145 25.0898 579.145 24.332C579.145 23.5742 579.078 22.9414 578.945 22.4336C578.82 21.9258 578.613 21.543 578.324 21.2852C578.043 21.0273 577.66 20.8984 577.176 20.8984C576.48 20.8984 575.977 21.1875 575.664 21.7656C575.359 22.3438 575.207 23.1992 575.207 24.332ZM594.742 17.4883C596.109 17.4883 597.227 17.875 598.094 18.6484C598.961 19.4219 599.395 20.6602 599.395 22.3633V31H594.812V23.7578C594.812 22.875 594.684 22.2109 594.426 21.7656C594.176 21.3125 593.77 21.0859 593.207 21.0859C592.34 21.0859 591.758 21.4414 591.461 22.1523C591.164 22.8555 591.016 23.8672 591.016 25.1875V31H586.434V17.7227H589.891L590.512 19.4805H590.688C590.969 19.0586 591.305 18.6992 591.695 18.4023C592.086 18.1055 592.535 17.8789 593.043 17.7227C593.551 17.5664 594.117 17.4883 594.742 17.4883ZM609.016 27.6133C609.43 27.6133 609.809 27.5703 610.152 27.4844C610.496 27.3984 610.855 27.2891 611.23 27.1562V30.4961C610.73 30.7148 610.199 30.8906 609.637 31.0234C609.082 31.1641 608.371 31.2344 607.504 31.2344C606.645 31.2344 605.887 31.1016 605.23 30.8359C604.574 30.5625 604.062 30.0938 603.695 29.4297C603.336 28.7578 603.156 27.8242 603.156 26.6289V21.1562H601.551V19.293L603.59 17.8516L604.773 15.0625H607.773V17.7227H611.031V21.1562H607.773V26.3242C607.773 26.7539 607.883 27.0781 608.102 27.2969C608.32 27.5078 608.625 27.6133 609.016 27.6133ZM619.527 17.4883C620.816 17.4883 621.93 17.7148 622.867 18.168C623.805 18.6133 624.527 19.2852 625.035 20.1836C625.543 21.082 625.797 22.207 625.797 23.5586V25.5977H617.605C617.645 26.293 617.902 26.8633 618.379 27.3086C618.863 27.7539 619.574 27.9766 620.512 27.9766C621.34 27.9766 622.098 27.8945 622.785 27.7305C623.48 27.5664 624.195 27.3125 624.93 26.9688V30.2617C624.289 30.5977 623.59 30.8438 622.832 31C622.074 31.1562 621.117 31.2344 619.961 31.2344C618.625 31.2344 617.43 30.9961 616.375 30.5195C615.32 30.043 614.488 29.3047 613.879 28.3047C613.277 27.3047 612.977 26.0195 612.977 24.4492C612.977 22.8555 613.25 21.5469 613.797 20.5234C614.344 19.4922 615.109 18.7305 616.094 18.2383C617.078 17.7383 618.223 17.4883 619.527 17.4883ZM619.691 20.6055C619.152 20.6055 618.699 20.7773 618.332 21.1211C617.973 21.457 617.762 21.9883 617.699 22.7148H621.637C621.629 22.3242 621.551 21.9688 621.402 21.6484C621.254 21.3281 621.035 21.0742 620.746 20.8867C620.465 20.6992 620.113 20.6055 619.691 20.6055ZM636.695 17.4883C638.062 17.4883 639.18 17.875 640.047 18.6484C640.914 19.4219 641.348 20.6602 641.348 22.3633V31H636.766V23.7578C636.766 22.875 636.637 22.2109 636.379 21.7656C636.129 21.3125 635.723 21.0859 635.16 21.0859C634.293 21.0859 633.711 21.4414 633.414 22.1523C633.117 22.8555 632.969 23.8672 632.969 25.1875V31H628.387V17.7227H631.844L632.465 19.4805H632.641C632.922 19.0586 633.258 18.6992 633.648 18.4023C634.039 18.1055 634.488 17.8789 634.996 17.7227C635.504 17.5664 636.07 17.4883 636.695 17.4883ZM649.07 17.7227V31H644.488V17.7227H649.07ZM646.797 12.3789C647.453 12.3789 648.023 12.5156 648.508 12.7891C649 13.0625 649.246 13.6055 649.246 14.418C649.246 15.207 649 15.7422 648.508 16.0234C648.023 16.2969 647.453 16.4336 646.797 16.4336C646.125 16.4336 645.551 16.2969 645.074 16.0234C644.605 15.7422 644.371 15.207 644.371 14.418C644.371 13.6055 644.605 13.0625 645.074 12.7891C645.551 12.5156 646.125 12.3789 646.797 12.3789ZM656.395 31.2344C655.027 31.2344 653.902 30.6523 653.02 29.4883C652.137 28.3242 651.695 26.6211 651.695 24.3789C651.695 22.1133 652.148 20.3984 653.055 19.2344C653.961 18.0703 655.133 17.4883 656.57 17.4883C657.164 17.4883 657.676 17.5742 658.105 17.7461C658.535 17.918 658.906 18.1523 659.219 18.4492C659.539 18.7383 659.816 19.0664 660.051 19.4336H660.145C660.09 19.0977 660.039 18.6367 659.992 18.0508C659.945 17.457 659.922 16.8789 659.922 16.3164V12.7656H664.539V31H661.082L660.098 29.3242H659.922C659.711 29.6758 659.445 29.9961 659.125 30.2852C658.812 30.5742 658.43 30.8047 657.977 30.9766C657.531 31.1484 657.004 31.2344 656.395 31.2344ZM658.27 27.6133C659.004 27.6133 659.52 27.3828 659.816 26.9219C660.121 26.4531 660.285 25.7422 660.309 24.7891V24.4258C660.309 23.3789 660.16 22.5781 659.863 22.0234C659.574 21.4609 659.027 21.1797 658.223 21.1797C657.676 21.1797 657.223 21.4453 656.863 21.9766C656.504 22.5078 656.324 23.332 656.324 24.4492C656.324 25.5508 656.504 26.3555 656.863 26.8633C657.23 27.3633 657.699 27.6133 658.27 27.6133ZM680.395 24.332C680.395 25.4414 680.242 26.4258 679.938 27.2852C679.633 28.1445 679.191 28.8672 678.613 29.4531C678.035 30.0391 677.336 30.4844 676.516 30.7891C675.695 31.0859 674.77 31.2344 673.738 31.2344C672.777 31.2344 671.895 31.0859 671.09 30.7891C670.293 30.4844 669.598 30.0391 669.004 29.4531C668.41 28.8672 667.949 28.1445 667.621 27.2852C667.301 26.4258 667.141 25.4414 667.141 24.332C667.141 22.8633 667.406 21.6211 667.938 20.6055C668.477 19.5898 669.242 18.8164 670.234 18.2852C671.234 17.7539 672.426 17.4883 673.809 17.4883C675.082 17.4883 676.215 17.7539 677.207 18.2852C678.199 18.8164 678.977 19.5898 679.539 20.6055C680.109 21.6211 680.395 22.8633 680.395 24.332ZM671.793 24.332C671.793 25.0898 671.859 25.7305 671.992 26.2539C672.125 26.7695 672.336 27.1641 672.625 27.4375C672.922 27.7031 673.309 27.8359 673.785 27.8359C674.262 27.8359 674.641 27.7031 674.922 27.4375C675.203 27.1641 675.406 26.7695 675.531 26.2539C675.664 25.7305 675.73 25.0898 675.73 24.332C675.73 23.5742 675.664 22.9414 675.531 22.4336C675.406 21.9258 675.199 21.543 674.91 21.2852C674.629 21.0273 674.246 20.8984 673.762 20.8984C673.066 20.8984 672.562 21.1875 672.25 21.7656C671.945 22.3438 671.793 23.1992 671.793 24.332Z" fill="white"/>
<defs>
<linearGradient id="paint0_linear_2356_3797" x1="768" y1="48.0003" x2="9.88112" y2="48.0001" gradientUnits="userSpaceOnUse">
<stop stop-color="#C2157D" stop-opacity="0.29"/>
<stop offset="0.523958" stop-color="#A01706"/>
<stop offset="1" stop-color="#C2157D" stop-opacity="0.3"/>
</linearGradient>
</defs>
</svg>
