<svg width="375" height="52" viewBox="0 0 375 52" fill="none" xmlns="http://www.w3.org/2000/svg">
<rect width="375" height="52" fill="url(#paint0_linear_2356_1815)"/>
<path d="M88.375 9.57812C89.8229 9.57812 90.9062 9.89323 91.625 10.5234C92.349 11.1536 92.7109 12.0495 92.7109 13.2109C92.7109 13.7318 92.6354 14.2318 92.4844 14.7109C92.3385 15.1901 92.0964 15.6172 91.7578 15.9922C91.4245 16.3672 90.9792 16.6641 90.4219 16.8828C89.8698 17.1016 89.1875 17.2109 88.375 17.2109H87.5078V21H84.4219V9.57812H88.375ZM88.3047 12.0703H87.5078V14.6953H88.1172C88.3828 14.6953 88.6302 14.651 88.8594 14.5625C89.0885 14.4688 89.2708 14.3203 89.4062 14.1172C89.5469 13.9089 89.6172 13.6328 89.6172 13.2891C89.6172 12.9297 89.5104 12.638 89.2969 12.4141C89.0833 12.1849 88.7526 12.0703 88.3047 12.0703ZM99.6953 11.9922C99.862 11.9922 100.036 12.0052 100.219 12.0312C100.401 12.0521 100.536 12.0703 100.625 12.0859L100.352 14.9688C100.253 14.9427 100.125 14.9219 99.9688 14.9062C99.8125 14.8854 99.5938 14.875 99.3125 14.875C99.1198 14.875 98.9141 14.8932 98.6953 14.9297C98.4766 14.9661 98.2682 15.0443 98.0703 15.1641C97.8776 15.2786 97.7188 15.4557 97.5938 15.6953C97.4688 15.9297 97.4062 16.2474 97.4062 16.6484V21H94.3516V12.1484H96.625L97.1016 13.5625H97.25C97.4115 13.2708 97.6172 13.0078 97.8672 12.7734C98.1224 12.5339 98.4062 12.3438 98.7188 12.2031C99.0365 12.0625 99.362 11.9922 99.6953 11.9922ZM110.32 16.5547C110.32 17.2943 110.219 17.9505 110.016 18.5234C109.812 19.0964 109.518 19.5781 109.133 19.9688C108.747 20.3594 108.281 20.6562 107.734 20.8594C107.188 21.0573 106.57 21.1562 105.883 21.1562C105.242 21.1562 104.654 21.0573 104.117 20.8594C103.586 20.6562 103.122 20.3594 102.727 19.9688C102.331 19.5781 102.023 19.0964 101.805 18.5234C101.591 17.9505 101.484 17.2943 101.484 16.5547C101.484 15.5755 101.661 14.7474 102.016 14.0703C102.375 13.3932 102.885 12.8776 103.547 12.5234C104.214 12.1693 105.008 11.9922 105.93 11.9922C106.779 11.9922 107.534 12.1693 108.195 12.5234C108.857 12.8776 109.375 13.3932 109.75 14.0703C110.13 14.7474 110.32 15.5755 110.32 16.5547ZM104.586 16.5547C104.586 17.0599 104.63 17.487 104.719 17.8359C104.807 18.1797 104.948 18.4427 105.141 18.625C105.339 18.8021 105.596 18.8906 105.914 18.8906C106.232 18.8906 106.484 18.8021 106.672 18.625C106.859 18.4427 106.995 18.1797 107.078 17.8359C107.167 17.487 107.211 17.0599 107.211 16.5547C107.211 16.0495 107.167 15.6276 107.078 15.2891C106.995 14.9505 106.857 14.6953 106.664 14.5234C106.477 14.3516 106.221 14.2656 105.898 14.2656C105.435 14.2656 105.099 14.4583 104.891 14.8438C104.688 15.2292 104.586 15.7995 104.586 16.5547ZM114.82 21.1562C113.909 21.1562 113.159 20.7682 112.57 19.9922C111.982 19.2161 111.688 18.0807 111.688 16.5859C111.688 15.0755 111.99 13.9323 112.594 13.1562C113.198 12.3802 113.979 11.9922 114.938 11.9922C115.333 11.9922 115.674 12.0495 115.961 12.1641C116.247 12.2786 116.495 12.4349 116.703 12.6328C116.917 12.8255 117.102 13.0443 117.258 13.2891H117.32C117.284 13.0651 117.25 12.7578 117.219 12.3672C117.188 11.9714 117.172 11.5859 117.172 11.2109V8.84375H120.25V21H117.945L117.289 19.8828H117.172C117.031 20.1172 116.854 20.3307 116.641 20.5234C116.432 20.7161 116.177 20.8698 115.875 20.9844C115.578 21.099 115.227 21.1562 114.82 21.1562ZM116.07 18.7422C116.56 18.7422 116.904 18.5885 117.102 18.2812C117.305 17.9688 117.414 17.4948 117.43 16.8594V16.6172C117.43 15.9193 117.331 15.3854 117.133 15.0156C116.94 14.6406 116.576 14.4531 116.039 14.4531C115.674 14.4531 115.372 14.6302 115.133 14.9844C114.893 15.3385 114.773 15.888 114.773 16.6328C114.773 17.3672 114.893 17.9036 115.133 18.2422C115.378 18.5755 115.69 18.7422 116.07 18.7422ZM130.977 12.1484V21H128.672L128.289 19.8984H128.109C127.927 20.1953 127.695 20.4375 127.414 20.625C127.138 20.8073 126.831 20.9401 126.492 21.0234C126.154 21.112 125.802 21.1562 125.438 21.1562C124.859 21.1562 124.336 21.0443 123.867 20.8203C123.404 20.5964 123.034 20.2448 122.758 19.7656C122.487 19.2865 122.352 18.6693 122.352 17.9141V12.1484H125.406V16.9844C125.406 17.5573 125.487 17.9948 125.648 18.2969C125.815 18.5938 126.086 18.7422 126.461 18.7422C126.846 18.7422 127.143 18.638 127.352 18.4297C127.565 18.2214 127.714 17.9141 127.797 17.5078C127.88 17.1016 127.922 16.6068 127.922 16.0234V12.1484H130.977ZM137.117 21.1562C136.221 21.1562 135.443 20.9974 134.781 20.6797C134.12 20.3568 133.607 19.862 133.242 19.1953C132.883 18.5234 132.703 17.6641 132.703 16.6172C132.703 15.5443 132.904 14.6667 133.305 13.9844C133.711 13.3021 134.266 12.7995 134.969 12.4766C135.672 12.1536 136.469 11.9922 137.359 11.9922C137.901 11.9922 138.414 12.0521 138.898 12.1719C139.388 12.2917 139.841 12.4557 140.258 12.6641L139.359 14.9219C138.995 14.7604 138.654 14.6328 138.336 14.5391C138.023 14.4401 137.698 14.3906 137.359 14.3906C137.052 14.3906 136.781 14.4714 136.547 14.6328C136.312 14.7943 136.13 15.0391 136 15.3672C135.87 15.6901 135.805 16.1016 135.805 16.6016C135.805 17.112 135.87 17.5234 136 17.8359C136.135 18.1484 136.32 18.375 136.555 18.5156C136.794 18.6562 137.068 18.7266 137.375 18.7266C137.818 18.7266 138.258 18.6589 138.695 18.5234C139.138 18.3828 139.557 18.1901 139.953 17.9453V20.375C139.589 20.6146 139.177 20.8047 138.719 20.9453C138.26 21.0859 137.727 21.1562 137.117 21.1562ZM145.742 21.1562C144.846 21.1562 144.068 20.9974 143.406 20.6797C142.745 20.3568 142.232 19.862 141.867 19.1953C141.508 18.5234 141.328 17.6641 141.328 16.6172C141.328 15.5443 141.529 14.6667 141.93 13.9844C142.336 13.3021 142.891 12.7995 143.594 12.4766C144.297 12.1536 145.094 11.9922 145.984 11.9922C146.526 11.9922 147.039 12.0521 147.523 12.1719C148.013 12.2917 148.466 12.4557 148.883 12.6641L147.984 14.9219C147.62 14.7604 147.279 14.6328 146.961 14.5391C146.648 14.4401 146.323 14.3906 145.984 14.3906C145.677 14.3906 145.406 14.4714 145.172 14.6328C144.938 14.7943 144.755 15.0391 144.625 15.3672C144.495 15.6901 144.43 16.1016 144.43 16.6016C144.43 17.112 144.495 17.5234 144.625 17.8359C144.76 18.1484 144.945 18.375 145.18 18.5156C145.419 18.6562 145.693 18.7266 146 18.7266C146.443 18.7266 146.883 18.6589 147.32 18.5234C147.763 18.3828 148.182 18.1901 148.578 17.9453V20.375C148.214 20.6146 147.802 20.8047 147.344 20.9453C146.885 21.0859 146.352 21.1562 145.742 21.1562ZM153.406 12.1484V21H150.352V12.1484H153.406ZM151.891 8.58594C152.328 8.58594 152.708 8.67708 153.031 8.85938C153.359 9.04167 153.523 9.40365 153.523 9.94531C153.523 10.4714 153.359 10.8281 153.031 11.0156C152.708 11.1979 152.328 11.2891 151.891 11.2891C151.443 11.2891 151.06 11.1979 150.742 11.0156C150.43 10.8281 150.273 10.4714 150.273 9.94531C150.273 9.40365 150.43 9.04167 150.742 8.85938C151.06 8.67708 151.443 8.58594 151.891 8.58594ZM163.992 16.5547C163.992 17.2943 163.891 17.9505 163.688 18.5234C163.484 19.0964 163.19 19.5781 162.805 19.9688C162.419 20.3594 161.953 20.6562 161.406 20.8594C160.859 21.0573 160.242 21.1562 159.555 21.1562C158.914 21.1562 158.326 21.0573 157.789 20.8594C157.258 20.6562 156.794 20.3594 156.398 19.9688C156.003 19.5781 155.695 19.0964 155.477 18.5234C155.263 17.9505 155.156 17.2943 155.156 16.5547C155.156 15.5755 155.333 14.7474 155.688 14.0703C156.047 13.3932 156.557 12.8776 157.219 12.5234C157.885 12.1693 158.68 11.9922 159.602 11.9922C160.451 11.9922 161.206 12.1693 161.867 12.5234C162.529 12.8776 163.047 13.3932 163.422 14.0703C163.802 14.7474 163.992 15.5755 163.992 16.5547ZM158.258 16.5547C158.258 17.0599 158.302 17.487 158.391 17.8359C158.479 18.1797 158.62 18.4427 158.812 18.625C159.01 18.8021 159.268 18.8906 159.586 18.8906C159.904 18.8906 160.156 18.8021 160.344 18.625C160.531 18.4427 160.667 18.1797 160.75 17.8359C160.839 17.487 160.883 17.0599 160.883 16.5547C160.883 16.0495 160.839 15.6276 160.75 15.2891C160.667 14.9505 160.529 14.6953 160.336 14.5234C160.148 14.3516 159.893 14.2656 159.57 14.2656C159.107 14.2656 158.771 14.4583 158.562 14.8438C158.359 15.2292 158.258 15.7995 158.258 16.5547ZM163.398 8.74219V8.90625C163.211 9.05729 162.971 9.24219 162.68 9.46094C162.388 9.67448 162.078 9.89844 161.75 10.1328C161.427 10.362 161.112 10.5807 160.805 10.7891C160.503 10.9974 160.242 11.1693 160.023 11.3047H157.992V11.0781C158.174 10.8802 158.393 10.6458 158.648 10.375C158.904 10.099 159.159 9.81771 159.414 9.53125C159.669 9.24479 159.883 8.98177 160.055 8.74219H163.398ZM171.281 11.9922C172.193 11.9922 172.938 12.25 173.516 12.7656C174.094 13.2812 174.383 14.1068 174.383 15.2422V21H171.328V16.1719C171.328 15.5833 171.242 15.1406 171.07 14.8438C170.904 14.5417 170.633 14.3906 170.258 14.3906C169.68 14.3906 169.292 14.6276 169.094 15.1016C168.896 15.5703 168.797 16.2448 168.797 17.125V21H165.742V12.1484H168.047L168.461 13.3203H168.578C168.766 13.0391 168.99 12.7995 169.25 12.6016C169.51 12.4036 169.81 12.2526 170.148 12.1484C170.487 12.0443 170.865 11.9922 171.281 11.9922ZM187.805 21L187.242 18.8594H183.531L182.953 21H179.562L183.289 9.53125H187.406L191.18 21H187.805ZM186.602 16.3281L186.109 14.4531C186.057 14.25 185.982 13.9609 185.883 13.5859C185.784 13.2057 185.685 12.8151 185.586 12.4141C185.492 12.0078 185.419 11.6745 185.367 11.4141C185.32 11.6745 185.253 11.9974 185.164 12.3828C185.081 12.763 184.992 13.1406 184.898 13.5156C184.81 13.8906 184.732 14.2031 184.664 14.4531L184.172 16.3281H186.602ZM200.852 12.1484V21H198.547L198.164 19.8984H197.984C197.802 20.1953 197.57 20.4375 197.289 20.625C197.013 20.8073 196.706 20.9401 196.367 21.0234C196.029 21.112 195.677 21.1562 195.312 21.1562C194.734 21.1562 194.211 21.0443 193.742 20.8203C193.279 20.5964 192.909 20.2448 192.633 19.7656C192.362 19.2865 192.227 18.6693 192.227 17.9141V12.1484H195.281V16.9844C195.281 17.5573 195.362 17.9948 195.523 18.2969C195.69 18.5938 195.961 18.7422 196.336 18.7422C196.721 18.7422 197.018 18.638 197.227 18.4297C197.44 18.2214 197.589 17.9141 197.672 17.5078C197.755 17.1016 197.797 16.6068 197.797 16.0234V12.1484H200.852ZM205.711 21.1562C204.799 21.1562 204.049 20.7682 203.461 19.9922C202.872 19.2161 202.578 18.0807 202.578 16.5859C202.578 15.0755 202.88 13.9323 203.484 13.1562C204.089 12.3802 204.87 11.9922 205.828 11.9922C206.224 11.9922 206.565 12.0495 206.852 12.1641C207.138 12.2786 207.385 12.4349 207.594 12.6328C207.807 12.8255 207.992 13.0443 208.148 13.2891H208.211C208.174 13.0651 208.141 12.7578 208.109 12.3672C208.078 11.9714 208.062 11.5859 208.062 11.2109V8.84375H211.141V21H208.836L208.18 19.8828H208.062C207.922 20.1172 207.745 20.3307 207.531 20.5234C207.323 20.7161 207.068 20.8698 206.766 20.9844C206.469 21.099 206.117 21.1562 205.711 21.1562ZM206.961 18.7422C207.451 18.7422 207.794 18.5885 207.992 18.2812C208.195 17.9688 208.305 17.4948 208.32 16.8594V16.6172C208.32 15.9193 208.221 15.3854 208.023 15.0156C207.831 14.6406 207.466 14.4531 206.93 14.4531C206.565 14.4531 206.263 14.6302 206.023 14.9844C205.784 15.3385 205.664 15.888 205.664 16.6328C205.664 17.3672 205.784 17.9036 206.023 18.2422C206.268 18.5755 206.581 18.7422 206.961 18.7422ZM216.328 12.1484V21H213.273V12.1484H216.328ZM214.812 8.58594C215.25 8.58594 215.63 8.67708 215.953 8.85938C216.281 9.04167 216.445 9.40365 216.445 9.94531C216.445 10.4714 216.281 10.8281 215.953 11.0156C215.63 11.1979 215.25 11.2891 214.812 11.2891C214.365 11.2891 213.982 11.1979 213.664 11.0156C213.352 10.8281 213.195 10.4714 213.195 9.94531C213.195 9.40365 213.352 9.04167 213.664 8.85938C213.982 8.67708 214.365 8.58594 214.812 8.58594ZM226.914 16.5547C226.914 17.2943 226.812 17.9505 226.609 18.5234C226.406 19.0964 226.112 19.5781 225.727 19.9688C225.341 20.3594 224.875 20.6562 224.328 20.8594C223.781 21.0573 223.164 21.1562 222.477 21.1562C221.836 21.1562 221.247 21.0573 220.711 20.8594C220.18 20.6562 219.716 20.3594 219.32 19.9688C218.924 19.5781 218.617 19.0964 218.398 18.5234C218.185 17.9505 218.078 17.2943 218.078 16.5547C218.078 15.5755 218.255 14.7474 218.609 14.0703C218.969 13.3932 219.479 12.8776 220.141 12.5234C220.807 12.1693 221.602 11.9922 222.523 11.9922C223.372 11.9922 224.128 12.1693 224.789 12.5234C225.451 12.8776 225.969 13.3932 226.344 14.0703C226.724 14.7474 226.914 15.5755 226.914 16.5547ZM221.18 16.5547C221.18 17.0599 221.224 17.487 221.312 17.8359C221.401 18.1797 221.542 18.4427 221.734 18.625C221.932 18.8021 222.19 18.8906 222.508 18.8906C222.826 18.8906 223.078 18.8021 223.266 18.625C223.453 18.4427 223.589 18.1797 223.672 17.8359C223.76 17.487 223.805 17.0599 223.805 16.5547C223.805 16.0495 223.76 15.6276 223.672 15.2891C223.589 14.9505 223.451 14.6953 223.258 14.5234C223.07 14.3516 222.815 14.2656 222.492 14.2656C222.029 14.2656 221.693 14.4583 221.484 14.8438C221.281 15.2292 221.18 15.7995 221.18 16.5547ZM230.984 21L227.609 12.1484H230.797L232.297 17.3828C232.312 17.4297 232.339 17.5495 232.375 17.7422C232.417 17.9349 232.438 18.1146 232.438 18.2812H232.492C232.492 18.1042 232.51 17.9349 232.547 17.7734C232.583 17.612 232.612 17.487 232.633 17.3984L234.203 12.1484H237.383L234.008 21H230.984ZM241.516 12.1484V21H238.461V12.1484H241.516ZM240 8.58594C240.438 8.58594 240.818 8.67708 241.141 8.85938C241.469 9.04167 241.633 9.40365 241.633 9.94531C241.633 10.4714 241.469 10.8281 241.141 11.0156C240.818 11.1979 240.438 11.2891 240 11.2891C239.552 11.2891 239.169 11.1979 238.852 11.0156C238.539 10.8281 238.383 10.4714 238.383 9.94531C238.383 9.40365 238.539 9.04167 238.852 8.85938C239.169 8.67708 239.552 8.58594 240 8.58594ZM250.227 18.2812C250.227 18.8438 250.102 19.3411 249.852 19.7734C249.602 20.2057 249.201 20.5443 248.648 20.7891C248.102 21.0339 247.38 21.1562 246.484 21.1562C245.854 21.1562 245.289 21.1224 244.789 21.0547C244.294 20.987 243.792 20.8568 243.281 20.6641V18.2188C243.839 18.474 244.406 18.6589 244.984 18.7734C245.562 18.8828 246.018 18.9375 246.352 18.9375C246.695 18.9375 246.945 18.901 247.102 18.8281C247.263 18.75 247.344 18.6354 247.344 18.4844C247.344 18.3542 247.289 18.2448 247.18 18.1562C247.076 18.0625 246.885 17.9557 246.609 17.8359C246.339 17.7161 245.956 17.5547 245.461 17.3516C244.971 17.1484 244.562 16.9271 244.234 16.6875C243.911 16.4479 243.669 16.1615 243.508 15.8281C243.346 15.4948 243.266 15.0859 243.266 14.6016C243.266 13.737 243.599 13.0859 244.266 12.6484C244.932 12.2109 245.815 11.9922 246.914 11.9922C247.497 11.9922 248.047 12.0573 248.562 12.1875C249.078 12.3125 249.612 12.4974 250.164 12.7422L249.328 14.7109C248.891 14.513 248.448 14.3542 248 14.2344C247.552 14.1146 247.195 14.0547 246.93 14.0547C246.69 14.0547 246.505 14.0859 246.375 14.1484C246.245 14.2109 246.18 14.3021 246.18 14.4219C246.18 14.5312 246.224 14.6276 246.312 14.7109C246.406 14.7943 246.581 14.8906 246.836 15C247.091 15.1094 247.464 15.263 247.953 15.4609C248.469 15.6693 248.893 15.8932 249.227 16.1328C249.565 16.3672 249.815 16.6536 249.977 16.9922C250.143 17.3307 250.227 17.7604 250.227 18.2812ZM260.539 12.1484V21H258.234L257.852 19.8984H257.672C257.49 20.1953 257.258 20.4375 256.977 20.625C256.701 20.8073 256.393 20.9401 256.055 21.0234C255.716 21.112 255.365 21.1562 255 21.1562C254.422 21.1562 253.898 21.0443 253.43 20.8203C252.966 20.5964 252.596 20.2448 252.32 19.7656C252.049 19.2865 251.914 18.6693 251.914 17.9141V12.1484H254.969V16.9844C254.969 17.5573 255.049 17.9948 255.211 18.2969C255.378 18.5938 255.648 18.7422 256.023 18.7422C256.409 18.7422 256.706 18.638 256.914 18.4297C257.128 18.2214 257.276 17.9141 257.359 17.5078C257.443 17.1016 257.484 16.6068 257.484 16.0234V12.1484H260.539ZM266.969 11.9922C268.089 11.9922 268.964 12.2708 269.594 12.8281C270.224 13.3802 270.539 14.1693 270.539 15.1953V21H268.422L267.836 19.8281H267.773C267.523 20.1406 267.266 20.3958 267 20.5938C266.74 20.7865 266.44 20.9271 266.102 21.0156C265.763 21.1094 265.349 21.1562 264.859 21.1562C264.349 21.1562 263.891 21.0521 263.484 20.8438C263.078 20.6354 262.758 20.3203 262.523 19.8984C262.289 19.4766 262.172 18.9427 262.172 18.2969C262.172 17.349 262.5 16.6458 263.156 16.1875C263.812 15.7292 264.763 15.4714 266.008 15.4141L267.484 15.3672V15.2422C267.484 14.8464 267.385 14.5651 267.188 14.3984C266.995 14.2318 266.734 14.1484 266.406 14.1484C266.057 14.1484 265.667 14.2109 265.234 14.3359C264.807 14.4557 264.378 14.612 263.945 14.8047L263.062 12.7891C263.573 12.5286 264.151 12.3307 264.797 12.1953C265.443 12.0599 266.167 11.9922 266.969 11.9922ZM267.5 17.0469L266.797 17.0781C266.234 17.099 265.839 17.1979 265.609 17.375C265.385 17.5469 265.273 17.7943 265.273 18.1172C265.273 18.4193 265.354 18.6432 265.516 18.7891C265.677 18.9297 265.891 19 266.156 19C266.526 19 266.841 18.8828 267.102 18.6484C267.367 18.4141 267.5 18.1094 267.5 17.7344V17.0469ZM275.672 21H272.617V8.84375H275.672V21ZM280.875 12.1484H284.094L285.594 17.2266C285.615 17.2995 285.635 17.3906 285.656 17.5C285.677 17.6042 285.695 17.7161 285.711 17.8359C285.727 17.9557 285.737 18.0729 285.742 18.1875H285.805C285.831 17.974 285.859 17.7891 285.891 17.6328C285.927 17.4714 285.961 17.3411 285.992 17.2422L287.531 12.1484H290.648L287.148 21.5625C286.878 22.2812 286.562 22.8828 286.203 23.3672C285.849 23.8568 285.409 24.224 284.883 24.4688C284.362 24.7188 283.714 24.8438 282.938 24.8438C282.656 24.8438 282.414 24.8281 282.211 24.7969C282.013 24.7708 281.839 24.7422 281.688 24.7109V22.3125C281.802 22.3333 281.943 22.3542 282.109 22.375C282.276 22.3958 282.451 22.4062 282.633 22.4062C282.971 22.4062 283.245 22.3385 283.453 22.2031C283.667 22.0677 283.841 21.888 283.977 21.6641C284.112 21.4453 284.229 21.2083 284.328 20.9531L284.359 20.875L280.875 12.1484ZM102.32 33.9453C101.956 33.9453 101.63 34.0234 101.344 34.1797C101.057 34.3307 100.812 34.5521 100.609 34.8438C100.406 35.1354 100.25 35.4922 100.141 35.9141C100.036 36.3307 99.9844 36.8047 99.9844 37.3359C99.9844 38.0547 100.076 38.6589 100.258 39.1484C100.44 39.638 100.716 40.0078 101.086 40.2578C101.461 40.5078 101.93 40.6328 102.492 40.6328C103.003 40.6328 103.492 40.5625 103.961 40.4219C104.435 40.2812 104.911 40.112 105.391 39.9141V42.5234C104.885 42.7474 104.367 42.9089 103.836 43.0078C103.31 43.1068 102.75 43.1562 102.156 43.1562C100.917 43.1562 99.901 42.9115 99.1094 42.4219C98.3229 41.9271 97.7422 41.2422 97.3672 40.3672C96.9974 39.4922 96.8125 38.4766 96.8125 37.3203C96.8125 36.4557 96.9323 35.6641 97.1719 34.9453C97.4167 34.2266 97.7734 33.6042 98.2422 33.0781C98.7109 32.5469 99.2891 32.138 99.9766 31.8516C100.669 31.5599 101.461 31.4141 102.352 31.4141C102.904 31.4141 103.484 31.4792 104.094 31.6094C104.708 31.7344 105.307 31.9375 105.891 32.2188L104.945 34.6484C104.529 34.4505 104.107 34.2839 103.68 34.1484C103.253 34.013 102.799 33.9453 102.32 33.9453ZM112.789 33.9922C112.956 33.9922 113.13 34.0052 113.312 34.0312C113.495 34.0521 113.63 34.0703 113.719 34.0859L113.445 36.9688C113.346 36.9427 113.219 36.9219 113.062 36.9062C112.906 36.8854 112.688 36.875 112.406 36.875C112.214 36.875 112.008 36.8932 111.789 36.9297C111.57 36.9661 111.362 37.0443 111.164 37.1641C110.971 37.2786 110.812 37.4557 110.688 37.6953C110.562 37.9297 110.5 38.2474 110.5 38.6484V43H107.445V34.1484H109.719L110.195 35.5625H110.344C110.505 35.2708 110.711 35.0078 110.961 34.7734C111.216 34.5339 111.5 34.3438 111.812 34.2031C112.13 34.0625 112.456 33.9922 112.789 33.9922ZM118.945 33.9922C119.805 33.9922 120.547 34.1432 121.172 34.4453C121.797 34.7422 122.279 35.1901 122.617 35.7891C122.956 36.388 123.125 37.138 123.125 38.0391V39.3984H117.664C117.69 39.862 117.862 40.2422 118.18 40.5391C118.503 40.8359 118.977 40.9844 119.602 40.9844C120.154 40.9844 120.659 40.9297 121.117 40.8203C121.581 40.7109 122.057 40.5417 122.547 40.3125V42.5078C122.12 42.7318 121.654 42.8958 121.148 43C120.643 43.1042 120.005 43.1562 119.234 43.1562C118.344 43.1562 117.547 42.9974 116.844 42.6797C116.141 42.362 115.586 41.8698 115.18 41.2031C114.779 40.5365 114.578 39.6797 114.578 38.6328C114.578 37.5703 114.76 36.6979 115.125 36.0156C115.49 35.3281 116 34.8203 116.656 34.4922C117.312 34.1589 118.076 33.9922 118.945 33.9922ZM119.055 36.0703C118.695 36.0703 118.393 36.1849 118.148 36.4141C117.909 36.638 117.768 36.9922 117.727 37.4766H120.352C120.346 37.2161 120.294 36.9792 120.195 36.7656C120.096 36.5521 119.951 36.3828 119.758 36.2578C119.57 36.1328 119.336 36.0703 119.055 36.0703ZM129.172 33.9922C130.292 33.9922 131.167 34.2708 131.797 34.8281C132.427 35.3802 132.742 36.1693 132.742 37.1953V43H130.625L130.039 41.8281H129.977C129.727 42.1406 129.469 42.3958 129.203 42.5938C128.943 42.7865 128.643 42.9271 128.305 43.0156C127.966 43.1094 127.552 43.1562 127.062 43.1562C126.552 43.1562 126.094 43.0521 125.688 42.8438C125.281 42.6354 124.961 42.3203 124.727 41.8984C124.492 41.4766 124.375 40.9427 124.375 40.2969C124.375 39.349 124.703 38.6458 125.359 38.1875C126.016 37.7292 126.966 37.4714 128.211 37.4141L129.688 37.3672V37.2422C129.688 36.8464 129.589 36.5651 129.391 36.3984C129.198 36.2318 128.938 36.1484 128.609 36.1484C128.26 36.1484 127.87 36.2109 127.438 36.3359C127.01 36.4557 126.581 36.612 126.148 36.8047L125.266 34.7891C125.776 34.5286 126.354 34.3307 127 34.1953C127.646 34.0599 128.37 33.9922 129.172 33.9922ZM129.703 39.0469L129 39.0781C128.438 39.099 128.042 39.1979 127.812 39.375C127.589 39.5469 127.477 39.7943 127.477 40.1172C127.477 40.4193 127.557 40.6432 127.719 40.7891C127.88 40.9297 128.094 41 128.359 41C128.729 41 129.044 40.8828 129.305 40.6484C129.57 40.4141 129.703 40.1094 129.703 39.7344V39.0469ZM138.852 43.1562C137.956 43.1562 137.177 42.9974 136.516 42.6797C135.854 42.3568 135.341 41.862 134.977 41.1953C134.617 40.5234 134.438 39.6641 134.438 38.6172C134.438 37.5443 134.638 36.6667 135.039 35.9844C135.445 35.3021 136 34.7995 136.703 34.4766C137.406 34.1536 138.203 33.9922 139.094 33.9922C139.635 33.9922 140.148 34.0521 140.633 34.1719C141.122 34.2917 141.576 34.4557 141.992 34.6641L141.094 36.9219C140.729 36.7604 140.388 36.6328 140.07 36.5391C139.758 36.4401 139.432 36.3906 139.094 36.3906C138.786 36.3906 138.516 36.4714 138.281 36.6328C138.047 36.7943 137.865 37.0391 137.734 37.3672C137.604 37.6901 137.539 38.1016 137.539 38.6016C137.539 39.112 137.604 39.5234 137.734 39.8359C137.87 40.1484 138.055 40.375 138.289 40.5156C138.529 40.6562 138.802 40.7266 139.109 40.7266C139.552 40.7266 139.992 40.6589 140.43 40.5234C140.872 40.3828 141.292 40.1901 141.688 39.9453V42.375C141.323 42.6146 140.911 42.8047 140.453 42.9453C139.995 43.0859 139.461 43.1562 138.852 43.1562ZM146.516 34.1484V43H143.461V34.1484H146.516ZM145 30.5859C145.438 30.5859 145.818 30.6771 146.141 30.8594C146.469 31.0417 146.633 31.4036 146.633 31.9453C146.633 32.4714 146.469 32.8281 146.141 33.0156C145.818 33.1979 145.438 33.2891 145 33.2891C144.552 33.2891 144.169 33.1979 143.852 33.0156C143.539 32.8281 143.383 32.4714 143.383 31.9453C143.383 31.4036 143.539 31.0417 143.852 30.8594C144.169 30.6771 144.552 30.5859 145 30.5859ZM157.102 38.5547C157.102 39.2943 157 39.9505 156.797 40.5234C156.594 41.0964 156.299 41.5781 155.914 41.9688C155.529 42.3594 155.062 42.6562 154.516 42.8594C153.969 43.0573 153.352 43.1562 152.664 43.1562C152.023 43.1562 151.435 43.0573 150.898 42.8594C150.367 42.6562 149.904 42.3594 149.508 41.9688C149.112 41.5781 148.805 41.0964 148.586 40.5234C148.372 39.9505 148.266 39.2943 148.266 38.5547C148.266 37.5755 148.443 36.7474 148.797 36.0703C149.156 35.3932 149.667 34.8776 150.328 34.5234C150.995 34.1693 151.789 33.9922 152.711 33.9922C153.56 33.9922 154.315 34.1693 154.977 34.5234C155.638 34.8776 156.156 35.3932 156.531 36.0703C156.911 36.7474 157.102 37.5755 157.102 38.5547ZM151.367 38.5547C151.367 39.0599 151.411 39.487 151.5 39.8359C151.589 40.1797 151.729 40.4427 151.922 40.625C152.12 40.8021 152.378 40.8906 152.695 40.8906C153.013 40.8906 153.266 40.8021 153.453 40.625C153.641 40.4427 153.776 40.1797 153.859 39.8359C153.948 39.487 153.992 39.0599 153.992 38.5547C153.992 38.0495 153.948 37.6276 153.859 37.2891C153.776 36.9505 153.638 36.6953 153.445 36.5234C153.258 36.3516 153.003 36.2656 152.68 36.2656C152.216 36.2656 151.88 36.4583 151.672 36.8438C151.469 37.2292 151.367 37.7995 151.367 38.5547ZM156.508 30.7422V30.9062C156.32 31.0573 156.081 31.2422 155.789 31.4609C155.497 31.6745 155.188 31.8984 154.859 32.1328C154.536 32.362 154.221 32.5807 153.914 32.7891C153.612 32.9974 153.352 33.1693 153.133 33.3047H151.102V33.0781C151.284 32.8802 151.503 32.6458 151.758 32.375C152.013 32.099 152.268 31.8177 152.523 31.5312C152.779 31.2448 152.992 30.9818 153.164 30.7422H156.508ZM164.391 33.9922C165.302 33.9922 166.047 34.25 166.625 34.7656C167.203 35.2812 167.492 36.1068 167.492 37.2422V43H164.438V38.1719C164.438 37.5833 164.352 37.1406 164.18 36.8438C164.013 36.5417 163.742 36.3906 163.367 36.3906C162.789 36.3906 162.401 36.6276 162.203 37.1016C162.005 37.5703 161.906 38.2448 161.906 39.125V43H158.852V34.1484H161.156L161.57 35.3203H161.688C161.875 35.0391 162.099 34.7995 162.359 34.6016C162.62 34.4036 162.919 34.2526 163.258 34.1484C163.596 34.0443 163.974 33.9922 164.391 33.9922ZM176.477 43.1562C175.565 43.1562 174.815 42.7682 174.227 41.9922C173.638 41.2161 173.344 40.0807 173.344 38.5859C173.344 37.0755 173.646 35.9323 174.25 35.1562C174.854 34.3802 175.635 33.9922 176.594 33.9922C176.99 33.9922 177.331 34.0495 177.617 34.1641C177.904 34.2786 178.151 34.4349 178.359 34.6328C178.573 34.8255 178.758 35.0443 178.914 35.2891H178.977C178.94 35.0651 178.906 34.7578 178.875 34.3672C178.844 33.9714 178.828 33.5859 178.828 33.2109V30.8438H181.906V43H179.602L178.945 41.8828H178.828C178.688 42.1172 178.51 42.3307 178.297 42.5234C178.089 42.7161 177.833 42.8698 177.531 42.9844C177.234 43.099 176.883 43.1562 176.477 43.1562ZM177.727 40.7422C178.216 40.7422 178.56 40.5885 178.758 40.2812C178.961 39.9688 179.07 39.4948 179.086 38.8594V38.6172C179.086 37.9193 178.987 37.3854 178.789 37.0156C178.596 36.6406 178.232 36.4531 177.695 36.4531C177.331 36.4531 177.029 36.6302 176.789 36.9844C176.549 37.3385 176.43 37.888 176.43 38.6328C176.43 39.3672 176.549 39.9036 176.789 40.2422C177.034 40.5755 177.346 40.7422 177.727 40.7422ZM188.008 33.9922C188.867 33.9922 189.609 34.1432 190.234 34.4453C190.859 34.7422 191.341 35.1901 191.68 35.7891C192.018 36.388 192.188 37.138 192.188 38.0391V39.3984H186.727C186.753 39.862 186.924 40.2422 187.242 40.5391C187.565 40.8359 188.039 40.9844 188.664 40.9844C189.216 40.9844 189.721 40.9297 190.18 40.8203C190.643 40.7109 191.12 40.5417 191.609 40.3125V42.5078C191.182 42.7318 190.716 42.8958 190.211 43C189.706 43.1042 189.068 43.1562 188.297 43.1562C187.406 43.1562 186.609 42.9974 185.906 42.6797C185.203 42.362 184.648 41.8698 184.242 41.2031C183.841 40.5365 183.641 39.6797 183.641 38.6328C183.641 37.5703 183.823 36.6979 184.188 36.0156C184.552 35.3281 185.062 34.8203 185.719 34.4922C186.375 34.1589 187.138 33.9922 188.008 33.9922ZM188.117 36.0703C187.758 36.0703 187.456 36.1849 187.211 36.4141C186.971 36.638 186.831 36.9922 186.789 37.4766H189.414C189.409 37.2161 189.357 36.9792 189.258 36.7656C189.159 36.5521 189.013 36.3828 188.82 36.2578C188.633 36.1328 188.398 36.0703 188.117 36.0703ZM203.336 33.9453C202.971 33.9453 202.646 34.0234 202.359 34.1797C202.073 34.3307 201.828 34.5521 201.625 34.8438C201.422 35.1354 201.266 35.4922 201.156 35.9141C201.052 36.3307 201 36.8047 201 37.3359C201 38.0547 201.091 38.6589 201.273 39.1484C201.456 39.638 201.732 40.0078 202.102 40.2578C202.477 40.5078 202.945 40.6328 203.508 40.6328C204.018 40.6328 204.508 40.5625 204.977 40.4219C205.451 40.2812 205.927 40.112 206.406 39.9141V42.5234C205.901 42.7474 205.383 42.9089 204.852 43.0078C204.326 43.1068 203.766 43.1562 203.172 43.1562C201.932 43.1562 200.917 42.9115 200.125 42.4219C199.339 41.9271 198.758 41.2422 198.383 40.3672C198.013 39.4922 197.828 38.4766 197.828 37.3203C197.828 36.4557 197.948 35.6641 198.188 34.9453C198.432 34.2266 198.789 33.6042 199.258 33.0781C199.727 32.5469 200.305 32.138 200.992 31.8516C201.685 31.5599 202.477 31.4141 203.367 31.4141C203.919 31.4141 204.5 31.4792 205.109 31.6094C205.724 31.7344 206.323 31.9375 206.906 32.2188L205.961 34.6484C205.544 34.4505 205.122 34.2839 204.695 34.1484C204.268 34.013 203.815 33.9453 203.336 33.9453ZM216.914 38.5547C216.914 39.2943 216.812 39.9505 216.609 40.5234C216.406 41.0964 216.112 41.5781 215.727 41.9688C215.341 42.3594 214.875 42.6562 214.328 42.8594C213.781 43.0573 213.164 43.1562 212.477 43.1562C211.836 43.1562 211.247 43.0573 210.711 42.8594C210.18 42.6562 209.716 42.3594 209.32 41.9688C208.924 41.5781 208.617 41.0964 208.398 40.5234C208.185 39.9505 208.078 39.2943 208.078 38.5547C208.078 37.5755 208.255 36.7474 208.609 36.0703C208.969 35.3932 209.479 34.8776 210.141 34.5234C210.807 34.1693 211.602 33.9922 212.523 33.9922C213.372 33.9922 214.128 34.1693 214.789 34.5234C215.451 34.8776 215.969 35.3932 216.344 36.0703C216.724 36.7474 216.914 37.5755 216.914 38.5547ZM211.18 38.5547C211.18 39.0599 211.224 39.487 211.312 39.8359C211.401 40.1797 211.542 40.4427 211.734 40.625C211.932 40.8021 212.19 40.8906 212.508 40.8906C212.826 40.8906 213.078 40.8021 213.266 40.625C213.453 40.4427 213.589 40.1797 213.672 39.8359C213.76 39.487 213.805 39.0599 213.805 38.5547C213.805 38.0495 213.76 37.6276 213.672 37.2891C213.589 36.9505 213.451 36.6953 213.258 36.5234C213.07 36.3516 212.815 36.2656 212.492 36.2656C212.029 36.2656 211.693 36.4583 211.484 36.8438C211.281 37.2292 211.18 37.7995 211.18 38.5547ZM224.203 33.9922C225.115 33.9922 225.859 34.25 226.438 34.7656C227.016 35.2812 227.305 36.1068 227.305 37.2422V43H224.25V38.1719C224.25 37.5833 224.164 37.1406 223.992 36.8438C223.826 36.5417 223.555 36.3906 223.18 36.3906C222.602 36.3906 222.214 36.6276 222.016 37.1016C221.818 37.5703 221.719 38.2448 221.719 39.125V43H218.664V34.1484H220.969L221.383 35.3203H221.5C221.688 35.0391 221.911 34.7995 222.172 34.6016C222.432 34.4036 222.732 34.2526 223.07 34.1484C223.409 34.0443 223.786 33.9922 224.203 33.9922ZM233.719 40.7422C233.995 40.7422 234.247 40.7135 234.477 40.6562C234.706 40.599 234.945 40.526 235.195 40.4375V42.6641C234.862 42.8099 234.508 42.9271 234.133 43.0156C233.763 43.1094 233.289 43.1562 232.711 43.1562C232.138 43.1562 231.633 43.0677 231.195 42.8906C230.758 42.7083 230.417 42.3958 230.172 41.9531C229.932 41.5052 229.812 40.8828 229.812 40.0859V36.4375H228.742V35.1953L230.102 34.2344L230.891 32.375H232.891V34.1484H235.062V36.4375H232.891V39.8828C232.891 40.1693 232.964 40.3854 233.109 40.5312C233.255 40.6719 233.458 40.7422 233.719 40.7422ZM240.727 33.9922C241.586 33.9922 242.328 34.1432 242.953 34.4453C243.578 34.7422 244.06 35.1901 244.398 35.7891C244.737 36.388 244.906 37.138 244.906 38.0391V39.3984H239.445C239.471 39.862 239.643 40.2422 239.961 40.5391C240.284 40.8359 240.758 40.9844 241.383 40.9844C241.935 40.9844 242.44 40.9297 242.898 40.8203C243.362 40.7109 243.839 40.5417 244.328 40.3125V42.5078C243.901 42.7318 243.435 42.8958 242.93 43C242.424 43.1042 241.786 43.1562 241.016 43.1562C240.125 43.1562 239.328 42.9974 238.625 42.6797C237.922 42.362 237.367 41.8698 236.961 41.2031C236.56 40.5365 236.359 39.6797 236.359 38.6328C236.359 37.5703 236.542 36.6979 236.906 36.0156C237.271 35.3281 237.781 34.8203 238.438 34.4922C239.094 34.1589 239.857 33.9922 240.727 33.9922ZM240.836 36.0703C240.477 36.0703 240.174 36.1849 239.93 36.4141C239.69 36.638 239.549 36.9922 239.508 37.4766H242.133C242.128 37.2161 242.076 36.9792 241.977 36.7656C241.878 36.5521 241.732 36.3828 241.539 36.2578C241.352 36.1328 241.117 36.0703 240.836 36.0703ZM252.172 33.9922C253.083 33.9922 253.828 34.25 254.406 34.7656C254.984 35.2812 255.273 36.1068 255.273 37.2422V43H252.219V38.1719C252.219 37.5833 252.133 37.1406 251.961 36.8438C251.794 36.5417 251.523 36.3906 251.148 36.3906C250.57 36.3906 250.182 36.6276 249.984 37.1016C249.786 37.5703 249.688 38.2448 249.688 39.125V43H246.633V34.1484H248.938L249.352 35.3203H249.469C249.656 35.0391 249.88 34.7995 250.141 34.6016C250.401 34.4036 250.701 34.2526 251.039 34.1484C251.378 34.0443 251.755 33.9922 252.172 33.9922ZM260.422 34.1484V43H257.367V34.1484H260.422ZM258.906 30.5859C259.344 30.5859 259.724 30.6771 260.047 30.8594C260.375 31.0417 260.539 31.4036 260.539 31.9453C260.539 32.4714 260.375 32.8281 260.047 33.0156C259.724 33.1979 259.344 33.2891 258.906 33.2891C258.458 33.2891 258.076 33.1979 257.758 33.0156C257.445 32.8281 257.289 32.4714 257.289 31.9453C257.289 31.4036 257.445 31.0417 257.758 30.8594C258.076 30.6771 258.458 30.5859 258.906 30.5859ZM265.305 43.1562C264.393 43.1562 263.643 42.7682 263.055 41.9922C262.466 41.2161 262.172 40.0807 262.172 38.5859C262.172 37.0755 262.474 35.9323 263.078 35.1562C263.682 34.3802 264.464 33.9922 265.422 33.9922C265.818 33.9922 266.159 34.0495 266.445 34.1641C266.732 34.2786 266.979 34.4349 267.188 34.6328C267.401 34.8255 267.586 35.0443 267.742 35.2891H267.805C267.768 35.0651 267.734 34.7578 267.703 34.3672C267.672 33.9714 267.656 33.5859 267.656 33.2109V30.8438H270.734V43H268.43L267.773 41.8828H267.656C267.516 42.1172 267.339 42.3307 267.125 42.5234C266.917 42.7161 266.661 42.8698 266.359 42.9844C266.062 43.099 265.711 43.1562 265.305 43.1562ZM266.555 40.7422C267.044 40.7422 267.388 40.5885 267.586 40.2812C267.789 39.9688 267.898 39.4948 267.914 38.8594V38.6172C267.914 37.9193 267.815 37.3854 267.617 37.0156C267.424 36.6406 267.06 36.4531 266.523 36.4531C266.159 36.4531 265.857 36.6302 265.617 36.9844C265.378 37.3385 265.258 37.888 265.258 38.6328C265.258 39.3672 265.378 39.9036 265.617 40.2422C265.862 40.5755 266.174 40.7422 266.555 40.7422ZM281.305 38.5547C281.305 39.2943 281.203 39.9505 281 40.5234C280.797 41.0964 280.503 41.5781 280.117 41.9688C279.732 42.3594 279.266 42.6562 278.719 42.8594C278.172 43.0573 277.555 43.1562 276.867 43.1562C276.227 43.1562 275.638 43.0573 275.102 42.8594C274.57 42.6562 274.107 42.3594 273.711 41.9688C273.315 41.5781 273.008 41.0964 272.789 40.5234C272.576 39.9505 272.469 39.2943 272.469 38.5547C272.469 37.5755 272.646 36.7474 273 36.0703C273.359 35.3932 273.87 34.8776 274.531 34.5234C275.198 34.1693 275.992 33.9922 276.914 33.9922C277.763 33.9922 278.518 34.1693 279.18 34.5234C279.841 34.8776 280.359 35.3932 280.734 36.0703C281.115 36.7474 281.305 37.5755 281.305 38.5547ZM275.57 38.5547C275.57 39.0599 275.615 39.487 275.703 39.8359C275.792 40.1797 275.932 40.4427 276.125 40.625C276.323 40.8021 276.581 40.8906 276.898 40.8906C277.216 40.8906 277.469 40.8021 277.656 40.625C277.844 40.4427 277.979 40.1797 278.062 39.8359C278.151 39.487 278.195 39.0599 278.195 38.5547C278.195 38.0495 278.151 37.6276 278.062 37.2891C277.979 36.9505 277.841 36.6953 277.648 36.5234C277.461 36.3516 277.206 36.2656 276.883 36.2656C276.419 36.2656 276.083 36.4583 275.875 36.8438C275.672 37.2292 275.57 37.7995 275.57 38.5547Z" fill="white"/>
<defs>
<linearGradient id="paint0_linear_2356_1815" x1="375" y1="52.0003" x2="4.82477" y2="52.0003" gradientUnits="userSpaceOnUse">
<stop stop-color="#C2157D" stop-opacity="0.49"/>
<stop offset="0.523958" stop-color="#A01706"/>
<stop offset="1" stop-color="#C2157D" stop-opacity="0.46"/>
</linearGradient>
</defs>
</svg>
