<svg width="375" height="37" viewBox="0 0 375 37" fill="none" xmlns="http://www.w3.org/2000/svg">
<rect width="375" height="37" fill="url(#paint0_linear_2356_1811)"/>
<path d="M29.5703 25L27.2344 16.7734H27.1641C27.1849 16.987 27.2057 17.276 27.2266 17.6406C27.2526 18.0052 27.276 18.3984 27.2969 18.8203C27.3177 19.2422 27.3281 19.6484 27.3281 20.0391V25H24.5938V13.5781H28.7031L31.0859 21.6875H31.1484L33.4844 13.5781H37.6016V25H34.7656V19.9922C34.7656 19.6328 34.7708 19.2474 34.7812 18.8359C34.7969 18.4193 34.8125 18.0286 34.8281 17.6641C34.849 17.2943 34.8672 17.0026 34.8828 16.7891H34.8125L32.5078 25H29.5703ZM43.8672 15.9922C44.7266 15.9922 45.4688 16.1432 46.0938 16.4453C46.7188 16.7422 47.2005 17.1901 47.5391 17.7891C47.8776 18.388 48.0469 19.138 48.0469 20.0391V21.3984H42.5859C42.612 21.862 42.7839 22.2422 43.1016 22.5391C43.4245 22.8359 43.8984 22.9844 44.5234 22.9844C45.0755 22.9844 45.5807 22.9297 46.0391 22.8203C46.5026 22.7109 46.9792 22.5417 47.4688 22.3125V24.5078C47.0417 24.7318 46.5755 24.8958 46.0703 25C45.5651 25.1042 44.9271 25.1562 44.1562 25.1562C43.2656 25.1562 42.4688 24.9974 41.7656 24.6797C41.0625 24.362 40.5078 23.8698 40.1016 23.2031C39.7005 22.5365 39.5 21.6797 39.5 20.6328C39.5 19.5703 39.6823 18.6979 40.0469 18.0156C40.4115 17.3281 40.9219 16.8203 41.5781 16.4922C42.2344 16.1589 42.9974 15.9922 43.8672 15.9922ZM43.9766 18.0703C43.6172 18.0703 43.3151 18.1849 43.0703 18.4141C42.8307 18.638 42.6901 18.9922 42.6484 19.4766H45.2734C45.2682 19.2161 45.2161 18.9792 45.1172 18.7656C45.0182 18.5521 44.8724 18.3828 44.6797 18.2578C44.4922 18.1328 44.2578 18.0703 43.9766 18.0703ZM52.5234 25.1562C51.612 25.1562 50.862 24.7682 50.2734 23.9922C49.6849 23.2161 49.3906 22.0807 49.3906 20.5859C49.3906 19.0755 49.6927 17.9323 50.2969 17.1562C50.901 16.3802 51.6823 15.9922 52.6406 15.9922C53.0365 15.9922 53.3776 16.0495 53.6641 16.1641C53.9505 16.2786 54.1979 16.4349 54.4062 16.6328C54.6198 16.8255 54.8047 17.0443 54.9609 17.2891H55.0234C54.987 17.0651 54.9531 16.7578 54.9219 16.3672C54.8906 15.9714 54.875 15.5859 54.875 15.2109V12.8438H57.9531V25H55.6484L54.9922 23.8828H54.875C54.7344 24.1172 54.5573 24.3307 54.3438 24.5234C54.1354 24.7161 53.8802 24.8698 53.5781 24.9844C53.2812 25.099 52.9297 25.1562 52.5234 25.1562ZM53.7734 22.7422C54.263 22.7422 54.6068 22.5885 54.8047 22.2812C55.0078 21.9688 55.1172 21.4948 55.1328 20.8594V20.6172C55.1328 19.9193 55.0339 19.3854 54.8359 19.0156C54.6432 18.6406 54.2786 18.4531 53.7422 18.4531C53.3776 18.4531 53.0755 18.6302 52.8359 18.9844C52.5964 19.3385 52.4766 19.888 52.4766 20.6328C52.4766 21.3672 52.5964 21.9036 52.8359 22.2422C53.0807 22.5755 53.3932 22.7422 53.7734 22.7422ZM63.1406 16.1484V25H60.0859V16.1484H63.1406ZM61.625 12.5859C62.0625 12.5859 62.4427 12.6771 62.7656 12.8594C63.0938 13.0417 63.2578 13.4036 63.2578 13.9453C63.2578 14.4714 63.0938 14.8281 62.7656 15.0156C62.4427 15.1979 62.0625 15.2891 61.625 15.2891C61.1771 15.2891 60.7943 15.1979 60.4766 15.0156C60.1641 14.8281 60.0078 14.4714 60.0078 13.9453C60.0078 13.4036 60.1641 13.0417 60.4766 12.8594C60.7943 12.6771 61.1771 12.5859 61.625 12.5859ZM69.5938 15.9922C70.7135 15.9922 71.5885 16.2708 72.2188 16.8281C72.849 17.3802 73.1641 18.1693 73.1641 19.1953V25H71.0469L70.4609 23.8281H70.3984C70.1484 24.1406 69.8906 24.3958 69.625 24.5938C69.3646 24.7865 69.0651 24.9271 68.7266 25.0156C68.388 25.1094 67.974 25.1562 67.4844 25.1562C66.974 25.1562 66.5156 25.0521 66.1094 24.8438C65.7031 24.6354 65.3828 24.3203 65.1484 23.8984C64.9141 23.4766 64.7969 22.9427 64.7969 22.2969C64.7969 21.349 65.125 20.6458 65.7812 20.1875C66.4375 19.7292 67.388 19.4714 68.6328 19.4141L70.1094 19.3672V19.2422C70.1094 18.8464 70.0104 18.5651 69.8125 18.3984C69.6198 18.2318 69.3594 18.1484 69.0312 18.1484C68.6823 18.1484 68.2917 18.2109 67.8594 18.3359C67.4323 18.4557 67.0026 18.612 66.5703 18.8047L65.6875 16.7891C66.1979 16.5286 66.776 16.3307 67.4219 16.1953C68.0677 16.0599 68.7917 15.9922 69.5938 15.9922ZM70.125 21.0469L69.4219 21.0781C68.8594 21.099 68.4635 21.1979 68.2344 21.375C68.0104 21.5469 67.8984 21.7943 67.8984 22.1172C67.8984 22.4193 67.9792 22.6432 68.1406 22.7891C68.3021 22.9297 68.5156 23 68.7812 23C69.151 23 69.4661 22.8828 69.7266 22.6484C69.9922 22.4141 70.125 22.1094 70.125 21.7344V21.0469ZM83.5312 13.5781C84.9792 13.5781 86.0625 13.8932 86.7812 14.5234C87.5052 15.1536 87.8672 16.0495 87.8672 17.2109C87.8672 17.7318 87.7917 18.2318 87.6406 18.7109C87.4948 19.1901 87.2526 19.6172 86.9141 19.9922C86.5807 20.3672 86.1354 20.6641 85.5781 20.8828C85.026 21.1016 84.3438 21.2109 83.5312 21.2109H82.6641V25H79.5781V13.5781H83.5312ZM83.4609 16.0703H82.6641V18.6953H83.2734C83.5391 18.6953 83.7865 18.651 84.0156 18.5625C84.2448 18.4688 84.4271 18.3203 84.5625 18.1172C84.7031 17.9089 84.7734 17.6328 84.7734 17.2891C84.7734 16.9297 84.6667 16.638 84.4531 16.4141C84.2396 16.1849 83.9089 16.0703 83.4609 16.0703ZM94.8516 15.9922C95.0182 15.9922 95.1927 16.0052 95.375 16.0312C95.5573 16.0521 95.6927 16.0703 95.7812 16.0859L95.5078 18.9688C95.4089 18.9427 95.2812 18.9219 95.125 18.9062C94.9688 18.8854 94.75 18.875 94.4688 18.875C94.276 18.875 94.0703 18.8932 93.8516 18.9297C93.6328 18.9661 93.4245 19.0443 93.2266 19.1641C93.0339 19.2786 92.875 19.4557 92.75 19.6953C92.625 19.9297 92.5625 20.2474 92.5625 20.6484V25H89.5078V16.1484H91.7812L92.2578 17.5625H92.4062C92.5677 17.2708 92.7734 17.0078 93.0234 16.7734C93.2786 16.5339 93.5625 16.3438 93.875 16.2031C94.1927 16.0625 94.5182 15.9922 94.8516 15.9922ZM105.477 20.5547C105.477 21.2943 105.375 21.9505 105.172 22.5234C104.969 23.0964 104.674 23.5781 104.289 23.9688C103.904 24.3594 103.438 24.6562 102.891 24.8594C102.344 25.0573 101.727 25.1562 101.039 25.1562C100.398 25.1562 99.8099 25.0573 99.2734 24.8594C98.7422 24.6562 98.2786 24.3594 97.8828 23.9688C97.487 23.5781 97.1797 23.0964 96.9609 22.5234C96.7474 21.9505 96.6406 21.2943 96.6406 20.5547C96.6406 19.5755 96.8177 18.7474 97.1719 18.0703C97.5312 17.3932 98.0417 16.8776 98.7031 16.5234C99.3698 16.1693 100.164 15.9922 101.086 15.9922C101.935 15.9922 102.69 16.1693 103.352 16.5234C104.013 16.8776 104.531 17.3932 104.906 18.0703C105.286 18.7474 105.477 19.5755 105.477 20.5547ZM99.7422 20.5547C99.7422 21.0599 99.7865 21.487 99.875 21.8359C99.9635 22.1797 100.104 22.4427 100.297 22.625C100.495 22.8021 100.753 22.8906 101.07 22.8906C101.388 22.8906 101.641 22.8021 101.828 22.625C102.016 22.4427 102.151 22.1797 102.234 21.8359C102.323 21.487 102.367 21.0599 102.367 20.5547C102.367 20.0495 102.323 19.6276 102.234 19.2891C102.151 18.9505 102.013 18.6953 101.82 18.5234C101.633 18.3516 101.378 18.2656 101.055 18.2656C100.591 18.2656 100.255 18.4583 100.047 18.8438C99.8438 19.2292 99.7422 19.7995 99.7422 20.5547ZM109.977 25.1562C109.065 25.1562 108.315 24.7682 107.727 23.9922C107.138 23.2161 106.844 22.0807 106.844 20.5859C106.844 19.0755 107.146 17.9323 107.75 17.1562C108.354 16.3802 109.135 15.9922 110.094 15.9922C110.49 15.9922 110.831 16.0495 111.117 16.1641C111.404 16.2786 111.651 16.4349 111.859 16.6328C112.073 16.8255 112.258 17.0443 112.414 17.2891H112.477C112.44 17.0651 112.406 16.7578 112.375 16.3672C112.344 15.9714 112.328 15.5859 112.328 15.2109V12.8438H115.406V25H113.102L112.445 23.8828H112.328C112.188 24.1172 112.01 24.3307 111.797 24.5234C111.589 24.7161 111.333 24.8698 111.031 24.9844C110.734 25.099 110.383 25.1562 109.977 25.1562ZM111.227 22.7422C111.716 22.7422 112.06 22.5885 112.258 22.2812C112.461 21.9688 112.57 21.4948 112.586 20.8594V20.6172C112.586 19.9193 112.487 19.3854 112.289 19.0156C112.096 18.6406 111.732 18.4531 111.195 18.4531C110.831 18.4531 110.529 18.6302 110.289 18.9844C110.049 19.3385 109.93 19.888 109.93 20.6328C109.93 21.3672 110.049 21.9036 110.289 22.2422C110.534 22.5755 110.846 22.7422 111.227 22.7422ZM126.133 16.1484V25H123.828L123.445 23.8984H123.266C123.083 24.1953 122.852 24.4375 122.57 24.625C122.294 24.8073 121.987 24.9401 121.648 25.0234C121.31 25.112 120.958 25.1562 120.594 25.1562C120.016 25.1562 119.492 25.0443 119.023 24.8203C118.56 24.5964 118.19 24.2448 117.914 23.7656C117.643 23.2865 117.508 22.6693 117.508 21.9141V16.1484H120.562V20.9844C120.562 21.5573 120.643 21.9948 120.805 22.2969C120.971 22.5938 121.242 22.7422 121.617 22.7422C122.003 22.7422 122.299 22.638 122.508 22.4297C122.721 22.2214 122.87 21.9141 122.953 21.5078C123.036 21.1016 123.078 20.6068 123.078 20.0234V16.1484H126.133ZM132.273 25.1562C131.378 25.1562 130.599 24.9974 129.938 24.6797C129.276 24.3568 128.763 23.862 128.398 23.1953C128.039 22.5234 127.859 21.6641 127.859 20.6172C127.859 19.5443 128.06 18.6667 128.461 17.9844C128.867 17.3021 129.422 16.7995 130.125 16.4766C130.828 16.1536 131.625 15.9922 132.516 15.9922C133.057 15.9922 133.57 16.0521 134.055 16.1719C134.544 16.2917 134.997 16.4557 135.414 16.6641L134.516 18.9219C134.151 18.7604 133.81 18.6328 133.492 18.5391C133.18 18.4401 132.854 18.3906 132.516 18.3906C132.208 18.3906 131.938 18.4714 131.703 18.6328C131.469 18.7943 131.286 19.0391 131.156 19.3672C131.026 19.6901 130.961 20.1016 130.961 20.6016C130.961 21.112 131.026 21.5234 131.156 21.8359C131.292 22.1484 131.477 22.375 131.711 22.5156C131.951 22.6562 132.224 22.7266 132.531 22.7266C132.974 22.7266 133.414 22.6589 133.852 22.5234C134.294 22.3828 134.714 22.1901 135.109 21.9453V24.375C134.745 24.6146 134.333 24.8047 133.875 24.9453C133.417 25.0859 132.883 25.1562 132.273 25.1562ZM141.203 22.7422C141.479 22.7422 141.732 22.7135 141.961 22.6562C142.19 22.599 142.43 22.526 142.68 22.4375V24.6641C142.346 24.8099 141.992 24.9271 141.617 25.0156C141.247 25.1094 140.773 25.1562 140.195 25.1562C139.622 25.1562 139.117 25.0677 138.68 24.8906C138.242 24.7083 137.901 24.3958 137.656 23.9531C137.417 23.5052 137.297 22.8828 137.297 22.0859V18.4375H136.227V17.1953L137.586 16.2344L138.375 14.375H140.375V16.1484H142.547V18.4375H140.375V21.8828C140.375 22.1693 140.448 22.3854 140.594 22.5312C140.74 22.6719 140.943 22.7422 141.203 22.7422ZM147.297 16.1484V25H144.242V16.1484H147.297ZM145.781 12.5859C146.219 12.5859 146.599 12.6771 146.922 12.8594C147.25 13.0417 147.414 13.4036 147.414 13.9453C147.414 14.4714 147.25 14.8281 146.922 15.0156C146.599 15.1979 146.219 15.2891 145.781 15.2891C145.333 15.2891 144.951 15.1979 144.633 15.0156C144.32 14.8281 144.164 14.4714 144.164 13.9453C144.164 13.4036 144.32 13.0417 144.633 12.8594C144.951 12.6771 145.333 12.5859 145.781 12.5859ZM157.883 20.5547C157.883 21.2943 157.781 21.9505 157.578 22.5234C157.375 23.0964 157.081 23.5781 156.695 23.9688C156.31 24.3594 155.844 24.6562 155.297 24.8594C154.75 25.0573 154.133 25.1562 153.445 25.1562C152.805 25.1562 152.216 25.0573 151.68 24.8594C151.148 24.6562 150.685 24.3594 150.289 23.9688C149.893 23.5781 149.586 23.0964 149.367 22.5234C149.154 21.9505 149.047 21.2943 149.047 20.5547C149.047 19.5755 149.224 18.7474 149.578 18.0703C149.938 17.3932 150.448 16.8776 151.109 16.5234C151.776 16.1693 152.57 15.9922 153.492 15.9922C154.341 15.9922 155.096 16.1693 155.758 16.5234C156.419 16.8776 156.938 17.3932 157.312 18.0703C157.693 18.7474 157.883 19.5755 157.883 20.5547ZM152.148 20.5547C152.148 21.0599 152.193 21.487 152.281 21.8359C152.37 22.1797 152.51 22.4427 152.703 22.625C152.901 22.8021 153.159 22.8906 153.477 22.8906C153.794 22.8906 154.047 22.8021 154.234 22.625C154.422 22.4427 154.557 22.1797 154.641 21.8359C154.729 21.487 154.773 21.0599 154.773 20.5547C154.773 20.0495 154.729 19.6276 154.641 19.2891C154.557 18.9505 154.419 18.6953 154.227 18.5234C154.039 18.3516 153.784 18.2656 153.461 18.2656C152.997 18.2656 152.661 18.4583 152.453 18.8438C152.25 19.2292 152.148 19.7995 152.148 20.5547ZM165.172 15.9922C166.083 15.9922 166.828 16.25 167.406 16.7656C167.984 17.2812 168.273 18.1068 168.273 19.2422V25H165.219V20.1719C165.219 19.5833 165.133 19.1406 164.961 18.8438C164.794 18.5417 164.523 18.3906 164.148 18.3906C163.57 18.3906 163.182 18.6276 162.984 19.1016C162.786 19.5703 162.688 20.2448 162.688 21.125V25H159.633V16.1484H161.938L162.352 17.3203H162.469C162.656 17.0391 162.88 16.7995 163.141 16.6016C163.401 16.4036 163.701 16.2526 164.039 16.1484C164.378 16.0443 164.755 15.9922 165.172 15.9922ZM178.828 15.9922C179.948 15.9922 180.823 16.2708 181.453 16.8281C182.083 17.3802 182.398 18.1693 182.398 19.1953V25H180.281L179.695 23.8281H179.633C179.383 24.1406 179.125 24.3958 178.859 24.5938C178.599 24.7865 178.299 24.9271 177.961 25.0156C177.622 25.1094 177.208 25.1562 176.719 25.1562C176.208 25.1562 175.75 25.0521 175.344 24.8438C174.938 24.6354 174.617 24.3203 174.383 23.8984C174.148 23.4766 174.031 22.9427 174.031 22.2969C174.031 21.349 174.359 20.6458 175.016 20.1875C175.672 19.7292 176.622 19.4714 177.867 19.4141L179.344 19.3672V19.2422C179.344 18.8464 179.245 18.5651 179.047 18.3984C178.854 18.2318 178.594 18.1484 178.266 18.1484C177.917 18.1484 177.526 18.2109 177.094 18.3359C176.667 18.4557 176.237 18.612 175.805 18.8047L174.922 16.7891C175.432 16.5286 176.01 16.3307 176.656 16.1953C177.302 16.0599 178.026 15.9922 178.828 15.9922ZM179.359 21.0469L178.656 21.0781C178.094 21.099 177.698 21.1979 177.469 21.375C177.245 21.5469 177.133 21.7943 177.133 22.1172C177.133 22.4193 177.214 22.6432 177.375 22.7891C177.536 22.9297 177.75 23 178.016 23C178.385 23 178.701 22.8828 178.961 22.6484C179.227 22.4141 179.359 22.1094 179.359 21.7344V21.0469ZM190.016 15.9922C190.927 15.9922 191.672 16.25 192.25 16.7656C192.828 17.2812 193.117 18.1068 193.117 19.2422V25H190.062V20.1719C190.062 19.5833 189.977 19.1406 189.805 18.8438C189.638 18.5417 189.367 18.3906 188.992 18.3906C188.414 18.3906 188.026 18.6276 187.828 19.1016C187.63 19.5703 187.531 20.2448 187.531 21.125V25H184.477V16.1484H186.781L187.195 17.3203H187.312C187.5 17.0391 187.724 16.7995 187.984 16.6016C188.245 16.4036 188.544 16.2526 188.883 16.1484C189.221 16.0443 189.599 15.9922 190.016 15.9922ZM197.945 25.1562C197.034 25.1562 196.284 24.7682 195.695 23.9922C195.107 23.2161 194.812 22.0807 194.812 20.5859C194.812 19.0755 195.115 17.9323 195.719 17.1562C196.323 16.3802 197.104 15.9922 198.062 15.9922C198.458 15.9922 198.799 16.0495 199.086 16.1641C199.372 16.2786 199.62 16.4349 199.828 16.6328C200.042 16.8255 200.227 17.0443 200.383 17.2891H200.445C200.409 17.0651 200.375 16.7578 200.344 16.3672C200.312 15.9714 200.297 15.5859 200.297 15.2109V12.8438H203.375V25H201.07L200.414 23.8828H200.297C200.156 24.1172 199.979 24.3307 199.766 24.5234C199.557 24.7161 199.302 24.8698 199 24.9844C198.703 25.099 198.352 25.1562 197.945 25.1562ZM199.195 22.7422C199.685 22.7422 200.029 22.5885 200.227 22.2812C200.43 21.9688 200.539 21.4948 200.555 20.8594V20.6172C200.555 19.9193 200.456 19.3854 200.258 19.0156C200.065 18.6406 199.701 18.4531 199.164 18.4531C198.799 18.4531 198.497 18.6302 198.258 18.9844C198.018 19.3385 197.898 19.888 197.898 20.6328C197.898 21.3672 198.018 21.9036 198.258 22.2422C198.503 22.5755 198.815 22.7422 199.195 22.7422ZM214.914 15.9453C214.549 15.9453 214.224 16.0234 213.938 16.1797C213.651 16.3307 213.406 16.5521 213.203 16.8438C213 17.1354 212.844 17.4922 212.734 17.9141C212.63 18.3307 212.578 18.8047 212.578 19.3359C212.578 20.0547 212.669 20.6589 212.852 21.1484C213.034 21.638 213.31 22.0078 213.68 22.2578C214.055 22.5078 214.523 22.6328 215.086 22.6328C215.596 22.6328 216.086 22.5625 216.555 22.4219C217.029 22.2812 217.505 22.112 217.984 21.9141V24.5234C217.479 24.7474 216.961 24.9089 216.43 25.0078C215.904 25.1068 215.344 25.1562 214.75 25.1562C213.51 25.1562 212.495 24.9115 211.703 24.4219C210.917 23.9271 210.336 23.2422 209.961 22.3672C209.591 21.4922 209.406 20.4766 209.406 19.3203C209.406 18.4557 209.526 17.6641 209.766 16.9453C210.01 16.2266 210.367 15.6042 210.836 15.0781C211.305 14.5469 211.883 14.138 212.57 13.8516C213.263 13.5599 214.055 13.4141 214.945 13.4141C215.497 13.4141 216.078 13.4792 216.688 13.6094C217.302 13.7344 217.901 13.9375 218.484 14.2188L217.539 16.6484C217.122 16.4505 216.701 16.2839 216.273 16.1484C215.846 16.013 215.393 15.9453 214.914 15.9453ZM228.492 20.5547C228.492 21.2943 228.391 21.9505 228.188 22.5234C227.984 23.0964 227.69 23.5781 227.305 23.9688C226.919 24.3594 226.453 24.6562 225.906 24.8594C225.359 25.0573 224.742 25.1562 224.055 25.1562C223.414 25.1562 222.826 25.0573 222.289 24.8594C221.758 24.6562 221.294 24.3594 220.898 23.9688C220.503 23.5781 220.195 23.0964 219.977 22.5234C219.763 21.9505 219.656 21.2943 219.656 20.5547C219.656 19.5755 219.833 18.7474 220.188 18.0703C220.547 17.3932 221.057 16.8776 221.719 16.5234C222.385 16.1693 223.18 15.9922 224.102 15.9922C224.951 15.9922 225.706 16.1693 226.367 16.5234C227.029 16.8776 227.547 17.3932 227.922 18.0703C228.302 18.7474 228.492 19.5755 228.492 20.5547ZM222.758 20.5547C222.758 21.0599 222.802 21.487 222.891 21.8359C222.979 22.1797 223.12 22.4427 223.312 22.625C223.51 22.8021 223.768 22.8906 224.086 22.8906C224.404 22.8906 224.656 22.8021 224.844 22.625C225.031 22.4427 225.167 22.1797 225.25 21.8359C225.339 21.487 225.383 21.0599 225.383 20.5547C225.383 20.0495 225.339 19.6276 225.25 19.2891C225.167 18.9505 225.029 18.6953 224.836 18.5234C224.648 18.3516 224.393 18.2656 224.07 18.2656C223.607 18.2656 223.271 18.4583 223.062 18.8438C222.859 19.2292 222.758 19.7995 222.758 20.5547ZM235.781 15.9922C236.693 15.9922 237.438 16.25 238.016 16.7656C238.594 17.2812 238.883 18.1068 238.883 19.2422V25H235.828V20.1719C235.828 19.5833 235.742 19.1406 235.57 18.8438C235.404 18.5417 235.133 18.3906 234.758 18.3906C234.18 18.3906 233.792 18.6276 233.594 19.1016C233.396 19.5703 233.297 20.2448 233.297 21.125V25H230.242V16.1484H232.547L232.961 17.3203H233.078C233.266 17.0391 233.49 16.7995 233.75 16.6016C234.01 16.4036 234.31 16.2526 234.648 16.1484C234.987 16.0443 235.365 15.9922 235.781 15.9922ZM245.297 22.7422C245.573 22.7422 245.826 22.7135 246.055 22.6562C246.284 22.599 246.523 22.526 246.773 22.4375V24.6641C246.44 24.8099 246.086 24.9271 245.711 25.0156C245.341 25.1094 244.867 25.1562 244.289 25.1562C243.716 25.1562 243.211 25.0677 242.773 24.8906C242.336 24.7083 241.995 24.3958 241.75 23.9531C241.51 23.5052 241.391 22.8828 241.391 22.0859V18.4375H240.32V17.1953L241.68 16.2344L242.469 14.375H244.469V16.1484H246.641V18.4375H244.469V21.8828C244.469 22.1693 244.542 22.3854 244.688 22.5312C244.833 22.6719 245.036 22.7422 245.297 22.7422ZM252.305 15.9922C253.164 15.9922 253.906 16.1432 254.531 16.4453C255.156 16.7422 255.638 17.1901 255.977 17.7891C256.315 18.388 256.484 19.138 256.484 20.0391V21.3984H251.023C251.049 21.862 251.221 22.2422 251.539 22.5391C251.862 22.8359 252.336 22.9844 252.961 22.9844C253.513 22.9844 254.018 22.9297 254.477 22.8203C254.94 22.7109 255.417 22.5417 255.906 22.3125V24.5078C255.479 24.7318 255.013 24.8958 254.508 25C254.003 25.1042 253.365 25.1562 252.594 25.1562C251.703 25.1562 250.906 24.9974 250.203 24.6797C249.5 24.362 248.945 23.8698 248.539 23.2031C248.138 22.5365 247.938 21.6797 247.938 20.6328C247.938 19.5703 248.12 18.6979 248.484 18.0156C248.849 17.3281 249.359 16.8203 250.016 16.4922C250.672 16.1589 251.435 15.9922 252.305 15.9922ZM252.414 18.0703C252.055 18.0703 251.753 18.1849 251.508 18.4141C251.268 18.638 251.128 18.9922 251.086 19.4766H253.711C253.706 19.2161 253.654 18.9792 253.555 18.7656C253.456 18.5521 253.31 18.3828 253.117 18.2578C252.93 18.1328 252.695 18.0703 252.414 18.0703ZM263.75 15.9922C264.661 15.9922 265.406 16.25 265.984 16.7656C266.562 17.2812 266.852 18.1068 266.852 19.2422V25H263.797V20.1719C263.797 19.5833 263.711 19.1406 263.539 18.8438C263.372 18.5417 263.102 18.3906 262.727 18.3906C262.148 18.3906 261.76 18.6276 261.562 19.1016C261.365 19.5703 261.266 20.2448 261.266 21.125V25H258.211V16.1484H260.516L260.93 17.3203H261.047C261.234 17.0391 261.458 16.7995 261.719 16.6016C261.979 16.4036 262.279 16.2526 262.617 16.1484C262.956 16.0443 263.333 15.9922 263.75 15.9922ZM273.266 22.7422C273.542 22.7422 273.794 22.7135 274.023 22.6562C274.253 22.599 274.492 22.526 274.742 22.4375V24.6641C274.409 24.8099 274.055 24.9271 273.68 25.0156C273.31 25.1094 272.836 25.1562 272.258 25.1562C271.685 25.1562 271.18 25.0677 270.742 24.8906C270.305 24.7083 269.964 24.3958 269.719 23.9531C269.479 23.5052 269.359 22.8828 269.359 22.0859V18.4375H268.289V17.1953L269.648 16.2344L270.438 14.375H272.438V16.1484H274.609V18.4375H272.438V21.8828C272.438 22.1693 272.51 22.3854 272.656 22.5312C272.802 22.6719 273.005 22.7422 273.266 22.7422ZM285.711 15.9453C285.346 15.9453 285.021 16.0234 284.734 16.1797C284.448 16.3307 284.203 16.5521 284 16.8438C283.797 17.1354 283.641 17.4922 283.531 17.9141C283.427 18.3307 283.375 18.8047 283.375 19.3359C283.375 20.0547 283.466 20.6589 283.648 21.1484C283.831 21.638 284.107 22.0078 284.477 22.2578C284.852 22.5078 285.32 22.6328 285.883 22.6328C286.393 22.6328 286.883 22.5625 287.352 22.4219C287.826 22.2812 288.302 22.112 288.781 21.9141V24.5234C288.276 24.7474 287.758 24.9089 287.227 25.0078C286.701 25.1068 286.141 25.1562 285.547 25.1562C284.307 25.1562 283.292 24.9115 282.5 24.4219C281.714 23.9271 281.133 23.2422 280.758 22.3672C280.388 21.4922 280.203 20.4766 280.203 19.3203C280.203 18.4557 280.323 17.6641 280.562 16.9453C280.807 16.2266 281.164 15.6042 281.633 15.0781C282.102 14.5469 282.68 14.138 283.367 13.8516C284.06 13.5599 284.852 13.4141 285.742 13.4141C286.294 13.4141 286.875 13.4792 287.484 13.6094C288.099 13.7344 288.698 13.9375 289.281 14.2188L288.336 16.6484C287.919 16.4505 287.497 16.2839 287.07 16.1484C286.643 16.013 286.19 15.9453 285.711 15.9453ZM296.18 15.9922C296.346 15.9922 296.521 16.0052 296.703 16.0312C296.885 16.0521 297.021 16.0703 297.109 16.0859L296.836 18.9688C296.737 18.9427 296.609 18.9219 296.453 18.9062C296.297 18.8854 296.078 18.875 295.797 18.875C295.604 18.875 295.398 18.8932 295.18 18.9297C294.961 18.9661 294.753 19.0443 294.555 19.1641C294.362 19.2786 294.203 19.4557 294.078 19.6953C293.953 19.9297 293.891 20.2474 293.891 20.6484V25H290.836V16.1484H293.109L293.586 17.5625H293.734C293.896 17.2708 294.102 17.0078 294.352 16.7734C294.607 16.5339 294.891 16.3438 295.203 16.2031C295.521 16.0625 295.846 15.9922 296.18 15.9922ZM302.336 15.9922C303.195 15.9922 303.938 16.1432 304.562 16.4453C305.188 16.7422 305.669 17.1901 306.008 17.7891C306.346 18.388 306.516 19.138 306.516 20.0391V21.3984H301.055C301.081 21.862 301.253 22.2422 301.57 22.5391C301.893 22.8359 302.367 22.9844 302.992 22.9844C303.544 22.9844 304.049 22.9297 304.508 22.8203C304.971 22.7109 305.448 22.5417 305.938 22.3125V24.5078C305.51 24.7318 305.044 24.8958 304.539 25C304.034 25.1042 303.396 25.1562 302.625 25.1562C301.734 25.1562 300.938 24.9974 300.234 24.6797C299.531 24.362 298.977 23.8698 298.57 23.2031C298.169 22.5365 297.969 21.6797 297.969 20.6328C297.969 19.5703 298.151 18.6979 298.516 18.0156C298.88 17.3281 299.391 16.8203 300.047 16.4922C300.703 16.1589 301.466 15.9922 302.336 15.9922ZM302.445 18.0703C302.086 18.0703 301.784 18.1849 301.539 18.4141C301.299 18.638 301.159 18.9922 301.117 19.4766H303.742C303.737 19.2161 303.685 18.9792 303.586 18.7656C303.487 18.5521 303.341 18.3828 303.148 18.2578C302.961 18.1328 302.727 18.0703 302.445 18.0703ZM312.562 15.9922C313.682 15.9922 314.557 16.2708 315.188 16.8281C315.818 17.3802 316.133 18.1693 316.133 19.1953V25H314.016L313.43 23.8281H313.367C313.117 24.1406 312.859 24.3958 312.594 24.5938C312.333 24.7865 312.034 24.9271 311.695 25.0156C311.357 25.1094 310.943 25.1562 310.453 25.1562C309.943 25.1562 309.484 25.0521 309.078 24.8438C308.672 24.6354 308.352 24.3203 308.117 23.8984C307.883 23.4766 307.766 22.9427 307.766 22.2969C307.766 21.349 308.094 20.6458 308.75 20.1875C309.406 19.7292 310.357 19.4714 311.602 19.4141L313.078 19.3672V19.2422C313.078 18.8464 312.979 18.5651 312.781 18.3984C312.589 18.2318 312.328 18.1484 312 18.1484C311.651 18.1484 311.26 18.2109 310.828 18.3359C310.401 18.4557 309.971 18.612 309.539 18.8047L308.656 16.7891C309.167 16.5286 309.745 16.3307 310.391 16.1953C311.036 16.0599 311.76 15.9922 312.562 15.9922ZM313.094 21.0469L312.391 21.0781C311.828 21.099 311.432 21.1979 311.203 21.375C310.979 21.5469 310.867 21.7943 310.867 22.1172C310.867 22.4193 310.948 22.6432 311.109 22.7891C311.271 22.9297 311.484 23 311.75 23C312.12 23 312.435 22.8828 312.695 22.6484C312.961 22.4141 313.094 22.1094 313.094 21.7344V21.0469ZM322.547 22.7422C322.823 22.7422 323.076 22.7135 323.305 22.6562C323.534 22.599 323.773 22.526 324.023 22.4375V24.6641C323.69 24.8099 323.336 24.9271 322.961 25.0156C322.591 25.1094 322.117 25.1562 321.539 25.1562C320.966 25.1562 320.461 25.0677 320.023 24.8906C319.586 24.7083 319.245 24.3958 319 23.9531C318.76 23.5052 318.641 22.8828 318.641 22.0859V18.4375H317.57V17.1953L318.93 16.2344L319.719 14.375H321.719V16.1484H323.891V18.4375H321.719V21.8828C321.719 22.1693 321.792 22.3854 321.938 22.5312C322.083 22.6719 322.286 22.7422 322.547 22.7422ZM328.641 16.1484V25H325.586V16.1484H328.641ZM327.125 12.5859C327.562 12.5859 327.943 12.6771 328.266 12.8594C328.594 13.0417 328.758 13.4036 328.758 13.9453C328.758 14.4714 328.594 14.8281 328.266 15.0156C327.943 15.1979 327.562 15.2891 327.125 15.2891C326.677 15.2891 326.294 15.1979 325.977 15.0156C325.664 14.8281 325.508 14.4714 325.508 13.9453C325.508 13.4036 325.664 13.0417 325.977 12.8594C326.294 12.6771 326.677 12.5859 327.125 12.5859ZM339.227 20.5547C339.227 21.2943 339.125 21.9505 338.922 22.5234C338.719 23.0964 338.424 23.5781 338.039 23.9688C337.654 24.3594 337.188 24.6562 336.641 24.8594C336.094 25.0573 335.477 25.1562 334.789 25.1562C334.148 25.1562 333.56 25.0573 333.023 24.8594C332.492 24.6562 332.029 24.3594 331.633 23.9688C331.237 23.5781 330.93 23.0964 330.711 22.5234C330.497 21.9505 330.391 21.2943 330.391 20.5547C330.391 19.5755 330.568 18.7474 330.922 18.0703C331.281 17.3932 331.792 16.8776 332.453 16.5234C333.12 16.1693 333.914 15.9922 334.836 15.9922C335.685 15.9922 336.44 16.1693 337.102 16.5234C337.763 16.8776 338.281 17.3932 338.656 18.0703C339.036 18.7474 339.227 19.5755 339.227 20.5547ZM333.492 20.5547C333.492 21.0599 333.536 21.487 333.625 21.8359C333.714 22.1797 333.854 22.4427 334.047 22.625C334.245 22.8021 334.503 22.8906 334.82 22.8906C335.138 22.8906 335.391 22.8021 335.578 22.625C335.766 22.4427 335.901 22.1797 335.984 21.8359C336.073 21.487 336.117 21.0599 336.117 20.5547C336.117 20.0495 336.073 19.6276 335.984 19.2891C335.901 18.9505 335.763 18.6953 335.57 18.5234C335.383 18.3516 335.128 18.2656 334.805 18.2656C334.341 18.2656 334.005 18.4583 333.797 18.8438C333.594 19.2292 333.492 19.7995 333.492 20.5547ZM346.516 15.9922C347.427 15.9922 348.172 16.25 348.75 16.7656C349.328 17.2812 349.617 18.1068 349.617 19.2422V25H346.562V20.1719C346.562 19.5833 346.477 19.1406 346.305 18.8438C346.138 18.5417 345.867 18.3906 345.492 18.3906C344.914 18.3906 344.526 18.6276 344.328 19.1016C344.13 19.5703 344.031 20.2448 344.031 21.125V25H340.977V16.1484H343.281L343.695 17.3203H343.812C344 17.0391 344.224 16.7995 344.484 16.6016C344.745 16.4036 345.044 16.2526 345.383 16.1484C345.721 16.0443 346.099 15.9922 346.516 15.9922Z" fill="white"/>
<defs>
<linearGradient id="paint0_linear_2356_1811" x1="375" y1="37.0002" x2="4.82477" y2="37.0002" gradientUnits="userSpaceOnUse">
<stop stop-color="#C2157D" stop-opacity="0.49"/>
<stop offset="0.523958" stop-color="#A01706"/>
<stop offset="1" stop-color="#C2157D" stop-opacity="0.46"/>
</linearGradient>
</defs>
</svg>
