<svg width="1440" height="48" viewBox="0 0 1440 48" fill="none" xmlns="http://www.w3.org/2000/svg">
<rect width="1440" height="48" fill="url(#paint0_linear_2351_835)"/>
<path d="M483.316 31L479.812 18.6602H479.707C479.738 18.9805 479.77 19.4141 479.801 19.9609C479.84 20.5078 479.875 21.0977 479.906 21.7305C479.938 22.3633 479.953 22.9727 479.953 23.5586V31H475.852V13.8672H482.016L485.59 26.0312H485.684L489.188 13.8672H495.363V31H491.109V23.4883C491.109 22.9492 491.117 22.3711 491.133 21.7539C491.156 21.1289 491.18 20.543 491.203 19.9961C491.234 19.4414 491.262 19.0039 491.285 18.6836H491.18L487.723 31H483.316ZM504.762 17.4883C506.051 17.4883 507.164 17.7148 508.102 18.168C509.039 18.6133 509.762 19.2852 510.27 20.1836C510.777 21.082 511.031 22.207 511.031 23.5586V25.5977H502.84C502.879 26.293 503.137 26.8633 503.613 27.3086C504.098 27.7539 504.809 27.9766 505.746 27.9766C506.574 27.9766 507.332 27.8945 508.02 27.7305C508.715 27.5664 509.43 27.3125 510.164 26.9688V30.2617C509.523 30.5977 508.824 30.8438 508.066 31C507.309 31.1562 506.352 31.2344 505.195 31.2344C503.859 31.2344 502.664 30.9961 501.609 30.5195C500.555 30.043 499.723 29.3047 499.113 28.3047C498.512 27.3047 498.211 26.0195 498.211 24.4492C498.211 22.8555 498.484 21.5469 499.031 20.5234C499.578 19.4922 500.344 18.7305 501.328 18.2383C502.312 17.7383 503.457 17.4883 504.762 17.4883ZM504.926 20.6055C504.387 20.6055 503.934 20.7773 503.566 21.1211C503.207 21.457 502.996 21.9883 502.934 22.7148H506.871C506.863 22.3242 506.785 21.9688 506.637 21.6484C506.488 21.3281 506.27 21.0742 505.98 20.8867C505.699 20.6992 505.348 20.6055 504.926 20.6055ZM517.746 31.2344C516.379 31.2344 515.254 30.6523 514.371 29.4883C513.488 28.3242 513.047 26.6211 513.047 24.3789C513.047 22.1133 513.5 20.3984 514.406 19.2344C515.312 18.0703 516.484 17.4883 517.922 17.4883C518.516 17.4883 519.027 17.5742 519.457 17.7461C519.887 17.918 520.258 18.1523 520.57 18.4492C520.891 18.7383 521.168 19.0664 521.402 19.4336H521.496C521.441 19.0977 521.391 18.6367 521.344 18.0508C521.297 17.457 521.273 16.8789 521.273 16.3164V12.7656H525.891V31H522.434L521.449 29.3242H521.273C521.062 29.6758 520.797 29.9961 520.477 30.2852C520.164 30.5742 519.781 30.8047 519.328 30.9766C518.883 31.1484 518.355 31.2344 517.746 31.2344ZM519.621 27.6133C520.355 27.6133 520.871 27.3828 521.168 26.9219C521.473 26.4531 521.637 25.7422 521.66 24.7891V24.4258C521.66 23.3789 521.512 22.5781 521.215 22.0234C520.926 21.4609 520.379 21.1797 519.574 21.1797C519.027 21.1797 518.574 21.4453 518.215 21.9766C517.855 22.5078 517.676 23.332 517.676 24.4492C517.676 25.5508 517.855 26.3555 518.215 26.8633C518.582 27.3633 519.051 27.6133 519.621 27.6133ZM533.672 17.7227V31H529.09V17.7227H533.672ZM531.398 12.3789C532.055 12.3789 532.625 12.5156 533.109 12.7891C533.602 13.0625 533.848 13.6055 533.848 14.418C533.848 15.207 533.602 15.7422 533.109 16.0234C532.625 16.2969 532.055 16.4336 531.398 16.4336C530.727 16.4336 530.152 16.2969 529.676 16.0234C529.207 15.7422 528.973 15.207 528.973 14.418C528.973 13.6055 529.207 13.0625 529.676 12.7891C530.152 12.5156 530.727 12.3789 531.398 12.3789ZM543.352 17.4883C545.031 17.4883 546.344 17.9062 547.289 18.7422C548.234 19.5703 548.707 20.7539 548.707 22.293V31H545.531L544.652 29.2422H544.559C544.184 29.7109 543.797 30.0938 543.398 30.3906C543.008 30.6797 542.559 30.8906 542.051 31.0234C541.543 31.1641 540.922 31.2344 540.188 31.2344C539.422 31.2344 538.734 31.0781 538.125 30.7656C537.516 30.4531 537.035 29.9805 536.684 29.3477C536.332 28.7148 536.156 27.9141 536.156 26.9453C536.156 25.5234 536.648 24.4688 537.633 23.7812C538.617 23.0938 540.043 22.707 541.91 22.6211L544.125 22.5508V22.3633C544.125 21.7695 543.977 21.3477 543.68 21.0977C543.391 20.8477 543 20.7227 542.508 20.7227C541.984 20.7227 541.398 20.8164 540.75 21.0039C540.109 21.1836 539.465 21.418 538.816 21.707L537.492 18.6836C538.258 18.293 539.125 17.9961 540.094 17.793C541.062 17.5898 542.148 17.4883 543.352 17.4883ZM544.148 25.0703L543.094 25.1172C542.25 25.1484 541.656 25.2969 541.312 25.5625C540.977 25.8203 540.809 26.1914 540.809 26.6758C540.809 27.1289 540.93 27.4648 541.172 27.6836C541.414 27.8945 541.734 28 542.133 28C542.688 28 543.16 27.8242 543.551 27.4727C543.949 27.1211 544.148 26.6641 544.148 26.1016V25.0703ZM564.258 13.8672C566.43 13.8672 568.055 14.3398 569.133 15.2852C570.219 16.2305 570.762 17.5742 570.762 19.3164C570.762 20.0977 570.648 20.8477 570.422 21.5664C570.203 22.2852 569.84 22.9258 569.332 23.4883C568.832 24.0508 568.164 24.4961 567.328 24.8242C566.5 25.1523 565.477 25.3164 564.258 25.3164H562.957V31H558.328V13.8672H564.258ZM564.152 17.6055H562.957V21.543H563.871C564.27 21.543 564.641 21.4766 564.984 21.3438C565.328 21.2031 565.602 20.9805 565.805 20.6758C566.016 20.3633 566.121 19.9492 566.121 19.4336C566.121 18.8945 565.961 18.457 565.641 18.1211C565.32 17.7773 564.824 17.6055 564.152 17.6055ZM581.238 17.4883C581.488 17.4883 581.75 17.5078 582.023 17.5469C582.297 17.5781 582.5 17.6055 582.633 17.6289L582.223 21.9531C582.074 21.9141 581.883 21.8828 581.648 21.8594C581.414 21.8281 581.086 21.8125 580.664 21.8125C580.375 21.8125 580.066 21.8398 579.738 21.8945C579.41 21.9492 579.098 22.0664 578.801 22.2461C578.512 22.418 578.273 22.6836 578.086 23.043C577.898 23.3945 577.805 23.8711 577.805 24.4727V31H573.223V17.7227H576.633L577.348 19.8438H577.57C577.812 19.4062 578.121 19.0117 578.496 18.6602C578.879 18.3008 579.305 18.0156 579.773 17.8047C580.25 17.5938 580.738 17.4883 581.238 17.4883ZM597.176 24.332C597.176 25.4414 597.023 26.4258 596.719 27.2852C596.414 28.1445 595.973 28.8672 595.395 29.4531C594.816 30.0391 594.117 30.4844 593.297 30.7891C592.477 31.0859 591.551 31.2344 590.52 31.2344C589.559 31.2344 588.676 31.0859 587.871 30.7891C587.074 30.4844 586.379 30.0391 585.785 29.4531C585.191 28.8672 584.73 28.1445 584.402 27.2852C584.082 26.4258 583.922 25.4414 583.922 24.332C583.922 22.8633 584.188 21.6211 584.719 20.6055C585.258 19.5898 586.023 18.8164 587.016 18.2852C588.016 17.7539 589.207 17.4883 590.59 17.4883C591.863 17.4883 592.996 17.7539 593.988 18.2852C594.98 18.8164 595.758 19.5898 596.32 20.6055C596.891 21.6211 597.176 22.8633 597.176 24.332ZM588.574 24.332C588.574 25.0898 588.641 25.7305 588.773 26.2539C588.906 26.7695 589.117 27.1641 589.406 27.4375C589.703 27.7031 590.09 27.8359 590.566 27.8359C591.043 27.8359 591.422 27.7031 591.703 27.4375C591.984 27.1641 592.188 26.7695 592.312 26.2539C592.445 25.7305 592.512 25.0898 592.512 24.332C592.512 23.5742 592.445 22.9414 592.312 22.4336C592.188 21.9258 591.98 21.543 591.691 21.2852C591.41 21.0273 591.027 20.8984 590.543 20.8984C589.848 20.8984 589.344 21.1875 589.031 21.7656C588.727 22.3438 588.574 23.1992 588.574 24.332ZM603.926 31.2344C602.559 31.2344 601.434 30.6523 600.551 29.4883C599.668 28.3242 599.227 26.6211 599.227 24.3789C599.227 22.1133 599.68 20.3984 600.586 19.2344C601.492 18.0703 602.664 17.4883 604.102 17.4883C604.695 17.4883 605.207 17.5742 605.637 17.7461C606.066 17.918 606.438 18.1523 606.75 18.4492C607.07 18.7383 607.348 19.0664 607.582 19.4336H607.676C607.621 19.0977 607.57 18.6367 607.523 18.0508C607.477 17.457 607.453 16.8789 607.453 16.3164V12.7656H612.07V31H608.613L607.629 29.3242H607.453C607.242 29.6758 606.977 29.9961 606.656 30.2852C606.344 30.5742 605.961 30.8047 605.508 30.9766C605.062 31.1484 604.535 31.2344 603.926 31.2344ZM605.801 27.6133C606.535 27.6133 607.051 27.3828 607.348 26.9219C607.652 26.4531 607.816 25.7422 607.84 24.7891V24.4258C607.84 23.3789 607.691 22.5781 607.395 22.0234C607.105 21.4609 606.559 21.1797 605.754 21.1797C605.207 21.1797 604.754 21.4453 604.395 21.9766C604.035 22.5078 603.855 23.332 603.855 24.4492C603.855 25.5508 604.035 26.3555 604.395 26.8633C604.762 27.3633 605.23 27.6133 605.801 27.6133ZM628.16 17.7227V31H624.703L624.129 29.3477H623.859C623.586 29.793 623.238 30.1562 622.816 30.4375C622.402 30.7109 621.941 30.9102 621.434 31.0352C620.926 31.168 620.398 31.2344 619.852 31.2344C618.984 31.2344 618.199 31.0664 617.496 30.7305C616.801 30.3945 616.246 29.8672 615.832 29.1484C615.426 28.4297 615.223 27.5039 615.223 26.3711V17.7227H619.805V24.9766C619.805 25.8359 619.926 26.4922 620.168 26.9453C620.418 27.3906 620.824 27.6133 621.387 27.6133C621.965 27.6133 622.41 27.457 622.723 27.1445C623.043 26.832 623.266 26.3711 623.391 25.7617C623.516 25.1523 623.578 24.4102 623.578 23.5352V17.7227H628.16ZM637.371 31.2344C636.027 31.2344 634.859 30.9961 633.867 30.5195C632.875 30.0352 632.105 29.293 631.559 28.293C631.02 27.2852 630.75 25.9961 630.75 24.4258C630.75 22.8164 631.051 21.5 631.652 20.4766C632.262 19.4531 633.094 18.6992 634.148 18.2148C635.203 17.7305 636.398 17.4883 637.734 17.4883C638.547 17.4883 639.316 17.5781 640.043 17.7578C640.777 17.9375 641.457 18.1836 642.082 18.4961L640.734 21.8828C640.188 21.6406 639.676 21.4492 639.199 21.3086C638.73 21.1602 638.242 21.0859 637.734 21.0859C637.273 21.0859 636.867 21.207 636.516 21.4492C636.164 21.6914 635.891 22.0586 635.695 22.5508C635.5 23.0352 635.402 23.6523 635.402 24.4023C635.402 25.168 635.5 25.7852 635.695 26.2539C635.898 26.7227 636.176 27.0625 636.527 27.2734C636.887 27.4844 637.297 27.5898 637.758 27.5898C638.422 27.5898 639.082 27.4883 639.738 27.2852C640.402 27.0742 641.031 26.7852 641.625 26.418V30.0625C641.078 30.4219 640.461 30.707 639.773 30.918C639.086 31.1289 638.285 31.2344 637.371 31.2344ZM650.766 27.6133C651.18 27.6133 651.559 27.5703 651.902 27.4844C652.246 27.3984 652.605 27.2891 652.98 27.1562V30.4961C652.48 30.7148 651.949 30.8906 651.387 31.0234C650.832 31.1641 650.121 31.2344 649.254 31.2344C648.395 31.2344 647.637 31.1016 646.98 30.8359C646.324 30.5625 645.812 30.0938 645.445 29.4297C645.086 28.7578 644.906 27.8242 644.906 26.6289V21.1562H643.301V19.293L645.34 17.8516L646.523 15.0625H649.523V17.7227H652.781V21.1562H649.523V26.3242C649.523 26.7539 649.633 27.0781 649.852 27.2969C650.07 27.5078 650.375 27.6133 650.766 27.6133ZM659.906 17.7227V31H655.324V17.7227H659.906ZM657.633 12.3789C658.289 12.3789 658.859 12.5156 659.344 12.7891C659.836 13.0625 660.082 13.6055 660.082 14.418C660.082 15.207 659.836 15.7422 659.344 16.0234C658.859 16.2969 658.289 16.4336 657.633 16.4336C656.961 16.4336 656.387 16.2969 655.91 16.0234C655.441 15.7422 655.207 15.207 655.207 14.418C655.207 13.6055 655.441 13.0625 655.91 12.7891C656.387 12.5156 656.961 12.3789 657.633 12.3789ZM675.785 24.332C675.785 25.4414 675.633 26.4258 675.328 27.2852C675.023 28.1445 674.582 28.8672 674.004 29.4531C673.426 30.0391 672.727 30.4844 671.906 30.7891C671.086 31.0859 670.16 31.2344 669.129 31.2344C668.168 31.2344 667.285 31.0859 666.48 30.7891C665.684 30.4844 664.988 30.0391 664.395 29.4531C663.801 28.8672 663.34 28.1445 663.012 27.2852C662.691 26.4258 662.531 25.4414 662.531 24.332C662.531 22.8633 662.797 21.6211 663.328 20.6055C663.867 19.5898 664.633 18.8164 665.625 18.2852C666.625 17.7539 667.816 17.4883 669.199 17.4883C670.473 17.4883 671.605 17.7539 672.598 18.2852C673.59 18.8164 674.367 19.5898 674.93 20.6055C675.5 21.6211 675.785 22.8633 675.785 24.332ZM667.184 24.332C667.184 25.0898 667.25 25.7305 667.383 26.2539C667.516 26.7695 667.727 27.1641 668.016 27.4375C668.312 27.7031 668.699 27.8359 669.176 27.8359C669.652 27.8359 670.031 27.7031 670.312 27.4375C670.594 27.1641 670.797 26.7695 670.922 26.2539C671.055 25.7305 671.121 25.0898 671.121 24.332C671.121 23.5742 671.055 22.9414 670.922 22.4336C670.797 21.9258 670.59 21.543 670.301 21.2852C670.02 21.0273 669.637 20.8984 669.152 20.8984C668.457 20.8984 667.953 21.1875 667.641 21.7656C667.336 22.3438 667.184 23.1992 667.184 24.332ZM686.719 17.4883C688.086 17.4883 689.203 17.875 690.07 18.6484C690.938 19.4219 691.371 20.6602 691.371 22.3633V31H686.789V23.7578C686.789 22.875 686.66 22.2109 686.402 21.7656C686.152 21.3125 685.746 21.0859 685.184 21.0859C684.316 21.0859 683.734 21.4414 683.438 22.1523C683.141 22.8555 682.992 23.8672 682.992 25.1875V31H678.41V17.7227H681.867L682.488 19.4805H682.664C682.945 19.0586 683.281 18.6992 683.672 18.4023C684.062 18.1055 684.512 17.8789 685.02 17.7227C685.527 17.5664 686.094 17.4883 686.719 17.4883ZM707.203 17.4883C708.883 17.4883 710.195 17.9062 711.141 18.7422C712.086 19.5703 712.559 20.7539 712.559 22.293V31H709.383L708.504 29.2422H708.41C708.035 29.7109 707.648 30.0938 707.25 30.3906C706.859 30.6797 706.41 30.8906 705.902 31.0234C705.395 31.1641 704.773 31.2344 704.039 31.2344C703.273 31.2344 702.586 31.0781 701.977 30.7656C701.367 30.4531 700.887 29.9805 700.535 29.3477C700.184 28.7148 700.008 27.9141 700.008 26.9453C700.008 25.5234 700.5 24.4688 701.484 23.7812C702.469 23.0938 703.895 22.707 705.762 22.6211L707.977 22.5508V22.3633C707.977 21.7695 707.828 21.3477 707.531 21.0977C707.242 20.8477 706.852 20.7227 706.359 20.7227C705.836 20.7227 705.25 20.8164 704.602 21.0039C703.961 21.1836 703.316 21.418 702.668 21.707L701.344 18.6836C702.109 18.293 702.977 17.9961 703.945 17.793C704.914 17.5898 706 17.4883 707.203 17.4883ZM708 25.0703L706.945 25.1172C706.102 25.1484 705.508 25.2969 705.164 25.5625C704.828 25.8203 704.66 26.1914 704.66 26.6758C704.66 27.1289 704.781 27.4648 705.023 27.6836C705.266 27.8945 705.586 28 705.984 28C706.539 28 707.012 27.8242 707.402 27.4727C707.801 27.1211 708 26.6641 708 26.1016V25.0703ZM723.984 17.4883C725.352 17.4883 726.469 17.875 727.336 18.6484C728.203 19.4219 728.637 20.6602 728.637 22.3633V31H724.055V23.7578C724.055 22.875 723.926 22.2109 723.668 21.7656C723.418 21.3125 723.012 21.0859 722.449 21.0859C721.582 21.0859 721 21.4414 720.703 22.1523C720.406 22.8555 720.258 23.8672 720.258 25.1875V31H715.676V17.7227H719.133L719.754 19.4805H719.93C720.211 19.0586 720.547 18.6992 720.938 18.4023C721.328 18.1055 721.777 17.8789 722.285 17.7227C722.793 17.5664 723.359 17.4883 723.984 17.4883ZM735.879 31.2344C734.512 31.2344 733.387 30.6523 732.504 29.4883C731.621 28.3242 731.18 26.6211 731.18 24.3789C731.18 22.1133 731.633 20.3984 732.539 19.2344C733.445 18.0703 734.617 17.4883 736.055 17.4883C736.648 17.4883 737.16 17.5742 737.59 17.7461C738.02 17.918 738.391 18.1523 738.703 18.4492C739.023 18.7383 739.301 19.0664 739.535 19.4336H739.629C739.574 19.0977 739.523 18.6367 739.477 18.0508C739.43 17.457 739.406 16.8789 739.406 16.3164V12.7656H744.023V31H740.566L739.582 29.3242H739.406C739.195 29.6758 738.93 29.9961 738.609 30.2852C738.297 30.5742 737.914 30.8047 737.461 30.9766C737.016 31.1484 736.488 31.2344 735.879 31.2344ZM737.754 27.6133C738.488 27.6133 739.004 27.3828 739.301 26.9219C739.605 26.4531 739.77 25.7422 739.793 24.7891V24.4258C739.793 23.3789 739.645 22.5781 739.348 22.0234C739.059 21.4609 738.512 21.1797 737.707 21.1797C737.16 21.1797 736.707 21.4453 736.348 21.9766C735.988 22.5078 735.809 23.332 735.809 24.4492C735.809 25.5508 735.988 26.3555 736.348 26.8633C736.715 27.3633 737.184 27.6133 737.754 27.6133ZM761.332 17.418C760.785 17.418 760.297 17.5352 759.867 17.7695C759.438 17.9961 759.07 18.3281 758.766 18.7656C758.461 19.2031 758.227 19.7383 758.062 20.3711C757.906 20.9961 757.828 21.707 757.828 22.5039C757.828 23.582 757.965 24.4883 758.238 25.2227C758.512 25.957 758.926 26.5117 759.48 26.8867C760.043 27.2617 760.746 27.4492 761.59 27.4492C762.355 27.4492 763.09 27.3438 763.793 27.1328C764.504 26.9219 765.219 26.668 765.938 26.3711V30.2852C765.18 30.6211 764.402 30.8633 763.605 31.0117C762.816 31.1602 761.977 31.2344 761.086 31.2344C759.227 31.2344 757.703 30.8672 756.516 30.1328C755.336 29.3906 754.465 28.3633 753.902 27.0508C753.348 25.7383 753.07 24.2148 753.07 22.4805C753.07 21.1836 753.25 19.9961 753.609 18.918C753.977 17.8398 754.512 16.9062 755.215 16.1172C755.918 15.3203 756.785 14.707 757.816 14.2773C758.855 13.8398 760.043 13.6211 761.379 13.6211C762.207 13.6211 763.078 13.7188 763.992 13.9141C764.914 14.1016 765.812 14.4062 766.688 14.8281L765.27 18.4727C764.645 18.1758 764.012 17.9258 763.371 17.7227C762.73 17.5195 762.051 17.418 761.332 17.418ZM781.699 24.332C781.699 25.4414 781.547 26.4258 781.242 27.2852C780.938 28.1445 780.496 28.8672 779.918 29.4531C779.34 30.0391 778.641 30.4844 777.82 30.7891C777 31.0859 776.074 31.2344 775.043 31.2344C774.082 31.2344 773.199 31.0859 772.395 30.7891C771.598 30.4844 770.902 30.0391 770.309 29.4531C769.715 28.8672 769.254 28.1445 768.926 27.2852C768.605 26.4258 768.445 25.4414 768.445 24.332C768.445 22.8633 768.711 21.6211 769.242 20.6055C769.781 19.5898 770.547 18.8164 771.539 18.2852C772.539 17.7539 773.73 17.4883 775.113 17.4883C776.387 17.4883 777.52 17.7539 778.512 18.2852C779.504 18.8164 780.281 19.5898 780.844 20.6055C781.414 21.6211 781.699 22.8633 781.699 24.332ZM773.098 24.332C773.098 25.0898 773.164 25.7305 773.297 26.2539C773.43 26.7695 773.641 27.1641 773.93 27.4375C774.227 27.7031 774.613 27.8359 775.09 27.8359C775.566 27.8359 775.945 27.7031 776.227 27.4375C776.508 27.1641 776.711 26.7695 776.836 26.2539C776.969 25.7305 777.035 25.0898 777.035 24.332C777.035 23.5742 776.969 22.9414 776.836 22.4336C776.711 21.9258 776.504 21.543 776.215 21.2852C775.934 21.0273 775.551 20.8984 775.066 20.8984C774.371 20.8984 773.867 21.1875 773.555 21.7656C773.25 22.3438 773.098 23.1992 773.098 24.332ZM792.633 17.4883C794 17.4883 795.117 17.875 795.984 18.6484C796.852 19.4219 797.285 20.6602 797.285 22.3633V31H792.703V23.7578C792.703 22.875 792.574 22.2109 792.316 21.7656C792.066 21.3125 791.66 21.0859 791.098 21.0859C790.23 21.0859 789.648 21.4414 789.352 22.1523C789.055 22.8555 788.906 23.8672 788.906 25.1875V31H784.324V17.7227H787.781L788.402 19.4805H788.578C788.859 19.0586 789.195 18.6992 789.586 18.4023C789.977 18.1055 790.426 17.8789 790.934 17.7227C791.441 17.5664 792.008 17.4883 792.633 17.4883ZM806.906 27.6133C807.32 27.6133 807.699 27.5703 808.043 27.4844C808.387 27.3984 808.746 27.2891 809.121 27.1562V30.4961C808.621 30.7148 808.09 30.8906 807.527 31.0234C806.973 31.1641 806.262 31.2344 805.395 31.2344C804.535 31.2344 803.777 31.1016 803.121 30.8359C802.465 30.5625 801.953 30.0938 801.586 29.4297C801.227 28.7578 801.047 27.8242 801.047 26.6289V21.1562H799.441V19.293L801.48 17.8516L802.664 15.0625H805.664V17.7227H808.922V21.1562H805.664V26.3242C805.664 26.7539 805.773 27.0781 805.992 27.2969C806.211 27.5078 806.516 27.6133 806.906 27.6133ZM817.418 17.4883C818.707 17.4883 819.82 17.7148 820.758 18.168C821.695 18.6133 822.418 19.2852 822.926 20.1836C823.434 21.082 823.688 22.207 823.688 23.5586V25.5977H815.496C815.535 26.293 815.793 26.8633 816.27 27.3086C816.754 27.7539 817.465 27.9766 818.402 27.9766C819.23 27.9766 819.988 27.8945 820.676 27.7305C821.371 27.5664 822.086 27.3125 822.82 26.9688V30.2617C822.18 30.5977 821.48 30.8438 820.723 31C819.965 31.1562 819.008 31.2344 817.852 31.2344C816.516 31.2344 815.32 30.9961 814.266 30.5195C813.211 30.043 812.379 29.3047 811.77 28.3047C811.168 27.3047 810.867 26.0195 810.867 24.4492C810.867 22.8555 811.141 21.5469 811.688 20.5234C812.234 19.4922 813 18.7305 813.984 18.2383C814.969 17.7383 816.113 17.4883 817.418 17.4883ZM817.582 20.6055C817.043 20.6055 816.59 20.7773 816.223 21.1211C815.863 21.457 815.652 21.9883 815.59 22.7148H819.527C819.52 22.3242 819.441 21.9688 819.293 21.6484C819.145 21.3281 818.926 21.0742 818.637 20.8867C818.355 20.6992 818.004 20.6055 817.582 20.6055ZM834.586 17.4883C835.953 17.4883 837.07 17.875 837.938 18.6484C838.805 19.4219 839.238 20.6602 839.238 22.3633V31H834.656V23.7578C834.656 22.875 834.527 22.2109 834.27 21.7656C834.02 21.3125 833.613 21.0859 833.051 21.0859C832.184 21.0859 831.602 21.4414 831.305 22.1523C831.008 22.8555 830.859 23.8672 830.859 25.1875V31H826.277V17.7227H829.734L830.355 19.4805H830.531C830.812 19.0586 831.148 18.6992 831.539 18.4023C831.93 18.1055 832.379 17.8789 832.887 17.7227C833.395 17.5664 833.961 17.4883 834.586 17.4883ZM848.859 27.6133C849.273 27.6133 849.652 27.5703 849.996 27.4844C850.34 27.3984 850.699 27.2891 851.074 27.1562V30.4961C850.574 30.7148 850.043 30.8906 849.48 31.0234C848.926 31.1641 848.215 31.2344 847.348 31.2344C846.488 31.2344 845.73 31.1016 845.074 30.8359C844.418 30.5625 843.906 30.0938 843.539 29.4297C843.18 28.7578 843 27.8242 843 26.6289V21.1562H841.395V19.293L843.434 17.8516L844.617 15.0625H847.617V17.7227H850.875V21.1562H847.617V26.3242C847.617 26.7539 847.727 27.0781 847.945 27.2969C848.164 27.5078 848.469 27.6133 848.859 27.6133ZM867.527 17.418C866.98 17.418 866.492 17.5352 866.062 17.7695C865.633 17.9961 865.266 18.3281 864.961 18.7656C864.656 19.2031 864.422 19.7383 864.258 20.3711C864.102 20.9961 864.023 21.707 864.023 22.5039C864.023 23.582 864.16 24.4883 864.434 25.2227C864.707 25.957 865.121 26.5117 865.676 26.8867C866.238 27.2617 866.941 27.4492 867.785 27.4492C868.551 27.4492 869.285 27.3438 869.988 27.1328C870.699 26.9219 871.414 26.668 872.133 26.3711V30.2852C871.375 30.6211 870.598 30.8633 869.801 31.0117C869.012 31.1602 868.172 31.2344 867.281 31.2344C865.422 31.2344 863.898 30.8672 862.711 30.1328C861.531 29.3906 860.66 28.3633 860.098 27.0508C859.543 25.7383 859.266 24.2148 859.266 22.4805C859.266 21.1836 859.445 19.9961 859.805 18.918C860.172 17.8398 860.707 16.9062 861.41 16.1172C862.113 15.3203 862.98 14.707 864.012 14.2773C865.051 13.8398 866.238 13.6211 867.574 13.6211C868.402 13.6211 869.273 13.7188 870.188 13.9141C871.109 14.1016 872.008 14.4062 872.883 14.8281L871.465 18.4727C870.84 18.1758 870.207 17.9258 869.566 17.7227C868.926 17.5195 868.246 17.418 867.527 17.418ZM883.23 17.4883C883.48 17.4883 883.742 17.5078 884.016 17.5469C884.289 17.5781 884.492 17.6055 884.625 17.6289L884.215 21.9531C884.066 21.9141 883.875 21.8828 883.641 21.8594C883.406 21.8281 883.078 21.8125 882.656 21.8125C882.367 21.8125 882.059 21.8398 881.73 21.8945C881.402 21.9492 881.09 22.0664 880.793 22.2461C880.504 22.418 880.266 22.6836 880.078 23.043C879.891 23.3945 879.797 23.8711 879.797 24.4727V31H875.215V17.7227H878.625L879.34 19.8438H879.562C879.805 19.4062 880.113 19.0117 880.488 18.6602C880.871 18.3008 881.297 18.0156 881.766 17.8047C882.242 17.5938 882.73 17.4883 883.23 17.4883ZM892.465 17.4883C893.754 17.4883 894.867 17.7148 895.805 18.168C896.742 18.6133 897.465 19.2852 897.973 20.1836C898.48 21.082 898.734 22.207 898.734 23.5586V25.5977H890.543C890.582 26.293 890.84 26.8633 891.316 27.3086C891.801 27.7539 892.512 27.9766 893.449 27.9766C894.277 27.9766 895.035 27.8945 895.723 27.7305C896.418 27.5664 897.133 27.3125 897.867 26.9688V30.2617C897.227 30.5977 896.527 30.8438 895.77 31C895.012 31.1562 894.055 31.2344 892.898 31.2344C891.562 31.2344 890.367 30.9961 889.312 30.5195C888.258 30.043 887.426 29.3047 886.816 28.3047C886.215 27.3047 885.914 26.0195 885.914 24.4492C885.914 22.8555 886.188 21.5469 886.734 20.5234C887.281 19.4922 888.047 18.7305 889.031 18.2383C890.016 17.7383 891.16 17.4883 892.465 17.4883ZM892.629 20.6055C892.09 20.6055 891.637 20.7773 891.27 21.1211C890.91 21.457 890.699 21.9883 890.637 22.7148H894.574C894.566 22.3242 894.488 21.9688 894.34 21.6484C894.191 21.3281 893.973 21.0742 893.684 20.8867C893.402 20.6992 893.051 20.6055 892.629 20.6055ZM907.805 17.4883C909.484 17.4883 910.797 17.9062 911.742 18.7422C912.688 19.5703 913.16 20.7539 913.16 22.293V31H909.984L909.105 29.2422H909.012C908.637 29.7109 908.25 30.0938 907.852 30.3906C907.461 30.6797 907.012 30.8906 906.504 31.0234C905.996 31.1641 905.375 31.2344 904.641 31.2344C903.875 31.2344 903.188 31.0781 902.578 30.7656C901.969 30.4531 901.488 29.9805 901.137 29.3477C900.785 28.7148 900.609 27.9141 900.609 26.9453C900.609 25.5234 901.102 24.4688 902.086 23.7812C903.07 23.0938 904.496 22.707 906.363 22.6211L908.578 22.5508V22.3633C908.578 21.7695 908.43 21.3477 908.133 21.0977C907.844 20.8477 907.453 20.7227 906.961 20.7227C906.438 20.7227 905.852 20.8164 905.203 21.0039C904.562 21.1836 903.918 21.418 903.27 21.707L901.945 18.6836C902.711 18.293 903.578 17.9961 904.547 17.793C905.516 17.5898 906.602 17.4883 907.805 17.4883ZM908.602 25.0703L907.547 25.1172C906.703 25.1484 906.109 25.2969 905.766 25.5625C905.43 25.8203 905.262 26.1914 905.262 26.6758C905.262 27.1289 905.383 27.4648 905.625 27.6836C905.867 27.8945 906.188 28 906.586 28C907.141 28 907.613 27.8242 908.004 27.4727C908.402 27.1211 908.602 26.6641 908.602 26.1016V25.0703ZM922.781 27.6133C923.195 27.6133 923.574 27.5703 923.918 27.4844C924.262 27.3984 924.621 27.2891 924.996 27.1562V30.4961C924.496 30.7148 923.965 30.8906 923.402 31.0234C922.848 31.1641 922.137 31.2344 921.27 31.2344C920.41 31.2344 919.652 31.1016 918.996 30.8359C918.34 30.5625 917.828 30.0938 917.461 29.4297C917.102 28.7578 916.922 27.8242 916.922 26.6289V21.1562H915.316V19.293L917.355 17.8516L918.539 15.0625H921.539V17.7227H924.797V21.1562H921.539V26.3242C921.539 26.7539 921.648 27.0781 921.867 27.2969C922.086 27.5078 922.391 27.6133 922.781 27.6133ZM931.922 17.7227V31H927.34V17.7227H931.922ZM929.648 12.3789C930.305 12.3789 930.875 12.5156 931.359 12.7891C931.852 13.0625 932.098 13.6055 932.098 14.418C932.098 15.207 931.852 15.7422 931.359 16.0234C930.875 16.2969 930.305 16.4336 929.648 16.4336C928.977 16.4336 928.402 16.2969 927.926 16.0234C927.457 15.7422 927.223 15.207 927.223 14.418C927.223 13.6055 927.457 13.0625 927.926 12.7891C928.402 12.5156 928.977 12.3789 929.648 12.3789ZM947.801 24.332C947.801 25.4414 947.648 26.4258 947.344 27.2852C947.039 28.1445 946.598 28.8672 946.02 29.4531C945.441 30.0391 944.742 30.4844 943.922 30.7891C943.102 31.0859 942.176 31.2344 941.145 31.2344C940.184 31.2344 939.301 31.0859 938.496 30.7891C937.699 30.4844 937.004 30.0391 936.41 29.4531C935.816 28.8672 935.355 28.1445 935.027 27.2852C934.707 26.4258 934.547 25.4414 934.547 24.332C934.547 22.8633 934.812 21.6211 935.344 20.6055C935.883 19.5898 936.648 18.8164 937.641 18.2852C938.641 17.7539 939.832 17.4883 941.215 17.4883C942.488 17.4883 943.621 17.7539 944.613 18.2852C945.605 18.8164 946.383 19.5898 946.945 20.6055C947.516 21.6211 947.801 22.8633 947.801 24.332ZM939.199 24.332C939.199 25.0898 939.266 25.7305 939.398 26.2539C939.531 26.7695 939.742 27.1641 940.031 27.4375C940.328 27.7031 940.715 27.8359 941.191 27.8359C941.668 27.8359 942.047 27.7031 942.328 27.4375C942.609 27.1641 942.812 26.7695 942.938 26.2539C943.07 25.7305 943.137 25.0898 943.137 24.332C943.137 23.5742 943.07 22.9414 942.938 22.4336C942.812 21.9258 942.605 21.543 942.316 21.2852C942.035 21.0273 941.652 20.8984 941.168 20.8984C940.473 20.8984 939.969 21.1875 939.656 21.7656C939.352 22.3438 939.199 23.1992 939.199 24.332ZM958.734 17.4883C960.102 17.4883 961.219 17.875 962.086 18.6484C962.953 19.4219 963.387 20.6602 963.387 22.3633V31H958.805V23.7578C958.805 22.875 958.676 22.2109 958.418 21.7656C958.168 21.3125 957.762 21.0859 957.199 21.0859C956.332 21.0859 955.75 21.4414 955.453 22.1523C955.156 22.8555 955.008 23.8672 955.008 25.1875V31H950.426V17.7227H953.883L954.504 19.4805H954.68C954.961 19.0586 955.297 18.6992 955.688 18.4023C956.078 18.1055 956.527 17.8789 957.035 17.7227C957.543 17.5664 958.109 17.4883 958.734 17.4883Z" fill="white"/>
<defs>
<linearGradient id="paint0_linear_2351_835" x1="1440" y1="48.0003" x2="18.5271" y2="47.9997" gradientUnits="userSpaceOnUse">
<stop stop-color="#C2157D" stop-opacity="0"/>
<stop offset="0.523958" stop-color="#A01706"/>
<stop offset="1" stop-color="#C2157D" stop-opacity="0"/>
</linearGradient>
</defs>
</svg>
