<svg width="1440" height="48" viewBox="0 0 1440 48" fill="none" xmlns="http://www.w3.org/2000/svg">
<rect width="1440" height="48" fill="url(#paint0_linear_2351_1562)"/>
<path d="M428.781 13.8672C430.953 13.8672 432.578 14.3398 433.656 15.2852C434.742 16.2305 435.285 17.5742 435.285 19.3164C435.285 20.0977 435.172 20.8477 434.945 21.5664C434.727 22.2852 434.363 22.9258 433.855 23.4883C433.355 24.0508 432.688 24.4961 431.852 24.8242C431.023 25.1523 430 25.3164 428.781 25.3164H427.48V31H422.852V13.8672H428.781ZM428.676 17.6055H427.48V21.543H428.395C428.793 21.543 429.164 21.4766 429.508 21.3438C429.852 21.2031 430.125 20.9805 430.328 20.6758C430.539 20.3633 430.645 19.9492 430.645 19.4336C430.645 18.8945 430.484 18.457 430.164 18.1211C429.844 17.7773 429.348 17.6055 428.676 17.6055ZM445.762 17.4883C446.012 17.4883 446.273 17.5078 446.547 17.5469C446.82 17.5781 447.023 17.6055 447.156 17.6289L446.746 21.9531C446.598 21.9141 446.406 21.8828 446.172 21.8594C445.938 21.8281 445.609 21.8125 445.188 21.8125C444.898 21.8125 444.59 21.8398 444.262 21.8945C443.934 21.9492 443.621 22.0664 443.324 22.2461C443.035 22.418 442.797 22.6836 442.609 23.043C442.422 23.3945 442.328 23.8711 442.328 24.4727V31H437.746V17.7227H441.156L441.871 19.8438H442.094C442.336 19.4062 442.645 19.0117 443.02 18.6602C443.402 18.3008 443.828 18.0156 444.297 17.8047C444.773 17.5938 445.262 17.4883 445.762 17.4883ZM461.699 24.332C461.699 25.4414 461.547 26.4258 461.242 27.2852C460.938 28.1445 460.496 28.8672 459.918 29.4531C459.34 30.0391 458.641 30.4844 457.82 30.7891C457 31.0859 456.074 31.2344 455.043 31.2344C454.082 31.2344 453.199 31.0859 452.395 30.7891C451.598 30.4844 450.902 30.0391 450.309 29.4531C449.715 28.8672 449.254 28.1445 448.926 27.2852C448.605 26.4258 448.445 25.4414 448.445 24.332C448.445 22.8633 448.711 21.6211 449.242 20.6055C449.781 19.5898 450.547 18.8164 451.539 18.2852C452.539 17.7539 453.73 17.4883 455.113 17.4883C456.387 17.4883 457.52 17.7539 458.512 18.2852C459.504 18.8164 460.281 19.5898 460.844 20.6055C461.414 21.6211 461.699 22.8633 461.699 24.332ZM453.098 24.332C453.098 25.0898 453.164 25.7305 453.297 26.2539C453.43 26.7695 453.641 27.1641 453.93 27.4375C454.227 27.7031 454.613 27.8359 455.09 27.8359C455.566 27.8359 455.945 27.7031 456.227 27.4375C456.508 27.1641 456.711 26.7695 456.836 26.2539C456.969 25.7305 457.035 25.0898 457.035 24.332C457.035 23.5742 456.969 22.9414 456.836 22.4336C456.711 21.9258 456.504 21.543 456.215 21.2852C455.934 21.0273 455.551 20.8984 455.066 20.8984C454.371 20.8984 453.867 21.1875 453.555 21.7656C453.25 22.3438 453.098 23.1992 453.098 24.332ZM468.449 31.2344C467.082 31.2344 465.957 30.6523 465.074 29.4883C464.191 28.3242 463.75 26.6211 463.75 24.3789C463.75 22.1133 464.203 20.3984 465.109 19.2344C466.016 18.0703 467.188 17.4883 468.625 17.4883C469.219 17.4883 469.73 17.5742 470.16 17.7461C470.59 17.918 470.961 18.1523 471.273 18.4492C471.594 18.7383 471.871 19.0664 472.105 19.4336H472.199C472.145 19.0977 472.094 18.6367 472.047 18.0508C472 17.457 471.977 16.8789 471.977 16.3164V12.7656H476.594V31H473.137L472.152 29.3242H471.977C471.766 29.6758 471.5 29.9961 471.18 30.2852C470.867 30.5742 470.484 30.8047 470.031 30.9766C469.586 31.1484 469.059 31.2344 468.449 31.2344ZM470.324 27.6133C471.059 27.6133 471.574 27.3828 471.871 26.9219C472.176 26.4531 472.34 25.7422 472.363 24.7891V24.4258C472.363 23.3789 472.215 22.5781 471.918 22.0234C471.629 21.4609 471.082 21.1797 470.277 21.1797C469.73 21.1797 469.277 21.4453 468.918 21.9766C468.559 22.5078 468.379 23.332 468.379 24.4492C468.379 25.5508 468.559 26.3555 468.918 26.8633C469.285 27.3633 469.754 27.6133 470.324 27.6133ZM492.684 17.7227V31H489.227L488.652 29.3477H488.383C488.109 29.793 487.762 30.1562 487.34 30.4375C486.926 30.7109 486.465 30.9102 485.957 31.0352C485.449 31.168 484.922 31.2344 484.375 31.2344C483.508 31.2344 482.723 31.0664 482.02 30.7305C481.324 30.3945 480.77 29.8672 480.355 29.1484C479.949 28.4297 479.746 27.5039 479.746 26.3711V17.7227H484.328V24.9766C484.328 25.8359 484.449 26.4922 484.691 26.9453C484.941 27.3906 485.348 27.6133 485.91 27.6133C486.488 27.6133 486.934 27.457 487.246 27.1445C487.566 26.832 487.789 26.3711 487.914 25.7617C488.039 25.1523 488.102 24.4102 488.102 23.5352V17.7227H492.684ZM501.895 31.2344C500.551 31.2344 499.383 30.9961 498.391 30.5195C497.398 30.0352 496.629 29.293 496.082 28.293C495.543 27.2852 495.273 25.9961 495.273 24.4258C495.273 22.8164 495.574 21.5 496.176 20.4766C496.785 19.4531 497.617 18.6992 498.672 18.2148C499.727 17.7305 500.922 17.4883 502.258 17.4883C503.07 17.4883 503.84 17.5781 504.566 17.7578C505.301 17.9375 505.98 18.1836 506.605 18.4961L505.258 21.8828C504.711 21.6406 504.199 21.4492 503.723 21.3086C503.254 21.1602 502.766 21.0859 502.258 21.0859C501.797 21.0859 501.391 21.207 501.039 21.4492C500.688 21.6914 500.414 22.0586 500.219 22.5508C500.023 23.0352 499.926 23.6523 499.926 24.4023C499.926 25.168 500.023 25.7852 500.219 26.2539C500.422 26.7227 500.699 27.0625 501.051 27.2734C501.41 27.4844 501.82 27.5898 502.281 27.5898C502.945 27.5898 503.605 27.4883 504.262 27.2852C504.926 27.0742 505.555 26.7852 506.148 26.418V30.0625C505.602 30.4219 504.984 30.707 504.297 30.918C503.609 31.1289 502.809 31.2344 501.895 31.2344ZM514.832 31.2344C513.488 31.2344 512.32 30.9961 511.328 30.5195C510.336 30.0352 509.566 29.293 509.02 28.293C508.48 27.2852 508.211 25.9961 508.211 24.4258C508.211 22.8164 508.512 21.5 509.113 20.4766C509.723 19.4531 510.555 18.6992 511.609 18.2148C512.664 17.7305 513.859 17.4883 515.195 17.4883C516.008 17.4883 516.777 17.5781 517.504 17.7578C518.238 17.9375 518.918 18.1836 519.543 18.4961L518.195 21.8828C517.648 21.6406 517.137 21.4492 516.66 21.3086C516.191 21.1602 515.703 21.0859 515.195 21.0859C514.734 21.0859 514.328 21.207 513.977 21.4492C513.625 21.6914 513.352 22.0586 513.156 22.5508C512.961 23.0352 512.863 23.6523 512.863 24.4023C512.863 25.168 512.961 25.7852 513.156 26.2539C513.359 26.7227 513.637 27.0625 513.988 27.2734C514.348 27.4844 514.758 27.5898 515.219 27.5898C515.883 27.5898 516.543 27.4883 517.199 27.2852C517.863 27.0742 518.492 26.7852 519.086 26.418V30.0625C518.539 30.4219 517.922 30.707 517.234 30.918C516.547 31.1289 515.746 31.2344 514.832 31.2344ZM526.328 17.7227V31H521.746V17.7227H526.328ZM524.055 12.3789C524.711 12.3789 525.281 12.5156 525.766 12.7891C526.258 13.0625 526.504 13.6055 526.504 14.418C526.504 15.207 526.258 15.7422 525.766 16.0234C525.281 16.2969 524.711 16.4336 524.055 16.4336C523.383 16.4336 522.809 16.2969 522.332 16.0234C521.863 15.7422 521.629 15.207 521.629 14.418C521.629 13.6055 521.863 13.0625 522.332 12.7891C522.809 12.5156 523.383 12.3789 524.055 12.3789ZM542.207 24.332C542.207 25.4414 542.055 26.4258 541.75 27.2852C541.445 28.1445 541.004 28.8672 540.426 29.4531C539.848 30.0391 539.148 30.4844 538.328 30.7891C537.508 31.0859 536.582 31.2344 535.551 31.2344C534.59 31.2344 533.707 31.0859 532.902 30.7891C532.105 30.4844 531.41 30.0391 530.816 29.4531C530.223 28.8672 529.762 28.1445 529.434 27.2852C529.113 26.4258 528.953 25.4414 528.953 24.332C528.953 22.8633 529.219 21.6211 529.75 20.6055C530.289 19.5898 531.055 18.8164 532.047 18.2852C533.047 17.7539 534.238 17.4883 535.621 17.4883C536.895 17.4883 538.027 17.7539 539.02 18.2852C540.012 18.8164 540.789 19.5898 541.352 20.6055C541.922 21.6211 542.207 22.8633 542.207 24.332ZM533.605 24.332C533.605 25.0898 533.672 25.7305 533.805 26.2539C533.938 26.7695 534.148 27.1641 534.438 27.4375C534.734 27.7031 535.121 27.8359 535.598 27.8359C536.074 27.8359 536.453 27.7031 536.734 27.4375C537.016 27.1641 537.219 26.7695 537.344 26.2539C537.477 25.7305 537.543 25.0898 537.543 24.332C537.543 23.5742 537.477 22.9414 537.344 22.4336C537.219 21.9258 537.012 21.543 536.723 21.2852C536.441 21.0273 536.059 20.8984 535.574 20.8984C534.879 20.8984 534.375 21.1875 534.062 21.7656C533.758 22.3438 533.605 23.1992 533.605 24.332ZM541.316 12.6133V12.8594C541.035 13.0859 540.676 13.3633 540.238 13.6914C539.801 14.0117 539.336 14.3477 538.844 14.6992C538.359 15.043 537.887 15.3711 537.426 15.6836C536.973 15.9961 536.582 16.2539 536.254 16.457H533.207V16.1172C533.48 15.8203 533.809 15.4688 534.191 15.0625C534.574 14.6484 534.957 14.2266 535.34 13.7969C535.723 13.3672 536.043 12.9727 536.301 12.6133H541.316ZM553.141 17.4883C554.508 17.4883 555.625 17.875 556.492 18.6484C557.359 19.4219 557.793 20.6602 557.793 22.3633V31H553.211V23.7578C553.211 22.875 553.082 22.2109 552.824 21.7656C552.574 21.3125 552.168 21.0859 551.605 21.0859C550.738 21.0859 550.156 21.4414 549.859 22.1523C549.562 22.8555 549.414 23.8672 549.414 25.1875V31H544.832V17.7227H548.289L548.91 19.4805H549.086C549.367 19.0586 549.703 18.6992 550.094 18.4023C550.484 18.1055 550.934 17.8789 551.441 17.7227C551.949 17.5664 552.516 17.4883 553.141 17.4883ZM577.926 31L577.082 27.7891H571.516L570.648 31H565.562L571.152 13.7969H577.328L582.988 31H577.926ZM576.121 23.9922L575.383 21.1797C575.305 20.875 575.191 20.4414 575.043 19.8789C574.895 19.3086 574.746 18.7227 574.598 18.1211C574.457 17.5117 574.348 17.0117 574.27 16.6211C574.199 17.0117 574.098 17.4961 573.965 18.0742C573.84 18.6445 573.707 19.2109 573.566 19.7734C573.434 20.3359 573.316 20.8047 573.215 21.1797L572.477 23.9922H576.121ZM597.496 17.7227V31H594.039L593.465 29.3477H593.195C592.922 29.793 592.574 30.1562 592.152 30.4375C591.738 30.7109 591.277 30.9102 590.77 31.0352C590.262 31.168 589.734 31.2344 589.188 31.2344C588.32 31.2344 587.535 31.0664 586.832 30.7305C586.137 30.3945 585.582 29.8672 585.168 29.1484C584.762 28.4297 584.559 27.5039 584.559 26.3711V17.7227H589.141V24.9766C589.141 25.8359 589.262 26.4922 589.504 26.9453C589.754 27.3906 590.16 27.6133 590.723 27.6133C591.301 27.6133 591.746 27.457 592.059 27.1445C592.379 26.832 592.602 26.3711 592.727 25.7617C592.852 25.1523 592.914 24.4102 592.914 23.5352V17.7227H597.496ZM604.785 31.2344C603.418 31.2344 602.293 30.6523 601.41 29.4883C600.527 28.3242 600.086 26.6211 600.086 24.3789C600.086 22.1133 600.539 20.3984 601.445 19.2344C602.352 18.0703 603.523 17.4883 604.961 17.4883C605.555 17.4883 606.066 17.5742 606.496 17.7461C606.926 17.918 607.297 18.1523 607.609 18.4492C607.93 18.7383 608.207 19.0664 608.441 19.4336H608.535C608.48 19.0977 608.43 18.6367 608.383 18.0508C608.336 17.457 608.312 16.8789 608.312 16.3164V12.7656H612.93V31H609.473L608.488 29.3242H608.312C608.102 29.6758 607.836 29.9961 607.516 30.2852C607.203 30.5742 606.82 30.8047 606.367 30.9766C605.922 31.1484 605.395 31.2344 604.785 31.2344ZM606.66 27.6133C607.395 27.6133 607.91 27.3828 608.207 26.9219C608.512 26.4531 608.676 25.7422 608.699 24.7891V24.4258C608.699 23.3789 608.551 22.5781 608.254 22.0234C607.965 21.4609 607.418 21.1797 606.613 21.1797C606.066 21.1797 605.613 21.4453 605.254 21.9766C604.895 22.5078 604.715 23.332 604.715 24.4492C604.715 25.5508 604.895 26.3555 605.254 26.8633C605.621 27.3633 606.09 27.6133 606.66 27.6133ZM620.711 17.7227V31H616.129V17.7227H620.711ZM618.438 12.3789C619.094 12.3789 619.664 12.5156 620.148 12.7891C620.641 13.0625 620.887 13.6055 620.887 14.418C620.887 15.207 620.641 15.7422 620.148 16.0234C619.664 16.2969 619.094 16.4336 618.438 16.4336C617.766 16.4336 617.191 16.2969 616.715 16.0234C616.246 15.7422 616.012 15.207 616.012 14.418C616.012 13.6055 616.246 13.0625 616.715 12.7891C617.191 12.5156 617.766 12.3789 618.438 12.3789ZM636.59 24.332C636.59 25.4414 636.438 26.4258 636.133 27.2852C635.828 28.1445 635.387 28.8672 634.809 29.4531C634.23 30.0391 633.531 30.4844 632.711 30.7891C631.891 31.0859 630.965 31.2344 629.934 31.2344C628.973 31.2344 628.09 31.0859 627.285 30.7891C626.488 30.4844 625.793 30.0391 625.199 29.4531C624.605 28.8672 624.145 28.1445 623.816 27.2852C623.496 26.4258 623.336 25.4414 623.336 24.332C623.336 22.8633 623.602 21.6211 624.133 20.6055C624.672 19.5898 625.438 18.8164 626.43 18.2852C627.43 17.7539 628.621 17.4883 630.004 17.4883C631.277 17.4883 632.41 17.7539 633.402 18.2852C634.395 18.8164 635.172 19.5898 635.734 20.6055C636.305 21.6211 636.59 22.8633 636.59 24.332ZM627.988 24.332C627.988 25.0898 628.055 25.7305 628.188 26.2539C628.32 26.7695 628.531 27.1641 628.82 27.4375C629.117 27.7031 629.504 27.8359 629.98 27.8359C630.457 27.8359 630.836 27.7031 631.117 27.4375C631.398 27.1641 631.602 26.7695 631.727 26.2539C631.859 25.7305 631.926 25.0898 631.926 24.332C631.926 23.5742 631.859 22.9414 631.727 22.4336C631.602 21.9258 631.395 21.543 631.105 21.2852C630.824 21.0273 630.441 20.8984 629.957 20.8984C629.262 20.8984 628.758 21.1875 628.445 21.7656C628.141 22.3438 627.988 23.1992 627.988 24.332ZM642.695 31L637.633 17.7227H642.414L644.664 25.5742C644.688 25.6445 644.727 25.8242 644.781 26.1133C644.844 26.4023 644.875 26.6719 644.875 26.9219H644.957C644.957 26.6562 644.984 26.4023 645.039 26.1602C645.094 25.918 645.137 25.7305 645.168 25.5977L647.523 17.7227H652.293L647.23 31H642.695ZM658.492 17.7227V31H653.91V17.7227H658.492ZM656.219 12.3789C656.875 12.3789 657.445 12.5156 657.93 12.7891C658.422 13.0625 658.668 13.6055 658.668 14.418C658.668 15.207 658.422 15.7422 657.93 16.0234C657.445 16.2969 656.875 16.4336 656.219 16.4336C655.547 16.4336 654.973 16.2969 654.496 16.0234C654.027 15.7422 653.793 15.207 653.793 14.418C653.793 13.6055 654.027 13.0625 654.496 12.7891C654.973 12.5156 655.547 12.3789 656.219 12.3789ZM671.559 26.9219C671.559 27.7656 671.371 28.5117 670.996 29.1602C670.621 29.8086 670.02 30.3164 669.191 30.6836C668.371 31.0508 667.289 31.2344 665.945 31.2344C665 31.2344 664.152 31.1836 663.402 31.082C662.66 30.9805 661.906 30.7852 661.141 30.4961V26.8281C661.977 27.2109 662.828 27.4883 663.695 27.6602C664.562 27.8242 665.246 27.9062 665.746 27.9062C666.262 27.9062 666.637 27.8516 666.871 27.7422C667.113 27.625 667.234 27.4531 667.234 27.2266C667.234 27.0312 667.152 26.8672 666.988 26.7344C666.832 26.5938 666.547 26.4336 666.133 26.2539C665.727 26.0742 665.152 25.832 664.41 25.5273C663.676 25.2227 663.062 24.8906 662.57 24.5312C662.086 24.1719 661.723 23.7422 661.48 23.2422C661.238 22.7422 661.117 22.1289 661.117 21.4023C661.117 20.1055 661.617 19.1289 662.617 18.4727C663.617 17.8164 664.941 17.4883 666.59 17.4883C667.465 17.4883 668.289 17.5859 669.062 17.7812C669.836 17.9688 670.637 18.2461 671.465 18.6133L670.211 21.5664C669.555 21.2695 668.891 21.0312 668.219 20.8516C667.547 20.6719 667.012 20.582 666.613 20.582C666.254 20.582 665.977 20.6289 665.781 20.7227C665.586 20.8164 665.488 20.9531 665.488 21.1328C665.488 21.2969 665.555 21.4414 665.688 21.5664C665.828 21.6914 666.09 21.8359 666.473 22C666.855 22.1641 667.414 22.3945 668.148 22.6914C668.922 23.0039 669.559 23.3398 670.059 23.6992C670.566 24.0508 670.941 24.4805 671.184 24.9883C671.434 25.4961 671.559 26.1406 671.559 26.9219ZM687.027 17.7227V31H683.57L682.996 29.3477H682.727C682.453 29.793 682.105 30.1562 681.684 30.4375C681.27 30.7109 680.809 30.9102 680.301 31.0352C679.793 31.168 679.266 31.2344 678.719 31.2344C677.852 31.2344 677.066 31.0664 676.363 30.7305C675.668 30.3945 675.113 29.8672 674.699 29.1484C674.293 28.4297 674.09 27.5039 674.09 26.3711V17.7227H678.672V24.9766C678.672 25.8359 678.793 26.4922 679.035 26.9453C679.285 27.3906 679.691 27.6133 680.254 27.6133C680.832 27.6133 681.277 27.457 681.59 27.1445C681.91 26.832 682.133 26.3711 682.258 25.7617C682.383 25.1523 682.445 24.4102 682.445 23.5352V17.7227H687.027ZM696.672 17.4883C698.352 17.4883 699.664 17.9062 700.609 18.7422C701.555 19.5703 702.027 20.7539 702.027 22.293V31H698.852L697.973 29.2422H697.879C697.504 29.7109 697.117 30.0938 696.719 30.3906C696.328 30.6797 695.879 30.8906 695.371 31.0234C694.863 31.1641 694.242 31.2344 693.508 31.2344C692.742 31.2344 692.055 31.0781 691.445 30.7656C690.836 30.4531 690.355 29.9805 690.004 29.3477C689.652 28.7148 689.477 27.9141 689.477 26.9453C689.477 25.5234 689.969 24.4688 690.953 23.7812C691.938 23.0938 693.363 22.707 695.23 22.6211L697.445 22.5508V22.3633C697.445 21.7695 697.297 21.3477 697 21.0977C696.711 20.8477 696.32 20.7227 695.828 20.7227C695.305 20.7227 694.719 20.8164 694.07 21.0039C693.43 21.1836 692.785 21.418 692.137 21.707L690.812 18.6836C691.578 18.293 692.445 17.9961 693.414 17.793C694.383 17.5898 695.469 17.4883 696.672 17.4883ZM697.469 25.0703L696.414 25.1172C695.57 25.1484 694.977 25.2969 694.633 25.5625C694.297 25.8203 694.129 26.1914 694.129 26.6758C694.129 27.1289 694.25 27.4648 694.492 27.6836C694.734 27.8945 695.055 28 695.453 28C696.008 28 696.48 27.8242 696.871 27.4727C697.27 27.1211 697.469 26.6641 697.469 26.1016V25.0703ZM709.727 31H705.145V12.7656H709.727V31ZM717.531 17.7227H722.359L724.609 25.3398C724.641 25.4492 724.672 25.5859 724.703 25.75C724.734 25.9062 724.762 26.0742 724.785 26.2539C724.809 26.4336 724.824 26.6094 724.832 26.7812H724.926C724.965 26.4609 725.008 26.1836 725.055 25.9492C725.109 25.707 725.16 25.5117 725.207 25.3633L727.516 17.7227H732.191L726.941 31.8438C726.535 32.9219 726.062 33.8242 725.523 34.5508C724.992 35.2852 724.332 35.8359 723.543 36.2031C722.762 36.5781 721.789 36.7656 720.625 36.7656C720.203 36.7656 719.84 36.7422 719.535 36.6953C719.238 36.6562 718.977 36.6133 718.75 36.5664V32.9688C718.922 33 719.133 33.0312 719.383 33.0625C719.633 33.0938 719.895 33.1094 720.168 33.1094C720.676 33.1094 721.086 33.0078 721.398 32.8047C721.719 32.6016 721.98 32.332 722.184 31.9961C722.387 31.668 722.562 31.3125 722.711 30.9297L722.758 30.8125L717.531 17.7227ZM747.918 17.418C747.371 17.418 746.883 17.5352 746.453 17.7695C746.023 17.9961 745.656 18.3281 745.352 18.7656C745.047 19.2031 744.812 19.7383 744.648 20.3711C744.492 20.9961 744.414 21.707 744.414 22.5039C744.414 23.582 744.551 24.4883 744.824 25.2227C745.098 25.957 745.512 26.5117 746.066 26.8867C746.629 27.2617 747.332 27.4492 748.176 27.4492C748.941 27.4492 749.676 27.3438 750.379 27.1328C751.09 26.9219 751.805 26.668 752.523 26.3711V30.2852C751.766 30.6211 750.988 30.8633 750.191 31.0117C749.402 31.1602 748.562 31.2344 747.672 31.2344C745.812 31.2344 744.289 30.8672 743.102 30.1328C741.922 29.3906 741.051 28.3633 740.488 27.0508C739.934 25.7383 739.656 24.2148 739.656 22.4805C739.656 21.1836 739.836 19.9961 740.195 18.918C740.562 17.8398 741.098 16.9062 741.801 16.1172C742.504 15.3203 743.371 14.707 744.402 14.2773C745.441 13.8398 746.629 13.6211 747.965 13.6211C748.793 13.6211 749.664 13.7188 750.578 13.9141C751.5 14.1016 752.398 14.4062 753.273 14.8281L751.855 18.4727C751.23 18.1758 750.598 17.9258 749.957 17.7227C749.316 17.5195 748.637 17.418 747.918 17.418ZM763.621 17.4883C763.871 17.4883 764.133 17.5078 764.406 17.5469C764.68 17.5781 764.883 17.6055 765.016 17.6289L764.605 21.9531C764.457 21.9141 764.266 21.8828 764.031 21.8594C763.797 21.8281 763.469 21.8125 763.047 21.8125C762.758 21.8125 762.449 21.8398 762.121 21.8945C761.793 21.9492 761.48 22.0664 761.184 22.2461C760.895 22.418 760.656 22.6836 760.469 23.043C760.281 23.3945 760.188 23.8711 760.188 24.4727V31H755.605V17.7227H759.016L759.73 19.8438H759.953C760.195 19.4062 760.504 19.0117 760.879 18.6602C761.262 18.3008 761.688 18.0156 762.156 17.8047C762.633 17.5938 763.121 17.4883 763.621 17.4883ZM772.855 17.4883C774.145 17.4883 775.258 17.7148 776.195 18.168C777.133 18.6133 777.855 19.2852 778.363 20.1836C778.871 21.082 779.125 22.207 779.125 23.5586V25.5977H770.934C770.973 26.293 771.23 26.8633 771.707 27.3086C772.191 27.7539 772.902 27.9766 773.84 27.9766C774.668 27.9766 775.426 27.8945 776.113 27.7305C776.809 27.5664 777.523 27.3125 778.258 26.9688V30.2617C777.617 30.5977 776.918 30.8438 776.16 31C775.402 31.1562 774.445 31.2344 773.289 31.2344C771.953 31.2344 770.758 30.9961 769.703 30.5195C768.648 30.043 767.816 29.3047 767.207 28.3047C766.605 27.3047 766.305 26.0195 766.305 24.4492C766.305 22.8555 766.578 21.5469 767.125 20.5234C767.672 19.4922 768.438 18.7305 769.422 18.2383C770.406 17.7383 771.551 17.4883 772.855 17.4883ZM773.02 20.6055C772.48 20.6055 772.027 20.7773 771.66 21.1211C771.301 21.457 771.09 21.9883 771.027 22.7148H774.965C774.957 22.3242 774.879 21.9688 774.73 21.6484C774.582 21.3281 774.363 21.0742 774.074 20.8867C773.793 20.6992 773.441 20.6055 773.02 20.6055ZM788.195 17.4883C789.875 17.4883 791.188 17.9062 792.133 18.7422C793.078 19.5703 793.551 20.7539 793.551 22.293V31H790.375L789.496 29.2422H789.402C789.027 29.7109 788.641 30.0938 788.242 30.3906C787.852 30.6797 787.402 30.8906 786.895 31.0234C786.387 31.1641 785.766 31.2344 785.031 31.2344C784.266 31.2344 783.578 31.0781 782.969 30.7656C782.359 30.4531 781.879 29.9805 781.527 29.3477C781.176 28.7148 781 27.9141 781 26.9453C781 25.5234 781.492 24.4688 782.477 23.7812C783.461 23.0938 784.887 22.707 786.754 22.6211L788.969 22.5508V22.3633C788.969 21.7695 788.82 21.3477 788.523 21.0977C788.234 20.8477 787.844 20.7227 787.352 20.7227C786.828 20.7227 786.242 20.8164 785.594 21.0039C784.953 21.1836 784.309 21.418 783.66 21.707L782.336 18.6836C783.102 18.293 783.969 17.9961 784.938 17.793C785.906 17.5898 786.992 17.4883 788.195 17.4883ZM788.992 25.0703L787.938 25.1172C787.094 25.1484 786.5 25.2969 786.156 25.5625C785.82 25.8203 785.652 26.1914 785.652 26.6758C785.652 27.1289 785.773 27.4648 786.016 27.6836C786.258 27.8945 786.578 28 786.977 28C787.531 28 788.004 27.8242 788.395 27.4727C788.793 27.1211 788.992 26.6641 788.992 26.1016V25.0703ZM802.715 31.2344C801.371 31.2344 800.203 30.9961 799.211 30.5195C798.219 30.0352 797.449 29.293 796.902 28.293C796.363 27.2852 796.094 25.9961 796.094 24.4258C796.094 22.8164 796.395 21.5 796.996 20.4766C797.605 19.4531 798.438 18.6992 799.492 18.2148C800.547 17.7305 801.742 17.4883 803.078 17.4883C803.891 17.4883 804.66 17.5781 805.387 17.7578C806.121 17.9375 806.801 18.1836 807.426 18.4961L806.078 21.8828C805.531 21.6406 805.02 21.4492 804.543 21.3086C804.074 21.1602 803.586 21.0859 803.078 21.0859C802.617 21.0859 802.211 21.207 801.859 21.4492C801.508 21.6914 801.234 22.0586 801.039 22.5508C800.844 23.0352 800.746 23.6523 800.746 24.4023C800.746 25.168 800.844 25.7852 801.039 26.2539C801.242 26.7227 801.52 27.0625 801.871 27.2734C802.23 27.4844 802.641 27.5898 803.102 27.5898C803.766 27.5898 804.426 27.4883 805.082 27.2852C805.746 27.0742 806.375 26.7852 806.969 26.418V30.0625C806.422 30.4219 805.805 30.707 805.117 30.918C804.43 31.1289 803.629 31.2344 802.715 31.2344ZM814.211 17.7227V31H809.629V17.7227H814.211ZM811.938 12.3789C812.594 12.3789 813.164 12.5156 813.648 12.7891C814.141 13.0625 814.387 13.6055 814.387 14.418C814.387 15.207 814.141 15.7422 813.648 16.0234C813.164 16.2969 812.594 16.4336 811.938 16.4336C811.266 16.4336 810.691 16.2969 810.215 16.0234C809.746 15.7422 809.512 15.207 809.512 14.418C809.512 13.6055 809.746 13.0625 810.215 12.7891C810.691 12.5156 811.266 12.3789 811.938 12.3789ZM830.09 24.332C830.09 25.4414 829.938 26.4258 829.633 27.2852C829.328 28.1445 828.887 28.8672 828.309 29.4531C827.73 30.0391 827.031 30.4844 826.211 30.7891C825.391 31.0859 824.465 31.2344 823.434 31.2344C822.473 31.2344 821.59 31.0859 820.785 30.7891C819.988 30.4844 819.293 30.0391 818.699 29.4531C818.105 28.8672 817.645 28.1445 817.316 27.2852C816.996 26.4258 816.836 25.4414 816.836 24.332C816.836 22.8633 817.102 21.6211 817.633 20.6055C818.172 19.5898 818.938 18.8164 819.93 18.2852C820.93 17.7539 822.121 17.4883 823.504 17.4883C824.777 17.4883 825.91 17.7539 826.902 18.2852C827.895 18.8164 828.672 19.5898 829.234 20.6055C829.805 21.6211 830.09 22.8633 830.09 24.332ZM821.488 24.332C821.488 25.0898 821.555 25.7305 821.688 26.2539C821.82 26.7695 822.031 27.1641 822.32 27.4375C822.617 27.7031 823.004 27.8359 823.48 27.8359C823.957 27.8359 824.336 27.7031 824.617 27.4375C824.898 27.1641 825.102 26.7695 825.227 26.2539C825.359 25.7305 825.426 25.0898 825.426 24.332C825.426 23.5742 825.359 22.9414 825.227 22.4336C825.102 21.9258 824.895 21.543 824.605 21.2852C824.324 21.0273 823.941 20.8984 823.457 20.8984C822.762 20.8984 822.258 21.1875 821.945 21.7656C821.641 22.3438 821.488 23.1992 821.488 24.332ZM829.199 12.6133V12.8594C828.918 13.0859 828.559 13.3633 828.121 13.6914C827.684 14.0117 827.219 14.3477 826.727 14.6992C826.242 15.043 825.77 15.3711 825.309 15.6836C824.855 15.9961 824.465 16.2539 824.137 16.457H821.09V16.1172C821.363 15.8203 821.691 15.4688 822.074 15.0625C822.457 14.6484 822.84 14.2266 823.223 13.7969C823.605 13.3672 823.926 12.9727 824.184 12.6133H829.199ZM841.023 17.4883C842.391 17.4883 843.508 17.875 844.375 18.6484C845.242 19.4219 845.676 20.6602 845.676 22.3633V31H841.094V23.7578C841.094 22.875 840.965 22.2109 840.707 21.7656C840.457 21.3125 840.051 21.0859 839.488 21.0859C838.621 21.0859 838.039 21.4414 837.742 22.1523C837.445 22.8555 837.297 23.8672 837.297 25.1875V31H832.715V17.7227H836.172L836.793 19.4805H836.969C837.25 19.0586 837.586 18.6992 837.977 18.4023C838.367 18.1055 838.816 17.8789 839.324 17.7227C839.832 17.5664 840.398 17.4883 841.023 17.4883ZM859.152 31.2344C857.785 31.2344 856.66 30.6523 855.777 29.4883C854.895 28.3242 854.453 26.6211 854.453 24.3789C854.453 22.1133 854.906 20.3984 855.812 19.2344C856.719 18.0703 857.891 17.4883 859.328 17.4883C859.922 17.4883 860.434 17.5742 860.863 17.7461C861.293 17.918 861.664 18.1523 861.977 18.4492C862.297 18.7383 862.574 19.0664 862.809 19.4336H862.902C862.848 19.0977 862.797 18.6367 862.75 18.0508C862.703 17.457 862.68 16.8789 862.68 16.3164V12.7656H867.297V31H863.84L862.855 29.3242H862.68C862.469 29.6758 862.203 29.9961 861.883 30.2852C861.57 30.5742 861.188 30.8047 860.734 30.9766C860.289 31.1484 859.762 31.2344 859.152 31.2344ZM861.027 27.6133C861.762 27.6133 862.277 27.3828 862.574 26.9219C862.879 26.4531 863.043 25.7422 863.066 24.7891V24.4258C863.066 23.3789 862.918 22.5781 862.621 22.0234C862.332 21.4609 861.785 21.1797 860.98 21.1797C860.434 21.1797 859.98 21.4453 859.621 21.9766C859.262 22.5078 859.082 23.332 859.082 24.4492C859.082 25.5508 859.262 26.3555 859.621 26.8633C859.988 27.3633 860.457 27.6133 861.027 27.6133ZM876.449 17.4883C877.738 17.4883 878.852 17.7148 879.789 18.168C880.727 18.6133 881.449 19.2852 881.957 20.1836C882.465 21.082 882.719 22.207 882.719 23.5586V25.5977H874.527C874.566 26.293 874.824 26.8633 875.301 27.3086C875.785 27.7539 876.496 27.9766 877.434 27.9766C878.262 27.9766 879.02 27.8945 879.707 27.7305C880.402 27.5664 881.117 27.3125 881.852 26.9688V30.2617C881.211 30.5977 880.512 30.8438 879.754 31C878.996 31.1562 878.039 31.2344 876.883 31.2344C875.547 31.2344 874.352 30.9961 873.297 30.5195C872.242 30.043 871.41 29.3047 870.801 28.3047C870.199 27.3047 869.898 26.0195 869.898 24.4492C869.898 22.8555 870.172 21.5469 870.719 20.5234C871.266 19.4922 872.031 18.7305 873.016 18.2383C874 17.7383 875.145 17.4883 876.449 17.4883ZM876.613 20.6055C876.074 20.6055 875.621 20.7773 875.254 21.1211C874.895 21.457 874.684 21.9883 874.621 22.7148H878.559C878.551 22.3242 878.473 21.9688 878.324 21.6484C878.176 21.3281 877.957 21.0742 877.668 20.8867C877.387 20.6992 877.035 20.6055 876.613 20.6055ZM899.441 17.418C898.895 17.418 898.406 17.5352 897.977 17.7695C897.547 17.9961 897.18 18.3281 896.875 18.7656C896.57 19.2031 896.336 19.7383 896.172 20.3711C896.016 20.9961 895.938 21.707 895.938 22.5039C895.938 23.582 896.074 24.4883 896.348 25.2227C896.621 25.957 897.035 26.5117 897.59 26.8867C898.152 27.2617 898.855 27.4492 899.699 27.4492C900.465 27.4492 901.199 27.3438 901.902 27.1328C902.613 26.9219 903.328 26.668 904.047 26.3711V30.2852C903.289 30.6211 902.512 30.8633 901.715 31.0117C900.926 31.1602 900.086 31.2344 899.195 31.2344C897.336 31.2344 895.812 30.8672 894.625 30.1328C893.445 29.3906 892.574 28.3633 892.012 27.0508C891.457 25.7383 891.18 24.2148 891.18 22.4805C891.18 21.1836 891.359 19.9961 891.719 18.918C892.086 17.8398 892.621 16.9062 893.324 16.1172C894.027 15.3203 894.895 14.707 895.926 14.2773C896.965 13.8398 898.152 13.6211 899.488 13.6211C900.316 13.6211 901.188 13.7188 902.102 13.9141C903.023 14.1016 903.922 14.4062 904.797 14.8281L903.379 18.4727C902.754 18.1758 902.121 17.9258 901.48 17.7227C900.84 17.5195 900.16 17.418 899.441 17.418ZM919.809 24.332C919.809 25.4414 919.656 26.4258 919.352 27.2852C919.047 28.1445 918.605 28.8672 918.027 29.4531C917.449 30.0391 916.75 30.4844 915.93 30.7891C915.109 31.0859 914.184 31.2344 913.152 31.2344C912.191 31.2344 911.309 31.0859 910.504 30.7891C909.707 30.4844 909.012 30.0391 908.418 29.4531C907.824 28.8672 907.363 28.1445 907.035 27.2852C906.715 26.4258 906.555 25.4414 906.555 24.332C906.555 22.8633 906.82 21.6211 907.352 20.6055C907.891 19.5898 908.656 18.8164 909.648 18.2852C910.648 17.7539 911.84 17.4883 913.223 17.4883C914.496 17.4883 915.629 17.7539 916.621 18.2852C917.613 18.8164 918.391 19.5898 918.953 20.6055C919.523 21.6211 919.809 22.8633 919.809 24.332ZM911.207 24.332C911.207 25.0898 911.273 25.7305 911.406 26.2539C911.539 26.7695 911.75 27.1641 912.039 27.4375C912.336 27.7031 912.723 27.8359 913.199 27.8359C913.676 27.8359 914.055 27.7031 914.336 27.4375C914.617 27.1641 914.82 26.7695 914.945 26.2539C915.078 25.7305 915.145 25.0898 915.145 24.332C915.145 23.5742 915.078 22.9414 914.945 22.4336C914.82 21.9258 914.613 21.543 914.324 21.2852C914.043 21.0273 913.66 20.8984 913.176 20.8984C912.48 20.8984 911.977 21.1875 911.664 21.7656C911.359 22.3438 911.207 23.1992 911.207 24.332ZM930.742 17.4883C932.109 17.4883 933.227 17.875 934.094 18.6484C934.961 19.4219 935.395 20.6602 935.395 22.3633V31H930.812V23.7578C930.812 22.875 930.684 22.2109 930.426 21.7656C930.176 21.3125 929.77 21.0859 929.207 21.0859C928.34 21.0859 927.758 21.4414 927.461 22.1523C927.164 22.8555 927.016 23.8672 927.016 25.1875V31H922.434V17.7227H925.891L926.512 19.4805H926.688C926.969 19.0586 927.305 18.6992 927.695 18.4023C928.086 18.1055 928.535 17.8789 929.043 17.7227C929.551 17.5664 930.117 17.4883 930.742 17.4883ZM945.016 27.6133C945.43 27.6133 945.809 27.5703 946.152 27.4844C946.496 27.3984 946.855 27.2891 947.23 27.1562V30.4961C946.73 30.7148 946.199 30.8906 945.637 31.0234C945.082 31.1641 944.371 31.2344 943.504 31.2344C942.645 31.2344 941.887 31.1016 941.23 30.8359C940.574 30.5625 940.062 30.0938 939.695 29.4297C939.336 28.7578 939.156 27.8242 939.156 26.6289V21.1562H937.551V19.293L939.59 17.8516L940.773 15.0625H943.773V17.7227H947.031V21.1562H943.773V26.3242C943.773 26.7539 943.883 27.0781 944.102 27.2969C944.32 27.5078 944.625 27.6133 945.016 27.6133ZM955.527 17.4883C956.816 17.4883 957.93 17.7148 958.867 18.168C959.805 18.6133 960.527 19.2852 961.035 20.1836C961.543 21.082 961.797 22.207 961.797 23.5586V25.5977H953.605C953.645 26.293 953.902 26.8633 954.379 27.3086C954.863 27.7539 955.574 27.9766 956.512 27.9766C957.34 27.9766 958.098 27.8945 958.785 27.7305C959.48 27.5664 960.195 27.3125 960.93 26.9688V30.2617C960.289 30.5977 959.59 30.8438 958.832 31C958.074 31.1562 957.117 31.2344 955.961 31.2344C954.625 31.2344 953.43 30.9961 952.375 30.5195C951.32 30.043 950.488 29.3047 949.879 28.3047C949.277 27.3047 948.977 26.0195 948.977 24.4492C948.977 22.8555 949.25 21.5469 949.797 20.5234C950.344 19.4922 951.109 18.7305 952.094 18.2383C953.078 17.7383 954.223 17.4883 955.527 17.4883ZM955.691 20.6055C955.152 20.6055 954.699 20.7773 954.332 21.1211C953.973 21.457 953.762 21.9883 953.699 22.7148H957.637C957.629 22.3242 957.551 21.9688 957.402 21.6484C957.254 21.3281 957.035 21.0742 956.746 20.8867C956.465 20.6992 956.113 20.6055 955.691 20.6055ZM972.695 17.4883C974.062 17.4883 975.18 17.875 976.047 18.6484C976.914 19.4219 977.348 20.6602 977.348 22.3633V31H972.766V23.7578C972.766 22.875 972.637 22.2109 972.379 21.7656C972.129 21.3125 971.723 21.0859 971.16 21.0859C970.293 21.0859 969.711 21.4414 969.414 22.1523C969.117 22.8555 968.969 23.8672 968.969 25.1875V31H964.387V17.7227H967.844L968.465 19.4805H968.641C968.922 19.0586 969.258 18.6992 969.648 18.4023C970.039 18.1055 970.488 17.8789 970.996 17.7227C971.504 17.5664 972.07 17.4883 972.695 17.4883ZM985.07 17.7227V31H980.488V17.7227H985.07ZM982.797 12.3789C983.453 12.3789 984.023 12.5156 984.508 12.7891C985 13.0625 985.246 13.6055 985.246 14.418C985.246 15.207 985 15.7422 984.508 16.0234C984.023 16.2969 983.453 16.4336 982.797 16.4336C982.125 16.4336 981.551 16.2969 981.074 16.0234C980.605 15.7422 980.371 15.207 980.371 14.418C980.371 13.6055 980.605 13.0625 981.074 12.7891C981.551 12.5156 982.125 12.3789 982.797 12.3789ZM992.395 31.2344C991.027 31.2344 989.902 30.6523 989.02 29.4883C988.137 28.3242 987.695 26.6211 987.695 24.3789C987.695 22.1133 988.148 20.3984 989.055 19.2344C989.961 18.0703 991.133 17.4883 992.57 17.4883C993.164 17.4883 993.676 17.5742 994.105 17.7461C994.535 17.918 994.906 18.1523 995.219 18.4492C995.539 18.7383 995.816 19.0664 996.051 19.4336H996.145C996.09 19.0977 996.039 18.6367 995.992 18.0508C995.945 17.457 995.922 16.8789 995.922 16.3164V12.7656H1000.54V31H997.082L996.098 29.3242H995.922C995.711 29.6758 995.445 29.9961 995.125 30.2852C994.812 30.5742 994.43 30.8047 993.977 30.9766C993.531 31.1484 993.004 31.2344 992.395 31.2344ZM994.27 27.6133C995.004 27.6133 995.52 27.3828 995.816 26.9219C996.121 26.4531 996.285 25.7422 996.309 24.7891V24.4258C996.309 23.3789 996.16 22.5781 995.863 22.0234C995.574 21.4609 995.027 21.1797 994.223 21.1797C993.676 21.1797 993.223 21.4453 992.863 21.9766C992.504 22.5078 992.324 23.332 992.324 24.4492C992.324 25.5508 992.504 26.3555 992.863 26.8633C993.23 27.3633 993.699 27.6133 994.27 27.6133ZM1016.39 24.332C1016.39 25.4414 1016.24 26.4258 1015.94 27.2852C1015.63 28.1445 1015.19 28.8672 1014.61 29.4531C1014.04 30.0391 1013.34 30.4844 1012.52 30.7891C1011.7 31.0859 1010.77 31.2344 1009.74 31.2344C1008.78 31.2344 1007.89 31.0859 1007.09 30.7891C1006.29 30.4844 1005.6 30.0391 1005 29.4531C1004.41 28.8672 1003.95 28.1445 1003.62 27.2852C1003.3 26.4258 1003.14 25.4414 1003.14 24.332C1003.14 22.8633 1003.41 21.6211 1003.94 20.6055C1004.48 19.5898 1005.24 18.8164 1006.23 18.2852C1007.23 17.7539 1008.43 17.4883 1009.81 17.4883C1011.08 17.4883 1012.21 17.7539 1013.21 18.2852C1014.2 18.8164 1014.98 19.5898 1015.54 20.6055C1016.11 21.6211 1016.39 22.8633 1016.39 24.332ZM1007.79 24.332C1007.79 25.0898 1007.86 25.7305 1007.99 26.2539C1008.12 26.7695 1008.34 27.1641 1008.62 27.4375C1008.92 27.7031 1009.31 27.8359 1009.79 27.8359C1010.26 27.8359 1010.64 27.7031 1010.92 27.4375C1011.2 27.1641 1011.41 26.7695 1011.53 26.2539C1011.66 25.7305 1011.73 25.0898 1011.73 24.332C1011.73 23.5742 1011.66 22.9414 1011.53 22.4336C1011.41 21.9258 1011.2 21.543 1010.91 21.2852C1010.63 21.0273 1010.25 20.8984 1009.76 20.8984C1009.07 20.8984 1008.56 21.1875 1008.25 21.7656C1007.95 22.3438 1007.79 23.1992 1007.79 24.332Z" fill="white"/>
<defs>
<linearGradient id="paint0_linear_2351_1562" x1="1440" y1="48.0003" x2="18.5271" y2="47.9997" gradientUnits="userSpaceOnUse">
<stop stop-color="#C2157D" stop-opacity="0"/>
<stop offset="0.523958" stop-color="#A01706"/>
<stop offset="1" stop-color="#C2157D" stop-opacity="0"/>
</linearGradient>
</defs>
</svg>
