<svg width="768" height="48" viewBox="0 0 768 48" fill="none" xmlns="http://www.w3.org/2000/svg">
<rect width="768" height="48" fill="url(#paint0_linear_2356_2683)"/>
<path d="M147.316 31L143.812 18.6602H143.707C143.738 18.9805 143.77 19.4141 143.801 19.9609C143.84 20.5078 143.875 21.0977 143.906 21.7305C143.938 22.3633 143.953 22.9727 143.953 23.5586V31H139.852V13.8672H146.016L149.59 26.0312H149.684L153.188 13.8672H159.363V31H155.109V23.4883C155.109 22.9492 155.117 22.3711 155.133 21.7539C155.156 21.1289 155.18 20.543 155.203 19.9961C155.234 19.4414 155.262 19.0039 155.285 18.6836H155.18L151.723 31H147.316ZM168.762 17.4883C170.051 17.4883 171.164 17.7148 172.102 18.168C173.039 18.6133 173.762 19.2852 174.27 20.1836C174.777 21.082 175.031 22.207 175.031 23.5586V25.5977H166.84C166.879 26.293 167.137 26.8633 167.613 27.3086C168.098 27.7539 168.809 27.9766 169.746 27.9766C170.574 27.9766 171.332 27.8945 172.02 27.7305C172.715 27.5664 173.43 27.3125 174.164 26.9688V30.2617C173.523 30.5977 172.824 30.8438 172.066 31C171.309 31.1562 170.352 31.2344 169.195 31.2344C167.859 31.2344 166.664 30.9961 165.609 30.5195C164.555 30.043 163.723 29.3047 163.113 28.3047C162.512 27.3047 162.211 26.0195 162.211 24.4492C162.211 22.8555 162.484 21.5469 163.031 20.5234C163.578 19.4922 164.344 18.7305 165.328 18.2383C166.312 17.7383 167.457 17.4883 168.762 17.4883ZM168.926 20.6055C168.387 20.6055 167.934 20.7773 167.566 21.1211C167.207 21.457 166.996 21.9883 166.934 22.7148H170.871C170.863 22.3242 170.785 21.9688 170.637 21.6484C170.488 21.3281 170.27 21.0742 169.98 20.8867C169.699 20.6992 169.348 20.6055 168.926 20.6055ZM181.746 31.2344C180.379 31.2344 179.254 30.6523 178.371 29.4883C177.488 28.3242 177.047 26.6211 177.047 24.3789C177.047 22.1133 177.5 20.3984 178.406 19.2344C179.312 18.0703 180.484 17.4883 181.922 17.4883C182.516 17.4883 183.027 17.5742 183.457 17.7461C183.887 17.918 184.258 18.1523 184.57 18.4492C184.891 18.7383 185.168 19.0664 185.402 19.4336H185.496C185.441 19.0977 185.391 18.6367 185.344 18.0508C185.297 17.457 185.273 16.8789 185.273 16.3164V12.7656H189.891V31H186.434L185.449 29.3242H185.273C185.062 29.6758 184.797 29.9961 184.477 30.2852C184.164 30.5742 183.781 30.8047 183.328 30.9766C182.883 31.1484 182.355 31.2344 181.746 31.2344ZM183.621 27.6133C184.355 27.6133 184.871 27.3828 185.168 26.9219C185.473 26.4531 185.637 25.7422 185.66 24.7891V24.4258C185.66 23.3789 185.512 22.5781 185.215 22.0234C184.926 21.4609 184.379 21.1797 183.574 21.1797C183.027 21.1797 182.574 21.4453 182.215 21.9766C181.855 22.5078 181.676 23.332 181.676 24.4492C181.676 25.5508 181.855 26.3555 182.215 26.8633C182.582 27.3633 183.051 27.6133 183.621 27.6133ZM197.672 17.7227V31H193.09V17.7227H197.672ZM195.398 12.3789C196.055 12.3789 196.625 12.5156 197.109 12.7891C197.602 13.0625 197.848 13.6055 197.848 14.418C197.848 15.207 197.602 15.7422 197.109 16.0234C196.625 16.2969 196.055 16.4336 195.398 16.4336C194.727 16.4336 194.152 16.2969 193.676 16.0234C193.207 15.7422 192.973 15.207 192.973 14.418C192.973 13.6055 193.207 13.0625 193.676 12.7891C194.152 12.5156 194.727 12.3789 195.398 12.3789ZM207.352 17.4883C209.031 17.4883 210.344 17.9062 211.289 18.7422C212.234 19.5703 212.707 20.7539 212.707 22.293V31H209.531L208.652 29.2422H208.559C208.184 29.7109 207.797 30.0938 207.398 30.3906C207.008 30.6797 206.559 30.8906 206.051 31.0234C205.543 31.1641 204.922 31.2344 204.188 31.2344C203.422 31.2344 202.734 31.0781 202.125 30.7656C201.516 30.4531 201.035 29.9805 200.684 29.3477C200.332 28.7148 200.156 27.9141 200.156 26.9453C200.156 25.5234 200.648 24.4688 201.633 23.7812C202.617 23.0938 204.043 22.707 205.91 22.6211L208.125 22.5508V22.3633C208.125 21.7695 207.977 21.3477 207.68 21.0977C207.391 20.8477 207 20.7227 206.508 20.7227C205.984 20.7227 205.398 20.8164 204.75 21.0039C204.109 21.1836 203.465 21.418 202.816 21.707L201.492 18.6836C202.258 18.293 203.125 17.9961 204.094 17.793C205.062 17.5898 206.148 17.4883 207.352 17.4883ZM208.148 25.0703L207.094 25.1172C206.25 25.1484 205.656 25.2969 205.312 25.5625C204.977 25.8203 204.809 26.1914 204.809 26.6758C204.809 27.1289 204.93 27.4648 205.172 27.6836C205.414 27.8945 205.734 28 206.133 28C206.688 28 207.16 27.8242 207.551 27.4727C207.949 27.1211 208.148 26.6641 208.148 26.1016V25.0703ZM228.258 13.8672C230.43 13.8672 232.055 14.3398 233.133 15.2852C234.219 16.2305 234.762 17.5742 234.762 19.3164C234.762 20.0977 234.648 20.8477 234.422 21.5664C234.203 22.2852 233.84 22.9258 233.332 23.4883C232.832 24.0508 232.164 24.4961 231.328 24.8242C230.5 25.1523 229.477 25.3164 228.258 25.3164H226.957V31H222.328V13.8672H228.258ZM228.152 17.6055H226.957V21.543H227.871C228.27 21.543 228.641 21.4766 228.984 21.3438C229.328 21.2031 229.602 20.9805 229.805 20.6758C230.016 20.3633 230.121 19.9492 230.121 19.4336C230.121 18.8945 229.961 18.457 229.641 18.1211C229.32 17.7773 228.824 17.6055 228.152 17.6055ZM245.238 17.4883C245.488 17.4883 245.75 17.5078 246.023 17.5469C246.297 17.5781 246.5 17.6055 246.633 17.6289L246.223 21.9531C246.074 21.9141 245.883 21.8828 245.648 21.8594C245.414 21.8281 245.086 21.8125 244.664 21.8125C244.375 21.8125 244.066 21.8398 243.738 21.8945C243.41 21.9492 243.098 22.0664 242.801 22.2461C242.512 22.418 242.273 22.6836 242.086 23.043C241.898 23.3945 241.805 23.8711 241.805 24.4727V31H237.223V17.7227H240.633L241.348 19.8438H241.57C241.812 19.4062 242.121 19.0117 242.496 18.6602C242.879 18.3008 243.305 18.0156 243.773 17.8047C244.25 17.5938 244.738 17.4883 245.238 17.4883ZM261.176 24.332C261.176 25.4414 261.023 26.4258 260.719 27.2852C260.414 28.1445 259.973 28.8672 259.395 29.4531C258.816 30.0391 258.117 30.4844 257.297 30.7891C256.477 31.0859 255.551 31.2344 254.52 31.2344C253.559 31.2344 252.676 31.0859 251.871 30.7891C251.074 30.4844 250.379 30.0391 249.785 29.4531C249.191 28.8672 248.73 28.1445 248.402 27.2852C248.082 26.4258 247.922 25.4414 247.922 24.332C247.922 22.8633 248.188 21.6211 248.719 20.6055C249.258 19.5898 250.023 18.8164 251.016 18.2852C252.016 17.7539 253.207 17.4883 254.59 17.4883C255.863 17.4883 256.996 17.7539 257.988 18.2852C258.98 18.8164 259.758 19.5898 260.32 20.6055C260.891 21.6211 261.176 22.8633 261.176 24.332ZM252.574 24.332C252.574 25.0898 252.641 25.7305 252.773 26.2539C252.906 26.7695 253.117 27.1641 253.406 27.4375C253.703 27.7031 254.09 27.8359 254.566 27.8359C255.043 27.8359 255.422 27.7031 255.703 27.4375C255.984 27.1641 256.188 26.7695 256.312 26.2539C256.445 25.7305 256.512 25.0898 256.512 24.332C256.512 23.5742 256.445 22.9414 256.312 22.4336C256.188 21.9258 255.98 21.543 255.691 21.2852C255.41 21.0273 255.027 20.8984 254.543 20.8984C253.848 20.8984 253.344 21.1875 253.031 21.7656C252.727 22.3438 252.574 23.1992 252.574 24.332ZM267.926 31.2344C266.559 31.2344 265.434 30.6523 264.551 29.4883C263.668 28.3242 263.227 26.6211 263.227 24.3789C263.227 22.1133 263.68 20.3984 264.586 19.2344C265.492 18.0703 266.664 17.4883 268.102 17.4883C268.695 17.4883 269.207 17.5742 269.637 17.7461C270.066 17.918 270.438 18.1523 270.75 18.4492C271.07 18.7383 271.348 19.0664 271.582 19.4336H271.676C271.621 19.0977 271.57 18.6367 271.523 18.0508C271.477 17.457 271.453 16.8789 271.453 16.3164V12.7656H276.07V31H272.613L271.629 29.3242H271.453C271.242 29.6758 270.977 29.9961 270.656 30.2852C270.344 30.5742 269.961 30.8047 269.508 30.9766C269.062 31.1484 268.535 31.2344 267.926 31.2344ZM269.801 27.6133C270.535 27.6133 271.051 27.3828 271.348 26.9219C271.652 26.4531 271.816 25.7422 271.84 24.7891V24.4258C271.84 23.3789 271.691 22.5781 271.395 22.0234C271.105 21.4609 270.559 21.1797 269.754 21.1797C269.207 21.1797 268.754 21.4453 268.395 21.9766C268.035 22.5078 267.855 23.332 267.855 24.4492C267.855 25.5508 268.035 26.3555 268.395 26.8633C268.762 27.3633 269.23 27.6133 269.801 27.6133ZM292.16 17.7227V31H288.703L288.129 29.3477H287.859C287.586 29.793 287.238 30.1562 286.816 30.4375C286.402 30.7109 285.941 30.9102 285.434 31.0352C284.926 31.168 284.398 31.2344 283.852 31.2344C282.984 31.2344 282.199 31.0664 281.496 30.7305C280.801 30.3945 280.246 29.8672 279.832 29.1484C279.426 28.4297 279.223 27.5039 279.223 26.3711V17.7227H283.805V24.9766C283.805 25.8359 283.926 26.4922 284.168 26.9453C284.418 27.3906 284.824 27.6133 285.387 27.6133C285.965 27.6133 286.41 27.457 286.723 27.1445C287.043 26.832 287.266 26.3711 287.391 25.7617C287.516 25.1523 287.578 24.4102 287.578 23.5352V17.7227H292.16ZM301.371 31.2344C300.027 31.2344 298.859 30.9961 297.867 30.5195C296.875 30.0352 296.105 29.293 295.559 28.293C295.02 27.2852 294.75 25.9961 294.75 24.4258C294.75 22.8164 295.051 21.5 295.652 20.4766C296.262 19.4531 297.094 18.6992 298.148 18.2148C299.203 17.7305 300.398 17.4883 301.734 17.4883C302.547 17.4883 303.316 17.5781 304.043 17.7578C304.777 17.9375 305.457 18.1836 306.082 18.4961L304.734 21.8828C304.188 21.6406 303.676 21.4492 303.199 21.3086C302.73 21.1602 302.242 21.0859 301.734 21.0859C301.273 21.0859 300.867 21.207 300.516 21.4492C300.164 21.6914 299.891 22.0586 299.695 22.5508C299.5 23.0352 299.402 23.6523 299.402 24.4023C299.402 25.168 299.5 25.7852 299.695 26.2539C299.898 26.7227 300.176 27.0625 300.527 27.2734C300.887 27.4844 301.297 27.5898 301.758 27.5898C302.422 27.5898 303.082 27.4883 303.738 27.2852C304.402 27.0742 305.031 26.7852 305.625 26.418V30.0625C305.078 30.4219 304.461 30.707 303.773 30.918C303.086 31.1289 302.285 31.2344 301.371 31.2344ZM314.766 27.6133C315.18 27.6133 315.559 27.5703 315.902 27.4844C316.246 27.3984 316.605 27.2891 316.98 27.1562V30.4961C316.48 30.7148 315.949 30.8906 315.387 31.0234C314.832 31.1641 314.121 31.2344 313.254 31.2344C312.395 31.2344 311.637 31.1016 310.98 30.8359C310.324 30.5625 309.812 30.0938 309.445 29.4297C309.086 28.7578 308.906 27.8242 308.906 26.6289V21.1562H307.301V19.293L309.34 17.8516L310.523 15.0625H313.523V17.7227H316.781V21.1562H313.523V26.3242C313.523 26.7539 313.633 27.0781 313.852 27.2969C314.07 27.5078 314.375 27.6133 314.766 27.6133ZM323.906 17.7227V31H319.324V17.7227H323.906ZM321.633 12.3789C322.289 12.3789 322.859 12.5156 323.344 12.7891C323.836 13.0625 324.082 13.6055 324.082 14.418C324.082 15.207 323.836 15.7422 323.344 16.0234C322.859 16.2969 322.289 16.4336 321.633 16.4336C320.961 16.4336 320.387 16.2969 319.91 16.0234C319.441 15.7422 319.207 15.207 319.207 14.418C319.207 13.6055 319.441 13.0625 319.91 12.7891C320.387 12.5156 320.961 12.3789 321.633 12.3789ZM339.785 24.332C339.785 25.4414 339.633 26.4258 339.328 27.2852C339.023 28.1445 338.582 28.8672 338.004 29.4531C337.426 30.0391 336.727 30.4844 335.906 30.7891C335.086 31.0859 334.16 31.2344 333.129 31.2344C332.168 31.2344 331.285 31.0859 330.48 30.7891C329.684 30.4844 328.988 30.0391 328.395 29.4531C327.801 28.8672 327.34 28.1445 327.012 27.2852C326.691 26.4258 326.531 25.4414 326.531 24.332C326.531 22.8633 326.797 21.6211 327.328 20.6055C327.867 19.5898 328.633 18.8164 329.625 18.2852C330.625 17.7539 331.816 17.4883 333.199 17.4883C334.473 17.4883 335.605 17.7539 336.598 18.2852C337.59 18.8164 338.367 19.5898 338.93 20.6055C339.5 21.6211 339.785 22.8633 339.785 24.332ZM331.184 24.332C331.184 25.0898 331.25 25.7305 331.383 26.2539C331.516 26.7695 331.727 27.1641 332.016 27.4375C332.312 27.7031 332.699 27.8359 333.176 27.8359C333.652 27.8359 334.031 27.7031 334.312 27.4375C334.594 27.1641 334.797 26.7695 334.922 26.2539C335.055 25.7305 335.121 25.0898 335.121 24.332C335.121 23.5742 335.055 22.9414 334.922 22.4336C334.797 21.9258 334.59 21.543 334.301 21.2852C334.02 21.0273 333.637 20.8984 333.152 20.8984C332.457 20.8984 331.953 21.1875 331.641 21.7656C331.336 22.3438 331.184 23.1992 331.184 24.332ZM350.719 17.4883C352.086 17.4883 353.203 17.875 354.07 18.6484C354.938 19.4219 355.371 20.6602 355.371 22.3633V31H350.789V23.7578C350.789 22.875 350.66 22.2109 350.402 21.7656C350.152 21.3125 349.746 21.0859 349.184 21.0859C348.316 21.0859 347.734 21.4414 347.438 22.1523C347.141 22.8555 346.992 23.8672 346.992 25.1875V31H342.41V17.7227H345.867L346.488 19.4805H346.664C346.945 19.0586 347.281 18.6992 347.672 18.4023C348.062 18.1055 348.512 17.8789 349.02 17.7227C349.527 17.5664 350.094 17.4883 350.719 17.4883ZM371.203 17.4883C372.883 17.4883 374.195 17.9062 375.141 18.7422C376.086 19.5703 376.559 20.7539 376.559 22.293V31H373.383L372.504 29.2422H372.41C372.035 29.7109 371.648 30.0938 371.25 30.3906C370.859 30.6797 370.41 30.8906 369.902 31.0234C369.395 31.1641 368.773 31.2344 368.039 31.2344C367.273 31.2344 366.586 31.0781 365.977 30.7656C365.367 30.4531 364.887 29.9805 364.535 29.3477C364.184 28.7148 364.008 27.9141 364.008 26.9453C364.008 25.5234 364.5 24.4688 365.484 23.7812C366.469 23.0938 367.895 22.707 369.762 22.6211L371.977 22.5508V22.3633C371.977 21.7695 371.828 21.3477 371.531 21.0977C371.242 20.8477 370.852 20.7227 370.359 20.7227C369.836 20.7227 369.25 20.8164 368.602 21.0039C367.961 21.1836 367.316 21.418 366.668 21.707L365.344 18.6836C366.109 18.293 366.977 17.9961 367.945 17.793C368.914 17.5898 370 17.4883 371.203 17.4883ZM372 25.0703L370.945 25.1172C370.102 25.1484 369.508 25.2969 369.164 25.5625C368.828 25.8203 368.66 26.1914 368.66 26.6758C368.66 27.1289 368.781 27.4648 369.023 27.6836C369.266 27.8945 369.586 28 369.984 28C370.539 28 371.012 27.8242 371.402 27.4727C371.801 27.1211 372 26.6641 372 26.1016V25.0703ZM387.984 17.4883C389.352 17.4883 390.469 17.875 391.336 18.6484C392.203 19.4219 392.637 20.6602 392.637 22.3633V31H388.055V23.7578C388.055 22.875 387.926 22.2109 387.668 21.7656C387.418 21.3125 387.012 21.0859 386.449 21.0859C385.582 21.0859 385 21.4414 384.703 22.1523C384.406 22.8555 384.258 23.8672 384.258 25.1875V31H379.676V17.7227H383.133L383.754 19.4805H383.93C384.211 19.0586 384.547 18.6992 384.938 18.4023C385.328 18.1055 385.777 17.8789 386.285 17.7227C386.793 17.5664 387.359 17.4883 387.984 17.4883ZM399.879 31.2344C398.512 31.2344 397.387 30.6523 396.504 29.4883C395.621 28.3242 395.18 26.6211 395.18 24.3789C395.18 22.1133 395.633 20.3984 396.539 19.2344C397.445 18.0703 398.617 17.4883 400.055 17.4883C400.648 17.4883 401.16 17.5742 401.59 17.7461C402.02 17.918 402.391 18.1523 402.703 18.4492C403.023 18.7383 403.301 19.0664 403.535 19.4336H403.629C403.574 19.0977 403.523 18.6367 403.477 18.0508C403.43 17.457 403.406 16.8789 403.406 16.3164V12.7656H408.023V31H404.566L403.582 29.3242H403.406C403.195 29.6758 402.93 29.9961 402.609 30.2852C402.297 30.5742 401.914 30.8047 401.461 30.9766C401.016 31.1484 400.488 31.2344 399.879 31.2344ZM401.754 27.6133C402.488 27.6133 403.004 27.3828 403.301 26.9219C403.605 26.4531 403.77 25.7422 403.793 24.7891V24.4258C403.793 23.3789 403.645 22.5781 403.348 22.0234C403.059 21.4609 402.512 21.1797 401.707 21.1797C401.16 21.1797 400.707 21.4453 400.348 21.9766C399.988 22.5078 399.809 23.332 399.809 24.4492C399.809 25.5508 399.988 26.3555 400.348 26.8633C400.715 27.3633 401.184 27.6133 401.754 27.6133ZM425.332 17.418C424.785 17.418 424.297 17.5352 423.867 17.7695C423.438 17.9961 423.07 18.3281 422.766 18.7656C422.461 19.2031 422.227 19.7383 422.062 20.3711C421.906 20.9961 421.828 21.707 421.828 22.5039C421.828 23.582 421.965 24.4883 422.238 25.2227C422.512 25.957 422.926 26.5117 423.48 26.8867C424.043 27.2617 424.746 27.4492 425.59 27.4492C426.355 27.4492 427.09 27.3438 427.793 27.1328C428.504 26.9219 429.219 26.668 429.938 26.3711V30.2852C429.18 30.6211 428.402 30.8633 427.605 31.0117C426.816 31.1602 425.977 31.2344 425.086 31.2344C423.227 31.2344 421.703 30.8672 420.516 30.1328C419.336 29.3906 418.465 28.3633 417.902 27.0508C417.348 25.7383 417.07 24.2148 417.07 22.4805C417.07 21.1836 417.25 19.9961 417.609 18.918C417.977 17.8398 418.512 16.9062 419.215 16.1172C419.918 15.3203 420.785 14.707 421.816 14.2773C422.855 13.8398 424.043 13.6211 425.379 13.6211C426.207 13.6211 427.078 13.7188 427.992 13.9141C428.914 14.1016 429.812 14.4062 430.688 14.8281L429.27 18.4727C428.645 18.1758 428.012 17.9258 427.371 17.7227C426.73 17.5195 426.051 17.418 425.332 17.418ZM445.699 24.332C445.699 25.4414 445.547 26.4258 445.242 27.2852C444.938 28.1445 444.496 28.8672 443.918 29.4531C443.34 30.0391 442.641 30.4844 441.82 30.7891C441 31.0859 440.074 31.2344 439.043 31.2344C438.082 31.2344 437.199 31.0859 436.395 30.7891C435.598 30.4844 434.902 30.0391 434.309 29.4531C433.715 28.8672 433.254 28.1445 432.926 27.2852C432.605 26.4258 432.445 25.4414 432.445 24.332C432.445 22.8633 432.711 21.6211 433.242 20.6055C433.781 19.5898 434.547 18.8164 435.539 18.2852C436.539 17.7539 437.73 17.4883 439.113 17.4883C440.387 17.4883 441.52 17.7539 442.512 18.2852C443.504 18.8164 444.281 19.5898 444.844 20.6055C445.414 21.6211 445.699 22.8633 445.699 24.332ZM437.098 24.332C437.098 25.0898 437.164 25.7305 437.297 26.2539C437.43 26.7695 437.641 27.1641 437.93 27.4375C438.227 27.7031 438.613 27.8359 439.09 27.8359C439.566 27.8359 439.945 27.7031 440.227 27.4375C440.508 27.1641 440.711 26.7695 440.836 26.2539C440.969 25.7305 441.035 25.0898 441.035 24.332C441.035 23.5742 440.969 22.9414 440.836 22.4336C440.711 21.9258 440.504 21.543 440.215 21.2852C439.934 21.0273 439.551 20.8984 439.066 20.8984C438.371 20.8984 437.867 21.1875 437.555 21.7656C437.25 22.3438 437.098 23.1992 437.098 24.332ZM456.633 17.4883C458 17.4883 459.117 17.875 459.984 18.6484C460.852 19.4219 461.285 20.6602 461.285 22.3633V31H456.703V23.7578C456.703 22.875 456.574 22.2109 456.316 21.7656C456.066 21.3125 455.66 21.0859 455.098 21.0859C454.23 21.0859 453.648 21.4414 453.352 22.1523C453.055 22.8555 452.906 23.8672 452.906 25.1875V31H448.324V17.7227H451.781L452.402 19.4805H452.578C452.859 19.0586 453.195 18.6992 453.586 18.4023C453.977 18.1055 454.426 17.8789 454.934 17.7227C455.441 17.5664 456.008 17.4883 456.633 17.4883ZM470.906 27.6133C471.32 27.6133 471.699 27.5703 472.043 27.4844C472.387 27.3984 472.746 27.2891 473.121 27.1562V30.4961C472.621 30.7148 472.09 30.8906 471.527 31.0234C470.973 31.1641 470.262 31.2344 469.395 31.2344C468.535 31.2344 467.777 31.1016 467.121 30.8359C466.465 30.5625 465.953 30.0938 465.586 29.4297C465.227 28.7578 465.047 27.8242 465.047 26.6289V21.1562H463.441V19.293L465.48 17.8516L466.664 15.0625H469.664V17.7227H472.922V21.1562H469.664V26.3242C469.664 26.7539 469.773 27.0781 469.992 27.2969C470.211 27.5078 470.516 27.6133 470.906 27.6133ZM481.418 17.4883C482.707 17.4883 483.82 17.7148 484.758 18.168C485.695 18.6133 486.418 19.2852 486.926 20.1836C487.434 21.082 487.688 22.207 487.688 23.5586V25.5977H479.496C479.535 26.293 479.793 26.8633 480.27 27.3086C480.754 27.7539 481.465 27.9766 482.402 27.9766C483.23 27.9766 483.988 27.8945 484.676 27.7305C485.371 27.5664 486.086 27.3125 486.82 26.9688V30.2617C486.18 30.5977 485.48 30.8438 484.723 31C483.965 31.1562 483.008 31.2344 481.852 31.2344C480.516 31.2344 479.32 30.9961 478.266 30.5195C477.211 30.043 476.379 29.3047 475.77 28.3047C475.168 27.3047 474.867 26.0195 474.867 24.4492C474.867 22.8555 475.141 21.5469 475.688 20.5234C476.234 19.4922 477 18.7305 477.984 18.2383C478.969 17.7383 480.113 17.4883 481.418 17.4883ZM481.582 20.6055C481.043 20.6055 480.59 20.7773 480.223 21.1211C479.863 21.457 479.652 21.9883 479.59 22.7148H483.527C483.52 22.3242 483.441 21.9688 483.293 21.6484C483.145 21.3281 482.926 21.0742 482.637 20.8867C482.355 20.6992 482.004 20.6055 481.582 20.6055ZM498.586 17.4883C499.953 17.4883 501.07 17.875 501.938 18.6484C502.805 19.4219 503.238 20.6602 503.238 22.3633V31H498.656V23.7578C498.656 22.875 498.527 22.2109 498.27 21.7656C498.02 21.3125 497.613 21.0859 497.051 21.0859C496.184 21.0859 495.602 21.4414 495.305 22.1523C495.008 22.8555 494.859 23.8672 494.859 25.1875V31H490.277V17.7227H493.734L494.355 19.4805H494.531C494.812 19.0586 495.148 18.6992 495.539 18.4023C495.93 18.1055 496.379 17.8789 496.887 17.7227C497.395 17.5664 497.961 17.4883 498.586 17.4883ZM512.859 27.6133C513.273 27.6133 513.652 27.5703 513.996 27.4844C514.34 27.3984 514.699 27.2891 515.074 27.1562V30.4961C514.574 30.7148 514.043 30.8906 513.48 31.0234C512.926 31.1641 512.215 31.2344 511.348 31.2344C510.488 31.2344 509.73 31.1016 509.074 30.8359C508.418 30.5625 507.906 30.0938 507.539 29.4297C507.18 28.7578 507 27.8242 507 26.6289V21.1562H505.395V19.293L507.434 17.8516L508.617 15.0625H511.617V17.7227H514.875V21.1562H511.617V26.3242C511.617 26.7539 511.727 27.0781 511.945 27.2969C512.164 27.5078 512.469 27.6133 512.859 27.6133ZM531.527 17.418C530.98 17.418 530.492 17.5352 530.062 17.7695C529.633 17.9961 529.266 18.3281 528.961 18.7656C528.656 19.2031 528.422 19.7383 528.258 20.3711C528.102 20.9961 528.023 21.707 528.023 22.5039C528.023 23.582 528.16 24.4883 528.434 25.2227C528.707 25.957 529.121 26.5117 529.676 26.8867C530.238 27.2617 530.941 27.4492 531.785 27.4492C532.551 27.4492 533.285 27.3438 533.988 27.1328C534.699 26.9219 535.414 26.668 536.133 26.3711V30.2852C535.375 30.6211 534.598 30.8633 533.801 31.0117C533.012 31.1602 532.172 31.2344 531.281 31.2344C529.422 31.2344 527.898 30.8672 526.711 30.1328C525.531 29.3906 524.66 28.3633 524.098 27.0508C523.543 25.7383 523.266 24.2148 523.266 22.4805C523.266 21.1836 523.445 19.9961 523.805 18.918C524.172 17.8398 524.707 16.9062 525.41 16.1172C526.113 15.3203 526.98 14.707 528.012 14.2773C529.051 13.8398 530.238 13.6211 531.574 13.6211C532.402 13.6211 533.273 13.7188 534.188 13.9141C535.109 14.1016 536.008 14.4062 536.883 14.8281L535.465 18.4727C534.84 18.1758 534.207 17.9258 533.566 17.7227C532.926 17.5195 532.246 17.418 531.527 17.418ZM547.23 17.4883C547.48 17.4883 547.742 17.5078 548.016 17.5469C548.289 17.5781 548.492 17.6055 548.625 17.6289L548.215 21.9531C548.066 21.9141 547.875 21.8828 547.641 21.8594C547.406 21.8281 547.078 21.8125 546.656 21.8125C546.367 21.8125 546.059 21.8398 545.73 21.8945C545.402 21.9492 545.09 22.0664 544.793 22.2461C544.504 22.418 544.266 22.6836 544.078 23.043C543.891 23.3945 543.797 23.8711 543.797 24.4727V31H539.215V17.7227H542.625L543.34 19.8438H543.562C543.805 19.4062 544.113 19.0117 544.488 18.6602C544.871 18.3008 545.297 18.0156 545.766 17.8047C546.242 17.5938 546.73 17.4883 547.23 17.4883ZM556.465 17.4883C557.754 17.4883 558.867 17.7148 559.805 18.168C560.742 18.6133 561.465 19.2852 561.973 20.1836C562.48 21.082 562.734 22.207 562.734 23.5586V25.5977H554.543C554.582 26.293 554.84 26.8633 555.316 27.3086C555.801 27.7539 556.512 27.9766 557.449 27.9766C558.277 27.9766 559.035 27.8945 559.723 27.7305C560.418 27.5664 561.133 27.3125 561.867 26.9688V30.2617C561.227 30.5977 560.527 30.8438 559.77 31C559.012 31.1562 558.055 31.2344 556.898 31.2344C555.562 31.2344 554.367 30.9961 553.312 30.5195C552.258 30.043 551.426 29.3047 550.816 28.3047C550.215 27.3047 549.914 26.0195 549.914 24.4492C549.914 22.8555 550.188 21.5469 550.734 20.5234C551.281 19.4922 552.047 18.7305 553.031 18.2383C554.016 17.7383 555.16 17.4883 556.465 17.4883ZM556.629 20.6055C556.09 20.6055 555.637 20.7773 555.27 21.1211C554.91 21.457 554.699 21.9883 554.637 22.7148H558.574C558.566 22.3242 558.488 21.9688 558.34 21.6484C558.191 21.3281 557.973 21.0742 557.684 20.8867C557.402 20.6992 557.051 20.6055 556.629 20.6055ZM571.805 17.4883C573.484 17.4883 574.797 17.9062 575.742 18.7422C576.688 19.5703 577.16 20.7539 577.16 22.293V31H573.984L573.105 29.2422H573.012C572.637 29.7109 572.25 30.0938 571.852 30.3906C571.461 30.6797 571.012 30.8906 570.504 31.0234C569.996 31.1641 569.375 31.2344 568.641 31.2344C567.875 31.2344 567.188 31.0781 566.578 30.7656C565.969 30.4531 565.488 29.9805 565.137 29.3477C564.785 28.7148 564.609 27.9141 564.609 26.9453C564.609 25.5234 565.102 24.4688 566.086 23.7812C567.07 23.0938 568.496 22.707 570.363 22.6211L572.578 22.5508V22.3633C572.578 21.7695 572.43 21.3477 572.133 21.0977C571.844 20.8477 571.453 20.7227 570.961 20.7227C570.438 20.7227 569.852 20.8164 569.203 21.0039C568.562 21.1836 567.918 21.418 567.27 21.707L565.945 18.6836C566.711 18.293 567.578 17.9961 568.547 17.793C569.516 17.5898 570.602 17.4883 571.805 17.4883ZM572.602 25.0703L571.547 25.1172C570.703 25.1484 570.109 25.2969 569.766 25.5625C569.43 25.8203 569.262 26.1914 569.262 26.6758C569.262 27.1289 569.383 27.4648 569.625 27.6836C569.867 27.8945 570.188 28 570.586 28C571.141 28 571.613 27.8242 572.004 27.4727C572.402 27.1211 572.602 26.6641 572.602 26.1016V25.0703ZM586.781 27.6133C587.195 27.6133 587.574 27.5703 587.918 27.4844C588.262 27.3984 588.621 27.2891 588.996 27.1562V30.4961C588.496 30.7148 587.965 30.8906 587.402 31.0234C586.848 31.1641 586.137 31.2344 585.27 31.2344C584.41 31.2344 583.652 31.1016 582.996 30.8359C582.34 30.5625 581.828 30.0938 581.461 29.4297C581.102 28.7578 580.922 27.8242 580.922 26.6289V21.1562H579.316V19.293L581.355 17.8516L582.539 15.0625H585.539V17.7227H588.797V21.1562H585.539V26.3242C585.539 26.7539 585.648 27.0781 585.867 27.2969C586.086 27.5078 586.391 27.6133 586.781 27.6133ZM595.922 17.7227V31H591.34V17.7227H595.922ZM593.648 12.3789C594.305 12.3789 594.875 12.5156 595.359 12.7891C595.852 13.0625 596.098 13.6055 596.098 14.418C596.098 15.207 595.852 15.7422 595.359 16.0234C594.875 16.2969 594.305 16.4336 593.648 16.4336C592.977 16.4336 592.402 16.2969 591.926 16.0234C591.457 15.7422 591.223 15.207 591.223 14.418C591.223 13.6055 591.457 13.0625 591.926 12.7891C592.402 12.5156 592.977 12.3789 593.648 12.3789ZM611.801 24.332C611.801 25.4414 611.648 26.4258 611.344 27.2852C611.039 28.1445 610.598 28.8672 610.02 29.4531C609.441 30.0391 608.742 30.4844 607.922 30.7891C607.102 31.0859 606.176 31.2344 605.145 31.2344C604.184 31.2344 603.301 31.0859 602.496 30.7891C601.699 30.4844 601.004 30.0391 600.41 29.4531C599.816 28.8672 599.355 28.1445 599.027 27.2852C598.707 26.4258 598.547 25.4414 598.547 24.332C598.547 22.8633 598.812 21.6211 599.344 20.6055C599.883 19.5898 600.648 18.8164 601.641 18.2852C602.641 17.7539 603.832 17.4883 605.215 17.4883C606.488 17.4883 607.621 17.7539 608.613 18.2852C609.605 18.8164 610.383 19.5898 610.945 20.6055C611.516 21.6211 611.801 22.8633 611.801 24.332ZM603.199 24.332C603.199 25.0898 603.266 25.7305 603.398 26.2539C603.531 26.7695 603.742 27.1641 604.031 27.4375C604.328 27.7031 604.715 27.8359 605.191 27.8359C605.668 27.8359 606.047 27.7031 606.328 27.4375C606.609 27.1641 606.812 26.7695 606.938 26.2539C607.07 25.7305 607.137 25.0898 607.137 24.332C607.137 23.5742 607.07 22.9414 606.938 22.4336C606.812 21.9258 606.605 21.543 606.316 21.2852C606.035 21.0273 605.652 20.8984 605.168 20.8984C604.473 20.8984 603.969 21.1875 603.656 21.7656C603.352 22.3438 603.199 23.1992 603.199 24.332ZM622.734 17.4883C624.102 17.4883 625.219 17.875 626.086 18.6484C626.953 19.4219 627.387 20.6602 627.387 22.3633V31H622.805V23.7578C622.805 22.875 622.676 22.2109 622.418 21.7656C622.168 21.3125 621.762 21.0859 621.199 21.0859C620.332 21.0859 619.75 21.4414 619.453 22.1523C619.156 22.8555 619.008 23.8672 619.008 25.1875V31H614.426V17.7227H617.883L618.504 19.4805H618.68C618.961 19.0586 619.297 18.6992 619.688 18.4023C620.078 18.1055 620.527 17.8789 621.035 17.7227C621.543 17.5664 622.109 17.4883 622.734 17.4883Z" fill="white"/>
<defs>
<linearGradient id="paint0_linear_2356_2683" x1="768" y1="48.0003" x2="9.88112" y2="48.0001" gradientUnits="userSpaceOnUse">
<stop stop-color="#C2157D" stop-opacity="0.29"/>
<stop offset="0.523958" stop-color="#A01706"/>
<stop offset="1" stop-color="#C2157D" stop-opacity="0.3"/>
</linearGradient>
</defs>
</svg>
